<svg width="111" height="51" viewBox="0 0 111 51" fill="none" xmlns="http://www.w3.org/2000/svg">
    <path d="M43.583 30H42.2784L45.2097 21.8545H46.6295L49.5608 30H48.2562L45.9534 23.3341H45.8898L43.583 30ZM43.8017 26.8102H48.0335V27.8443H43.8017V26.8102ZM52.2371 30V21.8545H55.22C55.7981 21.8545 56.2767 21.95 56.6558 22.1409C57.035 22.3292 57.3187 22.585 57.507 22.9085C57.6952 23.2294 57.7893 23.5913 57.7893 23.9943C57.7893 24.3337 57.727 24.6201 57.6024 24.8534C57.4778 25.0841 57.3107 25.2697 57.1013 25.4102C56.8945 25.5481 56.6664 25.6489 56.4172 25.7125V25.792C56.6876 25.8053 56.9515 25.8928 57.2087 26.0545C57.4685 26.2136 57.6833 26.4403 57.853 26.7347C58.0227 27.029 58.1075 27.3869 58.1075 27.8085C58.1075 28.2248 58.0094 28.5987 57.8132 28.9301C57.6197 29.2589 57.32 29.5201 56.9143 29.7136C56.5087 29.9045 55.9903 30 55.3592 30H52.2371ZM53.4661 28.946H55.2399C55.8286 28.946 56.2501 28.832 56.5047 28.604C56.7592 28.3759 56.8865 28.0909 56.8865 27.7489C56.8865 27.4917 56.8215 27.2557 56.6916 27.0409C56.5617 26.8261 56.3761 26.6551 56.1348 26.5278C55.8962 26.4006 55.6125 26.3369 55.2837 26.3369H53.4661V28.946ZM53.4661 25.3784H55.1126C55.3884 25.3784 55.6363 25.3254 55.8564 25.2193C56.0791 25.1133 56.2554 24.9648 56.3854 24.7739C56.5179 24.5803 56.5842 24.3523 56.5842 24.0898C56.5842 23.753 56.4662 23.4706 56.2303 23.2426C55.9943 23.0146 55.6323 22.9006 55.1445 22.9006H53.4661V25.3784ZM68.1408 25.9273C68.1408 26.797 67.9817 27.5447 67.6635 28.1705C67.3453 28.7936 66.9091 29.2735 66.355 29.6102C65.8035 29.9443 65.1764 30.1114 64.4737 30.1114C63.7684 30.1114 63.1387 29.9443 62.5845 29.6102C62.033 29.2735 61.5982 28.7922 61.28 28.1665C60.9618 27.5407 60.8027 26.7943 60.8027 25.9273C60.8027 25.0576 60.9618 24.3112 61.28 23.6881C61.5982 23.0623 62.033 22.5824 62.5845 22.2483C63.1387 21.9116 63.7684 21.7432 64.4737 21.7432C65.1764 21.7432 65.8035 21.9116 66.355 22.2483C66.9091 22.5824 67.3453 23.0623 67.6635 23.6881C67.9817 24.3112 68.1408 25.0576 68.1408 25.9273ZM66.9237 25.9273C66.9237 25.2644 66.8163 24.7062 66.6016 24.2528C66.3894 23.7968 66.0978 23.4521 65.7266 23.2188C65.358 22.9828 64.9404 22.8648 64.4737 22.8648C64.0044 22.8648 63.5855 22.9828 63.2169 23.2188C62.8483 23.4521 62.5567 23.7968 62.3419 24.2528C62.1298 24.7062 62.0237 25.2644 62.0237 25.9273C62.0237 26.5902 62.1298 27.1496 62.3419 27.6057C62.5567 28.0591 62.8483 28.4038 63.2169 28.6398C63.5855 28.8731 64.0044 28.9898 64.4737 28.9898C64.9404 28.9898 65.358 28.8731 65.7266 28.6398C66.0978 28.4038 66.3894 28.0591 66.6016 27.6057C66.8163 27.1496 66.9237 26.5902 66.9237 25.9273ZM76.4111 21.8545H77.644V27.2119C77.644 27.782 77.5101 28.2871 77.2423 28.7273C76.9745 29.1648 76.598 29.5095 76.1128 29.7614C75.6276 30.0106 75.0588 30.1352 74.4065 30.1352C73.7569 30.1352 73.1895 30.0106 72.7043 29.7614C72.219 29.5095 71.8425 29.1648 71.5747 28.7273C71.3069 28.2871 71.173 27.782 71.173 27.2119V21.8545H72.402V27.1125C72.402 27.4811 72.4829 27.8085 72.6446 28.0949C72.809 28.3813 73.041 28.6066 73.3406 28.771C73.6402 28.9328 73.9955 29.0136 74.4065 29.0136C74.8202 29.0136 75.1768 28.9328 75.4764 28.771C75.7787 28.6066 76.0094 28.3813 76.1685 28.0949C76.3302 27.8085 76.4111 27.4811 76.4111 27.1125V21.8545ZM80.5291 22.9125V21.8545H86.8331V22.9125H84.2916V30H83.0666V22.9125H80.5291ZM94.1902 21.8545H95.6817L98.2749 28.1864H98.3703L100.963 21.8545H102.455V30H101.286V24.1057H101.21L98.8078 29.9881H97.8374L95.4351 24.1017H95.3595V30H94.1902V21.8545ZM105.742 30V21.8545H110.849V22.9125H106.971V25.3943H110.582V26.4483H106.971V28.942H110.896V30H105.742Z" fill="#F2F2F2" fill-opacity="0.4"/>
    <g filter="url(#filter0_d_15_571)">
    <path d="M20 25.5C20 22.7386 22.2386 20.5 25 20.5C27.7614 20.5 30 22.7386 30 25.5C30 28.2614 27.7614 30.5 25 30.5C22.2386 30.5 20 28.2614 20 25.5Z" fill="#F2F2F2"/>
    </g>
    <defs>
        <filter id="filter0_d_15_571" x="0" y="0.5" width="50" height="50" filterUnits="userSpaceOnUse" color-interpolation-filters="sRGB">
            <feFlood flood-opacity="0" result="BackgroundImageFix"/>
            <feColorMatrix in="SourceAlpha" type="matrix" values="0 0 0 0 0 0 0 0 0 0 0 0 0 0 0 0 0 0 127 0" result="hardAlpha"/>
            <feOffset/>
            <feGaussianBlur stdDeviation="10"/>
            <feComposite in2="hardAlpha" operator="out"/>
            <feColorMatrix type="matrix" values="0 0 0 0 1 0 0 0 0 1 0 0 0 0 1 0 0 0 1 0"/>
            <feBlend mode="normal" in2="BackgroundImageFix" result="effect1_dropShadow_15_571"/>
            <feBlend mode="normal" in="SourceGraphic" in2="effect1_dropShadow_15_571" result="shape"/>
        </filter>
    </defs>
</svg>
