<svg width="124" height="51" viewBox="0 0 124 51" fill="none" xmlns="http://www.w3.org/2000/svg">
    <path d="M42.8949 30V21.8545H48.0017V22.9125H44.1239V25.3943H47.7352V26.4483H44.1239V28.942H48.0494V30H42.8949ZM51.9984 21.8545L53.9473 25.0403H54.0109L55.9598 21.8545H57.3837L54.8462 25.9273L57.3996 30H55.9678L54.0109 26.858H53.9473L51.9905 30H50.5587L53.1558 25.9273L50.5746 21.8545H51.9984ZM60.1027 30V21.8545H63.0061C63.6398 21.8545 64.1648 21.9699 64.5811 22.2006C64.9974 22.4312 65.3089 22.7468 65.5158 23.1472C65.7226 23.5449 65.826 23.993 65.826 24.4915C65.826 24.9926 65.7213 25.4434 65.5118 25.8438C65.305 26.2415 64.9921 26.557 64.5732 26.7903C64.1569 27.021 63.6332 27.1364 63.0021 27.1364H61.0055V26.0943H62.8908C63.2911 26.0943 63.616 26.0254 63.8652 25.8875C64.1144 25.747 64.2974 25.5561 64.4141 25.3148C64.5307 25.0735 64.5891 24.7991 64.5891 24.4915C64.5891 24.1839 64.5307 23.9108 64.4141 23.6722C64.2974 23.4335 64.1131 23.2466 63.8612 23.1114C63.612 22.9761 63.2832 22.9085 62.8749 22.9085H61.3317V30H60.1027ZM68.7668 30V21.8545H73.8736V22.9125H69.9957V25.3943H73.6071V26.4483H69.9957V28.942H73.9213V30H68.7668ZM77.0152 30V21.8545H79.9186C80.5497 21.8545 81.0733 21.9633 81.4896 22.1807C81.9086 22.3981 82.2214 22.6991 82.4283 23.0835C82.6351 23.4653 82.7385 23.9068 82.7385 24.408C82.7385 24.9064 82.6338 25.3453 82.4243 25.7244C82.2175 26.1009 81.9046 26.3939 81.4857 26.6034C81.0694 26.8129 80.5457 26.9176 79.9146 26.9176H77.7152V25.8597H79.8033C80.201 25.8597 80.5245 25.8027 80.7737 25.6886C81.0256 25.5746 81.2099 25.4089 81.3266 25.1915C81.4432 24.9741 81.5016 24.7129 81.5016 24.408C81.5016 24.1004 81.4419 23.8339 81.3226 23.6085C81.2059 23.3831 81.0216 23.2108 80.7697 23.0915C80.5205 22.9695 80.193 22.9085 79.7874 22.9085H78.2442V30H77.0152ZM81.0362 26.325L83.0487 30H81.6487L79.676 26.325H81.0362ZM86.9629 21.8545V30H85.7339V21.8545H86.9629ZM90.2527 30V21.8545H95.3595V22.9125H91.4817V25.3943H95.093V26.4483H91.4817V28.942H95.4072V30H90.2527ZM105.076 21.8545V30H103.946L99.8057 24.0261H99.7301V30H98.5011V21.8545H99.6386L103.783 27.8364H103.859V21.8545H105.076ZM115.134 24.5034H113.893C113.845 24.2383 113.756 24.0049 113.626 23.8034C113.496 23.6019 113.337 23.4309 113.149 23.2903C112.961 23.1498 112.75 23.0437 112.517 22.9722C112.286 22.9006 112.041 22.8648 111.781 22.8648C111.312 22.8648 110.891 22.9828 110.52 23.2188C110.151 23.4547 109.86 23.8008 109.645 24.2568C109.433 24.7129 109.327 25.2697 109.327 25.9273C109.327 26.5902 109.433 27.1496 109.645 27.6057C109.86 28.0617 110.153 28.4064 110.524 28.6398C110.895 28.8731 111.313 28.9898 111.777 28.9898C112.034 28.9898 112.278 28.9553 112.509 28.8864C112.742 28.8148 112.953 28.71 113.141 28.5722C113.329 28.4343 113.488 28.2659 113.618 28.067C113.751 27.8655 113.842 27.6348 113.893 27.375L115.134 27.379C115.067 27.7794 114.939 28.1479 114.748 28.4847C114.56 28.8188 114.317 29.1078 114.02 29.3517C113.726 29.593 113.389 29.7799 113.01 29.9125C112.631 30.0451 112.217 30.1114 111.769 30.1114C111.064 30.1114 110.435 29.9443 109.884 29.6102C109.332 29.2735 108.897 28.7922 108.579 28.1665C108.264 27.5407 108.106 26.7943 108.106 25.9273C108.106 25.0576 108.265 24.3112 108.583 23.6881C108.901 23.0623 109.336 22.5824 109.888 22.2483C110.439 21.9116 111.066 21.7432 111.769 21.7432C112.201 21.7432 112.604 21.8055 112.978 21.9301C113.354 22.0521 113.693 22.2324 113.992 22.471C114.292 22.707 114.54 22.996 114.736 23.3381C114.932 23.6775 115.065 24.0659 115.134 24.5034ZM118.104 30V21.8545H123.211V22.9125H119.333V25.3943H122.945V26.4483H119.333V28.942H123.259V30H118.104Z" fill="#F2F2F2" fill-opacity="0.4"/>
    <g filter="url(#filter0_d_15_533)">
        <path d="M20 25.5C20 22.7386 22.2386 20.5 25 20.5C27.7614 20.5 30 22.7386 30 25.5C30 28.2614 27.7614 30.5 25 30.5C22.2386 30.5 20 28.2614 20 25.5Z" fill="#F2F2F2"/>
    </g>
    <defs>
        <filter id="filter0_d_15_533" x="0" y="0.5" width="50" height="50" filterUnits="userSpaceOnUse" color-interpolation-filters="sRGB">
            <feFlood flood-opacity="0" result="BackgroundImageFix"/>
            <feColorMatrix in="SourceAlpha" type="matrix" values="0 0 0 0 0 0 0 0 0 0 0 0 0 0 0 0 0 0 127 0" result="hardAlpha"/>
            <feOffset/>
            <feGaussianBlur stdDeviation="10"/>
            <feComposite in2="hardAlpha" operator="out"/>
            <feColorMatrix type="matrix" values="0 0 0 0 1 0 0 0 0 1 0 0 0 0 1 0 0 0 1 0"/>
            <feBlend mode="normal" in2="BackgroundImageFix" result="effect1_dropShadow_15_533"/>
            <feBlend mode="normal" in="SourceGraphic" in2="effect1_dropShadow_15_533" result="shape"/>
        </filter>
    </defs>
</svg>
