<svg width="99" height="50" viewBox="0 0 99 50" fill="none" xmlns="http://www.w3.org/2000/svg">
    <path d="M42.8949 29.5V21.3545H47.946V22.4125H44.1239V24.8943H47.5841V25.9483H44.1239V29.5H42.8949ZM50.9574 29.5V21.3545H53.8608C54.4919 21.3545 55.0155 21.4633 55.4318 21.6807C55.8508 21.8981 56.1636 22.1991 56.3705 22.5835C56.5773 22.9653 56.6807 23.4068 56.6807 23.908C56.6807 24.4064 56.5759 24.8453 56.3665 25.2244C56.1597 25.6009 55.8468 25.8939 55.4278 26.1034C55.0116 26.3129 54.4879 26.4176 53.8568 26.4176H51.6574V25.3597H53.7455C54.1432 25.3597 54.4667 25.3027 54.7159 25.1886C54.9678 25.0746 55.1521 24.9089 55.2687 24.6915C55.3854 24.4741 55.4437 24.2129 55.4437 23.908C55.4437 23.6004 55.3841 23.3339 55.2648 23.1085C55.1481 22.8831 54.9638 22.7108 54.7119 22.5915C54.4627 22.4695 54.1352 22.4085 53.7295 22.4085H52.1864V29.5H50.9574ZM54.9784 25.825L56.9909 29.5H55.5909L53.6182 25.825H54.9784ZM60.9051 21.3545V29.5H59.6761V21.3545H60.9051ZM64.1949 29.5V21.3545H69.3017V22.4125H65.4239V24.8943H69.0352V25.9483H65.4239V28.442H69.3494V29.5H64.1949ZM79.0178 21.3545V29.5H77.8882L73.7479 23.5261H73.6723V29.5H72.4433V21.3545H73.5808L77.7251 27.3364H77.8007V21.3545H79.0178ZM84.9474 29.5H82.3105V21.3545H85.031C85.8291 21.3545 86.5145 21.5176 87.0872 21.8438C87.6599 22.1672 88.0988 22.6326 88.4037 23.2398C88.7113 23.8443 88.8651 24.5695 88.8651 25.4153C88.8651 26.2638 88.7099 26.993 88.3997 27.6028C88.0921 28.2127 87.6467 28.682 87.0634 29.0108C86.48 29.3369 85.7747 29.5 84.9474 29.5ZM83.5395 28.4261H84.8798C85.5003 28.4261 86.016 28.3095 86.427 28.0761C86.838 27.8402 87.1456 27.4994 87.3497 27.054C87.5539 26.6059 87.656 26.0597 87.656 25.4153C87.656 24.7763 87.5539 24.2341 87.3497 23.7886C87.1482 23.3432 86.8473 23.0051 86.4469 22.7744C86.0465 22.5437 85.5493 22.4284 84.9554 22.4284H83.5395V28.4261ZM96.3359 23.4943C96.2935 23.1178 96.1185 22.8261 95.8109 22.6193C95.5034 22.4098 95.1162 22.3051 94.6496 22.3051C94.3155 22.3051 94.0265 22.3581 93.7825 22.4642C93.5386 22.5676 93.349 22.7108 93.2138 22.8938C93.0812 23.0741 93.0149 23.2795 93.0149 23.5102C93.0149 23.7038 93.06 23.8708 93.1501 24.0114C93.2429 24.1519 93.3636 24.2699 93.5121 24.3653C93.6632 24.4581 93.825 24.5364 93.9973 24.6C94.1696 24.661 94.3354 24.7114 94.4945 24.7511L95.2899 24.958C95.5498 25.0216 95.8162 25.1078 96.0893 25.2165C96.3625 25.3252 96.6157 25.4684 96.849 25.646C97.0823 25.8237 97.2706 26.0438 97.4138 26.3063C97.5596 26.5688 97.6325 26.883 97.6325 27.2489C97.6325 27.7102 97.5132 28.1199 97.2746 28.4778C97.0386 28.8358 96.6952 29.1182 96.2445 29.325C95.7964 29.5318 95.2541 29.6352 94.6178 29.6352C94.0079 29.6352 93.4803 29.5384 93.0348 29.3449C92.5893 29.1513 92.2407 28.8769 91.9888 28.5216C91.7369 28.1636 91.5977 27.7394 91.5712 27.2489H92.8041C92.828 27.5432 92.9234 27.7884 93.0905 27.9847C93.2602 28.1782 93.4763 28.3227 93.7388 28.4182C94.0039 28.511 94.2943 28.5574 94.6098 28.5574C94.9571 28.5574 95.266 28.503 95.5365 28.3943C95.8096 28.283 96.0244 28.1292 96.1808 27.933C96.3373 27.7341 96.4155 27.5021 96.4155 27.2369C96.4155 26.9956 96.3465 26.7981 96.2087 26.6443C96.0734 26.4905 95.8892 26.3633 95.6558 26.2625C95.4251 26.1617 95.164 26.0729 94.8723 25.996L93.9098 25.7335C93.2575 25.5559 92.7405 25.2947 92.3587 24.95C91.9795 24.6053 91.7899 24.1492 91.7899 23.5818C91.7899 23.1125 91.9172 22.7028 92.1717 22.3528C92.4263 22.0028 92.771 21.7311 93.2058 21.5375C93.6407 21.3413 94.1312 21.2432 94.6774 21.2432C95.2289 21.2432 95.7155 21.34 96.1371 21.5335C96.5613 21.7271 96.8954 21.9936 97.1393 22.333C97.3833 22.6697 97.5106 23.0568 97.5212 23.4943H96.3359Z" fill="#F2F2F2" fill-opacity="0.4"/>
    <g filter="url(#filter0_d_15_305)">
        <path d="M20 25C20 22.2386 22.2386 20 25 20C27.7614 20 30 22.2386 30 25C30 27.7614 27.7614 30 25 30C22.2386 30 20 27.7614 20 25Z" fill="#F2F2F2"/>
    </g>
    <defs>
        <filter id="filter0_d_15_305" x="0" y="0" width="50" height="50" filterUnits="userSpaceOnUse" color-interpolation-filters="sRGB">
            <feFlood flood-opacity="0" result="BackgroundImageFix"/>
            <feColorMatrix in="SourceAlpha" type="matrix" values="0 0 0 0 0 0 0 0 0 0 0 0 0 0 0 0 0 0 127 0" result="hardAlpha"/>
            <feOffset/>
            <feGaussianBlur stdDeviation="10"/>
            <feComposite in2="hardAlpha" operator="out"/>
            <feColorMatrix type="matrix" values="0 0 0 0 1 0 0 0 0 1 0 0 0 0 1 0 0 0 1 0"/>
            <feBlend mode="normal" in2="BackgroundImageFix" result="effect1_dropShadow_15_305"/>
            <feBlend mode="normal" in="SourceGraphic" in2="effect1_dropShadow_15_305" result="shape"/>
        </filter>
    </defs>
</svg>
