<svg width="250" height="11" viewBox="0 0 250 11" fill="none" xmlns="http://www.w3.org/2000/svg">
    <path d="M-0.00511357 8V0.509091H0.678871V7.38551H4.24876V8H-0.00511357ZM7.42244 8.12802C7.0835 8.12802 6.77382 8.06218 6.4934 7.9305C6.21297 7.79639 5.98986 7.60375 5.82404 7.35259C5.65823 7.09899 5.57532 6.79175 5.57532 6.43086C5.57532 6.15288 5.62775 5.91879 5.7326 5.72859C5.83745 5.53839 5.9862 5.38233 6.17884 5.2604C6.37147 5.13848 6.59947 5.04216 6.86282 4.97145C7.12617 4.90073 7.41635 4.84587 7.73335 4.80685C8.04791 4.76784 8.3137 4.7337 8.53072 4.70444C8.75018 4.67518 8.91721 4.62885 9.03182 4.56545C9.14643 4.50205 9.20373 4.39963 9.20373 4.2582V4.12653C9.20373 3.74369 9.08912 3.44254 8.85991 3.22308C8.63313 3.00118 8.30638 2.89023 7.87965 2.89023C7.47487 2.89023 7.14446 2.97924 6.88842 3.15724C6.63482 3.33525 6.45682 3.54496 6.3544 3.78636L5.73626 3.56325C5.86306 3.256 6.03862 3.01094 6.26296 2.82805C6.4873 2.64273 6.73846 2.50984 7.01644 2.42937C7.29442 2.34646 7.57607 2.30501 7.86136 2.30501C8.07595 2.30501 8.29907 2.33305 8.53072 2.38913C8.76481 2.44522 8.98183 2.54276 9.18178 2.68175C9.38174 2.8183 9.54389 3.00972 9.66825 3.256C9.79261 3.49985 9.85479 3.80953 9.85479 4.18505V8H9.20373V7.11119H9.16349C9.08546 7.277 8.96964 7.43794 8.81602 7.594C8.66239 7.75006 8.46976 7.87808 8.2381 7.97805C8.00645 8.07803 7.73456 8.12802 7.42244 8.12802ZM7.51023 7.53182C7.85649 7.53182 8.15642 7.45501 8.41001 7.30138C8.66361 7.14776 8.85869 6.94415 8.99524 6.69055C9.13423 6.43452 9.20373 6.15288 9.20373 5.84563V5.03363C9.15496 5.07996 9.07327 5.12141 8.95866 5.15799C8.8465 5.19457 8.71604 5.22749 8.56729 5.25675C8.42099 5.28357 8.27468 5.30674 8.12837 5.32624C7.98207 5.34575 7.85039 5.36282 7.73335 5.37745C7.41635 5.41647 7.14568 5.47743 6.92134 5.56033C6.69701 5.64324 6.52509 5.75785 6.40561 5.90415C6.28613 6.04802 6.22639 6.23335 6.22639 6.46012C6.22639 6.8015 6.34831 7.06607 6.59215 7.25384C6.836 7.43916 7.14202 7.53182 7.51023 7.53182ZM15.5614 3.61445L14.9652 3.78271C14.9067 3.61445 14.8238 3.46205 14.7165 3.3255C14.6092 3.18894 14.469 3.08043 14.2959 2.99996C14.1252 2.9195 13.913 2.87926 13.6594 2.87926C13.279 2.87926 12.9669 2.96948 12.7231 3.14993C12.4792 3.33037 12.3573 3.56325 12.3573 3.84854C12.3573 4.08995 12.4402 4.28625 12.606 4.43743C12.7743 4.58617 13.0327 4.70444 13.3814 4.79222L14.23 5.00071C14.7006 5.11532 15.053 5.29698 15.2871 5.5457C15.5236 5.79442 15.6419 6.10655 15.6419 6.48207C15.6419 6.79906 15.5541 7.08071 15.3785 7.32699C15.203 7.57327 14.9579 7.76713 14.6433 7.90856C14.3312 8.04755 13.9691 8.11705 13.557 8.11705C13.0084 8.11705 12.556 7.9939 12.2 7.74762C11.844 7.4989 11.616 7.14045 11.516 6.67227L12.1415 6.51864C12.222 6.85271 12.3792 7.10509 12.6133 7.27578C12.8499 7.44647 13.1608 7.53182 13.546 7.53182C13.9776 7.53182 14.3227 7.4355 14.5812 7.24286C14.8396 7.04779 14.9689 6.80394 14.9689 6.51133C14.9689 6.28455 14.8933 6.09435 14.7421 5.94073C14.5909 5.78467 14.3617 5.67006 14.0545 5.59691L13.1364 5.37745C12.6487 5.2604 12.2878 5.07508 12.0537 4.82148C11.8196 4.56789 11.7026 4.25333 11.7026 3.87781C11.7026 3.56812 11.7867 3.29624 11.955 3.06214C12.1232 2.82562 12.3549 2.64029 12.6499 2.50618C12.945 2.37206 13.2815 2.30501 13.6594 2.30501C14.1739 2.30501 14.5848 2.42205 14.8921 2.65614C15.2017 2.8878 15.4249 3.20723 15.5614 3.61445ZM19.4804 2.38182V2.94876H16.7993V2.38182H19.4804ZM17.6369 1.0358H18.2916V6.53327C18.2916 6.76736 18.3318 6.95147 18.4123 7.08558C18.4928 7.21726 18.5976 7.31114 18.7269 7.36722C18.8561 7.42087 18.9939 7.44769 19.1402 7.44769C19.2255 7.44769 19.2987 7.44281 19.3597 7.43306C19.4206 7.42087 19.4743 7.40868 19.5206 7.39648L19.6596 7.98537C19.5962 8.00975 19.5182 8.0317 19.4255 8.05121C19.3328 8.07315 19.2182 8.08413 19.0817 8.08413C18.8427 8.08413 18.6123 8.0317 18.3904 7.92685C18.1709 7.82199 17.9905 7.66593 17.849 7.45866C17.7076 7.2514 17.6369 6.99414 17.6369 6.6869V1.0358ZM27.8257 5.85295V2.38182H28.4768V8H27.8257V7.06729H27.7745C27.6428 7.35503 27.4344 7.59522 27.1491 7.78786C26.8638 7.97805 26.5151 8.07315 26.103 8.07315C25.7445 8.07315 25.4263 7.99512 25.1483 7.83906C24.8703 7.68056 24.6521 7.44891 24.4936 7.14411C24.3351 6.8393 24.2558 6.465 24.2558 6.0212V2.38182H24.9069V5.98097C24.9069 6.41989 25.0361 6.77346 25.2946 7.04169C25.5531 7.30748 25.8847 7.44038 26.2895 7.44038C26.5431 7.44038 26.787 7.37942 27.021 7.25749C27.2551 7.13557 27.4478 6.95756 27.599 6.72347C27.7501 6.48694 27.8257 6.19677 27.8257 5.85295ZM30.4005 10.1068V2.38182H31.0332V3.45352H31.1101C31.1881 3.28526 31.2954 3.11335 31.4319 2.93778C31.5685 2.75978 31.7489 2.60981 31.9733 2.48789C32.2 2.36597 32.4853 2.30501 32.8292 2.30501C33.2925 2.30501 33.6973 2.42693 34.0435 2.67077C34.3922 2.91218 34.6629 3.25112 34.8555 3.68761C35.0506 4.12165 35.1481 4.62763 35.1481 5.20554C35.1481 5.78589 35.0506 6.29431 34.8555 6.73079C34.6629 7.16727 34.3922 7.50743 34.0435 7.75128C33.6973 7.99512 33.2949 8.11705 32.8365 8.11705C32.4975 8.11705 32.2135 8.05608 31.9842 7.93416C31.7575 7.81224 31.5734 7.66228 31.4319 7.48427C31.2929 7.30382 31.1857 7.12826 31.1101 6.95756H31.0515V10.1068H30.4005ZM31.0442 5.19457C31.0442 5.64812 31.1113 6.05046 31.2454 6.4016C31.3819 6.7503 31.577 7.02462 31.8306 7.22457C32.0867 7.42209 32.3963 7.52085 32.7597 7.52085C33.1328 7.52085 33.4473 7.41843 33.7033 7.2136C33.9618 7.00633 34.1581 6.72713 34.2922 6.37599C34.4288 6.02486 34.4971 5.63105 34.4971 5.19457C34.4971 4.76296 34.43 4.37403 34.2959 4.02777C34.1642 3.68151 33.9691 3.40718 33.7107 3.20479C33.4522 2.99996 33.1352 2.89755 32.7597 2.89755C32.3939 2.89755 32.083 2.99631 31.827 3.19382C31.5709 3.3889 31.3758 3.65956 31.2417 4.00582C31.1101 4.34964 31.0442 4.74589 31.0442 5.19457ZM38.7991 8.11705C38.3383 8.11705 37.9347 7.99512 37.5885 7.75128C37.2422 7.50743 36.9715 7.16727 36.7764 6.73079C36.5838 6.29431 36.4875 5.78589 36.4875 5.20554C36.4875 4.62763 36.5838 4.12165 36.7764 3.68761C36.9715 3.25112 37.2434 2.91218 37.5921 2.67077C37.9408 2.42693 38.3468 2.30501 38.8101 2.30501C39.1515 2.30501 39.4356 2.36597 39.6624 2.48789C39.8891 2.60737 40.0708 2.75612 40.2073 2.93413C40.3439 3.11213 40.45 3.28526 40.5256 3.45352H40.5841V0.509091H41.2388V8H40.6024V6.95756H40.5256C40.45 7.12826 40.3427 7.30382 40.2037 7.48427C40.0647 7.66228 39.8806 7.81224 39.6514 7.93416C39.4246 8.05608 39.1405 8.11705 38.7991 8.11705ZM38.876 7.52085C39.2393 7.52085 39.549 7.42209 39.805 7.22457C40.061 7.02462 40.2561 6.7503 40.3902 6.4016C40.5268 6.05046 40.5951 5.64812 40.5951 5.19457C40.5951 4.74589 40.528 4.34964 40.3939 4.00582C40.2598 3.65956 40.0647 3.3889 39.8087 3.19382C39.5526 2.99631 39.2417 2.89755 38.876 2.89755C38.5004 2.89755 38.1834 2.99996 37.925 3.20479C37.6689 3.40718 37.4738 3.68151 37.3397 4.02777C37.2081 4.37403 37.1422 4.76296 37.1422 5.19457C37.1422 5.63105 37.2093 6.02486 37.3434 6.37599C37.4775 6.72713 37.6726 7.00633 37.9286 7.2136C38.1871 7.41843 38.5029 7.52085 38.876 7.52085ZM44.8624 8.12802C44.5234 8.12802 44.2138 8.06218 43.9333 7.9305C43.6529 7.79639 43.4298 7.60375 43.264 7.35259C43.0982 7.09899 43.0153 6.79175 43.0153 6.43086C43.0153 6.15288 43.0677 5.91879 43.1725 5.72859C43.2774 5.53839 43.4261 5.38233 43.6188 5.2604C43.8114 5.13848 44.0394 5.04216 44.3028 4.97145C44.5661 4.90073 44.8563 4.84587 45.1733 4.80685C45.4878 4.76784 45.7536 4.7337 45.9707 4.70444C46.1901 4.67518 46.3572 4.62885 46.4718 4.56545C46.5864 4.50205 46.6437 4.39963 46.6437 4.2582V4.12653C46.6437 3.74369 46.5291 3.44254 46.2999 3.22308C46.0731 3.00118 45.7463 2.89023 45.3196 2.89023C44.9148 2.89023 44.5844 2.97924 44.3284 3.15724C44.0748 3.33525 43.8968 3.54496 43.7943 3.78636L43.1762 3.56325C43.303 3.256 43.4786 3.01094 43.7029 2.82805C43.9272 2.64273 44.1784 2.50984 44.4564 2.42937C44.7344 2.34646 45.016 2.30501 45.3013 2.30501C45.5159 2.30501 45.739 2.33305 45.9707 2.38913C46.2048 2.44522 46.4218 2.54276 46.6217 2.68175C46.8217 2.8183 46.9838 3.00972 47.1082 3.256C47.2326 3.49985 47.2947 3.80953 47.2947 4.18505V8H46.6437V7.11119H46.6034C46.5254 7.277 46.4096 7.43794 46.256 7.594C46.1023 7.75006 45.9097 7.87808 45.678 7.97805C45.4464 8.07803 45.1745 8.12802 44.8624 8.12802ZM44.9502 7.53182C45.2964 7.53182 45.5964 7.45501 45.85 7.30138C46.1036 7.14776 46.2986 6.94415 46.4352 6.69055C46.5742 6.43452 46.6437 6.15288 46.6437 5.84563V5.03363C46.5949 5.07996 46.5132 5.12141 46.3986 5.15799C46.2864 5.19457 46.156 5.22749 46.0072 5.25675C45.8609 5.28357 45.7146 5.30674 45.5683 5.32624C45.422 5.34575 45.2903 5.36282 45.1733 5.37745C44.8563 5.41647 44.5856 5.47743 44.3613 5.56033C44.1369 5.64324 43.965 5.75785 43.8456 5.90415C43.7261 6.04802 43.6663 6.23335 43.6663 6.46012C43.6663 6.8015 43.7883 7.06607 44.0321 7.25384C44.2759 7.43916 44.582 7.53182 44.9502 7.53182ZM51.4395 2.38182V2.94876H48.7585V2.38182H51.4395ZM49.5961 1.0358H50.2508V6.53327C50.2508 6.76736 50.291 6.95147 50.3715 7.08558C50.452 7.21726 50.5568 7.31114 50.6861 7.36722C50.8153 7.42087 50.9531 7.44769 51.0994 7.44769C51.1847 7.44769 51.2579 7.44281 51.3188 7.43306C51.3798 7.42087 51.4334 7.40868 51.4798 7.39648L51.6188 7.98537C51.5554 8.00975 51.4773 8.0317 51.3847 8.05121C51.292 8.07315 51.1774 8.08413 51.0408 8.08413C50.8019 8.08413 50.5714 8.0317 50.3495 7.92685C50.1301 7.82199 49.9496 7.66593 49.8082 7.45866C49.6668 7.2514 49.5961 6.99414 49.5961 6.6869V1.0358ZM55.3292 8.11705C54.8049 8.11705 54.3514 7.99512 53.9686 7.75128C53.5857 7.505 53.2894 7.16483 53.0797 6.73079C52.8725 6.29431 52.7688 5.79199 52.7688 5.22383C52.7688 4.65811 52.8725 4.15579 53.0797 3.71687C53.2894 3.27551 53.5784 2.93047 53.9466 2.68175C54.3173 2.43059 54.7452 2.30501 55.2305 2.30501C55.5353 2.30501 55.8291 2.36109 56.1119 2.47326C56.3948 2.58299 56.6484 2.75246 56.8727 2.98168C57.0995 3.20845 57.2787 3.49497 57.4104 3.84123C57.5421 4.18505 57.6079 4.59227 57.6079 5.06289V5.38477H53.2187V4.81051H56.9422C56.9422 4.44962 56.8691 4.12531 56.7228 3.83757C56.5789 3.5474 56.3777 3.31818 56.1193 3.14993C55.8632 2.98168 55.567 2.89755 55.2305 2.89755C54.8744 2.89755 54.5611 2.99265 54.2904 3.18285C54.0198 3.37305 53.8076 3.62421 53.654 3.93633C53.5028 4.24845 53.426 4.58983 53.4236 4.96048V5.3043C53.4236 5.75053 53.5004 6.14068 53.654 6.47475C53.8101 6.80638 54.0307 7.06364 54.316 7.24652C54.6013 7.4294 54.9391 7.52085 55.3292 7.52085C55.595 7.52085 55.8279 7.47939 56.0278 7.39648C56.2302 7.31358 56.3997 7.20263 56.5362 7.06364C56.6752 6.92221 56.7801 6.76736 56.8508 6.59911L57.4689 6.80028C57.3836 7.03681 57.2434 7.25505 57.0483 7.45501C56.8557 7.65496 56.6143 7.8159 56.3241 7.93782C56.0364 8.0573 55.7047 8.11705 55.3292 8.11705ZM61.2654 8.11705C60.8045 8.11705 60.4009 7.99512 60.0547 7.75128C59.7084 7.50743 59.4377 7.16727 59.2427 6.73079C59.05 6.29431 58.9537 5.78589 58.9537 5.20554C58.9537 4.62763 59.05 4.12165 59.2427 3.68761C59.4377 3.25112 59.7096 2.91218 60.0583 2.67077C60.407 2.42693 60.813 2.30501 61.2763 2.30501C61.6177 2.30501 61.9018 2.36597 62.1286 2.48789C62.3553 2.60737 62.537 2.75612 62.6736 2.93413C62.8101 3.11213 62.9162 3.28526 62.9918 3.45352H63.0503V0.509091H63.705V8H63.0686V6.95756H62.9918C62.9162 7.12826 62.8089 7.30382 62.6699 7.48427C62.5309 7.66228 62.3468 7.81224 62.1176 7.93416C61.8908 8.05608 61.6067 8.11705 61.2654 8.11705ZM61.3422 7.52085C61.7055 7.52085 62.0152 7.42209 62.2712 7.22457C62.5272 7.02462 62.7223 6.7503 62.8564 6.4016C62.993 6.05046 63.0613 5.64812 63.0613 5.19457C63.0613 4.74589 62.9942 4.34964 62.8601 4.00582C62.726 3.65956 62.5309 3.3889 62.2749 3.19382C62.0188 2.99631 61.7079 2.89755 61.3422 2.89755C60.9666 2.89755 60.6496 2.99996 60.3912 3.20479C60.1351 3.40718 59.9401 3.68151 59.8059 4.02777C59.6743 4.37403 59.6084 4.76296 59.6084 5.19457C59.6084 5.63105 59.6755 6.02486 59.8096 6.37599C59.9437 6.72713 60.1388 7.00633 60.3948 7.2136C60.6533 7.41843 60.9691 7.52085 61.3422 7.52085ZM68.9917 8V0.509091H69.6464V3.45352H69.7049C69.7781 3.28526 69.8829 3.11213 70.0195 2.93413C70.1585 2.75612 70.3401 2.60737 70.5645 2.48789C70.7912 2.36597 71.0765 2.30501 71.4204 2.30501C71.8812 2.30501 72.286 2.42693 72.6347 2.67077C72.9834 2.91218 73.2553 3.25112 73.4504 3.68761C73.6454 4.12165 73.743 4.62763 73.743 5.20554C73.743 5.78589 73.6454 6.29431 73.4504 6.73079C73.2577 7.16727 72.9871 7.50743 72.6384 7.75128C72.2921 7.99512 71.8898 8.11705 71.4313 8.11705C71.09 8.11705 70.8047 8.05608 70.5754 7.93416C70.3487 7.81224 70.1658 7.66228 70.0268 7.48427C69.8878 7.30382 69.7805 7.12826 69.7049 6.95756H69.6244V8H68.9917ZM69.6354 5.19457C69.6354 5.64812 69.7025 6.05046 69.8366 6.4016C69.9731 6.7503 70.1682 7.02462 70.4218 7.22457C70.6779 7.42209 70.9875 7.52085 71.3509 7.52085C71.7239 7.52085 72.0397 7.41843 72.2982 7.2136C72.5567 7.00633 72.753 6.72713 72.8871 6.37599C73.0212 6.02486 73.0883 5.63105 73.0883 5.19457C73.0883 4.76296 73.0212 4.37403 72.8871 4.02777C72.7554 3.68151 72.5603 3.40718 72.3019 3.20479C72.0434 2.99996 71.7264 2.89755 71.3509 2.89755C70.9851 2.89755 70.6742 2.99631 70.4182 3.19382C70.1646 3.3889 69.9707 3.65956 69.8366 4.00582C69.7025 4.34964 69.6354 4.74589 69.6354 5.19457ZM75.6255 10.1068C75.4963 10.1068 75.3756 10.0946 75.2634 10.0702C75.1512 10.0459 75.0622 10.019 74.9964 9.98977L75.172 9.41552C75.3939 9.4838 75.5914 9.50818 75.7645 9.48867C75.9376 9.4716 76.0912 9.39357 76.2254 9.25458C76.3595 9.11803 76.479 8.90832 76.5838 8.62546L76.7886 8.05487L74.7221 2.38182H75.428L77.0959 7.14045H77.1471L78.815 2.38182H79.5209L77.1434 8.88881C77.0435 9.15948 76.9203 9.38504 76.774 9.56548C76.6277 9.74837 76.4582 9.8837 76.2656 9.97148C76.0754 10.0617 75.862 10.1068 75.6255 10.1068ZM84.2269 0.509091H85.017L87.7346 7.03437H87.8005L90.5181 0.509091H91.3082V8H90.6644V1.95387H90.6059L88.0784 8H87.4566L84.9292 1.95387H84.8707V8H84.2269V0.509091ZM94.9336 8.12802C94.5946 8.12802 94.2849 8.06218 94.0045 7.9305C93.7241 7.79639 93.501 7.60375 93.3352 7.35259C93.1694 7.09899 93.0865 6.79175 93.0865 6.43086C93.0865 6.15288 93.1389 5.91879 93.2437 5.72859C93.3486 5.53839 93.4973 5.38233 93.69 5.2604C93.8826 5.13848 94.1106 5.04216 94.374 4.97145C94.6373 4.90073 94.9275 4.84587 95.2445 4.80685C95.559 4.76784 95.8248 4.7337 96.0419 4.70444C96.2613 4.67518 96.4283 4.62885 96.543 4.56545C96.6576 4.50205 96.7149 4.39963 96.7149 4.2582V4.12653C96.7149 3.74369 96.6003 3.44254 96.371 3.22308C96.1443 3.00118 95.8175 2.89023 95.3908 2.89023C94.986 2.89023 94.6556 2.97924 94.3996 3.15724C94.146 3.33525 93.968 3.54496 93.8655 3.78636L93.2474 3.56325C93.3742 3.256 93.5498 3.01094 93.7741 2.82805C93.9984 2.64273 94.2496 2.50984 94.5276 2.42937C94.8056 2.34646 95.0872 2.30501 95.3725 2.30501C95.5871 2.30501 95.8102 2.33305 96.0419 2.38913C96.2759 2.44522 96.493 2.54276 96.6929 2.68175C96.8929 2.8183 97.055 3.00972 97.1794 3.256C97.3037 3.49985 97.3659 3.80953 97.3659 4.18505V8H96.7149V7.11119H96.6746C96.5966 7.277 96.4808 7.43794 96.3271 7.594C96.1735 7.75006 95.9809 7.87808 95.7492 7.97805C95.5176 8.07803 95.2457 8.12802 94.9336 8.12802ZM95.0214 7.53182C95.3676 7.53182 95.6675 7.45501 95.9211 7.30138C96.1747 7.14776 96.3698 6.94415 96.5064 6.69055C96.6454 6.43452 96.7149 6.15288 96.7149 5.84563V5.03363C96.6661 5.07996 96.5844 5.12141 96.4698 5.15799C96.3576 5.19457 96.2272 5.22749 96.0784 5.25675C95.9321 5.28357 95.7858 5.30674 95.6395 5.32624C95.4932 5.34575 95.3615 5.36282 95.2445 5.37745C94.9275 5.41647 94.6568 5.47743 94.4325 5.56033C94.2081 5.64324 94.0362 5.75785 93.9167 5.90415C93.7973 6.04802 93.7375 6.23335 93.7375 6.46012C93.7375 6.8015 93.8594 7.06607 94.1033 7.25384C94.3471 7.43916 94.6532 7.53182 95.0214 7.53182ZM99.9489 0.509091V8H99.2978V0.509091H99.9489ZM102.523 0.509091V8H101.872V0.509091H102.523ZM106.629 8.11705C106.144 8.11705 105.715 7.9939 105.342 7.74762C104.971 7.50134 104.681 7.16117 104.471 6.72713C104.261 6.29065 104.157 5.78711 104.157 5.21651C104.157 4.64104 104.261 4.13506 104.471 3.69858C104.681 3.25966 104.971 2.91828 105.342 2.67443C105.715 2.42815 106.144 2.30501 106.629 2.30501C107.114 2.30501 107.542 2.42815 107.913 2.67443C108.284 2.92071 108.574 3.2621 108.783 3.69858C108.996 4.13506 109.102 4.64104 109.102 5.21651C109.102 5.78711 108.997 6.29065 108.787 6.72713C108.577 7.16117 108.286 7.50134 107.913 7.74762C107.542 7.9939 107.114 8.11705 106.629 8.11705ZM106.629 7.52085C107.019 7.52085 107.35 7.41599 107.62 7.20629C107.891 6.99658 108.096 6.71738 108.235 6.36868C108.376 6.01998 108.447 5.63593 108.447 5.21651C108.447 4.7971 108.376 4.41183 108.235 4.06069C108.096 3.70955 107.891 3.42791 107.62 3.21577C107.35 3.00362 107.019 2.89755 106.629 2.89755C106.241 2.89755 105.911 3.00362 105.638 3.21577C105.367 3.42791 105.161 3.70955 105.02 4.06069C104.881 4.41183 104.811 4.7971 104.811 5.21651C104.811 5.63593 104.881 6.01998 105.02 6.36868C105.161 6.71738 105.367 6.99658 105.638 7.20629C105.909 7.41599 106.239 7.52085 106.629 7.52085ZM111.787 8L110.09 2.38182H110.778L112.109 7.01609H112.157L113.484 2.38182H114.176L115.492 7.00511H115.544L116.875 2.38182H117.563L115.865 8H115.192L113.861 3.39499H113.791L112.46 8H111.787ZM124.309 8.11705C123.823 8.11705 123.394 7.9939 123.021 7.74762C122.65 7.50134 122.36 7.16117 122.151 6.72713C121.941 6.29065 121.836 5.78711 121.836 5.21651C121.836 4.64104 121.941 4.13506 122.151 3.69858C122.36 3.25966 122.65 2.91828 123.021 2.67443C123.394 2.42815 123.823 2.30501 124.309 2.30501C124.794 2.30501 125.222 2.42815 125.592 2.67443C125.963 2.92071 126.253 3.2621 126.463 3.69858C126.675 4.13506 126.781 4.64104 126.781 5.21651C126.781 5.78711 126.676 6.29065 126.467 6.72713C126.257 7.16117 125.966 7.50134 125.592 7.74762C125.222 7.9939 124.794 8.11705 124.309 8.11705ZM124.309 7.52085C124.699 7.52085 125.029 7.41599 125.3 7.20629C125.571 6.99658 125.775 6.71738 125.914 6.36868C126.056 6.01998 126.126 5.63593 126.126 5.21651C126.126 4.7971 126.056 4.41183 125.914 4.06069C125.775 3.70955 125.571 3.42791 125.3 3.21577C125.029 3.00362 124.699 2.89755 124.309 2.89755C123.921 2.89755 123.59 3.00362 123.317 3.21577C123.047 3.42791 122.841 3.70955 122.699 4.06069C122.56 4.41183 122.491 4.7971 122.491 5.21651C122.491 5.63593 122.56 6.01998 122.699 6.36868C122.841 6.71738 123.047 6.99658 123.317 7.20629C123.588 7.41599 123.918 7.52085 124.309 7.52085ZM129.062 4.48864V8H128.41V2.38182H129.043V3.26332H129.102C129.233 2.97558 129.438 2.74515 129.716 2.57202C129.997 2.39645 130.343 2.30866 130.755 2.30866C131.133 2.30866 131.465 2.38791 131.75 2.54641C132.038 2.70247 132.261 2.93291 132.419 3.23771C132.58 3.54252 132.661 3.91682 132.661 4.36062V8H132.01V4.40085C132.01 3.93999 131.88 3.57544 131.622 3.30721C131.366 3.03898 131.022 2.90486 130.59 2.90486C130.295 2.90486 130.033 2.96826 129.804 3.09506C129.575 3.22186 129.393 3.40475 129.259 3.64371C129.127 3.88024 129.062 4.16188 129.062 4.48864ZM137.818 8H137.101L139.826 0.509091H140.558L143.283 8H142.566L140.218 1.3979H140.167L137.818 8ZM138.334 5.12873H142.05V5.74322H138.334V5.12873ZM148.201 5.85295V2.38182H148.852V8H148.201V7.06729H148.15C148.018 7.35503 147.81 7.59522 147.525 7.78786C147.239 7.97805 146.891 8.07315 146.479 8.07315C146.12 8.07315 145.802 7.99512 145.524 7.83906C145.246 7.68056 145.028 7.44891 144.869 7.14411C144.711 6.8393 144.631 6.465 144.631 6.0212V2.38182H145.282V5.98097C145.282 6.41989 145.412 6.77346 145.67 7.04169C145.929 7.30748 146.26 7.44038 146.665 7.44038C146.919 7.44038 147.163 7.37942 147.397 7.25749C147.631 7.13557 147.823 6.95756 147.975 6.72347C148.126 6.48694 148.201 6.19677 148.201 5.85295ZM152.919 10.2239C152.537 10.2239 152.201 10.1739 151.914 10.0739C151.626 9.97636 151.383 9.84225 151.186 9.67156C150.988 9.50086 150.835 9.30945 150.725 9.0973L151.259 8.74616C151.339 8.88759 151.447 9.02659 151.581 9.16314C151.717 9.29969 151.894 9.41308 152.111 9.5033C152.331 9.59353 152.6 9.63864 152.919 9.63864C153.417 9.63864 153.818 9.51428 154.123 9.26555C154.43 9.01683 154.584 8.63034 154.584 8.10607V6.84052H154.525C154.45 7.01121 154.341 7.1819 154.2 7.35259C154.058 7.52085 153.873 7.66106 153.644 7.77322C153.417 7.88539 153.135 7.94148 152.799 7.94148C152.35 7.94148 151.951 7.83053 151.603 7.60863C151.256 7.38673 150.983 7.06973 150.783 6.65763C150.586 6.2431 150.487 5.74931 150.487 5.17628C150.487 4.60812 150.583 4.10824 150.776 3.67663C150.971 3.24503 151.243 2.90852 151.592 2.66712C151.94 2.42571 152.346 2.30501 152.81 2.30501C153.154 2.30501 153.439 2.36597 153.666 2.48789C153.892 2.60737 154.074 2.75612 154.211 2.93413C154.35 3.11213 154.458 3.28526 154.536 3.45352H154.602V2.38182H155.238V8.14631C155.238 8.6218 155.137 9.01317 154.935 9.32042C154.732 9.62766 154.457 9.85444 154.108 10.0007C153.759 10.1495 153.363 10.2239 152.919 10.2239ZM152.876 7.34528C153.236 7.34528 153.545 7.25871 153.801 7.08558C154.057 6.91001 154.253 6.65885 154.39 6.3321C154.526 6.00535 154.595 5.61642 154.595 5.16531C154.595 4.72638 154.528 4.33745 154.393 3.99851C154.259 3.65713 154.064 3.3889 153.808 3.19382C153.555 2.99631 153.244 2.89755 152.876 2.89755C152.5 2.89755 152.183 2.99875 151.925 3.20114C151.666 3.40353 151.471 3.67663 151.339 4.02045C151.208 4.36184 151.142 4.74345 151.142 5.16531C151.142 5.59447 151.209 5.97365 151.343 6.30284C151.477 6.62959 151.673 6.88563 151.932 7.07095C152.19 7.25384 152.505 7.34528 152.876 7.34528ZM160.732 5.85295V2.38182H161.383V8H160.732V7.06729H160.681C160.549 7.35503 160.341 7.59522 160.055 7.78786C159.77 7.97805 159.421 8.07315 159.009 8.07315C158.651 8.07315 158.333 7.99512 158.055 7.83906C157.777 7.68056 157.558 7.44891 157.4 7.14411C157.241 6.8393 157.162 6.465 157.162 6.0212V2.38182H157.813V5.98097C157.813 6.41989 157.942 6.77346 158.201 7.04169C158.459 7.30748 158.791 7.44038 159.196 7.44038C159.449 7.44038 159.693 7.37942 159.927 7.25749C160.161 7.13557 160.354 6.95756 160.505 6.72347C160.656 6.48694 160.732 6.19677 160.732 5.85295ZM167.081 3.61445L166.485 3.78271C166.427 3.61445 166.344 3.46205 166.237 3.3255C166.129 3.18894 165.989 3.08043 165.816 2.99996C165.645 2.9195 165.433 2.87926 165.179 2.87926C164.799 2.87926 164.487 2.96948 164.243 3.14993C163.999 3.33037 163.877 3.56325 163.877 3.84854C163.877 4.08995 163.96 4.28625 164.126 4.43743C164.294 4.58617 164.553 4.70444 164.901 4.79222L165.75 5.00071C166.221 5.11532 166.573 5.29698 166.807 5.5457C167.044 5.79442 167.162 6.10655 167.162 6.48207C167.162 6.79906 167.074 7.08071 166.899 7.32699C166.723 7.57327 166.478 7.76713 166.163 7.90856C165.851 8.04755 165.489 8.11705 165.077 8.11705C164.528 8.11705 164.076 7.9939 163.72 7.74762C163.364 7.4989 163.136 7.14045 163.036 6.67227L163.662 6.51864C163.742 6.85271 163.899 7.10509 164.133 7.27578C164.37 7.44647 164.681 7.53182 165.066 7.53182C165.498 7.53182 165.843 7.4355 166.101 7.24286C166.36 7.04779 166.489 6.80394 166.489 6.51133C166.489 6.28455 166.413 6.09435 166.262 5.94073C166.111 5.78467 165.882 5.67006 165.574 5.59691L164.656 5.37745C164.169 5.2604 163.808 5.07508 163.574 4.82148C163.34 4.56789 163.223 4.25333 163.223 3.87781C163.223 3.56812 163.307 3.29624 163.475 3.06214C163.643 2.82562 163.875 2.64029 164.17 2.50618C164.465 2.37206 164.801 2.30501 165.179 2.30501C165.694 2.30501 166.105 2.42205 166.412 2.65614C166.722 2.8878 166.945 3.20723 167.081 3.61445ZM171 2.38182V2.94876H168.319V2.38182H171ZM169.157 1.0358H169.812V6.53327C169.812 6.76736 169.852 6.95147 169.932 7.08558C170.013 7.21726 170.118 7.31114 170.247 7.36722C170.376 7.42087 170.514 7.44769 170.66 7.44769C170.746 7.44769 170.819 7.44281 170.88 7.43306C170.941 7.42087 170.994 7.40868 171.041 7.39648L171.18 7.98537C171.116 8.00975 171.038 8.0317 170.946 8.05121C170.853 8.07315 170.738 8.08413 170.602 8.08413C170.363 8.08413 170.132 8.0317 169.91 7.92685C169.691 7.82199 169.51 7.66593 169.369 7.45866C169.228 7.2514 169.157 6.99414 169.157 6.6869V1.0358ZM178.062 0.509091V8H177.378V1.22599H177.334L175.578 2.39279V1.6832L177.349 0.509091H178.062ZM182.852 8.10241C182.374 8.10241 181.949 8.01219 181.576 7.83175C181.203 7.6513 180.91 7.40502 180.698 7.0929C180.486 6.77834 180.38 6.42354 180.38 6.02852C180.38 5.71883 180.444 5.42988 180.574 5.16165C180.703 4.89098 180.881 4.6642 181.108 4.48132C181.334 4.296 181.589 4.1753 181.872 4.11921V4.07898C181.504 3.97169 181.208 3.76076 180.983 3.4462C180.759 3.1292 180.648 2.76953 180.65 2.36719C180.648 1.99411 180.743 1.66004 180.936 1.36499C181.128 1.06993 181.39 0.837061 181.722 0.66637C182.056 0.493241 182.433 0.406676 182.852 0.406676C183.269 0.406676 183.644 0.493241 183.975 0.66637C184.307 0.837061 184.569 1.06993 184.762 1.36499C184.957 1.66004 185.055 1.99411 185.058 2.36719C185.055 2.76709 184.942 3.12676 184.718 3.4462C184.493 3.7632 184.198 3.97412 183.833 4.07898V4.11921C184.115 4.17286 184.369 4.29234 184.593 4.47766C184.818 4.66299 184.996 4.89098 185.127 5.16165C185.259 5.42988 185.325 5.71883 185.325 6.02852C185.325 6.42354 185.218 6.77834 185.003 7.0929C184.791 7.40502 184.498 7.6513 184.125 7.83175C183.755 8.01219 183.33 8.10241 182.852 8.10241ZM182.852 7.48793C183.208 7.48793 183.52 7.42453 183.789 7.29773C184.059 7.16849 184.27 6.9917 184.421 6.76737C184.575 6.54303 184.652 6.28577 184.652 5.9956C184.652 5.69567 184.573 5.42866 184.414 5.19457C184.256 4.95804 184.041 4.7715 183.77 4.63494C183.5 4.49595 183.194 4.42646 182.852 4.42646C182.511 4.42646 182.204 4.49595 181.931 4.63494C181.66 4.7715 181.445 4.95804 181.287 5.19457C181.131 5.42866 181.053 5.69567 181.053 5.9956C181.053 6.28577 181.127 6.54303 181.276 6.76737C181.427 6.9917 181.638 7.16849 181.909 7.29773C182.182 7.42453 182.496 7.48793 182.852 7.48793ZM182.852 3.84123C183.145 3.84123 183.407 3.77905 183.639 3.65469C183.87 3.53033 184.053 3.36085 184.187 3.14627C184.324 2.92925 184.393 2.68297 184.396 2.40742C184.393 2.13432 184.325 1.89291 184.191 1.6832C184.057 1.47106 183.874 1.30646 183.642 1.18942C183.413 1.06993 183.15 1.01019 182.852 1.01019C182.555 1.01019 182.289 1.06993 182.055 1.18942C181.823 1.30646 181.64 1.47106 181.506 1.6832C181.375 1.89291 181.31 2.13432 181.312 2.40742C181.31 2.68297 181.376 2.92925 181.51 3.14627C181.646 3.36085 181.831 3.53033 182.062 3.65469C182.296 3.77905 182.56 3.84123 182.852 3.84123ZM187.88 6.97585L187.815 7.36722C187.773 7.63058 187.715 7.92075 187.639 8.23775C187.563 8.55475 187.485 8.85589 187.405 9.14119C187.324 9.42649 187.255 9.65571 187.196 9.82884H186.695C186.727 9.66302 186.767 9.4521 186.816 9.19606C186.867 8.94002 186.92 8.65594 186.973 8.34382C187.027 8.03414 187.076 7.7147 187.12 7.38551L187.171 6.97585H187.88ZM192.875 8V7.4989L195.322 4.74833C195.642 4.38744 195.899 4.07898 196.094 3.82294C196.289 3.5669 196.431 3.33037 196.518 3.11335C196.609 2.89633 196.654 2.67077 196.654 2.43668C196.654 2.15138 196.587 1.90266 196.453 1.69052C196.321 1.47593 196.139 1.3089 195.908 1.18942C195.676 1.06993 195.415 1.01019 195.125 1.01019C194.818 1.01019 194.548 1.07603 194.316 1.20771C194.087 1.33938 193.909 1.51983 193.782 1.74904C193.656 1.97825 193.592 2.24161 193.592 2.5391H192.938C192.938 2.12456 193.033 1.75758 193.223 1.43814C193.415 1.11626 193.678 0.863885 194.009 0.681001C194.343 0.498117 194.721 0.406676 195.143 0.406676C195.56 0.406676 195.931 0.496898 196.255 0.677344C196.579 0.85535 196.834 1.09798 197.02 1.40522C197.205 1.71246 197.297 2.05629 197.297 2.43668C197.297 2.71223 197.249 2.97924 197.151 3.23771C197.056 3.49619 196.891 3.78392 196.657 4.10092C196.423 4.41792 196.099 4.80563 195.684 5.26406L193.826 7.33796V7.38551H197.532V8H192.875ZM201.688 8.10241C201.162 8.10241 200.712 7.95123 200.339 7.64886C199.968 7.34406 199.683 6.90392 199.483 6.32844C199.285 5.75297 199.186 5.06167 199.186 4.25455C199.186 3.44986 199.285 2.761 199.483 2.18796C199.683 1.61249 199.969 1.17235 200.342 0.867542C200.718 0.560298 201.166 0.406676 201.688 0.406676C202.21 0.406676 202.658 0.560298 203.031 0.867542C203.406 1.17235 203.693 1.61249 203.89 2.18796C204.09 2.761 204.19 3.44986 204.19 4.25455C204.19 5.06167 204.09 5.75297 203.89 6.32844C203.693 6.90392 203.407 7.34406 203.034 7.64886C202.664 7.95123 202.215 8.10241 201.688 8.10241ZM201.688 7.48793C202.266 7.48793 202.717 7.20629 203.042 6.643C203.366 6.07728 203.528 5.28113 203.528 4.25455C203.528 3.57178 203.454 2.98899 203.305 2.50618C203.159 2.02093 202.948 1.65028 202.672 1.39425C202.399 1.13821 202.071 1.01019 201.688 1.01019C201.115 1.01019 200.665 1.29549 200.339 1.86609C200.012 2.43424 199.848 3.2304 199.848 4.25455C199.848 4.93731 199.922 5.5201 200.068 6.00291C200.217 6.48572 200.428 6.85393 200.701 7.10753C200.976 7.36113 201.305 7.48793 201.688 7.48793ZM205.879 8V7.4989L208.326 4.74833C208.645 4.38744 208.902 4.07898 209.098 3.82294C209.293 3.5669 209.434 3.33037 209.522 3.11335C209.612 2.89633 209.657 2.67077 209.657 2.43668C209.657 2.15138 209.59 1.90266 209.456 1.69052C209.324 1.47593 209.143 1.3089 208.911 1.18942C208.679 1.06993 208.418 1.01019 208.128 1.01019C207.821 1.01019 207.552 1.07603 207.32 1.20771C207.091 1.33938 206.913 1.51983 206.786 1.74904C206.659 1.97825 206.596 2.24161 206.596 2.5391H205.941C205.941 2.12456 206.036 1.75758 206.226 1.43814C206.419 1.11626 206.681 0.863885 207.013 0.681001C207.347 0.498117 207.725 0.406676 208.147 0.406676C208.564 0.406676 208.934 0.496898 209.258 0.677344C209.583 0.85535 209.838 1.09798 210.023 1.40522C210.208 1.71246 210.301 2.05629 210.301 2.43668C210.301 2.71223 210.252 2.97924 210.155 3.23771C210.059 3.49619 209.895 3.78392 209.661 4.10092C209.427 4.41792 209.102 4.80563 208.688 5.26406L206.83 7.33796V7.38551H210.535V8H205.879ZM214.556 8.10241C214.139 8.10241 213.766 8.01829 213.437 7.85004C213.11 7.67934 212.849 7.44525 212.654 7.14776C212.462 6.85027 212.359 6.51011 212.347 6.12727H213.009C213.031 6.52474 213.187 6.85149 213.477 7.10753C213.768 7.36113 214.127 7.48793 214.556 7.48793C214.89 7.48793 215.188 7.40868 215.449 7.25018C215.71 7.08924 215.913 6.86978 216.06 6.5918C216.208 6.31138 216.283 5.9956 216.283 5.64446C216.28 5.27869 216.201 4.95682 216.045 4.67884C215.889 4.39841 215.677 4.17895 215.409 4.02045C215.143 3.86196 214.844 3.78271 214.512 3.78271C214.261 3.78027 214.015 3.82172 213.774 3.90707C213.532 3.99241 213.331 4.10214 213.17 4.23626L212.486 4.14847L212.936 0.509091H216.638V1.12358H213.51L213.21 3.62908H213.247C213.413 3.49009 213.614 3.3767 213.85 3.28892C214.089 3.20114 214.342 3.15724 214.608 3.15724C215.049 3.15724 215.445 3.26332 215.796 3.47546C216.15 3.68761 216.429 3.98022 216.634 4.3533C216.841 4.72395 216.945 5.15067 216.945 5.63349C216.945 6.10655 216.841 6.52962 216.634 6.9027C216.429 7.27334 216.146 7.56596 215.785 7.78054C215.427 7.99512 215.017 8.10241 214.556 8.10241ZM219.508 6.97585L219.442 7.36722C219.4 7.63058 219.342 7.92075 219.266 8.23775C219.191 8.55475 219.113 8.85589 219.032 9.14119C218.952 9.42649 218.882 9.65571 218.824 9.82884H218.323C218.354 9.66302 218.395 9.4521 218.443 9.19606C218.494 8.94002 218.547 8.65594 218.601 8.34382C218.654 8.03414 218.703 7.7147 218.747 7.38551L218.798 6.97585H219.508ZM226.814 0.509091V8H226.13V1.22599H226.086L224.331 2.39279V1.6832L226.101 0.509091H226.814ZM229.505 8L232.918 1.17113V1.12358H228.986V0.509091H233.635V1.15284L230.226 8H229.505ZM235.486 6.8771C235.342 6.8771 235.218 6.82589 235.113 6.72347C235.011 6.61862 234.959 6.49426 234.959 6.35039C234.959 6.20408 235.011 6.07972 235.113 5.97731C235.218 5.87489 235.342 5.82369 235.486 5.82369C235.632 5.82369 235.757 5.87489 235.859 5.97731C235.962 6.07972 236.013 6.20408 236.013 6.35039C236.013 6.44549 235.988 6.53327 235.94 6.61374C235.893 6.69421 235.83 6.75883 235.749 6.8076C235.671 6.85393 235.584 6.8771 235.486 6.8771ZM235.486 3.07678C235.342 3.07678 235.218 3.02557 235.113 2.92315C235.011 2.8183 234.959 2.69394 234.959 2.55007C234.959 2.4062 235.011 2.28306 235.113 2.18065C235.218 2.07579 235.342 2.02337 235.486 2.02337C235.632 2.02337 235.757 2.07579 235.859 2.18065C235.962 2.28306 236.013 2.4062 236.013 2.55007C236.013 2.64517 235.988 2.73295 235.94 2.81342C235.893 2.89389 235.83 2.95851 235.749 3.00728C235.671 3.05361 235.584 3.07678 235.486 3.07678ZM240.098 8.10241C239.681 8.10241 239.308 8.01829 238.979 7.85004C238.652 7.67934 238.391 7.44525 238.196 7.14776C238.004 6.85027 237.901 6.51011 237.889 6.12727H238.551C238.573 6.52474 238.729 6.85149 239.019 7.10753C239.309 7.36113 239.669 7.48793 240.098 7.48793C240.432 7.48793 240.73 7.40868 240.991 7.25018C241.252 7.08924 241.455 6.86978 241.601 6.5918C241.75 6.31138 241.825 5.9956 241.825 5.64446C241.822 5.27869 241.743 4.95682 241.587 4.67884C241.431 4.39841 241.219 4.17895 240.95 4.02045C240.685 3.86196 240.386 3.78271 240.054 3.78271C239.803 3.78027 239.557 3.82172 239.315 3.90707C239.074 3.99241 238.873 4.10214 238.712 4.23626L238.028 4.14847L238.478 0.509091H242.179V1.12358H239.052L238.752 3.62908H238.789C238.955 3.49009 239.156 3.3767 239.392 3.28892C239.631 3.20114 239.884 3.15724 240.149 3.15724C240.591 3.15724 240.987 3.26332 241.338 3.47546C241.692 3.68761 241.971 3.98022 242.176 4.3533C242.383 4.72395 242.487 5.15067 242.487 5.63349C242.487 6.10655 242.383 6.52962 242.176 6.9027C241.971 7.27334 241.688 7.56596 241.327 7.78054C240.969 7.99512 240.559 8.10241 240.098 8.10241ZM246.558 8.10241C246.08 8.10241 245.655 8.01219 245.282 7.83175C244.909 7.6513 244.616 7.40502 244.404 7.0929C244.192 6.77834 244.086 6.42354 244.086 6.02852C244.086 5.71883 244.15 5.42988 244.28 5.16165C244.409 4.89098 244.587 4.6642 244.814 4.48132C245.04 4.296 245.295 4.1753 245.578 4.11921V4.07898C245.21 3.97169 244.914 3.76076 244.689 3.4462C244.465 3.1292 244.354 2.76953 244.356 2.36719C244.354 1.99411 244.449 1.66004 244.642 1.36499C244.834 1.06993 245.096 0.837061 245.428 0.66637C245.762 0.493241 246.139 0.406676 246.558 0.406676C246.975 0.406676 247.35 0.493241 247.681 0.66637C248.013 0.837061 248.275 1.06993 248.468 1.36499C248.663 1.66004 248.761 1.99411 248.764 2.36719C248.761 2.76709 248.648 3.12676 248.424 3.4462C248.199 3.7632 247.904 3.97412 247.538 4.07898V4.11921C247.821 4.17286 248.075 4.29234 248.299 4.47766C248.524 4.66299 248.702 4.89098 248.833 5.16165C248.965 5.42988 249.031 5.71883 249.031 6.02852C249.031 6.42354 248.924 6.77834 248.709 7.0929C248.497 7.40502 248.204 7.6513 247.831 7.83175C247.46 8.01219 247.036 8.10241 246.558 8.10241ZM246.558 7.48793C246.914 7.48793 247.226 7.42453 247.495 7.29773C247.765 7.16849 247.976 6.9917 248.127 6.76737C248.281 6.54303 248.358 6.28577 248.358 5.9956C248.358 5.69567 248.279 5.42866 248.12 5.19457C247.962 4.95804 247.747 4.7715 247.476 4.63494C247.206 4.49595 246.9 4.42646 246.558 4.42646C246.217 4.42646 245.91 4.49595 245.637 4.63494C245.366 4.7715 245.151 4.95804 244.993 5.19457C244.837 5.42866 244.759 5.69567 244.759 5.9956C244.759 6.28577 244.833 6.54303 244.982 6.76737C245.133 6.9917 245.344 7.16849 245.615 7.29773C245.888 7.42453 246.202 7.48793 246.558 7.48793ZM246.558 3.84123C246.851 3.84123 247.113 3.77905 247.345 3.65469C247.576 3.53033 247.759 3.36085 247.893 3.14627C248.03 2.92925 248.099 2.68297 248.102 2.40742C248.099 2.13432 248.031 1.89291 247.897 1.6832C247.763 1.47106 247.58 1.30646 247.348 1.18942C247.119 1.06993 246.856 1.01019 246.558 1.01019C246.261 1.01019 245.995 1.06993 245.761 1.18942C245.529 1.30646 245.346 1.47106 245.212 1.6832C245.081 1.89291 245.016 2.13432 245.018 2.40742C245.016 2.68297 245.082 2.92925 245.216 3.14627C245.352 3.36085 245.537 3.53033 245.768 3.65469C246.002 3.77905 246.266 3.84123 246.558 3.84123Z" fill="#F2F2F2"/>
</svg>
