<svg width="316" height="12" viewBox="0 0 316 12" fill="none" xmlns="http://www.w3.org/2000/svg">
    <path d="M0.894886 9V0.854545H5.94602V1.9125H2.12386V4.39432H5.58409V5.4483H2.12386V9H0.894886ZM10.9868 9.1233C10.4141 9.1233 9.91425 8.99205 9.48736 8.72955C9.06046 8.46705 8.72902 8.09981 8.49304 7.62784C8.25705 7.15587 8.13906 6.60436 8.13906 5.9733C8.13906 5.33958 8.25705 4.78542 8.49304 4.3108C8.72902 3.83617 9.06046 3.46761 9.48736 3.20511C9.91425 2.94261 10.4141 2.81136 10.9868 2.81136C11.5595 2.81136 12.0593 2.94261 12.4862 3.20511C12.9131 3.46761 13.2446 3.83617 13.4805 4.3108C13.7165 4.78542 13.8345 5.33958 13.8345 5.9733C13.8345 6.60436 13.7165 7.15587 13.4805 7.62784C13.2446 8.09981 12.9131 8.46705 12.4862 8.72955C12.0593 8.99205 11.5595 9.1233 10.9868 9.1233ZM10.9908 8.125C11.362 8.125 11.6696 8.02689 11.9135 7.83068C12.1574 7.63447 12.3377 7.3733 12.4544 7.04716C12.5737 6.72102 12.6334 6.36174 12.6334 5.96932C12.6334 5.57955 12.5737 5.22159 12.4544 4.89545C12.3377 4.56667 12.1574 4.30284 11.9135 4.10398C11.6696 3.90511 11.362 3.80568 10.9908 3.80568C10.6169 3.80568 10.3067 3.90511 10.0601 4.10398C9.81615 4.30284 9.63452 4.56667 9.5152 4.89545C9.39853 5.22159 9.3402 5.57955 9.3402 5.96932C9.3402 6.36174 9.39853 6.72102 9.5152 7.04716C9.63452 7.3733 9.81615 7.63447 10.0601 7.83068C10.3067 8.02689 10.6169 8.125 10.9908 8.125ZM16.6619 9V2.89091H17.8114V3.86136H17.875C17.9864 3.53258 18.1826 3.27405 18.4636 3.0858C18.7473 2.89489 19.0682 2.79943 19.4261 2.79943C19.5004 2.79943 19.5879 2.80208 19.6886 2.80739C19.792 2.81269 19.8729 2.81932 19.9312 2.82727V3.96477C19.8835 3.95152 19.7987 3.93693 19.6767 3.92102C19.5547 3.90246 19.4328 3.89318 19.3108 3.89318C19.0297 3.89318 18.7792 3.95284 18.5591 4.07216C18.3417 4.18883 18.1693 4.35189 18.042 4.56136C17.9148 4.76818 17.8511 5.00417 17.8511 5.26932V9H16.6619ZM27.0199 9V0.854545H28.2091V3.88125H28.2807C28.3496 3.75398 28.4491 3.60682 28.579 3.43977C28.7089 3.27273 28.8892 3.12689 29.1199 3.00227C29.3506 2.875 29.6555 2.81136 30.0347 2.81136C30.5278 2.81136 30.968 2.93599 31.3551 3.18523C31.7422 3.43447 32.0458 3.79375 32.2659 4.26307C32.4886 4.73239 32.6 5.29716 32.6 5.95739C32.6 6.61761 32.49 7.18371 32.2699 7.65568C32.0498 8.125 31.7475 8.48693 31.3631 8.74148C30.9786 8.99337 30.5398 9.11932 30.0466 9.11932C29.6754 9.11932 29.3718 9.05701 29.1358 8.93239C28.9025 8.80777 28.7195 8.66193 28.5869 8.49489C28.4544 8.32784 28.3523 8.17936 28.2807 8.04943H28.1812V9H27.0199ZM28.1852 5.94545C28.1852 6.375 28.2475 6.75152 28.3722 7.075C28.4968 7.39848 28.6771 7.6517 28.9131 7.83466C29.1491 8.01496 29.4381 8.10511 29.7801 8.10511C30.1354 8.10511 30.4324 8.01098 30.671 7.82273C30.9097 7.63182 31.09 7.3733 31.2119 7.04716C31.3366 6.72102 31.3989 6.35379 31.3989 5.94545C31.3989 5.54242 31.3379 5.18049 31.2159 4.85966C31.0966 4.53883 30.9163 4.28561 30.675 4.1C30.4364 3.91439 30.1381 3.82159 29.7801 3.82159C29.4354 3.82159 29.1437 3.91042 28.9051 4.08807C28.6691 4.26572 28.4902 4.51364 28.3682 4.83182C28.2462 5.15 28.1852 5.52121 28.1852 5.94545ZM38.0683 9.1233C37.4664 9.1233 36.9481 8.9947 36.5132 8.7375C36.081 8.47765 35.7469 8.11307 35.5109 7.64375C35.2776 7.17178 35.1609 6.61894 35.1609 5.98523C35.1609 5.35947 35.2776 4.80795 35.5109 4.33068C35.7469 3.85341 36.0757 3.48087 36.4973 3.21307C36.9215 2.94527 37.4174 2.81136 37.9848 2.81136C38.3295 2.81136 38.6636 2.86837 38.9871 2.98239C39.3106 3.0964 39.6009 3.27538 39.8581 3.51932C40.1153 3.76326 40.3181 4.08011 40.4666 4.46989C40.6151 4.85701 40.6893 5.32765 40.6893 5.88182V6.30341H35.8331V5.4125H39.524C39.524 5.09962 39.4604 4.82254 39.3331 4.58125C39.2058 4.33731 39.0268 4.14508 38.7962 4.00455C38.5681 3.86402 38.3003 3.79375 37.9928 3.79375C37.6587 3.79375 37.367 3.87595 37.1178 4.04034C36.8712 4.20208 36.6803 4.4142 36.545 4.6767C36.4125 4.93655 36.3462 5.21894 36.3462 5.52386V6.21989C36.3462 6.62822 36.4178 6.97557 36.5609 7.26193C36.7068 7.5483 36.9096 7.76705 37.1695 7.91818C37.4293 8.06667 37.7329 8.14091 38.0803 8.14091C38.3056 8.14091 38.5111 8.10909 38.6967 8.04545C38.8823 7.97917 39.0428 7.88106 39.178 7.75114C39.3132 7.62121 39.4166 7.4608 39.4882 7.26989L40.6138 7.47273C40.5236 7.80417 40.3619 8.09451 40.1286 8.34375C39.8979 8.59034 39.6075 8.78258 39.2575 8.92045C38.9102 9.05568 38.5138 9.1233 38.0683 9.1233ZM46.3605 2.89091V3.84545H43.0236V2.89091H46.3605ZM43.9185 1.42727H45.1077V7.20625C45.1077 7.43693 45.1421 7.61061 45.2111 7.72727C45.28 7.84129 45.3688 7.91951 45.4776 7.96193C45.5889 8.0017 45.7096 8.02159 45.8395 8.02159C45.9349 8.02159 46.0185 8.01496 46.0901 8.0017C46.1616 7.98845 46.2173 7.97784 46.2571 7.96989L46.4719 8.95227C46.4029 8.97879 46.3048 9.0053 46.1776 9.03182C46.0503 9.06098 45.8912 9.07689 45.7003 9.07955C45.3874 9.08485 45.0957 9.02917 44.8253 8.9125C44.5548 8.79583 44.3361 8.61553 44.169 8.37159C44.002 8.12765 43.9185 7.8214 43.9185 7.45284V1.42727ZM52.0277 2.89091V3.84545H48.6908V2.89091H52.0277ZM49.5857 1.42727H50.7749V7.20625C50.7749 7.43693 50.8093 7.61061 50.8783 7.72727C50.9472 7.84129 51.036 7.91951 51.1447 7.96193C51.2561 8.0017 51.3767 8.02159 51.5067 8.02159C51.6021 8.02159 51.6857 8.01496 51.7572 8.0017C51.8288 7.98845 51.8845 7.97784 51.9243 7.96989L52.1391 8.95227C52.0701 8.97879 51.972 9.0053 51.8447 9.03182C51.7175 9.06098 51.5584 9.07689 51.3675 9.07955C51.0546 9.08485 50.7629 9.02917 50.4925 8.9125C50.222 8.79583 50.0033 8.61553 49.8362 8.37159C49.6692 8.12765 49.5857 7.8214 49.5857 7.45284V1.42727ZM57.4105 9.1233C56.8086 9.1233 56.2902 8.9947 55.8554 8.7375C55.4232 8.47765 55.0891 8.11307 54.8531 7.64375C54.6198 7.17178 54.5031 6.61894 54.5031 5.98523C54.5031 5.35947 54.6198 4.80795 54.8531 4.33068C55.0891 3.85341 55.4179 3.48087 55.8395 3.21307C56.2637 2.94527 56.7596 2.81136 57.327 2.81136C57.6717 2.81136 58.0058 2.86837 58.3293 2.98239C58.6527 3.0964 58.9431 3.27538 59.2003 3.51932C59.4575 3.76326 59.6603 4.08011 59.8088 4.46989C59.9573 4.85701 60.0315 5.32765 60.0315 5.88182V6.30341H55.1753V5.4125H58.8662C58.8662 5.09962 58.8026 4.82254 58.6753 4.58125C58.548 4.33731 58.369 4.14508 58.1384 4.00455C57.9103 3.86402 57.6425 3.79375 57.3349 3.79375C57.0008 3.79375 56.7092 3.87595 56.4599 4.04034C56.2134 4.20208 56.0224 4.4142 55.8872 4.6767C55.7546 4.93655 55.6884 5.21894 55.6884 5.52386V6.21989C55.6884 6.62822 55.7599 6.97557 55.9031 7.26193C56.049 7.5483 56.2518 7.76705 56.5116 7.91818C56.7715 8.06667 57.0751 8.14091 57.4224 8.14091C57.6478 8.14091 57.8533 8.10909 58.0389 8.04545C58.2245 7.97917 58.3849 7.88106 58.5202 7.75114C58.6554 7.62121 58.7588 7.4608 58.8304 7.26989L59.956 7.47273C59.8658 7.80417 59.7041 8.09451 59.4707 8.34375C59.2401 8.59034 58.9497 8.78258 58.5997 8.92045C58.2524 9.05568 57.856 9.1233 57.4105 9.1233ZM62.851 9V2.89091H64.0004V3.86136H64.0641C64.1754 3.53258 64.3716 3.27405 64.6527 3.0858C64.9364 2.89489 65.2572 2.79943 65.6152 2.79943C65.6894 2.79943 65.7769 2.80208 65.8777 2.80739C65.9811 2.81269 66.062 2.81932 66.1203 2.82727V3.96477C66.0726 3.95152 65.9877 3.93693 65.8658 3.92102C65.7438 3.90246 65.6218 3.89318 65.4999 3.89318C65.2188 3.89318 64.9682 3.95284 64.7482 4.07216C64.5307 4.18883 64.3584 4.35189 64.2311 4.56136C64.1038 4.76818 64.0402 5.00417 64.0402 5.26932V9H62.851ZM74.3027 0.854545V9H73.1135V0.854545H74.3027ZM80.0355 9.1233C79.4336 9.1233 78.9152 8.9947 78.4804 8.7375C78.0482 8.47765 77.7141 8.11307 77.4781 7.64375C77.2448 7.17178 77.1281 6.61894 77.1281 5.98523C77.1281 5.35947 77.2448 4.80795 77.4781 4.33068C77.7141 3.85341 78.0429 3.48087 78.4645 3.21307C78.8887 2.94527 79.3846 2.81136 79.952 2.81136C80.2967 2.81136 80.6308 2.86837 80.9543 2.98239C81.2777 3.0964 81.5681 3.27538 81.8253 3.51932C82.0825 3.76326 82.2853 4.08011 82.4338 4.46989C82.5823 4.85701 82.6565 5.32765 82.6565 5.88182V6.30341H77.8003V5.4125H81.4912C81.4912 5.09962 81.4276 4.82254 81.3003 4.58125C81.173 4.33731 80.994 4.14508 80.7634 4.00455C80.5353 3.86402 80.2675 3.79375 79.9599 3.79375C79.6259 3.79375 79.3342 3.87595 79.0849 4.04034C78.8384 4.20208 78.6474 4.4142 78.5122 4.6767C78.3796 4.93655 78.3134 5.21894 78.3134 5.52386V6.21989C78.3134 6.62822 78.3849 6.97557 78.5281 7.26193C78.674 7.5483 78.8768 7.76705 79.1366 7.91818C79.3965 8.06667 79.7001 8.14091 80.0474 8.14091C80.2728 8.14091 80.4783 8.10909 80.6639 8.04545C80.8495 7.97917 81.0099 7.88106 81.1452 7.75114C81.2804 7.62121 81.3838 7.4608 81.4554 7.26989L82.581 7.47273C82.4908 7.80417 82.3291 8.09451 82.0957 8.34375C81.8651 8.59034 81.5747 8.78258 81.2247 8.92045C80.8774 9.05568 80.481 9.1233 80.0355 9.1233ZM88.0374 11.4182C87.5521 11.4182 87.1345 11.3545 86.7845 11.2273C86.4372 11.1 86.1535 10.9316 85.9334 10.7222C85.7133 10.5127 85.5489 10.2833 85.4402 10.0341L86.4624 9.6125C86.5339 9.72917 86.6294 9.85246 86.7487 9.98239C86.8707 10.115 87.0351 10.2277 87.2419 10.3205C87.4514 10.4133 87.7205 10.4597 88.0493 10.4597C88.5 10.4597 88.8726 10.3496 89.1669 10.1295C89.4612 9.91212 89.6084 9.56477 89.6084 9.0875V7.88636H89.5328C89.4612 8.01629 89.3578 8.1608 89.2226 8.31989C89.09 8.47898 88.9071 8.61686 88.6737 8.73352C88.4404 8.85019 88.1368 8.90852 87.7629 8.90852C87.2803 8.90852 86.8455 8.79583 86.4584 8.57045C86.0739 8.34242 85.769 8.00701 85.5436 7.5642C85.3209 7.11875 85.2095 6.57121 85.2095 5.92159C85.2095 5.27197 85.3196 4.71515 85.5396 4.25114C85.7624 3.78712 86.0673 3.43182 86.4544 3.18523C86.8415 2.93599 87.2803 2.81136 87.7709 2.81136C88.15 2.81136 88.4563 2.875 88.6896 3.00227C88.923 3.12689 89.1046 3.27273 89.2345 3.43977C89.3671 3.60682 89.4692 3.75398 89.5408 3.88125H89.6283V2.89091H90.7936V9.13523C90.7936 9.66023 90.6716 10.0911 90.4277 10.4278C90.1838 10.7646 89.8536 11.0138 89.4374 11.1756C89.0237 11.3373 88.5571 11.4182 88.0374 11.4182ZM88.0254 7.92216C88.3675 7.92216 88.6565 7.84261 88.8925 7.68352C89.1311 7.52178 89.3114 7.2911 89.4334 6.99148C89.558 6.6892 89.6203 6.32727 89.6203 5.90568C89.6203 5.4947 89.5593 5.13277 89.4374 4.81989C89.3154 4.50701 89.1364 4.26307 88.9004 4.08807C88.6644 3.91042 88.3728 3.82159 88.0254 3.82159C87.6675 3.82159 87.3692 3.91439 87.1305 4.1C86.8919 4.28295 86.7116 4.5322 86.5896 4.84773C86.4703 5.16326 86.4107 5.51591 86.4107 5.90568C86.4107 6.30606 86.4716 6.65739 86.5936 6.95966C86.7156 7.26193 86.8959 7.49792 87.1345 7.66761C87.3758 7.83731 87.6728 7.92216 88.0254 7.92216ZM93.8885 9V2.89091H95.0777V9H93.8885ZM94.4891 1.9483C94.2822 1.9483 94.1046 1.87936 93.9561 1.74148C93.8103 1.60095 93.7374 1.4339 93.7374 1.24034C93.7374 1.04413 93.8103 0.877083 93.9561 0.739204C94.1046 0.598674 94.2822 0.528409 94.4891 0.528409C94.6959 0.528409 94.8722 0.598674 95.018 0.739204C95.1665 0.877083 95.2408 1.04413 95.2408 1.24034C95.2408 1.4339 95.1665 1.60095 95.018 1.74148C94.8722 1.87936 94.6959 1.9483 94.4891 1.9483ZM98.273 9V0.854545H99.4622V3.88125H99.5338C99.6027 3.75398 99.7022 3.60682 99.8321 3.43977C99.962 3.27273 100.142 3.12689 100.373 3.00227C100.604 2.875 100.909 2.81136 101.288 2.81136C101.781 2.81136 102.221 2.93599 102.608 3.18523C102.995 3.43447 103.299 3.79375 103.519 4.26307C103.742 4.73239 103.853 5.29716 103.853 5.95739C103.853 6.61761 103.743 7.18371 103.523 7.65568C103.303 8.125 103.001 8.48693 102.616 8.74148C102.232 8.99337 101.793 9.11932 101.3 9.11932C100.928 9.11932 100.625 9.05701 100.389 8.93239C100.156 8.80777 99.9726 8.66193 99.8401 8.49489C99.7075 8.32784 99.6054 8.17936 99.5338 8.04943H99.4344V9H98.273ZM99.4383 5.94545C99.4383 6.375 99.5007 6.75152 99.6253 7.075C99.7499 7.39848 99.9302 7.6517 100.166 7.83466C100.402 8.01496 100.691 8.10511 101.033 8.10511C101.389 8.10511 101.686 8.01098 101.924 7.82273C102.163 7.63182 102.343 7.3733 102.465 7.04716C102.59 6.72102 102.652 6.35379 102.652 5.94545C102.652 5.54242 102.591 5.18049 102.469 4.85966C102.35 4.53883 102.169 4.28561 101.928 4.1C101.689 3.91439 101.391 3.82159 101.033 3.82159C100.689 3.82159 100.397 3.91042 100.158 4.08807C99.9222 4.26572 99.7433 4.51364 99.6213 4.83182C99.4993 5.15 99.4383 5.52121 99.4383 5.94545ZM106.688 9V2.89091H107.878V9H106.688ZM107.289 1.9483C107.082 1.9483 106.905 1.87936 106.756 1.74148C106.61 1.60095 106.537 1.4339 106.537 1.24034C106.537 1.04413 106.61 0.877083 106.756 0.739204C106.905 0.598674 107.082 0.528409 107.289 0.528409C107.496 0.528409 107.672 0.598674 107.818 0.739204C107.967 0.877083 108.041 1.04413 108.041 1.24034C108.041 1.4339 107.967 1.60095 107.818 1.74148C107.672 1.87936 107.496 1.9483 107.289 1.9483ZM112.167 0.854545V9H110.978V0.854545H112.167ZM115.267 9V2.89091H116.456V9H115.267ZM115.867 1.9483C115.66 1.9483 115.483 1.87936 115.334 1.74148C115.188 1.60095 115.115 1.4339 115.115 1.24034C115.115 1.04413 115.188 0.877083 115.334 0.739204C115.483 0.598674 115.66 0.528409 115.867 0.528409C116.074 0.528409 116.25 0.598674 116.396 0.739204C116.545 0.877083 116.619 1.04413 116.619 1.24034C116.619 1.4339 116.545 1.60095 116.396 1.74148C116.25 1.87936 116.074 1.9483 115.867 1.9483ZM122.407 2.89091V3.84545H119.07V2.89091H122.407ZM119.965 1.42727H121.155V7.20625C121.155 7.43693 121.189 7.61061 121.258 7.72727C121.327 7.84129 121.416 7.91951 121.524 7.96193C121.636 8.0017 121.756 8.02159 121.886 8.02159C121.982 8.02159 122.065 8.01496 122.137 8.0017C122.209 7.98845 122.264 7.97784 122.304 7.96989L122.519 8.95227C122.45 8.97879 122.352 9.0053 122.224 9.03182C122.097 9.06098 121.938 9.07689 121.747 9.07955C121.434 9.08485 121.143 9.02917 120.872 8.9125C120.602 8.79583 120.383 8.61553 120.216 8.37159C120.049 8.12765 119.965 7.8214 119.965 7.45284V1.42727ZM125.975 11.2909C125.797 11.2909 125.635 11.2763 125.489 11.2472C125.344 11.2206 125.235 11.1915 125.163 11.1597L125.45 10.1852C125.667 10.2436 125.861 10.2688 126.03 10.2608C126.2 10.2528 126.35 10.1892 126.48 10.0699C126.612 9.95057 126.729 9.75568 126.83 9.48523L126.977 9.07955L124.742 2.89091H126.014L127.561 7.63182H127.625L129.172 2.89091H130.449L127.931 9.81534C127.815 10.1335 127.666 10.4027 127.486 10.6227C127.306 10.8455 127.091 11.0125 126.842 11.1239C126.592 11.2352 126.303 11.2909 125.975 11.2909ZM134.231 7.88636L134.171 8.31989C134.132 8.63807 134.064 8.96951 133.968 9.3142C133.876 9.66155 133.779 9.98371 133.678 10.2807C133.58 10.5777 133.499 10.8136 133.436 10.9886H132.592C132.627 10.8242 132.675 10.6015 132.736 10.3205C132.796 10.042 132.856 9.73049 132.914 9.3858C132.973 9.0411 133.017 8.68977 133.046 8.33182L133.086 7.88636H134.231ZM141.743 11.2909V2.89091H142.905V3.88125H143.004C143.073 3.75398 143.172 3.60682 143.302 3.43977C143.432 3.27273 143.612 3.12689 143.843 3.00227C144.074 2.875 144.379 2.81136 144.758 2.81136C145.251 2.81136 145.691 2.93599 146.078 3.18523C146.466 3.43447 146.769 3.79375 146.989 4.26307C147.212 4.73239 147.323 5.29716 147.323 5.95739C147.323 6.61761 147.213 7.18371 146.993 7.65568C146.773 8.125 146.471 8.48693 146.086 8.74148C145.702 8.99337 145.263 9.11932 144.77 9.11932C144.399 9.11932 144.095 9.05701 143.859 8.93239C143.626 8.80777 143.443 8.66193 143.31 8.49489C143.178 8.32784 143.076 8.17936 143.004 8.04943H142.932V11.2909H141.743ZM142.909 5.94545C142.909 6.375 142.971 6.75152 143.095 7.075C143.22 7.39848 143.4 7.6517 143.636 7.83466C143.872 8.01496 144.161 8.10511 144.503 8.10511C144.859 8.10511 145.156 8.01098 145.394 7.82273C145.633 7.63182 145.813 7.3733 145.935 7.04716C146.06 6.72102 146.122 6.35379 146.122 5.94545C146.122 5.54242 146.061 5.18049 145.939 4.85966C145.82 4.53883 145.64 4.28561 145.398 4.1C145.16 3.91439 144.861 3.82159 144.503 3.82159C144.159 3.82159 143.867 3.91042 143.628 4.08807C143.392 4.26572 143.213 4.51364 143.091 4.83182C142.969 5.15 142.909 5.52121 142.909 5.94545ZM151.345 0.854545V9H150.156V0.854545H151.345ZM157.078 9.1233C156.476 9.1233 155.957 8.9947 155.523 8.7375C155.09 8.47765 154.756 8.11307 154.52 7.64375C154.287 7.17178 154.17 6.61894 154.17 5.98523C154.17 5.35947 154.287 4.80795 154.52 4.33068C154.756 3.85341 155.085 3.48087 155.507 3.21307C155.931 2.94527 156.427 2.81136 156.994 2.81136C157.339 2.81136 157.673 2.86837 157.996 2.98239C158.32 3.0964 158.61 3.27538 158.867 3.51932C159.125 3.76326 159.328 4.08011 159.476 4.46989C159.624 4.85701 159.699 5.32765 159.699 5.88182V6.30341H154.842V5.4125H158.533C158.533 5.09962 158.47 4.82254 158.342 4.58125C158.215 4.33731 158.036 4.14508 157.806 4.00455C157.578 3.86402 157.31 3.79375 157.002 3.79375C156.668 3.79375 156.376 3.87595 156.127 4.04034C155.881 4.20208 155.69 4.4142 155.554 4.6767C155.422 4.93655 155.356 5.21894 155.356 5.52386V6.21989C155.356 6.62822 155.427 6.97557 155.57 7.26193C155.716 7.5483 155.919 7.76705 156.179 7.91818C156.439 8.06667 156.742 8.14091 157.09 8.14091C157.315 8.14091 157.52 8.10909 157.706 8.04545C157.892 7.97917 158.052 7.88106 158.187 7.75114C158.323 7.62121 158.426 7.4608 158.498 7.26989L159.623 7.47273C159.533 7.80417 159.371 8.09451 159.138 8.34375C158.907 8.59034 158.617 8.78258 158.267 8.92045C157.92 9.05568 157.523 9.1233 157.078 9.1233ZM164.296 9.13523C163.909 9.13523 163.559 9.06364 163.246 8.92045C162.933 8.77462 162.685 8.56383 162.502 8.28807C162.322 8.01231 162.232 7.67424 162.232 7.27386C162.232 6.92917 162.298 6.64545 162.431 6.42273C162.563 6.2 162.742 6.02367 162.968 5.89375C163.193 5.76383 163.445 5.66572 163.723 5.59943C164.002 5.53314 164.285 5.48277 164.574 5.4483C164.94 5.40587 165.237 5.3714 165.465 5.34489C165.693 5.31572 165.859 5.26932 165.962 5.20568C166.066 5.14205 166.118 5.03864 166.118 4.89545V4.86761C166.118 4.52027 166.02 4.25114 165.823 4.06023C165.63 3.86932 165.341 3.77386 164.956 3.77386C164.556 3.77386 164.24 3.86269 164.01 4.04034C163.782 4.21534 163.624 4.41023 163.536 4.625L162.419 4.37045C162.551 3.99924 162.745 3.69962 162.999 3.47159C163.257 3.24091 163.552 3.07386 163.886 2.97045C164.22 2.86439 164.572 2.81136 164.94 2.81136C165.184 2.81136 165.443 2.84053 165.716 2.89886C165.992 2.95455 166.249 3.05795 166.487 3.20909C166.729 3.36023 166.926 3.57633 167.08 3.85739C167.234 4.1358 167.311 4.49773 167.311 4.94318V9H166.149V8.16477H166.102C166.025 8.31856 165.909 8.4697 165.756 8.61818C165.602 8.76667 165.404 8.88996 165.163 8.98807C164.922 9.08617 164.633 9.13523 164.296 9.13523ZM164.555 8.18068C164.883 8.18068 165.164 8.11572 165.398 7.9858C165.634 7.85587 165.813 7.68617 165.935 7.4767C166.059 7.26458 166.122 7.03788 166.122 6.79659V6.00909C166.079 6.05152 165.997 6.09129 165.875 6.12841C165.756 6.16288 165.619 6.19337 165.465 6.21989C165.312 6.24375 165.162 6.26629 165.016 6.2875C164.87 6.30606 164.748 6.32197 164.65 6.33523C164.419 6.36439 164.209 6.41345 164.018 6.48239C163.829 6.55133 163.678 6.65076 163.564 6.78068C163.453 6.90795 163.397 7.07765 163.397 7.28977C163.397 7.58409 163.506 7.80682 163.723 7.95795C163.941 8.10644 164.218 8.18068 164.555 8.18068ZM174.973 4.38239L173.895 4.5733C173.85 4.43542 173.778 4.30417 173.68 4.17955C173.585 4.05492 173.455 3.95284 173.29 3.8733C173.126 3.79375 172.92 3.75398 172.674 3.75398C172.337 3.75398 172.056 3.82955 171.831 3.98068C171.605 4.12917 171.492 4.3214 171.492 4.55739C171.492 4.76155 171.568 4.92595 171.719 5.05057C171.87 5.17519 172.114 5.27727 172.451 5.35682L173.421 5.57955C173.984 5.70947 174.403 5.90966 174.678 6.18011C174.954 6.45057 175.092 6.80189 175.092 7.23409C175.092 7.6 174.986 7.92614 174.774 8.2125C174.564 8.49621 174.271 8.71894 173.895 8.88068C173.521 9.04242 173.087 9.1233 172.594 9.1233C171.91 9.1233 171.352 8.97746 170.92 8.6858C170.488 8.39148 170.222 7.97386 170.124 7.43295L171.274 7.25795C171.345 7.55758 171.492 7.78428 171.715 7.93807C171.938 8.0892 172.228 8.16477 172.586 8.16477C172.976 8.16477 173.288 8.0839 173.521 7.92216C173.754 7.75777 173.871 7.55758 173.871 7.32159C173.871 7.13068 173.799 6.97027 173.656 6.84034C173.516 6.71042 173.299 6.61231 173.008 6.54602L171.974 6.31932C171.404 6.18939 170.982 5.98258 170.709 5.69886C170.438 5.41515 170.303 5.05587 170.303 4.62102C170.303 4.26042 170.404 3.94489 170.606 3.67443C170.807 3.40398 171.085 3.19318 171.441 3.04205C171.796 2.88826 172.203 2.81136 172.662 2.81136C173.322 2.81136 173.842 2.95455 174.221 3.24091C174.6 3.52462 174.851 3.90511 174.973 4.38239ZM180.532 9.1233C179.93 9.1233 179.412 8.9947 178.977 8.7375C178.545 8.47765 178.211 8.11307 177.975 7.64375C177.742 7.17178 177.625 6.61894 177.625 5.98523C177.625 5.35947 177.742 4.80795 177.975 4.33068C178.211 3.85341 178.54 3.48087 178.961 3.21307C179.386 2.94527 179.881 2.81136 180.449 2.81136C180.794 2.81136 181.128 2.86837 181.451 2.98239C181.775 3.0964 182.065 3.27538 182.322 3.51932C182.579 3.76326 182.782 4.08011 182.931 4.46989C183.079 4.85701 183.153 5.32765 183.153 5.88182V6.30341H178.297V5.4125H181.988C181.988 5.09962 181.924 4.82254 181.797 4.58125C181.67 4.33731 181.491 4.14508 181.26 4.00455C181.032 3.86402 180.764 3.79375 180.457 3.79375C180.123 3.79375 179.831 3.87595 179.582 4.04034C179.335 4.20208 179.144 4.4142 179.009 4.6767C178.877 4.93655 178.81 5.21894 178.81 5.52386V6.21989C178.81 6.62822 178.882 6.97557 179.025 7.26193C179.171 7.5483 179.374 7.76705 179.634 7.91818C179.893 8.06667 180.197 8.14091 180.544 8.14091C180.77 8.14091 180.975 8.10909 181.161 8.04545C181.346 7.97917 181.507 7.88106 181.642 7.75114C181.777 7.62121 181.881 7.4608 181.952 7.26989L183.078 7.47273C182.988 7.80417 182.826 8.09451 182.593 8.34375C182.362 8.59034 182.072 8.78258 181.722 8.92045C181.374 9.05568 180.978 9.1233 180.532 9.1233ZM193.289 2.89091V3.84545H189.952V2.89091H193.289ZM190.847 1.42727H192.036V7.20625C192.036 7.43693 192.07 7.61061 192.139 7.72727C192.208 7.84129 192.297 7.91951 192.406 7.96193C192.517 8.0017 192.638 8.02159 192.768 8.02159C192.863 8.02159 192.947 8.01496 193.018 8.0017C193.09 7.98845 193.145 7.97784 193.185 7.96989L193.4 8.95227C193.331 8.97879 193.233 9.0053 193.106 9.03182C192.978 9.06098 192.819 9.07689 192.628 9.07955C192.316 9.08485 192.024 9.02917 191.753 8.9125C191.483 8.79583 191.264 8.61553 191.097 8.37159C190.93 8.12765 190.847 7.8214 190.847 7.45284V1.42727ZM199.974 6.46648V2.89091H201.167V9H199.998V7.94205H199.934C199.794 8.26818 199.568 8.53996 199.258 8.75739C198.951 8.97216 198.567 9.07955 198.109 9.07955C197.716 9.07955 197.369 8.99337 197.067 8.82102C196.767 8.64602 196.531 8.3875 196.359 8.04545C196.189 7.70341 196.104 7.28049 196.104 6.7767V2.89091H197.293V6.63352C197.293 7.04981 197.409 7.38125 197.639 7.62784C197.87 7.87443 198.17 7.99773 198.538 7.99773C198.761 7.99773 198.982 7.94205 199.202 7.83068C199.425 7.71932 199.609 7.55095 199.755 7.32557C199.904 7.10019 199.977 6.81383 199.974 6.46648ZM204.265 9V2.89091H205.414V3.86136H205.478C205.589 3.53258 205.786 3.27405 206.067 3.0858C206.35 2.89489 206.671 2.79943 207.029 2.79943C207.104 2.79943 207.191 2.80208 207.292 2.80739C207.395 2.81269 207.476 2.81932 207.534 2.82727V3.96477C207.487 3.95152 207.402 3.93693 207.28 3.92102C207.158 3.90246 207.036 3.89318 206.914 3.89318C206.633 3.89318 206.382 3.95284 206.162 4.07216C205.945 4.18883 205.772 4.35189 205.645 4.56136C205.518 4.76818 205.454 5.00417 205.454 5.26932V9H204.265ZM211.253 5.37273V9H210.063V2.89091H211.205V3.88523H211.281C211.421 3.56174 211.641 3.30189 211.941 3.10568C212.243 2.90947 212.624 2.81136 213.082 2.81136C213.499 2.81136 213.863 2.89886 214.176 3.07386C214.489 3.24621 214.731 3.50341 214.904 3.84545C215.076 4.1875 215.162 4.61042 215.162 5.1142V9H213.973V5.25739C213.973 4.81458 213.858 4.46856 213.627 4.21932C213.396 3.96742 213.08 3.84148 212.677 3.84148C212.401 3.84148 212.156 3.90114 211.941 4.02045C211.729 4.13977 211.56 4.31477 211.436 4.54545C211.314 4.77348 211.253 5.04924 211.253 5.37273ZM225.295 9.1233C224.722 9.1233 224.222 8.99205 223.795 8.72955C223.368 8.46705 223.037 8.09981 222.801 7.62784C222.565 7.15587 222.447 6.60436 222.447 5.9733C222.447 5.33958 222.565 4.78542 222.801 4.3108C223.037 3.83617 223.368 3.46761 223.795 3.20511C224.222 2.94261 224.722 2.81136 225.295 2.81136C225.867 2.81136 226.367 2.94261 226.794 3.20511C227.221 3.46761 227.552 3.83617 227.788 4.3108C228.024 4.78542 228.142 5.33958 228.142 5.9733C228.142 6.60436 228.024 7.15587 227.788 7.62784C227.552 8.09981 227.221 8.46705 226.794 8.72955C226.367 8.99205 225.867 9.1233 225.295 9.1233ZM225.299 8.125C225.67 8.125 225.977 8.02689 226.221 7.83068C226.465 7.63447 226.646 7.3733 226.762 7.04716C226.882 6.72102 226.941 6.36174 226.941 5.96932C226.941 5.57955 226.882 5.22159 226.762 4.89545C226.646 4.56667 226.465 4.30284 226.221 4.10398C225.977 3.90511 225.67 3.80568 225.299 3.80568C224.925 3.80568 224.614 3.90511 224.368 4.10398C224.124 4.30284 223.942 4.56667 223.823 4.89545C223.706 5.22159 223.648 5.57955 223.648 5.96932C223.648 6.36174 223.706 6.72102 223.823 7.04716C223.942 7.3733 224.124 7.63447 224.368 7.83068C224.614 8.02689 224.925 8.125 225.299 8.125ZM232.159 5.37273V9H230.97V2.89091H232.111V3.88523H232.187C232.327 3.56174 232.547 3.30189 232.847 3.10568C233.149 2.90947 233.53 2.81136 233.988 2.81136C234.405 2.81136 234.769 2.89886 235.082 3.07386C235.395 3.24621 235.638 3.50341 235.81 3.84545C235.982 4.1875 236.069 4.61042 236.069 5.1142V9H234.879V5.25739C234.879 4.81458 234.764 4.46856 234.533 4.21932C234.303 3.96742 233.986 3.84148 233.583 3.84148C233.307 3.84148 233.062 3.90114 232.847 4.02045C232.635 4.13977 232.467 4.31477 232.342 4.54545C232.22 4.77348 232.159 5.04924 232.159 5.37273ZM245.914 9.11932C245.421 9.11932 244.981 8.99337 244.594 8.74148C244.21 8.48693 243.907 8.125 243.687 7.65568C243.47 7.18371 243.361 6.61761 243.361 5.95739C243.361 5.29716 243.471 4.73239 243.691 4.26307C243.914 3.79375 244.219 3.43447 244.606 3.18523C244.993 2.93599 245.432 2.81136 245.922 2.81136C246.302 2.81136 246.607 2.875 246.837 3.00227C247.071 3.12689 247.251 3.27273 247.378 3.43977C247.508 3.60682 247.609 3.75398 247.68 3.88125H247.752V0.854545H248.941V9H247.78V8.04943H247.68C247.609 8.17936 247.505 8.32784 247.37 8.49489C247.238 8.66193 247.055 8.80777 246.821 8.93239C246.588 9.05701 246.286 9.11932 245.914 9.11932ZM246.177 8.10511C246.519 8.10511 246.808 8.01496 247.044 7.83466C247.283 7.6517 247.463 7.39848 247.585 7.075C247.71 6.75152 247.772 6.375 247.772 5.94545C247.772 5.52121 247.711 5.15 247.589 4.83182C247.467 4.51364 247.288 4.26572 247.052 4.08807C246.816 3.91042 246.524 3.82159 246.177 3.82159C245.819 3.82159 245.521 3.91439 245.282 4.1C245.043 4.28561 244.863 4.53883 244.741 4.85966C244.622 5.18049 244.562 5.54242 244.562 5.94545C244.562 6.35379 244.623 6.72102 244.745 7.04716C244.867 7.3733 245.047 7.63182 245.286 7.82273C245.527 8.01098 245.824 8.10511 246.177 8.10511ZM253.916 9.13523C253.529 9.13523 253.179 9.06364 252.866 8.92045C252.553 8.77462 252.306 8.56383 252.123 8.28807C251.942 8.01231 251.852 7.67424 251.852 7.27386C251.852 6.92917 251.918 6.64545 252.051 6.42273C252.184 6.2 252.363 6.02367 252.588 5.89375C252.813 5.76383 253.065 5.66572 253.344 5.59943C253.622 5.53314 253.906 5.48277 254.195 5.4483C254.561 5.40587 254.858 5.3714 255.086 5.34489C255.314 5.31572 255.479 5.26932 255.583 5.20568C255.686 5.14205 255.738 5.03864 255.738 4.89545V4.86761C255.738 4.52027 255.64 4.25114 255.444 4.06023C255.25 3.86932 254.961 3.77386 254.577 3.77386C254.176 3.77386 253.861 3.86269 253.63 4.04034C253.402 4.21534 253.244 4.41023 253.157 4.625L252.039 4.37045C252.172 3.99924 252.365 3.69962 252.62 3.47159C252.877 3.24091 253.173 3.07386 253.507 2.97045C253.841 2.86439 254.192 2.81136 254.561 2.81136C254.805 2.81136 255.063 2.84053 255.336 2.89886C255.612 2.95455 255.869 3.05795 256.108 3.20909C256.349 3.36023 256.547 3.57633 256.7 3.85739C256.854 4.1358 256.931 4.49773 256.931 4.94318V9H255.77V8.16477H255.722C255.645 8.31856 255.53 8.4697 255.376 8.61818C255.222 8.76667 255.025 8.88996 254.783 8.98807C254.542 9.08617 254.253 9.13523 253.916 9.13523ZM254.175 8.18068C254.504 8.18068 254.785 8.11572 255.018 7.9858C255.254 7.85587 255.433 7.68617 255.555 7.4767C255.68 7.26458 255.742 7.03788 255.742 6.79659V6.00909C255.699 6.05152 255.617 6.09129 255.495 6.12841C255.376 6.16288 255.239 6.19337 255.086 6.21989C254.932 6.24375 254.782 6.26629 254.636 6.2875C254.49 6.30606 254.368 6.32197 254.27 6.33523C254.04 6.36439 253.829 6.41345 253.638 6.48239C253.45 6.55133 253.299 6.65076 253.185 6.78068C253.073 6.90795 253.017 7.07765 253.017 7.28977C253.017 7.58409 253.126 7.80682 253.344 7.95795C253.561 8.10644 253.838 8.18068 254.175 8.18068ZM260.015 9V2.89091H261.164V3.86136H261.228C261.339 3.53258 261.536 3.27405 261.817 3.0858C262.1 2.89489 262.421 2.79943 262.779 2.79943C262.853 2.79943 262.941 2.80208 263.042 2.80739C263.145 2.81269 263.226 2.81932 263.284 2.82727V3.96477C263.237 3.95152 263.152 3.93693 263.03 3.92102C262.908 3.90246 262.786 3.89318 262.664 3.89318C262.383 3.89318 262.132 3.95284 261.912 4.07216C261.695 4.18883 261.522 4.35189 261.395 4.56136C261.268 4.76818 261.204 5.00417 261.204 5.26932V9H260.015ZM266.907 6.92784L266.899 5.47614H267.106L269.54 2.89091H270.964L268.188 5.83409H268.001L266.907 6.92784ZM265.814 9V0.854545H267.003V9H265.814ZM269.671 9L267.484 6.09659L268.303 5.26534L271.131 9H269.671ZM278.012 9V2.89091H279.153V3.88523H279.229C279.356 3.54848 279.564 3.28599 279.853 3.09773C280.142 2.90682 280.488 2.81136 280.891 2.81136C281.3 2.81136 281.642 2.90682 281.918 3.09773C282.196 3.28864 282.402 3.55114 282.534 3.88523H282.598C282.744 3.55909 282.976 3.29924 283.294 3.10568C283.612 2.90947 283.991 2.81136 284.431 2.81136C284.985 2.81136 285.437 2.98504 285.787 3.33239C286.14 3.67973 286.316 4.20341 286.316 4.90341V9H285.127V5.01477C285.127 4.60114 285.015 4.30152 284.789 4.11591C284.564 3.9303 284.295 3.8375 283.982 3.8375C283.595 3.8375 283.294 3.95682 283.079 4.19545C282.864 4.43144 282.757 4.73504 282.757 5.10625V9H281.572V4.9392C281.572 4.60777 281.468 4.34129 281.261 4.13977C281.055 3.93826 280.785 3.8375 280.454 3.8375C280.229 3.8375 280.02 3.89716 279.83 4.01648C279.641 4.13314 279.489 4.29621 279.372 4.50568C279.258 4.71515 279.201 4.95777 279.201 5.23352V9H278.012ZM291.984 9.1233C291.411 9.1233 290.911 8.99205 290.484 8.72955C290.057 8.46705 289.726 8.09981 289.49 7.62784C289.254 7.15587 289.136 6.60436 289.136 5.9733C289.136 5.33958 289.254 4.78542 289.49 4.3108C289.726 3.83617 290.057 3.46761 290.484 3.20511C290.911 2.94261 291.411 2.81136 291.984 2.81136C292.556 2.81136 293.056 2.94261 293.483 3.20511C293.91 3.46761 294.241 3.83617 294.477 4.3108C294.713 4.78542 294.831 5.33958 294.831 5.9733C294.831 6.60436 294.713 7.15587 294.477 7.62784C294.241 8.09981 293.91 8.46705 293.483 8.72955C293.056 8.99205 292.556 9.1233 291.984 9.1233ZM291.988 8.125C292.359 8.125 292.666 8.02689 292.91 7.83068C293.154 7.63447 293.335 7.3733 293.451 7.04716C293.571 6.72102 293.63 6.36174 293.63 5.96932C293.63 5.57955 293.571 5.22159 293.451 4.89545C293.335 4.56667 293.154 4.30284 292.91 4.10398C292.666 3.90511 292.359 3.80568 291.988 3.80568C291.614 3.80568 291.304 3.90511 291.057 4.10398C290.813 4.30284 290.631 4.56667 290.512 4.89545C290.395 5.22159 290.337 5.57955 290.337 5.96932C290.337 6.36174 290.395 6.72102 290.512 7.04716C290.631 7.3733 290.813 7.63447 291.057 7.83068C291.304 8.02689 291.614 8.125 291.988 8.125ZM299.946 9.11932C299.453 9.11932 299.012 8.99337 298.625 8.74148C298.241 8.48693 297.939 8.125 297.718 7.65568C297.501 7.18371 297.392 6.61761 297.392 5.95739C297.392 5.29716 297.502 4.73239 297.722 4.26307C297.945 3.79375 298.25 3.43447 298.637 3.18523C299.024 2.93599 299.463 2.81136 299.954 2.81136C300.333 2.81136 300.638 2.875 300.868 3.00227C301.102 3.12689 301.282 3.27273 301.409 3.43977C301.539 3.60682 301.64 3.75398 301.712 3.88125H301.783V0.854545H302.972V9H301.811V8.04943H301.712C301.64 8.17936 301.537 8.32784 301.401 8.49489C301.269 8.66193 301.086 8.80777 300.853 8.93239C300.619 9.05701 300.317 9.11932 299.946 9.11932ZM300.208 8.10511C300.55 8.10511 300.839 8.01496 301.075 7.83466C301.314 7.6517 301.494 7.39848 301.616 7.075C301.741 6.75152 301.803 6.375 301.803 5.94545C301.803 5.52121 301.742 5.15 301.62 4.83182C301.498 4.51364 301.319 4.26572 301.083 4.08807C300.847 3.91042 300.556 3.82159 300.208 3.82159C299.85 3.82159 299.552 3.91439 299.313 4.1C299.075 4.28561 298.894 4.53883 298.772 4.85966C298.653 5.18049 298.593 5.54242 298.593 5.94545C298.593 6.35379 298.654 6.72102 298.776 7.04716C298.898 7.3733 299.079 7.63182 299.317 7.82273C299.559 8.01098 299.856 8.10511 300.208 8.10511ZM308.803 9.1233C308.201 9.1233 307.682 8.9947 307.248 8.7375C306.815 8.47765 306.481 8.11307 306.245 7.64375C306.012 7.17178 305.895 6.61894 305.895 5.98523C305.895 5.35947 306.012 4.80795 306.245 4.33068C306.481 3.85341 306.81 3.48087 307.232 3.21307C307.656 2.94527 308.152 2.81136 308.719 2.81136C309.064 2.81136 309.398 2.86837 309.721 2.98239C310.045 3.0964 310.335 3.27538 310.592 3.51932C310.85 3.76326 311.052 4.08011 311.201 4.46989C311.349 4.85701 311.424 5.32765 311.424 5.88182V6.30341H306.567V5.4125H310.258C310.258 5.09962 310.195 4.82254 310.067 4.58125C309.94 4.33731 309.761 4.14508 309.531 4.00455C309.302 3.86402 309.035 3.79375 308.727 3.79375C308.393 3.79375 308.101 3.87595 307.852 4.04034C307.606 4.20208 307.415 4.4142 307.279 4.6767C307.147 4.93655 307.081 5.21894 307.081 5.52386V6.21989C307.081 6.62822 307.152 6.97557 307.295 7.26193C307.441 7.5483 307.644 7.76705 307.904 7.91818C308.164 8.06667 308.467 8.14091 308.815 8.14091C309.04 8.14091 309.245 8.10909 309.431 8.04545C309.617 7.97917 309.777 7.88106 309.912 7.75114C310.048 7.62121 310.151 7.4608 310.223 7.26989L311.348 7.47273C311.258 7.80417 311.096 8.09451 310.863 8.34375C310.632 8.59034 310.342 8.78258 309.992 8.92045C309.645 9.05568 309.248 9.1233 308.803 9.1233ZM315.027 9.07557C314.809 9.07557 314.622 8.99867 314.466 8.84489C314.309 8.68845 314.231 8.50019 314.231 8.28011C314.231 8.06269 314.309 7.87708 314.466 7.7233C314.622 7.56686 314.809 7.48864 315.027 7.48864C315.244 7.48864 315.431 7.56686 315.588 7.7233C315.744 7.87708 315.822 8.06269 315.822 8.28011C315.822 8.42595 315.785 8.55985 315.711 8.68182C315.639 8.80114 315.544 8.89659 315.424 8.96818C315.305 9.03977 315.173 9.07557 315.027 9.07557Z" fill="#0D1117"/>
</svg>
