<svg width="112" height="50" viewBox="0 0 112 50" fill="none" xmlns="http://www.w3.org/2000/svg">
    <path d="M42.8949 29.5V21.3545H45.7983C46.432 21.3545 46.957 21.4699 47.3733 21.7006C47.7896 21.9312 48.1011 22.2468 48.308 22.6472C48.5148 23.0449 48.6182 23.493 48.6182 23.9915C48.6182 24.4926 48.5134 24.9434 48.304 25.3438C48.0972 25.7415 47.7843 26.057 47.3653 26.2903C46.9491 26.521 46.4254 26.6364 45.7943 26.6364H43.7977V25.5943H45.683C46.0833 25.5943 46.4081 25.5254 46.6574 25.3875C46.9066 25.247 47.0896 25.0561 47.2062 24.8148C47.3229 24.5735 47.3812 24.2991 47.3812 23.9915C47.3812 23.6839 47.3229 23.4108 47.2062 23.1722C47.0896 22.9335 46.9053 22.7466 46.6534 22.6114C46.4042 22.4761 46.0754 22.4085 45.667 22.4085H44.1239V29.5H42.8949ZM51.5589 29.5V21.3545H54.4624C55.0934 21.3545 55.6171 21.4633 56.0334 21.6807C56.4523 21.8981 56.7652 22.1991 56.972 22.5835C57.1788 22.9653 57.2822 23.4068 57.2822 23.908C57.2822 24.4064 57.1775 24.8453 56.968 25.2244C56.7612 25.6009 56.4483 25.8939 56.0294 26.1034C55.6131 26.3129 55.0894 26.4176 54.4584 26.4176H52.2589V25.3597H54.347C54.7447 25.3597 55.0682 25.3027 55.3175 25.1886C55.5694 25.0746 55.7536 24.9089 55.8703 24.6915C55.987 24.4741 56.0453 24.2129 56.0453 23.908C56.0453 23.6004 55.9857 23.3339 55.8663 23.1085C55.7497 22.8831 55.5654 22.7108 55.3135 22.5915C55.0643 22.4695 54.7368 22.4085 54.3311 22.4085H52.7879V29.5H51.5589ZM55.58 25.825L57.5925 29.5H56.1925L54.2197 25.825H55.58ZM67.3533 25.4273C67.3533 26.297 67.1942 27.0447 66.876 27.6705C66.5578 28.2936 66.1216 28.7735 65.5675 29.1102C65.016 29.4443 64.3889 29.6114 63.6862 29.6114C62.9809 29.6114 62.3512 29.4443 61.797 29.1102C61.2455 28.7735 60.8107 28.2922 60.4925 27.6665C60.1743 27.0407 60.0152 26.2943 60.0152 25.4273C60.0152 24.5576 60.1743 23.8112 60.4925 23.1881C60.8107 22.5623 61.2455 22.0824 61.797 21.7483C62.3512 21.4116 62.9809 21.2432 63.6862 21.2432C64.3889 21.2432 65.016 21.4116 65.5675 21.7483C66.1216 22.0824 66.5578 22.5623 66.876 23.1881C67.1942 23.8112 67.3533 24.5576 67.3533 25.4273ZM66.1362 25.4273C66.1362 24.7644 66.0288 24.2062 65.8141 23.7528C65.6019 23.2968 65.3103 22.9521 64.9391 22.7188C64.5705 22.4828 64.1529 22.3648 63.6862 22.3648C63.2169 22.3648 62.798 22.4828 62.4294 22.7188C62.0608 22.9521 61.7692 23.2968 61.5544 23.7528C61.3423 24.2062 61.2362 24.7644 61.2362 25.4273C61.2362 26.0902 61.3423 26.6496 61.5544 27.1057C61.7692 27.5591 62.0608 27.9038 62.4294 28.1398C62.798 28.3731 63.2169 28.4898 63.6862 28.4898C64.1529 28.4898 64.5705 28.3731 64.9391 28.1398C65.3103 27.9038 65.6019 27.5591 65.8141 27.1057C66.0288 26.6496 66.1362 26.0902 66.1362 25.4273ZM73.5514 21.3545H74.7764V27.1295C74.7764 27.6519 74.673 28.0987 74.4662 28.4699C74.262 28.8411 73.9743 29.1248 73.6031 29.321C73.2319 29.5146 72.7971 29.6114 72.2986 29.6114C71.8399 29.6114 71.4276 29.5278 71.0616 29.3608C70.6984 29.1938 70.4107 28.9511 70.1986 28.633C69.9891 28.3121 69.8844 27.9223 69.8844 27.4636H71.1054C71.1054 27.689 71.1571 27.8839 71.2605 28.0483C71.3666 28.2127 71.5111 28.3413 71.694 28.4341C71.8796 28.5242 72.0918 28.5693 72.3304 28.5693C72.5902 28.5693 72.8103 28.515 72.9906 28.4063C73.1736 28.2949 73.3128 28.1318 73.4082 27.917C73.5037 27.7023 73.5514 27.4398 73.5514 27.1295V21.3545ZM78.0652 29.5V21.3545H83.172V22.4125H79.2942V24.8943H82.9055V25.9483H79.2942V28.442H83.2197V29.5H78.0652ZM93.079 24.0034H91.8381C91.7903 23.7383 91.7015 23.5049 91.5716 23.3034C91.4417 23.1019 91.2826 22.9309 91.0943 22.7903C90.9061 22.6498 90.6953 22.5437 90.4619 22.4722C90.2313 22.4006 89.986 22.3648 89.7261 22.3648C89.2568 22.3648 88.8366 22.4828 88.4653 22.7188C88.0968 22.9547 87.8051 23.3008 87.5903 23.7568C87.3782 24.2129 87.2722 24.7697 87.2722 25.4273C87.2722 26.0902 87.3782 26.6496 87.5903 27.1057C87.8051 27.5617 88.0981 27.9064 88.4693 28.1398C88.8405 28.3731 89.2581 28.4898 89.7222 28.4898C89.9794 28.4898 90.2233 28.4553 90.454 28.3864C90.6873 28.3148 90.8981 28.21 91.0864 28.0722C91.2746 27.9343 91.4337 27.7659 91.5636 27.567C91.6962 27.3655 91.7877 27.1348 91.8381 26.875L93.079 26.879C93.0127 27.2794 92.8841 27.6479 92.6932 27.9847C92.5049 28.3188 92.2623 28.6078 91.9653 28.8517C91.671 29.093 91.3343 29.2799 90.9551 29.4125C90.5759 29.5451 90.1623 29.6114 89.7142 29.6114C89.0089 29.6114 88.3805 29.4443 87.829 29.1102C87.2775 28.7735 86.8426 28.2922 86.5244 27.6665C86.2089 27.0407 86.0511 26.2943 86.0511 25.4273C86.0511 24.5576 86.2102 23.8112 86.5284 23.1881C86.8466 22.5623 87.2814 22.0824 87.833 21.7483C88.3845 21.4116 89.0116 21.2432 89.7142 21.2432C90.1464 21.2432 90.5494 21.3055 90.9233 21.4301C91.2998 21.5521 91.6379 21.7324 91.9375 21.971C92.2371 22.207 92.485 22.496 92.6813 22.8381C92.8775 23.1775 93.01 23.5659 93.079 24.0034ZM95.6479 22.4125V21.3545H101.952V22.4125H99.4104V29.5H98.1854V22.4125H95.6479ZM109.287 23.4943C109.245 23.1178 109.07 22.8261 108.762 22.6193C108.455 22.4098 108.068 22.3051 107.601 22.3051C107.267 22.3051 106.978 22.3581 106.734 22.4642C106.49 22.5676 106.301 22.7108 106.165 22.8938C106.033 23.0741 105.966 23.2795 105.966 23.5102C105.966 23.7038 106.012 23.8708 106.102 24.0114C106.195 24.1519 106.315 24.2699 106.464 24.3653C106.615 24.4581 106.777 24.5364 106.949 24.6C107.121 24.661 107.287 24.7114 107.446 24.7511L108.241 24.958C108.501 25.0216 108.768 25.1078 109.041 25.2165C109.314 25.3252 109.567 25.4684 109.801 25.646C110.034 25.8237 110.222 26.0438 110.365 26.3063C110.511 26.5688 110.584 26.883 110.584 27.2489C110.584 27.7102 110.465 28.1199 110.226 28.4778C109.99 28.8358 109.647 29.1182 109.196 29.325C108.748 29.5318 108.206 29.6352 107.569 29.6352C106.959 29.6352 106.432 29.5384 105.986 29.3449C105.541 29.1513 105.192 28.8769 104.94 28.5216C104.688 28.1636 104.549 27.7394 104.523 27.2489H105.756C105.78 27.5432 105.875 27.7884 106.042 27.9847C106.212 28.1782 106.428 28.3227 106.69 28.4182C106.955 28.511 107.246 28.5574 107.561 28.5574C107.909 28.5574 108.218 28.503 108.488 28.3943C108.761 28.283 108.976 28.1292 109.132 27.933C109.289 27.7341 109.367 27.5021 109.367 27.2369C109.367 26.9956 109.298 26.7981 109.16 26.6443C109.025 26.4905 108.841 26.3633 108.607 26.2625C108.377 26.1617 108.116 26.0729 107.824 25.996L106.861 25.7335C106.209 25.5559 105.692 25.2947 105.31 24.95C104.931 24.6053 104.741 24.1492 104.741 23.5818C104.741 23.1125 104.869 22.7028 105.123 22.3528C105.378 22.0028 105.723 21.7311 106.157 21.5375C106.592 21.3413 107.083 21.2432 107.629 21.2432C108.18 21.2432 108.667 21.34 109.089 21.5335C109.513 21.7271 109.847 21.9936 110.091 22.333C110.335 22.6697 110.462 23.0568 110.473 23.4943H109.287Z" fill="#F2F2F2" fill-opacity="0.4"/>
    <g filter="url(#filter0_d_2019_52)">
        <path d="M20 25C20 22.2386 22.2386 20 25 20V20C27.7614 20 30 22.2386 30 25V25C30 27.7614 27.7614 30 25 30V30C22.2386 30 20 27.7614 20 25V25Z" fill="#F2F2F2"/>
    </g>
    <defs>
        <filter id="filter0_d_2019_52" x="0" y="0" width="50" height="50" filterUnits="userSpaceOnUse" color-interpolation-filters="sRGB">
            <feFlood flood-opacity="0" result="BackgroundImageFix"/>
            <feColorMatrix in="SourceAlpha" type="matrix" values="0 0 0 0 0 0 0 0 0 0 0 0 0 0 0 0 0 0 127 0" result="hardAlpha"/>
            <feOffset/>
            <feGaussianBlur stdDeviation="10"/>
            <feComposite in2="hardAlpha" operator="out"/>
            <feColorMatrix type="matrix" values="0 0 0 0 1 0 0 0 0 1 0 0 0 0 1 0 0 0 1 0"/>
            <feBlend mode="normal" in2="BackgroundImageFix" result="effect1_dropShadow_2019_52"/>
            <feBlend mode="normal" in="SourceGraphic" in2="effect1_dropShadow_2019_52" result="shape"/>
        </filter>
    </defs>
</svg>
