<svg width="94" height="50" viewBox="0 0 94 50" fill="none" xmlns="http://www.w3.org/2000/svg">
    <path d="M47.3375 23.4943C47.2951 23.1178 47.1201 22.8261 46.8125 22.6193C46.5049 22.4098 46.1178 22.3051 45.6511 22.3051C45.317 22.3051 45.028 22.3581 44.7841 22.4642C44.5402 22.5676 44.3506 22.7108 44.2153 22.8938C44.0828 23.0741 44.0165 23.2795 44.0165 23.5102C44.0165 23.7038 44.0616 23.8708 44.1517 24.0114C44.2445 24.1519 44.3652 24.2699 44.5136 24.3653C44.6648 24.4581 44.8265 24.5364 44.9989 24.6C45.1712 24.661 45.3369 24.7114 45.496 24.7511L46.2915 24.958C46.5513 25.0216 46.8178 25.1078 47.0909 25.2165C47.364 25.3252 47.6172 25.4684 47.8506 25.646C48.0839 25.8237 48.2722 26.0438 48.4153 26.3063C48.5612 26.5688 48.6341 26.883 48.6341 27.2489C48.6341 27.7102 48.5148 28.1199 48.2761 28.4778C48.0402 28.8358 47.6968 29.1182 47.246 29.325C46.7979 29.5318 46.2557 29.6352 45.6193 29.6352C45.0095 29.6352 44.4818 29.5384 44.0364 29.3449C43.5909 29.1513 43.2422 28.8769 42.9903 28.5216C42.7384 28.1636 42.5992 27.7394 42.5727 27.2489H43.8057C43.8295 27.5432 43.925 27.7884 44.092 27.9847C44.2617 28.1782 44.4778 28.3227 44.7403 28.4182C45.0055 28.511 45.2958 28.5574 45.6114 28.5574C45.9587 28.5574 46.2676 28.503 46.5381 28.3943C46.8112 28.283 47.0259 28.1292 47.1824 27.933C47.3388 27.7341 47.417 27.5021 47.417 27.2369C47.417 26.9956 47.3481 26.7981 47.2102 26.6443C47.075 26.4905 46.8907 26.3633 46.6574 26.2625C46.4267 26.1617 46.1655 26.0729 45.8739 25.996L44.9114 25.7335C44.2591 25.5559 43.742 25.2947 43.3602 24.95C42.9811 24.6053 42.7915 24.1492 42.7915 23.5818C42.7915 23.1125 42.9188 22.7028 43.1733 22.3528C43.4278 22.0028 43.7725 21.7311 44.2074 21.5375C44.6422 21.3413 45.1328 21.2432 45.679 21.2432C46.2305 21.2432 46.717 21.34 47.1386 21.5335C47.5629 21.7271 47.897 21.9936 48.1409 22.333C48.3848 22.6697 48.5121 23.0568 48.5227 23.4943H47.3375ZM51.201 22.4125V21.3545H57.505V22.4125H54.9635V29.5H53.7385V22.4125H51.201ZM60.1236 29.5H58.819L61.7503 21.3545H63.1702L66.1014 29.5H64.7969L62.494 22.8341H62.4304L60.1236 29.5ZM60.3423 26.3102H64.5741V27.3443H60.3423V26.3102ZM75.1602 24.0034H73.9193C73.8716 23.7383 73.7828 23.5049 73.6528 23.3034C73.5229 23.1019 73.3638 22.9309 73.1756 22.7903C72.9873 22.6498 72.7765 22.5437 72.5432 22.4722C72.3125 22.4006 72.0672 22.3648 71.8074 22.3648C71.3381 22.3648 70.9178 22.4828 70.5466 22.7188C70.178 22.9547 69.8864 23.3008 69.6716 23.7568C69.4595 24.2129 69.3534 24.7697 69.3534 25.4273C69.3534 26.0902 69.4595 26.6496 69.6716 27.1057C69.8864 27.5617 70.1794 27.9064 70.5506 28.1398C70.9218 28.3731 71.3394 28.4898 71.8034 28.4898C72.0606 28.4898 72.3045 28.4553 72.5352 28.3864C72.7686 28.3148 72.9794 28.21 73.1676 28.0722C73.3559 27.9343 73.515 27.7659 73.6449 27.567C73.7775 27.3655 73.8689 27.1348 73.9193 26.875L75.1602 26.879C75.0939 27.2794 74.9653 27.6479 74.7744 27.9847C74.5862 28.3188 74.3436 28.6078 74.0466 28.8517C73.7523 29.093 73.4155 29.2799 73.0364 29.4125C72.6572 29.5451 72.2436 29.6114 71.7955 29.6114C71.0902 29.6114 70.4617 29.4443 69.9102 29.1102C69.3587 28.7735 68.9239 28.2922 68.6057 27.6665C68.2902 27.0407 68.1324 26.2943 68.1324 25.4273C68.1324 24.5576 68.2915 23.8112 68.6097 23.1881C68.9278 22.5623 69.3627 22.0824 69.9142 21.7483C70.4657 21.4116 71.0928 21.2432 71.7955 21.2432C72.2277 21.2432 72.6307 21.3055 73.0045 21.4301C73.3811 21.5521 73.7191 21.7324 74.0187 21.971C74.3184 22.207 74.5663 22.496 74.7625 22.8381C74.9587 23.1775 75.0913 23.5659 75.1602 24.0034ZM78.1308 29.5V21.3545H79.3598V25.2443H79.4592L82.8757 21.3545H84.4229L81.1376 25.0216L84.4348 29.5H82.9553L80.3223 25.8608L79.3598 26.9665V29.5H78.1308ZM91.4891 23.4943C91.4466 23.1178 91.2716 22.8261 90.9641 22.6193C90.6565 22.4098 90.2694 22.3051 89.8027 22.3051C89.4686 22.3051 89.1796 22.3581 88.9357 22.4642C88.6917 22.5676 88.5021 22.7108 88.3669 22.8938C88.2343 23.0741 88.168 23.2795 88.168 23.5102C88.168 23.7038 88.2131 23.8708 88.3033 24.0114C88.3961 24.1519 88.5167 24.2699 88.6652 24.3653C88.8163 24.4581 88.9781 24.5364 89.1504 24.6C89.3228 24.661 89.4885 24.7114 89.6476 24.7511L90.443 24.958C90.7029 25.0216 90.9694 25.1078 91.2425 25.2165C91.5156 25.3252 91.7688 25.4684 92.0021 25.646C92.2355 25.8237 92.4237 26.0438 92.5669 26.3063C92.7127 26.5688 92.7857 26.883 92.7857 27.2489C92.7857 27.7102 92.6663 28.1199 92.4277 28.4778C92.1917 28.8358 91.8483 29.1182 91.3976 29.325C90.9495 29.5318 90.4072 29.6352 89.7709 29.6352C89.161 29.6352 88.6334 29.5384 88.1879 29.3449C87.7425 29.1513 87.3938 28.8769 87.1419 28.5216C86.89 28.1636 86.7508 27.7394 86.7243 27.2489H87.9572C87.9811 27.5432 88.0766 27.7884 88.2436 27.9847C88.4133 28.1782 88.6294 28.3227 88.8919 28.4182C89.1571 28.511 89.4474 28.5574 89.7629 28.5574C90.1103 28.5574 90.4192 28.503 90.6896 28.3943C90.9627 28.283 91.1775 28.1292 91.3339 27.933C91.4904 27.7341 91.5686 27.5021 91.5686 27.2369C91.5686 26.9956 91.4997 26.7981 91.3618 26.6443C91.2266 26.4905 91.0423 26.3633 90.8089 26.2625C90.5783 26.1617 90.3171 26.0729 90.0254 25.996L89.0629 25.7335C88.4107 25.5559 87.8936 25.2947 87.5118 24.95C87.1326 24.6053 86.943 24.1492 86.943 23.5818C86.943 23.1125 87.0703 22.7028 87.3249 22.3528C87.5794 22.0028 87.9241 21.7311 88.3589 21.5375C88.7938 21.3413 89.2843 21.2432 89.8305 21.2432C90.3821 21.2432 90.8686 21.34 91.2902 21.5335C91.7144 21.7271 92.0485 21.9936 92.2925 22.333C92.5364 22.6697 92.6637 23.0568 92.6743 23.4943H91.4891Z" fill="#F2F2F2" fill-opacity="0.4"/>
    <g filter="url(#filter0_d_2019_56)">
        <path d="M20 25C20 22.2386 22.2386 20 25 20V20C27.7614 20 30 22.2386 30 25V25C30 27.7614 27.7614 30 25 30V30C22.2386 30 20 27.7614 20 25V25Z" fill="#F2F2F2"/>
    </g>
    <defs>
        <filter id="filter0_d_2019_56" x="0" y="0" width="50" height="50" filterUnits="userSpaceOnUse" color-interpolation-filters="sRGB">
            <feFlood flood-opacity="0" result="BackgroundImageFix"/>
            <feColorMatrix in="SourceAlpha" type="matrix" values="0 0 0 0 0 0 0 0 0 0 0 0 0 0 0 0 0 0 127 0" result="hardAlpha"/>
            <feOffset/>
            <feGaussianBlur stdDeviation="10"/>
            <feComposite in2="hardAlpha" operator="out"/>
            <feColorMatrix type="matrix" values="0 0 0 0 1 0 0 0 0 1 0 0 0 0 1 0 0 0 1 0"/>
            <feBlend mode="normal" in2="BackgroundImageFix" result="effect1_dropShadow_2019_56"/>
            <feBlend mode="normal" in="SourceGraphic" in2="effect1_dropShadow_2019_56" result="shape"/>
        </filter>
    </defs>
</svg>
