<!--
By
 ███▄ ▄███▓ ▄▄▄       ██▓     ██▓     ▒█████   █     █░
▓██▒▀█▀ ██▒▒████▄    ▓██▒    ▓██▒    ▒██▒  ██▒▓█░ █ ░█░
▓██    ▓██░▒██  ▀█▄  ▒██░    ▒██░    ▒██░  ██▒▒█░ █ ░█ 
▒██    ▒██ ░██▄▄▄▄██ ▒██░    ▒██░    ▒██   ██░░█░ █ ░█ 
▒██▒   ░██▒ ▓█   ▓██▒░██████▒░██████▒░ ████▓▒░░░██▒██▓ 
░ ▒░   ░  ░ ▒▒   ▓▒█░░ ▒░▓  ░░ ▒░▓  ░░ ▒░▒░▒░ ░ ▓░▒ ▒  
░  ░      ░  ▒   ▒▒ ░░ ░ ▒  ░░ ░ ▒  ░  ░ ▒ ▒░   ▒ ░ ░  
░      ░     ░   ▒     ░ ░     ░ ░   ░ ░ ░ ▒    ░   ░  
       ░         ░  ░    ░  ░    ░  ░    ░ ░      ░    
Generated on 8/27/2025
-->
<svg xmlns="http://www.w3.org/2000/svg" width="127.17781250000002" height="50" viewBox="0 0 127.17781250000002 50" fill="none">
  <defs>
    <filter x="0" y="0" width="50" height="50" filterUnits="userSpaceOnUse" color-interpolation-filters="sRGB" id="filter-on2fk34komr">
      <feFlood flood-opacity="0" result="BackgroundImageFix"/>
      <feColorMatrix type="matrix" in="SourceAlpha" values="0 0 0 0 0 0 0 0 0 0 0 0 0 0 0 0 0 0 127 0" result="hardAlpha"/>
      <feOffset/>
      <feGaussianBlur stdDeviation="10"/>
      <feComposite in2="hardAlpha" operator="out"/>
      <feColorMatrix type="matrix" values="0 0 0 0 1 0 0 0 0 1 0 0 0 0 1 0 0 0 1 0"/>
      <feBlend mode="normal" in2="BackgroundImageFix" result="effect1_dropShadow_2021_68"/>
      <feBlend mode="normal" in="SourceGraphic" in2="effect1_dropShadow_2021_68" result="shape"/>
    </filter>
  </defs>
  <g filter="url(#filter-on2fk34komr)" id="msvg-1le9i1zy4nr">
    <path d="M20 25C20 22.2386 22.2386 20 25 20C27.7614 20 30 22.2386 30 25C30 27.7614 27.7614 30 25 30C22.2386 30 20 27.7614 20 25Z" fill="#F2F2F2" id="msvg-uidftjrrv8i"/>
  </g>
  <path d="M6.10 0L0.86 0L0.86-8.15L6.08-8.15L6.08-7.08L2.11-7.08L2.11-4.65L5.79-4.65L5.79-3.59L2.11-3.59L2.11-1.07L6.10-1.07L6.10 0ZM10.08 0L8.66 0L11.90-4.63L11.90-3.70L8.87-8.15L10.30-8.15L11.39-6.54Q11.63-6.18 11.79-5.90Q11.96-5.63 12.11-5.36Q12.25-5.10 12.42-4.78L12.42-4.78L12.16-4.78Q12.33-5.10 12.48-5.36Q12.62-5.62 12.80-5.90Q12.97-6.18 13.21-6.54L13.21-6.54L14.31-8.15L15.71-8.15L12.70-3.76L12.70-4.66L15.90 0L14.45 0L13.12-1.95Q12.90-2.27 12.75-2.52Q12.60-2.76 12.46-2.99Q12.33-3.23 12.16-3.53L12.16-3.53L12.40-3.53Q12.24-3.24 12.10-3.00Q11.97-2.77 11.81-2.52Q11.65-2.27 11.43-1.95L11.43-1.95L10.08 0ZM19.95 0L18.70 0L18.70-8.15L21.64-8.15Q22.57-8.15 23.20-7.81Q23.83-7.47 24.15-6.88Q24.47-6.28 24.47-5.53L24.47-5.53Q24.47-4.77 24.15-4.18Q23.82-3.58 23.19-3.24Q22.56-2.90 21.63-2.90L21.63-2.90L19.55-2.90L19.55-3.96L21.53-3.96Q22.11-3.96 22.49-4.16Q22.86-4.36 23.04-4.71Q23.22-5.07 23.22-5.53L23.22-5.53Q23.22-5.99 23.04-6.34Q22.86-6.69 22.48-6.89Q22.11-7.08 21.52-7.08L21.52-7.08L19.95-7.08L19.95 0ZM32.75 0L27.51 0L27.51-8.15L32.72-8.15L32.72-7.08L28.76-7.08L28.76-4.65L32.44-4.65L32.44-3.59L28.76-3.59L28.76-1.07L32.75-1.07L32.75 0ZM37.16 0L35.91 0L35.91-8.15L38.88-8.15Q39.80-8.15 40.43-7.83Q41.06-7.50 41.38-6.93Q41.70-6.35 41.70-5.59L41.70-5.59Q41.70-4.83 41.38-4.27Q41.05-3.70 40.41-3.39Q39.78-3.08 38.85-3.08L38.85-3.08L36.63-3.08L36.63-4.14L38.76-4.14Q39.35-4.14 39.72-4.31Q40.09-4.48 40.27-4.81Q40.45-5.14 40.45-5.59L40.45-5.59Q40.45-6.05 40.27-6.39Q40.09-6.72 39.72-6.90Q39.34-7.08 38.75-7.08L38.75-7.08L37.16-7.08L37.16 0ZM41.97 0L40.56 0L38.60-3.68L39.97-3.68L41.97 0ZM44.83-8.15L46.07-8.15L46.07 0L44.83 0L44.83-8.15ZM54.72 0L49.48 0L49.48-8.15L54.69-8.15L54.69-7.08L50.73-7.08L50.73-4.65L54.41-4.65L54.41-3.59L50.73-3.59L50.73-1.07L54.72-1.07L54.72 0ZM59.14 0L57.88 0L57.88-8.15L59.31-8.15L62.38-3.28Q62.53-3.06 62.71-2.73Q62.90-2.41 63.11-2.00Q63.32-1.60 63.52-1.15L63.52-1.15L63.37-1.09Q63.34-1.52 63.31-1.97Q63.29-2.42 63.28-2.81Q63.27-3.20 63.27-3.46L63.27-3.46L63.27-8.15L64.52-8.15L64.52 0L63.10 0L60.34-4.35Q60.14-4.68 59.93-5.03Q59.72-5.39 59.46-5.86Q59.20-6.33 58.85-6.98L58.85-6.98L59.04-7.03Q59.07-6.43 59.09-5.91Q59.11-5.39 59.13-4.99Q59.14-4.59 59.14-4.36L59.14-4.36L59.14 0ZM71.34 0.11L71.34 0.11Q70.27 0.11 69.43-0.39Q68.60-0.90 68.12-1.84Q67.65-2.78 67.65-4.07L67.65-4.07Q67.65-5.36 68.12-6.31Q68.60-7.25 69.44-7.75Q70.28-8.26 71.34-8.26L71.34-8.26Q71.99-8.26 72.56-8.07Q73.13-7.89 73.58-7.53Q74.03-7.17 74.32-6.66Q74.62-6.14 74.72-5.49L74.72-5.49L73.47-5.49Q73.39-5.89 73.20-6.19Q73.01-6.50 72.72-6.71Q72.44-6.92 72.10-7.02Q71.75-7.13 71.35-7.13L71.35-7.13Q70.63-7.13 70.07-6.77Q69.51-6.41 69.19-5.73Q68.88-5.04 68.88-4.07L68.88-4.07Q68.88-3.10 69.20-2.41Q69.52-1.73 70.08-1.37Q70.64-1.02 71.35-1.02L71.35-1.02Q71.74-1.02 72.09-1.12Q72.44-1.23 72.72-1.44Q73.00-1.65 73.19-1.95Q73.39-2.26 73.47-2.65L73.47-2.65L74.72-2.65Q74.63-2.04 74.34-1.53Q74.05-1.03 73.61-0.66Q73.16-0.28 72.59-0.08Q72.02 0.11 71.34 0.11ZM83.04 0L77.80 0L77.80-8.15L83.01-8.15L83.01-7.08L79.05-7.08L79.05-4.65L82.73-4.65L82.73-3.59L79.05-3.59L79.05-1.07L83.04-1.07L83.04 0Z" fill="#F2F2F2" opacity="0.4" id="msvg-0yh0k13dtkyb" style="transform: translate(42px, 29.599999999999998px)"/>
</svg>
