<!--
By
 ███▄ ▄███▓ ▄▄▄       ██▓     ██▓     ▒█████   █     █░
▓██▒▀█▀ ██▒▒████▄    ▓██▒    ▓██▒    ▒██▒  ██▒▓█░ █ ░█░
▓██    ▓██░▒██  ▀█▄  ▒██░    ▒██░    ▒██░  ██▒▒█░ █ ░█ 
▒██    ▒██ ░██▄▄▄▄██ ▒██░    ▒██░    ▒██   ██░░█░ █ ░█ 
▒██▒   ░██▒ ▓█   ▓██▒░██████▒░██████▒░ ████▓▒░░░██▒██▓ 
░ ▒░   ░  ░ ▒▒   ▓▒█░░ ▒░▓  ░░ ▒░▓  ░░ ▒░▒░▒░ ░ ▓░▒ ▒  
░  ░      ░  ▒   ▒▒ ░░ ░ ▒  ░░ ░ ▒  ░  ░ ▒ ▒░   ▒ ░ ░  
░      ░     ░   ▒     ░ ░     ░ ░   ░ ░ ░ ▒    ░   ░  
       ░         ░  ░    ░  ░    ░  ░    ░ ░      ░    
Generated on 8/27/2025
-->
<svg xmlns="http://www.w3.org/2000/svg" width="100.70578125" height="50" viewBox="0 0 100.70578125 50" fill="none">
  <defs>
    <filter x="0" y="0" width="50" height="50" filterUnits="userSpaceOnUse" color-interpolation-filters="sRGB" id="filter-d8p7ip46ft9">
      <feFlood flood-opacity="0" result="BackgroundImageFix"/>
      <feColorMatrix type="matrix" in="SourceAlpha" values="0 0 0 0 0 0 0 0 0 0 0 0 0 0 0 0 0 0 127 0" result="hardAlpha"/>
      <feOffset/>
      <feGaussianBlur stdDeviation="10"/>
      <feComposite in2="hardAlpha" operator="out"/>
      <feColorMatrix type="matrix" values="0 0 0 0 1 0 0 0 0 1 0 0 0 0 1 0 0 0 1 0"/>
      <feBlend mode="normal" in2="BackgroundImageFix" result="effect1_dropShadow_2021_68"/>
      <feBlend mode="normal" in="SourceGraphic" in2="effect1_dropShadow_2021_68" result="shape"/>
    </filter>
  </defs>
  <g filter="url(#filter-d8p7ip46ft9)" id="msvg-blvzol2zja5">
    <path d="M20 25C20 22.2386 22.2386 20 25 20C27.7614 20 30 22.2386 30 25C30 27.7614 27.7614 30 25 30C22.2386 30 20 27.7614 20 25Z" fill="#F2F2F2" id="msvg-8nnsegu7d5"/>
  </g>
  <path d="M2.11 0L0.86 0L0.86-8.15L5.99-8.15L5.99-7.08L2.11-7.08L2.11-4.50L5.63-4.50L5.63-3.43L2.11-3.43L2.11 0ZM10.33 0L9.08 0L9.08-8.15L12.04-8.15Q12.97-8.15 13.60-7.83Q14.23-7.50 14.55-6.93Q14.87-6.35 14.87-5.59L14.87-5.59Q14.87-4.83 14.54-4.27Q14.21-3.70 13.58-3.39Q12.95-3.08 12.02-3.08L12.02-3.08L9.80-3.08L9.80-4.14L11.93-4.14Q12.51-4.14 12.89-4.31Q13.26-4.48 13.44-4.81Q13.62-5.14 13.62-5.59L13.62-5.59Q13.62-6.05 13.44-6.39Q13.26-6.72 12.88-6.90Q12.51-7.08 11.92-7.08L11.92-7.08L10.33-7.08L10.33 0ZM15.14 0L13.73 0L11.76-3.68L13.14-3.68L15.14 0ZM17.99-8.15L19.24-8.15L19.24 0L17.99 0L17.99-8.15ZM27.89 0L22.65 0L22.65-8.15L27.86-8.15L27.86-7.08L23.90-7.08L23.90-4.65L27.58-4.65L27.58-3.59L23.90-3.59L23.90-1.07L27.89-1.07L27.89 0ZM32.31 0L31.05 0L31.05-8.15L32.47-8.15L35.55-3.28Q35.69-3.06 35.88-2.73Q36.07-2.41 36.28-2.00Q36.49-1.60 36.69-1.15L36.69-1.15L36.54-1.09Q36.50-1.52 36.48-1.97Q36.45-2.42 36.45-2.81Q36.44-3.20 36.44-3.46L36.44-3.46L36.44-8.15L37.69-8.15L37.69 0L36.26 0L33.51-4.35Q33.31-4.68 33.10-5.03Q32.89-5.39 32.63-5.86Q32.37-6.33 32.01-6.98L32.01-6.98L32.20-7.03Q32.24-6.43 32.26-5.91Q32.28-5.39 32.29-4.99Q32.31-4.59 32.31-4.36L32.31-4.36L32.31 0ZM43.74 0L43.74 0L41.73 0L41.73-1.08L43.68-1.08Q44.61-1.08 45.22-1.43Q45.84-1.78 46.14-2.46Q46.45-3.13 46.45-4.09L46.45-4.09Q46.45-5.04 46.14-5.71Q45.84-6.37 45.24-6.72Q44.64-7.07 43.75-7.07L43.75-7.07L41.69-7.07L41.69-8.15L43.83-8.15Q45.03-8.15 45.89-7.66Q46.75-7.17 47.21-6.26Q47.67-5.35 47.67-4.09L47.67-4.09Q47.67-2.82 47.21-1.90Q46.74-0.98 45.87-0.49Q44.99 0 43.74 0ZM41.10-8.15L42.34-8.15L42.34 0L41.10 0L41.10-8.15ZM53.55 0.13L53.55 0.13Q52.62 0.13 51.94-0.17Q51.26-0.46 50.88-1.02Q50.50-1.58 50.47-2.35L50.47-2.35L51.71-2.35Q51.74-1.89 51.99-1.57Q52.23-1.26 52.64-1.10Q53.04-0.95 53.54-0.95L53.54-0.95Q54.07-0.95 54.47-1.11Q54.88-1.27 55.11-1.57Q55.34-1.86 55.34-2.26L55.34-2.26Q55.34-2.61 55.15-2.84Q54.96-3.06 54.61-3.22Q54.26-3.37 53.80-3.49L53.80-3.49L52.85-3.74Q51.80-4.02 51.24-4.54Q50.68-5.07 50.68-5.91L50.68-5.91Q50.68-6.62 51.05-7.15Q51.43-7.68 52.08-7.97Q52.74-8.26 53.57-8.26L53.57-8.26Q54.42-8.26 55.05-7.97Q55.69-7.67 56.06-7.14Q56.42-6.62 56.44-5.94L56.44-5.94L55.23-5.94Q55.18-6.53 54.72-6.86Q54.26-7.19 53.55-7.19L53.55-7.19Q53.05-7.19 52.69-7.03Q52.32-6.87 52.12-6.60Q51.92-6.33 51.92-5.98L51.92-5.98Q51.92-5.61 52.13-5.38Q52.35-5.14 52.70-5.00Q53.04-4.86 53.40-4.76L53.40-4.76L54.21-4.55Q54.65-4.44 55.07-4.27Q55.49-4.09 55.83-3.82Q56.17-3.55 56.37-3.17Q56.57-2.79 56.57-2.26L56.57-2.26Q56.57-1.56 56.21-1.02Q55.85-0.48 55.18-0.17Q54.50 0.13 53.55 0.13Z" fill="#F2F2F2" opacity="0.4" id="msvg-q972l5akv0d" style="transform: translate(42px, 29.599999999999998px)"/>
</svg>
