<!--
By
 ███▄ ▄███▓ ▄▄▄       ██▓     ██▓     ▒█████   █     █░
▓██▒▀█▀ ██▒▒████▄    ▓██▒    ▓██▒    ▒██▒  ██▒▓█░ █ ░█░
▓██    ▓██░▒██  ▀█▄  ▒██░    ▒██░    ▒██░  ██▒▒█░ █ ░█ 
▒██    ▒██ ░██▄▄▄▄██ ▒██░    ▒██░    ▒██   ██░░█░ █ ░█ 
▒██▒   ░██▒ ▓█   ▓██▒░██████▒░██████▒░ ████▓▒░░░██▒██▓ 
░ ▒░   ░  ░ ▒▒   ▓▒█░░ ▒░▓  ░░ ▒░▓  ░░ ▒░▒░▒░ ░ ▓░▒ ▒  
░  ░      ░  ▒   ▒▒ ░░ ░ ▒  ░░ ░ ▒  ░  ░ ▒ ▒░   ▒ ░ ░  
░      ░     ░   ▒     ░ ░     ░ ░   ░ ░ ░ ▒    ░   ░  
       ░         ░  ░    ░  ░    ░  ░    ░ ░      ░    
Generated on 27/08/2025
-->
<svg xmlns="http://www.w3.org/2000/svg" width="113.95765624999999" height="50" viewBox="0 0 113.95765624999999 50" fill="none">
  <defs>
    <filter x="0" y="0" width="50" height="50" filterUnits="userSpaceOnUse" color-interpolation-filters="sRGB" id="filter-3k8ctzdshnh">
      <feFlood flood-opacity="0" result="BackgroundImageFix"/>
      <feColorMatrix type="matrix" in="SourceAlpha" values="0 0 0 0 0 0 0 0 0 0 0 0 0 0 0 0 0 0 127 0" result="hardAlpha"/>
      <feOffset/>
      <feGaussianBlur stdDeviation="10"/>
      <feComposite in2="hardAlpha" operator="out"/>
      <feColorMatrix type="matrix" values="0 0 0 0 1 0 0 0 0 1 0 0 0 0 1 0 0 0 1 0"/>
      <feBlend mode="normal" in2="BackgroundImageFix" result="effect1_dropShadow_2021_68"/>
      <feBlend mode="normal" in="SourceGraphic" in2="effect1_dropShadow_2021_68" result="shape"/>
    </filter>
  </defs>
  <g filter="url(#filter-3k8ctzdshnh)" id="msvg-d6eyf3ricv8">
    <path d="M20 25C20 22.2386 22.2386 20 25 20C27.7614 20 30 22.2386 30 25C30 27.7614 27.7614 30 25 30C22.2386 30 20 27.7614 20 25Z" fill="#F2F2F2" id="msvg-73c3bod0dco"/>
  </g>
  <path d="M2.11 0L0.86 0L0.86-8.15L3.81-8.15Q4.74-8.15 5.36-7.81Q5.99-7.47 6.31-6.88Q6.63-6.28 6.63-5.53L6.63-5.53Q6.63-4.77 6.31-4.18Q5.99-3.58 5.36-3.24Q4.72-2.90 3.79-2.90L3.79-2.90L1.72-2.90L1.72-3.96L3.69-3.96Q4.28-3.96 4.65-4.16Q5.03-4.36 5.21-4.71Q5.39-5.07 5.39-5.53L5.39-5.53Q5.39-5.99 5.21-6.34Q5.03-6.69 4.65-6.89Q4.27-7.08 3.69-7.08L3.69-7.08L2.11-7.08L2.11 0ZM10.92 0L9.68 0L9.68-8.15L12.64-8.15Q13.56-8.15 14.20-7.83Q14.83-7.50 15.15-6.93Q15.47-6.35 15.47-5.59L15.47-5.59Q15.47-4.83 15.14-4.27Q14.81-3.70 14.18-3.39Q13.54-3.08 12.61-3.08L12.61-3.08L10.39-3.08L10.39-4.14L12.52-4.14Q13.11-4.14 13.48-4.31Q13.85-4.48 14.03-4.81Q14.21-5.14 14.21-5.59L14.21-5.59Q14.21-6.05 14.03-6.39Q13.85-6.72 13.48-6.90Q13.10-7.08 12.51-7.08L12.51-7.08L10.92-7.08L10.92 0ZM15.73 0L14.32 0L12.36-3.68L13.73-3.68L15.73 0ZM22.00 0.11L22.00 0.11Q20.94 0.11 20.10-0.39Q19.27-0.90 18.79-1.84Q18.31-2.78 18.31-4.07L18.31-4.07Q18.31-5.36 18.79-6.31Q19.27-7.25 20.10-7.75Q20.94-8.26 22.00-8.26L22.00-8.26Q23.06-8.26 23.90-7.75Q24.73-7.25 25.21-6.31Q25.69-5.36 25.69-4.07L25.69-4.07Q25.69-2.78 25.21-1.84Q24.73-0.90 23.90-0.39Q23.06 0.11 22.00 0.11ZM22.00-1.02L22.00-1.02Q22.70-1.02 23.25-1.37Q23.81-1.72 24.13-2.40Q24.45-3.08 24.45-4.07L24.45-4.07Q24.45-5.06 24.13-5.75Q23.81-6.43 23.25-6.78Q22.70-7.13 22.00-7.13L22.00-7.13Q21.30-7.13 20.75-6.78Q20.19-6.43 19.86-5.74Q19.54-5.06 19.54-4.07L19.54-4.07Q19.54-3.08 19.86-2.40Q20.19-1.72 20.75-1.37Q21.30-1.02 22.00-1.02ZM30.93 0.11L30.93 0.11Q29.80 0.11 29.11-0.53Q28.41-1.18 28.41-2.37L28.41-2.37L28.41-2.82L29.65-2.82L29.65-2.36Q29.65-1.67 30.00-1.31Q30.35-0.95 30.93-0.95L30.93-0.95Q31.51-0.95 31.87-1.31Q32.22-1.67 32.22-2.36L32.22-2.36L32.22-8.15L33.46-8.15L33.46-2.37Q33.46-1.18 32.76-0.53Q32.07 0.11 30.93 0.11ZM42.10 0L36.86 0L36.86-8.15L42.07-8.15L42.07-7.08L38.11-7.08L38.11-4.65L41.79-4.65L41.79-3.59L38.11-3.59L38.11-1.07L42.10-1.07L42.10 0ZM48.67 0.11L48.67 0.11Q47.60 0.11 46.76-0.39Q45.93-0.90 45.45-1.84Q44.97-2.78 44.97-4.07L44.97-4.07Q44.97-5.36 45.45-6.31Q45.93-7.25 46.77-7.75Q47.61-8.26 48.67-8.26L48.67-8.26Q49.32-8.26 49.89-8.07Q50.46-7.89 50.91-7.53Q51.36-7.17 51.65-6.66Q51.95-6.14 52.05-5.49L52.05-5.49L50.80-5.49Q50.72-5.89 50.53-6.19Q50.33-6.50 50.05-6.71Q49.77-6.92 49.42-7.02Q49.08-7.13 48.68-7.13L48.68-7.13Q47.96-7.13 47.40-6.77Q46.84-6.41 46.52-5.73Q46.21-5.04 46.21-4.07L46.21-4.07Q46.21-3.10 46.53-2.41Q46.85-1.73 47.41-1.37Q47.97-1.02 48.68-1.02L48.68-1.02Q49.07-1.02 49.42-1.12Q49.77-1.23 50.05-1.44Q50.33-1.65 50.52-1.95Q50.72-2.26 50.80-2.65L50.80-2.65L52.05-2.65Q51.96-2.04 51.67-1.53Q51.38-1.03 50.94-0.66Q50.49-0.28 49.92-0.08Q49.34 0.11 48.67 0.11ZM57.26-7.08L54.71-7.08L54.71-8.15L61.05-8.15L61.05-7.08L58.51-7.08L58.51 0L57.26 0L57.26-7.08ZM66.80 0.13L66.80 0.13Q65.87 0.13 65.19-0.17Q64.51-0.46 64.13-1.02Q63.75-1.58 63.72-2.35L63.72-2.35L64.96-2.35Q64.99-1.89 65.24-1.57Q65.48-1.26 65.89-1.10Q66.29-0.95 66.79-0.95L66.79-0.95Q67.32-0.95 67.72-1.11Q68.13-1.27 68.36-1.57Q68.60-1.86 68.60-2.26L68.60-2.26Q68.60-2.61 68.40-2.84Q68.21-3.06 67.86-3.22Q67.51-3.37 67.05-3.49L67.05-3.49L66.10-3.74Q65.05-4.02 64.49-4.54Q63.93-5.07 63.93-5.91L63.93-5.91Q63.93-6.62 64.31-7.15Q64.68-7.68 65.33-7.97Q65.99-8.26 66.82-8.26L66.82-8.26Q67.67-8.26 68.31-7.97Q68.95-7.67 69.31-7.14Q69.67-6.62 69.69-5.94L69.69-5.94L68.48-5.94Q68.43-6.53 67.97-6.86Q67.51-7.19 66.80-7.19L66.80-7.19Q66.31-7.19 65.94-7.03Q65.57-6.87 65.37-6.60Q65.17-6.33 65.17-5.98L65.17-5.98Q65.17-5.61 65.39-5.38Q65.61-5.14 65.95-5.00Q66.29-4.86 66.66-4.76L66.66-4.76L67.46-4.55Q67.90-4.44 68.32-4.27Q68.74-4.09 69.08-3.82Q69.42-3.55 69.62-3.17Q69.82-2.79 69.82-2.26L69.82-2.26Q69.82-1.56 69.46-1.02Q69.11-0.48 68.43-0.17Q67.75 0.13 66.80 0.13Z" fill="#F2F2F2" opacity="0.4" id="msvg-s6stakeyi4" style="transform: translate(42px, 29.599999999999998px)"/>
</svg>
