<!--
By
 ███▄ ▄███▓ ▄▄▄       ██▓     ██▓     ▒█████   █     █░
▓██▒▀█▀ ██▒▒████▄    ▓██▒    ▓██▒    ▒██▒  ██▒▓█░ █ ░█░
▓██    ▓██░▒██  ▀█▄  ▒██░    ▒██░    ▒██░  ██▒▒█░ █ ░█ 
▒██    ▒██ ░██▄▄▄▄██ ▒██░    ▒██░    ▒██   ██░░█░ █ ░█ 
▒██▒   ░██▒ ▓█   ▓██▒░██████▒░██████▒░ ████▓▒░░░██▒██▓ 
░ ▒░   ░  ░ ▒▒   ▓▒█░░ ▒░▓  ░░ ▒░▓  ░░ ▒░▒░▒░ ░ ▓░▒ ▒  
░  ░      ░  ▒   ▒▒ ░░ ░ ▒  ░░ ░ ▒  ░  ░ ▒ ▒░   ▒ ░ ░  
░      ░     ░   ▒     ░ ░     ░ ░   ░ ░ ░ ▒    ░   ░  
       ░         ░  ░    ░  ░    ░  ░    ░ ░      ░    
Generated on 8/27/2025
-->
<svg xmlns="http://www.w3.org/2000/svg" width="245" height="20" viewBox="0 0 245 20" fill="none">
  <path d="M5.25 0L0.95 0L0.95-7.49L1.65-7.49L1.65-0.63L5.25-0.63L5.25 0ZM8.24 0.12L8.24 0.12Q7.73 0.12 7.31-0.08Q6.89-0.27 6.65-0.64Q6.40-1.02 6.40-1.55L6.40-1.55Q6.40-1.97 6.56-2.25Q6.71-2.53 7.00-2.71Q7.29-2.89 7.69-3.00Q8.08-3.10 8.56-3.16L8.56-3.16Q9.03-3.22 9.35-3.27Q9.68-3.31 9.84-3.41Q10.01-3.51 10.01-3.71L10.01-3.71L10.01-3.83Q10.01-4.20 9.86-4.47Q9.70-4.74 9.41-4.88Q9.11-5.03 8.69-5.03L8.69-5.03Q8.29-5.03 7.98-4.90Q7.68-4.77 7.48-4.56Q7.29-4.36 7.21-4.10L7.21-4.10L6.55-4.27Q6.70-4.74 7.02-5.04Q7.34-5.34 7.78-5.48Q8.21-5.63 8.68-5.63L8.68-5.63Q9.03-5.63 9.39-5.54Q9.75-5.44 10.04-5.23Q10.33-5.01 10.51-4.66Q10.69-4.31 10.69-3.79L10.69-3.79L10.69 0L10.02 0L10.02-0.89L9.98-0.89Q9.86-0.63 9.63-0.40Q9.40-0.17 9.06-0.03Q8.71 0.12 8.24 0.12ZM8.34-0.49L8.34-0.49Q8.86-0.49 9.24-0.71Q9.61-0.93 9.81-1.31Q10.01-1.68 10.01-2.14L10.01-2.14L10.01-2.93Q9.94-2.86 9.78-2.81Q9.62-2.75 9.40-2.71Q9.19-2.67 8.97-2.64Q8.75-2.61 8.55-2.58L8.55-2.58Q8.09-2.52 7.76-2.40Q7.43-2.28 7.25-2.07Q7.08-1.86 7.08-1.52L7.08-1.52Q7.08-1.20 7.24-0.97Q7.41-0.73 7.69-0.61Q7.98-0.49 8.34-0.49ZM14.31 0.12L14.31 0.12Q13.75 0.12 13.32-0.06Q12.88-0.23 12.61-0.57Q12.34-0.91 12.25-1.39L12.25-1.39L12.90-1.51Q13.01-1.00 13.36-0.74Q13.72-0.48 14.30-0.48L14.30-0.48Q14.93-0.48 15.31-0.77Q15.69-1.05 15.69-1.48L15.69-1.48Q15.69-1.82 15.46-2.04Q15.23-2.26 14.78-2.36L14.78-2.36L13.87-2.58Q13.15-2.76 12.78-3.13Q12.42-3.50 12.42-4.06L12.42-4.06Q12.42-4.53 12.67-4.88Q12.92-5.24 13.36-5.43Q13.81-5.63 14.37-5.63L14.37-5.63Q14.91-5.63 15.30-5.46Q15.69-5.29 15.94-4.98Q16.19-4.66 16.29-4.23L16.29-4.23L15.67-4.10Q15.56-4.52 15.25-4.78Q14.94-5.05 14.37-5.05L14.37-5.05Q13.82-5.05 13.46-4.78Q13.10-4.51 13.10-4.09L13.10-4.09Q13.10-3.74 13.34-3.52Q13.59-3.29 14.09-3.17L14.09-3.17L14.96-2.97Q15.68-2.80 16.03-2.43Q16.39-2.07 16.39-1.51L16.39-1.51Q16.39-1.03 16.12-0.66Q15.86-0.30 15.39-0.09Q14.92 0.12 14.31 0.12ZM17.19-5.55L19.87-5.55L19.87-4.96L17.19-4.96L17.19-5.55ZM18.04-1.25L18.04-6.92L18.72-6.92L18.72-1.30Q18.72-0.90 18.90-0.71Q19.08-0.53 19.45-0.56L19.45-0.56Q19.53-0.56 19.64-0.58Q19.74-0.59 19.83-0.60L19.83-0.60L19.95-0.02Q19.83 0.01 19.70 0.03Q19.56 0.04 19.43 0.05L19.43 0.05Q18.77 0.08 18.41-0.27Q18.04-0.61 18.04-1.25L18.04-1.25ZM26.11 0.08L26.11 0.08Q25.55 0.08 25.11-0.16Q24.67-0.40 24.43-0.86Q24.18-1.32 24.18-1.98L24.18-1.98L24.18-5.55L24.85-5.55L24.85-2.03Q24.85-1.33 25.24-0.94Q25.63-0.54 26.28-0.54L26.28-0.54Q26.71-0.54 27.07-0.72Q27.42-0.91 27.62-1.26Q27.83-1.62 27.83-2.11L27.83-2.11L27.83-5.55L28.50-5.55L28.50 0L27.85 0L27.85-1.30L27.97-1.30Q27.73-0.57 27.24-0.24Q26.74 0.08 26.11 0.08ZM31.01 2.10L30.34 2.10L30.34-5.55L30.99-5.55L30.99-4.49L31.05-4.49Q31.17-4.77 31.39-5.03Q31.61-5.29 31.96-5.46Q32.30-5.63 32.79-5.63L32.79-5.63Q33.48-5.63 34.00-5.27Q34.52-4.91 34.81-4.27Q35.10-3.62 35.10-2.77L35.10-2.77Q35.10-1.90 34.81-1.25Q34.52-0.61 34.00-0.25Q33.48 0.12 32.79 0.12L32.79 0.12Q32.31 0.12 31.97-0.06Q31.62-0.23 31.40-0.50Q31.18-0.76 31.05-1.04L31.05-1.04L31.01-1.04L31.01 2.10ZM32.70-0.50L32.70-0.50Q33.25-0.50 33.63-0.79Q34.01-1.09 34.22-1.60Q34.42-2.12 34.42-2.77L34.42-2.77Q34.42-3.42 34.22-3.93Q34.02-4.44 33.63-4.73Q33.25-5.02 32.70-5.02L32.70-5.02Q32.17-5.02 31.78-4.74Q31.40-4.45 31.20-3.94Q30.99-3.44 30.99-2.77L30.99-2.77Q30.99-2.10 31.20-1.59Q31.40-1.08 31.78-0.79Q32.17-0.50 32.70-0.50ZM38.65 0.12L38.65 0.12Q37.97 0.12 37.45-0.25Q36.93-0.61 36.64-1.25Q36.35-1.90 36.35-2.77L36.35-2.77Q36.35-3.62 36.64-4.27Q36.93-4.91 37.45-5.27Q37.97-5.63 38.66-5.63L38.66-5.63Q39.15-5.63 39.49-5.46Q39.84-5.29 40.06-5.03Q40.28-4.77 40.39-4.49L40.39-4.49L40.44-4.49L40.44-7.49L41.11-7.49L41.11 0L40.46 0L40.46-1.04L40.40-1.04Q40.28-0.76 40.05-0.50Q39.83-0.23 39.48-0.06Q39.14 0.12 38.65 0.12ZM38.74-0.50L38.74-0.50Q39.28-0.50 39.67-0.79Q40.05-1.08 40.26-1.59Q40.46-2.10 40.46-2.77L40.46-2.77Q40.46-3.44 40.26-3.94Q40.05-4.45 39.67-4.74Q39.29-5.02 38.74-5.02L38.74-5.02Q38.20-5.02 37.82-4.73Q37.44-4.44 37.23-3.93Q37.03-3.42 37.03-2.77L37.03-2.77Q37.03-2.12 37.23-1.60Q37.44-1.09 37.82-0.79Q38.21-0.50 38.74-0.50ZM44.44 0.12L44.44 0.12Q43.93 0.12 43.51-0.08Q43.09-0.27 42.85-0.64Q42.60-1.02 42.60-1.55L42.60-1.55Q42.60-1.97 42.75-2.25Q42.91-2.53 43.20-2.71Q43.49-2.89 43.89-3.00Q44.28-3.10 44.76-3.16L44.76-3.16Q45.23-3.22 45.55-3.27Q45.88-3.31 46.04-3.41Q46.21-3.51 46.21-3.71L46.21-3.71L46.21-3.83Q46.21-4.20 46.06-4.47Q45.90-4.74 45.61-4.88Q45.31-5.03 44.89-5.03L44.89-5.03Q44.49-5.03 44.18-4.90Q43.88-4.77 43.68-4.56Q43.49-4.36 43.41-4.10L43.41-4.10L42.75-4.27Q42.90-4.74 43.22-5.04Q43.54-5.34 43.97-5.48Q44.41-5.63 44.88-5.63L44.88-5.63Q45.23-5.63 45.59-5.54Q45.95-5.44 46.24-5.23Q46.53-5.01 46.71-4.66Q46.89-4.31 46.89-3.79L46.89-3.79L46.89 0L46.22 0L46.22-0.89L46.18-0.89Q46.06-0.63 45.83-0.40Q45.60-0.17 45.25-0.03Q44.91 0.12 44.44 0.12ZM44.54-0.49L44.54-0.49Q45.06-0.49 45.44-0.71Q45.81-0.93 46.01-1.31Q46.21-1.68 46.21-2.14L46.21-2.14L46.21-2.93Q46.14-2.86 45.98-2.81Q45.82-2.75 45.60-2.71Q45.39-2.67 45.17-2.64Q44.95-2.61 44.75-2.58L44.75-2.58Q44.29-2.52 43.96-2.40Q43.63-2.28 43.45-2.07Q43.28-1.86 43.28-1.52L43.28-1.52Q43.28-1.20 43.44-0.97Q43.61-0.73 43.89-0.61Q44.18-0.49 44.54-0.49ZM47.98-5.55L50.66-5.55L50.66-4.96L47.98-4.96L47.98-5.55ZM48.84-1.25L48.84-6.92L49.51-6.92L49.51-1.30Q49.51-0.90 49.69-0.71Q49.87-0.53 50.24-0.56L50.24-0.56Q50.32-0.56 50.43-0.58Q50.54-0.59 50.63-0.60L50.63-0.60L50.74-0.02Q50.63 0.01 50.49 0.03Q50.36 0.04 50.23 0.05L50.23 0.05Q49.57 0.08 49.20-0.27Q48.84-0.61 48.84-1.25L48.84-1.25ZM54.21 0.12L54.21 0.12Q53.43 0.12 52.86-0.25Q52.29-0.61 51.98-1.26Q51.67-1.91 51.67-2.75L51.67-2.75Q51.67-3.59 51.98-4.24Q52.29-4.89 52.84-5.26Q53.39-5.63 54.11-5.63L54.11-5.63Q54.60-5.63 55.03-5.46Q55.46-5.29 55.79-4.94Q56.12-4.59 56.32-4.07Q56.51-3.55 56.51-2.85L56.51-2.85L56.51-2.58L52.10-2.58L52.10-3.16L56.14-3.16L55.83-2.95Q55.83-3.55 55.62-4.02Q55.42-4.49 55.03-4.76Q54.65-5.03 54.11-5.03L54.11-5.03Q53.59-5.03 53.19-4.75Q52.79-4.48 52.57-4.02Q52.35-3.56 52.35-2.99L52.35-2.99L52.35-2.67Q52.35-2.01 52.57-1.52Q52.80-1.04 53.22-0.76Q53.64-0.49 54.21-0.49L54.21-0.49Q54.61-0.49 54.91-0.62Q55.21-0.74 55.42-0.96Q55.63-1.18 55.73-1.45L55.73-1.45L56.38-1.29Q56.26-0.91 55.96-0.58Q55.66-0.26 55.22-0.07Q54.77 0.12 54.21 0.12ZM60.03 0.12L60.03 0.12Q59.35 0.12 58.83-0.25Q58.31-0.61 58.02-1.25Q57.72-1.90 57.72-2.77L57.72-2.77Q57.72-3.62 58.02-4.27Q58.31-4.91 58.83-5.27Q59.35-5.63 60.04-5.63L60.04-5.63Q60.53-5.63 60.87-5.46Q61.21-5.29 61.44-5.03Q61.66-4.77 61.77-4.49L61.77-4.49L61.82-4.49L61.82-7.49L62.49-7.49L62.49 0L61.84 0L61.84-1.04L61.78-1.04Q61.66-0.76 61.43-0.50Q61.20-0.23 60.86-0.06Q60.52 0.12 60.03 0.12ZM60.12-0.50L60.12-0.50Q60.66-0.50 61.05-0.79Q61.43-1.08 61.63-1.59Q61.84-2.10 61.84-2.77L61.84-2.77Q61.84-3.44 61.63-3.94Q61.43-4.45 61.05-4.74Q60.67-5.02 60.12-5.02L60.12-5.02Q59.58-5.02 59.20-4.73Q58.82-4.44 58.61-3.93Q58.41-3.42 58.41-2.77L58.41-2.77Q58.41-2.12 58.61-1.60Q58.82-1.09 59.20-0.79Q59.58-0.50 60.12-0.50ZM69.79 0.12L69.79 0.12Q69.31 0.12 68.97-0.06Q68.62-0.23 68.40-0.50Q68.17-0.76 68.05-1.04L68.05-1.04L67.99-1.04L67.99 0L67.33 0L67.33-7.49L68.01-7.49L68.01-4.49L68.05-4.49Q68.17-4.77 68.40-5.03Q68.62-5.29 68.96-5.46Q69.30-5.63 69.79-5.63L69.79-5.63Q70.48-5.63 71.00-5.27Q71.52-4.91 71.81-4.27Q72.10-3.62 72.10-2.77L72.10-2.77Q72.10-1.90 71.81-1.25Q71.52-0.61 71.00-0.25Q70.48 0.12 69.79 0.12ZM69.70-0.50L69.70-0.50Q70.25-0.50 70.63-0.79Q71.01-1.09 71.21-1.60Q71.42-2.12 71.42-2.77L71.42-2.77Q71.42-3.42 71.22-3.93Q71.02-4.44 70.63-4.73Q70.25-5.02 69.70-5.02L69.70-5.02Q69.17-5.02 68.78-4.74Q68.40-4.45 68.19-3.94Q67.99-3.44 67.99-2.77L67.99-2.77Q67.99-2.10 68.19-1.59Q68.40-1.08 68.78-0.79Q69.17-0.50 69.70-0.50ZM73.51 2.04L73.51 2.04L73.65 1.45L73.83 1.47Q74.10 1.54 74.33 1.50Q74.55 1.45 74.72 1.26Q74.90 1.06 75.03 0.69L75.03 0.69L75.28 0.03L73.13-5.55L73.87-5.55L75.15-2.08Q75.33-1.62 75.47-1.17Q75.60-0.71 75.74-0.27L75.74-0.27L75.52-0.27Q75.66-0.71 75.80-1.17Q75.93-1.62 76.11-2.08L76.11-2.08L77.40-5.55L78.13-5.55L75.63 0.94Q75.47 1.34 75.26 1.61Q75.04 1.88 74.76 2.00Q74.48 2.13 74.12 2.13L74.12 2.13Q73.93 2.13 73.77 2.10Q73.62 2.08 73.51 2.04ZM83.27 0L82.59 0L82.59-7.49L83.58-7.49L85.69-2.34Q85.76-2.17 85.84-1.95Q85.92-1.73 86.01-1.48Q86.09-1.23 86.17-0.99Q86.25-0.74 86.32-0.54L86.32-0.54L86.14-0.54Q86.21-0.74 86.29-0.98Q86.37-1.22 86.46-1.47Q86.55-1.71 86.63-1.94Q86.71-2.17 86.78-2.34L86.78-2.34L88.86-7.49L89.86-7.49L89.86 0L89.16 0L89.16-4.77Q89.16-4.99 89.16-5.25Q89.17-5.52 89.17-5.80Q89.18-6.08 89.18-6.37Q89.19-6.65 89.19-6.93L89.19-6.93L89.28-6.93Q89.17-6.63 89.06-6.32Q88.95-6.02 88.85-5.73Q88.75-5.45 88.66-5.20Q88.56-4.95 88.49-4.77L88.49-4.77L86.53 0L85.92 0L83.95-4.77Q83.87-4.95 83.78-5.20Q83.69-5.44 83.58-5.72Q83.48-6.00 83.37-6.31Q83.26-6.62 83.15-6.93L83.15-6.93L83.24-6.93Q83.25-6.67 83.25-6.39Q83.26-6.11 83.26-5.82Q83.27-5.54 83.27-5.27Q83.27-5.00 83.27-4.77L83.27-4.77L83.27 0ZM93.32 0.12L93.32 0.12Q92.81 0.12 92.39-0.08Q91.97-0.27 91.72-0.64Q91.47-1.02 91.47-1.55L91.47-1.55Q91.47-1.97 91.63-2.25Q91.79-2.53 92.08-2.71Q92.37-2.89 92.76-3.00Q93.16-3.10 93.64-3.16L93.64-3.16Q94.11-3.22 94.43-3.27Q94.75-3.31 94.92-3.41Q95.09-3.51 95.09-3.71L95.09-3.71L95.09-3.83Q95.09-4.20 94.93-4.47Q94.78-4.74 94.48-4.88Q94.19-5.03 93.77-5.03L93.77-5.03Q93.37-5.03 93.06-4.90Q92.76-4.77 92.56-4.56Q92.36-4.36 92.28-4.10L92.28-4.10L91.63-4.27Q91.78-4.74 92.10-5.04Q92.42-5.34 92.85-5.48Q93.29-5.63 93.76-5.63L93.76-5.63Q94.11-5.63 94.47-5.54Q94.82-5.44 95.12-5.23Q95.41-5.01 95.59-4.66Q95.76-4.31 95.76-3.79L95.76-3.79L95.76 0L95.10 0L95.10-0.89L95.06-0.89Q94.94-0.63 94.71-0.40Q94.48-0.17 94.13-0.03Q93.79 0.12 93.32 0.12ZM93.42-0.49L93.42-0.49Q93.94-0.49 94.31-0.71Q94.69-0.93 94.89-1.31Q95.09-1.68 95.09-2.14L95.09-2.14L95.09-2.93Q95.02-2.86 94.86-2.81Q94.69-2.75 94.48-2.71Q94.27-2.67 94.04-2.64Q93.82-2.61 93.63-2.58L93.63-2.58Q93.17-2.52 92.84-2.40Q92.51-2.28 92.33-2.07Q92.15-1.86 92.15-1.52L92.15-1.52Q92.15-1.20 92.32-0.97Q92.49-0.73 92.77-0.61Q93.06-0.49 93.42-0.49ZM97.60-7.49L98.27-7.49L98.27 0L97.60 0L97.60-7.49ZM100.11-7.49L100.78-7.49L100.78 0L100.11 0L100.11-7.49ZM104.79 0.12L104.79 0.12Q104.07 0.12 103.51-0.25Q102.95-0.61 102.64-1.26Q102.32-1.91 102.32-2.75L102.32-2.75Q102.32-3.61 102.64-4.25Q102.95-4.90 103.51-5.27Q104.07-5.63 104.79-5.63L104.79-5.63Q105.53-5.63 106.08-5.27Q106.64-4.90 106.95-4.25Q107.27-3.60 107.27-2.75L107.27-2.75Q107.27-1.91 106.95-1.26Q106.64-0.61 106.08-0.25Q105.53 0.12 104.79 0.12ZM104.79-0.49L104.79-0.49Q105.36-0.49 105.76-0.80Q106.16-1.10 106.38-1.61Q106.59-2.13 106.59-2.75L106.59-2.75Q106.59-3.38 106.38-3.90Q106.16-4.42 105.76-4.72Q105.36-5.02 104.79-5.02L104.79-5.02Q104.23-5.02 103.83-4.72Q103.43-4.41 103.22-3.90Q103.01-3.38 103.01-2.75L103.01-2.75Q103.01-2.12 103.22-1.61Q103.43-1.10 103.83-0.80Q104.23-0.49 104.79-0.49ZM110.70 0L109.99 0L108.32-5.55L109.03-5.55L109.89-2.56Q110.02-2.11 110.15-1.59Q110.28-1.07 110.42-0.46L110.42-0.46L110.30-0.46Q110.44-1.05 110.57-1.57Q110.71-2.10 110.85-2.56L110.85-2.56L111.75-5.55L112.47-5.55L113.36-2.56Q113.50-2.11 113.63-1.58Q113.77-1.06 113.90-0.46L113.90-0.46L113.78-0.46Q113.92-1.06 114.05-1.58Q114.19-2.10 114.32-2.56L114.32-2.56L115.17-5.55L115.88-5.55L114.22 0L113.51 0L112.55-3.12Q112.46-3.45 112.37-3.77Q112.28-4.09 112.19-4.43Q112.11-4.76 112.02-5.11L112.02-5.11L112.19-5.11Q112.10-4.77 112.02-4.43Q111.93-4.09 111.84-3.77Q111.75-3.44 111.66-3.12L111.66-3.12L110.70 0ZM122.42 0.12L122.42 0.12Q121.69 0.12 121.14-0.25Q120.58-0.61 120.26-1.26Q119.95-1.91 119.95-2.75L119.95-2.75Q119.95-3.61 120.26-4.25Q120.58-4.90 121.14-5.27Q121.69-5.63 122.42-5.63L122.42-5.63Q123.15-5.63 123.71-5.27Q124.26-4.90 124.58-4.25Q124.89-3.60 124.89-2.75L124.89-2.75Q124.89-1.91 124.58-1.26Q124.26-0.61 123.71-0.25Q123.15 0.12 122.42 0.12ZM122.42-0.49L122.42-0.49Q122.99-0.49 123.39-0.80Q123.79-1.10 124.00-1.61Q124.21-2.13 124.21-2.75L124.21-2.75Q124.21-3.38 124.00-3.90Q123.79-4.42 123.39-4.72Q122.99-5.02 122.42-5.02L122.42-5.02Q121.86-5.02 121.46-4.72Q121.06-4.41 120.84-3.90Q120.63-3.38 120.63-2.75L120.63-2.75Q120.63-2.12 120.84-1.61Q121.06-1.10 121.46-0.80Q121.86-0.49 122.42-0.49ZM127.11-3.44L127.11-3.44L127.11 0L126.43 0L126.43-5.55L127.08-5.55L127.09-4.25L126.96-4.25Q127.20-4.98 127.69-5.31Q128.18-5.63 128.82-5.63L128.82-5.63Q129.39-5.63 129.82-5.39Q130.26-5.16 130.51-4.70Q130.75-4.24 130.75-3.58L130.75-3.58L130.75 0L130.08 0L130.08-3.53Q130.08-4.22 129.69-4.62Q129.30-5.01 128.65-5.01L128.65-5.01Q128.22-5.01 127.87-4.83Q127.51-4.64 127.31-4.29Q127.11-3.94 127.11-3.44ZM135.77 0L135.03 0L137.78-7.49L138.61-7.49L141.38 0L140.63 0L138.85-4.91Q138.70-5.32 138.52-5.86Q138.35-6.40 138.11-7.17L138.11-7.17L138.27-7.17Q138.04-6.40 137.86-5.85Q137.68-5.31 137.54-4.91L137.54-4.91L135.77 0ZM140.09-2.23L136.31-2.23L136.31-2.86L140.09-2.86L140.09-2.23ZM144.58 0.08L144.58 0.08Q144.01 0.08 143.58-0.16Q143.14-0.40 142.89-0.86Q142.65-1.32 142.65-1.98L142.65-1.98L142.65-5.55L143.32-5.55L143.32-2.03Q143.32-1.33 143.71-0.94Q144.09-0.54 144.74-0.54L144.74-0.54Q145.18-0.54 145.53-0.72Q145.88-0.91 146.09-1.26Q146.29-1.62 146.29-2.11L146.29-2.11L146.29-5.55L146.97-5.55L146.97 0L146.31 0L146.31-1.30L146.43-1.30Q146.20-0.57 145.70-0.24Q145.21 0.08 144.58 0.08ZM150.95 2.21L150.95 2.21Q150.38 2.21 149.93 2.05Q149.49 1.90 149.19 1.62Q148.90 1.34 148.75 0.97L148.75 0.97L149.34 0.70Q149.45 0.94 149.65 1.15Q149.86 1.36 150.18 1.48Q150.50 1.61 150.95 1.61L150.95 1.61Q151.71 1.61 152.16 1.23Q152.61 0.85 152.61 0.08L152.61 0.08L152.61-1.12L152.55-1.12Q152.43-0.84 152.20-0.59Q151.98-0.34 151.64-0.18Q151.30-0.03 150.81-0.03L150.81-0.03Q150.14-0.03 149.62-0.36Q149.10-0.69 148.80-1.31Q148.50-1.93 148.50-2.79L148.50-2.79Q148.50-3.64 148.80-4.28Q149.09-4.92 149.62-5.28Q150.14-5.63 150.82-5.63L150.82-5.63Q151.31-5.63 151.66-5.46Q152.00-5.29 152.22-5.03Q152.45-4.76 152.57-4.49L152.57-4.49L152.62-4.49L152.62-5.55L153.28-5.55L153.28 0.11Q153.28 0.82 152.98 1.29Q152.67 1.76 152.15 1.98Q151.62 2.21 150.95 2.21ZM150.91-0.63L150.91-0.63Q151.45-0.63 151.83-0.90Q152.21-1.16 152.42-1.64Q152.62-2.13 152.62-2.80L152.62-2.80Q152.62-3.45 152.42-3.95Q152.22-4.45 151.84-4.74Q151.45-5.02 150.91-5.02L150.91-5.02Q150.37-5.02 149.98-4.73Q149.60-4.44 149.39-3.94Q149.19-3.44 149.19-2.80L149.19-2.80Q149.19-2.15 149.39-1.66Q149.60-1.17 149.99-0.90Q150.37-0.63 150.91-0.63ZM157.04 0.08L157.04 0.08Q156.48 0.08 156.04-0.16Q155.61-0.40 155.36-0.86Q155.11-1.32 155.11-1.98L155.11-1.98L155.11-5.55L155.79-5.55L155.79-2.03Q155.79-1.33 156.17-0.94Q156.56-0.54 157.21-0.54L157.21-0.54Q157.65-0.54 158.00-0.72Q158.35-0.91 158.56-1.26Q158.76-1.62 158.76-2.11L158.76-2.11L158.76-5.55L159.43-5.55L159.43 0L158.78 0L158.78-1.30L158.90-1.30Q158.66-0.57 158.17-0.24Q157.67 0.08 157.04 0.08ZM163.05 0.12L163.05 0.12Q162.50 0.12 162.06-0.06Q161.63-0.23 161.36-0.57Q161.08-0.91 161.00-1.39L161.00-1.39L161.65-1.51Q161.75-1.00 162.11-0.74Q162.47-0.48 163.04-0.48L163.04-0.48Q163.68-0.48 164.06-0.77Q164.44-1.05 164.44-1.48L164.44-1.48Q164.44-1.82 164.21-2.04Q163.97-2.26 163.52-2.36L163.52-2.36L162.62-2.58Q161.89-2.76 161.53-3.13Q161.17-3.50 161.17-4.06L161.17-4.06Q161.17-4.53 161.42-4.88Q161.67-5.24 162.11-5.43Q162.55-5.63 163.12-5.63L163.12-5.63Q163.65-5.63 164.04-5.46Q164.44-5.29 164.69-4.98Q164.93-4.66 165.04-4.23L165.04-4.23L164.41-4.10Q164.30-4.52 163.99-4.78Q163.68-5.05 163.12-5.05L163.12-5.05Q162.56-5.05 162.20-4.78Q161.85-4.51 161.85-4.09L161.85-4.09Q161.85-3.74 162.09-3.52Q162.33-3.29 162.84-3.17L162.84-3.17L163.71-2.97Q164.42-2.80 164.78-2.43Q165.13-2.07 165.13-1.51L165.13-1.51Q165.13-1.03 164.87-0.66Q164.60-0.30 164.14-0.09Q163.67 0.12 163.05 0.12ZM165.94-5.55L168.61-5.55L168.61-4.96L165.94-4.96L165.94-5.55ZM166.79-1.25L166.79-6.92L167.46-6.92L167.46-1.30Q167.46-0.90 167.64-0.71Q167.82-0.53 168.19-0.56L168.19-0.56Q168.27-0.56 168.38-0.58Q168.49-0.59 168.58-0.60L168.58-0.60L168.69-0.02Q168.58 0.01 168.45 0.03Q168.31 0.04 168.18 0.05L168.18 0.05Q167.52 0.08 167.16-0.27Q166.79-0.61 166.79-1.25L166.79-1.25ZM177.57 0L172.86 0L172.86-0.54L175.36-3.23Q175.84-3.74 176.13-4.12Q176.43-4.49 176.56-4.82Q176.70-5.14 176.70-5.51L176.70-5.51Q176.70-5.95 176.50-6.28Q176.30-6.61 175.95-6.79Q175.60-6.97 175.15-6.97L175.15-6.97Q174.68-6.97 174.32-6.77Q173.97-6.57 173.78-6.21Q173.58-5.86 173.58-5.40L173.58-5.40L172.91-5.40Q172.91-6.04 173.20-6.54Q173.49-7.03 174.00-7.32Q174.50-7.60 175.16-7.60L175.16-7.60Q175.81-7.60 176.31-7.33Q176.81-7.05 177.09-6.58Q177.38-6.11 177.38-5.52L177.38-5.52Q177.38-5.09 177.23-4.70Q177.08-4.32 176.73-3.84Q176.37-3.37 175.75-2.72L175.75-2.72L173.84-0.67L173.84-0.63L177.57-0.63L177.57 0ZM180.27 0L179.52 0L182.94-6.82L182.94-6.86L178.98-6.86L178.98-7.49L183.68-7.49L183.68-6.82L180.27 0ZM184.24 1.63L183.72 1.63L184.18-0.96L184.93-0.96L184.24 1.63ZM194.50 0L189.79 0L189.79-0.54L192.29-3.23Q192.77-3.74 193.06-4.12Q193.35-4.49 193.49-4.82Q193.63-5.14 193.63-5.51L193.63-5.51Q193.63-5.95 193.43-6.28Q193.23-6.61 192.88-6.79Q192.53-6.97 192.08-6.97L192.08-6.97Q191.60-6.97 191.25-6.77Q190.90-6.57 190.71-6.21Q190.51-5.86 190.51-5.40L190.51-5.40L189.83-5.40Q189.83-6.04 190.13-6.54Q190.42-7.03 190.92-7.32Q191.43-7.60 192.09-7.60L192.09-7.60Q192.74-7.60 193.24-7.33Q193.74-7.05 194.02-6.58Q194.30-6.11 194.30-5.52L194.30-5.52Q194.30-5.09 194.16-4.70Q194.01-4.32 193.65-3.84Q193.30-3.37 192.67-2.72L192.67-2.72L190.77-0.67L190.77-0.63L194.50-0.63L194.50 0ZM198.58 0.10L198.58 0.10Q197.78 0.10 197.21-0.36Q196.64-0.82 196.34-1.68Q196.03-2.54 196.03-3.74L196.03-3.74Q196.03-4.94 196.34-5.81Q196.64-6.67 197.22-7.13Q197.79-7.59 198.58-7.59L198.58-7.59Q199.37-7.59 199.95-7.13Q200.52-6.67 200.82-5.81Q201.13-4.94 201.13-3.74L201.13-3.74Q201.13-2.54 200.82-1.68Q200.52-0.82 199.95-0.36Q199.38 0.10 198.58 0.10ZM198.58-0.53L198.58-0.53Q199.17-0.53 199.59-0.91Q200.00-1.30 200.23-2.02Q200.45-2.74 200.45-3.74L200.45-3.74Q200.45-4.75 200.23-5.47Q200.00-6.20 199.59-6.58Q199.17-6.97 198.58-6.97L198.58-6.97Q198.00-6.97 197.58-6.58Q197.16-6.19 196.93-5.47Q196.71-4.75 196.71-3.74L196.71-3.74Q196.71-2.74 196.93-2.02Q197.16-1.30 197.58-0.91Q198.00-0.53 198.58-0.53ZM207.40 0L202.69 0L202.69-0.54L205.19-3.23Q205.67-3.74 205.96-4.12Q206.25-4.49 206.39-4.82Q206.53-5.14 206.53-5.51L206.53-5.51Q206.53-5.95 206.33-6.28Q206.13-6.61 205.78-6.79Q205.43-6.97 204.98-6.97L204.98-6.97Q204.50-6.97 204.15-6.77Q203.80-6.57 203.61-6.21Q203.41-5.86 203.41-5.40L203.41-5.40L202.73-5.40Q202.73-6.04 203.02-6.54Q203.32-7.03 203.82-7.32Q204.33-7.60 204.99-7.60L204.99-7.60Q205.64-7.60 206.14-7.33Q206.64-7.05 206.92-6.58Q207.20-6.11 207.20-5.52L207.20-5.52Q207.20-5.09 207.06-4.70Q206.91-4.32 206.55-3.84Q206.20-3.37 205.57-2.72L205.57-2.72L203.67-0.67L203.67-0.63L207.40-0.63L207.40 0ZM211.21 0.10L211.21 0.10Q210.56 0.10 210.06-0.16Q209.55-0.43 209.25-0.89Q208.95-1.34 208.93-1.93L208.93-1.93L209.63-1.93Q209.65-1.52 209.86-1.21Q210.07-0.89 210.42-0.71Q210.76-0.53 211.21-0.53L211.21-0.53Q211.72-0.53 212.11-0.77Q212.50-1.01 212.72-1.43Q212.94-1.85 212.94-2.37L212.94-2.37Q212.94-2.92 212.71-3.34Q212.48-3.76 212.08-3.99Q211.69-4.23 211.19-4.23L211.19-4.23Q210.76-4.23 210.37-4.07Q209.99-3.91 209.77-3.65L209.77-3.65L209.07-3.72L209.48-7.49L213.32-7.49L213.32-6.86L210.09-6.86L209.80-4.32L209.83-4.32Q210.10-4.56 210.48-4.71Q210.86-4.86 211.30-4.86L211.30-4.86Q211.80-4.86 212.22-4.68Q212.65-4.50 212.96-4.16Q213.28-3.83 213.46-3.38Q213.63-2.93 213.63-2.38L213.63-2.38Q213.63-1.66 213.32-1.10Q213.01-0.54 212.46-0.22Q211.92 0.10 211.21 0.10ZM215.32 1.63L214.80 1.63L215.26-0.96L216.01-0.96L215.32 1.63ZM222.27-7.49L223.11-7.49L223.11 0L222.42 0L222.42-6.81L222.38-6.81L220.63-5.54L220.63-6.31L222.27-7.49ZM226.41-7.49L227.26-7.49L227.26 0L226.56 0L226.56-6.81L226.53-6.81L224.77-5.54L224.77-6.31L226.41-7.49ZM229.78 0.06L229.78 0.06Q229.56 0.06 229.40-0.10Q229.25-0.25 229.25-0.47L229.25-0.47Q229.25-0.69 229.40-0.85Q229.56-1.01 229.78-1.01L229.78-1.01Q230.00-1.01 230.16-0.85Q230.31-0.69 230.31-0.47L230.31-0.47Q230.31-0.25 230.16-0.10Q230.00 0.06 229.78 0.06ZM229.78-4.23L229.78-4.23Q229.56-4.23 229.40-4.39Q229.25-4.54 229.25-4.76L229.25-4.76Q229.25-4.98 229.40-5.14Q229.56-5.30 229.78-5.30L229.78-5.30Q230.00-5.30 230.16-5.14Q230.31-4.98 230.31-4.76L230.31-4.76Q230.31-4.54 230.16-4.39Q230.00-4.23 229.78-4.23ZM236.82 0L232.11 0L232.11-0.54L234.61-3.23Q235.09-3.74 235.38-4.12Q235.67-4.49 235.81-4.82Q235.95-5.14 235.95-5.51L235.95-5.51Q235.95-5.95 235.75-6.28Q235.55-6.61 235.20-6.79Q234.85-6.97 234.40-6.97L234.40-6.97Q233.92-6.97 233.57-6.77Q233.22-6.57 233.03-6.21Q232.83-5.86 232.83-5.40L232.83-5.40L232.15-5.40Q232.15-6.04 232.44-6.54Q232.74-7.03 233.24-7.32Q233.75-7.60 234.41-7.60L234.41-7.60Q235.06-7.60 235.56-7.33Q236.06-7.05 236.34-6.58Q236.62-6.11 236.62-5.52L236.62-5.52Q236.62-5.09 236.48-4.70Q236.33-4.32 235.97-3.84Q235.62-3.37 234.99-2.72L234.99-2.72L233.09-0.67L233.09-0.63L236.82-0.63L236.82 0ZM240.63 0.10L240.63 0.10Q239.98 0.10 239.48-0.16Q238.97-0.43 238.67-0.89Q238.37-1.34 238.35-1.93L238.35-1.93L239.05-1.93Q239.07-1.52 239.28-1.21Q239.49-0.89 239.84-0.71Q240.18-0.53 240.63-0.53L240.63-0.53Q241.14-0.53 241.53-0.77Q241.92-1.01 242.14-1.43Q242.36-1.85 242.36-2.37L242.36-2.37Q242.36-2.92 242.13-3.34Q241.90-3.76 241.50-3.99Q241.11-4.23 240.61-4.23L240.61-4.23Q240.18-4.23 239.79-4.07Q239.41-3.91 239.19-3.65L239.19-3.65L238.49-3.72L238.90-7.49L242.74-7.49L242.74-6.86L239.51-6.86L239.22-4.32L239.25-4.32Q239.52-4.56 239.90-4.71Q240.28-4.86 240.72-4.86L240.72-4.86Q241.22-4.86 241.64-4.68Q242.07-4.50 242.38-4.16Q242.70-3.83 242.88-3.38Q243.05-2.93 243.05-2.38L243.05-2.38Q243.05-1.66 242.74-1.10Q242.43-0.54 241.88-0.22Q241.34 0.10 240.63 0.10Z" fill="#F2F2F2" opacity="1" id="msvg-4miq02wxlwd" style="transform: translate(0px, 13.15px)"/>
</svg>
