<!--
By
 ███▄ ▄███▓ ▄▄▄       ██▓     ██▓     ▒█████   █     █░
▓██▒▀█▀ ██▒▒████▄    ▓██▒    ▓██▒    ▒██▒  ██▒▓█░ █ ░█░
▓██    ▓██░▒██  ▀█▄  ▒██░    ▒██░    ▒██░  ██▒▒█░ █ ░█ 
▒██    ▒██ ░██▄▄▄▄██ ▒██░    ▒██░    ▒██   ██░░█░ █ ░█ 
▒██▒   ░██▒ ▓█   ▓██▒░██████▒░██████▒░ ████▓▒░░░██▒██▓ 
░ ▒░   ░  ░ ▒▒   ▓▒█░░ ▒░▓  ░░ ▒░▓  ░░ ▒░▒░▒░ ░ ▓░▒ ▒  
░  ░      ░  ▒   ▒▒ ░░ ░ ▒  ░░ ░ ▒  ░  ░ ▒ ▒░   ▒ ░ ░  
░      ░     ░   ▒     ░ ░     ░ ░   ░ ░ ░ ▒    ░   ░  
       ░         ░  ░    ░  ░    ░  ░    ░ ░      ░    
Generated on 27/08/2025
-->
<svg xmlns="http://www.w3.org/2000/svg" width="321.35531250000025" height="12" viewBox="0 0 321.35531250000025 12" fill="none">
  <path d="M2.11 0L0.86 0L0.86-8.15L5.99-8.15L5.99-7.08L2.11-7.08L2.11-4.50L5.63-4.50L5.63-3.43L2.11-3.43L2.11 0ZM11.54 0.13L11.54 0.13Q10.69 0.13 10.05-0.27Q9.41-0.66 9.06-1.36Q8.71-2.06 8.71-2.99L8.71-2.99Q8.71-3.93 9.06-4.64Q9.41-5.34 10.05-5.73Q10.69-6.13 11.54-6.13L11.54-6.13Q12.40-6.13 13.04-5.73Q13.67-5.34 14.03-4.64Q14.38-3.93 14.38-2.99L14.38-2.99Q14.38-2.06 14.03-1.36Q13.67-0.66 13.04-0.27Q12.40 0.13 11.54 0.13ZM11.54-0.89L11.54-0.89Q12.08-0.89 12.45-1.17Q12.81-1.45 12.99-1.93Q13.17-2.41 13.17-2.99L13.17-2.99Q13.17-3.59 12.99-4.07Q12.81-4.54 12.45-4.83Q12.08-5.11 11.54-5.11L11.54-5.11Q11.00-5.11 10.64-4.83Q10.28-4.54 10.10-4.07Q9.92-3.59 9.92-2.99L9.92-2.99Q9.92-2.41 10.10-1.93Q10.28-1.45 10.64-1.17Q11.00-0.89 11.54-0.89ZM18.52 0L17.32 0L17.32-6.04L18.48-6.04L18.48-5.07L18.53-5.07Q18.70-5.56 19.10-5.84Q19.50-6.12 20.05-6.12L20.05-6.12Q20.17-6.12 20.30-6.11Q20.44-6.10 20.54-6.09L20.54-6.09L20.54-4.96Q20.47-4.98 20.29-5.00Q20.11-5.02 19.91-5.02L19.91-5.02Q19.51-5.02 19.20-4.85Q18.88-4.68 18.70-4.37Q18.52-4.06 18.52-3.65L18.52-3.65L18.52 0ZM30.82 0.12L30.82 0.12Q30.31 0.12 29.96-0.05Q29.61-0.22 29.40-0.47Q29.18-0.71 29.05-0.94L29.05-0.94L28.97-0.94L28.97 0L27.81 0L27.81-8.15L29.01-8.15L29.01-5.08L29.06-5.08Q29.18-5.30 29.39-5.54Q29.61-5.78 29.95-5.95Q30.30-6.13 30.82-6.13L30.82-6.13Q31.56-6.13 32.14-5.75Q32.71-5.38 33.04-4.68Q33.36-3.98 33.36-3.01L33.36-3.01Q33.36-2.04 33.04-1.34Q32.71-0.64 32.14-0.26Q31.57 0.12 30.82 0.12ZM30.56-0.90L30.56-0.90Q31.07-0.90 31.43-1.17Q31.78-1.44 31.97-1.92Q32.15-2.40 32.15-3.01L32.15-3.01Q32.15-3.63 31.97-4.10Q31.78-4.57 31.43-4.84Q31.08-5.11 30.56-5.11L30.56-5.11Q30.05-5.11 29.69-4.85Q29.34-4.58 29.16-4.12Q28.97-3.65 28.97-3.01L28.97-3.01Q28.97-2.38 29.16-1.91Q29.34-1.43 29.70-1.16Q30.06-0.90 30.56-0.90ZM38.91 0.13L38.91 0.13Q38.01 0.13 37.37-0.26Q36.72-0.65 36.38-1.35Q36.03-2.05 36.03-2.99L36.03-2.99Q36.03-3.91 36.37-4.62Q36.72-5.33 37.35-5.73Q37.97-6.13 38.81-6.13L38.81-6.13Q39.36-6.13 39.85-5.94Q40.34-5.76 40.72-5.39Q41.10-5.01 41.32-4.44Q41.54-3.86 41.54-3.07L41.54-3.07L41.54-2.66L36.66-2.66L36.66-3.56L40.92-3.56L40.37-3.27Q40.37-3.82 40.19-4.25Q40.01-4.67 39.67-4.91Q39.32-5.14 38.82-5.14L38.82-5.14Q38.31-5.14 37.96-4.90Q37.60-4.66 37.41-4.26Q37.21-3.86 37.21-3.37L37.21-3.37L37.21-2.78Q37.21-2.18 37.43-1.74Q37.64-1.31 38.02-1.09Q38.41-0.86 38.92-0.86L38.92-0.86Q39.27-0.86 39.54-0.96Q39.82-1.06 40.02-1.26Q40.22-1.45 40.32-1.74L40.32-1.74L41.44-1.53Q41.31-1.04 40.96-0.66Q40.61-0.29 40.08-0.08Q39.56 0.13 38.91 0.13ZM43.79-6.04L47.11-6.04L47.11-5.06L43.79-5.06L43.79-6.04ZM44.71-1.51L44.71-7.52L45.91-7.52L45.91-1.62Q45.91-1.27 46.05-1.10Q46.20-0.94 46.56-0.94L46.56-0.94Q46.66-0.94 46.81-0.96Q46.97-0.98 47.08-1.00L47.08-1.00L47.25-0.03Q47.06 0.02 46.85 0.04Q46.63 0.06 46.43 0.06L46.43 0.06Q45.60 0.06 45.15-0.35Q44.71-0.75 44.71-1.51L44.71-1.51ZM49.25-6.04L52.58-6.04L52.58-5.06L49.25-5.06L49.25-6.04ZM50.17-1.51L50.17-7.52L51.37-7.52L51.37-1.62Q51.37-1.27 51.52-1.10Q51.67-0.94 52.02-0.94L52.02-0.94Q52.12-0.94 52.28-0.96Q52.43-0.98 52.54-1.00L52.54-1.00L52.71-0.03Q52.52 0.02 52.31 0.04Q52.10 0.06 51.89 0.06L51.89 0.06Q51.06 0.06 50.62-0.35Q50.17-0.75 50.17-1.51L50.17-1.51ZM57.99 0.13L57.99 0.13Q57.09 0.13 56.45-0.26Q55.80-0.65 55.45-1.35Q55.11-2.05 55.11-2.99L55.11-2.99Q55.11-3.91 55.45-4.62Q55.80-5.33 56.42-5.73Q57.05-6.13 57.89-6.13L57.89-6.13Q58.44-6.13 58.93-5.94Q59.42-5.76 59.80-5.39Q60.18-5.01 60.39-4.44Q60.61-3.86 60.61-3.07L60.61-3.07L60.61-2.66L55.74-2.66L55.74-3.56L60.00-3.56L59.45-3.27Q59.45-3.82 59.27-4.25Q59.09-4.67 58.75-4.91Q58.40-5.14 57.90-5.14L57.90-5.14Q57.39-5.14 57.03-4.90Q56.68-4.66 56.48-4.26Q56.29-3.86 56.29-3.37L56.29-3.37L56.29-2.78Q56.29-2.18 56.50-1.74Q56.71-1.31 57.10-1.09Q57.49-0.86 58.00-0.86L58.00-0.86Q58.34-0.86 58.62-0.96Q58.90-1.06 59.10-1.26Q59.30-1.45 59.39-1.74L59.39-1.74L60.52-1.53Q60.38-1.04 60.03-0.66Q59.68-0.29 59.16-0.08Q58.64 0.13 57.99 0.13ZM64.73 0L63.53 0L63.53-6.04L64.69-6.04L64.69-5.07L64.74-5.07Q64.91-5.56 65.31-5.84Q65.72-6.12 66.26-6.12L66.26-6.12Q66.38-6.12 66.52-6.11Q66.66-6.10 66.75-6.09L66.75-6.09L66.75-4.96Q66.68-4.98 66.50-5.00Q66.32-5.02 66.12-5.02L66.12-5.02Q65.73-5.02 65.41-4.85Q65.09-4.68 64.91-4.37Q64.73-4.06 64.73-3.65L64.73-3.65L64.73 0ZM74.02-8.15L75.22-8.15L75.22 0L74.02 0L74.02-8.15ZM81.04 0.13L81.04 0.13Q80.15 0.13 79.50-0.26Q78.86-0.65 78.51-1.35Q78.16-2.05 78.16-2.99L78.16-2.99Q78.16-3.91 78.51-4.62Q78.85-5.33 79.48-5.73Q80.11-6.13 80.95-6.13L80.95-6.13Q81.49-6.13 81.98-5.94Q82.47-5.76 82.85-5.39Q83.23-5.01 83.45-4.44Q83.67-3.86 83.67-3.07L83.67-3.07L83.67-2.66L78.80-2.66L78.80-3.56L83.05-3.56L82.50-3.27Q82.50-3.82 82.33-4.25Q82.15-4.67 81.80-4.91Q81.45-5.14 80.95-5.14L80.95-5.14Q80.45-5.14 80.09-4.90Q79.73-4.66 79.54-4.26Q79.35-3.86 79.35-3.37L79.35-3.37L79.35-2.78Q79.35-2.18 79.56-1.74Q79.77-1.31 80.15-1.09Q80.54-0.86 81.05-0.86L81.05-0.86Q81.40-0.86 81.68-0.96Q81.96-1.06 82.15-1.26Q82.35-1.45 82.45-1.74L82.45-1.74L83.58-1.53Q83.44-1.04 83.09-0.66Q82.74-0.29 82.22-0.08Q81.69 0.13 81.04 0.13ZM89.14 2.41L89.14 2.41Q88.43 2.41 87.91 2.22Q87.39 2.03 87.05 1.71Q86.72 1.38 86.57 0.97L86.57 0.97L87.60 0.60Q87.71 0.80 87.89 0.99Q88.08 1.19 88.38 1.32Q88.68 1.44 89.14 1.44L89.14 1.44Q89.84 1.44 90.27 1.10Q90.69 0.76 90.69 0.06L90.69 0.06L90.69-1.07L90.61-1.07Q90.48-0.84 90.27-0.60Q90.06-0.37 89.71-0.21Q89.37-0.05 88.85-0.05L88.85-0.05Q88.13-0.05 87.55-0.40Q86.97-0.75 86.64-1.42Q86.31-2.08 86.31-3.04L86.31-3.04Q86.31-3.99 86.64-4.68Q86.97-5.38 87.55-5.75Q88.13-6.13 88.86-6.13L88.86-6.13Q89.38-6.13 89.73-5.96Q90.08-5.79 90.30-5.54Q90.52-5.29 90.64-5.07L90.64-5.07L90.71-5.07L90.71-6.04L91.87-6.04L91.87 0.05Q91.87 0.87 91.51 1.39Q91.15 1.91 90.53 2.16Q89.92 2.41 89.14 2.41ZM89.12-1.06L89.12-1.06Q89.63-1.06 89.99-1.30Q90.34-1.54 90.53-1.99Q90.71-2.43 90.71-3.06L90.71-3.06Q90.71-3.67 90.53-4.13Q90.34-4.59 89.99-4.85Q89.63-5.11 89.12-5.11L89.12-5.11Q88.61-5.11 88.25-4.84Q87.89-4.58 87.71-4.12Q87.53-3.65 87.53-3.06L87.53-3.06Q87.53-2.44 87.71-2.00Q87.90-1.55 88.25-1.30Q88.61-1.06 89.12-1.06ZM96.30 0L95.10 0L95.10-6.04L96.30-6.04L96.30 0ZM95.70-6.98L95.70-6.98Q95.39-6.98 95.17-7.19Q94.95-7.40 94.95-7.70L94.95-7.70Q94.95-8.00 95.17-8.21Q95.39-8.41 95.70-8.41L95.70-8.41Q96.01-8.41 96.23-8.21Q96.45-8.00 96.45-7.70L96.45-7.70Q96.45-7.40 96.23-7.19Q96.01-6.98 95.70-6.98ZM102.53 0.12L102.53 0.12Q102.02 0.12 101.67-0.05Q101.33-0.22 101.11-0.47Q100.89-0.71 100.77-0.94L100.77-0.94L100.69-0.94L100.69 0L99.52 0L99.52-8.15L100.72-8.15L100.72-5.08L100.77-5.08Q100.89-5.30 101.11-5.54Q101.32-5.78 101.66-5.95Q102.01-6.13 102.53-6.13L102.53-6.13Q103.28-6.13 103.85-5.75Q104.42-5.38 104.75-4.68Q105.08-3.98 105.08-3.01L105.08-3.01Q105.08-2.04 104.75-1.34Q104.43-0.64 103.85-0.26Q103.28 0.12 102.53 0.12ZM102.28-0.90L102.28-0.90Q102.79-0.90 103.14-1.17Q103.50-1.44 103.68-1.92Q103.86-2.40 103.86-3.01L103.86-3.01Q103.86-3.63 103.68-4.10Q103.50-4.57 103.14-4.84Q102.79-5.11 102.28-5.11L102.28-5.11Q101.76-5.11 101.41-4.85Q101.05-4.58 100.87-4.12Q100.69-3.65 100.69-3.01L100.69-3.01Q100.69-2.38 100.87-1.91Q101.06-1.43 101.42-1.16Q101.77-0.90 102.28-0.90ZM109.22 0L108.02 0L108.02-6.04L109.22-6.04L109.22 0ZM108.62-6.98L108.62-6.98Q108.31-6.98 108.09-7.19Q107.87-7.40 107.87-7.70L107.87-7.70Q107.87-8.00 108.09-8.21Q108.31-8.41 108.62-8.41L108.62-8.41Q108.93-8.41 109.15-8.21Q109.37-8.00 109.37-7.70L109.37-7.70Q109.37-7.40 109.15-7.19Q108.93-6.98 108.62-6.98ZM112.44-8.15L113.64-8.15L113.64 0L112.44 0L112.44-8.15ZM118.06 0L116.86 0L116.86-6.04L118.06-6.04L118.06 0ZM117.46-6.98L117.46-6.98Q117.15-6.98 116.93-7.19Q116.71-7.40 116.71-7.70L116.71-7.70Q116.71-8.00 116.93-8.21Q117.15-8.41 117.46-8.41L117.46-8.41Q117.77-8.41 117.99-8.21Q118.21-8.00 118.21-7.70L118.21-7.70Q118.21-7.40 117.99-7.19Q117.77-6.98 117.46-6.98ZM120.61-6.04L123.94-6.04L123.94-5.06L120.61-5.06L120.61-6.04ZM121.53-1.51L121.53-7.52L122.73-7.52L122.73-1.62Q122.73-1.27 122.88-1.10Q123.02-0.94 123.38-0.94L123.38-0.94Q123.48-0.94 123.64-0.96Q123.79-0.98 123.90-1.00L123.90-1.00L124.07-0.03Q123.88 0.02 123.67 0.04Q123.46 0.06 123.25 0.06L123.25 0.06Q122.42 0.06 121.98-0.35Q121.53-0.75 121.53-1.51L121.53-1.51ZM126.70 2.22L126.70 2.22L126.93 1.24L127.18 1.27Q127.45 1.33 127.68 1.29Q127.90 1.24 128.07 1.06Q128.24 0.88 128.34 0.51L128.34 0.51L128.50 0.01L126.20-6.04L127.48-6.04L128.68-2.63Q128.88-2.08 129.01-1.54Q129.15-1.00 129.30-0.45L129.30-0.45L128.94-0.45Q129.10-1.00 129.24-1.54Q129.39-2.09 129.58-2.63L129.58-2.63L130.80-6.04L132.06-6.04L129.42 0.89Q129.24 1.36 128.97 1.68Q128.71 2.00 128.35 2.16Q127.99 2.32 127.51 2.32L127.51 2.32Q127.26 2.32 127.04 2.29Q126.83 2.25 126.70 2.22ZM135.43 1.93L134.57 1.93L135.05-1.18L136.32-1.18L135.43 1.93ZM145.31 2.29L144.12 2.29L144.12-6.04L145.28-6.04L145.28-5.08L145.36-5.08Q145.49-5.30 145.70-5.54Q145.91-5.78 146.26-5.95Q146.60-6.13 147.13-6.13L147.13-6.13Q147.87-6.13 148.44-5.75Q149.02-5.38 149.34-4.68Q149.67-3.98 149.67-3.01L149.67-3.01Q149.67-2.04 149.35-1.34Q149.02-0.64 148.45-0.26Q147.88 0.12 147.13 0.12L147.13 0.12Q146.62 0.12 146.27-0.05Q145.93-0.22 145.71-0.47Q145.49-0.71 145.37-0.94L145.37-0.94L145.31-0.94L145.31 2.29ZM146.87-0.90L146.87-0.90Q147.38-0.90 147.74-1.17Q148.09-1.44 148.27-1.92Q148.46-2.40 148.46-3.01L148.46-3.01Q148.46-3.63 148.27-4.10Q148.09-4.57 147.74-4.84Q147.39-5.11 146.87-5.11L146.87-5.11Q146.36-5.11 146.00-4.85Q145.65-4.58 145.46-4.12Q145.28-3.65 145.28-3.01L145.28-3.01Q145.28-2.38 145.47-1.91Q145.65-1.43 146.01-1.16Q146.37-0.90 146.87-0.90ZM152.62-8.15L153.81-8.15L153.81 0L152.62 0L152.62-8.15ZM159.64 0.13L159.64 0.13Q158.74 0.13 158.10-0.26Q157.45-0.65 157.10-1.35Q156.76-2.05 156.76-2.99L156.76-2.99Q156.76-3.91 157.10-4.62Q157.45-5.33 158.07-5.73Q158.70-6.13 159.54-6.13L159.54-6.13Q160.09-6.13 160.58-5.94Q161.07-5.76 161.45-5.39Q161.83-5.01 162.04-4.44Q162.26-3.86 162.26-3.07L162.26-3.07L162.26-2.66L157.39-2.66L157.39-3.56L161.65-3.56L161.10-3.27Q161.10-3.82 160.92-4.25Q160.74-4.67 160.40-4.91Q160.05-5.14 159.55-5.14L159.55-5.14Q159.04-5.14 158.68-4.90Q158.33-4.66 158.13-4.26Q157.94-3.86 157.94-3.37L157.94-3.37L157.94-2.78Q157.94-2.18 158.15-1.74Q158.36-1.31 158.75-1.09Q159.14-0.86 159.65-0.86L159.65-0.86Q159.99-0.86 160.27-0.96Q160.55-1.06 160.75-1.26Q160.95-1.45 161.04-1.74L161.04-1.74L162.17-1.53Q162.03-1.04 161.68-0.66Q161.33-0.29 160.81-0.08Q160.29 0.13 159.64 0.13ZM166.91 0.13L166.91 0.13Q166.33 0.13 165.86-0.08Q165.40-0.30 165.13-0.71Q164.86-1.12 164.86-1.71L164.86-1.71Q164.86-2.23 165.06-2.56Q165.26-2.89 165.59-3.08Q165.92-3.27 166.34-3.37Q166.76-3.47 167.20-3.52L167.20-3.52Q167.74-3.58 168.07-3.63Q168.40-3.67 168.56-3.76Q168.71-3.86 168.71-4.07L168.71-4.07L168.71-4.10Q168.71-4.44 168.58-4.67Q168.45-4.90 168.19-5.03Q167.92-5.15 167.54-5.15L167.54-5.15Q167.15-5.15 166.87-5.03Q166.58-4.91 166.41-4.71Q166.23-4.52 166.16-4.30L166.16-4.30L165.03-4.52Q165.20-5.07 165.56-5.43Q165.93-5.78 166.44-5.95Q166.95-6.13 167.53-6.13L167.53-6.13Q167.94-6.13 168.35-6.03Q168.77-5.93 169.12-5.69Q169.48-5.46 169.69-5.05Q169.90-4.65 169.90-4.04L169.90-4.04L169.90 0L168.74 0L168.74-0.83L168.70-0.83Q168.58-0.60 168.35-0.38Q168.12-0.16 167.76-0.02Q167.41 0.13 166.91 0.13ZM167.17-0.83L167.17-0.83Q167.67-0.83 168.01-1.02Q168.36-1.21 168.54-1.53Q168.72-1.84 168.72-2.19L168.72-2.19L168.72-2.95Q168.66-2.89 168.48-2.84Q168.31-2.79 168.08-2.75Q167.86-2.71 167.64-2.68Q167.42-2.65 167.26-2.63L167.26-2.63Q166.93-2.59 166.65-2.49Q166.37-2.38 166.20-2.20Q166.03-2.01 166.03-1.70L166.03-1.70Q166.03-1.41 166.18-1.22Q166.32-1.03 166.58-0.93Q166.84-0.83 167.17-0.83ZM175.31 0.13L175.31 0.13Q174.65 0.13 174.13-0.07Q173.61-0.26 173.28-0.65Q172.95-1.03 172.85-1.59L172.85-1.59L173.99-1.78Q174.10-1.30 174.44-1.07Q174.77-0.84 175.31-0.84L175.31-0.84Q175.89-0.84 176.23-1.07Q176.57-1.31 176.57-1.65L176.57-1.65Q176.57-1.95 176.35-2.14Q176.13-2.32 175.71-2.42L175.71-2.42L174.70-2.64Q173.85-2.83 173.44-3.25Q173.02-3.67 173.02-4.33L173.02-4.33Q173.02-4.87 173.32-5.27Q173.62-5.68 174.14-5.90Q174.67-6.13 175.35-6.13L175.35-6.13Q176.01-6.13 176.49-5.93Q176.97-5.73 177.26-5.36Q177.56-5.00 177.66-4.52L177.66-4.52L176.57-4.34Q176.48-4.68 176.19-4.93Q175.90-5.18 175.37-5.18L175.37-5.18Q174.87-5.18 174.55-4.96Q174.22-4.74 174.22-4.39L174.22-4.39Q174.22-4.09 174.44-3.90Q174.67-3.71 175.14-3.60L175.14-3.60L176.12-3.39Q176.98-3.19 177.38-2.79Q177.79-2.38 177.79-1.74L177.79-1.74Q177.79-1.19 177.47-0.77Q177.16-0.34 176.60-0.11Q176.04 0.13 175.31 0.13ZM183.32 0.13L183.32 0.13Q182.42 0.13 181.78-0.26Q181.13-0.65 180.79-1.35Q180.44-2.05 180.44-2.99L180.44-2.99Q180.44-3.91 180.78-4.62Q181.13-5.33 181.76-5.73Q182.39-6.13 183.22-6.13L183.22-6.13Q183.77-6.13 184.26-5.94Q184.75-5.76 185.13-5.39Q185.51-5.01 185.73-4.44Q185.95-3.86 185.95-3.07L185.95-3.07L185.95-2.66L181.07-2.66L181.07-3.56L185.33-3.56L184.78-3.27Q184.78-3.82 184.60-4.25Q184.43-4.67 184.08-4.91Q183.73-5.14 183.23-5.14L183.23-5.14Q182.73-5.14 182.37-4.90Q182.01-4.66 181.82-4.26Q181.63-3.86 181.63-3.37L181.63-3.37L181.63-2.78Q181.63-2.18 181.84-1.74Q182.05-1.31 182.43-1.09Q182.82-0.86 183.33-0.86L183.33-0.86Q183.68-0.86 183.96-0.96Q184.23-1.06 184.43-1.26Q184.63-1.45 184.73-1.74L184.73-1.74L185.85-1.53Q185.72-1.04 185.37-0.66Q185.02-0.29 184.49-0.08Q183.97 0.13 183.32 0.13ZM192.80-6.04L196.12-6.04L196.12-5.06L192.80-5.06L192.80-6.04ZM193.71-1.51L193.71-7.52L194.91-7.52L194.91-1.62Q194.91-1.27 195.06-1.10Q195.21-0.94 195.56-0.94L195.56-0.94Q195.67-0.94 195.82-0.96Q195.97-0.98 196.08-1.00L196.08-1.00L196.25-0.03Q196.07 0.02 195.85 0.04Q195.64 0.06 195.43 0.06L195.43 0.06Q194.61 0.06 194.16-0.35Q193.71-0.75 193.71-1.51L193.71-1.51ZM201.02 0.08L201.02 0.08Q200.40 0.08 199.93-0.18Q199.46-0.44 199.19-0.95Q198.93-1.47 198.93-2.22L198.93-2.22L198.93-6.04L200.12-6.04L200.12-2.37Q200.12-1.70 200.47-1.33Q200.81-0.96 201.41-0.96L201.41-0.96Q201.81-0.96 202.13-1.13Q202.45-1.31 202.63-1.65Q202.82-1.99 202.82-2.48L202.82-2.48L202.82-6.04L204.02-6.04L204.02 0L202.87 0L202.86-1.48L203.02-1.48Q202.74-0.67 202.23-0.29Q201.72 0.08 201.02 0.08ZM208.44 0L207.24 0L207.24-6.04L208.39-6.04L208.39-5.07L208.45-5.07Q208.62-5.56 209.02-5.84Q209.42-6.12 209.96-6.12L209.96-6.12Q210.08-6.12 210.22-6.11Q210.36-6.10 210.46-6.09L210.46-6.09L210.46-4.96Q210.39-4.98 210.21-5.00Q210.02-5.02 209.83-5.02L209.83-5.02Q209.43-5.02 209.12-4.85Q208.80-4.68 208.62-4.37Q208.44-4.06 208.44-3.65L208.44-3.65L208.44 0ZM214.33-3.55L214.33-3.55L214.33 0L213.13 0L213.13-6.04L214.28-6.04L214.29-4.56L214.13-4.56Q214.40-5.36 214.91-5.74Q215.42-6.13 216.14-6.13L216.14-6.13Q216.76-6.13 217.22-5.86Q217.69-5.60 217.95-5.09Q218.22-4.58 218.22-3.82L218.22-3.82L218.22 0L217.03 0L217.03-3.67Q217.03-4.34 216.68-4.71Q216.34-5.08 215.75-5.08L215.75-5.08Q215.34-5.08 215.02-4.91Q214.70-4.73 214.51-4.39Q214.33-4.05 214.33-3.55ZM228.59 0.13L228.59 0.13Q227.74 0.13 227.10-0.27Q226.47-0.66 226.11-1.36Q225.76-2.06 225.76-2.99L225.76-2.99Q225.76-3.93 226.11-4.64Q226.47-5.34 227.10-5.73Q227.74-6.13 228.59-6.13L228.59-6.13Q229.45-6.13 230.09-5.73Q230.73-5.34 231.08-4.64Q231.43-3.93 231.43-2.99L231.43-2.99Q231.43-2.06 231.08-1.36Q230.73-0.66 230.09-0.27Q229.45 0.13 228.59 0.13ZM228.59-0.89L228.59-0.89Q229.14-0.89 229.50-1.17Q229.86-1.45 230.04-1.93Q230.22-2.41 230.22-2.99L230.22-2.99Q230.22-3.59 230.04-4.07Q229.86-4.54 229.50-4.83Q229.14-5.11 228.59-5.11L228.59-5.11Q228.05-5.11 227.69-4.83Q227.34-4.54 227.16-4.07Q226.98-3.59 226.98-2.99L226.98-2.99Q226.98-2.41 227.16-1.93Q227.34-1.45 227.69-1.17Q228.05-0.89 228.59-0.89ZM235.57-3.55L235.57-3.55L235.57 0L234.38 0L234.38-6.04L235.52-6.04L235.53-4.56L235.38-4.56Q235.64-5.36 236.15-5.74Q236.66-6.13 237.38-6.13L237.38-6.13Q238.00-6.13 238.47-5.86Q238.94-5.60 239.20-5.09Q239.46-4.58 239.46-3.82L239.46-3.82L239.46 0L238.27 0L238.27-3.67Q238.27-4.34 237.93-4.71Q237.59-5.08 236.99-5.08L236.99-5.08Q236.58-5.08 236.26-4.91Q235.94-4.73 235.76-4.39Q235.57-4.05 235.57-3.55ZM249.55 0.12L249.55 0.12Q248.80 0.12 248.23-0.26Q247.66-0.64 247.33-1.34Q247.00-2.04 247.00-3.01L247.00-3.01Q247.00-3.98 247.33-4.68Q247.66-5.38 248.24-5.75Q248.82-6.13 249.55-6.13L249.55-6.13Q250.07-6.13 250.42-5.95Q250.77-5.78 250.98-5.54Q251.19-5.30 251.31-5.08L251.31-5.08L251.37-5.08L251.37-8.15L252.56-8.15L252.56 0L251.40 0L251.40-0.94L251.31-0.94Q251.19-0.71 250.98-0.47Q250.76-0.22 250.41-0.05Q250.07 0.12 249.55 0.12ZM249.80-0.90L249.80-0.90Q250.31-0.90 250.67-1.16Q251.02-1.43 251.21-1.91Q251.40-2.38 251.40-3.01L251.40-3.01Q251.40-3.65 251.21-4.12Q251.03-4.58 250.67-4.85Q250.32-5.11 249.80-5.11L249.80-5.11Q249.29-5.11 248.94-4.84Q248.59-4.57 248.40-4.10Q248.22-3.63 248.22-3.01L248.22-3.01Q248.22-2.40 248.40-1.92Q248.59-1.44 248.94-1.17Q249.30-0.90 249.80-0.90ZM257.51 0.13L257.51 0.13Q256.93 0.13 256.46-0.08Q256.00-0.30 255.73-0.71Q255.46-1.12 255.46-1.71L255.46-1.71Q255.46-2.23 255.65-2.56Q255.85-2.89 256.19-3.08Q256.52-3.27 256.94-3.37Q257.36-3.47 257.80-3.52L257.80-3.52Q258.34-3.58 258.67-3.63Q259.00-3.67 259.15-3.76Q259.31-3.86 259.31-4.07L259.31-4.07L259.31-4.10Q259.31-4.44 259.18-4.67Q259.05-4.90 258.79-5.03Q258.52-5.15 258.14-5.15L258.14-5.15Q257.75-5.15 257.47-5.03Q257.18-4.91 257.01-4.71Q256.83-4.52 256.76-4.30L256.76-4.30L255.62-4.52Q255.79-5.07 256.16-5.43Q256.53-5.78 257.04-5.95Q257.55-6.13 258.13-6.13L258.13-6.13Q258.53-6.13 258.95-6.03Q259.37-5.93 259.72-5.69Q260.08-5.46 260.29-5.05Q260.50-4.65 260.50-4.04L260.50-4.04L260.50 0L259.34 0L259.34-0.83L259.29-0.83Q259.17-0.60 258.94-0.38Q258.71-0.16 258.36-0.02Q258.00 0.13 257.51 0.13ZM257.77-0.83L257.77-0.83Q258.27-0.83 258.61-1.02Q258.96-1.21 259.14-1.53Q259.32-1.84 259.32-2.19L259.32-2.19L259.32-2.95Q259.26-2.89 259.08-2.84Q258.91-2.79 258.68-2.75Q258.46-2.71 258.24-2.68Q258.02-2.65 257.86-2.63L257.86-2.63Q257.53-2.59 257.25-2.49Q256.96-2.38 256.80-2.20Q256.63-2.01 256.63-1.70L256.63-1.70Q256.63-1.41 256.78-1.22Q256.92-1.03 257.18-0.93Q257.43-0.83 257.77-0.83ZM264.92 0L263.73 0L263.73-6.04L264.88-6.04L264.88-5.07L264.93-5.07Q265.10-5.56 265.51-5.84Q265.91-6.12 266.45-6.12L266.45-6.12Q266.57-6.12 266.71-6.11Q266.85-6.10 266.94-6.09L266.94-6.09L266.94-4.96Q266.88-4.98 266.69-5.00Q266.51-5.02 266.31-5.02L266.31-5.02Q265.92-5.02 265.60-4.85Q265.28-4.68 265.10-4.37Q264.92-4.06 264.92-3.65L264.92-3.65L264.92 0ZM271.81-3.12L270.72-2.03L270.72-3.48L270.90-3.48L273.32-6.04L274.77-6.04L272.01-3.12L271.81-3.12ZM270.81 0L269.62 0L269.62-8.15L270.81-8.15L270.81 0ZM274.93 0L273.46 0L271.29-2.85L272.11-3.69L274.93 0ZM283.26 0L282.06 0L282.06-6.04L283.20-6.04L283.22-4.66L283.13-4.66Q283.27-5.17 283.54-5.49Q283.82-5.82 284.18-5.98Q284.55-6.15 284.95-6.15L284.95-6.15Q285.61-6.15 286.04-5.74Q286.46-5.33 286.60-4.63L286.60-4.63L286.44-4.63Q286.56-5.11 286.85-5.45Q287.14-5.79 287.55-5.97Q287.97-6.15 288.45-6.15L288.45-6.15Q288.98-6.15 289.42-5.91Q289.86-5.68 290.12-5.21Q290.38-4.75 290.38-4.05L290.38-4.05L290.38 0L289.19 0L289.19-3.93Q289.19-4.55 288.84-4.82Q288.50-5.10 288.03-5.10L288.03-5.10Q287.65-5.10 287.38-4.94Q287.10-4.78 286.95-4.50Q286.81-4.22 286.81-3.85L286.81-3.85L286.81 0L285.63 0L285.63-4.01Q285.63-4.51 285.32-4.80Q285.00-5.10 284.51-5.10L284.51-5.10Q284.18-5.10 283.89-4.94Q283.60-4.79 283.43-4.48Q283.26-4.18 283.26-3.73L283.26-3.73L283.26 0ZM296.15 0.13L296.15 0.13Q295.30 0.13 294.66-0.27Q294.03-0.66 293.67-1.36Q293.32-2.06 293.32-2.99L293.32-2.99Q293.32-3.93 293.67-4.64Q294.03-5.34 294.66-5.73Q295.30-6.13 296.15-6.13L296.15-6.13Q297.01-6.13 297.65-5.73Q298.29-5.34 298.64-4.64Q298.99-3.93 298.99-2.99L298.99-2.99Q298.99-2.06 298.64-1.36Q298.29-0.66 297.65-0.27Q297.01 0.13 296.15 0.13ZM296.15-0.89L296.15-0.89Q296.70-0.89 297.06-1.17Q297.42-1.45 297.60-1.93Q297.78-2.41 297.78-2.99L297.78-2.99Q297.78-3.59 297.60-4.07Q297.42-4.54 297.06-4.83Q296.70-5.11 296.15-5.11L296.15-5.11Q295.61-5.11 295.25-4.83Q294.90-4.54 294.72-4.07Q294.53-3.59 294.53-2.99L294.53-2.99Q294.53-2.41 294.72-1.93Q294.90-1.45 295.25-1.17Q295.61-0.89 296.15-0.89ZM304.20 0.12L304.20 0.12Q303.46 0.12 302.88-0.26Q302.31-0.64 301.98-1.34Q301.66-2.04 301.66-3.01L301.66-3.01Q301.66-3.98 301.98-4.68Q302.31-5.38 302.89-5.75Q303.47-6.13 304.20-6.13L304.20-6.13Q304.72-6.13 305.07-5.95Q305.42-5.78 305.63-5.54Q305.84-5.30 305.96-5.08L305.96-5.08L306.02-5.08L306.02-8.15L307.21-8.15L307.21 0L306.05 0L306.05-0.94L305.97-0.94Q305.85-0.71 305.63-0.47Q305.41-0.22 305.06-0.05Q304.72 0.12 304.20 0.12ZM304.46-0.90L304.46-0.90Q304.96-0.90 305.32-1.16Q305.68-1.43 305.86-1.91Q306.05-2.38 306.05-3.01L306.05-3.01Q306.05-3.65 305.86-4.12Q305.68-4.58 305.33-4.85Q304.97-5.11 304.46-5.11L304.46-5.11Q303.94-5.11 303.59-4.84Q303.24-4.57 303.05-4.10Q302.87-3.63 302.87-3.01L302.87-3.01Q302.87-2.40 303.05-1.92Q303.24-1.44 303.59-1.17Q303.95-0.90 304.46-0.90ZM313.04 0.13L313.04 0.13Q312.14 0.13 311.50-0.26Q310.85-0.65 310.50-1.35Q310.16-2.05 310.16-2.99L310.16-2.99Q310.16-3.91 310.50-4.62Q310.84-5.33 311.47-5.73Q312.10-6.13 312.94-6.13L312.94-6.13Q313.49-6.13 313.98-5.94Q314.47-5.76 314.85-5.39Q315.23-5.01 315.44-4.44Q315.66-3.86 315.66-3.07L315.66-3.07L315.66-2.66L310.79-2.66L310.79-3.56L315.04-3.56L314.50-3.27Q314.50-3.82 314.32-4.25Q314.14-4.67 313.80-4.91Q313.45-5.14 312.94-5.14L312.94-5.14Q312.44-5.14 312.08-4.90Q311.73-4.66 311.53-4.26Q311.34-3.86 311.34-3.37L311.34-3.37L311.34-2.78Q311.34-2.18 311.55-1.74Q311.76-1.31 312.15-1.09Q312.53-0.86 313.05-0.86L313.05-0.86Q313.39-0.86 313.67-0.96Q313.95-1.06 314.15-1.26Q314.34-1.45 314.44-1.74L314.44-1.74L315.57-1.53Q315.43-1.04 315.08-0.66Q314.73-0.29 314.21-0.08Q313.69 0.13 313.04 0.13ZM319.42 0.09L319.42 0.09Q319.09 0.09 318.85-0.14Q318.62-0.38 318.62-0.71L318.62-0.71Q318.62-1.04 318.85-1.28Q319.09-1.51 319.42-1.51L319.42-1.51Q319.75-1.51 319.99-1.28Q320.22-1.04 320.22-0.71L320.22-0.71Q320.22-0.38 319.99-0.14Q319.75 0.09 319.42 0.09Z" fill="#0D1117" opacity="0.5" id="msvg-dn0fff0eprr" style="transform: translate(0px, 9.6px)"/>
</svg>
