<!--
By
 ███▄ ▄███▓ ▄▄▄       ██▓     ██▓     ▒█████   █     █░
▓██▒▀█▀ ██▒▒████▄    ▓██▒    ▓██▒    ▒██▒  ██▒▓█░ █ ░█░
▓██    ▓██░▒██  ▀█▄  ▒██░    ▒██░    ▒██░  ██▒▒█░ █ ░█ 
▒██    ▒██ ░██▄▄▄▄██ ▒██░    ▒██░    ▒██   ██░░█░ █ ░█ 
▒██▒   ░██▒ ▓█   ▓██▒░██████▒░██████▒░ ████▓▒░░░██▒██▓ 
░ ▒░   ░  ░ ▒▒   ▓▒█░░ ▒░▓  ░░ ▒░▓  ░░ ▒░▒░▒░ ░ ▓░▒ ▒  
░  ░      ░  ▒   ▒▒ ░░ ░ ▒  ░░ ░ ▒  ░  ░ ▒ ▒░   ▒ ░ ░  
░      ░     ░   ▒     ░ ░     ░ ░   ░ ░ ░ ▒    ░   ░  
       ░         ░  ░    ░  ░    ░  ░    ░ ░      ░    
Generated on 8/28/2025

The MIT License (MIT)

Copyright (c) Mallory SCOTTON

Permission is hereby granted, free of charge, to any person obtaining a copy
of this software and associated documentation files (the "Software"), to deal
in the Software without restriction, including without limitation the rights
to use, copy, modify, merge, publish, distribute, sublicense, and/or sell
copies of the Software, and to permit persons to whom the Software is
furnished to do so, subject to the following conditions:

The above copyright notice and this permission notice shall be included in
all copies or substantial portions of the Software.

THE SOFTWARE IS PROVIDED "AS IS", WITHOUT WARRANTY OF ANY KIND, EXPRESS OR
IMPLIED, INCLUDING BUT NOT LIMITED TO THE WARRANTIES OF MERCHANTABILITY,
FITNESS FOR A PARTICULAR PURPOSE AND NONINFRINGEMENT. IN NO EVENT SHALL THE
AUTHORS OR COPYRIGHT HOLDERS BE LIABLE FOR ANY CLAIM, DAMAGES OR OTHER
LIABILITY, WHETHER IN AN ACTION OF CONTRACT, TORT OR OTHERWISE, ARISING FROM,
OUT OF OR IN CONNECTION WITH THE SOFTWARE OR THE USE OR OTHER DEALINGS IN
THE SOFTWARE.

-->
<svg xmlns="http://www.w3.org/2000/svg" width="400" height="138.64" viewBox="0 0 400 138.64" fill="none">
  <path d="M1.35-12.73L3.30-12.73L3.30 0L1.35 0L1.35-12.73ZM7.86-5.55L7.86-5.55L7.86 0L5.99 0L5.99-9.43L7.79-9.43L7.80-7.12L7.56-7.12Q7.98-8.38 8.77-8.98Q9.57-9.57 10.69-9.57L10.69-9.57Q11.66-9.57 12.39-9.16Q13.12-8.75 13.53-7.95Q13.94-7.15 13.94-5.97L13.94-5.97L13.94 0L12.08 0L12.08-5.74Q12.08-6.78 11.54-7.36Q11.01-7.94 10.08-7.94L10.08-7.94Q9.45-7.94 8.94-7.66Q8.44-7.39 8.15-6.86Q7.86-6.33 7.86-5.55ZM15.46-9.43L20.65-9.43L20.65-7.91L15.46-7.91L15.46-9.43ZM16.89-2.37L16.89-11.75L18.76-11.75L18.76-2.54Q18.76-1.98 18.99-1.73Q19.22-1.47 19.78-1.47L19.78-1.47Q19.94-1.47 20.18-1.50Q20.42-1.53 20.59-1.56L20.59-1.56L20.86-0.05Q20.57 0.03 20.23 0.06Q19.90 0.09 19.57 0.09L19.57 0.09Q18.28 0.09 17.59-0.54Q16.89-1.18 16.89-2.37L16.89-2.37ZM26.62 0.20L26.62 0.20Q25.22 0.20 24.21-0.41Q23.20-1.02 22.66-2.11Q22.12-3.20 22.12-4.67L22.12-4.67Q22.12-6.11 22.65-7.22Q23.19-8.32 24.17-8.95Q25.16-9.57 26.46-9.57L26.46-9.57Q27.32-9.57 28.08-9.29Q28.85-9.01 29.44-8.42Q30.04-7.84 30.38-6.93Q30.72-6.03 30.72-4.79L30.72-4.79L30.72-4.16L23.11-4.16L23.11-5.56L29.75-5.56L28.90-5.11Q28.90-5.97 28.62-6.64Q28.34-7.30 27.80-7.66Q27.26-8.03 26.47-8.03L26.47-8.03Q25.69-8.03 25.13-7.66Q24.57-7.28 24.27-6.66Q23.97-6.03 23.97-5.26L23.97-5.26L23.97-4.35Q23.97-3.40 24.30-2.73Q24.63-2.05 25.23-1.70Q25.83-1.34 26.64-1.34L26.64-1.34Q27.17-1.34 27.61-1.50Q28.05-1.66 28.35-1.97Q28.66-2.27 28.81-2.72L28.81-2.72L30.58-2.39Q30.36-1.62 29.81-1.04Q29.27-0.45 28.45-0.13Q27.64 0.20 26.62 0.20ZM34.67 0L32.80 0L32.80-9.43L34.60-9.43L34.60-7.92L34.69-7.92Q34.95-8.69 35.58-9.13Q36.21-9.56 37.06-9.56L37.06-9.56Q37.24-9.56 37.46-9.55Q37.68-9.54 37.82-9.52L37.82-9.52L37.82-7.75Q37.72-7.78 37.44-7.81Q37.15-7.84 36.84-7.84L36.84-7.84Q36.23-7.84 35.73-7.58Q35.24-7.31 34.95-6.83Q34.67-6.35 34.67-5.70L34.67-5.70L34.67 0ZM41.39-5.55L41.39-5.55L41.39 0L39.52 0L39.52-9.43L41.31-9.43L41.32-7.12L41.08-7.12Q41.50-8.38 42.30-8.98Q43.09-9.57 44.22-9.57L44.22-9.57Q45.18-9.57 45.92-9.16Q46.65-8.75 47.06-7.95Q47.47-7.15 47.47-5.97L47.47-5.97L47.47 0L45.60 0L45.60-5.74Q45.60-6.78 45.07-7.36Q44.54-7.94 43.60-7.94L43.60-7.94Q42.97-7.94 42.47-7.66Q41.96-7.39 41.68-6.86Q41.39-6.33 41.39-5.55ZM51.10 3.02L49.75 3.02L50.49-1.84L52.48-1.84L51.10 3.02ZM64.15 0.21L64.15 0.21Q62.70 0.21 61.64-0.26Q60.58-0.73 59.98-1.60Q59.39-2.47 59.34-3.67L59.34-3.67L61.28-3.67Q61.33-2.95 61.71-2.46Q62.10-1.97 62.73-1.73Q63.36-1.48 64.14-1.48L64.14-1.48Q64.96-1.48 65.60-1.73Q66.23-1.99 66.60-2.45Q66.96-2.91 66.96-3.53L66.96-3.53Q66.96-4.08 66.66-4.43Q66.35-4.79 65.81-5.03Q65.27-5.27 64.54-5.46L64.54-5.46L63.06-5.84Q61.42-6.28 60.55-7.10Q59.67-7.92 59.67-9.24L59.67-9.24Q59.67-10.34 60.26-11.17Q60.84-12.00 61.86-12.45Q62.88-12.91 64.18-12.91L64.18-12.91Q65.51-12.91 66.51-12.45Q67.51-11.98 68.07-11.16Q68.63-10.35 68.67-9.28L68.67-9.28L66.78-9.28Q66.69-10.20 65.98-10.72Q65.26-11.23 64.15-11.23L64.15-11.23Q63.38-11.23 62.81-10.98Q62.23-10.74 61.92-10.31Q61.60-9.89 61.60-9.34L61.60-9.34Q61.60-8.77 61.94-8.40Q62.28-8.03 62.82-7.81Q63.35-7.59 63.93-7.43L63.93-7.43L65.19-7.11Q65.87-6.94 66.53-6.67Q67.19-6.39 67.72-5.97Q68.25-5.55 68.56-4.96Q68.87-4.36 68.87-3.54L68.87-3.54Q68.87-2.44 68.31-1.60Q67.75-0.75 66.69-0.27Q65.63 0.21 64.15 0.21ZM75.05 0.20L75.05 0.20Q73.72 0.20 72.73-0.41Q71.73-1.03 71.18-2.12Q70.63-3.22 70.63-4.67L70.63-4.67Q70.63-6.14 71.18-7.25Q71.73-8.35 72.73-8.96Q73.72-9.57 75.05-9.57L75.05-9.57Q76.40-9.57 77.39-8.96Q78.39-8.35 78.94-7.25Q79.49-6.14 79.49-4.67L79.49-4.67Q79.49-3.22 78.94-2.12Q78.39-1.03 77.39-0.41Q76.40 0.20 75.05 0.20ZM75.05-1.38L75.05-1.38Q75.90-1.38 76.47-1.82Q77.04-2.26 77.32-3.01Q77.60-3.76 77.60-4.67L77.60-4.67Q77.60-5.61 77.32-6.35Q77.04-7.10 76.47-7.55Q75.90-7.99 75.05-7.99L75.05-7.99Q74.21-7.99 73.65-7.55Q73.09-7.10 72.81-6.35Q72.52-5.61 72.52-4.67L72.52-4.67Q72.52-3.76 72.81-3.01Q73.09-2.26 73.65-1.82Q74.21-1.38 75.05-1.38ZM83.47 3.57L81.60 3.57L81.60-9.43L83.42-9.43L83.42-7.94L83.55-7.94Q83.75-8.28 84.08-8.66Q84.41-9.03 84.95-9.30Q85.49-9.57 86.31-9.57L86.31-9.57Q87.47-9.57 88.37-8.98Q89.26-8.40 89.77-7.31Q90.28-6.22 90.28-4.70L90.28-4.70Q90.28-3.19 89.78-2.09Q89.27-1.00 88.37-0.41Q87.48 0.19 86.31 0.19L86.31 0.19Q85.51 0.19 84.97-0.08Q84.43-0.35 84.09-0.73Q83.76-1.11 83.56-1.46L83.56-1.46L83.47-1.46L83.47 3.57ZM85.91-1.40L85.91-1.40Q86.70-1.40 87.26-1.83Q87.81-2.26 88.10-3.00Q88.39-3.75 88.39-4.71L88.39-4.71Q88.39-5.67 88.10-6.41Q87.81-7.14 87.26-7.56Q86.71-7.98 85.91-7.98L85.91-7.98Q85.11-7.98 84.55-7.57Q84.00-7.16 83.71-6.43Q83.42-5.70 83.42-4.71L83.42-4.71Q83.42-3.73 83.71-2.98Q84.00-2.24 84.56-1.82Q85.12-1.40 85.91-1.40ZM94.27 0L92.40 0L92.40-9.43L94.20-9.43L94.20-7.92L94.29-7.92Q94.55-8.69 95.18-9.13Q95.81-9.56 96.65-9.56L96.65-9.56Q96.84-9.56 97.06-9.55Q97.28-9.54 97.42-9.52L97.42-9.52L97.42-7.75Q97.32-7.78 97.03-7.81Q96.75-7.84 96.44-7.84L96.44-7.84Q95.82-7.84 95.33-7.58Q94.83-7.31 94.55-6.83Q94.27-6.35 94.27-5.70L94.27-5.70L94.27 0ZM101.81 0.20L101.81 0.20Q100.90 0.20 100.18-0.13Q99.45-0.46 99.03-1.10Q98.61-1.74 98.61-2.67L98.61-2.67Q98.61-3.48 98.92-3.99Q99.23-4.51 99.75-4.81Q100.27-5.11 100.92-5.26Q101.58-5.42 102.26-5.49L102.26-5.49Q103.11-5.60 103.63-5.67Q104.14-5.73 104.39-5.88Q104.63-6.02 104.63-6.36L104.63-6.36L104.63-6.41Q104.63-6.93 104.42-7.29Q104.22-7.66 103.81-7.85Q103.40-8.05 102.80-8.05L102.80-8.05Q102.19-8.05 101.75-7.86Q101.31-7.66 101.03-7.36Q100.75-7.06 100.64-6.72L100.64-6.72L98.87-7.07Q99.13-7.93 99.71-8.48Q100.29-9.03 101.08-9.30Q101.88-9.57 102.78-9.57L102.78-9.57Q103.42-9.57 104.07-9.42Q104.72-9.26 105.27-8.90Q105.83-8.53 106.16-7.90Q106.49-7.26 106.49-6.31L106.49-6.31L106.49 0L104.68 0L104.68-1.30L104.60-1.30Q104.42-0.93 104.06-0.59Q103.70-0.25 103.14-0.03Q102.59 0.20 101.81 0.20ZM102.22-1.30L102.22-1.30Q103.00-1.30 103.54-1.60Q104.07-1.90 104.36-2.38Q104.64-2.87 104.64-3.43L104.64-3.43L104.64-4.61Q104.54-4.52 104.27-4.44Q104.00-4.37 103.65-4.30Q103.30-4.24 102.95-4.19Q102.61-4.14 102.36-4.11L102.36-4.11Q101.84-4.04 101.40-3.88Q100.96-3.73 100.70-3.43Q100.44-3.14 100.44-2.65L100.44-2.65Q100.44-2.20 100.67-1.91Q100.90-1.61 101.30-1.45Q101.70-1.30 102.22-1.30ZM118.79 0L113.88 0L113.88-12.73L118.59-12.73Q119.94-12.73 120.84-12.29Q121.73-11.85 122.19-11.10Q122.64-10.35 122.64-9.39L122.64-9.39Q122.64-8.60 122.35-8.06Q122.07-7.52 121.58-7.18Q121.09-6.84 120.49-6.68L120.49-6.68L120.49-6.58Q121.14-6.53 121.75-6.16Q122.36-5.78 122.75-5.11Q123.14-4.43 123.14-3.46L123.14-3.46Q123.14-2.47 122.67-1.68Q122.20-0.90 121.23-0.45Q120.27 0 118.79 0L118.79 0ZM115.82-5.71L115.82-1.66L118.60-1.66Q119.96-1.66 120.58-2.18Q121.20-2.71 121.20-3.54L121.20-3.54Q121.20-4.15 120.89-4.64Q120.59-5.14 120.03-5.42Q119.46-5.71 118.68-5.71L118.68-5.71L115.82-5.71ZM115.82-11.08L115.82-7.23L118.44-7.23Q119.10-7.23 119.62-7.47Q120.14-7.72 120.43-8.16Q120.73-8.61 120.73-9.22L120.73-9.22Q120.73-10.03 120.17-10.56Q119.61-11.08 118.49-11.08L118.49-11.08L115.82-11.08ZM128.00 0.20L128.00 0.20Q127.10 0.20 126.37-0.13Q125.64-0.46 125.22-1.10Q124.80-1.74 124.80-2.67L124.80-2.67Q124.80-3.48 125.11-3.99Q125.42-4.51 125.94-4.81Q126.46-5.11 127.12-5.26Q127.77-5.42 128.45-5.49L128.45-5.49Q129.30-5.60 129.82-5.67Q130.33-5.73 130.58-5.88Q130.82-6.02 130.82-6.36L130.82-6.36L130.82-6.41Q130.82-6.93 130.62-7.29Q130.41-7.66 130.00-7.85Q129.59-8.05 128.99-8.05L128.99-8.05Q128.39-8.05 127.94-7.86Q127.50-7.66 127.22-7.36Q126.94-7.06 126.83-6.72L126.83-6.72L125.06-7.07Q125.33-7.93 125.90-8.48Q126.48-9.03 127.27-9.30Q128.07-9.57 128.98-9.57L128.98-9.57Q129.61-9.57 130.26-9.42Q130.91-9.26 131.47-8.90Q132.02-8.53 132.35-7.90Q132.68-7.26 132.68-6.31L132.68-6.31L132.68 0L130.87 0L130.87-1.30L130.80-1.30Q130.61-0.93 130.25-0.59Q129.89-0.25 129.33-0.03Q128.78 0.20 128.00 0.20ZM128.41-1.30L128.41-1.30Q129.19-1.30 129.73-1.60Q130.27-1.90 130.55-2.38Q130.83-2.87 130.83-3.43L130.83-3.43L130.83-4.61Q130.74-4.52 130.46-4.44Q130.19-4.37 129.84-4.30Q129.49-4.24 129.15-4.19Q128.80-4.14 128.55-4.11L128.55-4.11Q128.04-4.04 127.59-3.88Q127.15-3.73 126.89-3.43Q126.63-3.14 126.63-2.65L126.63-2.65Q126.63-2.20 126.86-1.91Q127.09-1.61 127.49-1.45Q127.89-1.30 128.41-1.30ZM137.10-5.55L137.10-5.55L137.10 0L135.23 0L135.23-9.43L137.03-9.43L137.04-7.12L136.80-7.12Q137.22-8.38 138.01-8.98Q138.80-9.57 139.93-9.57L139.93-9.57Q140.90-9.57 141.63-9.16Q142.36-8.75 142.77-7.95Q143.18-7.15 143.18-5.97L143.18-5.97L143.18 0L141.32 0L141.32-5.74Q141.32-6.78 140.78-7.36Q140.25-7.94 139.32-7.94L139.32-7.94Q138.69-7.94 138.18-7.66Q137.68-7.39 137.39-6.86Q137.10-6.33 137.10-5.55ZM149.16-4.87L147.46-3.18L147.46-5.44L147.75-5.44L151.53-9.43L153.79-9.43L149.47-4.87L149.16-4.87ZM147.61 0L145.74 0L145.74-12.73L147.61-12.73L147.61 0ZM154.04 0L151.75 0L148.35-4.46L149.63-5.77L154.04 0ZM157.39 0L155.52 0L155.52-9.43L157.39-9.43L157.39 0ZM156.46-10.91L156.46-10.91Q155.97-10.91 155.63-11.24Q155.29-11.57 155.29-12.03L155.29-12.03Q155.29-12.50 155.63-12.82Q155.97-13.14 156.46-13.14L156.46-13.14Q156.94-13.14 157.29-12.82Q157.63-12.50 157.63-12.03L157.63-12.03Q157.63-11.57 157.29-11.24Q156.94-10.91 156.46-10.91ZM161.81-5.55L161.81-5.55L161.81 0L159.94 0L159.94-9.43L161.73-9.43L161.74-7.12L161.50-7.12Q161.92-8.38 162.71-8.98Q163.51-9.57 164.64-9.57L164.64-9.57Q165.60-9.57 166.33-9.16Q167.06-8.75 167.47-7.95Q167.88-7.15 167.88-5.97L167.88-5.97L167.88 0L166.02 0L166.02-5.74Q166.02-6.78 165.49-7.36Q164.95-7.94 164.02-7.94L164.02-7.94Q163.39-7.94 162.89-7.66Q162.38-7.39 162.10-6.86Q161.81-6.33 161.81-5.55ZM174.43 3.76L174.43 3.76Q173.32 3.76 172.51 3.47Q171.69 3.18 171.16 2.67Q170.64 2.16 170.41 1.52L170.41 1.52L172.02 0.94Q172.19 1.25 172.48 1.55Q172.77 1.85 173.24 2.06Q173.71 2.26 174.42 2.26L174.42 2.26Q175.52 2.26 176.19 1.72Q176.85 1.19 176.85 0.09L176.85 0.09L176.85-1.67L176.72-1.67Q176.52-1.31 176.19-0.94Q175.86-0.58 175.32-0.33Q174.78-0.09 173.97-0.09L173.97-0.09Q172.84-0.09 171.94-0.63Q171.04-1.18 170.52-2.22Q170.01-3.26 170.01-4.75L170.01-4.75Q170.01-6.24 170.52-7.32Q171.04-8.40 171.94-8.98Q172.84-9.57 173.99-9.57L173.99-9.57Q174.81-9.57 175.35-9.31Q175.89-9.04 176.24-8.66Q176.58-8.27 176.77-7.92L176.77-7.92L176.88-7.92L176.88-9.43L178.70-9.43L178.70 0.09Q178.70 1.36 178.13 2.17Q177.57 2.98 176.60 3.37Q175.64 3.76 174.43 3.76ZM174.40-1.65L174.40-1.65Q175.19-1.65 175.75-2.03Q176.30-2.40 176.60-3.10Q176.89-3.80 176.89-4.78L176.89-4.78Q176.89-5.73 176.60-6.45Q176.30-7.17 175.75-7.58Q175.19-7.98 174.40-7.98L174.40-7.98Q173.60-7.98 173.04-7.57Q172.48-7.15 172.19-6.43Q171.90-5.71 171.90-4.78L171.90-4.78Q171.90-3.82 172.19-3.12Q172.49-2.42 173.04-2.03Q173.60-1.65 174.40-1.65ZM190.40 0.21L190.40 0.21Q188.96 0.21 187.89-0.26Q186.83-0.73 186.24-1.60Q185.64-2.47 185.59-3.67L185.59-3.67L187.53-3.67Q187.58-2.95 187.97-2.46Q188.35-1.97 188.98-1.73Q189.62-1.48 190.39-1.48L190.39-1.48Q191.21-1.48 191.85-1.73Q192.49-1.99 192.85-2.45Q193.21-2.91 193.21-3.53L193.21-3.53Q193.21-4.08 192.91-4.43Q192.61-4.79 192.06-5.03Q191.52-5.27 190.79-5.46L190.79-5.46L189.32-5.84Q187.68-6.28 186.80-7.10Q185.92-7.92 185.92-9.24L185.92-9.24Q185.92-10.34 186.51-11.17Q187.09-12.00 188.12-12.45Q189.14-12.91 190.44-12.91L190.44-12.91Q191.76-12.91 192.76-12.45Q193.76-11.98 194.32-11.16Q194.89-10.35 194.92-9.28L194.92-9.28L193.03-9.28Q192.95-10.20 192.23-10.72Q191.51-11.23 190.40-11.23L190.40-11.23Q189.63-11.23 189.06-10.98Q188.49-10.74 188.17-10.31Q187.86-9.89 187.86-9.34L187.86-9.34Q187.86-8.77 188.20-8.40Q188.54-8.03 189.07-7.81Q189.61-7.59 190.18-7.43L190.18-7.43L191.44-7.11Q192.13-6.94 192.79-6.67Q193.44-6.39 193.97-5.97Q194.50-5.55 194.82-4.96Q195.13-4.36 195.13-3.54L195.13-3.54Q195.13-2.44 194.57-1.60Q194.01-0.75 192.95-0.27Q191.89 0.21 190.40 0.21ZM201.31 0.20L201.31 0.20Q199.98 0.20 198.98-0.41Q197.98-1.03 197.43-2.12Q196.88-3.22 196.88-4.67L196.88-4.67Q196.88-6.14 197.43-7.25Q197.98-8.35 198.98-8.96Q199.98-9.57 201.31-9.57L201.31-9.57Q202.65-9.57 203.65-8.96Q204.64-8.35 205.19-7.25Q205.74-6.14 205.74-4.67L205.74-4.67Q205.74-3.22 205.19-2.12Q204.64-1.03 203.65-0.41Q202.65 0.20 201.31 0.20ZM201.31-1.38L201.31-1.38Q202.15-1.38 202.72-1.82Q203.29-2.26 203.57-3.01Q203.85-3.76 203.85-4.67L203.85-4.67Q203.85-5.61 203.57-6.35Q203.29-7.10 202.72-7.55Q202.15-7.99 201.31-7.99L201.31-7.99Q200.46-7.99 199.90-7.55Q199.34-7.10 199.06-6.35Q198.78-5.61 198.78-4.67L198.78-4.67Q198.78-3.76 199.06-3.01Q199.34-2.26 199.90-1.82Q200.46-1.38 201.31-1.38ZM206.81-9.43L212.51-9.43L212.51-7.91L206.81-7.91L206.81-9.43ZM210.45 0L208.58 0L208.58-10.61Q208.58-11.47 208.96-12.04Q209.34-12.61 209.97-12.90Q210.60-13.19 211.37-13.19L211.37-13.19Q211.88-13.19 212.27-13.13Q212.66-13.06 212.83-13.00L212.83-13.00L212.49-11.48Q212.37-11.52 212.15-11.55Q211.93-11.59 211.66-11.59L211.66-11.59Q211.02-11.59 210.73-11.28Q210.45-10.96 210.45-10.35L210.45-10.35L210.45 0ZM213.40-9.43L218.59-9.43L218.59-7.91L213.40-7.91L213.40-9.43ZM214.83-2.37L214.83-11.75L216.70-11.75L216.70-2.54Q216.70-1.98 216.94-1.73Q217.17-1.47 217.72-1.47L217.72-1.47Q217.88-1.47 218.12-1.50Q218.36-1.53 218.53-1.56L218.53-1.56L218.80-0.05Q218.51 0.03 218.17 0.06Q217.84 0.09 217.52 0.09L217.52 0.09Q216.23 0.09 215.53-0.54Q214.83-1.18 214.83-2.37L214.83-2.37ZM224.45 0L222.57 0L219.72-9.43L221.68-9.43L222.72-5.54Q222.96-4.64 223.22-3.57Q223.48-2.50 223.72-1.23L223.72-1.23L223.46-1.23Q223.70-2.47 223.96-3.54Q224.23-4.61 224.47-5.54L224.47-5.54L225.53-9.43L227.36-9.43L228.41-5.54Q228.64-4.62 228.90-3.55Q229.16-2.49 229.41-1.23L229.41-1.23L229.13-1.23Q229.38-2.48 229.64-3.55Q229.89-4.61 230.13-5.54L230.13-5.54L231.18-9.43L233.16-9.43L230.29 0L228.41 0L227.24-4.07Q227.06-4.68 226.90-5.34Q226.73-6.01 226.57-6.70Q226.41-7.39 226.24-8.06L226.24-8.06L226.63-8.06Q226.47-7.39 226.30-6.70Q226.13-6.01 225.97-5.34Q225.80-4.67 225.62-4.07L225.62-4.07L224.45 0ZM237.62 0.20L237.62 0.20Q236.71 0.20 235.99-0.13Q235.26-0.46 234.84-1.10Q234.42-1.74 234.42-2.67L234.42-2.67Q234.42-3.48 234.73-3.99Q235.04-4.51 235.56-4.81Q236.08-5.11 236.74-5.26Q237.39-5.42 238.07-5.49L238.07-5.49Q238.92-5.60 239.44-5.67Q239.95-5.73 240.20-5.88Q240.44-6.02 240.44-6.36L240.44-6.36L240.44-6.41Q240.44-6.93 240.24-7.29Q240.03-7.66 239.62-7.85Q239.21-8.05 238.61-8.05L238.61-8.05Q238.00-8.05 237.56-7.86Q237.12-7.66 236.84-7.36Q236.56-7.06 236.45-6.72L236.45-6.72L234.68-7.07Q234.95-7.93 235.52-8.48Q236.10-9.03 236.89-9.30Q237.69-9.57 238.59-9.57L238.59-9.57Q239.23-9.57 239.88-9.42Q240.53-9.26 241.09-8.90Q241.64-8.53 241.97-7.90Q242.30-7.26 242.30-6.31L242.30-6.31L242.30 0L240.49 0L240.49-1.30L240.41-1.30Q240.23-0.93 239.87-0.59Q239.51-0.25 238.95-0.03Q238.40 0.20 237.62 0.20ZM238.03-1.30L238.03-1.30Q238.81-1.30 239.35-1.60Q239.88-1.90 240.17-2.38Q240.45-2.87 240.45-3.43L240.45-3.43L240.45-4.61Q240.35-4.52 240.08-4.44Q239.81-4.37 239.46-4.30Q239.11-4.24 238.77-4.19Q238.42-4.14 238.17-4.11L238.17-4.11Q237.65-4.04 237.21-3.88Q236.77-3.73 236.51-3.43Q236.25-3.14 236.25-2.65L236.25-2.65Q236.25-2.20 236.48-1.91Q236.71-1.61 237.11-1.45Q237.51-1.30 238.03-1.30ZM246.72 0L244.85 0L244.85-9.43L246.66-9.43L246.66-7.92L246.74-7.92Q247.01-8.69 247.63-9.13Q248.26-9.56 249.11-9.56L249.11-9.56Q249.30-9.56 249.51-9.55Q249.73-9.54 249.88-9.52L249.88-9.52L249.88-7.75Q249.77-7.78 249.49-7.81Q249.20-7.84 248.89-7.84L248.89-7.84Q248.28-7.84 247.78-7.58Q247.29-7.31 247.01-6.83Q246.72-6.35 246.72-5.70L246.72-5.70L246.72 0ZM255.64 0.20L255.64 0.20Q254.24 0.20 253.23-0.41Q252.22-1.02 251.68-2.11Q251.14-3.20 251.14-4.67L251.14-4.67Q251.14-6.11 251.67-7.22Q252.21-8.32 253.20-8.95Q254.18-9.57 255.49-9.57L255.49-9.57Q256.34-9.57 257.11-9.29Q257.87-9.01 258.46-8.42Q259.06-7.84 259.40-6.93Q259.74-6.03 259.74-4.79L259.74-4.79L259.74-4.16L252.13-4.16L252.13-5.56L258.78-5.56L257.92-5.11Q257.92-5.97 257.64-6.64Q257.37-7.30 256.82-7.66Q256.28-8.03 255.49-8.03L255.49-8.03Q254.71-8.03 254.15-7.66Q253.59-7.28 253.29-6.66Q252.99-6.03 252.99-5.26L252.99-5.26L252.99-4.35Q252.99-3.40 253.32-2.73Q253.65-2.05 254.25-1.70Q254.85-1.34 255.66-1.34L255.66-1.34Q256.20-1.34 256.63-1.50Q257.07-1.66 257.37-1.97Q257.68-2.27 257.84-2.72L257.84-2.72L259.60-2.39Q259.38-1.62 258.84-1.04Q258.29-0.45 257.47-0.13Q256.66 0.20 255.64 0.20Z" fill="#F2F2F2" opacity="1" id="msvg-s8ufzlhq4" style="transform: translate(0px, 31.9px)"/>
  <path d="M4.04 0.13L4.04 0.13Q2.99 0.13 2.25-0.44Q1.52-1.01 1.12-2.09Q0.72-3.16 0.72-4.68L0.72-4.68Q0.72-6.19 1.12-7.27Q1.52-8.35 2.26-8.92Q3.00-9.50 4.04-9.50L4.04-9.50Q5.08-9.50 5.82-8.92Q6.57-8.35 6.96-7.27Q7.35-6.19 7.35-4.68L7.35-4.68Q7.35-3.17 6.96-2.09Q6.57-1.01 5.83-0.44Q5.09 0.13 4.04 0.13ZM4.04-0.91L4.04-0.91Q4.73-0.91 5.22-1.36Q5.70-1.80 5.96-2.65Q6.22-3.49 6.22-4.68L6.22-4.68Q6.22-5.87 5.96-6.72Q5.70-7.57 5.22-8.02Q4.73-8.47 4.04-8.47L4.04-8.47Q3.35-8.47 2.86-8.02Q2.37-7.57 2.11-6.72Q1.86-5.87 1.86-4.68L1.86-4.68Q1.86-3.49 2.11-2.65Q2.37-1.80 2.86-1.36Q3.35-0.91 4.04-0.91ZM11.82 0.13L11.82 0.13Q10.98 0.13 10.31-0.21Q9.64-0.55 9.24-1.13Q8.85-1.70 8.81-2.44L8.81-2.44L9.96-2.44Q10.01-2.00 10.26-1.65Q10.51-1.31 10.92-1.11Q11.33-0.91 11.82-0.91L11.82-0.91Q12.40-0.91 12.84-1.18Q13.29-1.45 13.54-1.92Q13.79-2.40 13.79-2.99L13.79-2.99Q13.79-3.60 13.53-4.08Q13.28-4.57 12.82-4.84Q12.37-5.12 11.78-5.12L11.78-5.12Q11.27-5.12 10.80-4.94Q10.33-4.77 10.06-4.47L10.06-4.47L8.95-4.57L9.45-9.37L14.49-9.37L14.49-8.33L10.47-8.33L10.16-5.53L10.21-5.53Q10.53-5.82 10.99-5.99Q11.46-6.16 11.98-6.16L11.98-6.16Q12.62-6.16 13.17-5.93Q13.71-5.70 14.11-5.27Q14.50-4.84 14.73-4.27Q14.95-3.70 14.95-3.01L14.95-3.01Q14.95-2.11 14.54-1.40Q14.14-0.69 13.43-0.28Q12.73 0.13 11.82 0.13ZM18.93-9.81L19.96-9.81L16.94 1.41L15.91 1.41L18.93-9.81ZM22.53-5.89L21.62-5.89L21.48-9.37L22.67-9.37L22.53-5.89ZM30.82 0L24.81 0L24.81-0.88L27.97-4.18Q28.51-4.75 28.86-5.17Q29.21-5.60 29.39-5.98Q29.56-6.37 29.56-6.82L29.56-6.82Q29.56-7.33 29.33-7.70Q29.10-8.08 28.70-8.27Q28.29-8.47 27.77-8.47L27.77-8.47Q27.21-8.47 26.81-8.24Q26.40-8.01 26.18-7.60Q25.96-7.19 25.96-6.63L25.96-6.63L24.84-6.63Q24.84-7.48 25.22-8.13Q25.60-8.78 26.27-9.14Q26.94-9.50 27.79-9.50L27.79-9.50Q28.64-9.50 29.29-9.15Q29.94-8.80 30.31-8.20Q30.68-7.60 30.68-6.84L30.68-6.84Q30.68-6.31 30.49-5.81Q30.30-5.32 29.84-4.73Q29.39-4.14 28.59-3.31L28.59-3.31L26.43-1.10L26.43-1.04L30.82-1.04L30.82 0ZM35.63 0.13L35.63 0.13Q34.70 0.13 33.98-0.20Q33.26-0.53 32.84-1.12Q32.42-1.71 32.40-2.49L32.40-2.49L33.59-2.49Q33.62-2.00 33.89-1.64Q34.15-1.28 34.60-1.09Q35.04-0.91 35.60-0.91L35.60-0.91Q36.21-0.91 36.67-1.11Q37.13-1.32 37.40-1.70Q37.67-2.08 37.67-2.58L37.67-2.58Q37.67-3.09 37.40-3.47Q37.14-3.86 36.65-4.07Q36.16-4.29 35.46-4.29L35.46-4.29L34.70-4.29L34.70-5.32L35.46-5.32Q36.02-5.32 36.45-5.52Q36.87-5.71 37.11-6.07Q37.34-6.42 37.34-6.90L37.34-6.90Q37.34-7.38 37.13-7.73Q36.92-8.09 36.53-8.28Q36.14-8.47 35.62-8.47L35.62-8.47Q35.11-8.47 34.69-8.29Q34.27-8.11 34.01-7.76Q33.75-7.42 33.74-6.93L33.74-6.93L32.60-6.93Q32.62-7.69 33.03-8.27Q33.44-8.85 34.12-9.18Q34.80-9.50 35.64-9.50L35.64-9.50Q36.51-9.50 37.15-9.15Q37.80-8.80 38.15-8.23Q38.50-7.65 38.50-6.96L38.50-6.96Q38.50-6.19 38.08-5.64Q37.65-5.08 36.92-4.86L36.92-4.86L36.92-4.80Q37.52-4.70 37.95-4.40Q38.38-4.09 38.60-3.62Q38.83-3.15 38.83-2.57L38.83-2.57Q38.83-1.79 38.41-1.18Q38.00-0.57 37.27-0.22Q36.55 0.13 35.63 0.13ZM43.09-4.48L49.53-4.48L49.53-3.44L43.09-3.44L43.09-4.48ZM57.10 0.13L57.10 0.13Q56.05 0.13 55.32-0.44Q54.58-1.01 54.18-2.09Q53.78-3.16 53.78-4.68L53.78-4.68Q53.78-6.19 54.18-7.27Q54.58-8.35 55.32-8.92Q56.06-9.50 57.10-9.50L57.10-9.50Q58.14-9.50 58.88-8.92Q59.63-8.35 60.02-7.27Q60.41-6.19 60.41-4.68L60.41-4.68Q60.41-3.17 60.02-2.09Q59.63-1.01 58.89-0.44Q58.15 0.13 57.10 0.13ZM57.10-0.91L57.10-0.91Q57.79-0.91 58.28-1.36Q58.77-1.80 59.02-2.65Q59.28-3.49 59.28-4.68L59.28-4.68Q59.28-5.87 59.02-6.72Q58.77-7.57 58.28-8.02Q57.79-8.47 57.10-8.47L57.10-8.47Q56.41-8.47 55.92-8.02Q55.43-7.57 55.17-6.72Q54.92-5.87 54.92-4.68L54.92-4.68Q54.92-3.49 55.17-2.65Q55.43-1.80 55.92-1.36Q56.41-0.91 57.10-0.91ZM64.88 0.13L64.88 0.13Q64.04 0.13 63.37-0.21Q62.70-0.55 62.31-1.13Q61.91-1.70 61.87-2.44L61.87-2.44L63.02-2.44Q63.07-2.00 63.32-1.65Q63.57-1.31 63.98-1.11Q64.39-0.91 64.88-0.91L64.88-0.91Q65.46-0.91 65.90-1.18Q66.35-1.45 66.60-1.92Q66.85-2.40 66.85-2.99L66.85-2.99Q66.85-3.60 66.59-4.08Q66.34-4.57 65.88-4.84Q65.43-5.12 64.84-5.12L64.84-5.12Q64.33-5.12 63.86-4.94Q63.39-4.77 63.12-4.47L63.12-4.47L62.01-4.57L62.51-9.37L67.55-9.37L67.55-8.33L63.53-8.33L63.22-5.53L63.27-5.53Q63.59-5.82 64.05-5.99Q64.52-6.16 65.04-6.16L65.04-6.16Q65.68-6.16 66.23-5.93Q66.77-5.70 67.17-5.27Q67.56-4.84 67.79-4.27Q68.01-3.70 68.01-3.01L68.01-3.01Q68.01-2.11 67.60-1.40Q67.20-0.69 66.49-0.28Q65.79 0.13 64.88 0.13ZM71.99-9.81L73.02-9.81L70.00 1.41L68.97 1.41L71.99-9.81ZM75.59-5.89L74.68-5.89L74.54-9.37L75.73-9.37L75.59-5.89ZM83.88 0L77.87 0L77.87-0.88L81.03-4.18Q81.57-4.75 81.92-5.17Q82.27-5.60 82.45-5.98Q82.63-6.37 82.63-6.82L82.63-6.82Q82.63-7.33 82.39-7.70Q82.16-8.08 81.76-8.27Q81.36-8.47 80.83-8.47L80.83-8.47Q80.27-8.47 79.87-8.24Q79.46-8.01 79.24-7.60Q79.02-7.19 79.02-6.63L79.02-6.63L77.90-6.63Q77.90-7.48 78.28-8.13Q78.66-8.78 79.33-9.14Q80.00-9.50 80.85-9.50L80.85-9.50Q81.70-9.50 82.35-9.15Q83.00-8.80 83.37-8.20Q83.75-7.60 83.75-6.84L83.75-6.84Q83.75-6.31 83.55-5.81Q83.36-5.32 82.91-4.73Q82.45-4.14 81.65-3.31L81.65-3.31L79.49-1.10L79.49-1.04L83.88-1.04L83.88 0ZM88.69 0.13L88.69 0.13Q87.76 0.13 87.04-0.20Q86.32-0.53 85.90-1.12Q85.48-1.71 85.46-2.49L85.46-2.49L86.65-2.49Q86.68-2.00 86.95-1.64Q87.21-1.28 87.66-1.09Q88.10-0.91 88.66-0.91L88.66-0.91Q89.27-0.91 89.73-1.11Q90.19-1.32 90.46-1.70Q90.73-2.08 90.73-2.58L90.73-2.58Q90.73-3.09 90.46-3.47Q90.20-3.86 89.71-4.07Q89.22-4.29 88.52-4.29L88.52-4.29L87.76-4.29L87.76-5.32L88.52-5.32Q89.08-5.32 89.51-5.52Q89.93-5.71 90.17-6.07Q90.41-6.42 90.41-6.90L90.41-6.90Q90.41-7.38 90.19-7.73Q89.98-8.09 89.59-8.28Q89.20-8.47 88.68-8.47L88.68-8.47Q88.17-8.47 87.75-8.29Q87.33-8.11 87.07-7.76Q86.81-7.42 86.80-6.93L86.80-6.93L85.66-6.93Q85.68-7.69 86.09-8.27Q86.50-8.85 87.18-9.18Q87.86-9.50 88.70-9.50L88.70-9.50Q89.57-9.50 90.21-9.15Q90.86-8.80 91.21-8.23Q91.56-7.65 91.56-6.96L91.56-6.96Q91.56-6.19 91.14-5.64Q90.71-5.08 89.98-4.86L89.98-4.86L89.98-4.80Q90.58-4.70 91.01-4.40Q91.44-4.09 91.66-3.62Q91.89-3.15 91.89-2.57L91.89-2.57Q91.89-1.79 91.47-1.18Q91.06-0.57 90.33-0.22Q89.61 0.13 88.69 0.13Z" fill="#F2F2F2" opacity="0.4" id="msvg-ny9x6tx4969" style="transform: translate(0px, 57.82px)"/>
  <path d="M4.86 0.13L4.86 0.13Q3.65 0.13 2.73-0.47Q1.80-1.06 1.28-2.14Q0.76-3.22 0.76-4.68L0.76-4.68Q0.76-6.14 1.28-7.22Q1.80-8.30 2.73-8.90Q3.65-9.50 4.86-9.50L4.86-9.50Q5.61-9.50 6.24-9.26Q6.87-9.03 7.36-8.61Q7.84-8.19 8.15-7.63Q8.47-7.07 8.58-6.41L8.58-6.41L7.69-6.41Q7.59-6.91 7.35-7.31Q7.10-7.72 6.73-8.03Q6.36-8.33 5.89-8.50Q5.41-8.67 4.86-8.67L4.86-8.67Q3.95-8.67 3.22-8.20Q2.49-7.74 2.06-6.85Q1.63-5.96 1.63-4.68L1.63-4.68Q1.63-3.40 2.06-2.51Q2.49-1.62 3.22-1.16Q3.96-0.70 4.86-0.70L4.86-0.70Q5.41-0.70 5.89-0.87Q6.36-1.04 6.73-1.34Q7.10-1.65 7.35-2.06Q7.59-2.47 7.69-2.96L7.69-2.96L8.58-2.96Q8.47-2.31 8.16-1.75Q7.85-1.19 7.36-0.77Q6.88-0.35 6.25-0.11Q5.61 0.13 4.86 0.13ZM11.58 0L10.73 0L10.73-6.94L11.54-6.94L11.54-5.85L11.60-5.85Q11.81-6.38 12.32-6.71Q12.83-7.04 13.49-7.04L13.49-7.04Q13.59-7.04 13.70-7.03Q13.82-7.02 13.90-7.02L13.90-7.02L13.90-6.18Q13.85-6.19 13.71-6.20Q13.57-6.22 13.40-6.22L13.40-6.22Q12.88-6.22 12.46-5.99Q12.05-5.77 11.81-5.36Q11.58-4.96 11.58-4.43L11.58-4.43L11.58 0ZM18.41 0.14L18.41 0.14Q17.44 0.14 16.73-0.31Q16.01-0.77 15.63-1.58Q15.24-2.38 15.24-3.43L15.24-3.43Q15.24-4.49 15.63-5.30Q16.01-6.12 16.70-6.58Q17.40-7.04 18.30-7.04L18.30-7.04Q18.90-7.04 19.44-6.83Q19.97-6.61 20.39-6.17Q20.81-5.74 21.05-5.08Q21.29-4.43 21.29-3.57L21.29-3.57L21.29-3.23L15.77-3.23L15.77-3.96L20.83-3.96L20.45-3.69Q20.45-4.44 20.19-5.03Q19.92-5.62 19.44-5.95Q18.96-6.29 18.30-6.29L18.30-6.29Q17.63-6.29 17.14-5.94Q16.64-5.60 16.36-5.02Q16.09-4.45 16.09-3.74L16.09-3.74L16.09-3.33Q16.09-2.52 16.37-1.91Q16.65-1.30 17.18-0.96Q17.70-0.62 18.41-0.62L18.41-0.62Q18.91-0.62 19.29-0.77Q19.67-0.93 19.93-1.20Q20.19-1.48 20.32-1.81L20.32-1.81L21.13-1.61Q20.97-1.13 20.60-0.73Q20.23-0.33 19.68-0.09Q19.12 0.14 18.41 0.14ZM25.20 0.14L25.20 0.14Q24.57 0.14 24.04-0.09Q23.52-0.33 23.21-0.80Q22.90-1.27 22.90-1.94L22.90-1.94Q22.90-2.47 23.09-2.82Q23.29-3.17 23.65-3.39Q24.02-3.62 24.51-3.75Q25.00-3.88 25.60-3.96L25.60-3.96Q26.19-4.03 26.59-4.08Q27.00-4.14 27.21-4.26Q27.42-4.38 27.42-4.64L27.42-4.64L27.42-4.79Q27.42-5.26 27.22-5.59Q27.03-5.92 26.66-6.11Q26.29-6.29 25.76-6.29L25.76-6.29Q25.26-6.29 24.88-6.13Q24.50-5.97 24.25-5.71Q24.01-5.45 23.91-5.13L23.91-5.13L23.08-5.34Q23.27-5.92 23.68-6.30Q24.08-6.67 24.62-6.86Q25.16-7.04 25.75-7.04L25.75-7.04Q26.19-7.04 26.64-6.92Q27.08-6.80 27.45-6.54Q27.81-6.27 28.04-5.83Q28.26-5.38 28.26-4.74L28.26-4.74L28.26 0L27.43 0L27.43-1.11L27.37-1.11Q27.23-0.79 26.94-0.50Q26.65-0.21 26.22-0.03Q25.79 0.14 25.20 0.14ZM25.33-0.61L25.33-0.61Q25.98-0.61 26.45-0.89Q26.91-1.16 27.17-1.64Q27.42-2.11 27.42-2.67L27.42-2.67L27.42-3.66Q27.33-3.58 27.13-3.51Q26.92-3.44 26.65-3.39Q26.39-3.33 26.11-3.30Q25.83-3.26 25.59-3.23L25.59-3.23Q25.02-3.16 24.60-3.00Q24.19-2.85 23.97-2.58Q23.75-2.32 23.75-1.91L23.75-1.91Q23.75-1.50 23.95-1.21Q24.16-0.92 24.52-0.76Q24.88-0.61 25.33-0.61ZM29.79-6.94L33.13-6.94L33.13-6.21L29.79-6.21L29.79-6.94ZM30.86-1.56L30.86-8.65L31.70-8.65L31.70-1.62Q31.70-1.13 31.92-0.89Q32.14-0.66 32.61-0.70L32.61-0.70Q32.71-0.70 32.85-0.72Q32.98-0.74 33.09-0.75L33.09-0.75L33.23-0.03Q33.09 0.01 32.92 0.03Q32.75 0.05 32.59 0.06L32.59 0.06Q31.77 0.10 31.31-0.33Q30.86-0.77 30.86-1.56L30.86-1.56ZM37.73 0.14L37.73 0.14Q36.75 0.14 36.04-0.31Q35.32-0.77 34.94-1.58Q34.55-2.38 34.55-3.43L34.55-3.43Q34.55-4.49 34.94-5.30Q35.32-6.12 36.02-6.58Q36.71-7.04 37.61-7.04L37.61-7.04Q38.21-7.04 38.75-6.83Q39.29-6.61 39.70-6.17Q40.12-5.74 40.36-5.08Q40.60-4.43 40.60-3.57L40.60-3.57L40.60-3.23L35.08-3.23L35.08-3.96L40.14-3.96L39.76-3.69Q39.76-4.44 39.50-5.03Q39.24-5.62 38.75-5.95Q38.27-6.29 37.61-6.29L37.61-6.29Q36.95-6.29 36.45-5.94Q35.95-5.60 35.68-5.02Q35.40-4.45 35.40-3.74L35.40-3.74L35.40-3.33Q35.40-2.52 35.68-1.91Q35.97-1.30 36.49-0.96Q37.02-0.62 37.73-0.62L37.73-0.62Q38.22-0.62 38.60-0.77Q38.98-0.93 39.24-1.20Q39.51-1.48 39.63-1.81L39.63-1.81L40.44-1.61Q40.29-1.13 39.91-0.73Q39.54-0.33 38.99-0.09Q38.43 0.14 37.73 0.14ZM45.16 0.14L45.16 0.14Q44.31 0.14 43.66-0.31Q43.01-0.76 42.64-1.57Q42.28-2.38 42.28-3.46L42.28-3.46Q42.28-4.53 42.64-5.34Q43.01-6.14 43.66-6.59Q44.31-7.04 45.17-7.04L45.17-7.04Q45.78-7.04 46.21-6.83Q46.64-6.62 46.92-6.29Q47.19-5.96 47.34-5.62L47.34-5.62L47.40-5.62L47.40-9.37L48.24-9.37L48.24 0L47.42 0L47.42-1.30L47.35-1.30Q47.19-0.95 46.91-0.62Q46.63-0.29 46.20-0.07Q45.77 0.14 45.16 0.14ZM45.28-0.62L45.28-0.62Q45.95-0.62 46.43-0.98Q46.91-1.35 47.17-1.99Q47.42-2.63 47.42-3.47L47.42-3.47Q47.42-4.30 47.17-4.93Q46.91-5.57 46.43-5.92Q45.96-6.28 45.28-6.28L45.28-6.28Q44.60-6.28 44.12-5.91Q43.64-5.55 43.39-4.92Q43.13-4.28 43.13-3.47L43.13-3.47Q43.13-2.65 43.39-2.00Q43.64-1.36 44.12-0.99Q44.60-0.62 45.28-0.62ZM54.60-9.37L55.45-9.37L55.45 0L54.60 0L54.60-9.37ZM60.61 0.14L60.61 0.14Q59.71 0.14 59.01-0.31Q58.31-0.77 57.92-1.58Q57.52-2.39 57.52-3.44L57.52-3.44Q57.52-4.51 57.92-5.32Q58.31-6.13 59.01-6.59Q59.71-7.04 60.61-7.04L60.61-7.04Q61.53-7.04 62.23-6.59Q62.92-6.13 63.31-5.32Q63.71-4.50 63.71-3.44L63.71-3.44Q63.71-2.39 63.31-1.58Q62.92-0.77 62.23-0.31Q61.53 0.14 60.61 0.14ZM60.61-0.62L60.61-0.62Q61.33-0.62 61.83-1.00Q62.33-1.38 62.59-2.02Q62.86-2.66 62.86-3.44L62.86-3.44Q62.86-4.23 62.59-4.88Q62.33-5.52 61.83-5.90Q61.32-6.28 60.61-6.28L60.61-6.28Q59.91-6.28 59.41-5.90Q58.91-5.52 58.64-4.87Q58.38-4.23 58.38-3.44L58.38-3.44Q58.38-2.65 58.64-2.02Q58.91-1.38 59.41-1.00Q59.91-0.62 60.61-0.62ZM68.48 2.76L68.48 2.76Q67.75 2.76 67.20 2.57Q66.64 2.37 66.27 2.02Q65.91 1.67 65.72 1.21L65.72 1.21L66.46 0.87Q66.60 1.18 66.85 1.44Q67.11 1.70 67.51 1.86Q67.91 2.01 68.48 2.01L68.48 2.01Q69.42 2.01 69.98 1.54Q70.55 1.06 70.55 0.10L70.55 0.10L70.55-1.40L70.48-1.40Q70.32-1.05 70.04-0.74Q69.76-0.43 69.33-0.23Q68.91-0.03 68.30-0.03L68.30-0.03Q67.47-0.03 66.81-0.45Q66.16-0.87 65.79-1.64Q65.41-2.42 65.41-3.48L65.41-3.48Q65.41-4.55 65.78-5.35Q66.15-6.15 66.80-6.60Q67.46-7.04 68.31-7.04L68.31-7.04Q68.92-7.04 69.35-6.83Q69.79-6.62 70.07-6.29Q70.35-5.96 70.50-5.61L70.50-5.61L70.57-5.61L70.57-6.94L71.38-6.94L71.38 0.13Q71.38 1.03 71.01 1.62Q70.63 2.20 69.97 2.48Q69.31 2.76 68.48 2.76ZM68.43-0.79L68.43-0.79Q69.09-0.79 69.57-1.12Q70.05-1.45 70.31-2.05Q70.57-2.66 70.57-3.50L70.57-3.50Q70.57-4.31 70.31-4.94Q70.06-5.57 69.58-5.92Q69.10-6.28 68.43-6.28L68.43-6.28Q67.75-6.28 67.26-5.91Q66.78-5.55 66.52-4.93Q66.27-4.30 66.27-3.50L66.27-3.50Q66.27-2.69 66.53-2.08Q66.79-1.47 67.27-1.13Q67.75-0.79 68.43-0.79ZM76.55 0.14L76.55 0.14Q75.64 0.14 74.95-0.31Q74.25-0.77 73.85-1.58Q73.46-2.39 73.46-3.44L73.46-3.44Q73.46-4.51 73.85-5.32Q74.25-6.13 74.95-6.59Q75.64-7.04 76.55-7.04L76.55-7.04Q77.47-7.04 78.16-6.59Q78.86-6.13 79.25-5.32Q79.64-4.50 79.64-3.44L79.64-3.44Q79.64-2.39 79.25-1.58Q78.86-0.77 78.16-0.31Q77.47 0.14 76.55 0.14ZM76.55-0.62L76.55-0.62Q77.27-0.62 77.77-1.00Q78.27-1.38 78.53-2.02Q78.80-2.66 78.80-3.44L78.80-3.44Q78.80-4.23 78.53-4.88Q78.27-5.52 77.76-5.90Q77.26-6.28 76.55-6.28L76.55-6.28Q75.85-6.28 75.35-5.90Q74.85-5.52 74.58-4.87Q74.32-4.23 74.32-3.44L74.32-3.44Q74.32-2.65 74.58-2.02Q74.85-1.38 75.35-1.00Q75.85-0.62 76.55-0.62ZM83.96 0.14L83.96 0.14Q83.26 0.14 82.72-0.07Q82.18-0.29 81.83-0.71Q81.49-1.13 81.38-1.74L81.38-1.74L82.19-1.89Q82.33-1.25 82.78-0.93Q83.23-0.60 83.94-0.60L83.94-0.60Q84.74-0.60 85.21-0.96Q85.68-1.31 85.68-1.85L85.68-1.85Q85.68-2.28 85.40-2.55Q85.11-2.82 84.54-2.96L84.54-2.96L83.41-3.23Q82.50-3.45 82.05-3.91Q81.60-4.37 81.60-5.08L81.60-5.08Q81.60-5.66 81.91-6.10Q82.23-6.55 82.78-6.80Q83.33-7.04 84.04-7.04L84.04-7.04Q84.70-7.04 85.19-6.83Q85.68-6.62 86.00-6.22Q86.31-5.83 86.43-5.29L86.43-5.29L85.65-5.13Q85.52-5.65 85.13-5.98Q84.74-6.31 84.04-6.31L84.04-6.31Q83.34-6.31 82.89-5.98Q82.45-5.64 82.45-5.11L82.45-5.11Q82.45-4.67 82.75-4.40Q83.06-4.12 83.68-3.97L83.68-3.97L84.77-3.71Q85.67-3.50 86.11-3.04Q86.55-2.59 86.55-1.89L86.55-1.89Q86.55-1.29 86.22-0.83Q85.89-0.37 85.31-0.11Q84.72 0.14 83.96 0.14ZM89.07 2.04L88.42 2.04L88.99-1.19L89.93-1.19L89.07 2.04ZM99.47 0.14L99.47 0.14Q98.87 0.14 98.44-0.07Q98.01-0.29 97.73-0.62Q97.45-0.95 97.29-1.30L97.29-1.30L97.22-1.30L97.22 0L96.40 0L96.40-9.37L97.24-9.37L97.24-5.62L97.30-5.62Q97.45-5.96 97.73-6.29Q98.00-6.62 98.43-6.83Q98.86-7.04 99.47-7.04L99.47-7.04Q100.33-7.04 100.98-6.59Q101.63-6.14 102.00-5.34Q102.36-4.53 102.36-3.46L102.36-3.46Q102.36-2.38 102.00-1.57Q101.64-0.76 100.99-0.31Q100.34 0.14 99.47 0.14ZM99.36-0.62L99.36-0.62Q100.04-0.62 100.52-0.99Q101.00-1.36 101.25-2.00Q101.51-2.65 101.51-3.47L101.51-3.47Q101.51-4.28 101.25-4.92Q101.00-5.55 100.52-5.91Q100.04-6.28 99.36-6.28L99.36-6.28Q98.69-6.28 98.21-5.92Q97.73-5.57 97.47-4.93Q97.22-4.30 97.22-3.47L97.22-3.47Q97.22-2.63 97.47-1.99Q97.73-1.35 98.21-0.98Q98.69-0.62 99.36-0.62ZM105.28 0L104.44 0L104.44-6.94L105.25-6.94L105.25-5.85L105.31-5.85Q105.52-6.38 106.02-6.71Q106.53-7.04 107.19-7.04L107.19-7.04Q107.30-7.04 107.41-7.03Q107.53-7.02 107.60-7.02L107.60-7.02L107.60-6.18Q107.56-6.19 107.42-6.20Q107.28-6.22 107.11-6.22L107.11-6.22Q106.58-6.22 106.17-5.99Q105.75-5.77 105.52-5.36Q105.28-4.96 105.28-4.43L105.28-4.43L105.28 0ZM111.19 0.14L111.19 0.14Q110.55 0.14 110.02-0.09Q109.50-0.33 109.19-0.80Q108.88-1.27 108.88-1.94L108.88-1.94Q108.88-2.47 109.08-2.82Q109.27-3.17 109.63-3.39Q110.00-3.62 110.49-3.75Q110.98-3.88 111.58-3.96L111.58-3.96Q112.17-4.03 112.57-4.08Q112.98-4.14 113.19-4.26Q113.40-4.38 113.40-4.64L113.40-4.64L113.40-4.79Q113.40-5.26 113.20-5.59Q113.01-5.92 112.64-6.11Q112.27-6.29 111.74-6.29L111.74-6.29Q111.24-6.29 110.86-6.13Q110.48-5.97 110.24-5.71Q109.99-5.45 109.89-5.13L109.89-5.13L109.07-5.34Q109.25-5.92 109.66-6.30Q110.06-6.67 110.60-6.86Q111.14-7.04 111.73-7.04L111.73-7.04Q112.17-7.04 112.62-6.92Q113.07-6.80 113.43-6.54Q113.80-6.27 114.02-5.83Q114.24-5.38 114.24-4.74L114.24-4.74L114.24 0L113.41 0L113.41-1.11L113.35-1.11Q113.21-0.79 112.92-0.50Q112.63-0.21 112.20-0.03Q111.77 0.14 111.19 0.14ZM111.31-0.61L111.31-0.61Q111.96-0.61 112.43-0.89Q112.90-1.16 113.15-1.64Q113.40-2.11 113.40-2.67L113.40-2.67L113.40-3.66Q113.31-3.58 113.11-3.51Q112.90-3.44 112.63-3.39Q112.37-3.33 112.09-3.30Q111.81-3.26 111.57-3.23L111.57-3.23Q111.00-3.16 110.58-3.00Q110.17-2.85 109.95-2.58Q109.73-2.32 109.73-1.91L109.73-1.91Q109.73-1.50 109.93-1.21Q110.14-0.92 110.50-0.76Q110.86-0.61 111.31-0.61ZM117.53-4.30L117.53-4.30L117.53 0L116.69 0L116.69-6.94L117.50-6.94L117.51-5.32L117.36-5.32Q117.65-6.23 118.26-6.63Q118.88-7.04 119.68-7.04L119.68-7.04Q120.39-7.04 120.93-6.75Q121.48-6.45 121.79-5.88Q122.09-5.31 122.09-4.47L122.09-4.47L122.09 0L121.25 0L121.25-4.41Q121.25-5.28 120.77-5.77Q120.28-6.27 119.47-6.27L119.47-6.27Q118.92-6.27 118.48-6.04Q118.04-5.80 117.79-5.36Q117.53-4.92 117.53-4.30ZM127.06 0.14L127.06 0.14Q126.20 0.14 125.55-0.31Q124.90-0.76 124.54-1.57Q124.17-2.38 124.17-3.46L124.17-3.46Q124.17-4.53 124.54-5.34Q124.90-6.14 125.56-6.59Q126.21-7.04 127.07-7.04L127.07-7.04Q127.68-7.04 128.11-6.83Q128.54-6.62 128.81-6.29Q129.09-5.96 129.24-5.62L129.24-5.62L129.29-5.62L129.29-9.37L130.13-9.37L130.13 0L129.32 0L129.32-1.30L129.24-1.30Q129.09-0.95 128.81-0.62Q128.52-0.29 128.10-0.07Q127.67 0.14 127.06 0.14ZM127.17-0.62L127.17-0.62Q127.85-0.62 128.33-0.98Q128.81-1.35 129.06-1.99Q129.32-2.63 129.32-3.47L129.32-3.47Q129.32-4.30 129.06-4.93Q128.81-5.57 128.33-5.92Q127.85-6.28 127.17-6.28L127.17-6.28Q126.49-6.28 126.02-5.91Q125.54-5.55 125.28-4.92Q125.03-4.28 125.03-3.47L125.03-3.47Q125.03-2.65 125.28-2.00Q125.54-1.36 126.02-0.99Q126.50-0.62 127.17-0.62ZM133.43 0L132.58 0L132.58-6.94L133.43-6.94L133.43 0ZM133.01-8.28L133.01-8.28Q132.75-8.28 132.57-8.45Q132.39-8.63 132.39-8.87L132.39-8.87Q132.39-9.12 132.57-9.29Q132.75-9.47 133.01-9.47L133.01-9.47Q133.26-9.47 133.44-9.29Q133.62-9.12 133.62-8.87L133.62-8.87Q133.62-8.63 133.44-8.45Q133.26-8.28 133.01-8.28ZM136.72-4.30L136.72-4.30L136.72 0L135.88 0L135.88-6.94L136.69-6.94L136.69-5.32L136.54-5.32Q136.83-6.23 137.45-6.63Q138.07-7.04 138.86-7.04L138.86-7.04Q139.57-7.04 140.12-6.75Q140.66-6.45 140.97-5.88Q141.28-5.31 141.28-4.47L141.28-4.47L141.28 0L140.44 0L140.44-4.41Q140.44-5.28 139.95-5.77Q139.47-6.27 138.66-6.27L138.66-6.27Q138.11-6.27 137.67-6.04Q137.23-5.80 136.97-5.36Q136.72-4.92 136.72-4.30ZM146.42 2.76L146.42 2.76Q145.70 2.76 145.14 2.57Q144.58 2.37 144.22 2.02Q143.85 1.67 143.67 1.21L143.67 1.21L144.40 0.87Q144.54 1.18 144.79 1.44Q145.05 1.70 145.45 1.86Q145.85 2.01 146.42 2.01L146.42 2.01Q147.36 2.01 147.93 1.54Q148.49 1.06 148.49 0.10L148.49 0.10L148.49-1.40L148.42-1.40Q148.26-1.05 147.98-0.74Q147.70-0.43 147.28-0.23Q146.85-0.03 146.24-0.03L146.24-0.03Q145.41-0.03 144.75-0.45Q144.10-0.87 143.73-1.64Q143.36-2.42 143.36-3.48L143.36-3.48Q143.36-4.55 143.73-5.35Q144.09-6.15 144.75-6.60Q145.40-7.04 146.26-7.04L146.26-7.04Q146.87-7.04 147.30-6.83Q147.73-6.62 148.01-6.29Q148.29-5.96 148.44-5.61L148.44-5.61L148.51-5.61L148.51-6.94L149.33-6.94L149.33 0.13Q149.33 1.03 148.95 1.62Q148.57 2.20 147.91 2.48Q147.26 2.76 146.42 2.76ZM146.37-0.79L146.37-0.79Q147.04-0.79 147.51-1.12Q147.99-1.45 148.25-2.05Q148.51-2.66 148.51-3.50L148.51-3.50Q148.51-4.31 148.26-4.94Q148.01-5.57 147.52-5.92Q147.04-6.28 146.37-6.28L146.37-6.28Q145.69-6.28 145.21-5.91Q144.72-5.55 144.47-4.93Q144.21-4.30 144.21-3.50L144.21-3.50Q144.21-2.69 144.47-2.08Q144.73-1.47 145.21-1.13Q145.69-0.79 146.37-0.79ZM158.38 2.76L158.38 2.76Q157.66 2.76 157.10 2.57Q156.55 2.37 156.18 2.02Q155.81 1.67 155.63 1.21L155.63 1.21L156.36 0.87Q156.50 1.18 156.76 1.44Q157.01 1.70 157.41 1.86Q157.81 2.01 158.38 2.01L158.38 2.01Q159.33 2.01 159.89 1.54Q160.45 1.06 160.45 0.10L160.45 0.10L160.45-1.40L160.38-1.40Q160.23-1.05 159.95-0.74Q159.67-0.43 159.24-0.23Q158.81-0.03 158.21-0.03L158.21-0.03Q157.37-0.03 156.72-0.45Q156.06-0.87 155.69-1.64Q155.32-2.42 155.32-3.48L155.32-3.48Q155.32-4.55 155.69-5.35Q156.06-6.15 156.71-6.60Q157.36-7.04 158.22-7.04L158.22-7.04Q158.83-7.04 159.26-6.83Q159.69-6.62 159.97-6.29Q160.25-5.96 160.40-5.61L160.40-5.61L160.47-5.61L160.47-6.94L161.29-6.94L161.29 0.13Q161.29 1.03 160.91 1.62Q160.53 2.20 159.88 2.48Q159.22 2.76 158.38 2.76ZM158.33-0.79L158.33-0.79Q159.00-0.79 159.48-1.12Q159.96-1.45 160.21-2.05Q160.47-2.66 160.47-3.50L160.47-3.50Q160.47-4.31 160.22-4.94Q159.97-5.57 159.49-5.92Q159.01-6.28 158.33-6.28L158.33-6.28Q157.65-6.28 157.17-5.91Q156.68-5.55 156.43-4.93Q156.18-4.30 156.18-3.50L156.18-3.50Q156.18-2.69 156.43-2.08Q156.69-1.47 157.17-1.13Q157.65-0.79 158.33-0.79ZM166.15 0.10L166.15 0.10Q165.45 0.10 164.90-0.20Q164.35-0.50 164.05-1.07Q163.74-1.65 163.74-2.47L163.74-2.47L163.74-6.94L164.58-6.94L164.58-2.53Q164.58-1.67 165.07-1.17Q165.55-0.67 166.36-0.67L166.36-0.67Q166.91-0.67 167.35-0.91Q167.79-1.14 168.04-1.58Q168.30-2.03 168.30-2.64L168.30-2.64L168.30-6.94L169.14-6.94L169.14 0L168.32 0L168.32-1.62L168.47-1.62Q168.18-0.71 167.56-0.31Q166.94 0.10 166.15 0.10ZM172.43 0L171.59 0L171.59-6.94L172.43-6.94L172.43 0ZM172.01-8.28L172.01-8.28Q171.76-8.28 171.58-8.45Q171.40-8.63 171.40-8.87L171.40-8.87Q171.40-9.12 171.58-9.29Q171.76-9.47 172.01-9.47L172.01-9.47Q172.26-9.47 172.45-9.29Q172.63-9.12 172.63-8.87L172.63-8.87Q172.63-8.63 172.45-8.45Q172.26-8.28 172.01-8.28ZM177.40 0.14L177.40 0.14Q176.54 0.14 175.89-0.31Q175.24-0.76 174.88-1.57Q174.51-2.38 174.51-3.46L174.51-3.46Q174.51-4.53 174.88-5.34Q175.24-6.14 175.90-6.59Q176.55-7.04 177.40-7.04L177.40-7.04Q178.01-7.04 178.45-6.83Q178.88-6.62 179.15-6.29Q179.43-5.96 179.57-5.62L179.57-5.62L179.63-5.62L179.63-9.37L180.47-9.37L180.47 0L179.66 0L179.66-1.30L179.58-1.30Q179.43-0.95 179.15-0.62Q178.86-0.29 178.44-0.07Q178.01 0.14 177.40 0.14ZM177.51-0.62L177.51-0.62Q178.18-0.62 178.67-0.98Q179.15-1.35 179.40-1.99Q179.66-2.63 179.66-3.47L179.66-3.47Q179.66-4.30 179.40-4.93Q179.15-5.57 178.67-5.92Q178.19-6.28 177.51-6.28L177.51-6.28Q176.83-6.28 176.35-5.91Q175.88-5.55 175.62-4.92Q175.37-4.28 175.37-3.47L175.37-3.47Q175.37-2.65 175.62-2.00Q175.88-1.36 176.36-0.99Q176.84-0.62 177.51-0.62ZM185.73 0.14L185.73 0.14Q184.75 0.14 184.04-0.31Q183.33-0.77 182.94-1.58Q182.55-2.38 182.55-3.43L182.55-3.43Q182.55-4.49 182.94-5.30Q183.33-6.12 184.02-6.58Q184.71-7.04 185.61-7.04L185.61-7.04Q186.21-7.04 186.75-6.83Q187.29-6.61 187.71-6.17Q188.12-5.74 188.36-5.08Q188.60-4.43 188.60-3.57L188.60-3.57L188.60-3.23L183.09-3.23L183.09-3.96L188.14-3.96L187.76-3.69Q187.76-4.44 187.50-5.03Q187.24-5.62 186.76-5.95Q186.28-6.29 185.61-6.29L185.61-6.29Q184.95-6.29 184.45-5.94Q183.96-5.60 183.68-5.02Q183.40-4.45 183.40-3.74L183.40-3.74L183.40-3.33Q183.40-2.52 183.68-1.91Q183.97-1.30 184.49-0.96Q185.02-0.62 185.73-0.62L185.73-0.62Q186.23-0.62 186.61-0.77Q186.99-0.93 187.25-1.20Q187.51-1.48 187.63-1.81L187.63-1.81L188.45-1.61Q188.29-1.13 187.92-0.73Q187.55-0.33 186.99-0.09Q186.43 0.14 185.73 0.14ZM190.65-9.37L191.49-9.37L191.49 0L190.65 0L190.65-9.37ZM194.79 0L193.94 0L193.94-6.94L194.79-6.94L194.79 0ZM194.36-8.28L194.36-8.28Q194.11-8.28 193.93-8.45Q193.75-8.63 193.75-8.87L193.75-8.87Q193.75-9.12 193.93-9.29Q194.11-9.47 194.36-9.47L194.36-9.47Q194.62-9.47 194.80-9.29Q194.98-9.12 194.98-8.87L194.98-8.87Q194.98-8.63 194.80-8.45Q194.62-8.28 194.36-8.28ZM198.08-4.30L198.08-4.30L198.08 0L197.24 0L197.24-6.94L198.05-6.94L198.05-5.32L197.90-5.32Q198.19-6.23 198.81-6.63Q199.42-7.04 200.22-7.04L200.22-7.04Q200.93-7.04 201.48-6.75Q202.02-6.45 202.33-5.88Q202.64-5.31 202.64-4.47L202.64-4.47L202.64 0L201.79 0L201.79-4.41Q201.79-5.28 201.31-5.77Q200.83-6.27 200.01-6.27L200.01-6.27Q199.47-6.27 199.03-6.04Q198.59-5.80 198.33-5.36Q198.08-4.92 198.08-4.30ZM207.89 0.14L207.89 0.14Q206.92 0.14 206.20-0.31Q205.49-0.77 205.10-1.58Q204.72-2.38 204.72-3.43L204.72-3.43Q204.72-4.49 205.10-5.30Q205.49-6.12 206.18-6.58Q206.87-7.04 207.77-7.04L207.77-7.04Q208.38-7.04 208.91-6.83Q209.45-6.61 209.87-6.17Q210.29-5.74 210.53-5.08Q210.77-4.43 210.77-3.57L210.77-3.57L210.77-3.23L205.25-3.23L205.25-3.96L210.31-3.96L209.92-3.69Q209.92-4.44 209.66-5.03Q209.40-5.62 208.92-5.95Q208.44-6.29 207.77-6.29L207.77-6.29Q207.11-6.29 206.62-5.94Q206.12-5.60 205.84-5.02Q205.57-4.45 205.57-3.74L205.57-3.74L205.57-3.33Q205.57-2.52 205.85-1.91Q206.13-1.30 206.66-0.96Q207.18-0.62 207.89-0.62L207.89-0.62Q208.39-0.62 208.77-0.77Q209.15-0.93 209.41-1.20Q209.67-1.48 209.80-1.81L209.80-1.81L210.61-1.61Q210.45-1.13 210.08-0.73Q209.71-0.33 209.15-0.09Q208.60 0.14 207.89 0.14ZM215.05 0.14L215.05 0.14Q214.35 0.14 213.81-0.07Q213.27-0.29 212.92-0.71Q212.58-1.13 212.47-1.74L212.47-1.74L213.29-1.89Q213.42-1.25 213.87-0.93Q214.32-0.60 215.03-0.60L215.03-0.60Q215.83-0.60 216.30-0.96Q216.78-1.31 216.78-1.85L216.78-1.85Q216.78-2.28 216.49-2.55Q216.20-2.82 215.63-2.96L215.63-2.96L214.50-3.23Q213.59-3.45 213.14-3.91Q212.69-4.37 212.69-5.08L212.69-5.08Q212.69-5.66 213.00-6.10Q213.32-6.55 213.87-6.80Q214.42-7.04 215.13-7.04L215.13-7.04Q215.79-7.04 216.29-6.83Q216.78-6.62 217.09-6.22Q217.40-5.83 217.52-5.29L217.52-5.29L216.74-5.13Q216.61-5.65 216.22-5.98Q215.83-6.31 215.13-6.31L215.13-6.31Q214.43-6.31 213.98-5.98Q213.54-5.64 213.54-5.11L213.54-5.11Q213.54-4.67 213.84-4.40Q214.15-4.12 214.78-3.97L214.78-3.97L215.86-3.71Q216.76-3.50 217.20-3.04Q217.64-2.59 217.64-1.89L217.64-1.89Q217.64-1.29 217.31-0.83Q216.98-0.37 216.40-0.11Q215.81 0.14 215.05 0.14ZM220.16 2.04L219.51 2.04L220.08-1.19L221.02-1.19L220.16 2.04ZM229.36 0.14L229.36 0.14Q228.72 0.14 228.20-0.09Q227.67-0.33 227.36-0.80Q227.05-1.27 227.05-1.94L227.05-1.94Q227.05-2.47 227.25-2.82Q227.45-3.17 227.81-3.39Q228.17-3.62 228.66-3.75Q229.16-3.88 229.75-3.96L229.75-3.96Q230.35-4.03 230.75-4.08Q231.15-4.14 231.36-4.26Q231.57-4.38 231.57-4.64L231.57-4.64L231.57-4.79Q231.57-5.26 231.38-5.59Q231.18-5.92 230.81-6.11Q230.45-6.29 229.92-6.29L229.92-6.29Q229.41-6.29 229.03-6.13Q228.65-5.97 228.41-5.71Q228.16-5.45 228.06-5.13L228.06-5.13L227.24-5.34Q227.43-5.92 227.83-6.30Q228.23-6.67 228.77-6.86Q229.31-7.04 229.90-7.04L229.90-7.04Q230.35-7.04 230.79-6.92Q231.24-6.80 231.60-6.54Q231.97-6.27 232.19-5.83Q232.41-5.38 232.41-4.74L232.41-4.74L232.41 0L231.58 0L231.58-1.11L231.53-1.11Q231.38-0.79 231.09-0.50Q230.80-0.21 230.37-0.03Q229.94 0.14 229.36 0.14ZM229.48-0.61L229.48-0.61Q230.13-0.61 230.60-0.89Q231.07-1.16 231.32-1.64Q231.57-2.11 231.57-2.67L231.57-2.67L231.57-3.66Q231.48-3.58 231.28-3.51Q231.07-3.44 230.81-3.39Q230.54-3.33 230.26-3.30Q229.99-3.26 229.75-3.23L229.75-3.23Q229.17-3.16 228.75-3.00Q228.34-2.85 228.12-2.58Q227.90-2.32 227.90-1.91L227.90-1.91Q227.90-1.50 228.11-1.21Q228.31-0.92 228.67-0.76Q229.03-0.61 229.48-0.61ZM235.71-4.30L235.71-4.30L235.71 0L234.86 0L234.86-6.94L235.68-6.94L235.68-5.32L235.53-5.32Q235.82-6.23 236.44-6.63Q237.05-7.04 237.85-7.04L237.85-7.04Q238.56-7.04 239.11-6.75Q239.65-6.45 239.96-5.88Q240.27-5.31 240.27-4.47L240.27-4.47L240.27 0L239.42 0L239.42-4.41Q239.42-5.28 238.94-5.77Q238.46-6.27 237.64-6.27L237.64-6.27Q237.10-6.27 236.66-6.04Q236.22-5.80 235.96-5.36Q235.71-4.92 235.71-4.30ZM245.23 0.14L245.23 0.14Q244.38 0.14 243.73-0.31Q243.07-0.76 242.71-1.57Q242.35-2.38 242.35-3.46L242.35-3.46Q242.35-4.53 242.71-5.34Q243.07-6.14 243.73-6.59Q244.38-7.04 245.24-7.04L245.24-7.04Q245.85-7.04 246.28-6.83Q246.71-6.62 246.99-6.29Q247.26-5.96 247.41-5.62L247.41-5.62L247.46-5.62L247.46-9.37L248.31-9.37L248.31 0L247.49 0L247.49-1.30L247.41-1.30Q247.26-0.95 246.98-0.62Q246.70-0.29 246.27-0.07Q245.84 0.14 245.23 0.14ZM245.34-0.62L245.34-0.62Q246.02-0.62 246.50-0.98Q246.98-1.35 247.23-1.99Q247.49-2.63 247.49-3.47L247.49-3.47Q247.49-4.30 247.23-4.93Q246.98-5.57 246.50-5.92Q246.02-6.28 245.34-6.28L245.34-6.28Q244.67-6.28 244.19-5.91Q243.71-5.55 243.46-4.92Q243.20-4.28 243.20-3.47L243.20-3.47Q243.20-2.65 243.46-2.00Q243.71-1.36 244.19-0.99Q244.67-0.62 245.34-0.62ZM257.61 0L256.71 0L254.04-6.94L254.95-6.94L256.57-2.60Q256.78-2.04 256.95-1.47Q257.12-0.91 257.30-0.36L257.30-0.36L257.02-0.36Q257.21-0.91 257.38-1.47Q257.55-2.04 257.76-2.60L257.76-2.60L259.37-6.94L260.28-6.94L257.61 0ZM262.94 0L262.10 0L262.10-6.94L262.94-6.94L262.94 0ZM262.52-8.28L262.52-8.28Q262.27-8.28 262.08-8.45Q261.90-8.63 261.90-8.87L261.90-8.87Q261.90-9.12 262.08-9.29Q262.27-9.47 262.52-9.47L262.52-9.47Q262.77-9.47 262.95-9.29Q263.13-9.12 263.13-8.87L263.13-8.87Q263.13-8.63 262.95-8.45Q262.77-8.28 262.52-8.28ZM267.90 0.14L267.90 0.14Q267.05 0.14 266.40-0.31Q265.75-0.76 265.38-1.57Q265.02-2.38 265.02-3.46L265.02-3.46Q265.02-4.53 265.38-5.34Q265.75-6.14 266.40-6.59Q267.06-7.04 267.91-7.04L267.91-7.04Q268.52-7.04 268.95-6.83Q269.38-6.62 269.66-6.29Q269.94-5.96 270.08-5.62L270.08-5.62L270.14-5.62L270.14-9.37L270.98-9.37L270.98 0L270.16 0L270.16-1.30L270.09-1.30Q269.94-0.95 269.65-0.62Q269.37-0.29 268.94-0.07Q268.51 0.14 267.90 0.14ZM268.02-0.62L268.02-0.62Q268.69-0.62 269.17-0.98Q269.65-1.35 269.91-1.99Q270.16-2.63 270.16-3.47L270.16-3.47Q270.16-4.30 269.91-4.93Q269.65-5.57 269.18-5.92Q268.70-6.28 268.02-6.28L268.02-6.28Q267.34-6.28 266.86-5.91Q266.38-5.55 266.13-4.92Q265.87-4.28 265.87-3.47L265.87-3.47Q265.87-2.65 266.13-2.00Q266.38-1.36 266.86-0.99Q267.34-0.62 268.02-0.62ZM276.23 0.14L276.23 0.14Q275.26 0.14 274.55-0.31Q273.83-0.77 273.45-1.58Q273.06-2.38 273.06-3.43L273.06-3.43Q273.06-4.49 273.45-5.30Q273.83-6.12 274.52-6.58Q275.22-7.04 276.12-7.04L276.12-7.04Q276.72-7.04 277.26-6.83Q277.79-6.61 278.21-6.17Q278.63-5.74 278.87-5.08Q279.11-4.43 279.11-3.57L279.11-3.57L279.11-3.23L273.59-3.23L273.59-3.96L278.65-3.96L278.27-3.69Q278.27-4.44 278.01-5.03Q277.74-5.62 277.26-5.95Q276.78-6.29 276.12-6.29L276.12-6.29Q275.45-6.29 274.96-5.94Q274.46-5.60 274.18-5.02Q273.91-4.45 273.91-3.74L273.91-3.74L273.91-3.33Q273.91-2.52 274.19-1.91Q274.47-1.30 275.00-0.96Q275.52-0.62 276.23-0.62L276.23-0.62Q276.73-0.62 277.11-0.77Q277.49-0.93 277.75-1.20Q278.01-1.48 278.14-1.81L278.14-1.81L278.95-1.61Q278.79-1.13 278.42-0.73Q278.05-0.33 277.50-0.09Q276.94 0.14 276.23 0.14ZM283.87 0.14L283.87 0.14Q282.97 0.14 282.27-0.31Q281.57-0.77 281.18-1.58Q280.79-2.39 280.79-3.44L280.79-3.44Q280.79-4.51 281.18-5.32Q281.57-6.13 282.27-6.59Q282.97-7.04 283.87-7.04L283.87-7.04Q284.79-7.04 285.49-6.59Q286.18-6.13 286.57-5.32Q286.97-4.50 286.97-3.44L286.97-3.44Q286.97-2.39 286.57-1.58Q286.18-0.77 285.49-0.31Q284.79 0.14 283.87 0.14ZM283.87-0.62L283.87-0.62Q284.59-0.62 285.09-1.00Q285.59-1.38 285.85-2.02Q286.12-2.66 286.12-3.44L286.12-3.44Q286.12-4.23 285.85-4.88Q285.59-5.52 285.09-5.90Q284.58-6.28 283.87-6.28L283.87-6.28Q283.17-6.28 282.67-5.90Q282.17-5.52 281.90-4.87Q281.64-4.23 281.64-3.44L281.64-3.44Q281.64-2.65 281.90-2.02Q282.17-1.38 282.67-1.00Q283.17-0.62 283.87-0.62ZM295.68 0.13L295.68 0.13Q294.77 0.13 294.07-0.32Q293.38-0.78 292.98-1.59Q292.59-2.40 292.59-3.45L292.59-3.45Q292.59-4.51 292.98-5.32Q293.38-6.13 294.07-6.59Q294.77-7.04 295.68-7.04L295.68-7.04Q296.22-7.04 296.67-6.89Q297.12-6.73 297.47-6.46Q297.82-6.19 298.05-5.85Q298.28-5.51 298.38-5.14L298.38-5.14L297.57-4.95Q297.51-5.18 297.35-5.41Q297.20-5.65 296.96-5.84Q296.72-6.04 296.40-6.16Q296.08-6.28 295.68-6.28L295.68-6.28Q294.97-6.28 294.47-5.90Q293.97-5.52 293.71-4.88Q293.45-4.25 293.45-3.45L293.45-3.45Q293.45-2.66 293.71-2.02Q293.97-1.38 294.47-1.01Q294.97-0.63 295.68-0.63L295.68-0.63Q296.09-0.63 296.41-0.75Q296.74-0.87 296.98-1.08Q297.22-1.28 297.37-1.52Q297.53-1.76 297.59-1.99L297.59-1.99L298.40-1.80Q298.31-1.43 298.07-1.09Q297.84-0.74 297.48-0.47Q297.13-0.19 296.67-0.03Q296.22 0.13 295.68 0.13ZM303.17 0.14L303.17 0.14Q302.26 0.14 301.56-0.31Q300.86-0.77 300.47-1.58Q300.08-2.39 300.08-3.44L300.08-3.44Q300.08-4.51 300.47-5.32Q300.86-6.13 301.56-6.59Q302.26-7.04 303.17-7.04L303.17-7.04Q304.08-7.04 304.78-6.59Q305.47-6.13 305.87-5.32Q306.26-4.50 306.26-3.44L306.26-3.44Q306.26-2.39 305.87-1.58Q305.47-0.77 304.78-0.31Q304.08 0.14 303.17 0.14ZM303.17-0.62L303.17-0.62Q303.88-0.62 304.38-1.00Q304.88-1.38 305.15-2.02Q305.41-2.66 305.41-3.44L305.41-3.44Q305.41-4.23 305.15-4.88Q304.88-5.52 304.38-5.90Q303.88-6.28 303.17-6.28L303.17-6.28Q302.46-6.28 301.96-5.90Q301.46-5.52 301.20-4.87Q300.93-4.23 300.93-3.44L300.93-3.44Q300.93-2.65 301.20-2.02Q301.46-1.38 301.96-1.00Q302.46-0.62 303.17-0.62ZM309.18-4.30L309.18-4.30L309.18 0L308.34 0L308.34-6.94L309.15-6.94L309.16-5.32L309.01-5.32Q309.29-6.23 309.91-6.63Q310.53-7.04 311.33-7.04L311.33-7.04Q312.04-7.04 312.58-6.75Q313.12-6.45 313.43-5.88Q313.74-5.31 313.74-4.47L313.74-4.47L313.74 0L312.90 0L312.90-4.41Q312.90-5.28 312.41-5.77Q311.93-6.27 311.12-6.27L311.12-6.27Q310.57-6.27 310.13-6.04Q309.69-5.80 309.44-5.36Q309.18-4.92 309.18-4.30ZM315.27-6.94L318.61-6.94L318.61-6.21L315.27-6.21L315.27-6.94ZM316.34-1.56L316.34-8.65L317.18-8.65L317.18-1.62Q317.18-1.13 317.40-0.89Q317.62-0.66 318.09-0.70L318.09-0.70Q318.19-0.70 318.33-0.72Q318.46-0.74 318.57-0.75L318.57-0.75L318.71-0.03Q318.57 0.01 318.40 0.03Q318.23 0.05 318.07 0.06L318.07 0.06Q317.25 0.10 316.79-0.33Q316.34-0.77 316.34-1.56L316.34-1.56ZM323.21 0.14L323.21 0.14Q322.23 0.14 321.52-0.31Q320.80-0.77 320.42-1.58Q320.03-2.38 320.03-3.43L320.03-3.43Q320.03-4.49 320.42-5.30Q320.80-6.12 321.50-6.58Q322.19-7.04 323.09-7.04L323.09-7.04Q323.69-7.04 324.23-6.83Q324.77-6.61 325.18-6.17Q325.60-5.74 325.84-5.08Q326.08-4.43 326.08-3.57L326.08-3.57L326.08-3.23L320.56-3.23L320.56-3.96L325.62-3.96L325.24-3.69Q325.24-4.44 324.98-5.03Q324.72-5.62 324.23-5.95Q323.75-6.29 323.09-6.29L323.09-6.29Q322.43-6.29 321.93-5.94Q321.43-5.60 321.16-5.02Q320.88-4.45 320.88-3.74L320.88-3.74L320.88-3.33Q320.88-2.52 321.16-1.91Q321.45-1.30 321.97-0.96Q322.50-0.62 323.21-0.62L323.21-0.62Q323.70-0.62 324.08-0.77Q324.46-0.93 324.73-1.20Q324.99-1.48 325.11-1.81L325.11-1.81L325.92-1.61Q325.77-1.13 325.39-0.73Q325.02-0.33 324.47-0.09Q323.91 0.14 323.21 0.14ZM328.97-4.30L328.97-4.30L328.97 0L328.13 0L328.13-6.94L328.94-6.94L328.95-5.32L328.79-5.32Q329.08-6.23 329.70-6.63Q330.32-7.04 331.11-7.04L331.11-7.04Q331.83-7.04 332.37-6.75Q332.91-6.45 333.22-5.88Q333.53-5.31 333.53-4.47L333.53-4.47L333.53 0L332.69 0L332.69-4.41Q332.69-5.28 332.20-5.77Q331.72-6.27 330.91-6.27L330.91-6.27Q330.36-6.27 329.92-6.04Q329.48-5.80 329.23-5.36Q328.97-4.92 328.97-4.30ZM335.06-6.94L338.40-6.94L338.40-6.21L335.06-6.21L335.06-6.94ZM336.12-1.56L336.12-8.65L336.97-8.65L336.97-1.62Q336.97-1.13 337.19-0.89Q337.41-0.66 337.88-0.70L337.88-0.70Q337.98-0.70 338.11-0.72Q338.25-0.74 338.36-0.75L338.36-0.75L338.50-0.03Q338.36 0.01 338.19 0.03Q338.02 0.05 337.86 0.06L337.86 0.06Q337.04 0.10 336.58-0.33Q336.12-0.77 336.12-1.56L336.12-1.56ZM343.18-6.94L346.95-6.94L346.95-6.21L343.18-6.21L343.18-6.94ZM345.36 0L344.52 0L344.52-8.01Q344.52-8.56 344.76-8.94Q345.01-9.31 345.41-9.51Q345.81-9.70 346.30-9.70L346.30-9.70Q346.60-9.70 346.82-9.66Q347.04-9.62 347.15-9.58L347.15-9.58L346.97-8.85Q346.87-8.88 346.73-8.91Q346.58-8.93 346.38-8.93L346.38-8.93Q345.88-8.93 345.62-8.66Q345.36-8.38 345.36-7.86L345.36-7.86L345.36 0ZM351.50 0.14L351.50 0.14Q350.59 0.14 349.90-0.31Q349.20-0.77 348.80-1.58Q348.41-2.39 348.41-3.44L348.41-3.44Q348.41-4.51 348.80-5.32Q349.20-6.13 349.90-6.59Q350.59-7.04 351.50-7.04L351.50-7.04Q352.42-7.04 353.11-6.59Q353.81-6.13 354.20-5.32Q354.59-4.50 354.59-3.44L354.59-3.44Q354.59-2.39 354.20-1.58Q353.81-0.77 353.11-0.31Q352.42 0.14 351.50 0.14ZM351.50-0.62L351.50-0.62Q352.22-0.62 352.72-1.00Q353.22-1.38 353.48-2.02Q353.74-2.66 353.74-3.44L353.74-3.44Q353.74-4.23 353.48-4.88Q353.22-5.52 352.71-5.90Q352.21-6.28 351.50-6.28L351.50-6.28Q350.79-6.28 350.29-5.90Q349.79-5.52 349.53-4.87Q349.27-4.23 349.27-3.44L349.27-3.44Q349.27-2.65 349.53-2.02Q349.79-1.38 350.29-1.00Q350.79-0.62 351.50-0.62ZM357.51 0L356.67 0L356.67-6.94L357.48-6.94L357.48-5.85L357.54-5.85Q357.75-6.38 358.26-6.71Q358.77-7.04 359.43-7.04L359.43-7.04Q359.53-7.04 359.64-7.03Q359.76-7.02 359.84-7.02L359.84-7.02L359.84-6.18Q359.79-6.19 359.65-6.20Q359.51-6.22 359.34-6.22L359.34-6.22Q358.82-6.22 358.40-5.99Q357.99-5.77 357.75-5.36Q357.51-4.96 357.51-4.43L357.51-4.43L357.51 0Z" fill="#F2F2F2" opacity="0.6" id="msvg-34f2ezuywdj" style="transform: translate(0px, 94.60499999999999px)"/>
  <path d="M1.86 0L1.02 0L1.02-6.94L1.86-6.94L1.86 0ZM1.44-8.28L1.44-8.28Q1.19-8.28 1.01-8.45Q0.82-8.63 0.82-8.87L0.82-8.87Q0.82-9.12 1.01-9.29Q1.19-9.47 1.44-9.47L1.44-9.47Q1.69-9.47 1.87-9.29Q2.06-9.12 2.06-8.87L2.06-8.87Q2.06-8.63 1.87-8.45Q1.69-8.28 1.44-8.28ZM5.15-4.30L5.15-4.30L5.15 0L4.31 0L4.31-6.94L5.12-6.94L5.13-5.32L4.98-5.32Q5.27-6.23 5.88-6.63Q6.50-7.04 7.30-7.04L7.30-7.04Q8.01-7.04 8.55-6.75Q9.10-6.45 9.41-5.88Q9.71-5.31 9.71-4.47L9.71-4.47L9.71 0L8.87 0L8.87-4.41Q8.87-5.28 8.39-5.77Q7.90-6.27 7.09-6.27L7.09-6.27Q6.54-6.27 6.10-6.04Q5.66-5.80 5.41-5.36Q5.15-4.92 5.15-4.30ZM11.24-6.94L14.58-6.94L14.58-6.21L11.24-6.21L11.24-6.94ZM12.31-1.56L12.31-8.65L13.15-8.65L13.15-1.62Q13.15-1.13 13.37-0.89Q13.60-0.66 14.06-0.70L14.06-0.70Q14.16-0.70 14.30-0.72Q14.43-0.74 14.55-0.75L14.55-0.75L14.69-0.03Q14.55 0.01 14.38 0.03Q14.21 0.05 14.04 0.06L14.04 0.06Q13.22 0.10 12.76-0.33Q12.31-0.77 12.31-1.56L12.31-1.56ZM19.18 0.14L19.18 0.14Q18.20 0.14 17.49-0.31Q16.78-0.77 16.39-1.58Q16.00-2.38 16.00-3.43L16.00-3.43Q16.00-4.49 16.39-5.30Q16.78-6.12 17.47-6.58Q18.16-7.04 19.06-7.04L19.06-7.04Q19.66-7.04 20.20-6.83Q20.74-6.61 21.16-6.17Q21.58-5.74 21.81-5.08Q22.05-4.43 22.05-3.57L22.05-3.57L22.05-3.23L16.54-3.23L16.54-3.96L21.59-3.96L21.21-3.69Q21.21-4.44 20.95-5.03Q20.69-5.62 20.21-5.95Q19.73-6.29 19.06-6.29L19.06-6.29Q18.40-6.29 17.90-5.94Q17.41-5.60 17.13-5.02Q16.85-4.45 16.85-3.74L16.85-3.74L16.85-3.33Q16.85-2.52 17.14-1.91Q17.42-1.30 17.94-0.96Q18.47-0.62 19.18-0.62L19.18-0.62Q19.68-0.62 20.06-0.77Q20.44-0.93 20.70-1.20Q20.96-1.48 21.08-1.81L21.08-1.81L21.90-1.61Q21.74-1.13 21.37-0.73Q21.00-0.33 20.44-0.09Q19.88 0.14 19.18 0.14ZM24.94 0L24.10 0L24.10-6.94L24.91-6.94L24.91-5.85L24.97-5.85Q25.18-6.38 25.69-6.71Q26.19-7.04 26.86-7.04L26.86-7.04Q26.96-7.04 27.07-7.03Q27.19-7.02 27.26-7.02L27.26-7.02L27.26-6.18Q27.22-6.19 27.08-6.20Q26.94-6.22 26.77-6.22L26.77-6.22Q26.25-6.22 25.83-5.99Q25.42-5.77 25.18-5.36Q24.94-4.96 24.94-4.43L24.94-4.43L24.94 0ZM29.82-4.30L29.82-4.30L29.82 0L28.98 0L28.98-6.94L29.79-6.94L29.80-5.32L29.64-5.32Q29.93-6.23 30.55-6.63Q31.17-7.04 31.97-7.04L31.97-7.04Q32.68-7.04 33.22-6.75Q33.76-6.45 34.07-5.88Q34.38-5.31 34.38-4.47L34.38-4.47L34.38 0L33.54 0L33.54-4.41Q33.54-5.28 33.05-5.77Q32.57-6.27 31.76-6.27L31.76-6.27Q31.21-6.27 30.77-6.04Q30.33-5.80 30.08-5.36Q29.82-4.92 29.82-4.30ZM38.70 0.14L38.70 0.14Q38.06 0.14 37.54-0.09Q37.01-0.33 36.70-0.80Q36.39-1.27 36.39-1.94L36.39-1.94Q36.39-2.47 36.59-2.82Q36.79-3.17 37.15-3.39Q37.51-3.62 38.00-3.75Q38.50-3.88 39.09-3.96L39.09-3.96Q39.69-4.03 40.09-4.08Q40.49-4.14 40.70-4.26Q40.91-4.38 40.91-4.64L40.91-4.64L40.91-4.79Q40.91-5.26 40.72-5.59Q40.52-5.92 40.15-6.11Q39.79-6.29 39.26-6.29L39.26-6.29Q38.75-6.29 38.37-6.13Q37.99-5.97 37.75-5.71Q37.50-5.45 37.40-5.13L37.40-5.13L36.58-5.34Q36.77-5.92 37.17-6.30Q37.57-6.67 38.11-6.86Q38.65-7.04 39.25-7.04L39.25-7.04Q39.69-7.04 40.13-6.92Q40.58-6.80 40.94-6.54Q41.31-6.27 41.53-5.83Q41.75-5.38 41.75-4.74L41.75-4.74L41.75 0L40.92 0L40.92-1.11L40.87-1.11Q40.72-0.79 40.43-0.50Q40.14-0.21 39.71-0.03Q39.28 0.14 38.70 0.14ZM38.82-0.61L38.82-0.61Q39.47-0.61 39.94-0.89Q40.41-1.16 40.66-1.64Q40.91-2.11 40.91-2.67L40.91-2.67L40.91-3.66Q40.82-3.58 40.62-3.51Q40.41-3.44 40.15-3.39Q39.88-3.33 39.60-3.30Q39.33-3.26 39.09-3.23L39.09-3.23Q38.51-3.16 38.09-3.00Q37.68-2.85 37.46-2.58Q37.24-2.32 37.24-1.91L37.24-1.91Q37.24-1.50 37.45-1.21Q37.65-0.92 38.01-0.76Q38.37-0.61 38.82-0.61ZM44.20-9.37L45.05-9.37L45.05 0L44.20 0L44.20-9.37ZM54.13 0.13L54.13 0.13Q53.22 0.13 52.53-0.32Q51.83-0.78 51.43-1.59Q51.04-2.40 51.04-3.45L51.04-3.45Q51.04-4.51 51.43-5.32Q51.83-6.13 52.53-6.59Q53.22-7.04 54.13-7.04L54.13-7.04Q54.67-7.04 55.12-6.89Q55.57-6.73 55.92-6.46Q56.27-6.19 56.50-5.85Q56.73-5.51 56.83-5.14L56.83-5.14L56.02-4.95Q55.96-5.18 55.80-5.41Q55.65-5.65 55.41-5.84Q55.17-6.04 54.85-6.16Q54.53-6.28 54.13-6.28L54.13-6.28Q53.42-6.28 52.92-5.90Q52.42-5.52 52.16-4.88Q51.90-4.25 51.90-3.45L51.90-3.45Q51.90-2.66 52.16-2.02Q52.42-1.38 52.92-1.01Q53.42-0.63 54.13-0.63L54.13-0.63Q54.54-0.63 54.86-0.75Q55.19-0.87 55.43-1.08Q55.67-1.28 55.82-1.52Q55.98-1.76 56.04-1.99L56.04-1.99L56.85-1.80Q56.76-1.43 56.52-1.09Q56.29-0.74 55.93-0.47Q55.58-0.19 55.13-0.03Q54.67 0.13 54.13 0.13ZM61.62 0.14L61.62 0.14Q60.71 0.14 60.01-0.31Q59.31-0.77 58.92-1.58Q58.53-2.39 58.53-3.44L58.53-3.44Q58.53-4.51 58.92-5.32Q59.31-6.13 60.01-6.59Q60.71-7.04 61.62-7.04L61.62-7.04Q62.53-7.04 63.23-6.59Q63.92-6.13 64.32-5.32Q64.71-4.50 64.71-3.44L64.71-3.44Q64.71-2.39 64.32-1.58Q63.92-0.77 63.23-0.31Q62.53 0.14 61.62 0.14ZM61.62-0.62L61.62-0.62Q62.33-0.62 62.83-1.00Q63.33-1.38 63.60-2.02Q63.86-2.66 63.86-3.44L63.86-3.44Q63.86-4.23 63.60-4.88Q63.33-5.52 62.83-5.90Q62.33-6.28 61.62-6.28L61.62-6.28Q60.91-6.28 60.41-5.90Q59.91-5.52 59.65-4.87Q59.38-4.23 59.38-3.44L59.38-3.44Q59.38-2.65 59.65-2.02Q59.91-1.38 60.41-1.00Q60.91-0.62 61.62-0.62ZM67.63 0L66.79 0L66.79-6.94L67.61-6.94L67.61-5.38L67.51-5.38Q67.66-5.96 67.99-6.33Q68.31-6.70 68.74-6.88Q69.17-7.06 69.62-7.06L69.62-7.06Q70.39-7.06 70.91-6.59Q71.42-6.12 71.55-5.35L71.55-5.35L71.41-5.35Q71.53-5.87 71.86-6.26Q72.18-6.64 72.65-6.85Q73.12-7.06 73.68-7.06L73.68-7.06Q74.30-7.06 74.80-6.79Q75.29-6.52 75.58-5.98Q75.86-5.44 75.86-4.65L75.86-4.65L75.86 0L75.02 0L75.02-4.63Q75.02-5.48 74.57-5.88Q74.12-6.28 73.46-6.28L73.46-6.28Q72.95-6.28 72.57-6.07Q72.18-5.86 71.96-5.47Q71.74-5.08 71.74-4.55L71.74-4.55L71.74 0L70.90 0L70.90-4.70Q70.90-5.44 70.48-5.86Q70.05-6.28 69.38-6.28L69.38-6.28Q68.91-6.28 68.51-6.07Q68.11-5.85 67.87-5.43Q67.63-5.02 67.63-4.44L67.63-4.44L67.63 0ZM79.16 0L78.31 0L78.31-6.94L79.14-6.94L79.14-5.38L79.04-5.38Q79.19-5.96 79.51-6.33Q79.84-6.70 80.26-6.88Q80.69-7.06 81.14-7.06L81.14-7.06Q81.92-7.06 82.43-6.59Q82.94-6.12 83.07-5.35L83.07-5.35L82.93-5.35Q83.06-5.87 83.38-6.26Q83.70-6.64 84.17-6.85Q84.64-7.06 85.20-7.06L85.20-7.06Q85.82-7.06 86.32-6.79Q86.82-6.52 87.10-5.98Q87.39-5.44 87.39-4.65L87.39-4.65L87.39 0L86.55 0L86.55-4.63Q86.55-5.48 86.09-5.88Q85.64-6.28 84.98-6.28L84.98-6.28Q84.48-6.28 84.09-6.07Q83.70-5.86 83.49-5.47Q83.27-5.08 83.27-4.55L83.27-4.55L83.27 0L82.43 0L82.43-4.70Q82.43-5.44 82.00-5.86Q81.58-6.28 80.91-6.28L80.91-6.28Q80.43-6.28 80.03-6.07Q79.63-5.85 79.40-5.43Q79.16-5.02 79.16-4.44L79.16-4.44L79.16 0ZM92.25 0.10L92.25 0.10Q91.55 0.10 91.00-0.20Q90.46-0.50 90.15-1.07Q89.84-1.65 89.84-2.47L89.84-2.47L89.84-6.94L90.68-6.94L90.68-2.53Q90.68-1.67 91.17-1.17Q91.65-0.67 92.46-0.67L92.46-0.67Q93.01-0.67 93.45-0.91Q93.89-1.14 94.14-1.58Q94.40-2.03 94.40-2.64L94.40-2.64L94.40-6.94L95.24-6.94L95.24 0L94.42 0L94.42-1.62L94.57-1.62Q94.28-0.71 93.66-0.31Q93.04 0.10 92.25 0.10ZM98.53-4.30L98.53-4.30L98.53 0L97.69 0L97.69-6.94L98.50-6.94L98.51-5.32L98.36-5.32Q98.65-6.23 99.26-6.63Q99.88-7.04 100.68-7.04L100.68-7.04Q101.39-7.04 101.93-6.75Q102.48-6.45 102.79-5.88Q103.09-5.31 103.09-4.47L103.09-4.47L103.09 0L102.25 0L102.25-4.41Q102.25-5.28 101.77-5.77Q101.28-6.27 100.47-6.27L100.47-6.27Q99.92-6.27 99.48-6.04Q99.04-5.80 98.79-5.36Q98.53-4.92 98.53-4.30ZM106.39 0L105.54 0L105.54-6.94L106.39-6.94L106.39 0ZM105.96-8.28L105.96-8.28Q105.71-8.28 105.53-8.45Q105.35-8.63 105.35-8.87L105.35-8.87Q105.35-9.12 105.53-9.29Q105.71-9.47 105.96-9.47L105.96-9.47Q106.22-9.47 106.40-9.29Q106.58-9.12 106.58-8.87L106.58-8.87Q106.58-8.63 106.40-8.45Q106.22-8.28 105.96-8.28ZM111.55 0.13L111.55 0.13Q110.65 0.13 109.95-0.32Q109.25-0.78 108.86-1.59Q108.46-2.40 108.46-3.45L108.46-3.45Q108.46-4.51 108.86-5.32Q109.25-6.13 109.95-6.59Q110.65-7.04 111.55-7.04L111.55-7.04Q112.09-7.04 112.54-6.89Q112.99-6.73 113.34-6.46Q113.69-6.19 113.92-5.85Q114.16-5.51 114.26-5.14L114.26-5.14L113.45-4.95Q113.38-5.18 113.23-5.41Q113.07-5.65 112.84-5.84Q112.60-6.04 112.28-6.16Q111.96-6.28 111.55-6.28L111.55-6.28Q110.85-6.28 110.35-5.90Q109.85-5.52 109.58-4.88Q109.32-4.25 109.32-3.45L109.32-3.45Q109.32-2.66 109.58-2.02Q109.85-1.38 110.35-1.01Q110.85-0.63 111.55-0.63L111.55-0.63Q111.96-0.63 112.29-0.75Q112.62-0.87 112.85-1.08Q113.09-1.28 113.25-1.52Q113.40-1.76 113.46-1.99L113.46-1.99L114.28-1.80Q114.18-1.43 113.95-1.09Q113.71-0.74 113.36-0.47Q113.01-0.19 112.55-0.03Q112.09 0.13 111.55 0.13ZM118.19 0.14L118.19 0.14Q117.56 0.14 117.03-0.09Q116.51-0.33 116.19-0.80Q115.88-1.27 115.88-1.94L115.88-1.94Q115.88-2.47 116.08-2.82Q116.28-3.17 116.64-3.39Q117.00-3.62 117.50-3.75Q117.99-3.88 118.59-3.96L118.59-3.96Q119.18-4.03 119.58-4.08Q119.98-4.14 120.19-4.26Q120.40-4.38 120.40-4.64L120.40-4.64L120.40-4.79Q120.40-5.26 120.21-5.59Q120.01-5.92 119.65-6.11Q119.28-6.29 118.75-6.29L118.75-6.29Q118.25-6.29 117.87-6.13Q117.49-5.97 117.24-5.71Q117.00-5.45 116.90-5.13L116.90-5.13L116.07-5.34Q116.26-5.92 116.66-6.30Q117.07-6.67 117.61-6.86Q118.15-7.04 118.74-7.04L118.74-7.04Q119.18-7.04 119.62-6.92Q120.07-6.80 120.44-6.54Q120.80-6.27 121.02-5.83Q121.25-5.38 121.25-4.74L121.25-4.74L121.25 0L120.42 0L120.42-1.11L120.36-1.11Q120.22-0.79 119.93-0.50Q119.64-0.21 119.21-0.03Q118.78 0.14 118.19 0.14ZM118.32-0.61L118.32-0.61Q118.96-0.61 119.43-0.89Q119.90-1.16 120.15-1.64Q120.40-2.11 120.40-2.67L120.40-2.67L120.40-3.66Q120.32-3.58 120.11-3.51Q119.91-3.44 119.64-3.39Q119.37-3.33 119.10-3.30Q118.82-3.26 118.58-3.23L118.58-3.23Q118.00-3.16 117.59-3.00Q117.17-2.85 116.95-2.58Q116.73-2.32 116.73-1.91L116.73-1.91Q116.73-1.50 116.94-1.21Q117.15-0.92 117.51-0.76Q117.86-0.61 118.32-0.61ZM122.77-6.94L126.12-6.94L126.12-6.21L122.77-6.21L122.77-6.94ZM123.84-1.56L123.84-8.65L124.68-8.65L124.68-1.62Q124.68-1.13 124.91-0.89Q125.13-0.66 125.60-0.70L125.60-0.70Q125.70-0.70 125.83-0.72Q125.97-0.74 126.08-0.75L126.08-0.75L126.22-0.03Q126.08 0.01 125.91 0.03Q125.74 0.05 125.58 0.06L125.58 0.06Q124.75 0.10 124.30-0.33Q123.84-0.77 123.84-1.56L123.84-1.56ZM128.75 0L127.91 0L127.91-6.94L128.75-6.94L128.75 0ZM128.33-8.28L128.33-8.28Q128.08-8.28 127.90-8.45Q127.71-8.63 127.71-8.87L127.71-8.87Q127.71-9.12 127.90-9.29Q128.08-9.47 128.33-9.47L128.33-9.47Q128.58-9.47 128.76-9.29Q128.95-9.12 128.95-8.87L128.95-8.87Q128.95-8.63 128.76-8.45Q128.58-8.28 128.33-8.28ZM133.92 0.14L133.92 0.14Q133.01 0.14 132.31-0.31Q131.62-0.77 131.22-1.58Q130.83-2.39 130.83-3.44L130.83-3.44Q130.83-4.51 131.22-5.32Q131.62-6.13 132.31-6.59Q133.01-7.04 133.92-7.04L133.92-7.04Q134.84-7.04 135.53-6.59Q136.23-6.13 136.62-5.32Q137.01-4.50 137.01-3.44L137.01-3.44Q137.01-2.39 136.62-1.58Q136.23-0.77 135.53-0.31Q134.84 0.14 133.92 0.14ZM133.92-0.62L133.92-0.62Q134.63-0.62 135.13-1.00Q135.63-1.38 135.90-2.02Q136.16-2.66 136.16-3.44L136.16-3.44Q136.16-4.23 135.90-4.88Q135.63-5.52 135.13-5.90Q134.63-6.28 133.92-6.28L133.92-6.28Q133.21-6.28 132.71-5.90Q132.21-5.52 131.95-4.87Q131.68-4.23 131.68-3.44L131.68-3.44Q131.68-2.65 131.95-2.02Q132.21-1.38 132.71-1.00Q133.21-0.62 133.92-0.62ZM139.93-4.30L139.93-4.30L139.93 0L139.09 0L139.09-6.94L139.90-6.94L139.91-5.32L139.76-5.32Q140.05-6.23 140.66-6.63Q141.28-7.04 142.08-7.04L142.08-7.04Q142.79-7.04 143.33-6.75Q143.88-6.45 144.18-5.88Q144.49-5.31 144.49-4.47L144.49-4.47L144.49 0L143.65 0L143.65-4.41Q143.65-5.28 143.17-5.77Q142.68-6.27 141.87-6.27L141.87-6.27Q141.32-6.27 140.88-6.04Q140.44-5.80 140.19-5.36Q139.93-4.92 139.93-4.30ZM149.18 0.14L149.18 0.14Q148.48 0.14 147.94-0.07Q147.40-0.29 147.05-0.71Q146.71-1.13 146.60-1.74L146.60-1.74L147.41-1.89Q147.55-1.25 148.00-0.93Q148.45-0.60 149.16-0.60L149.16-0.60Q149.96-0.60 150.43-0.96Q150.90-1.31 150.90-1.85L150.90-1.85Q150.90-2.28 150.62-2.55Q150.33-2.82 149.76-2.96L149.76-2.96L148.63-3.23Q147.72-3.45 147.27-3.91Q146.82-4.37 146.82-5.08L146.82-5.08Q146.82-5.66 147.13-6.10Q147.45-6.55 148.00-6.80Q148.55-7.04 149.26-7.04L149.26-7.04Q149.92-7.04 150.41-6.83Q150.90-6.62 151.22-6.22Q151.53-5.83 151.65-5.29L151.65-5.29L150.87-5.13Q150.73-5.65 150.35-5.98Q149.96-6.31 149.26-6.31L149.26-6.31Q148.56-6.31 148.11-5.98Q147.67-5.64 147.67-5.11L147.67-5.11Q147.67-4.67 147.97-4.40Q148.28-4.12 148.90-3.97L148.90-3.97L149.99-3.71Q150.89-3.50 151.33-3.04Q151.77-2.59 151.77-1.89L151.77-1.89Q151.77-1.29 151.44-0.83Q151.11-0.37 150.53-0.11Q149.94 0.14 149.18 0.14ZM154.29 2.04L153.64 2.04L154.21-1.19L155.15-1.19L154.29 2.04ZM162.46 0L161.62 0L161.62-6.94L162.46-6.94L162.46 0ZM162.04-8.28L162.04-8.28Q161.79-8.28 161.61-8.45Q161.42-8.63 161.42-8.87L161.42-8.87Q161.42-9.12 161.61-9.29Q161.79-9.47 162.04-9.47L162.04-9.47Q162.29-9.47 162.47-9.29Q162.66-9.12 162.66-8.87L162.66-8.87Q162.66-8.63 162.47-8.45Q162.29-8.28 162.04-8.28ZM165.75-4.30L165.75-4.30L165.75 0L164.91 0L164.91-6.94L165.72-6.94L165.73-5.32L165.58-5.32Q165.87-6.23 166.48-6.63Q167.10-7.04 167.90-7.04L167.90-7.04Q168.61-7.04 169.15-6.75Q169.70-6.45 170.01-5.88Q170.31-5.31 170.31-4.47L170.31-4.47L170.31 0L169.47 0L169.47-4.41Q169.47-5.28 168.99-5.77Q168.50-6.27 167.69-6.27L167.69-6.27Q167.14-6.27 166.70-6.04Q166.26-5.80 166.01-5.36Q165.75-4.92 165.75-4.30ZM175.48 0.13L175.48 0.13Q174.57 0.13 173.88-0.32Q173.18-0.78 172.79-1.59Q172.39-2.40 172.39-3.45L172.39-3.45Q172.39-4.51 172.79-5.32Q173.18-6.13 173.88-6.59Q174.57-7.04 175.48-7.04L175.48-7.04Q176.02-7.04 176.47-6.89Q176.92-6.73 177.27-6.46Q177.62-6.19 177.85-5.85Q178.08-5.51 178.18-5.14L178.18-5.14L177.37-4.95Q177.31-5.18 177.16-5.41Q177.00-5.65 176.76-5.84Q176.52-6.04 176.20-6.16Q175.88-6.28 175.48-6.28L175.48-6.28Q174.78-6.28 174.28-5.90Q173.78-5.52 173.51-4.88Q173.25-4.25 173.25-3.45L173.25-3.45Q173.25-2.66 173.51-2.02Q173.78-1.38 174.28-1.01Q174.78-0.63 175.48-0.63L175.48-0.63Q175.89-0.63 176.22-0.75Q176.54-0.87 176.78-1.08Q177.02-1.28 177.18-1.52Q177.33-1.76 177.39-1.99L177.39-1.99L178.20-1.80Q178.11-1.43 177.87-1.09Q177.64-0.74 177.29-0.47Q176.93-0.19 176.48-0.03Q176.02 0.13 175.48 0.13ZM180.25-9.37L181.09-9.37L181.09 0L180.25 0L180.25-9.37ZM185.96 0.10L185.96 0.10Q185.25 0.10 184.71-0.20Q184.16-0.50 183.85-1.07Q183.54-1.65 183.54-2.47L183.54-2.47L183.54-6.94L184.39-6.94L184.39-2.53Q184.39-1.67 184.87-1.17Q185.35-0.67 186.17-0.67L186.17-0.67Q186.71-0.67 187.15-0.91Q187.59-1.14 187.85-1.58Q188.10-2.03 188.10-2.64L188.10-2.64L188.10-6.94L188.95-6.94L188.95 0L188.13 0L188.13-1.62L188.28-1.62Q187.98-0.71 187.36-0.31Q186.74 0.10 185.96 0.10ZM193.91 0.14L193.91 0.14Q193.06 0.14 192.40-0.31Q191.75-0.76 191.39-1.57Q191.02-2.38 191.02-3.46L191.02-3.46Q191.02-4.53 191.39-5.34Q191.75-6.14 192.41-6.59Q193.06-7.04 193.92-7.04L193.92-7.04Q194.53-7.04 194.96-6.83Q195.39-6.62 195.67-6.29Q195.94-5.96 196.09-5.62L196.09-5.62L196.14-5.62L196.14-9.37L196.99-9.37L196.99 0L196.17 0L196.17-1.30L196.09-1.30Q195.94-0.95 195.66-0.62Q195.38-0.29 194.95-0.07Q194.52 0.14 193.91 0.14ZM194.02-0.62L194.02-0.62Q194.70-0.62 195.18-0.98Q195.66-1.35 195.91-1.99Q196.17-2.63 196.17-3.47L196.17-3.47Q196.17-4.30 195.91-4.93Q195.66-5.57 195.18-5.92Q194.70-6.28 194.02-6.28L194.02-6.28Q193.35-6.28 192.87-5.91Q192.39-5.55 192.13-4.92Q191.88-4.28 191.88-3.47L191.88-3.47Q191.88-2.65 192.13-2.00Q192.39-1.36 192.87-0.99Q193.35-0.62 194.02-0.62ZM200.28 0L199.44 0L199.44-6.94L200.28-6.94L200.28 0ZM199.86-8.28L199.86-8.28Q199.61-8.28 199.42-8.45Q199.24-8.63 199.24-8.87L199.24-8.87Q199.24-9.12 199.42-9.29Q199.61-9.47 199.86-9.47L199.86-9.47Q200.11-9.47 200.29-9.29Q200.47-9.12 200.47-8.87L200.47-8.87Q200.47-8.63 200.29-8.45Q200.11-8.28 199.86-8.28ZM203.57-4.30L203.57-4.30L203.57 0L202.73 0L202.73-6.94L203.54-6.94L203.55-5.32L203.40-5.32Q203.68-6.23 204.30-6.63Q204.92-7.04 205.72-7.04L205.72-7.04Q206.43-7.04 206.97-6.75Q207.51-6.45 207.82-5.88Q208.13-5.31 208.13-4.47L208.13-4.47L208.13 0L207.29 0L207.29-4.41Q207.29-5.28 206.80-5.77Q206.32-6.27 205.51-6.27L205.51-6.27Q204.96-6.27 204.52-6.04Q204.08-5.80 203.83-5.36Q203.57-4.92 203.57-4.30ZM213.27 2.76L213.27 2.76Q212.55 2.76 211.99 2.57Q211.44 2.37 211.07 2.02Q210.70 1.67 210.52 1.21L210.52 1.21L211.25 0.87Q211.39 1.18 211.65 1.44Q211.90 1.70 212.30 1.86Q212.70 2.01 213.27 2.01L213.27 2.01Q214.22 2.01 214.78 1.54Q215.34 1.06 215.34 0.10L215.34 0.10L215.34-1.40L215.27-1.40Q215.12-1.05 214.84-0.74Q214.56-0.43 214.13-0.23Q213.70-0.03 213.10-0.03L213.10-0.03Q212.26-0.03 211.61-0.45Q210.95-0.87 210.58-1.64Q210.21-2.42 210.21-3.48L210.21-3.48Q210.21-4.55 210.58-5.35Q210.95-6.15 211.60-6.60Q212.25-7.04 213.11-7.04L213.11-7.04Q213.72-7.04 214.15-6.83Q214.58-6.62 214.86-6.29Q215.14-5.96 215.29-5.61L215.29-5.61L215.36-5.61L215.36-6.94L216.18-6.94L216.18 0.13Q216.18 1.03 215.80 1.62Q215.42 2.20 214.77 2.48Q214.11 2.76 213.27 2.76ZM213.22-0.79L213.22-0.79Q213.89-0.79 214.37-1.12Q214.84-1.45 215.10-2.05Q215.36-2.66 215.36-3.50L215.36-3.50Q215.36-4.31 215.11-4.94Q214.86-5.57 214.38-5.92Q213.90-6.28 213.22-6.28L213.22-6.28Q212.54-6.28 212.06-5.91Q211.57-5.55 211.32-4.93Q211.07-4.30 211.07-3.50L211.07-3.50Q211.07-2.69 211.32-2.08Q211.58-1.47 212.06-1.13Q212.54-0.79 213.22-0.79ZM224.78 0.14L224.78 0.14Q224.08 0.14 223.54-0.07Q223.00-0.29 222.65-0.71Q222.31-1.13 222.20-1.74L222.20-1.74L223.01-1.89Q223.15-1.25 223.60-0.93Q224.05-0.60 224.76-0.60L224.76-0.60Q225.56-0.60 226.03-0.96Q226.51-1.31 226.51-1.85L226.51-1.85Q226.51-2.28 226.22-2.55Q225.93-2.82 225.36-2.96L225.36-2.96L224.23-3.23Q223.32-3.45 222.87-3.91Q222.42-4.37 222.42-5.08L222.42-5.08Q222.42-5.66 222.73-6.10Q223.05-6.55 223.60-6.80Q224.15-7.04 224.86-7.04L224.86-7.04Q225.52-7.04 226.01-6.83Q226.51-6.62 226.82-6.22Q227.13-5.83 227.25-5.29L227.25-5.29L226.47-5.13Q226.34-5.65 225.95-5.98Q225.56-6.31 224.86-6.31L224.86-6.31Q224.16-6.31 223.71-5.98Q223.27-5.64 223.27-5.11L223.27-5.11Q223.27-4.67 223.57-4.40Q223.88-4.12 224.51-3.97L224.51-3.97L225.59-3.71Q226.49-3.50 226.93-3.04Q227.37-2.59 227.37-1.89L227.37-1.89Q227.37-1.29 227.04-0.83Q226.71-0.37 226.13-0.11Q225.54 0.14 224.78 0.14ZM231.87 0.10L231.87 0.10Q231.17 0.10 230.62-0.20Q230.07-0.50 229.77-1.07Q229.46-1.65 229.46-2.47L229.46-2.47L229.46-6.94L230.30-6.94L230.30-2.53Q230.30-1.67 230.79-1.17Q231.27-0.67 232.08-0.67L232.08-0.67Q232.63-0.67 233.07-0.91Q233.51-1.14 233.76-1.58Q234.02-2.03 234.02-2.64L234.02-2.64L234.02-6.94L234.86-6.94L234.86 0L234.04 0L234.04-1.62L234.19-1.62Q233.90-0.71 233.28-0.31Q232.66 0.10 231.87 0.10ZM240.39 0.14L240.39 0.14Q239.78 0.14 239.35-0.07Q238.92-0.29 238.64-0.62Q238.36-0.95 238.20-1.30L238.20-1.30L238.13-1.30L238.13 0L237.31 0L237.31-9.37L238.15-9.37L238.15-5.62L238.21-5.62Q238.36-5.96 238.64-6.29Q238.91-6.62 239.34-6.83Q239.77-7.04 240.38-7.04L240.38-7.04Q241.24-7.04 241.89-6.59Q242.54-6.14 242.91-5.34Q243.27-4.53 243.27-3.46L243.27-3.46Q243.27-2.38 242.91-1.57Q242.55-0.76 241.90-0.31Q241.25 0.14 240.39 0.14ZM240.27-0.62L240.27-0.62Q240.95-0.62 241.43-0.99Q241.91-1.36 242.16-2.00Q242.42-2.65 242.42-3.47L242.42-3.47Q242.42-4.28 242.17-4.92Q241.91-5.55 241.43-5.91Q240.95-6.28 240.27-6.28L240.27-6.28Q239.60-6.28 239.12-5.92Q238.64-5.57 238.39-4.93Q238.13-4.30 238.13-3.47L238.13-3.47Q238.13-2.63 238.39-1.99Q238.64-1.35 239.12-0.98Q239.60-0.62 240.27-0.62ZM244.43-6.94L247.77-6.94L247.77-6.21L244.43-6.21L244.43-6.94ZM245.50-1.56L245.50-8.65L246.34-8.65L246.34-1.62Q246.34-1.13 246.56-0.89Q246.79-0.66 247.25-0.70L247.25-0.70Q247.35-0.70 247.49-0.72Q247.62-0.74 247.73-0.75L247.73-0.75L247.87-0.03Q247.73 0.01 247.56 0.03Q247.40 0.05 247.23 0.06L247.23 0.06Q246.41 0.10 245.95-0.33Q245.50-0.77 245.50-1.56L245.50-1.56ZM250.40 0L249.56 0L249.56-6.94L250.40-6.94L250.40 0ZM249.98-8.28L249.98-8.28Q249.73-8.28 249.55-8.45Q249.37-8.63 249.37-8.87L249.37-8.87Q249.37-9.12 249.55-9.29Q249.73-9.47 249.98-9.47L249.98-9.47Q250.23-9.47 250.42-9.29Q250.60-9.12 250.60-8.87L250.60-8.87Q250.60-8.63 250.42-8.45Q250.23-8.28 249.98-8.28ZM251.93-6.94L255.28-6.94L255.28-6.21L251.93-6.21L251.93-6.94ZM253.00-1.56L253.00-8.65L253.84-8.65L253.84-1.62Q253.84-1.13 254.07-0.89Q254.29-0.66 254.75-0.70L254.75-0.70Q254.85-0.70 254.99-0.72Q255.12-0.74 255.24-0.75L255.24-0.75L255.38-0.03Q255.24 0.01 255.07 0.03Q254.90 0.05 254.73 0.06L254.73 0.06Q253.91 0.10 253.46-0.33Q253.00-0.77 253.00-1.56L253.00-1.56ZM257.07-9.37L257.91-9.37L257.91 0L257.07 0L257.07-9.37ZM261.20 0L260.36 0L260.36-6.94L261.20-6.94L261.20 0ZM260.78-8.28L260.78-8.28Q260.53-8.28 260.35-8.45Q260.16-8.63 260.16-8.87L260.16-8.87Q260.16-9.12 260.35-9.29Q260.53-9.47 260.78-9.47L260.78-9.47Q261.03-9.47 261.21-9.29Q261.40-9.12 261.40-8.87L261.40-8.87Q261.40-8.63 261.21-8.45Q261.03-8.28 260.78-8.28ZM264.49-4.30L264.49-4.30L264.49 0L263.65 0L263.65-6.94L264.46-6.94L264.47-5.32L264.32-5.32Q264.61-6.23 265.22-6.63Q265.84-7.04 266.64-7.04L266.64-7.04Q267.35-7.04 267.89-6.75Q268.44-6.45 268.74-5.88Q269.05-5.31 269.05-4.47L269.05-4.47L269.05 0L268.21 0L268.21-4.41Q268.21-5.28 267.73-5.77Q267.24-6.27 266.43-6.27L266.43-6.27Q265.88-6.27 265.44-6.04Q265.00-5.80 264.75-5.36Q264.49-4.92 264.49-4.30ZM274.19 2.76L274.19 2.76Q273.47 2.76 272.91 2.57Q272.36 2.37 271.99 2.02Q271.62 1.67 271.44 1.21L271.44 1.21L272.18 0.87Q272.31 1.18 272.57 1.44Q272.82 1.70 273.22 1.86Q273.62 2.01 274.19 2.01L274.19 2.01Q275.14 2.01 275.70 1.54Q276.26 1.06 276.26 0.10L276.26 0.10L276.26-1.40L276.19-1.40Q276.04-1.05 275.76-0.74Q275.48-0.43 275.05-0.23Q274.62-0.03 274.02-0.03L274.02-0.03Q273.18-0.03 272.53-0.45Q271.87-0.87 271.50-1.64Q271.13-2.42 271.13-3.48L271.13-3.48Q271.13-4.55 271.50-5.35Q271.87-6.15 272.52-6.60Q273.18-7.04 274.03-7.04L274.03-7.04Q274.64-7.04 275.07-6.83Q275.50-6.62 275.78-6.29Q276.06-5.96 276.21-5.61L276.21-5.61L276.28-5.61L276.28-6.94L277.10-6.94L277.10 0.13Q277.10 1.03 276.72 1.62Q276.35 2.20 275.69 2.48Q275.03 2.76 274.19 2.76ZM274.14-0.79L274.14-0.79Q274.81-0.79 275.29-1.12Q275.77-1.45 276.02-2.05Q276.28-2.66 276.28-3.50L276.28-3.50Q276.28-4.31 276.03-4.94Q275.78-5.57 275.30-5.92Q274.82-6.28 274.14-6.28L274.14-6.28Q273.46-6.28 272.98-5.91Q272.50-5.55 272.24-4.93Q271.99-4.30 271.99-3.50L271.99-3.50Q271.99-2.69 272.24-2.08Q272.50-1.47 272.98-1.13Q273.46-0.79 274.14-0.79ZM285.33 0.14L285.33 0.14Q284.70 0.14 284.17-0.09Q283.65-0.33 283.34-0.80Q283.02-1.27 283.02-1.94L283.02-1.94Q283.02-2.47 283.22-2.82Q283.42-3.17 283.78-3.39Q284.14-3.62 284.64-3.75Q285.13-3.88 285.73-3.96L285.73-3.96Q286.32-4.03 286.72-4.08Q287.12-4.14 287.34-4.26Q287.55-4.38 287.55-4.64L287.55-4.64L287.55-4.79Q287.55-5.26 287.35-5.59Q287.16-5.92 286.79-6.11Q286.42-6.29 285.89-6.29L285.89-6.29Q285.39-6.29 285.01-6.13Q284.63-5.97 284.38-5.71Q284.14-5.45 284.04-5.13L284.04-5.13L283.21-5.34Q283.40-5.92 283.80-6.30Q284.21-6.67 284.75-6.86Q285.29-7.04 285.88-7.04L285.88-7.04Q286.32-7.04 286.77-6.92Q287.21-6.80 287.58-6.54Q287.94-6.27 288.17-5.83Q288.39-5.38 288.39-4.74L288.39-4.74L288.39 0L287.56 0L287.56-1.11L287.50-1.11Q287.36-0.79 287.07-0.50Q286.78-0.21 286.35-0.03Q285.92 0.14 285.33 0.14ZM285.46-0.61L285.46-0.61Q286.11-0.61 286.57-0.89Q287.04-1.16 287.29-1.64Q287.55-2.11 287.55-2.67L287.55-2.67L287.55-3.66Q287.46-3.58 287.25-3.51Q287.05-3.44 286.78-3.39Q286.51-3.33 286.24-3.30Q285.96-3.26 285.72-3.23L285.72-3.23Q285.14-3.16 284.73-3.00Q284.31-2.85 284.09-2.58Q283.87-2.32 283.87-1.91L283.87-1.91Q283.87-1.50 284.08-1.21Q284.29-0.92 284.65-0.76Q285.01-0.61 285.46-0.61ZM291.68-4.30L291.68-4.30L291.68 0L290.84 0L290.84-6.94L291.65-6.94L291.66-5.32L291.51-5.32Q291.79-6.23 292.41-6.63Q293.03-7.04 293.83-7.04L293.83-7.04Q294.54-7.04 295.08-6.75Q295.62-6.45 295.93-5.88Q296.24-5.31 296.24-4.47L296.24-4.47L296.24 0L295.40 0L295.40-4.41Q295.40-5.28 294.91-5.77Q294.43-6.27 293.62-6.27L293.62-6.27Q293.07-6.27 292.63-6.04Q292.19-5.80 291.94-5.36Q291.68-4.92 291.68-4.30ZM301.21 0.14L301.21 0.14Q300.35 0.14 299.70-0.31Q299.05-0.76 298.68-1.57Q298.32-2.38 298.32-3.46L298.32-3.46Q298.32-4.53 298.68-5.34Q299.05-6.14 299.70-6.59Q300.36-7.04 301.21-7.04L301.21-7.04Q301.82-7.04 302.25-6.83Q302.68-6.62 302.96-6.29Q303.24-5.96 303.38-5.62L303.38-5.62L303.44-5.62L303.44-9.37L304.28-9.37L304.28 0L303.46 0L303.46-1.30L303.39-1.30Q303.24-0.95 302.96-0.62Q302.67-0.29 302.24-0.07Q301.82 0.14 301.21 0.14ZM301.32-0.62L301.32-0.62Q301.99-0.62 302.47-0.98Q302.96-1.35 303.21-1.99Q303.46-2.63 303.46-3.47L303.46-3.47Q303.46-4.30 303.21-4.93Q302.96-5.57 302.48-5.92Q302.00-6.28 301.32-6.28L301.32-6.28Q300.64-6.28 300.16-5.91Q299.68-5.55 299.43-4.92Q299.18-4.28 299.18-3.47L299.18-3.47Q299.18-2.65 299.43-2.00Q299.68-1.36 300.17-0.99Q300.65-0.62 301.32-0.62ZM309.72-6.94L313.07-6.94L313.07-6.21L309.72-6.21L309.72-6.94ZM310.79-1.56L310.79-8.65L311.63-8.65L311.63-1.62Q311.63-1.13 311.86-0.89Q312.08-0.66 312.55-0.70L312.55-0.70Q312.65-0.70 312.78-0.72Q312.92-0.74 313.03-0.75L313.03-0.75L313.17-0.03Q313.03 0.01 312.86 0.03Q312.69 0.05 312.53 0.06L312.53 0.06Q311.70 0.10 311.25-0.33Q310.79-0.77 310.79-1.56L310.79-1.56ZM315.70 0L314.86 0L314.86-6.94L315.67-6.94L315.67-5.85L315.73-5.85Q315.93-6.38 316.44-6.71Q316.95-7.04 317.61-7.04L317.61-7.04Q317.71-7.04 317.83-7.03Q317.95-7.02 318.02-7.02L318.02-7.02L318.02-6.18Q317.98-6.19 317.84-6.20Q317.69-6.22 317.52-6.22L317.52-6.22Q317.00-6.22 316.59-5.99Q316.17-5.77 315.94-5.36Q315.70-4.96 315.70-4.43L315.70-4.43L315.70 0ZM321.60 0.14L321.60 0.14Q320.97 0.14 320.44-0.09Q319.92-0.33 319.61-0.80Q319.29-1.27 319.29-1.94L319.29-1.94Q319.29-2.47 319.49-2.82Q319.69-3.17 320.05-3.39Q320.41-3.62 320.91-3.75Q321.40-3.88 322.00-3.96L322.00-3.96Q322.59-4.03 322.99-4.08Q323.40-4.14 323.61-4.26Q323.82-4.38 323.82-4.64L323.82-4.64L323.82-4.79Q323.82-5.26 323.62-5.59Q323.43-5.92 323.06-6.11Q322.69-6.29 322.16-6.29L322.16-6.29Q321.66-6.29 321.28-6.13Q320.90-5.97 320.65-5.71Q320.41-5.45 320.31-5.13L320.31-5.13L319.48-5.34Q319.67-5.92 320.07-6.30Q320.48-6.67 321.02-6.86Q321.56-7.04 322.15-7.04L322.15-7.04Q322.59-7.04 323.04-6.92Q323.48-6.80 323.85-6.54Q324.21-6.27 324.44-5.83Q324.66-5.38 324.66-4.74L324.66-4.74L324.66 0L323.83 0L323.83-1.11L323.77-1.11Q323.63-0.79 323.34-0.50Q323.05-0.21 322.62-0.03Q322.19 0.14 321.60 0.14ZM321.73-0.61L321.73-0.61Q322.38-0.61 322.85-0.89Q323.31-1.16 323.57-1.64Q323.82-2.11 323.82-2.67L323.82-2.67L323.82-3.66Q323.73-3.58 323.52-3.51Q323.32-3.44 323.05-3.39Q322.79-3.33 322.51-3.30Q322.23-3.26 321.99-3.23L321.99-3.23Q321.41-3.16 321.00-3.00Q320.58-2.85 320.36-2.58Q320.14-2.32 320.14-1.91L320.14-1.91Q320.14-1.50 320.35-1.21Q320.56-0.92 320.92-0.76Q321.28-0.61 321.73-0.61ZM327.95-4.30L327.95-4.30L327.95 0L327.11 0L327.11-6.94L327.92-6.94L327.93-5.32L327.78-5.32Q328.07-6.23 328.68-6.63Q329.30-7.04 330.10-7.04L330.10-7.04Q330.81-7.04 331.35-6.75Q331.90-6.45 332.20-5.88Q332.51-5.31 332.51-4.47L332.51-4.47L332.51 0L331.67 0L331.67-4.41Q331.67-5.28 331.18-5.77Q330.70-6.27 329.89-6.27L329.89-6.27Q329.34-6.27 328.90-6.04Q328.46-5.80 328.21-5.36Q327.95-4.92 327.95-4.30ZM337.19 0.14L337.19 0.14Q336.50 0.14 335.96-0.07Q335.41-0.29 335.07-0.71Q334.73-1.13 334.62-1.74L334.62-1.74L335.43-1.89Q335.57-1.25 336.01-0.93Q336.46-0.60 337.18-0.60L337.18-0.60Q337.97-0.60 338.45-0.96Q338.92-1.31 338.92-1.85L338.92-1.85Q338.92-2.28 338.63-2.55Q338.34-2.82 337.78-2.96L337.78-2.96L336.65-3.23Q335.74-3.45 335.29-3.91Q334.84-4.37 334.84-5.08L334.84-5.08Q334.84-5.66 335.15-6.10Q335.46-6.55 336.01-6.80Q336.57-7.04 337.28-7.04L337.28-7.04Q337.94-7.04 338.43-6.83Q338.92-6.62 339.23-6.22Q339.55-5.83 339.67-5.29L339.67-5.29L338.89-5.13Q338.75-5.65 338.37-5.98Q337.98-6.31 337.28-6.31L337.28-6.31Q336.58-6.31 336.13-5.98Q335.68-5.64 335.68-5.11L335.68-5.11Q335.68-4.67 335.99-4.40Q336.29-4.12 336.92-3.97L336.92-3.97L338.01-3.71Q338.90-3.50 339.35-3.04Q339.79-2.59 339.79-1.89L339.79-1.89Q339.79-1.29 339.46-0.83Q339.13-0.37 338.55-0.11Q337.96 0.14 337.19 0.14ZM341.88-9.37L342.72-9.37L342.72 0L341.88 0L341.88-9.37ZM347.04 0.14L347.04 0.14Q346.40 0.14 345.88-0.09Q345.35-0.33 345.04-0.80Q344.73-1.27 344.73-1.94L344.73-1.94Q344.73-2.47 344.93-2.82Q345.12-3.17 345.49-3.39Q345.85-3.62 346.34-3.75Q346.84-3.88 347.43-3.96L347.43-3.96Q348.02-4.03 348.43-4.08Q348.83-4.14 349.04-4.26Q349.25-4.38 349.25-4.64L349.25-4.64L349.25-4.79Q349.25-5.26 349.06-5.59Q348.86-5.92 348.49-6.11Q348.12-6.29 347.60-6.29L347.60-6.29Q347.09-6.29 346.71-6.13Q346.33-5.97 346.09-5.71Q345.84-5.45 345.74-5.13L345.74-5.13L344.92-5.34Q345.11-5.92 345.51-6.30Q345.91-6.67 346.45-6.86Q346.99-7.04 347.58-7.04L347.58-7.04Q348.02-7.04 348.47-6.92Q348.92-6.80 349.28-6.54Q349.65-6.27 349.87-5.83Q350.09-5.38 350.09-4.74L350.09-4.74L350.09 0L349.26 0L349.26-1.11L349.21-1.11Q349.06-0.79 348.77-0.50Q348.48-0.21 348.05-0.03Q347.62 0.14 347.04 0.14ZM347.16-0.61L347.16-0.61Q347.81-0.61 348.28-0.89Q348.75-1.16 349.00-1.64Q349.25-2.11 349.25-2.67L349.25-2.67L349.25-3.66Q349.16-3.58 348.96-3.51Q348.75-3.44 348.49-3.39Q348.22-3.33 347.94-3.30Q347.67-3.26 347.43-3.23L347.43-3.23Q346.85-3.16 346.43-3.00Q346.02-2.85 345.80-2.58Q345.58-2.32 345.58-1.91L345.58-1.91Q345.58-1.50 345.79-1.21Q345.99-0.92 346.35-0.76Q346.71-0.61 347.16-0.61ZM351.62-6.94L354.96-6.94L354.96-6.21L351.62-6.21L351.62-6.94ZM352.69-1.56L352.69-8.65L353.53-8.65L353.53-1.62Q353.53-1.13 353.75-0.89Q353.98-0.66 354.44-0.70L354.44-0.70Q354.54-0.70 354.68-0.72Q354.81-0.74 354.93-0.75L354.93-0.75L355.07-0.03Q354.93 0.01 354.76 0.03Q354.59 0.05 354.42 0.06L354.42 0.06Q353.60 0.10 353.14-0.33Q352.69-0.77 352.69-1.56L352.69-1.56ZM357.60 0L356.75 0L356.75-6.94L357.60-6.94L357.60 0ZM357.18-8.28L357.18-8.28Q356.92-8.28 356.74-8.45Q356.56-8.63 356.56-8.87L356.56-8.87Q356.56-9.12 356.74-9.29Q356.92-9.47 357.18-9.47L357.18-9.47Q357.43-9.47 357.61-9.29Q357.79-9.12 357.79-8.87L357.79-8.87Q357.79-8.63 357.61-8.45Q357.43-8.28 357.18-8.28ZM362.76 0.14L362.76 0.14Q361.86 0.14 361.16-0.31Q360.46-0.77 360.07-1.58Q359.68-2.39 359.68-3.44L359.68-3.44Q359.68-4.51 360.07-5.32Q360.46-6.13 361.16-6.59Q361.86-7.04 362.76-7.04L362.76-7.04Q363.68-7.04 364.38-6.59Q365.07-6.13 365.46-5.32Q365.86-4.50 365.86-3.44L365.86-3.44Q365.86-2.39 365.46-1.58Q365.07-0.77 364.38-0.31Q363.68 0.14 362.76 0.14ZM362.76-0.62L362.76-0.62Q363.48-0.62 363.98-1.00Q364.48-1.38 364.74-2.02Q365.01-2.66 365.01-3.44L365.01-3.44Q365.01-4.23 364.74-4.88Q364.48-5.52 363.98-5.90Q363.47-6.28 362.76-6.28L362.76-6.28Q362.06-6.28 361.56-5.90Q361.06-5.52 360.79-4.87Q360.53-4.23 360.53-3.44L360.53-3.44Q360.53-2.65 360.79-2.02Q361.06-1.38 361.56-1.00Q362.06-0.62 362.76-0.62ZM368.78-4.30L368.78-4.30L368.78 0L367.94 0L367.94-6.94L368.75-6.94L368.75-5.32L368.60-5.32Q368.89-6.23 369.51-6.63Q370.12-7.04 370.92-7.04L370.92-7.04Q371.63-7.04 372.18-6.75Q372.72-6.45 373.03-5.88Q373.34-5.31 373.34-4.47L373.34-4.47L373.34 0L372.50 0L372.50-4.41Q372.50-5.28 372.01-5.77Q371.53-6.27 370.72-6.27L370.72-6.27Q370.17-6.27 369.73-6.04Q369.29-5.80 369.03-5.36Q368.78-4.92 368.78-4.30Z" fill="#F2F2F2" opacity="0.6" id="msvg-9duuurerdm4" style="transform: translate(0px, 111.99499999999999px)"/>
  <path d="M3.38 0L2.50 0L0.42-6.94L1.30-6.94L2.37-3.21Q2.53-2.64 2.70-1.99Q2.87-1.33 3.04-0.57L3.04-0.57L2.89-0.57Q3.06-1.31 3.23-1.97Q3.40-2.62 3.57-3.21L3.57-3.21L4.70-6.94L5.60-6.94L6.72-3.21Q6.89-2.64 7.06-1.98Q7.23-1.33 7.40-0.57L7.40-0.57L7.24-0.57Q7.41-1.32 7.58-1.97Q7.75-2.62 7.91-3.21L7.91-3.21L8.98-6.94L9.87-6.94L7.79 0L6.90 0L5.70-3.91Q5.58-4.31 5.47-4.71Q5.36-5.12 5.26-5.54Q5.15-5.96 5.04-6.39L5.04-6.39L5.25-6.39Q5.14-5.96 5.03-5.54Q4.92-5.12 4.81-4.71Q4.70-4.30 4.58-3.91L4.58-3.91L3.38 0ZM14.44 0.14L14.44 0.14Q13.53 0.14 12.83-0.31Q12.13-0.77 11.74-1.58Q11.35-2.39 11.35-3.44L11.35-3.44Q11.35-4.51 11.74-5.32Q12.13-6.13 12.83-6.59Q13.53-7.04 14.44-7.04L14.44-7.04Q15.35-7.04 16.05-6.59Q16.74-6.13 17.14-5.32Q17.53-4.50 17.53-3.44L17.53-3.44Q17.53-2.39 17.14-1.58Q16.74-0.77 16.05-0.31Q15.35 0.14 14.44 0.14ZM14.44-0.62L14.44-0.62Q15.15-0.62 15.65-1.00Q16.15-1.38 16.42-2.02Q16.68-2.66 16.68-3.44L16.68-3.44Q16.68-4.23 16.42-4.88Q16.15-5.52 15.65-5.90Q15.15-6.28 14.44-6.28L14.44-6.28Q13.73-6.28 13.23-5.90Q12.73-5.52 12.47-4.87Q12.20-4.23 12.20-3.44L12.20-3.44Q12.20-2.65 12.47-2.02Q12.73-1.38 13.23-1.00Q13.73-0.62 14.44-0.62ZM20.45 0L19.61 0L19.61-6.94L20.42-6.94L20.42-5.85L20.48-5.85Q20.69-6.38 21.19-6.71Q21.70-7.04 22.36-7.04L22.36-7.04Q22.46-7.04 22.58-7.03Q22.70-7.02 22.77-7.02L22.77-7.02L22.77-6.18Q22.73-6.19 22.59-6.20Q22.45-6.22 22.28-6.22L22.28-6.22Q21.75-6.22 21.34-5.99Q20.92-5.77 20.69-5.36Q20.45-4.96 20.45-4.43L20.45-4.43L20.45 0ZM26.42-3.71L25.25-2.61L25.25-3.69L25.41-3.69L28.64-6.94L29.72-6.94L26.52-3.72L26.42-3.71ZM25.33 0L24.49 0L24.49-9.37L25.33-9.37L25.33 0ZM29.92 0L28.84 0L26.02-3.56L26.62-4.14L29.92 0ZM32.25 0.08L32.25 0.08Q31.97 0.08 31.78-0.12Q31.58-0.31 31.58-0.59L31.58-0.59Q31.58-0.87 31.78-1.06Q31.97-1.26 32.25-1.26L32.25-1.26Q32.53-1.26 32.72-1.06Q32.92-0.87 32.92-0.59L32.92-0.59Q32.92-0.31 32.72-0.12Q32.53 0.08 32.25 0.08Z" fill="#F2F2F2" opacity="0.6" id="msvg-4a3yq4jcd8l" style="transform: translate(0px, 129.385px)"/>
</svg>
