<svg width="327" height="97" viewBox="0 0 327 97" fill="none" xmlns="http://www.w3.org/2000/svg">
    <path d="M14.4051 7.29091V23H12.2267L4.24176 11.479H4.09602V23H1.72585V7.29091H3.9196L11.9122 18.8273H12.058V7.29091H14.4051ZM21.2072 23.2608C20.4606 23.2608 19.7856 23.1227 19.1822 22.8466C18.5788 22.5653 18.1006 22.1588 17.7478 21.627C17.4001 21.0952 17.2262 20.4432 17.2262 19.671C17.2262 19.0062 17.354 18.4591 17.6097 18.0295C17.8654 17.6 18.2106 17.2599 18.6452 17.0094C19.0799 16.7588 19.5657 16.5696 20.1026 16.4418C20.6396 16.3139 21.1867 16.2168 21.7441 16.1503C22.4498 16.0685 23.0225 16.002 23.4623 15.9509C23.9021 15.8946 24.2217 15.8051 24.4211 15.6824C24.6205 15.5597 24.7202 15.3602 24.7202 15.0841V15.0304C24.7202 14.3605 24.531 13.8415 24.1526 13.4733C23.7793 13.1051 23.2219 12.921 22.4805 12.921C21.7083 12.921 21.0998 13.0923 20.6549 13.4349C20.2151 13.7724 19.9109 14.1483 19.7421 14.5625L17.5867 14.0716C17.8424 13.3557 18.2157 12.7778 18.7066 12.3381C19.2026 11.8932 19.7728 11.571 20.4171 11.3716C21.0614 11.167 21.739 11.0648 22.4498 11.0648C22.9202 11.0648 23.4188 11.121 23.9455 11.2335C24.4773 11.3409 24.9734 11.5403 25.4336 11.8318C25.8989 12.1233 26.2799 12.5401 26.5765 13.0821C26.8731 13.619 27.0214 14.317 27.0214 15.1761V23H24.7816V21.3892H24.6896C24.5413 21.6858 24.3188 21.9773 24.0222 22.2636C23.7256 22.55 23.3447 22.7878 22.8793 22.977C22.414 23.1662 21.8566 23.2608 21.2072 23.2608ZM21.7058 21.4199C22.3398 21.4199 22.8819 21.2946 23.3319 21.044C23.787 20.7935 24.1322 20.4662 24.3674 20.0622C24.6077 19.6531 24.7279 19.2159 24.7279 18.7506V17.2318C24.6461 17.3136 24.4876 17.3903 24.2523 17.4619C24.0222 17.5284 23.7589 17.5872 23.4623 17.6384C23.1657 17.6844 22.8768 17.7278 22.5955 17.7687C22.3143 17.8045 22.079 17.8352 21.8898 17.8608C21.445 17.917 21.0384 18.0116 20.6702 18.1446C20.3072 18.2776 20.0157 18.4693 19.7958 18.7199C19.581 18.9653 19.4737 19.2926 19.4737 19.7017C19.4737 20.2693 19.6833 20.6989 20.1026 20.9903C20.5219 21.2767 21.0563 21.4199 21.7058 21.4199ZM35.6759 11.2182V13.0591H29.2403V11.2182H35.6759ZM30.9662 8.39545H33.2597V19.5406C33.2597 19.9855 33.3261 20.3205 33.4591 20.5455C33.592 20.7653 33.7634 20.9162 33.973 20.998C34.1878 21.0747 34.4205 21.1131 34.671 21.1131C34.8551 21.1131 35.0162 21.1003 35.1543 21.0747C35.2923 21.0491 35.3997 21.0287 35.4764 21.0134L35.8906 22.908C35.7577 22.9591 35.5685 23.0102 35.323 23.0614C35.0776 23.1176 34.7707 23.1483 34.4026 23.1534C33.7991 23.1636 33.2366 23.0563 32.7151 22.8312C32.1935 22.6062 31.7716 22.2585 31.4494 21.7881C31.1273 21.3176 30.9662 20.727 30.9662 20.0162V8.39545ZM40.8594 16.0045V23H38.566V7.29091H40.8288V13.1358H40.9745C41.2506 12.5017 41.6725 11.998 42.2401 11.6247C42.8077 11.2514 43.5492 11.0648 44.4646 11.0648C45.2725 11.0648 45.9782 11.231 46.5816 11.5634C47.1901 11.8957 47.6606 12.3918 47.993 13.0514C48.3305 13.706 48.4992 14.5241 48.4992 15.506V23H46.2058V15.7821C46.2058 14.9179 45.9833 14.248 45.5384 13.7724C45.0935 13.2918 44.4748 13.0514 43.6822 13.0514C43.1401 13.0514 42.6543 13.1665 42.2248 13.3966C41.8004 13.6267 41.4654 13.9642 41.22 14.4091C40.9796 14.8489 40.8594 15.3807 40.8594 16.0045ZM55.0884 23.2608C54.3418 23.2608 53.6668 23.1227 53.0634 22.8466C52.46 22.5653 51.9819 22.1588 51.629 21.627C51.2813 21.0952 51.1075 20.4432 51.1075 19.671C51.1075 19.0062 51.2353 18.4591 51.491 18.0295C51.7467 17.6 52.0918 17.2599 52.5265 17.0094C52.9612 16.7588 53.4469 16.5696 53.9839 16.4418C54.5208 16.3139 55.068 16.2168 55.6254 16.1503C56.331 16.0685 56.9038 16.002 57.3435 15.9509C57.7833 15.8946 58.1029 15.8051 58.3023 15.6824C58.5018 15.5597 58.6015 15.3602 58.6015 15.0841V15.0304C58.6015 14.3605 58.4123 13.8415 58.0339 13.4733C57.6606 13.1051 57.1032 12.921 56.3617 12.921C55.5896 12.921 54.981 13.0923 54.5362 13.4349C54.0964 13.7724 53.7921 14.1483 53.6234 14.5625L51.468 14.0716C51.7237 13.3557 52.0969 12.7778 52.5879 12.3381C53.0839 11.8932 53.654 11.571 54.2984 11.3716C54.9427 11.167 55.6202 11.0648 56.331 11.0648C56.8015 11.0648 57.3001 11.121 57.8268 11.2335C58.3586 11.3409 58.8546 11.5403 59.3148 11.8318C59.7802 12.1233 60.1612 12.5401 60.4577 13.0821C60.7543 13.619 60.9026 14.317 60.9026 15.1761V23H58.6629V21.3892H58.5708C58.4225 21.6858 58.2001 21.9773 57.9035 22.2636C57.6069 22.55 57.2259 22.7878 56.7606 22.977C56.2952 23.1662 55.7379 23.2608 55.0884 23.2608ZM55.587 21.4199C56.2211 21.4199 56.7631 21.2946 57.2131 21.044C57.6683 20.7935 58.0134 20.4662 58.2487 20.0622C58.489 19.6531 58.6092 19.2159 58.6092 18.7506V17.2318C58.5273 17.3136 58.3688 17.3903 58.1336 17.4619C57.9035 17.5284 57.6401 17.5872 57.3435 17.6384C57.0469 17.6844 56.758 17.7278 56.4768 17.7687C56.1955 17.8045 55.9603 17.8352 55.7711 17.8608C55.3262 17.917 54.9197 18.0116 54.5515 18.1446C54.1884 18.2776 53.8969 18.4693 53.6771 18.7199C53.4623 18.9653 53.3549 19.2926 53.3549 19.7017C53.3549 20.2693 53.5646 20.6989 53.9839 20.9903C54.4032 21.2767 54.9376 21.4199 55.587 21.4199ZM66.3509 16.0045V23H64.0574V11.2182H66.2588V13.1358H66.4045C66.6756 12.5119 67.1 12.0108 67.6778 11.6324C68.2608 11.254 68.9946 11.0648 69.8793 11.0648C70.6821 11.0648 71.3852 11.2335 71.9886 11.571C72.592 11.9034 73.0599 12.3994 73.3923 13.0591C73.7247 13.7187 73.8909 14.5344 73.8909 15.506V23H71.5974V15.7821C71.5974 14.9281 71.375 14.2608 70.9301 13.7801C70.4852 13.2943 69.8741 13.0514 69.0969 13.0514C68.5651 13.0514 68.092 13.1665 67.6778 13.3966C67.2688 13.6267 66.944 13.9642 66.7037 14.4091C66.4685 14.8489 66.3509 15.3807 66.3509 16.0045ZM83.0673 23V7.29091H92.8087V9.33125H85.4374V14.1176H92.1107V16.1503H85.4374V23H83.0673ZM95.6394 23V11.2182H97.9329V23H95.6394ZM96.7977 9.40028C96.3988 9.40028 96.0562 9.26733 95.7698 9.00142C95.4886 8.7304 95.3479 8.40824 95.3479 8.03494C95.3479 7.65653 95.4886 7.33437 95.7698 7.06846C96.0562 6.79744 96.3988 6.66193 96.7977 6.66193C97.1965 6.66193 97.5366 6.79744 97.8178 7.06846C98.1042 7.33437 98.2474 7.65653 98.2474 8.03494C98.2474 8.40824 98.1042 8.7304 97.8178 9.00142C97.5366 9.26733 97.1965 9.40028 96.7977 9.40028ZM106.196 23.2378C105.035 23.2378 104.036 22.9898 103.197 22.4937C102.363 21.9926 101.719 21.2895 101.264 20.3844C100.814 19.4741 100.589 18.408 100.589 17.1858C100.589 15.979 100.814 14.9153 101.264 13.9949C101.719 13.0744 102.353 12.356 103.166 11.8395C103.985 11.323 104.941 11.0648 106.035 11.0648C106.7 11.0648 107.344 11.1747 107.968 11.3946C108.592 11.6145 109.152 11.9597 109.648 12.4301C110.144 12.9006 110.535 13.5116 110.821 14.2634C111.108 15.0099 111.251 15.9176 111.251 16.9864V17.7994H101.885V16.0812H109.004C109.004 15.4778 108.881 14.9435 108.635 14.4781C108.39 14.0077 108.045 13.6369 107.6 13.3659C107.16 13.0949 106.644 12.9594 106.05 12.9594C105.406 12.9594 104.844 13.1179 104.363 13.4349C103.887 13.7469 103.519 14.156 103.258 14.6622C103.003 15.1634 102.875 15.708 102.875 16.296V17.6384C102.875 18.4259 103.013 19.0957 103.289 19.648C103.57 20.2003 103.962 20.6222 104.463 20.9136C104.964 21.2 105.549 21.3432 106.219 21.3432C106.654 21.3432 107.05 21.2818 107.408 21.1591C107.766 21.0312 108.075 20.842 108.336 20.5915C108.597 20.3409 108.796 20.0315 108.935 19.6634L111.105 20.0545C110.931 20.6937 110.619 21.2537 110.169 21.7344C109.725 22.2099 109.165 22.5807 108.49 22.8466C107.82 23.1074 107.055 23.2378 106.196 23.2378ZM123.637 11.2182L119.365 23H116.91L112.63 11.2182H115.092L118.076 20.2847H118.199L121.175 11.2182H123.637ZM130.57 23.2378C129.409 23.2378 128.409 22.9898 127.57 22.4937C126.737 21.9926 126.093 21.2895 125.638 20.3844C125.188 19.4741 124.963 18.408 124.963 17.1858C124.963 15.979 125.188 14.9153 125.638 13.9949C126.093 13.0744 126.727 12.356 127.54 11.8395C128.358 11.323 129.314 11.0648 130.409 11.0648C131.073 11.0648 131.718 11.1747 132.341 11.3946C132.965 11.6145 133.525 11.9597 134.021 12.4301C134.517 12.9006 134.909 13.5116 135.195 14.2634C135.481 15.0099 135.624 15.9176 135.624 16.9864V17.7994H126.259V16.0812H133.377C133.377 15.4778 133.254 14.9435 133.009 14.4781C132.763 14.0077 132.418 13.6369 131.973 13.3659C131.534 13.0949 131.017 12.9594 130.424 12.9594C129.78 12.9594 129.217 13.1179 128.736 13.4349C128.261 13.7469 127.893 14.156 127.632 14.6622C127.376 15.1634 127.248 15.708 127.248 16.296V17.6384C127.248 18.4259 127.386 19.0957 127.663 19.648C127.944 20.2003 128.335 20.6222 128.836 20.9136C129.337 21.2 129.923 21.3432 130.593 21.3432C131.027 21.3432 131.424 21.2818 131.782 21.1591C132.139 21.0312 132.449 20.842 132.71 20.5915C132.97 20.3409 133.17 20.0315 133.308 19.6634L135.479 20.0545C135.305 20.6937 134.993 21.2537 134.543 21.7344C134.098 22.2099 133.538 22.5807 132.863 22.8466C132.193 23.1074 131.429 23.2378 130.57 23.2378ZM143.769 11.2182V13.0591H137.333V11.2182H143.769ZM139.059 8.39545H141.353V19.5406C141.353 19.9855 141.419 20.3205 141.552 20.5455C141.685 20.7653 141.856 20.9162 142.066 20.998C142.281 21.0747 142.513 21.1131 142.764 21.1131C142.948 21.1131 143.109 21.1003 143.247 21.0747C143.385 21.0491 143.493 21.0287 143.569 21.0134L143.984 22.908C143.851 22.9591 143.661 23.0102 143.416 23.0614C143.171 23.1176 142.864 23.1483 142.496 23.1534C141.892 23.1636 141.33 23.0563 140.808 22.8312C140.286 22.6062 139.865 22.2585 139.542 21.7881C139.22 21.3176 139.059 20.727 139.059 20.0162V8.39545Z" fill="#F2F2F2" />
    <path d="M8.10938 43.75C8.04297 43.082 7.74805 42.5508 7.22461 42.1562C6.70117 41.7617 6.04297 41.5645 5.25 41.5645C4.69141 41.5645 4.19922 41.6602 3.77344 41.8516C3.35156 42.043 3.01953 42.3086 2.77734 42.6484C2.53906 42.9844 2.41992 43.3672 2.41992 43.7969C2.41992 44.1133 2.48828 44.3906 2.625 44.6289C2.76172 44.8672 2.94531 45.0723 3.17578 45.2441C3.41016 45.4121 3.66797 45.5566 3.94922 45.6777C4.23438 45.7988 4.52148 45.9004 4.81055 45.9824L6.07617 46.3457C6.45898 46.4512 6.8418 46.5859 7.22461 46.75C7.60742 46.9141 7.95703 47.1211 8.27344 47.3711C8.59375 47.6172 8.84961 47.9199 9.04102 48.2793C9.23633 48.6348 9.33399 49.0625 9.33399 49.5625C9.33399 50.2031 9.16797 50.7793 8.83594 51.291C8.50391 51.8027 8.02734 52.209 7.40625 52.5098C6.78516 52.8066 6.04102 52.9551 5.17383 52.9551C4.35742 52.9551 3.64844 52.8203 3.04688 52.5508C2.44531 52.2773 1.97266 51.9004 1.62891 51.4199C1.28516 50.9395 1.0918 50.3828 1.04883 49.75H2.17383C2.21289 50.2227 2.36914 50.623 2.64258 50.9512C2.91602 51.2793 3.27148 51.5293 3.70898 51.7012C4.14648 51.8691 4.63477 51.9531 5.17383 51.9531C5.77148 51.9531 6.30273 51.8535 6.76758 51.6543C7.23633 51.4512 7.60352 51.1699 7.86914 50.8105C8.13867 50.4473 8.27344 50.0254 8.27344 49.5449C8.27344 49.1387 8.16797 48.7988 7.95703 48.5254C7.74609 48.248 7.45117 48.0156 7.07227 47.8281C6.69727 47.6406 6.26172 47.4746 5.76563 47.3301L4.33008 46.9082C3.38867 46.627 2.6582 46.2383 2.13867 45.7422C1.61914 45.2461 1.35938 44.6133 1.35938 43.8437C1.35938 43.1992 1.53125 42.6328 1.875 42.1445C2.22266 41.6523 2.69141 41.2695 3.28125 40.9961C3.875 40.7187 4.54102 40.5801 5.2793 40.5801C6.02539 40.5801 6.68555 40.7168 7.25977 40.9902C7.83398 41.2637 8.28906 41.6406 8.625 42.1211C8.96484 42.5977 9.14648 43.1406 9.16992 43.75H8.10938ZM15.7988 43.75V44.6582H11.5039V43.75H15.7988ZM12.8457 41.5937H13.8945V50.4004C13.8945 50.7754 13.959 51.0703 14.0879 51.2852C14.2168 51.4961 14.3848 51.6465 14.5918 51.7363C14.7988 51.8223 15.0195 51.8652 15.2539 51.8652C15.3906 51.8652 15.5078 51.8574 15.6055 51.8418C15.7031 51.8223 15.7891 51.8027 15.8633 51.7832L16.0859 52.7266C15.9844 52.7656 15.8594 52.8008 15.7109 52.832C15.5625 52.8672 15.3789 52.8848 15.1602 52.8848C14.7773 52.8848 14.4082 52.8008 14.0527 52.6328C13.7012 52.4648 13.4121 52.2148 13.1855 51.8828C12.959 51.5508 12.8457 51.1387 12.8457 50.6465V41.5937ZM24.3862 49.3105V43.75H25.4292V52.75H24.3862V51.2559H24.3042C24.0933 51.7168 23.7593 52.1016 23.3022 52.4102C22.8452 52.7148 22.2866 52.8672 21.6265 52.8672C21.0522 52.8672 20.5425 52.7422 20.0972 52.4922C19.6519 52.2383 19.3022 51.8672 19.0483 51.3789C18.7944 50.8906 18.6675 50.291 18.6675 49.5801V43.75H19.7104V49.5156C19.7104 50.2187 19.9175 50.7852 20.3315 51.2148C20.7456 51.6406 21.2769 51.8535 21.9253 51.8535C22.3315 51.8535 22.7222 51.7559 23.0972 51.5605C23.4722 51.3652 23.7808 51.0801 24.0229 50.7051C24.2651 50.3262 24.3862 49.8613 24.3862 49.3105ZM31.9307 52.9375C31.1924 52.9375 30.5459 52.7422 29.9912 52.3516C29.4365 51.9609 29.0029 51.416 28.6904 50.7168C28.3818 50.0176 28.2275 49.2031 28.2275 48.2734C28.2275 47.3477 28.3818 46.5371 28.6904 45.8418C29.0029 45.1426 29.4385 44.5996 29.9971 44.2129C30.5557 43.8223 31.2061 43.627 31.9482 43.627C32.4951 43.627 32.9502 43.7246 33.3135 43.9199C33.6768 44.1113 33.9678 44.3496 34.1865 44.6348C34.4053 44.9199 34.5752 45.1973 34.6963 45.4668H34.79V40.75H35.8389V52.75H34.8193V51.0801H34.6963C34.5752 51.3535 34.4033 51.6348 34.1807 51.9238C33.958 52.209 33.6631 52.4492 33.2959 52.6445C32.9326 52.8398 32.4775 52.9375 31.9307 52.9375ZM32.0537 51.9824C32.6357 51.9824 33.1318 51.8242 33.542 51.5078C33.9521 51.1875 34.2646 50.748 34.4795 50.1895C34.6982 49.627 34.8076 48.9824 34.8076 48.2559C34.8076 47.5371 34.7002 46.9023 34.4854 46.3516C34.2705 45.7969 33.958 45.3633 33.5479 45.0508C33.1377 44.7344 32.6396 44.5762 32.0537 44.5762C31.4521 44.5762 30.9443 44.7402 30.5303 45.0684C30.1201 45.3926 29.8076 45.832 29.5928 46.3867C29.3818 46.9414 29.2764 47.5645 29.2764 48.2559C29.2764 48.9551 29.3838 49.5859 29.5986 50.1484C29.8135 50.7109 30.126 51.1582 30.5361 51.4902C30.9502 51.8184 31.4561 51.9824 32.0537 51.9824ZM42.9482 52.9375C42.1084 52.9375 41.3818 52.7422 40.7686 52.3516C40.1553 51.957 39.6807 51.4121 39.3447 50.7168C39.0127 50.0176 38.8467 49.2129 38.8467 48.3027C38.8467 47.3965 39.0127 46.5918 39.3447 45.8887C39.6807 45.1816 40.1436 44.6289 40.7334 44.2305C41.3271 43.8281 42.0127 43.627 42.79 43.627C43.2783 43.627 43.749 43.7168 44.2021 43.8965C44.6553 44.0723 45.0615 44.3437 45.4209 44.7109C45.7842 45.0742 46.0713 45.5332 46.2822 46.0879C46.4932 46.6387 46.5986 47.291 46.5986 48.0449V48.5605H39.5674V47.6406H45.5322C45.5322 47.0625 45.415 46.543 45.1807 46.082C44.9502 45.6172 44.6279 45.25 44.2139 44.9805C43.8037 44.7109 43.3291 44.5762 42.79 44.5762C42.2197 44.5762 41.7178 44.7285 41.2842 45.0332C40.8506 45.3379 40.5107 45.7402 40.2646 46.2402C40.0225 46.7402 39.8994 47.2871 39.8955 47.8809V48.4316C39.8955 49.1465 40.0186 49.7715 40.2646 50.3066C40.5146 50.8379 40.8682 51.25 41.3252 51.543C41.7822 51.8359 42.3232 51.9824 42.9482 51.9824C43.374 51.9824 43.7471 51.916 44.0674 51.7832C44.3916 51.6504 44.6631 51.4727 44.8818 51.25C45.1045 51.0234 45.2725 50.7754 45.3857 50.5059L46.376 50.8281C46.2393 51.207 46.0146 51.5566 45.7021 51.877C45.3936 52.1973 45.0068 52.4551 44.542 52.6504C44.0811 52.8418 43.5498 52.9375 42.9482 52.9375ZM50.4399 47.125V52.75H49.397V43.75H50.4106V45.1621H50.5044C50.7153 44.7012 51.0435 44.332 51.4888 44.0547C51.938 43.7734 52.4927 43.6328 53.1528 43.6328C53.7583 43.6328 54.2896 43.7598 54.7466 44.0137C55.2075 44.2637 55.5649 44.6328 55.8188 45.1211C56.0767 45.6094 56.2056 46.209 56.2056 46.9199V52.75H55.1626V46.9844C55.1626 46.2461 54.9556 45.6621 54.5415 45.2324C54.1313 44.8027 53.5806 44.5879 52.8892 44.5879C52.4165 44.5879 51.9966 44.6895 51.6294 44.8926C51.2622 45.0957 50.9712 45.3887 50.7563 45.7715C50.5454 46.1504 50.4399 46.6016 50.4399 47.125ZM62.9971 43.75V44.6582H58.7021V43.75H62.9971ZM60.0439 41.5937H61.0928V50.4004C61.0928 50.7754 61.1572 51.0703 61.2861 51.2852C61.415 51.4961 61.583 51.6465 61.79 51.7363C61.9971 51.8223 62.2178 51.8652 62.4521 51.8652C62.5889 51.8652 62.7061 51.8574 62.8037 51.8418C62.9014 51.8223 62.9873 51.8027 63.0615 51.7832L63.2842 52.7266C63.1826 52.7656 63.0576 52.8008 62.9092 52.832C62.7607 52.8672 62.5771 52.8848 62.3584 52.8848C61.9756 52.8848 61.6064 52.8008 61.251 52.6328C60.8994 52.4648 60.6104 52.2148 60.3838 51.8828C60.1572 51.5508 60.0439 51.1387 60.0439 50.6465V41.5937ZM86.1294 46.2578V47.2422H69.6294V46.2578H86.1294ZM93.3638 52.75V40.75H100.325V41.7344H94.4595V46.252H99.9556V47.2363H94.4595V51.7656H100.442V52.75H93.3638ZM103.444 56.125V43.75H104.458V45.4668H104.581C104.706 45.1973 104.877 44.9219 105.096 44.6406C105.315 44.3555 105.604 44.1152 105.963 43.9199C106.327 43.7246 106.784 43.627 107.334 43.627C108.077 43.627 108.725 43.8223 109.28 44.2129C109.838 44.5996 110.272 45.1426 110.581 45.8418C110.893 46.5371 111.049 47.3477 111.049 48.2734C111.049 49.2031 110.893 50.0176 110.581 50.7168C110.272 51.416 109.838 51.9609 109.28 52.3516C108.725 52.7422 108.081 52.9375 107.346 52.9375C106.803 52.9375 106.348 52.8398 105.981 52.6445C105.618 52.4492 105.323 52.209 105.096 51.9238C104.874 51.6348 104.702 51.3535 104.581 51.0801H104.487V56.125H103.444ZM104.475 48.2559C104.475 48.9824 104.583 49.627 104.797 50.1895C105.016 50.748 105.329 51.1875 105.735 51.5078C106.145 51.8242 106.641 51.9824 107.223 51.9824C107.821 51.9824 108.325 51.8184 108.735 51.4902C109.149 51.1582 109.463 50.7109 109.678 50.1484C109.897 49.5859 110.006 48.9551 110.006 48.2559C110.006 47.5645 109.899 46.9414 109.684 46.3867C109.473 45.832 109.161 45.3926 108.747 45.0684C108.333 44.7402 107.825 44.5762 107.223 44.5762C106.637 44.5762 106.139 44.7344 105.729 45.0508C105.319 45.3633 105.006 45.7969 104.792 46.3516C104.581 46.9023 104.475 47.5371 104.475 48.2559ZM113.849 52.75V43.75H114.898V52.75H113.849ZM114.382 42.2031C114.167 42.2031 113.984 42.1309 113.832 41.9863C113.679 41.8379 113.603 41.6602 113.603 41.4531C113.603 41.2461 113.679 41.0703 113.832 40.9258C113.984 40.7773 114.167 40.7031 114.382 40.7031C114.597 40.7031 114.781 40.7773 114.933 40.9258C115.085 41.0703 115.162 41.2461 115.162 41.4531C115.162 41.6602 115.085 41.8379 114.933 41.9863C114.781 42.1309 114.597 42.2031 114.382 42.2031ZM121.701 43.75V44.6582H117.406V43.75H121.701ZM118.748 41.5937H119.797V50.4004C119.797 50.7754 119.861 51.0703 119.99 51.2852C120.119 51.4961 120.287 51.6465 120.494 51.7363C120.701 51.8223 120.922 51.8652 121.156 51.8652C121.293 51.8652 121.41 51.8574 121.508 51.8418C121.605 51.8223 121.691 51.8027 121.766 51.7832L121.988 52.7266C121.887 52.7656 121.762 52.8008 121.613 52.832C121.465 52.8672 121.281 52.8848 121.062 52.8848C120.68 52.8848 120.311 52.8008 119.955 52.6328C119.604 52.4648 119.314 52.2148 119.088 51.8828C118.861 51.5508 118.748 51.1387 118.748 50.6465V41.5937ZM128.112 52.9375C127.272 52.9375 126.545 52.7422 125.932 52.3516C125.319 51.957 124.844 51.4121 124.508 50.7168C124.176 50.0176 124.01 49.2129 124.01 48.3027C124.01 47.3965 124.176 46.5918 124.508 45.8887C124.844 45.1816 125.307 44.6289 125.897 44.2305C126.491 43.8281 127.176 43.627 127.954 43.627C128.442 43.627 128.913 43.7168 129.366 43.8965C129.819 44.0723 130.225 44.3437 130.584 44.7109C130.948 45.0742 131.235 45.5332 131.446 46.0879C131.657 46.6387 131.762 47.291 131.762 48.0449V48.5605H124.731V47.6406H130.696C130.696 47.0625 130.579 46.543 130.344 46.082C130.114 45.6172 129.792 45.25 129.377 44.9805C128.967 44.7109 128.493 44.5762 127.954 44.5762C127.383 44.5762 126.881 44.7285 126.448 45.0332C126.014 45.3379 125.674 45.7402 125.428 46.2402C125.186 46.7402 125.063 47.2871 125.059 47.8809V48.4316C125.059 49.1465 125.182 49.7715 125.428 50.3066C125.678 50.8379 126.032 51.25 126.489 51.543C126.946 51.8359 127.487 51.9824 128.112 51.9824C128.538 51.9824 128.911 51.916 129.231 51.7832C129.555 51.6504 129.827 51.4727 130.045 51.25C130.268 51.0234 130.436 50.7754 130.549 50.5059L131.54 50.8281C131.403 51.207 131.178 51.5566 130.866 51.877C130.557 52.1973 130.17 52.4551 129.706 52.6504C129.245 52.8418 128.713 52.9375 128.112 52.9375ZM138.076 52.9375C137.271 52.9375 136.57 52.7363 135.973 52.334C135.379 51.9316 134.918 51.3809 134.59 50.6816C134.262 49.9824 134.098 49.1855 134.098 48.291C134.098 47.3887 134.264 46.5859 134.596 45.8828C134.932 45.1797 135.396 44.6289 135.99 44.2305C136.584 43.8281 137.273 43.627 138.059 43.627C138.66 43.627 139.205 43.7441 139.693 43.9785C140.182 44.209 140.584 44.5352 140.9 44.957C141.221 45.375 141.422 45.8633 141.504 46.4219H140.449C140.34 45.9141 140.076 45.4805 139.658 45.1211C139.244 44.7578 138.717 44.5762 138.076 44.5762C137.502 44.5762 136.994 44.7324 136.553 45.0449C136.111 45.3535 135.766 45.7852 135.516 46.3398C135.27 46.8906 135.146 47.5293 135.146 48.2559C135.146 48.9863 135.268 49.6328 135.51 50.1953C135.752 50.7539 136.092 51.1914 136.529 51.5078C136.971 51.8242 137.486 51.9824 138.076 51.9824C138.475 51.9824 138.838 51.9082 139.166 51.7598C139.498 51.6074 139.775 51.3926 139.998 51.1152C140.225 50.8379 140.377 50.5078 140.455 50.125H141.51C141.432 50.668 141.238 51.1523 140.93 51.5781C140.625 52 140.229 52.332 139.74 52.5742C139.256 52.8164 138.701 52.9375 138.076 52.9375ZM145.288 47.125V52.75H144.245V40.75H145.288V45.1621H145.382C145.593 44.6973 145.919 44.3262 146.36 44.0488C146.806 43.7715 147.368 43.6328 148.048 43.6328C148.657 43.6328 149.192 43.7578 149.653 44.0078C150.114 44.2578 150.474 44.627 150.731 45.1152C150.989 45.6035 151.118 46.2051 151.118 46.9199V52.75H150.069V46.9844C150.069 46.2422 149.862 45.6582 149.448 45.2324C149.038 44.8027 148.483 44.5879 147.784 44.5879C147.304 44.5879 146.876 44.6895 146.501 44.8926C146.126 45.0957 145.829 45.3887 145.61 45.7715C145.396 46.1504 145.288 46.6016 145.288 47.125Z" fill="#F2F2F2" fill-opacity="0.4" />
    <g opacity="0.6">
        <path d="M111.036 88.5363L110.041 87.5417L120.331 77.2514H114.326V75.832H122.745V84.2514H121.326V78.246L111.036 88.5363Z" fill="#F2F2F2" />
        <path d="M4.63125 90.1182C3.99972 90.1182 3.45682 90.0369 3.00256 89.8744C2.5483 89.7156 2.16974 89.5051 1.8669 89.2429C1.56776 88.9844 1.32955 88.7074 1.15227 88.4119L2.19375 87.6807C2.31193 87.8358 2.46151 88.0131 2.64247 88.2125C2.82344 88.4156 3.07088 88.5911 3.3848 88.7388C3.70242 88.8902 4.1179 88.9659 4.63125 88.9659C5.31818 88.9659 5.88509 88.7997 6.33196 88.4673C6.77884 88.1349 7.00227 87.6142 7.00227 86.9051V85.1767H6.89148C6.79546 85.3318 6.65881 85.5239 6.48153 85.7528C6.30795 85.9781 6.05682 86.1794 5.72813 86.3567C5.40313 86.5303 4.96364 86.617 4.40966 86.617C3.72273 86.617 3.10597 86.4545 2.55938 86.1295C2.01648 85.8045 1.58622 85.3318 1.26861 84.7114C0.954688 84.0909 0.797727 83.3375 0.797727 82.4511C0.797727 81.5795 0.950994 80.8206 1.25753 80.1743C1.56406 79.5243 1.99063 79.022 2.53722 78.6675C3.08381 78.3092 3.71534 78.1301 4.43182 78.1301C4.9858 78.1301 5.42528 78.2224 5.75028 78.4071C6.07898 78.5881 6.33011 78.7949 6.50369 79.0276C6.68097 79.2565 6.81761 79.4449 6.91364 79.5926H7.04659V78.2409H8.30966V86.9938C8.30966 87.725 8.14347 88.3196 7.81108 88.7776C7.48239 89.2392 7.0392 89.5771 6.48153 89.7913C5.92756 90.0092 5.3108 90.1182 4.63125 90.1182ZM4.58693 85.4426C5.11136 85.4426 5.55455 85.3226 5.91648 85.0825C6.27841 84.8425 6.55355 84.4972 6.7419 84.0466C6.93026 83.596 7.02443 83.0568 7.02443 82.429C7.02443 81.8159 6.9321 81.2749 6.74744 80.8058C6.56278 80.3368 6.28949 79.9693 5.92756 79.7034C5.56563 79.4375 5.11875 79.3045 4.58693 79.3045C4.03295 79.3045 3.57131 79.4449 3.20199 79.7256C2.83636 80.0062 2.56122 80.383 2.37656 80.8557C2.1956 81.3284 2.10511 81.8528 2.10511 82.429C2.10511 83.0199 2.19744 83.5425 2.3821 83.9967C2.57045 84.4473 2.84744 84.8018 3.21307 85.0604C3.58239 85.3152 4.04034 85.4426 4.58693 85.4426ZM10.9028 86.75V78.2409H12.2102V86.75H10.9028ZM11.5676 76.8227C11.3128 76.8227 11.093 76.7359 10.9084 76.5624C10.7274 76.3888 10.6369 76.1801 10.6369 75.9364C10.6369 75.6926 10.7274 75.4839 10.9084 75.3104C11.093 75.1368 11.3128 75.05 11.5676 75.05C11.8224 75.05 12.0403 75.1368 12.2213 75.3104C12.406 75.4839 12.4983 75.6926 12.4983 75.9364C12.4983 76.1801 12.406 76.3888 12.2213 76.5624C12.0403 76.7359 11.8224 76.8227 11.5676 76.8227ZM18.5054 78.2409V79.3489H14.0957V78.2409H18.5054ZM15.3809 76.2023H16.6883V84.3125C16.6883 84.6818 16.7419 84.9588 16.849 85.1435C16.9598 85.3244 17.1001 85.4463 17.27 85.5091C17.4436 85.5682 17.6264 85.5977 17.8184 85.5977C17.9625 85.5977 18.0806 85.5903 18.173 85.5756C18.2653 85.5571 18.3392 85.5423 18.3946 85.5312L18.6605 86.7057C18.5718 86.7389 18.4481 86.7722 18.2893 86.8054C18.1305 86.8423 17.9292 86.8608 17.6855 86.8608C17.3162 86.8608 16.9542 86.7814 16.5997 86.6226C16.2488 86.4638 15.9571 86.2219 15.7244 85.8969C15.4954 85.5719 15.3809 85.1619 15.3809 84.667V76.2023ZM22.1622 81.6312V86.75H20.8548V75.4045H22.1622V79.5705H22.273C22.4724 79.131 22.7716 78.782 23.1704 78.5234C23.573 78.2612 24.1085 78.1301 24.777 78.1301C25.3568 78.1301 25.8646 78.2464 26.3004 78.4791C26.7362 78.7081 27.0741 79.0608 27.3142 79.5372C27.5579 80.0099 27.6798 80.6119 27.6798 81.3432V86.75H26.3724V81.4318C26.3724 80.756 26.197 80.2334 25.8461 79.8641C25.499 79.4911 25.017 79.3045 24.4002 79.3045C23.9718 79.3045 23.5877 79.395 23.248 79.576C22.9119 79.757 22.646 80.021 22.4502 80.3682C22.2582 80.7153 22.1622 81.1364 22.1622 81.6312ZM35.6341 83.271V78.2409H36.9415V86.75H35.6341V85.3097H35.5455C35.346 85.7418 35.0358 86.1092 34.6148 86.4121C34.1938 86.7112 33.6619 86.8608 33.0193 86.8608C32.4875 86.8608 32.0148 86.7445 31.6011 86.5118C31.1875 86.2754 30.8625 85.9209 30.6261 85.4482C30.3898 84.9717 30.2716 84.3716 30.2716 83.6477V78.2409H31.579V83.5591C31.579 84.1795 31.7526 84.6744 32.0997 85.0437C32.4506 85.4131 32.8974 85.5977 33.4403 85.5977C33.7653 85.5977 34.0959 85.5146 34.432 85.3484C34.7717 85.1822 35.0561 84.9274 35.2851 84.5839C35.5178 84.2405 35.6341 83.8028 35.6341 83.271ZM39.7133 86.75V75.4045H41.0207V79.5926H41.1315C41.2275 79.4449 41.3605 79.2565 41.5304 79.0276C41.7039 78.7949 41.9514 78.5881 42.2727 78.4071C42.5977 78.2224 43.0372 78.1301 43.5912 78.1301C44.3076 78.1301 44.9392 78.3092 45.4858 78.6675C46.0324 79.0257 46.4589 79.5335 46.7654 80.1909C47.072 80.8483 47.2253 81.6239 47.2253 82.5176C47.2253 83.4187 47.072 84.1999 46.7654 84.8609C46.4589 85.5183 46.0342 86.028 45.4913 86.3899C44.9484 86.7482 44.3224 86.9273 43.6133 86.9273C43.0667 86.9273 42.6291 86.8368 42.3004 86.6558C41.9717 86.4712 41.7187 86.2625 41.5414 86.0298C41.3642 85.7935 41.2275 85.5977 41.1315 85.4426H40.9764V86.75H39.7133ZM40.9985 82.4955C40.9985 83.1381 41.0927 83.705 41.2811 84.1962C41.4694 84.6837 41.7446 85.0659 42.1065 85.3429C42.4684 85.6162 42.9116 85.7528 43.436 85.7528C43.9826 85.7528 44.4387 85.6088 44.8044 85.3207C45.1737 85.029 45.4507 84.6375 45.6353 84.1463C45.8237 83.6514 45.9179 83.1011 45.9179 82.4955C45.9179 81.8972 45.8255 81.358 45.6409 80.8778C45.4599 80.394 45.1848 80.0118 44.8154 79.7311C44.4498 79.4467 43.99 79.3045 43.436 79.3045C42.9042 79.3045 42.4574 79.4393 42.0954 79.7089C41.7335 79.9749 41.4602 80.3479 41.2755 80.828C41.0909 81.3044 40.9985 81.8602 40.9985 82.4955ZM50.3779 86.8386C50.1047 86.8386 49.8701 86.7408 49.6744 86.545C49.4787 86.3493 49.3808 86.1148 49.3808 85.8415C49.3808 85.5682 49.4787 85.3337 49.6744 85.1379C49.8701 84.9422 50.1047 84.8443 50.3779 84.8443C50.6512 84.8443 50.8858 84.9422 51.0815 85.1379C51.2772 85.3337 51.3751 85.5682 51.3751 85.8415C51.3751 86.0224 51.3289 86.1886 51.2366 86.3401C51.148 86.4915 51.0279 86.6134 50.8765 86.7057C50.7288 86.7943 50.5626 86.8386 50.3779 86.8386ZM57.378 86.9273C56.5803 86.9273 55.8934 86.7389 55.3172 86.3622C54.7411 85.9855 54.2979 85.4666 53.9877 84.8055C53.6775 84.1445 53.5223 83.3892 53.5223 82.5398C53.5223 81.6756 53.6811 80.9129 53.9988 80.2518C54.3201 79.5871 54.7669 79.0682 55.3394 78.6952C55.9155 78.3185 56.5877 78.1301 57.3559 78.1301C57.9542 78.1301 58.4934 78.2409 58.9735 78.4625C59.4536 78.6841 59.8469 78.9943 60.1534 79.3932C60.46 79.792 60.6502 80.2574 60.724 80.7892H59.4167C59.3169 80.4014 59.0953 80.058 58.7519 79.7588C58.4121 79.456 57.9542 79.3045 57.378 79.3045C56.8684 79.3045 56.4215 79.4375 56.0374 79.7034C55.657 79.9656 55.3597 80.3368 55.1455 80.8169C54.935 81.2933 54.8297 81.8528 54.8297 82.4955C54.8297 83.1528 54.9331 83.7253 55.14 84.2128C55.3505 84.7003 55.6459 85.0788 56.0263 85.3484C56.4104 85.618 56.861 85.7528 57.378 85.7528C57.7178 85.7528 58.0262 85.6937 58.3032 85.5756C58.5801 85.4574 58.8147 85.2875 59.0067 85.0659C59.1988 84.8443 59.3354 84.5784 59.4167 84.2682H60.724C60.6502 84.7705 60.4674 85.2229 60.1756 85.6254C59.8875 86.0243 59.5053 86.3419 59.0289 86.5783C58.5561 86.8109 58.0059 86.9273 57.378 86.9273ZM66.2921 86.9273C65.5239 86.9273 64.8499 86.7445 64.2701 86.3788C63.6939 86.0132 63.2434 85.5017 62.9184 84.8443C62.5971 84.1869 62.4364 83.4187 62.4364 82.5398C62.4364 81.6534 62.5971 80.8797 62.9184 80.2186C63.2434 79.5575 63.6939 79.0442 64.2701 78.6786C64.8499 78.3129 65.5239 78.1301 66.2921 78.1301C67.0603 78.1301 67.7324 78.3129 68.3086 78.6786C68.8884 79.0442 69.339 79.5575 69.6603 80.2186C69.9853 80.8797 70.1478 81.6534 70.1478 82.5398C70.1478 83.4187 69.9853 84.1869 69.6603 84.8443C69.339 85.5017 68.8884 86.0132 68.3086 86.3788C67.7324 86.7445 67.0603 86.9273 66.2921 86.9273ZM66.2921 85.7528C66.8756 85.7528 67.3557 85.6033 67.7324 85.3041C68.1091 85.005 68.388 84.6116 68.5689 84.1241C68.7499 83.6366 68.8404 83.1085 68.8404 82.5398C68.8404 81.971 68.7499 81.4411 68.5689 80.9499C68.388 80.4587 68.1091 80.0616 67.7324 79.7588C67.3557 79.456 66.8756 79.3045 66.2921 79.3045C65.7086 79.3045 65.2284 79.456 64.8517 79.7588C64.475 80.0616 64.1962 80.4587 64.0152 80.9499C63.8343 81.4411 63.7438 81.971 63.7438 82.5398C63.7438 83.1085 63.8343 83.6366 64.0152 84.1241C64.1962 84.6116 64.475 85.005 64.8517 85.3041C65.2284 85.6033 65.7086 85.7528 66.2921 85.7528ZM72.3435 86.75V78.2409H73.6065V79.5705H73.7173C73.8946 79.1162 74.1808 78.7635 74.576 78.5124C74.9712 78.2575 75.4457 78.1301 75.9997 78.1301C76.5611 78.1301 77.0283 78.2575 77.4013 78.5124C77.778 78.7635 78.0716 79.1162 78.2821 79.5705H78.3707C78.5886 79.131 78.9155 78.782 79.3513 78.5234C79.7871 78.2612 80.3097 78.1301 80.919 78.1301C81.6798 78.1301 82.3021 78.3683 82.7859 78.8447C83.2698 79.3175 83.5117 80.0543 83.5117 81.0551V86.75H82.2043V81.0551C82.2043 80.4273 82.0325 79.9786 81.6891 79.7089C81.3456 79.4393 80.9412 79.3045 80.4759 79.3045C79.8776 79.3045 79.4141 79.4855 79.0854 79.8474C78.7567 80.2057 78.5923 80.6599 78.5923 81.2102V86.75H77.2628V80.9222C77.2628 80.4384 77.1058 80.0487 76.7919 79.7533C76.478 79.4541 76.0736 79.3045 75.5787 79.3045C75.2389 79.3045 74.9213 79.395 74.6259 79.576C74.3341 79.757 74.0977 80.0081 73.9168 80.3294C73.7395 80.647 73.6509 81.0145 73.6509 81.4318V86.75H72.3435Z" fill="#F2F2F2" />
    </g>
</svg>
