<svg width="327" height="97" viewBox="0 0 327 97" fill="none" xmlns="http://www.w3.org/2000/svg">
    <path d="M15.3716 15.1455C15.3716 16.8227 15.0648 18.2648 14.4511 19.4716C13.8375 20.6733 12.9963 21.5989 11.9276 22.2483C10.8639 22.8926 9.65455 23.2148 8.29943 23.2148C6.93921 23.2148 5.72472 22.8926 4.65597 22.2483C3.59233 21.5989 2.75369 20.6707 2.14006 19.4639C1.52642 18.2571 1.2196 16.8176 1.2196 15.1455C1.2196 13.4682 1.52642 12.0287 2.14006 10.827C2.75369 9.62017 3.59233 8.6946 4.65597 8.05028C5.72472 7.40085 6.93921 7.07614 8.29943 7.07614C9.65455 7.07614 10.8639 7.40085 11.9276 8.05028C12.9963 8.6946 13.8375 9.62017 14.4511 10.827C15.0648 12.0287 15.3716 13.4682 15.3716 15.1455ZM13.0244 15.1455C13.0244 13.867 12.8173 12.7906 12.4031 11.9162C11.994 11.0366 11.4315 10.3719 10.7156 9.92187C10.0048 9.46676 9.19943 9.2392 8.29943 9.2392C7.39432 9.2392 6.58636 9.46676 5.87557 9.92187C5.16477 10.3719 4.60227 11.0366 4.18807 11.9162C3.77898 12.7906 3.57443 13.867 3.57443 15.1455C3.57443 16.4239 3.77898 17.5028 4.18807 18.3824C4.60227 19.2568 5.16477 19.9216 5.87557 20.3767C6.58636 20.8267 7.39432 21.0517 8.29943 21.0517C9.19943 21.0517 10.0048 20.8267 10.7156 20.3767C11.4315 19.9216 11.994 19.2568 12.4031 18.3824C12.8173 17.5028 13.0244 16.4239 13.0244 15.1455ZM27.0712 14.0946L24.9925 14.4628C24.9056 14.1969 24.7675 13.9437 24.5783 13.7034C24.3942 13.4631 24.1437 13.2662 23.8266 13.1128C23.5096 12.9594 23.1133 12.8827 22.6377 12.8827C21.9883 12.8827 21.4462 13.0284 21.0116 13.3199C20.5769 13.6062 20.3596 13.977 20.3596 14.4321C20.3596 14.8259 20.5053 15.1429 20.7968 15.3832C21.0883 15.6236 21.5587 15.8205 22.2082 15.9739L24.0798 16.4034C25.1639 16.654 25.9718 17.0401 26.5036 17.5616C27.0354 18.0832 27.3014 18.7608 27.3014 19.5943C27.3014 20.3 27.0968 20.929 26.6877 21.4812C26.2837 22.0284 25.7187 22.458 24.9925 22.7699C24.2715 23.0818 23.4354 23.2378 22.4843 23.2378C21.165 23.2378 20.0886 22.9565 19.255 22.394C18.4215 21.8264 17.9102 21.021 17.721 19.9778L19.9377 19.6403C20.0758 20.2182 20.3596 20.6554 20.7891 20.952C21.2187 21.2435 21.7786 21.3892 22.469 21.3892C23.2207 21.3892 23.8215 21.2332 24.2715 20.9213C24.7215 20.6043 24.9465 20.2182 24.9465 19.7631C24.9465 19.3949 24.8085 19.0855 24.5323 18.8349C24.2613 18.5844 23.8445 18.3952 23.282 18.2673L21.2877 17.8301C20.1883 17.5795 19.3752 17.1807 18.8485 16.6335C18.3269 16.0864 18.0661 15.3935 18.0661 14.5548C18.0661 13.8594 18.2604 13.2509 18.6491 12.7293C19.0377 12.2077 19.5746 11.8011 20.2599 11.5097C20.9451 11.2131 21.73 11.0648 22.6147 11.0648C23.888 11.0648 24.8903 11.3409 25.6215 11.8932C26.3528 12.4403 26.836 13.1741 27.0712 14.0946ZM38.7517 14.0946L36.673 14.4628C36.5861 14.1969 36.448 13.9437 36.2588 13.7034C36.0747 13.4631 35.8242 13.2662 35.5071 13.1128C35.1901 12.9594 34.7938 12.8827 34.3182 12.8827C33.6688 12.8827 33.1267 13.0284 32.692 13.3199C32.2574 13.6062 32.0401 13.977 32.0401 14.4321C32.0401 14.8259 32.1858 15.1429 32.4773 15.3832C32.7688 15.6236 33.2392 15.8205 33.8886 15.9739L35.7602 16.4034C36.8443 16.654 37.6523 17.0401 38.1841 17.5616C38.7159 18.0832 38.9818 18.7608 38.9818 19.5943C38.9818 20.3 38.7773 20.929 38.3682 21.4812C37.9642 22.0284 37.3992 22.458 36.673 22.7699C35.952 23.0818 35.1159 23.2378 34.1648 23.2378C32.8455 23.2378 31.769 22.9565 30.9355 22.394C30.102 21.8264 29.5906 21.021 29.4014 19.9778L31.6182 19.6403C31.7563 20.2182 32.0401 20.6554 32.4696 20.952C32.8992 21.2435 33.4591 21.3892 34.1494 21.3892C34.9011 21.3892 35.502 21.2332 35.952 20.9213C36.402 20.6043 36.627 20.2182 36.627 19.7631C36.627 19.3949 36.4889 19.0855 36.2128 18.8349C35.9418 18.5844 35.525 18.3952 34.9625 18.2673L32.9682 17.8301C31.8688 17.5795 31.0557 17.1807 30.529 16.6335C30.0074 16.0864 29.7466 15.3935 29.7466 14.5548C29.7466 13.8594 29.9409 13.2509 30.3295 12.7293C30.7182 12.2077 31.2551 11.8011 31.9403 11.5097C32.6256 11.2131 33.4105 11.0648 34.2952 11.0648C35.5685 11.0648 36.5707 11.3409 37.302 11.8932C38.0332 12.4403 38.5165 13.1741 38.7517 14.0946ZM45.0322 23.2608C44.2856 23.2608 43.6106 23.1227 43.0072 22.8466C42.4038 22.5653 41.9256 22.1588 41.5728 21.627C41.2251 21.0952 41.0512 20.4432 41.0512 19.671C41.0512 19.0062 41.1791 18.4591 41.4347 18.0295C41.6904 17.6 42.0356 17.2599 42.4702 17.0094C42.9049 16.7588 43.3907 16.5696 43.9276 16.4418C44.4646 16.3139 45.0117 16.2168 45.5691 16.1503C46.2748 16.0685 46.8475 16.002 47.2873 15.9509C47.7271 15.8946 48.0467 15.8051 48.2461 15.6824C48.4455 15.5597 48.5452 15.3602 48.5452 15.0841V15.0304C48.5452 14.3605 48.356 13.8415 47.9776 13.4733C47.6043 13.1051 47.0469 12.921 46.3055 12.921C45.5333 12.921 44.9248 13.0923 44.4799 13.4349C44.0401 13.7724 43.7359 14.1483 43.5671 14.5625L41.4117 14.0716C41.6674 13.3557 42.0407 12.7778 42.5316 12.3381C43.0276 11.8932 43.5978 11.571 44.2421 11.3716C44.8864 11.167 45.564 11.0648 46.2748 11.0648C46.7452 11.0648 47.2438 11.121 47.7705 11.2335C48.3023 11.3409 48.7984 11.5403 49.2586 11.8318C49.7239 12.1233 50.1049 12.5401 50.4015 13.0821C50.6981 13.619 50.8464 14.317 50.8464 15.1761V23H48.6066V21.3892H48.5146C48.3663 21.6858 48.1438 21.9773 47.8472 22.2636C47.5506 22.55 47.1697 22.7878 46.7043 22.977C46.239 23.1662 45.6816 23.2608 45.0322 23.2608ZM45.5308 21.4199C46.1648 21.4199 46.7069 21.2946 47.1569 21.044C47.612 20.7935 47.9572 20.4662 48.1924 20.0622C48.4327 19.6531 48.5529 19.2159 48.5529 18.7506V17.2318C48.4711 17.3136 48.3126 17.3903 48.0773 17.4619C47.8472 17.5284 47.5839 17.5872 47.2873 17.6384C46.9907 17.6844 46.7018 17.7278 46.4205 17.7687C46.1393 17.8045 45.9041 17.8352 45.7148 17.8608C45.27 17.917 44.8634 18.0116 44.4952 18.1446C44.1322 18.2776 43.8407 18.4693 43.6208 18.7199C43.406 18.9653 43.2987 19.2926 43.2987 19.7017C43.2987 20.2693 43.5083 20.6989 43.9276 20.9903C44.3469 21.2767 44.8813 21.4199 45.5308 21.4199ZM56.2946 16.0045V23H54.0011V11.2182H56.2026V13.1358H56.3483C56.6193 12.5119 57.0438 12.0108 57.6216 11.6324C58.2045 11.254 58.9384 11.0648 59.823 11.0648C60.6259 11.0648 61.329 11.2335 61.9324 11.571C62.5358 11.9034 63.0037 12.3994 63.3361 13.0591C63.6685 13.7187 63.8347 14.5344 63.8347 15.506V23H61.5412V15.7821C61.5412 14.9281 61.3188 14.2608 60.8739 13.7801C60.429 13.2943 59.8179 13.0514 59.0406 13.0514C58.5088 13.0514 58.0358 13.1665 57.6216 13.3966C57.2125 13.6267 56.8878 13.9642 56.6474 14.4091C56.4122 14.8489 56.2946 15.3807 56.2946 16.0045ZM73.011 7.29091H75.8874L80.8886 19.5023H81.0727L86.0738 7.29091H88.9502V23H86.6951V11.6324H86.5494L81.9164 22.977H80.0448L75.4119 11.6247H75.2661V23H73.011V7.29091ZM101.141 14.0946L99.0621 14.4628C98.9751 14.1969 98.8371 13.9437 98.6479 13.7034C98.4638 13.4631 98.2132 13.2662 97.8962 13.1128C97.5791 12.9594 97.1828 12.8827 96.7072 12.8827C96.0578 12.8827 95.5158 13.0284 95.0811 13.3199C94.6465 13.6062 94.4291 13.977 94.4291 14.4321C94.4291 14.8259 94.5749 15.1429 94.8663 15.3832C95.1578 15.6236 95.6283 15.8205 96.2777 15.9739L98.1493 16.4034C99.2334 16.654 100.041 17.0401 100.573 17.5616C101.105 18.0832 101.371 18.7608 101.371 19.5943C101.371 20.3 101.166 20.929 100.757 21.4812C100.353 22.0284 99.7882 22.458 99.0621 22.7699C98.3411 23.0818 97.505 23.2378 96.5538 23.2378C95.2345 23.2378 94.1581 22.9565 93.3246 22.394C92.4911 21.8264 91.9797 21.021 91.7905 19.9778L94.0072 19.6403C94.1453 20.2182 94.4291 20.6554 94.8587 20.952C95.2882 21.2435 95.8482 21.3892 96.5385 21.3892C97.2902 21.3892 97.8911 21.2332 98.3411 20.9213C98.7911 20.6043 99.0161 20.2182 99.0161 19.7631C99.0161 19.3949 98.878 19.0855 98.6019 18.8349C98.3308 18.5844 97.9141 18.3952 97.3516 18.2673L95.3572 17.8301C94.2578 17.5795 93.4447 17.1807 92.918 16.6335C92.3965 16.0864 92.1357 15.3935 92.1357 14.5548C92.1357 13.8594 92.33 13.2509 92.7186 12.7293C93.1072 12.2077 93.6442 11.8011 94.3294 11.5097C95.0146 11.2131 95.7996 11.0648 96.6842 11.0648C97.9575 11.0648 98.9598 11.3409 99.6911 11.8932C100.422 12.4403 100.906 13.1741 101.141 14.0946ZM108.955 23.2378C107.851 23.2378 106.887 22.9847 106.064 22.4784C105.24 21.9722 104.601 21.2639 104.146 20.3537C103.691 19.4435 103.463 18.3798 103.463 17.1628C103.463 15.9406 103.691 14.8719 104.146 13.9565C104.601 13.0412 105.24 12.3304 106.064 11.8241C106.887 11.3179 107.851 11.0648 108.955 11.0648C110.06 11.0648 111.024 11.3179 111.847 11.8241C112.67 12.3304 113.31 13.0412 113.765 13.9565C114.22 14.8719 114.447 15.9406 114.447 17.1628C114.447 18.3798 114.22 19.4435 113.765 20.3537C113.31 21.2639 112.67 21.9722 111.847 22.4784C111.024 22.9847 110.06 23.2378 108.955 23.2378ZM108.963 21.3125C109.679 21.3125 110.272 21.1233 110.743 20.7449C111.213 20.3665 111.561 19.8628 111.786 19.2338C112.016 18.6048 112.131 17.9119 112.131 17.1551C112.131 16.4034 112.016 15.7131 111.786 15.0841C111.561 14.45 111.213 13.9412 110.743 13.5577C110.272 13.1741 109.679 12.9824 108.963 12.9824C108.242 12.9824 107.644 13.1741 107.168 13.5577C106.698 13.9412 106.347 14.45 106.117 15.0841C105.892 15.7131 105.78 16.4034 105.78 17.1551C105.78 17.9119 105.892 18.6048 106.117 19.2338C106.347 19.8628 106.698 20.3665 107.168 20.7449C107.644 21.1233 108.242 21.3125 108.963 21.3125ZM117.107 23V11.2182H119.401V23H117.107ZM118.266 9.40028C117.867 9.40028 117.524 9.26733 117.238 9.00142C116.957 8.7304 116.816 8.40824 116.816 8.03494C116.816 7.65653 116.957 7.33437 117.238 7.06846C117.524 6.79744 117.867 6.66193 118.266 6.66193C118.664 6.66193 119.005 6.79744 119.286 7.06846C119.572 7.33437 119.715 7.65653 119.715 8.03494C119.715 8.40824 119.572 8.7304 119.286 9.00142C119.005 9.26733 118.664 9.40028 118.266 9.40028ZM124.88 7.29091V23H122.586V7.29091H124.88ZM128.065 23V11.2182H130.359V23H128.065ZM129.223 9.40028C128.825 9.40028 128.482 9.26733 128.196 9.00142C127.914 8.7304 127.774 8.40824 127.774 8.03494C127.774 7.65653 127.914 7.33437 128.196 7.06846C128.482 6.79744 128.825 6.66193 129.223 6.66193C129.622 6.66193 129.962 6.79744 130.244 7.06846C130.53 7.33437 130.673 7.65653 130.673 8.03494C130.673 8.40824 130.53 8.7304 130.244 9.00142C129.962 9.26733 129.622 9.40028 129.223 9.40028Z" fill="#F2F2F2" />
    <path d="M8.10938 43.75C8.04297 43.082 7.74805 42.5508 7.22461 42.1562C6.70117 41.7617 6.04297 41.5645 5.25 41.5645C4.69141 41.5645 4.19922 41.6602 3.77344 41.8516C3.35156 42.043 3.01953 42.3086 2.77734 42.6484C2.53906 42.9844 2.41992 43.3672 2.41992 43.7969C2.41992 44.1133 2.48828 44.3906 2.625 44.6289C2.76172 44.8672 2.94531 45.0723 3.17578 45.2441C3.41016 45.4121 3.66797 45.5566 3.94922 45.6777C4.23438 45.7988 4.52148 45.9004 4.81055 45.9824L6.07617 46.3457C6.45898 46.4512 6.8418 46.5859 7.22461 46.75C7.60742 46.9141 7.95703 47.1211 8.27344 47.3711C8.59375 47.6172 8.84961 47.9199 9.04102 48.2793C9.23633 48.6348 9.33399 49.0625 9.33399 49.5625C9.33399 50.2031 9.16797 50.7793 8.83594 51.291C8.50391 51.8027 8.02734 52.209 7.40625 52.5098C6.78516 52.8066 6.04102 52.9551 5.17383 52.9551C4.35742 52.9551 3.64844 52.8203 3.04688 52.5508C2.44531 52.2773 1.97266 51.9004 1.62891 51.4199C1.28516 50.9395 1.0918 50.3828 1.04883 49.75H2.17383C2.21289 50.2227 2.36914 50.623 2.64258 50.9512C2.91602 51.2793 3.27148 51.5293 3.70898 51.7012C4.14648 51.8691 4.63477 51.9531 5.17383 51.9531C5.77148 51.9531 6.30273 51.8535 6.76758 51.6543C7.23633 51.4512 7.60352 51.1699 7.86914 50.8105C8.13867 50.4473 8.27344 50.0254 8.27344 49.5449C8.27344 49.1387 8.16797 48.7988 7.95703 48.5254C7.74609 48.248 7.45117 48.0156 7.07227 47.8281C6.69727 47.6406 6.26172 47.4746 5.76563 47.3301L4.33008 46.9082C3.38867 46.627 2.6582 46.2383 2.13867 45.7422C1.61914 45.2461 1.35938 44.6133 1.35938 43.8437C1.35938 43.1992 1.53125 42.6328 1.875 42.1445C2.22266 41.6523 2.69141 41.2695 3.28125 40.9961C3.875 40.7187 4.54102 40.5801 5.2793 40.5801C6.02539 40.5801 6.68555 40.7168 7.25977 40.9902C7.83398 41.2637 8.28906 41.6406 8.625 42.1211C8.96484 42.5977 9.14648 43.1406 9.16992 43.75H8.10938ZM15.7988 43.75V44.6582H11.5039V43.75H15.7988ZM12.8457 41.5937H13.8945V50.4004C13.8945 50.7754 13.959 51.0703 14.0879 51.2852C14.2168 51.4961 14.3848 51.6465 14.5918 51.7363C14.7988 51.8223 15.0195 51.8652 15.2539 51.8652C15.3906 51.8652 15.5078 51.8574 15.6055 51.8418C15.7031 51.8223 15.7891 51.8027 15.8633 51.7832L16.0859 52.7266C15.9844 52.7656 15.8594 52.8008 15.7109 52.832C15.5625 52.8672 15.3789 52.8848 15.1602 52.8848C14.7773 52.8848 14.4082 52.8008 14.0527 52.6328C13.7012 52.4648 13.4121 52.2148 13.1855 51.8828C12.959 51.5508 12.8457 51.1387 12.8457 50.6465V41.5937ZM24.3862 49.3105V43.75H25.4292V52.75H24.3862V51.2559H24.3042C24.0933 51.7168 23.7593 52.1016 23.3022 52.4102C22.8452 52.7148 22.2866 52.8672 21.6265 52.8672C21.0522 52.8672 20.5425 52.7422 20.0972 52.4922C19.6519 52.2383 19.3022 51.8672 19.0483 51.3789C18.7944 50.8906 18.6675 50.291 18.6675 49.5801V43.75H19.7104V49.5156C19.7104 50.2187 19.9175 50.7852 20.3315 51.2148C20.7456 51.6406 21.2769 51.8535 21.9253 51.8535C22.3315 51.8535 22.7222 51.7559 23.0972 51.5605C23.4722 51.3652 23.7808 51.0801 24.0229 50.7051C24.2651 50.3262 24.3862 49.8613 24.3862 49.3105ZM31.9307 52.9375C31.1924 52.9375 30.5459 52.7422 29.9912 52.3516C29.4365 51.9609 29.0029 51.416 28.6904 50.7168C28.3818 50.0176 28.2275 49.2031 28.2275 48.2734C28.2275 47.3477 28.3818 46.5371 28.6904 45.8418C29.0029 45.1426 29.4385 44.5996 29.9971 44.2129C30.5557 43.8223 31.2061 43.627 31.9482 43.627C32.4951 43.627 32.9502 43.7246 33.3135 43.9199C33.6768 44.1113 33.9678 44.3496 34.1865 44.6348C34.4053 44.9199 34.5752 45.1973 34.6963 45.4668H34.79V40.75H35.8389V52.75H34.8193V51.0801H34.6963C34.5752 51.3535 34.4033 51.6348 34.1807 51.9238C33.958 52.209 33.6631 52.4492 33.2959 52.6445C32.9326 52.8398 32.4775 52.9375 31.9307 52.9375ZM32.0537 51.9824C32.6357 51.9824 33.1318 51.8242 33.542 51.5078C33.9521 51.1875 34.2646 50.748 34.4795 50.1895C34.6982 49.627 34.8076 48.9824 34.8076 48.2559C34.8076 47.5371 34.7002 46.9023 34.4854 46.3516C34.2705 45.7969 33.958 45.3633 33.5479 45.0508C33.1377 44.7344 32.6396 44.5762 32.0537 44.5762C31.4521 44.5762 30.9443 44.7402 30.5303 45.0684C30.1201 45.3926 29.8076 45.832 29.5928 46.3867C29.3818 46.9414 29.2764 47.5645 29.2764 48.2559C29.2764 48.9551 29.3838 49.5859 29.5986 50.1484C29.8135 50.7109 30.126 51.1582 30.5361 51.4902C30.9502 51.8184 31.4561 51.9824 32.0537 51.9824ZM42.9482 52.9375C42.1084 52.9375 41.3818 52.7422 40.7686 52.3516C40.1553 51.957 39.6807 51.4121 39.3447 50.7168C39.0127 50.0176 38.8467 49.2129 38.8467 48.3027C38.8467 47.3965 39.0127 46.5918 39.3447 45.8887C39.6807 45.1816 40.1436 44.6289 40.7334 44.2305C41.3271 43.8281 42.0127 43.627 42.79 43.627C43.2783 43.627 43.749 43.7168 44.2021 43.8965C44.6553 44.0723 45.0615 44.3437 45.4209 44.7109C45.7842 45.0742 46.0713 45.5332 46.2822 46.0879C46.4932 46.6387 46.5986 47.291 46.5986 48.0449V48.5605H39.5674V47.6406H45.5322C45.5322 47.0625 45.415 46.543 45.1807 46.082C44.9502 45.6172 44.6279 45.25 44.2139 44.9805C43.8037 44.7109 43.3291 44.5762 42.79 44.5762C42.2197 44.5762 41.7178 44.7285 41.2842 45.0332C40.8506 45.3379 40.5107 45.7402 40.2646 46.2402C40.0225 46.7402 39.8994 47.2871 39.8955 47.8809V48.4316C39.8955 49.1465 40.0186 49.7715 40.2646 50.3066C40.5146 50.8379 40.8682 51.25 41.3252 51.543C41.7822 51.8359 42.3232 51.9824 42.9482 51.9824C43.374 51.9824 43.7471 51.916 44.0674 51.7832C44.3916 51.6504 44.6631 51.4727 44.8818 51.25C45.1045 51.0234 45.2725 50.7754 45.3857 50.5059L46.376 50.8281C46.2393 51.207 46.0146 51.5566 45.7021 51.877C45.3936 52.1973 45.0068 52.4551 44.542 52.6504C44.0811 52.8418 43.5498 52.9375 42.9482 52.9375ZM50.4399 47.125V52.75H49.397V43.75H50.4106V45.1621H50.5044C50.7153 44.7012 51.0435 44.332 51.4888 44.0547C51.938 43.7734 52.4927 43.6328 53.1528 43.6328C53.7583 43.6328 54.2896 43.7598 54.7466 44.0137C55.2075 44.2637 55.5649 44.6328 55.8188 45.1211C56.0767 45.6094 56.2056 46.209 56.2056 46.9199V52.75H55.1626V46.9844C55.1626 46.2461 54.9556 45.6621 54.5415 45.2324C54.1313 44.8027 53.5806 44.5879 52.8892 44.5879C52.4165 44.5879 51.9966 44.6895 51.6294 44.8926C51.2622 45.0957 50.9712 45.3887 50.7563 45.7715C50.5454 46.1504 50.4399 46.6016 50.4399 47.125ZM62.9971 43.75V44.6582H58.7021V43.75H62.9971ZM60.0439 41.5937H61.0928V50.4004C61.0928 50.7754 61.1572 51.0703 61.2861 51.2852C61.415 51.4961 61.583 51.6465 61.79 51.7363C61.9971 51.8223 62.2178 51.8652 62.4521 51.8652C62.5889 51.8652 62.7061 51.8574 62.8037 51.8418C62.9014 51.8223 62.9873 51.8027 63.0615 51.7832L63.2842 52.7266C63.1826 52.7656 63.0576 52.8008 62.9092 52.832C62.7607 52.8672 62.5771 52.8848 62.3584 52.8848C61.9756 52.8848 61.6064 52.8008 61.251 52.6328C60.8994 52.4648 60.6104 52.2148 60.3838 51.8828C60.1572 51.5508 60.0439 51.1387 60.0439 50.6465V41.5937ZM86.1294 46.2578V47.2422H69.6294V46.2578H86.1294ZM93.3638 52.75V40.75H100.325V41.7344H94.4595V46.252H99.9556V47.2363H94.4595V51.7656H100.442V52.75H93.3638ZM103.444 56.125V43.75H104.458V45.4668H104.581C104.706 45.1973 104.877 44.9219 105.096 44.6406C105.315 44.3555 105.604 44.1152 105.963 43.9199C106.327 43.7246 106.784 43.627 107.334 43.627C108.077 43.627 108.725 43.8223 109.28 44.2129C109.838 44.5996 110.272 45.1426 110.581 45.8418C110.893 46.5371 111.049 47.3477 111.049 48.2734C111.049 49.2031 110.893 50.0176 110.581 50.7168C110.272 51.416 109.838 51.9609 109.28 52.3516C108.725 52.7422 108.081 52.9375 107.346 52.9375C106.803 52.9375 106.348 52.8398 105.981 52.6445C105.618 52.4492 105.323 52.209 105.096 51.9238C104.874 51.6348 104.702 51.3535 104.581 51.0801H104.487V56.125H103.444ZM104.475 48.2559C104.475 48.9824 104.583 49.627 104.797 50.1895C105.016 50.748 105.329 51.1875 105.735 51.5078C106.145 51.8242 106.641 51.9824 107.223 51.9824C107.821 51.9824 108.325 51.8184 108.735 51.4902C109.149 51.1582 109.463 50.7109 109.678 50.1484C109.897 49.5859 110.006 48.9551 110.006 48.2559C110.006 47.5645 109.899 46.9414 109.684 46.3867C109.473 45.832 109.161 45.3926 108.747 45.0684C108.333 44.7402 107.825 44.5762 107.223 44.5762C106.637 44.5762 106.139 44.7344 105.729 45.0508C105.319 45.3633 105.006 45.7969 104.792 46.3516C104.581 46.9023 104.475 47.5371 104.475 48.2559ZM113.849 52.75V43.75H114.898V52.75H113.849ZM114.382 42.2031C114.167 42.2031 113.984 42.1309 113.832 41.9863C113.679 41.8379 113.603 41.6602 113.603 41.4531C113.603 41.2461 113.679 41.0703 113.832 40.9258C113.984 40.7773 114.167 40.7031 114.382 40.7031C114.597 40.7031 114.781 40.7773 114.933 40.9258C115.085 41.0703 115.162 41.2461 115.162 41.4531C115.162 41.6602 115.085 41.8379 114.933 41.9863C114.781 42.1309 114.597 42.2031 114.382 42.2031ZM121.701 43.75V44.6582H117.406V43.75H121.701ZM118.748 41.5937H119.797V50.4004C119.797 50.7754 119.861 51.0703 119.99 51.2852C120.119 51.4961 120.287 51.6465 120.494 51.7363C120.701 51.8223 120.922 51.8652 121.156 51.8652C121.293 51.8652 121.41 51.8574 121.508 51.8418C121.605 51.8223 121.691 51.8027 121.766 51.7832L121.988 52.7266C121.887 52.7656 121.762 52.8008 121.613 52.832C121.465 52.8672 121.281 52.8848 121.062 52.8848C120.68 52.8848 120.311 52.8008 119.955 52.6328C119.604 52.4648 119.314 52.2148 119.088 51.8828C118.861 51.5508 118.748 51.1387 118.748 50.6465V41.5937ZM128.112 52.9375C127.272 52.9375 126.545 52.7422 125.932 52.3516C125.319 51.957 124.844 51.4121 124.508 50.7168C124.176 50.0176 124.01 49.2129 124.01 48.3027C124.01 47.3965 124.176 46.5918 124.508 45.8887C124.844 45.1816 125.307 44.6289 125.897 44.2305C126.491 43.8281 127.176 43.627 127.954 43.627C128.442 43.627 128.913 43.7168 129.366 43.8965C129.819 44.0723 130.225 44.3437 130.584 44.7109C130.948 45.0742 131.235 45.5332 131.446 46.0879C131.657 46.6387 131.762 47.291 131.762 48.0449V48.5605H124.731V47.6406H130.696C130.696 47.0625 130.579 46.543 130.344 46.082C130.114 45.6172 129.792 45.25 129.377 44.9805C128.967 44.7109 128.493 44.5762 127.954 44.5762C127.383 44.5762 126.881 44.7285 126.448 45.0332C126.014 45.3379 125.674 45.7402 125.428 46.2402C125.186 46.7402 125.063 47.2871 125.059 47.8809V48.4316C125.059 49.1465 125.182 49.7715 125.428 50.3066C125.678 50.8379 126.032 51.25 126.489 51.543C126.946 51.8359 127.487 51.9824 128.112 51.9824C128.538 51.9824 128.911 51.916 129.231 51.7832C129.555 51.6504 129.827 51.4727 130.045 51.25C130.268 51.0234 130.436 50.7754 130.549 50.5059L131.54 50.8281C131.403 51.207 131.178 51.5566 130.866 51.877C130.557 52.1973 130.17 52.4551 129.706 52.6504C129.245 52.8418 128.713 52.9375 128.112 52.9375ZM138.076 52.9375C137.271 52.9375 136.57 52.7363 135.973 52.334C135.379 51.9316 134.918 51.3809 134.59 50.6816C134.262 49.9824 134.098 49.1855 134.098 48.291C134.098 47.3887 134.264 46.5859 134.596 45.8828C134.932 45.1797 135.396 44.6289 135.99 44.2305C136.584 43.8281 137.273 43.627 138.059 43.627C138.66 43.627 139.205 43.7441 139.693 43.9785C140.182 44.209 140.584 44.5352 140.9 44.957C141.221 45.375 141.422 45.8633 141.504 46.4219H140.449C140.34 45.9141 140.076 45.4805 139.658 45.1211C139.244 44.7578 138.717 44.5762 138.076 44.5762C137.502 44.5762 136.994 44.7324 136.553 45.0449C136.111 45.3535 135.766 45.7852 135.516 46.3398C135.27 46.8906 135.146 47.5293 135.146 48.2559C135.146 48.9863 135.268 49.6328 135.51 50.1953C135.752 50.7539 136.092 51.1914 136.529 51.5078C136.971 51.8242 137.486 51.9824 138.076 51.9824C138.475 51.9824 138.838 51.9082 139.166 51.7598C139.498 51.6074 139.775 51.3926 139.998 51.1152C140.225 50.8379 140.377 50.5078 140.455 50.125H141.51C141.432 50.668 141.238 51.1523 140.93 51.5781C140.625 52 140.229 52.332 139.74 52.5742C139.256 52.8164 138.701 52.9375 138.076 52.9375ZM145.288 47.125V52.75H144.245V40.75H145.288V45.1621H145.382C145.593 44.6973 145.919 44.3262 146.36 44.0488C146.806 43.7715 147.368 43.6328 148.048 43.6328C148.657 43.6328 149.192 43.7578 149.653 44.0078C150.114 44.2578 150.474 44.627 150.731 45.1152C150.989 45.6035 151.118 46.2051 151.118 46.9199V52.75H150.069V46.9844C150.069 46.2422 149.862 45.6582 149.448 45.2324C149.038 44.8027 148.483 44.5879 147.784 44.5879C147.304 44.5879 146.876 44.6895 146.501 44.8926C146.126 45.0957 145.829 45.3887 145.61 45.7715C145.396 46.1504 145.288 46.6016 145.288 47.125Z" fill="#F2F2F2" fill-opacity="0.4" />
    <g opacity="0.6">
        <path d="M111.036 88.5363L110.041 87.5417L120.331 77.2514H114.326V75.832H122.745V84.2514H121.326V78.246L111.036 88.5363Z" fill="#F2F2F2" />
        <path d="M4.63125 90.1182C3.99972 90.1182 3.45682 90.0369 3.00256 89.8744C2.5483 89.7156 2.16974 89.5051 1.8669 89.2429C1.56776 88.9844 1.32955 88.7074 1.15227 88.4119L2.19375 87.6807C2.31193 87.8358 2.46151 88.0131 2.64247 88.2125C2.82344 88.4156 3.07088 88.5911 3.3848 88.7388C3.70242 88.8902 4.1179 88.9659 4.63125 88.9659C5.31818 88.9659 5.88509 88.7997 6.33196 88.4673C6.77884 88.1349 7.00227 87.6142 7.00227 86.9051V85.1767H6.89148C6.79546 85.3318 6.65881 85.5239 6.48153 85.7528C6.30795 85.9781 6.05682 86.1794 5.72813 86.3567C5.40313 86.5303 4.96364 86.617 4.40966 86.617C3.72273 86.617 3.10597 86.4545 2.55938 86.1295C2.01648 85.8045 1.58622 85.3318 1.26861 84.7114C0.954688 84.0909 0.797727 83.3375 0.797727 82.4511C0.797727 81.5795 0.950994 80.8206 1.25753 80.1743C1.56406 79.5243 1.99063 79.022 2.53722 78.6675C3.08381 78.3092 3.71534 78.1301 4.43182 78.1301C4.9858 78.1301 5.42528 78.2224 5.75028 78.4071C6.07898 78.5881 6.33011 78.7949 6.50369 79.0276C6.68097 79.2565 6.81761 79.4449 6.91364 79.5926H7.04659V78.2409H8.30966V86.9938C8.30966 87.725 8.14347 88.3196 7.81108 88.7776C7.48239 89.2392 7.0392 89.5771 6.48153 89.7913C5.92756 90.0092 5.3108 90.1182 4.63125 90.1182ZM4.58693 85.4426C5.11136 85.4426 5.55455 85.3226 5.91648 85.0825C6.27841 84.8425 6.55355 84.4972 6.7419 84.0466C6.93026 83.596 7.02443 83.0568 7.02443 82.429C7.02443 81.8159 6.9321 81.2749 6.74744 80.8058C6.56278 80.3368 6.28949 79.9693 5.92756 79.7034C5.56563 79.4375 5.11875 79.3045 4.58693 79.3045C4.03295 79.3045 3.57131 79.4449 3.20199 79.7256C2.83636 80.0062 2.56122 80.383 2.37656 80.8557C2.1956 81.3284 2.10511 81.8528 2.10511 82.429C2.10511 83.0199 2.19744 83.5425 2.3821 83.9967C2.57045 84.4473 2.84744 84.8018 3.21307 85.0604C3.58239 85.3152 4.04034 85.4426 4.58693 85.4426ZM10.9028 86.75V78.2409H12.2102V86.75H10.9028ZM11.5676 76.8227C11.3128 76.8227 11.093 76.7359 10.9084 76.5624C10.7274 76.3888 10.6369 76.1801 10.6369 75.9364C10.6369 75.6926 10.7274 75.4839 10.9084 75.3104C11.093 75.1368 11.3128 75.05 11.5676 75.05C11.8224 75.05 12.0403 75.1368 12.2213 75.3104C12.406 75.4839 12.4983 75.6926 12.4983 75.9364C12.4983 76.1801 12.406 76.3888 12.2213 76.5624C12.0403 76.7359 11.8224 76.8227 11.5676 76.8227ZM18.5054 78.2409V79.3489H14.0957V78.2409H18.5054ZM15.3809 76.2023H16.6883V84.3125C16.6883 84.6818 16.7419 84.9588 16.849 85.1435C16.9598 85.3244 17.1001 85.4463 17.27 85.5091C17.4436 85.5682 17.6264 85.5977 17.8184 85.5977C17.9625 85.5977 18.0806 85.5903 18.173 85.5756C18.2653 85.5571 18.3392 85.5423 18.3946 85.5312L18.6605 86.7057C18.5718 86.7389 18.4481 86.7722 18.2893 86.8054C18.1305 86.8423 17.9292 86.8608 17.6855 86.8608C17.3162 86.8608 16.9542 86.7814 16.5997 86.6226C16.2488 86.4638 15.9571 86.2219 15.7244 85.8969C15.4954 85.5719 15.3809 85.1619 15.3809 84.667V76.2023ZM22.1622 81.6312V86.75H20.8548V75.4045H22.1622V79.5705H22.273C22.4724 79.131 22.7716 78.782 23.1704 78.5234C23.573 78.2612 24.1085 78.1301 24.777 78.1301C25.3568 78.1301 25.8646 78.2464 26.3004 78.4791C26.7362 78.7081 27.0741 79.0608 27.3142 79.5372C27.5579 80.0099 27.6798 80.6119 27.6798 81.3432V86.75H26.3724V81.4318C26.3724 80.756 26.197 80.2334 25.8461 79.8641C25.499 79.4911 25.017 79.3045 24.4002 79.3045C23.9718 79.3045 23.5877 79.395 23.248 79.576C22.9119 79.757 22.646 80.021 22.4502 80.3682C22.2582 80.7153 22.1622 81.1364 22.1622 81.6312ZM35.6341 83.271V78.2409H36.9415V86.75H35.6341V85.3097H35.5455C35.346 85.7418 35.0358 86.1092 34.6148 86.4121C34.1938 86.7112 33.6619 86.8608 33.0193 86.8608C32.4875 86.8608 32.0148 86.7445 31.6011 86.5118C31.1875 86.2754 30.8625 85.9209 30.6261 85.4482C30.3898 84.9717 30.2716 84.3716 30.2716 83.6477V78.2409H31.579V83.5591C31.579 84.1795 31.7526 84.6744 32.0997 85.0437C32.4506 85.4131 32.8974 85.5977 33.4403 85.5977C33.7653 85.5977 34.0959 85.5146 34.432 85.3484C34.7717 85.1822 35.0561 84.9274 35.2851 84.5839C35.5178 84.2405 35.6341 83.8028 35.6341 83.271ZM39.7133 86.75V75.4045H41.0207V79.5926H41.1315C41.2275 79.4449 41.3605 79.2565 41.5304 79.0276C41.7039 78.7949 41.9514 78.5881 42.2727 78.4071C42.5977 78.2224 43.0372 78.1301 43.5912 78.1301C44.3076 78.1301 44.9392 78.3092 45.4858 78.6675C46.0324 79.0257 46.4589 79.5335 46.7654 80.1909C47.072 80.8483 47.2253 81.6239 47.2253 82.5176C47.2253 83.4187 47.072 84.1999 46.7654 84.8609C46.4589 85.5183 46.0342 86.028 45.4913 86.3899C44.9484 86.7482 44.3224 86.9273 43.6133 86.9273C43.0667 86.9273 42.6291 86.8368 42.3004 86.6558C41.9717 86.4712 41.7187 86.2625 41.5414 86.0298C41.3642 85.7935 41.2275 85.5977 41.1315 85.4426H40.9764V86.75H39.7133ZM40.9985 82.4955C40.9985 83.1381 41.0927 83.705 41.2811 84.1962C41.4694 84.6837 41.7446 85.0659 42.1065 85.3429C42.4684 85.6162 42.9116 85.7528 43.436 85.7528C43.9826 85.7528 44.4387 85.6088 44.8044 85.3207C45.1737 85.029 45.4507 84.6375 45.6353 84.1463C45.8237 83.6514 45.9179 83.1011 45.9179 82.4955C45.9179 81.8972 45.8255 81.358 45.6409 80.8778C45.4599 80.394 45.1848 80.0118 44.8154 79.7311C44.4498 79.4467 43.99 79.3045 43.436 79.3045C42.9042 79.3045 42.4574 79.4393 42.0954 79.7089C41.7335 79.9749 41.4602 80.3479 41.2755 80.828C41.0909 81.3044 40.9985 81.8602 40.9985 82.4955ZM50.3779 86.8386C50.1047 86.8386 49.8701 86.7408 49.6744 86.545C49.4787 86.3493 49.3808 86.1148 49.3808 85.8415C49.3808 85.5682 49.4787 85.3337 49.6744 85.1379C49.8701 84.9422 50.1047 84.8443 50.3779 84.8443C50.6512 84.8443 50.8858 84.9422 51.0815 85.1379C51.2772 85.3337 51.3751 85.5682 51.3751 85.8415C51.3751 86.0224 51.3289 86.1886 51.2366 86.3401C51.148 86.4915 51.0279 86.6134 50.8765 86.7057C50.7288 86.7943 50.5626 86.8386 50.3779 86.8386ZM57.378 86.9273C56.5803 86.9273 55.8934 86.7389 55.3172 86.3622C54.7411 85.9855 54.2979 85.4666 53.9877 84.8055C53.6775 84.1445 53.5223 83.3892 53.5223 82.5398C53.5223 81.6756 53.6811 80.9129 53.9988 80.2518C54.3201 79.5871 54.7669 79.0682 55.3394 78.6952C55.9155 78.3185 56.5877 78.1301 57.3559 78.1301C57.9542 78.1301 58.4934 78.2409 58.9735 78.4625C59.4536 78.6841 59.8469 78.9943 60.1534 79.3932C60.46 79.792 60.6502 80.2574 60.724 80.7892H59.4167C59.3169 80.4014 59.0953 80.058 58.7519 79.7588C58.4121 79.456 57.9542 79.3045 57.378 79.3045C56.8684 79.3045 56.4215 79.4375 56.0374 79.7034C55.657 79.9656 55.3597 80.3368 55.1455 80.8169C54.935 81.2933 54.8297 81.8528 54.8297 82.4955C54.8297 83.1528 54.9331 83.7253 55.14 84.2128C55.3505 84.7003 55.6459 85.0788 56.0263 85.3484C56.4104 85.618 56.861 85.7528 57.378 85.7528C57.7178 85.7528 58.0262 85.6937 58.3032 85.5756C58.5801 85.4574 58.8147 85.2875 59.0067 85.0659C59.1988 84.8443 59.3354 84.5784 59.4167 84.2682H60.724C60.6502 84.7705 60.4674 85.2229 60.1756 85.6254C59.8875 86.0243 59.5053 86.3419 59.0289 86.5783C58.5561 86.8109 58.0059 86.9273 57.378 86.9273ZM66.2921 86.9273C65.5239 86.9273 64.8499 86.7445 64.2701 86.3788C63.6939 86.0132 63.2434 85.5017 62.9184 84.8443C62.5971 84.1869 62.4364 83.4187 62.4364 82.5398C62.4364 81.6534 62.5971 80.8797 62.9184 80.2186C63.2434 79.5575 63.6939 79.0442 64.2701 78.6786C64.8499 78.3129 65.5239 78.1301 66.2921 78.1301C67.0603 78.1301 67.7324 78.3129 68.3086 78.6786C68.8884 79.0442 69.339 79.5575 69.6603 80.2186C69.9853 80.8797 70.1478 81.6534 70.1478 82.5398C70.1478 83.4187 69.9853 84.1869 69.6603 84.8443C69.339 85.5017 68.8884 86.0132 68.3086 86.3788C67.7324 86.7445 67.0603 86.9273 66.2921 86.9273ZM66.2921 85.7528C66.8756 85.7528 67.3557 85.6033 67.7324 85.3041C68.1091 85.005 68.388 84.6116 68.5689 84.1241C68.7499 83.6366 68.8404 83.1085 68.8404 82.5398C68.8404 81.971 68.7499 81.4411 68.5689 80.9499C68.388 80.4587 68.1091 80.0616 67.7324 79.7588C67.3557 79.456 66.8756 79.3045 66.2921 79.3045C65.7086 79.3045 65.2284 79.456 64.8517 79.7588C64.475 80.0616 64.1962 80.4587 64.0152 80.9499C63.8343 81.4411 63.7438 81.971 63.7438 82.5398C63.7438 83.1085 63.8343 83.6366 64.0152 84.1241C64.1962 84.6116 64.475 85.005 64.8517 85.3041C65.2284 85.6033 65.7086 85.7528 66.2921 85.7528ZM72.3435 86.75V78.2409H73.6065V79.5705H73.7173C73.8946 79.1162 74.1808 78.7635 74.576 78.5124C74.9712 78.2575 75.4457 78.1301 75.9997 78.1301C76.5611 78.1301 77.0283 78.2575 77.4013 78.5124C77.778 78.7635 78.0716 79.1162 78.2821 79.5705H78.3707C78.5886 79.131 78.9155 78.782 79.3513 78.5234C79.7871 78.2612 80.3097 78.1301 80.919 78.1301C81.6798 78.1301 82.3021 78.3683 82.7859 78.8447C83.2698 79.3175 83.5117 80.0543 83.5117 81.0551V86.75H82.2043V81.0551C82.2043 80.4273 82.0325 79.9786 81.6891 79.7089C81.3456 79.4393 80.9412 79.3045 80.4759 79.3045C79.8776 79.3045 79.4141 79.4855 79.0854 79.8474C78.7567 80.2057 78.5923 80.6599 78.5923 81.2102V86.75H77.2628V80.9222C77.2628 80.4384 77.1058 80.0487 76.7919 79.7533C76.478 79.4541 76.0736 79.3045 75.5787 79.3045C75.2389 79.3045 74.9213 79.395 74.6259 79.576C74.3341 79.757 74.0977 80.0081 73.9168 80.3294C73.7395 80.647 73.6509 81.0145 73.6509 81.4318V86.75H72.3435Z" fill="#F2F2F2" />
    </g>
</svg>
