<svg xmlns="http://www.w3.org/2000/svg" width="327" height="97" viewBox="0 0 327 97" fill="none">
    <g transform="translate(85.01698437499999,72)">
        <path d="M5.03556 17.5363L4.04102 16.5417L14.3313 6.25141H8.32589V4.83203H16.7453V13.2514H15.3259V7.246L5.03556 17.5363Z" fill="#F2F2F2"/>
    </g>
    <path d="M4.07 24L1.67 24L1.67 8.29L4.07 8.29L4.07 14.93L11.85 14.93L11.85 8.29L14.25 8.29L14.25 24L11.85 24L11.85 17.00L4.07 17.00L4.07 24ZM21.65 24.16L21.65 24.16Q20.46 24.16 19.55 23.66Q18.64 23.16 18.13 22.16Q17.62 21.17 17.62 19.72L17.62 19.72L17.62 12.36L19.93 12.36L19.93 19.43Q19.93 20.72 20.59 21.44Q21.25 22.15 22.41 22.15L22.41 22.15Q23.19 22.15 23.80 21.82Q24.41 21.48 24.77 20.82Q25.13 20.16 25.13 19.21L25.13 19.21L25.13 12.36L27.44 12.36L27.44 24L25.22 24L25.21 21.14L25.51 21.14Q24.98 22.71 23.99 23.44Q23.01 24.16 21.65 24.16ZM35.55 28.64L35.55 28.64Q34.18 28.64 33.17 28.28Q32.17 27.92 31.52 27.30Q30.87 26.67 30.59 25.88L30.59 25.88L32.58 25.16Q32.78 25.54 33.14 25.91Q33.50 26.29 34.08 26.54Q34.66 26.78 35.54 26.78L35.54 26.78Q36.89 26.78 37.72 26.13Q38.54 25.47 38.54 24.12L38.54 24.12L38.54 21.94L38.38 21.94Q38.13 22.39 37.72 22.83Q37.31 23.28 36.65 23.59Q35.99 23.89 34.98 23.89L34.98 23.89Q33.59 23.89 32.48 23.22Q31.37 22.54 30.73 21.26Q30.09 19.98 30.09 18.14L30.09 18.14Q30.09 16.30 30.73 14.97Q31.37 13.63 32.48 12.91Q33.59 12.19 35.00 12.19L35.00 12.19Q36.02 12.19 36.69 12.51Q37.36 12.84 37.78 13.32Q38.20 13.79 38.44 14.22L38.44 14.22L38.57 14.22L38.57 12.36L40.82 12.36L40.82 24.11Q40.82 25.68 40.12 26.68Q39.42 27.68 38.23 28.16Q37.04 28.64 35.55 28.64ZM35.51 21.96L35.51 21.96Q36.49 21.96 37.18 21.50Q37.86 21.04 38.22 20.17Q38.58 19.31 38.58 18.10L38.58 18.10Q38.58 16.92 38.22 16.04Q37.86 15.15 37.18 14.65Q36.49 14.15 35.51 14.15L35.51 14.15Q34.52 14.15 33.83 14.66Q33.14 15.17 32.78 16.06Q32.43 16.95 32.43 18.10L32.43 18.10Q32.43 19.29 32.79 20.15Q33.15 21.02 33.83 21.49Q34.52 21.96 35.51 21.96ZM48.94 24.24L48.94 24.24Q47.30 24.24 46.07 23.49Q44.84 22.73 44.16 21.38Q43.48 20.02 43.48 18.23L43.48 18.23Q43.48 16.42 44.16 15.06Q44.84 13.70 46.07 12.94Q47.30 12.19 48.94 12.19L48.94 12.19Q50.60 12.19 51.83 12.94Q53.06 13.70 53.74 15.06Q54.42 16.42 54.42 18.23L54.42 18.23Q54.42 20.02 53.74 21.38Q53.06 22.73 51.83 23.49Q50.60 24.24 48.94 24.24ZM48.94 22.29L48.94 22.29Q49.99 22.29 50.69 21.75Q51.39 21.21 51.74 20.28Q52.09 19.36 52.09 18.23L52.09 18.23Q52.09 17.08 51.74 16.16Q51.39 15.24 50.69 14.69Q49.99 14.14 48.94 14.14L48.94 14.14Q47.90 14.14 47.21 14.69Q46.52 15.24 46.17 16.16Q45.82 17.08 45.82 18.23L45.82 18.23Q45.82 19.36 46.17 20.28Q46.52 21.21 47.21 21.75Q47.90 22.29 48.94 22.29ZM69.67 24.22L69.67 24.22Q67.60 24.22 65.99 23.24Q64.37 22.26 63.45 20.45Q62.54 18.64 62.54 16.15L62.54 16.15Q62.54 13.65 63.46 11.84Q64.38 10.03 66.00 9.04Q67.61 8.06 69.67 8.06L69.67 8.06Q70.92 8.06 72.02 8.43Q73.12 8.79 73.98 9.48Q74.84 10.17 75.41 11.16Q75.98 12.16 76.18 13.41L76.18 13.41L73.77 13.41Q73.61 12.64 73.24 12.06Q72.87 11.47 72.33 11.06Q71.79 10.66 71.12 10.45Q70.45 10.25 69.69 10.25L69.69 10.25Q68.30 10.25 67.21 10.94Q66.13 11.64 65.52 12.96Q64.91 14.28 64.91 16.15L64.91 16.15Q64.91 18.03 65.53 19.35Q66.14 20.67 67.22 21.35Q68.31 22.04 69.69 22.04L69.69 22.04Q70.44 22.04 71.11 21.83Q71.78 21.63 72.32 21.23Q72.86 20.83 73.24 20.23Q73.61 19.64 73.77 18.88L73.77 18.88L76.18 18.88Q76.01 20.07 75.45 21.04Q74.89 22.02 74.03 22.73Q73.18 23.45 72.07 23.84Q70.96 24.22 69.67 24.22ZM82.24 24.24L82.24 24.24Q81.13 24.24 80.23 23.84Q79.33 23.43 78.81 22.64Q78.29 21.85 78.29 20.70L78.29 20.70Q78.29 19.71 78.67 19.07Q79.06 18.43 79.70 18.06Q80.34 17.69 81.15 17.50Q81.96 17.31 82.80 17.22L82.80 17.22Q83.85 17.09 84.48 17.01Q85.12 16.92 85.42 16.74Q85.72 16.56 85.72 16.15L85.72 16.15L85.72 16.09Q85.72 15.45 85.47 15.00Q85.22 14.55 84.71 14.31Q84.20 14.06 83.47 14.06L83.47 14.06Q82.72 14.06 82.17 14.30Q81.62 14.54 81.28 14.91Q80.94 15.29 80.80 15.71L80.80 15.71L78.62 15.28Q78.94 14.21 79.65 13.53Q80.37 12.85 81.35 12.52Q82.33 12.19 83.45 12.19L83.45 12.19Q84.23 12.19 85.03 12.38Q85.84 12.57 86.52 13.02Q87.20 13.47 87.61 14.25Q88.02 15.04 88.02 16.22L88.02 16.22L88.02 24L85.79 24L85.79 22.40L85.69 22.40Q85.46 22.85 85.02 23.27Q84.57 23.69 83.89 23.97Q83.20 24.24 82.24 24.24ZM82.75 22.40L82.75 22.40Q83.71 22.40 84.37 22.03Q85.04 21.66 85.39 21.06Q85.73 20.46 85.73 19.77L85.73 19.77L85.73 18.30Q85.62 18.42 85.28 18.52Q84.94 18.61 84.51 18.69Q84.08 18.77 83.66 18.83Q83.23 18.88 82.92 18.93L82.92 18.93Q82.29 19.01 81.74 19.21Q81.20 19.40 80.88 19.77Q80.56 20.13 80.56 20.73L80.56 20.73Q80.56 21.28 80.84 21.65Q81.11 22.02 81.61 22.21Q82.11 22.40 82.75 22.40ZM89.93 12.36L96.34 12.36L96.34 14.23L89.93 14.23L89.93 12.36ZM91.70 21.08L91.70 9.50L94.01 9.50L94.01 20.87Q94.01 21.55 94.29 21.87Q94.58 22.19 95.26 22.19L95.26 22.19Q95.46 22.19 95.76 22.15Q96.05 22.11 96.27 22.08L96.27 22.08L96.59 23.94Q96.23 24.03 95.82 24.07Q95.41 24.12 95.01 24.12L95.01 24.12Q93.42 24.12 92.56 23.33Q91.70 22.54 91.70 21.08L91.70 21.08ZM101.04 17.14L101.04 17.14L101.04 24L98.73 24L98.73 8.29L101.02 8.29L101.02 15.21L100.66 15.21Q101.17 13.65 102.16 12.92Q103.14 12.19 104.53 12.19L104.53 12.19Q105.72 12.19 106.62 12.69Q107.52 13.20 108.04 14.19Q108.55 15.17 108.55 16.63L108.55 16.63L108.55 24L106.24 24L106.24 16.91Q106.24 15.63 105.58 14.91Q104.92 14.20 103.77 14.20L103.77 14.20Q102.99 14.20 102.37 14.54Q101.74 14.88 101.39 15.53Q101.04 16.18 101.04 17.14ZM116.76 24.24L116.76 24.24Q115.03 24.24 113.78 23.49Q112.54 22.74 111.87 21.39Q111.20 20.04 111.20 18.24L111.20 18.24Q111.20 16.46 111.86 15.09Q112.53 13.73 113.74 12.96Q114.95 12.19 116.57 12.19L116.57 12.19Q117.62 12.19 118.57 12.54Q119.51 12.88 120.24 13.61Q120.98 14.33 121.40 15.44Q121.82 16.55 121.82 18.08L121.82 18.08L121.82 18.86L112.42 18.86L112.42 17.13L120.63 17.13L119.57 17.69Q119.57 16.63 119.23 15.81Q118.89 14.99 118.22 14.54Q117.55 14.09 116.58 14.09L116.58 14.09Q115.61 14.09 114.92 14.55Q114.23 15.01 113.86 15.78Q113.49 16.55 113.49 17.50L113.49 17.50L113.49 18.63Q113.49 19.80 113.89 20.64Q114.30 21.47 115.04 21.91Q115.79 22.34 116.78 22.34L116.78 22.34Q117.44 22.34 117.98 22.15Q118.52 21.95 118.90 21.57Q119.28 21.19 119.47 20.65L119.47 20.65L121.64 21.05Q121.38 22.00 120.70 22.72Q120.03 23.44 119.02 23.84Q118.01 24.24 116.76 24.24ZM124.43 8.29L126.74 8.29L126.74 24L124.43 24L124.43 8.29ZM133.25 24.24L133.25 24.24Q132.13 24.24 131.24 23.84Q130.34 23.43 129.82 22.64Q129.30 21.85 129.30 20.70L129.30 20.70Q129.30 19.71 129.68 19.07Q130.07 18.43 130.71 18.06Q131.35 17.69 132.16 17.50Q132.97 17.31 133.81 17.22L133.81 17.22Q134.86 17.09 135.49 17.01Q136.13 16.92 136.43 16.74Q136.73 16.56 136.73 16.15L136.73 16.15L136.73 16.09Q136.73 15.45 136.48 15.00Q136.23 14.55 135.72 14.31Q135.21 14.06 134.48 14.06L134.48 14.06Q133.73 14.06 133.18 14.30Q132.63 14.54 132.29 14.91Q131.94 15.29 131.81 15.71L131.81 15.71L129.62 15.28Q129.95 14.21 130.66 13.53Q131.37 12.85 132.36 12.52Q133.34 12.19 134.45 12.19L134.45 12.19Q135.23 12.19 136.04 12.38Q136.85 12.57 137.53 13.02Q138.21 13.47 138.62 14.25Q139.03 15.04 139.03 16.22L139.03 16.22L139.03 24L136.80 24L136.80 22.40L136.70 22.40Q136.47 22.85 136.03 23.27Q135.58 23.69 134.90 23.97Q134.21 24.24 133.25 24.24ZM133.76 22.40L133.76 22.40Q134.72 22.40 135.38 22.03Q136.05 21.66 136.40 21.06Q136.74 20.46 136.74 19.77L136.74 19.77L136.74 18.30Q136.63 18.42 136.29 18.52Q135.95 18.61 135.52 18.69Q135.09 18.77 134.67 18.83Q134.24 18.88 133.93 18.93L133.93 18.93Q133.29 19.01 132.75 19.21Q132.21 19.40 131.89 19.77Q131.56 20.13 131.56 20.73L131.56 20.73Q131.56 21.28 131.84 21.65Q132.12 22.02 132.62 22.21Q133.12 22.40 133.76 22.40ZM144.53 24L142.22 24L142.22 12.36L144.53 12.36L144.53 24ZM143.38 10.53L143.38 10.53Q142.78 10.53 142.36 10.13Q141.94 9.72 141.94 9.15L141.94 9.15Q141.94 8.57 142.36 8.17Q142.78 7.78 143.38 7.78L143.38 7.78Q143.98 7.78 144.41 8.17Q144.83 8.57 144.83 9.15L144.83 9.15Q144.83 9.72 144.41 10.13Q143.98 10.53 143.38 10.53ZM150.03 17.14L150.03 17.14L150.03 24L147.72 24L147.72 12.36L149.94 12.36L149.95 15.21L149.65 15.21Q150.17 13.65 151.15 12.92Q152.13 12.19 153.52 12.19L153.52 12.19Q154.71 12.19 155.62 12.69Q156.52 13.20 157.02 14.19Q157.53 15.17 157.53 16.63L157.53 16.63L157.53 24L155.23 24L155.23 16.91Q155.23 15.63 154.57 14.91Q153.91 14.20 152.76 14.20L152.76 14.20Q151.98 14.20 151.36 14.54Q150.74 14.88 150.39 15.53Q150.03 16.18 150.03 17.14Z" fill="#F2F2F2"/>
    <path d="M5.14 52.95L5.14 52.95Q3.90 52.95 2.98 52.53Q2.06 52.11 1.54 51.36Q1.02 50.61 0.97 49.61L0.97 49.61L2.12 49.61Q2.18 50.35 2.57 50.86Q2.97 51.38 3.64 51.65Q4.31 51.92 5.14 51.92L5.14 51.92Q6.04 51.92 6.73 51.62Q7.42 51.32 7.81 50.79Q8.21 50.25 8.21 49.54L8.21 49.54Q8.21 48.96 7.91 48.55Q7.61 48.14 7.05 47.86Q6.49 47.57 5.71 47.34L5.71 47.34L4.31 46.94Q2.81 46.51 2.04 45.76Q1.26 45.01 1.26 43.86L1.26 43.86Q1.26 42.89 1.78 42.15Q2.30 41.41 3.19 40.99Q4.08 40.58 5.20 40.58L5.20 40.58Q6.35 40.58 7.21 41.00Q8.08 41.41 8.58 42.15Q9.09 42.89 9.13 43.84L9.13 43.84L8.02 43.84Q7.93 42.81 7.15 42.20Q6.37 41.60 5.17 41.60L5.17 41.60Q4.35 41.60 3.72 41.89Q3.09 42.17 2.73 42.67Q2.38 43.17 2.38 43.82L2.38 43.82Q2.38 44.41 2.71 44.82Q3.04 45.23 3.58 45.51Q4.13 45.78 4.76 45.97L4.76 45.97L6.04 46.33Q6.68 46.51 7.27 46.77Q7.86 47.03 8.32 47.41Q8.78 47.79 9.05 48.31Q9.32 48.83 9.32 49.55L9.32 49.55Q9.32 50.53 8.81 51.30Q8.31 52.07 7.37 52.51Q6.44 52.95 5.14 52.95ZM11.23 43.86L15.51 43.86L15.51 44.80L11.23 44.80L11.23 43.86ZM12.60 50.75L12.60 41.67L13.68 41.67L13.68 50.67Q13.68 51.31 13.96 51.61Q14.25 51.90 14.84 51.86L14.84 51.86Q14.97 51.85 15.15 51.83Q15.32 51.81 15.46 51.78L15.46 51.78L15.64 52.72Q15.46 52.77 15.25 52.79Q15.03 52.81 14.82 52.82L14.82 52.82Q13.76 52.88 13.18 52.32Q12.60 51.77 12.60 50.75L12.60 50.75ZM21.20 52.88L21.20 52.88Q20.29 52.88 19.59 52.50Q18.89 52.11 18.50 51.38Q18.10 50.64 18.10 49.58L18.10 49.58L18.10 43.86L19.18 43.86L19.18 49.50Q19.18 50.61 19.80 51.25Q20.42 51.89 21.46 51.89L21.46 51.89Q22.16 51.89 22.73 51.59Q23.29 51.29 23.62 50.72Q23.94 50.16 23.94 49.37L23.94 49.37L23.94 43.86L25.02 43.86L25.02 52.75L23.97 52.75L23.97 50.67L24.17 50.67Q23.79 51.84 23.00 52.36Q22.20 52.88 21.20 52.88ZM31.68 52.94L31.68 52.94Q30.58 52.94 29.75 52.36Q28.92 51.78 28.45 50.74Q27.98 49.70 27.98 48.32L27.98 48.32Q27.98 46.95 28.45 45.91Q28.92 44.88 29.75 44.30Q30.59 43.73 31.69 43.73L31.69 43.73Q32.47 43.73 33.02 44.00Q33.57 44.27 33.93 44.69Q34.28 45.11 34.47 45.56L34.47 45.56L34.54 45.56L34.54 40.75L35.62 40.75L35.62 52.75L34.57 52.75L34.57 51.08L34.48 51.08Q34.28 51.53 33.92 51.96Q33.56 52.38 33.01 52.66Q32.46 52.94 31.68 52.94ZM31.83 51.95L31.83 51.95Q32.69 51.95 33.30 51.49Q33.92 51.03 34.25 50.20Q34.57 49.38 34.57 48.31L34.57 48.31Q34.57 47.25 34.25 46.43Q33.92 45.62 33.31 45.16Q32.70 44.71 31.83 44.71L31.83 44.71Q30.96 44.71 30.34 45.17Q29.73 45.64 29.40 46.45Q29.08 47.26 29.08 48.31L29.08 48.31Q29.08 49.36 29.40 50.18Q29.73 51.01 30.35 51.48Q30.96 51.95 31.83 51.95ZM42.65 52.94L42.65 52.94Q41.40 52.94 40.49 52.35Q39.57 51.77 39.08 50.73Q38.58 49.70 38.58 48.35L38.58 48.35Q38.58 47.00 39.08 45.95Q39.57 44.91 40.46 44.32Q41.34 43.73 42.50 43.73L42.50 43.73Q43.27 43.73 43.96 44.00Q44.65 44.28 45.18 44.84Q45.72 45.40 46.02 46.24Q46.33 47.07 46.33 48.18L46.33 48.18L46.33 48.62L39.26 48.62L39.26 47.68L45.74 47.68L45.25 48.03Q45.25 47.06 44.92 46.31Q44.58 45.56 43.97 45.12Q43.35 44.69 42.50 44.69L42.50 44.69Q41.65 44.69 41.01 45.14Q40.38 45.58 40.02 46.32Q39.67 47.05 39.67 47.96L39.67 47.96L39.67 48.48Q39.67 49.53 40.03 50.31Q40.39 51.09 41.07 51.53Q41.74 51.96 42.65 51.96L42.65 51.96Q43.29 51.96 43.77 51.76Q44.26 51.56 44.59 51.21Q44.93 50.86 45.09 50.43L45.09 50.43L46.13 50.69Q45.93 51.30 45.45 51.82Q44.98 52.33 44.26 52.63Q43.55 52.94 42.65 52.94ZM50.33 47.24L50.33 47.24L50.33 52.75L49.25 52.75L49.25 43.86L50.29 43.86L50.30 45.93L50.10 45.93Q50.47 44.77 51.26 44.25Q52.05 43.73 53.08 43.73L53.08 43.73Q53.99 43.73 54.68 44.11Q55.38 44.49 55.78 45.22Q56.17 45.95 56.17 47.02L56.17 47.02L56.17 52.75L55.09 52.75L55.09 47.10Q55.09 45.99 54.47 45.35Q53.85 44.72 52.81 44.72L52.81 44.72Q52.11 44.72 51.55 45.02Q50.98 45.31 50.66 45.88Q50.33 46.44 50.33 47.24ZM58.42 43.86L62.71 43.86L62.71 44.80L58.42 44.80L58.42 43.86ZM59.79 50.75L59.79 41.67L60.87 41.67L60.87 50.67Q60.87 51.31 61.16 51.61Q61.44 51.90 62.04 51.86L62.04 51.86Q62.17 51.85 62.34 51.83Q62.51 51.81 62.66 51.78L62.66 51.78L62.84 52.72Q62.66 52.77 62.44 52.79Q62.22 52.81 62.02 52.82L62.02 52.82Q60.96 52.88 60.38 52.32Q59.79 51.77 59.79 50.75L59.79 50.75ZM69.30 47.17L85.80 47.17L85.80 48.17L69.30 48.17L69.30 47.17ZM100.68 52.75L93.46 52.75L93.46 40.75L100.60 40.75L100.60 41.76L94.58 41.76L94.58 46.18L100.19 46.18L100.19 47.20L94.58 47.20L94.58 51.73L100.68 51.73L100.68 52.75ZM104.89 56.12L103.81 56.12L103.81 43.86L104.86 43.86L104.86 45.56L104.96 45.56Q105.15 45.11 105.50 44.69Q105.86 44.27 106.41 44.00Q106.96 43.73 107.74 43.73L107.74 43.73Q108.85 43.73 109.68 44.30Q110.52 44.88 110.98 45.91Q111.45 46.95 111.45 48.32L111.45 48.32Q111.45 49.70 110.99 50.74Q110.52 51.78 109.69 52.36Q108.86 52.94 107.75 52.94L107.75 52.94Q106.98 52.94 106.43 52.66Q105.88 52.38 105.52 51.96Q105.17 51.53 104.97 51.08L104.97 51.08L104.89 51.08L104.89 56.12ZM107.61 51.95L107.61 51.95Q108.48 51.95 109.09 51.48Q109.70 51.01 110.03 50.18Q110.36 49.36 110.36 48.31L110.36 48.31Q110.36 47.26 110.03 46.45Q109.71 45.64 109.09 45.17Q108.48 44.71 107.61 44.71L107.61 44.71Q106.75 44.71 106.13 45.16Q105.51 45.62 105.19 46.43Q104.87 47.25 104.87 48.31L104.87 48.31Q104.87 49.38 105.19 50.20Q105.51 51.03 106.13 51.49Q106.75 51.95 107.61 51.95ZM115.49 52.75L114.41 52.75L114.41 43.86L115.49 43.86L115.49 52.75ZM114.95 42.15L114.95 42.15Q114.63 42.15 114.39 41.92Q114.16 41.70 114.16 41.38L114.16 41.38Q114.16 41.07 114.39 40.85Q114.63 40.62 114.95 40.62L114.95 40.62Q115.27 40.62 115.51 40.85Q115.74 41.07 115.74 41.38L115.74 41.38Q115.74 41.70 115.51 41.92Q115.27 42.15 114.95 42.15ZM117.74 43.86L122.03 43.86L122.03 44.80L117.74 44.80L117.74 43.86ZM119.11 50.75L119.11 41.67L120.19 41.67L120.19 50.67Q120.19 51.31 120.48 51.61Q120.76 51.90 121.36 51.86L121.36 51.86Q121.49 51.85 121.66 51.83Q121.83 51.81 121.98 51.78L121.98 51.78L122.16 52.72Q121.98 52.77 121.76 52.79Q121.54 52.81 121.33 52.82L121.33 52.82Q120.28 52.88 119.70 52.32Q119.11 51.77 119.11 50.75L119.11 50.75ZM128.21 52.94L128.21 52.94Q126.96 52.94 126.05 52.35Q125.13 51.77 124.64 50.73Q124.14 49.70 124.14 48.35L124.14 48.35Q124.14 47.00 124.64 45.95Q125.13 44.91 126.02 44.32Q126.90 43.73 128.06 43.73L128.06 43.73Q128.83 43.73 129.52 44.00Q130.21 44.28 130.74 44.84Q131.28 45.40 131.59 46.24Q131.89 47.07 131.89 48.18L131.89 48.18L131.89 48.62L124.83 48.62L124.83 47.68L131.30 47.68L130.81 48.03Q130.81 47.06 130.48 46.31Q130.14 45.56 129.53 45.12Q128.91 44.69 128.06 44.69L128.06 44.69Q127.21 44.69 126.57 45.14Q125.94 45.58 125.58 46.32Q125.23 47.05 125.23 47.96L125.23 47.96L125.23 48.48Q125.23 49.53 125.59 50.31Q125.95 51.09 126.63 51.53Q127.30 51.96 128.21 51.96L128.21 51.96Q128.85 51.96 129.33 51.76Q129.82 51.56 130.16 51.21Q130.49 50.86 130.65 50.43L130.65 50.43L131.69 50.69Q131.49 51.30 131.01 51.82Q130.54 52.33 129.83 52.63Q129.11 52.94 128.21 52.94ZM138.29 52.92L138.29 52.92Q137.13 52.92 136.24 52.34Q135.34 51.75 134.84 50.72Q134.34 49.68 134.34 48.33L134.34 48.33Q134.34 46.97 134.84 45.93Q135.34 44.89 136.24 44.31Q137.13 43.73 138.29 43.73L138.29 43.73Q138.99 43.73 139.56 43.93Q140.14 44.13 140.58 44.48Q141.03 44.82 141.33 45.26Q141.63 45.69 141.76 46.16L141.76 46.16L140.72 46.41Q140.64 46.12 140.44 45.82Q140.24 45.52 139.94 45.27Q139.63 45.02 139.22 44.86Q138.81 44.70 138.29 44.70L138.29 44.70Q137.39 44.70 136.75 45.19Q136.11 45.68 135.77 46.49Q135.43 47.31 135.43 48.33L135.43 48.33Q135.43 49.34 135.77 50.16Q136.11 50.98 136.75 51.46Q137.39 51.94 138.29 51.94L138.29 51.94Q138.82 51.94 139.23 51.79Q139.65 51.63 139.96 51.37Q140.27 51.11 140.46 50.80Q140.66 50.49 140.74 50.20L140.74 50.20L141.78 50.45Q141.66 50.91 141.36 51.36Q141.06 51.80 140.60 52.15Q140.15 52.51 139.57 52.71Q138.99 52.92 138.29 52.92ZM145.78 47.24L145.78 47.24L145.78 52.75L144.70 52.75L144.70 40.75L145.78 40.75L145.78 45.93L145.55 45.93Q145.93 44.77 146.71 44.25Q147.50 43.73 148.53 43.73L148.53 43.73Q149.44 43.73 150.13 44.11Q150.83 44.49 151.23 45.22Q151.62 45.95 151.62 47.02L151.62 47.02L151.62 52.75L150.54 52.75L150.54 47.10Q150.54 45.99 149.92 45.35Q149.30 44.72 148.26 44.72L148.26 44.72Q147.56 44.72 147.00 45.02Q146.43 45.31 146.11 45.88Q145.78 46.44 145.78 47.24Z" fill="#F2F2F2" fill-opacity="0.4" />
    <path d="M4.58 90.10L4.58 90.10Q3.65 90.10 2.95 89.85Q2.25 89.61 1.79 89.18Q1.33 88.75 1.10 88.20L1.10 88.20L2.26 87.65Q2.43 87.94 2.70 88.23Q2.98 88.52 3.43 88.72Q3.88 88.91 4.58 88.91L4.58 88.91Q5.61 88.91 6.25 88.41Q6.90 87.91 6.90 86.86L6.90 86.86L6.90 85.26L6.80 85.26Q6.62 85.55 6.33 85.89Q6.04 86.22 5.55 86.45Q5.07 86.67 4.31 86.67L4.31 86.67Q3.28 86.67 2.48 86.18Q1.67 85.69 1.20 84.76Q0.74 83.83 0.74 82.51L0.74 82.51Q0.74 81.21 1.20 80.25Q1.65 79.29 2.46 78.75Q3.28 78.22 4.33 78.22L4.33 78.22Q5.09 78.22 5.58 78.46Q6.06 78.71 6.36 79.05Q6.66 79.39 6.83 79.68L6.83 79.68L6.93 79.68L6.93 78.34L8.25 78.34L8.25 86.93Q8.25 88.04 7.76 88.74Q7.27 89.45 6.43 89.77Q5.60 90.10 4.58 90.10ZM4.53 85.47L4.53 85.47Q5.30 85.47 5.84 85.11Q6.38 84.75 6.65 84.08Q6.93 83.41 6.93 82.49L6.93 82.49Q6.93 81.59 6.66 80.90Q6.38 80.21 5.85 79.82Q5.31 79.43 4.53 79.43L4.53 79.43Q3.75 79.43 3.21 79.83Q2.67 80.23 2.39 80.92Q2.11 81.61 2.11 82.49L2.11 82.49Q2.11 83.39 2.39 84.06Q2.67 84.73 3.21 85.10Q3.76 85.47 4.53 85.47ZM12.22 86.75L10.86 86.75L10.86 78.34L12.22 78.34L12.22 86.75ZM11.54 76.91L11.54 76.91Q11.16 76.91 10.88 76.64Q10.60 76.38 10.60 76.00L10.60 76.00Q10.60 75.63 10.88 75.37Q11.16 75.10 11.54 75.10L11.54 75.10Q11.93 75.10 12.21 75.37Q12.48 75.63 12.48 76.00L12.48 76.00Q12.48 76.38 12.21 76.64Q11.93 76.91 11.54 76.91ZM13.82 78.34L18.22 78.34L18.22 79.50L13.82 79.50L13.82 78.34ZM15.13 84.71L15.13 76.28L16.49 76.28L16.49 84.60Q16.49 85.14 16.72 85.39Q16.94 85.64 17.47 85.64L17.47 85.64Q17.61 85.64 17.81 85.62Q18.01 85.59 18.18 85.57L18.18 85.57L18.40 86.71Q18.19 86.77 17.93 86.80Q17.66 86.83 17.41 86.83L17.41 86.83Q16.32 86.83 15.73 86.28Q15.13 85.72 15.13 84.71L15.13 84.71ZM21.55 81.74L21.55 81.74L21.55 86.75L20.19 86.75L20.19 75.40L21.55 75.40L21.55 80.37L21.27 80.37Q21.66 79.22 22.38 78.72Q23.09 78.22 24.06 78.22L24.06 78.22Q24.91 78.22 25.57 78.57Q26.23 78.93 26.59 79.64Q26.96 80.35 26.96 81.43L26.96 81.43L26.96 86.75L25.60 86.75L25.60 81.54Q25.60 80.55 25.09 80.00Q24.58 79.45 23.69 79.45L23.69 79.45Q23.08 79.45 22.60 79.70Q22.11 79.96 21.83 80.47Q21.55 80.98 21.55 81.74ZM32.48 86.86L32.48 86.86Q31.63 86.86 30.97 86.51Q30.32 86.16 29.95 85.44Q29.58 84.73 29.58 83.66L29.58 83.66L29.58 78.34L30.93 78.34L30.93 83.54Q30.93 84.54 31.45 85.09Q31.96 85.65 32.85 85.65L32.85 85.65Q33.45 85.65 33.94 85.38Q34.42 85.12 34.70 84.61Q34.98 84.10 34.98 83.35L34.98 83.35L34.98 78.34L36.35 78.34L36.35 86.75L35.04 86.75L35.04 84.71L35.26 84.71Q34.86 85.88 34.14 86.37Q33.42 86.86 32.48 86.86ZM42.88 86.93L42.88 86.93Q42.14 86.93 41.65 86.68Q41.16 86.43 40.86 86.09Q40.57 85.74 40.39 85.46L40.39 85.46L40.27 85.46L40.27 86.75L38.96 86.75L38.96 75.40L40.32 75.40L40.32 79.67L40.40 79.67Q40.57 79.38 40.86 79.05Q41.15 78.71 41.63 78.47Q42.11 78.22 42.88 78.22L42.88 78.22Q43.94 78.22 44.75 78.75Q45.55 79.29 46.01 80.26Q46.46 81.24 46.46 82.56L46.46 82.56Q46.46 83.89 46.01 84.87Q45.56 85.85 44.75 86.39Q43.95 86.93 42.88 86.93ZM42.68 85.71L42.68 85.71Q43.45 85.71 43.99 85.30Q44.53 84.89 44.81 84.18Q45.08 83.46 45.08 82.55L45.08 82.55Q45.08 81.65 44.81 80.94Q44.54 80.24 44.00 79.83Q43.46 79.43 42.68 79.43L42.68 79.43Q41.90 79.43 41.37 79.82Q40.83 80.21 40.56 80.92Q40.28 81.62 40.28 82.55L40.28 82.55Q40.28 83.49 40.56 84.20Q40.83 84.91 41.38 85.31Q41.92 85.71 42.68 85.71ZM49.64 86.86L49.64 86.86Q49.22 86.86 48.93 86.56Q48.63 86.26 48.63 85.84L48.63 85.84Q48.63 85.42 48.93 85.13Q49.22 84.83 49.64 84.83L49.64 84.83Q50.07 84.83 50.36 85.13Q50.65 85.42 50.65 85.84L50.65 85.84Q50.65 86.26 50.36 86.56Q50.07 86.86 49.64 86.86ZM56.67 86.93L56.67 86.93Q55.52 86.93 54.65 86.39Q53.79 85.84 53.31 84.86Q52.82 83.88 52.82 82.59L52.82 82.59Q52.82 81.28 53.31 80.29Q53.79 79.31 54.65 78.76Q55.52 78.22 56.67 78.22L56.67 78.22Q57.30 78.22 57.86 78.39Q58.41 78.55 58.86 78.87Q59.31 79.19 59.63 79.65Q59.95 80.10 60.11 80.67L60.11 80.67L58.79 80.96Q58.70 80.63 58.52 80.35Q58.33 80.07 58.06 79.86Q57.80 79.66 57.45 79.54Q57.10 79.43 56.67 79.43L56.67 79.43Q55.84 79.43 55.29 79.86Q54.74 80.29 54.47 81.01Q54.19 81.72 54.19 82.59L54.19 82.59Q54.19 83.44 54.47 84.16Q54.74 84.87 55.29 85.30Q55.83 85.72 56.67 85.72L56.67 85.72Q57.10 85.72 57.45 85.61Q57.80 85.49 58.08 85.28Q58.35 85.07 58.54 84.77Q58.72 84.48 58.81 84.14L58.81 84.14L60.13 84.43Q59.98 85.01 59.66 85.46Q59.34 85.92 58.88 86.25Q58.43 86.58 57.87 86.76Q57.30 86.93 56.67 86.93ZM65.73 86.93L65.73 86.93Q64.58 86.93 63.71 86.39Q62.85 85.84 62.36 84.86Q61.88 83.88 61.88 82.59L61.88 82.59Q61.88 81.28 62.36 80.29Q62.85 79.31 63.71 78.76Q64.58 78.22 65.73 78.22L65.73 78.22Q66.88 78.22 67.74 78.76Q68.61 79.31 69.10 80.29Q69.58 81.28 69.58 82.59L69.58 82.59Q69.58 83.88 69.10 84.86Q68.61 85.84 67.74 86.39Q66.88 86.93 65.73 86.93ZM65.73 85.72L65.73 85.72Q66.56 85.72 67.12 85.30Q67.67 84.87 67.94 84.16Q68.21 83.44 68.21 82.59L68.21 82.59Q68.21 81.73 67.94 81.01Q67.67 80.29 67.12 79.86Q66.56 79.43 65.73 79.43L65.73 79.43Q64.90 79.43 64.35 79.86Q63.80 80.29 63.52 81.01Q63.25 81.72 63.25 82.59L63.25 82.59Q63.25 83.44 63.52 84.16Q63.80 84.87 64.34 85.30Q64.89 85.72 65.73 85.72ZM73.14 86.75L71.78 86.75L71.78 78.34L73.10 78.34L73.11 80.18L72.99 80.18Q73.18 79.51 73.55 79.07Q73.93 78.63 74.44 78.41Q74.94 78.19 75.49 78.19L75.49 78.19Q76.42 78.19 77.01 78.75Q77.61 79.32 77.78 80.20L77.78 80.20L77.57 80.20Q77.73 79.59 78.13 79.14Q78.52 78.68 79.09 78.44Q79.66 78.19 80.34 78.19L80.34 78.19Q81.07 78.19 81.68 78.51Q82.29 78.83 82.66 79.48Q83.02 80.12 83.02 81.11L83.02 81.11L83.02 86.75L81.66 86.75L81.66 81.14Q81.66 80.21 81.14 79.82Q80.63 79.42 79.94 79.42L79.94 79.42Q79.36 79.42 78.95 79.66Q78.53 79.90 78.30 80.32Q78.07 80.75 78.07 81.29L78.07 81.29L78.07 86.75L76.73 86.75L76.73 81.01Q76.73 80.29 76.25 79.86Q75.77 79.42 75.05 79.42L75.05 79.42Q74.55 79.42 74.11 79.65Q73.67 79.89 73.40 80.35Q73.14 80.81 73.14 81.49L73.14 81.49L73.14 86.75Z" fill="#F2F2F2"/>
</svg>
