<!--
By
 ███▄ ▄███▓ ▄▄▄       ██▓     ██▓     ▒█████   █     █░
▓██▒▀█▀ ██▒▒████▄    ▓██▒    ▓██▒    ▒██▒  ██▒▓█░ █ ░█░
▓██    ▓██░▒██  ▀█▄  ▒██░    ▒██░    ▒██░  ██▒▒█░ █ ░█ 
▒██    ▒██ ░██▄▄▄▄██ ▒██░    ▒██░    ▒██   ██░░█░ █ ░█ 
▒██▒   ░██▒ ▓█   ▓██▒░██████▒░██████▒░ ████▓▒░░░██▒██▓ 
░ ▒░   ░  ░ ▒▒   ▓▒█░░ ▒░▓  ░░ ▒░▓  ░░ ▒░▒░▒░ ░ ▓░▒ ▒  
░  ░      ░  ▒   ▒▒ ░░ ░ ▒  ░░ ░ ▒  ░  ░ ▒ ▒░   ▒ ░ ░  
░      ░     ░   ▒     ░ ░     ░ ░   ░ ░ ░ ▒    ░   ░  
       ░         ░  ░    ░  ░    ░  ░    ░ ░      ░    
Generated on 27/08/2025
-->
<svg xmlns="http://www.w3.org/2000/svg" width="327" height="97" viewBox="0 0 327 97" fill="none">
  <path d="M4.07 0L1.67 0L1.67-15.71L4.07-15.71L4.07-9.07L11.85-9.07L11.85-15.71L14.25-15.71L14.25 0L11.85 0L11.85-7.00L4.07-7.00L4.07 0ZM21.65 0.16L21.65 0.16Q20.46 0.16 19.55-0.34Q18.64-0.84 18.13-1.84Q17.62-2.83 17.62-4.28L17.62-4.28L17.62-11.64L19.93-11.64L19.93-4.57Q19.93-3.28 20.59-2.56Q21.25-1.85 22.41-1.85L22.41-1.85Q23.19-1.85 23.80-2.18Q24.41-2.52 24.77-3.18Q25.13-3.84 25.13-4.79L25.13-4.79L25.13-11.64L27.44-11.64L27.44 0L25.22 0L25.21-2.86L25.51-2.86Q24.98-1.29 23.99-0.56Q23.01 0.16 21.65 0.16ZM35.55 4.64L35.55 4.64Q34.18 4.64 33.17 4.28Q32.17 3.92 31.52 3.30Q30.87 2.67 30.59 1.88L30.59 1.88L32.58 1.16Q32.78 1.54 33.14 1.91Q33.50 2.29 34.08 2.54Q34.66 2.78 35.54 2.78L35.54 2.78Q36.89 2.78 37.72 2.13Q38.54 1.47 38.54 0.12L38.54 0.12L38.54-2.06L38.38-2.06Q38.13-1.61 37.72-1.17Q37.31-0.72 36.65-0.41Q35.99-0.11 34.98-0.11L34.98-0.11Q33.59-0.11 32.48-0.78Q31.37-1.46 30.73-2.74Q30.09-4.02 30.09-5.86L30.09-5.86Q30.09-7.70 30.73-9.03Q31.37-10.37 32.48-11.09Q33.59-11.81 35.00-11.81L35.00-11.81Q36.02-11.81 36.69-11.49Q37.36-11.16 37.78-10.68Q38.20-10.21 38.44-9.78L38.44-9.78L38.57-9.78L38.57-11.64L40.82-11.64L40.82 0.11Q40.82 1.68 40.12 2.68Q39.42 3.68 38.23 4.16Q37.04 4.64 35.55 4.64ZM35.51-2.04L35.51-2.04Q36.49-2.04 37.18-2.50Q37.86-2.96 38.22-3.83Q38.58-4.69 38.58-5.90L38.58-5.90Q38.58-7.08 38.22-7.96Q37.86-8.85 37.18-9.35Q36.49-9.85 35.51-9.85L35.51-9.85Q34.52-9.85 33.83-9.34Q33.14-8.83 32.78-7.94Q32.43-7.05 32.43-5.90L32.43-5.90Q32.43-4.71 32.79-3.85Q33.15-2.98 33.83-2.51Q34.52-2.04 35.51-2.04ZM48.94 0.24L48.94 0.24Q47.30 0.24 46.07-0.51Q44.84-1.27 44.16-2.62Q43.48-3.98 43.48-5.77L43.48-5.77Q43.48-7.58 44.16-8.94Q44.84-10.30 46.07-11.06Q47.30-11.81 48.94-11.81L48.94-11.81Q50.60-11.81 51.83-11.06Q53.06-10.30 53.74-8.94Q54.42-7.58 54.42-5.77L54.42-5.77Q54.42-3.98 53.74-2.62Q53.06-1.27 51.83-0.51Q50.60 0.24 48.94 0.24ZM48.94-1.71L48.94-1.71Q49.99-1.71 50.69-2.25Q51.39-2.79 51.74-3.72Q52.09-4.64 52.09-5.77L52.09-5.77Q52.09-6.92 51.74-7.84Q51.39-8.76 50.69-9.31Q49.99-9.86 48.94-9.86L48.94-9.86Q47.90-9.86 47.21-9.31Q46.52-8.76 46.17-7.84Q45.82-6.92 45.82-5.77L45.82-5.77Q45.82-4.64 46.17-3.72Q46.52-2.79 47.21-2.25Q47.90-1.71 48.94-1.71ZM69.67 0.22L69.67 0.22Q67.60 0.22 65.99-0.76Q64.37-1.74 63.45-3.55Q62.54-5.36 62.54-7.85L62.54-7.85Q62.54-10.35 63.46-12.16Q64.38-13.97 66.00-14.96Q67.61-15.94 69.67-15.94L69.67-15.94Q70.92-15.94 72.02-15.57Q73.12-15.21 73.98-14.52Q74.84-13.83 75.41-12.84Q75.98-11.84 76.18-10.59L76.18-10.59L73.77-10.59Q73.61-11.36 73.24-11.94Q72.87-12.53 72.33-12.94Q71.79-13.34 71.12-13.55Q70.45-13.75 69.69-13.75L69.69-13.75Q68.30-13.75 67.21-13.06Q66.13-12.36 65.52-11.04Q64.91-9.72 64.91-7.85L64.91-7.85Q64.91-5.97 65.53-4.65Q66.14-3.33 67.22-2.65Q68.31-1.96 69.69-1.96L69.69-1.96Q70.44-1.96 71.11-2.17Q71.78-2.37 72.32-2.77Q72.86-3.17 73.24-3.77Q73.61-4.36 73.77-5.12L73.77-5.12L76.18-5.12Q76.01-3.93 75.45-2.96Q74.89-1.98 74.03-1.27Q73.18-0.55 72.07-0.16Q70.96 0.22 69.67 0.22ZM82.24 0.24L82.24 0.24Q81.13 0.24 80.23-0.16Q79.33-0.57 78.81-1.36Q78.29-2.15 78.29-3.30L78.29-3.30Q78.29-4.29 78.67-4.93Q79.06-5.57 79.70-5.94Q80.34-6.31 81.15-6.50Q81.96-6.69 82.80-6.78L82.80-6.78Q83.85-6.91 84.48-6.99Q85.12-7.08 85.42-7.26Q85.72-7.44 85.72-7.85L85.72-7.85L85.72-7.91Q85.72-8.55 85.47-9.00Q85.22-9.45 84.71-9.69Q84.20-9.94 83.47-9.94L83.47-9.94Q82.72-9.94 82.17-9.70Q81.62-9.46 81.28-9.09Q80.94-8.71 80.80-8.29L80.80-8.29L78.62-8.72Q78.94-9.79 79.65-10.47Q80.37-11.15 81.35-11.48Q82.33-11.81 83.45-11.81L83.45-11.81Q84.23-11.81 85.03-11.62Q85.84-11.43 86.52-10.98Q87.20-10.53 87.61-9.75Q88.02-8.96 88.02-7.78L88.02-7.78L88.02 0L85.79 0L85.79-1.60L85.69-1.60Q85.46-1.15 85.02-0.73Q84.57-0.31 83.89-0.03Q83.20 0.24 82.24 0.24ZM82.75-1.60L82.75-1.60Q83.71-1.60 84.37-1.97Q85.04-2.34 85.39-2.94Q85.73-3.54 85.73-4.23L85.73-4.23L85.73-5.70Q85.62-5.58 85.28-5.48Q84.94-5.39 84.51-5.31Q84.08-5.23 83.66-5.17Q83.23-5.12 82.92-5.07L82.92-5.07Q82.29-4.99 81.74-4.79Q81.20-4.60 80.88-4.23Q80.56-3.87 80.56-3.27L80.56-3.27Q80.56-2.72 80.84-2.35Q81.11-1.98 81.61-1.79Q82.11-1.60 82.75-1.60ZM89.93-11.64L96.34-11.64L96.34-9.77L89.93-9.77L89.93-11.64ZM91.70-2.92L91.70-14.50L94.01-14.50L94.01-3.13Q94.01-2.45 94.29-2.13Q94.58-1.81 95.26-1.81L95.26-1.81Q95.46-1.81 95.76-1.85Q96.05-1.89 96.27-1.92L96.27-1.92L96.59-0.06Q96.23 0.03 95.82 0.07Q95.41 0.12 95.01 0.12L95.01 0.12Q93.42 0.12 92.56-0.67Q91.70-1.46 91.70-2.92L91.70-2.92ZM101.04-6.86L101.04-6.86L101.04 0L98.73 0L98.73-15.71L101.02-15.71L101.02-8.79L100.66-8.79Q101.17-10.35 102.16-11.08Q103.14-11.81 104.53-11.81L104.53-11.81Q105.72-11.81 106.62-11.31Q107.52-10.80 108.04-9.81Q108.55-8.83 108.55-7.37L108.55-7.37L108.55 0L106.24 0L106.24-7.09Q106.24-8.37 105.58-9.09Q104.92-9.80 103.77-9.80L103.77-9.80Q102.99-9.80 102.37-9.46Q101.74-9.12 101.39-8.47Q101.04-7.82 101.04-6.86ZM116.76 0.24L116.76 0.24Q115.03 0.24 113.78-0.51Q112.54-1.26 111.87-2.61Q111.20-3.96 111.20-5.76L111.20-5.76Q111.20-7.54 111.86-8.91Q112.53-10.27 113.74-11.04Q114.95-11.81 116.57-11.81L116.57-11.81Q117.62-11.81 118.57-11.46Q119.51-11.12 120.24-10.39Q120.98-9.67 121.40-8.56Q121.82-7.45 121.82-5.92L121.82-5.92L121.82-5.14L112.42-5.14L112.42-6.87L120.63-6.87L119.57-6.31Q119.57-7.37 119.23-8.19Q118.89-9.01 118.22-9.46Q117.55-9.91 116.58-9.91L116.58-9.91Q115.61-9.91 114.92-9.45Q114.23-8.99 113.86-8.22Q113.49-7.45 113.49-6.50L113.49-6.50L113.49-5.37Q113.49-4.20 113.89-3.36Q114.30-2.53 115.04-2.09Q115.79-1.66 116.78-1.66L116.78-1.66Q117.44-1.66 117.98-1.85Q118.52-2.05 118.90-2.43Q119.28-2.81 119.47-3.35L119.47-3.35L121.64-2.95Q121.38-2.00 120.70-1.28Q120.03-0.56 119.02-0.16Q118.01 0.24 116.76 0.24ZM124.43-15.71L126.74-15.71L126.74 0L124.43 0L124.43-15.71ZM133.25 0.24L133.25 0.24Q132.13 0.24 131.24-0.16Q130.34-0.57 129.82-1.36Q129.30-2.15 129.30-3.30L129.30-3.30Q129.30-4.29 129.68-4.93Q130.07-5.57 130.71-5.94Q131.35-6.31 132.16-6.50Q132.97-6.69 133.81-6.78L133.81-6.78Q134.86-6.91 135.49-6.99Q136.13-7.08 136.43-7.26Q136.73-7.44 136.73-7.85L136.73-7.85L136.73-7.91Q136.73-8.55 136.48-9.00Q136.23-9.45 135.72-9.69Q135.21-9.94 134.48-9.94L134.48-9.94Q133.73-9.94 133.18-9.70Q132.63-9.46 132.29-9.09Q131.94-8.71 131.81-8.29L131.81-8.29L129.62-8.72Q129.95-9.79 130.66-10.47Q131.37-11.15 132.36-11.48Q133.34-11.81 134.45-11.81L134.45-11.81Q135.23-11.81 136.04-11.62Q136.85-11.43 137.53-10.98Q138.21-10.53 138.62-9.75Q139.03-8.96 139.03-7.78L139.03-7.78L139.03 0L136.80 0L136.80-1.60L136.70-1.60Q136.47-1.15 136.03-0.73Q135.58-0.31 134.90-0.03Q134.21 0.24 133.25 0.24ZM133.76-1.60L133.76-1.60Q134.72-1.60 135.38-1.97Q136.05-2.34 136.40-2.94Q136.74-3.54 136.74-4.23L136.74-4.23L136.74-5.70Q136.63-5.58 136.29-5.48Q135.95-5.39 135.52-5.31Q135.09-5.23 134.67-5.17Q134.24-5.12 133.93-5.07L133.93-5.07Q133.29-4.99 132.75-4.79Q132.21-4.60 131.89-4.23Q131.56-3.87 131.56-3.27L131.56-3.27Q131.56-2.72 131.84-2.35Q132.12-1.98 132.62-1.79Q133.12-1.60 133.76-1.60ZM144.53 0L142.22 0L142.22-11.64L144.53-11.64L144.53 0ZM143.38-13.47L143.38-13.47Q142.78-13.47 142.36-13.87Q141.94-14.28 141.94-14.85L141.94-14.85Q141.94-15.43 142.36-15.83Q142.78-16.22 143.38-16.22L143.38-16.22Q143.98-16.22 144.41-15.83Q144.83-15.43 144.83-14.85L144.83-14.85Q144.83-14.28 144.41-13.87Q143.98-13.47 143.38-13.47ZM150.03-6.86L150.03-6.86L150.03 0L147.72 0L147.72-11.64L149.94-11.64L149.95-8.79L149.65-8.79Q150.17-10.35 151.15-11.08Q152.13-11.81 153.52-11.81L153.52-11.81Q154.71-11.81 155.62-11.31Q156.52-10.80 157.02-9.81Q157.53-8.83 157.53-7.37L157.53-7.37L157.53 0L155.23 0L155.23-7.09Q155.23-8.37 154.57-9.09Q153.91-9.80 152.76-9.80L152.76-9.80Q151.98-9.80 151.36-9.46Q150.74-9.12 150.39-8.47Q150.03-7.82 150.03-6.86Z" fill="#F2F2F2" opacity="1" id="msvg-g8wrvhylul" style="transform: translate(0px, 23.8px)"/>
  <path d="M5.14 0.20L5.14 0.20Q3.90 0.20 2.98-0.22Q2.06-0.64 1.54-1.39Q1.02-2.14 0.97-3.14L0.97-3.14L2.12-3.14Q2.18-2.40 2.57-1.89Q2.97-1.37 3.64-1.10Q4.31-0.83 5.14-0.83L5.14-0.83Q6.04-0.83 6.73-1.13Q7.42-1.43 7.81-1.96Q8.21-2.50 8.21-3.21L8.21-3.21Q8.21-3.79 7.91-4.20Q7.61-4.61 7.05-4.89Q6.49-5.18 5.71-5.41L5.71-5.41L4.31-5.81Q2.81-6.24 2.04-6.99Q1.26-7.74 1.26-8.89L1.26-8.89Q1.26-9.86 1.78-10.60Q2.30-11.34 3.19-11.76Q4.08-12.17 5.20-12.17L5.20-12.17Q6.35-12.17 7.21-11.75Q8.08-11.34 8.58-10.60Q9.09-9.86 9.13-8.91L9.13-8.91L8.02-8.91Q7.93-9.94 7.15-10.55Q6.37-11.15 5.17-11.15L5.17-11.15Q4.35-11.15 3.72-10.86Q3.09-10.58 2.73-10.08Q2.38-9.58 2.38-8.93L2.38-8.93Q2.38-8.34 2.71-7.93Q3.04-7.52 3.58-7.24Q4.13-6.97 4.76-6.78L4.76-6.78L6.04-6.42Q6.68-6.24 7.27-5.98Q7.86-5.72 8.32-5.34Q8.78-4.96 9.05-4.44Q9.32-3.92 9.32-3.20L9.32-3.20Q9.32-2.22 8.81-1.45Q8.31-0.68 7.37-0.24Q6.44 0.20 5.14 0.20ZM11.23-8.89L15.51-8.89L15.51-7.95L11.23-7.95L11.23-8.89ZM12.60-2.00L12.60-11.08L13.68-11.08L13.68-2.08Q13.68-1.44 13.96-1.14Q14.25-0.85 14.84-0.89L14.84-0.89Q14.97-0.90 15.15-0.92Q15.32-0.94 15.46-0.97L15.46-0.97L15.64-0.03Q15.46 0.02 15.25 0.04Q15.03 0.06 14.82 0.07L14.82 0.07Q13.76 0.13 13.18-0.43Q12.60-0.98 12.60-2.00L12.60-2.00ZM21.20 0.13L21.20 0.13Q20.29 0.13 19.59-0.25Q18.89-0.64 18.50-1.37Q18.10-2.11 18.10-3.17L18.10-3.17L18.10-8.89L19.18-8.89L19.18-3.25Q19.18-2.14 19.80-1.50Q20.42-0.86 21.46-0.86L21.46-0.86Q22.16-0.86 22.73-1.16Q23.29-1.46 23.62-2.03Q23.94-2.59 23.94-3.38L23.94-3.38L23.94-8.89L25.02-8.89L25.02 0L23.97 0L23.97-2.08L24.17-2.08Q23.79-0.91 23.00-0.39Q22.20 0.13 21.20 0.13ZM31.68 0.19L31.68 0.19Q30.58 0.19 29.75-0.39Q28.92-0.97 28.45-2.01Q27.98-3.05 27.98-4.43L27.98-4.43Q27.98-5.80 28.45-6.84Q28.92-7.87 29.75-8.45Q30.59-9.02 31.69-9.02L31.69-9.02Q32.47-9.02 33.02-8.75Q33.57-8.48 33.93-8.06Q34.28-7.64 34.47-7.19L34.47-7.19L34.54-7.19L34.54-12.00L35.62-12.00L35.62 0L34.57 0L34.57-1.67L34.48-1.67Q34.28-1.22 33.92-0.79Q33.56-0.37 33.01-0.09Q32.46 0.19 31.68 0.19ZM31.83-0.80L31.83-0.80Q32.69-0.80 33.30-1.26Q33.92-1.72 34.25-2.55Q34.57-3.37 34.57-4.44L34.57-4.44Q34.57-5.50 34.25-6.32Q33.92-7.13 33.31-7.59Q32.70-8.04 31.83-8.04L31.83-8.04Q30.96-8.04 30.34-7.58Q29.73-7.11 29.40-6.30Q29.08-5.49 29.08-4.44L29.08-4.44Q29.08-3.39 29.40-2.57Q29.73-1.74 30.35-1.27Q30.96-0.80 31.83-0.80ZM42.65 0.19L42.65 0.19Q41.40 0.19 40.49-0.40Q39.57-0.98 39.08-2.02Q38.58-3.05 38.58-4.40L38.58-4.40Q38.58-5.75 39.08-6.80Q39.57-7.84 40.46-8.43Q41.34-9.02 42.50-9.02L42.50-9.02Q43.27-9.02 43.96-8.75Q44.65-8.47 45.18-7.91Q45.72-7.35 46.02-6.51Q46.33-5.68 46.33-4.57L46.33-4.57L46.33-4.13L39.26-4.13L39.26-5.07L45.74-5.07L45.25-4.72Q45.25-5.69 44.92-6.44Q44.58-7.19 43.97-7.63Q43.35-8.06 42.50-8.06L42.50-8.06Q41.65-8.06 41.01-7.61Q40.38-7.17 40.02-6.43Q39.67-5.70 39.67-4.79L39.67-4.79L39.67-4.27Q39.67-3.22 40.03-2.44Q40.39-1.66 41.07-1.22Q41.74-0.79 42.65-0.79L42.65-0.79Q43.29-0.79 43.77-0.99Q44.26-1.19 44.59-1.54Q44.93-1.89 45.09-2.32L45.09-2.32L46.13-2.06Q45.93-1.45 45.45-0.93Q44.98-0.42 44.26-0.12Q43.55 0.19 42.65 0.19ZM50.33-5.51L50.33-5.51L50.33 0L49.25 0L49.25-8.89L50.29-8.89L50.30-6.82L50.10-6.82Q50.47-7.98 51.26-8.50Q52.05-9.02 53.08-9.02L53.08-9.02Q53.99-9.02 54.68-8.64Q55.38-8.26 55.78-7.53Q56.17-6.80 56.17-5.73L56.17-5.73L56.17 0L55.09 0L55.09-5.65Q55.09-6.76 54.47-7.40Q53.85-8.03 52.81-8.03L52.81-8.03Q52.11-8.03 51.55-7.73Q50.98-7.44 50.66-6.87Q50.33-6.31 50.33-5.51ZM58.42-8.89L62.71-8.89L62.71-7.95L58.42-7.95L58.42-8.89ZM59.79-2.00L59.79-11.08L60.87-11.08L60.87-2.08Q60.87-1.44 61.16-1.14Q61.44-0.85 62.04-0.89L62.04-0.89Q62.17-0.90 62.34-0.92Q62.51-0.94 62.66-0.97L62.66-0.97L62.84-0.03Q62.66 0.02 62.44 0.04Q62.22 0.06 62.02 0.07L62.02 0.07Q60.96 0.13 60.38-0.43Q59.79-0.98 59.79-2.00L59.79-2.00ZM69.30-5.58L85.80-5.58L85.80-4.58L69.30-4.58L69.30-5.58ZM100.68 0L93.46 0L93.46-12.00L100.60-12.00L100.60-10.99L94.58-10.99L94.58-6.57L100.19-6.57L100.19-5.55L94.58-5.55L94.58-1.02L100.68-1.02L100.68 0ZM104.89 3.37L103.81 3.37L103.81-8.89L104.86-8.89L104.86-7.19L104.96-7.19Q105.15-7.64 105.50-8.06Q105.86-8.48 106.41-8.75Q106.96-9.02 107.74-9.02L107.74-9.02Q108.85-9.02 109.68-8.45Q110.52-7.87 110.98-6.84Q111.45-5.80 111.45-4.43L111.45-4.43Q111.45-3.05 110.99-2.01Q110.52-0.97 109.69-0.39Q108.86 0.19 107.75 0.19L107.75 0.19Q106.98 0.19 106.43-0.09Q105.88-0.37 105.52-0.79Q105.17-1.22 104.97-1.67L104.97-1.67L104.89-1.67L104.89 3.37ZM107.61-0.80L107.61-0.80Q108.48-0.80 109.09-1.27Q109.70-1.74 110.03-2.57Q110.36-3.39 110.36-4.44L110.36-4.44Q110.36-5.49 110.03-6.30Q109.71-7.11 109.09-7.58Q108.48-8.04 107.61-8.04L107.61-8.04Q106.75-8.04 106.13-7.59Q105.51-7.13 105.19-6.32Q104.87-5.50 104.87-4.44L104.87-4.44Q104.87-3.37 105.19-2.55Q105.51-1.72 106.13-1.26Q106.75-0.80 107.61-0.80ZM115.49 0L114.41 0L114.41-8.89L115.49-8.89L115.49 0ZM114.95-10.60L114.95-10.60Q114.63-10.60 114.39-10.83Q114.16-11.05 114.16-11.37L114.16-11.37Q114.16-11.68 114.39-11.90Q114.63-12.13 114.95-12.13L114.95-12.13Q115.27-12.13 115.51-11.90Q115.74-11.68 115.74-11.37L115.74-11.37Q115.74-11.05 115.51-10.83Q115.27-10.60 114.95-10.60ZM117.74-8.89L122.03-8.89L122.03-7.95L117.74-7.95L117.74-8.89ZM119.11-2.00L119.11-11.08L120.19-11.08L120.19-2.08Q120.19-1.44 120.48-1.14Q120.76-0.85 121.36-0.89L121.36-0.89Q121.49-0.90 121.66-0.92Q121.83-0.94 121.98-0.97L121.98-0.97L122.16-0.03Q121.98 0.02 121.76 0.04Q121.54 0.06 121.33 0.07L121.33 0.07Q120.28 0.13 119.70-0.43Q119.11-0.98 119.11-2.00L119.11-2.00ZM128.21 0.19L128.21 0.19Q126.96 0.19 126.05-0.40Q125.13-0.98 124.64-2.02Q124.14-3.05 124.14-4.40L124.14-4.40Q124.14-5.75 124.64-6.80Q125.13-7.84 126.02-8.43Q126.90-9.02 128.06-9.02L128.06-9.02Q128.83-9.02 129.52-8.75Q130.21-8.47 130.74-7.91Q131.28-7.35 131.59-6.51Q131.89-5.68 131.89-4.57L131.89-4.57L131.89-4.13L124.83-4.13L124.83-5.07L131.30-5.07L130.81-4.72Q130.81-5.69 130.48-6.44Q130.14-7.19 129.53-7.63Q128.91-8.06 128.06-8.06L128.06-8.06Q127.21-8.06 126.57-7.61Q125.94-7.17 125.58-6.43Q125.23-5.70 125.23-4.79L125.23-4.79L125.23-4.27Q125.23-3.22 125.59-2.44Q125.95-1.66 126.63-1.22Q127.30-0.79 128.21-0.79L128.21-0.79Q128.85-0.79 129.33-0.99Q129.82-1.19 130.16-1.54Q130.49-1.89 130.65-2.32L130.65-2.32L131.69-2.06Q131.49-1.45 131.01-0.93Q130.54-0.42 129.83-0.12Q129.11 0.19 128.21 0.19ZM138.29 0.17L138.29 0.17Q137.13 0.17 136.24-0.41Q135.34-1.00 134.84-2.03Q134.34-3.07 134.34-4.42L134.34-4.42Q134.34-5.78 134.84-6.82Q135.34-7.86 136.24-8.44Q137.13-9.02 138.29-9.02L138.29-9.02Q138.99-9.02 139.56-8.82Q140.14-8.62 140.58-8.27Q141.03-7.93 141.33-7.49Q141.63-7.06 141.76-6.59L141.76-6.59L140.72-6.34Q140.64-6.63 140.44-6.93Q140.24-7.23 139.94-7.48Q139.63-7.73 139.22-7.89Q138.81-8.05 138.29-8.05L138.29-8.05Q137.39-8.05 136.75-7.56Q136.11-7.07 135.77-6.26Q135.43-5.44 135.43-4.42L135.43-4.42Q135.43-3.41 135.77-2.59Q136.11-1.77 136.75-1.29Q137.39-0.81 138.29-0.81L138.29-0.81Q138.82-0.81 139.23-0.96Q139.65-1.12 139.96-1.38Q140.27-1.64 140.46-1.95Q140.66-2.26 140.74-2.55L140.74-2.55L141.78-2.30Q141.66-1.84 141.36-1.39Q141.06-0.95 140.60-0.60Q140.15-0.24 139.57-0.04Q138.99 0.17 138.29 0.17ZM145.78-5.51L145.78-5.51L145.78 0L144.70 0L144.70-12.00L145.78-12.00L145.78-6.82L145.55-6.82Q145.93-7.98 146.71-8.50Q147.50-9.02 148.53-9.02L148.53-9.02Q149.44-9.02 150.13-8.64Q150.83-8.26 151.23-7.53Q151.62-6.80 151.62-5.73L151.62-5.73L151.62 0L150.54 0L150.54-5.65Q150.54-6.76 149.92-7.40Q149.30-8.03 148.26-8.03L148.26-8.03Q147.56-8.03 147.00-7.73Q146.43-7.44 146.11-6.87Q145.78-6.31 145.78-5.51Z" fill="#F2F2F2" opacity="0.4" id="msvg-dc30h54b2zi" style="transform: translate(0px, 53.5px)"/>
  <path d="M4.58 3.35L4.58 3.35Q3.65 3.35 2.95 3.10Q2.25 2.86 1.79 2.43Q1.33 2.00 1.10 1.45L1.10 1.45L2.26 0.90Q2.43 1.19 2.70 1.48Q2.98 1.77 3.43 1.97Q3.88 2.16 4.58 2.16L4.58 2.16Q5.61 2.16 6.25 1.66Q6.90 1.16 6.90 0.11L6.90 0.11L6.90-1.49L6.80-1.49Q6.62-1.20 6.33-0.86Q6.04-0.53 5.55-0.30Q5.07-0.08 4.31-0.08L4.31-0.08Q3.28-0.08 2.48-0.57Q1.67-1.06 1.20-1.99Q0.74-2.92 0.74-4.24L0.74-4.24Q0.74-5.54 1.20-6.50Q1.65-7.46 2.46-8.00Q3.28-8.53 4.33-8.53L4.33-8.53Q5.09-8.53 5.58-8.29Q6.06-8.04 6.36-7.70Q6.66-7.36 6.83-7.07L6.83-7.07L6.93-7.07L6.93-8.41L8.25-8.41L8.25 0.18Q8.25 1.29 7.76 1.99Q7.27 2.70 6.43 3.02Q5.60 3.35 4.58 3.35ZM4.53-1.28L4.53-1.28Q5.30-1.28 5.84-1.64Q6.38-2.00 6.65-2.67Q6.93-3.34 6.93-4.26L6.93-4.26Q6.93-5.16 6.66-5.85Q6.38-6.54 5.85-6.93Q5.31-7.32 4.53-7.32L4.53-7.32Q3.75-7.32 3.21-6.92Q2.67-6.52 2.39-5.83Q2.11-5.14 2.11-4.26L2.11-4.26Q2.11-3.36 2.39-2.69Q2.67-2.02 3.21-1.65Q3.76-1.28 4.53-1.28ZM12.37 0L11.02 0L11.02-8.41L12.37-8.41L12.37 0ZM11.70-9.84L11.70-9.84Q11.31-9.84 11.04-10.11Q10.76-10.37 10.76-10.75L10.76-10.75Q10.76-11.12 11.04-11.38Q11.31-11.65 11.70-11.65L11.70-11.65Q12.08-11.65 12.36-11.38Q12.64-11.12 12.64-10.75L12.64-10.75Q12.64-10.37 12.36-10.11Q12.08-9.84 11.70-9.84ZM14.14-8.41L18.53-8.41L18.53-7.25L14.14-7.25L14.14-8.41ZM15.45-2.04L15.45-10.47L16.80-10.47L16.80-2.15Q16.80-1.61 17.03-1.36Q17.25-1.11 17.79-1.11L17.79-1.11Q17.92-1.11 18.12-1.13Q18.33-1.16 18.49-1.18L18.49-1.18L18.71-0.04Q18.50 0.02 18.24 0.05Q17.98 0.08 17.72 0.08L17.72 0.08Q16.64 0.08 16.04-0.47Q15.45-1.03 15.45-2.04L15.45-2.04ZM22.02-5.01L22.02-5.01L22.02 0L20.66 0L20.66-11.35L22.02-11.35L22.02-6.38L21.74-6.38Q22.13-7.53 22.85-8.03Q23.56-8.53 24.53-8.53L24.53-8.53Q25.38-8.53 26.04-8.18Q26.69-7.82 27.06-7.11Q27.43-6.40 27.43-5.32L27.43-5.32L27.43 0L26.07 0L26.07-5.21Q26.07-6.20 25.56-6.75Q25.05-7.30 24.16-7.30L24.16-7.30Q23.55-7.30 23.06-7.05Q22.58-6.79 22.30-6.28Q22.02-5.77 22.02-5.01ZM33.10 0.11L33.10 0.11Q32.25 0.11 31.59-0.24Q30.94-0.59 30.57-1.31Q30.20-2.02 30.20-3.09L30.20-3.09L30.20-8.41L31.56-8.41L31.56-3.21Q31.56-2.21 32.07-1.66Q32.58-1.10 33.48-1.10L33.48-1.10Q34.08-1.10 34.56-1.37Q35.04-1.63 35.33-2.14Q35.61-2.65 35.61-3.40L35.61-3.40L35.61-8.41L36.97-8.41L36.97 0L35.66 0L35.66-2.04L35.88-2.04Q35.49-0.87 34.76-0.38Q34.04 0.11 33.10 0.11ZM43.66 0.18L43.66 0.18Q42.92 0.18 42.43-0.07Q41.94-0.32 41.64-0.66Q41.35-1.01 41.17-1.29L41.17-1.29L41.05-1.29L41.05 0L39.74 0L39.74-11.35L41.10-11.35L41.10-7.08L41.18-7.08Q41.35-7.37 41.64-7.70Q41.93-8.04 42.41-8.28Q42.89-8.53 43.66-8.53L43.66-8.53Q44.72-8.53 45.53-8.00Q46.33-7.46 46.79-6.49Q47.24-5.51 47.24-4.19L47.24-4.19Q47.24-2.86 46.79-1.88Q46.34-0.90 45.53-0.36Q44.73 0.18 43.66 0.18ZM43.46-1.04L43.46-1.04Q44.23-1.04 44.77-1.45Q45.31-1.86 45.59-2.57Q45.86-3.29 45.86-4.20L45.86-4.20Q45.86-5.10 45.59-5.81Q45.32-6.51 44.78-6.92Q44.24-7.32 43.46-7.32L43.46-7.32Q42.68-7.32 42.15-6.93Q41.61-6.54 41.34-5.83Q41.06-5.13 41.06-4.20L41.06-4.20Q41.06-3.26 41.34-2.55Q41.61-1.84 42.16-1.44Q42.70-1.04 43.46-1.04ZM50.58 0.11L50.58 0.11Q50.16 0.11 49.86-0.19Q49.57-0.49 49.57-0.91L49.57-0.91Q49.57-1.33 49.86-1.62Q50.16-1.92 50.58-1.92L50.58-1.92Q51.00-1.92 51.30-1.62Q51.59-1.33 51.59-0.91L51.59-0.91Q51.59-0.49 51.30-0.19Q51.00 0.11 50.58 0.11ZM57.76 0.18L57.76 0.18Q56.61 0.18 55.75-0.36Q54.88-0.91 54.40-1.89Q53.92-2.87 53.92-4.16L53.92-4.16Q53.92-5.47 54.40-6.46Q54.88-7.44 55.75-7.99Q56.61-8.53 57.76-8.53L57.76-8.53Q58.39-8.53 58.95-8.36Q59.51-8.20 59.96-7.88Q60.40-7.56 60.72-7.10Q61.04-6.65 61.20-6.08L61.20-6.08L59.88-5.79Q59.80-6.12 59.61-6.40Q59.42-6.68 59.16-6.89Q58.89-7.09 58.54-7.21Q58.19-7.32 57.76-7.32L57.76-7.32Q56.93-7.32 56.38-6.89Q55.83-6.46 55.56-5.74Q55.29-5.03 55.29-4.16L55.29-4.16Q55.29-3.31 55.56-2.59Q55.83-1.88 56.38-1.45Q56.92-1.03 57.76-1.03L57.76-1.03Q58.19-1.03 58.54-1.14Q58.90-1.26 59.17-1.47Q59.45-1.68 59.63-1.98Q59.81-2.27 59.90-2.61L59.90-2.61L61.22-2.32Q61.07-1.74 60.75-1.29Q60.43-0.83 59.97-0.50Q59.52-0.17 58.96 0.01Q58.39 0.18 57.76 0.18ZM66.97 0.18L66.97 0.18Q65.82 0.18 64.96-0.36Q64.09-0.91 63.61-1.89Q63.13-2.87 63.13-4.16L63.13-4.16Q63.13-5.47 63.61-6.46Q64.09-7.44 64.96-7.99Q65.82-8.53 66.97-8.53L66.97-8.53Q68.12-8.53 68.99-7.99Q69.86-7.44 70.34-6.46Q70.83-5.47 70.83-4.16L70.83-4.16Q70.83-2.87 70.34-1.89Q69.86-0.91 68.99-0.36Q68.12 0.18 66.97 0.18ZM66.97-1.03L66.97-1.03Q67.81-1.03 68.36-1.45Q68.92-1.88 69.19-2.59Q69.46-3.31 69.46-4.16L69.46-4.16Q69.46-5.02 69.19-5.74Q68.92-6.46 68.36-6.89Q67.81-7.32 66.97-7.32L66.97-7.32Q66.14-7.32 65.60-6.89Q65.05-6.46 64.77-5.74Q64.50-5.03 64.50-4.16L64.50-4.16Q64.50-3.31 64.77-2.59Q65.05-1.88 65.59-1.45Q66.14-1.03 66.97-1.03ZM74.54 0L73.19 0L73.19-8.41L74.50-8.41L74.51-6.57L74.39-6.57Q74.58-7.24 74.96-7.68Q75.33-8.12 75.84-8.34Q76.35-8.56 76.90-8.56L76.90-8.56Q77.82-8.56 78.42-8.00Q79.01-7.43 79.18-6.55L79.18-6.55L78.97-6.55Q79.13-7.16 79.53-7.61Q79.93-8.07 80.49-8.31Q81.06-8.56 81.74-8.56L81.74-8.56Q82.48-8.56 83.09-8.24Q83.70-7.92 84.06-7.27Q84.42-6.63 84.42-5.64L84.42-5.64L84.42 0L83.07 0L83.07-5.61Q83.07-6.54 82.55-6.93Q82.03-7.33 81.34-7.33L81.34-7.33Q80.76-7.33 80.35-7.09Q79.93-6.85 79.71-6.43Q79.48-6.00 79.48-5.46L79.48-5.46L79.48 0L78.13 0L78.13-5.74Q78.13-6.46 77.65-6.89Q77.18-7.33 76.45-7.33L76.45-7.33Q75.95-7.33 75.51-7.10Q75.07-6.86 74.81-6.40Q74.54-5.94 74.54-5.26L74.54-5.26L74.54 0Z" fill="#F2F2F2" opacity="0.6" id="msvg-mbyqx34ie9j" style="transform: translate(0px, 87.05px)"/>
  <g id="msvg-0nanlta9xok9" style="transform: translate(86.420984375px, 72px)">
    <path d="M5.03556 17.5363L4.04102 16.5417L14.3313 6.25141H8.32589V4.83203H16.7453V13.2514H15.3259V7.246L5.03556 17.5363Z" fill="#F2F2F2" opacity="0.6" id="msvg-d5vq8pk13mc"/>
  </g>
</svg>
