<svg xmlns="http://www.w3.org/2000/svg" width="327" height="97" viewBox="0 0 327 97" fill="none">
    <g transform="translate(85.01698437499999,72)">
        <path d="M5.03556 17.5363L4.04102 16.5417L14.3313 6.25141H8.32589V4.83203H16.7453V13.2514H15.3259V7.246L5.03556 17.5363Z" fill="#F2F2F2"/>
    </g>
    <path d="M4.09 24L1.67 24L1.67 8.29L4.41 8.29L10.34 17.67Q10.62 18.10 10.98 18.73Q11.34 19.36 11.74 20.13Q12.15 20.91 12.54 21.79L12.54 21.79L12.26 21.90Q12.18 21.07 12.13 20.20Q12.09 19.34 12.07 18.58Q12.06 17.82 12.06 17.32L12.06 17.32L12.06 8.29L14.47 8.29L14.47 24L11.72 24L6.40 15.60Q6.02 14.98 5.62 14.30Q5.21 13.61 4.71 12.70Q4.21 11.80 3.52 10.54L3.52 10.54L3.89 10.44Q3.96 11.61 4.00 12.61Q4.04 13.61 4.07 14.38Q4.09 15.14 4.09 15.59L4.09 15.59L4.09 24ZM21.16 24.24L21.16 24.24Q20.04 24.24 19.15 23.84Q18.25 23.43 17.73 22.64Q17.21 21.85 17.21 20.70L17.21 20.70Q17.21 19.71 17.59 19.07Q17.98 18.43 18.62 18.06Q19.26 17.69 20.07 17.50Q20.88 17.31 21.72 17.22L21.72 17.22Q22.77 17.09 23.40 17.01Q24.04 16.92 24.34 16.74Q24.64 16.56 24.64 16.15L24.64 16.15L24.64 16.09Q24.64 15.45 24.39 15.00Q24.14 14.55 23.63 14.31Q23.12 14.06 22.39 14.06L22.39 14.06Q21.64 14.06 21.09 14.30Q20.54 14.54 20.20 14.91Q19.85 15.29 19.72 15.71L19.72 15.71L17.53 15.28Q17.86 14.21 18.57 13.53Q19.28 12.85 20.27 12.52Q21.25 12.19 22.36 12.19L22.36 12.19Q23.14 12.19 23.95 12.38Q24.76 12.57 25.44 13.02Q26.12 13.47 26.53 14.25Q26.94 15.04 26.94 16.22L26.94 16.22L26.94 24L24.71 24L24.71 22.40L24.61 22.40Q24.38 22.85 23.94 23.27Q23.49 23.69 22.81 23.97Q22.12 24.24 21.16 24.24ZM21.67 22.40L21.67 22.40Q22.63 22.40 23.29 22.03Q23.96 21.66 24.31 21.06Q24.65 20.46 24.65 19.77L24.65 19.77L24.65 18.30Q24.54 18.42 24.20 18.52Q23.86 18.61 23.43 18.69Q23.00 18.77 22.58 18.83Q22.15 18.88 21.84 18.93L21.84 18.93Q21.20 19.01 20.66 19.21Q20.12 19.40 19.80 19.77Q19.47 20.13 19.47 20.73L19.47 20.73Q19.47 21.28 19.75 21.65Q20.03 22.02 20.53 22.21Q21.02 22.40 21.67 22.40ZM28.85 12.36L35.26 12.36L35.26 14.23L28.85 14.23L28.85 12.36ZM30.62 21.08L30.62 9.50L32.93 9.50L32.93 20.87Q32.93 21.55 33.21 21.87Q33.50 22.19 34.18 22.19L34.18 22.19Q34.38 22.19 34.68 22.15Q34.97 22.11 35.18 22.08L35.18 22.08L35.51 23.94Q35.15 24.03 34.74 24.07Q34.33 24.12 33.93 24.12L33.93 24.12Q32.34 24.12 31.48 23.33Q30.62 22.54 30.62 21.08L30.62 21.08ZM39.96 17.14L39.96 17.14L39.96 24L37.65 24L37.65 8.29L39.94 8.29L39.94 15.21L39.58 15.21Q40.09 13.65 41.07 12.92Q42.06 12.19 43.45 12.19L43.45 12.19Q44.64 12.19 45.54 12.69Q46.44 13.20 46.95 14.19Q47.47 15.17 47.47 16.63L47.47 16.63L47.47 24L45.16 24L45.16 16.91Q45.16 15.63 44.50 14.91Q43.84 14.20 42.69 14.20L42.69 14.20Q41.91 14.20 41.29 14.54Q40.66 14.88 40.31 15.53Q39.96 16.18 39.96 17.14ZM53.98 24.24L53.98 24.24Q52.86 24.24 51.96 23.84Q51.07 23.43 50.55 22.64Q50.02 21.85 50.02 20.70L50.02 20.70Q50.02 19.71 50.41 19.07Q50.79 18.43 51.44 18.06Q52.08 17.69 52.89 17.50Q53.69 17.31 54.54 17.22L54.54 17.22Q55.58 17.09 56.22 17.01Q56.86 16.92 57.16 16.74Q57.46 16.56 57.46 16.15L57.46 16.15L57.46 16.09Q57.46 15.45 57.21 15.00Q56.95 14.55 56.45 14.31Q55.94 14.06 55.20 14.06L55.20 14.06Q54.45 14.06 53.90 14.30Q53.36 14.54 53.01 14.91Q52.67 15.29 52.53 15.71L52.53 15.71L50.35 15.28Q50.68 14.21 51.39 13.53Q52.10 12.85 53.08 12.52Q54.06 12.19 55.18 12.19L55.18 12.19Q55.96 12.19 56.77 12.38Q57.57 12.57 58.25 13.02Q58.94 13.47 59.35 14.25Q59.76 15.04 59.76 16.22L59.76 16.22L59.76 24L57.52 24L57.52 22.40L57.43 22.40Q57.19 22.85 56.75 23.27Q56.31 23.69 55.62 23.97Q54.94 24.24 53.98 24.24ZM54.48 22.40L54.48 22.40Q55.44 22.40 56.11 22.03Q56.77 21.66 57.12 21.06Q57.47 20.46 57.47 19.77L57.47 19.77L57.47 18.30Q57.35 18.42 57.02 18.52Q56.68 18.61 56.25 18.69Q55.81 18.77 55.39 18.83Q54.97 18.88 54.65 18.93L54.65 18.93Q54.02 19.01 53.48 19.21Q52.93 19.40 52.61 19.77Q52.29 20.13 52.29 20.73L52.29 20.73Q52.29 21.28 52.57 21.65Q52.85 22.02 53.35 22.21Q53.84 22.40 54.48 22.40ZM65.26 17.14L65.26 17.14L65.26 24L62.95 24L62.95 12.36L65.16 12.36L65.17 15.21L64.88 15.21Q65.39 13.65 66.38 12.92Q67.36 12.19 68.75 12.19L68.75 12.19Q69.94 12.19 70.84 12.69Q71.74 13.20 72.25 14.19Q72.76 15.17 72.76 16.63L72.76 16.63L72.76 24L70.46 24L70.46 16.91Q70.46 15.63 69.80 14.91Q69.14 14.20 67.99 14.20L67.99 14.20Q67.21 14.20 66.59 14.54Q65.96 14.88 65.61 15.53Q65.26 16.18 65.26 17.14ZM84.38 24L81.97 24L81.97 8.29L91.86 8.29L91.86 10.35L84.38 10.35L84.38 15.33L91.17 15.33L91.17 17.38L84.38 17.38L84.38 24ZM96.92 24L94.61 24L94.61 12.36L96.92 12.36L96.92 24ZM95.77 10.53L95.77 10.53Q95.17 10.53 94.75 10.13Q94.33 9.72 94.33 9.15L94.33 9.15Q94.33 8.57 94.75 8.17Q95.17 7.78 95.77 7.78L95.77 7.78Q96.38 7.78 96.80 8.17Q97.22 8.57 97.22 9.15L97.22 9.15Q97.22 9.72 96.80 10.13Q96.38 10.53 95.77 10.53ZM105.13 24.24L105.13 24.24Q103.40 24.24 102.16 23.49Q100.92 22.74 100.25 21.39Q99.58 20.04 99.58 18.24L99.58 18.24Q99.58 16.46 100.24 15.09Q100.91 13.73 102.12 12.96Q103.33 12.19 104.94 12.19L104.94 12.19Q106.00 12.19 106.94 12.54Q107.89 12.88 108.62 13.61Q109.35 14.33 109.78 15.44Q110.20 16.55 110.20 18.08L110.20 18.08L110.20 18.86L100.80 18.86L100.80 17.13L109.01 17.13L107.95 17.69Q107.95 16.63 107.61 15.81Q107.27 14.99 106.60 14.54Q105.93 14.09 104.96 14.09L104.96 14.09Q103.99 14.09 103.29 14.55Q102.60 15.01 102.23 15.78Q101.87 16.55 101.87 17.50L101.87 17.50L101.87 18.63Q101.87 19.80 102.27 20.64Q102.68 21.47 103.42 21.91Q104.16 22.34 105.16 22.34L105.16 22.34Q105.82 22.34 106.36 22.15Q106.90 21.95 107.28 21.57Q107.66 21.19 107.85 20.65L107.85 20.65L110.02 21.05Q109.75 22.00 109.08 22.72Q108.40 23.44 107.40 23.84Q106.39 24.24 105.13 24.24ZM118.65 24L116.16 24L111.75 12.36L114.23 12.36L116.54 18.93Q116.91 19.97 117.19 21.03Q117.47 22.09 117.75 23.12L117.75 23.12L117.10 23.12Q117.40 22.09 117.67 21.04Q117.94 19.98 118.30 18.93L118.30 18.93L120.60 12.36L123.06 12.36L118.65 24ZM130.23 24.24L130.23 24.24Q128.50 24.24 127.25 23.49Q126.01 22.74 125.34 21.39Q124.67 20.04 124.67 18.24L124.67 18.24Q124.67 16.46 125.33 15.09Q126.00 13.73 127.21 12.96Q128.42 12.19 130.04 12.19L130.04 12.19Q131.09 12.19 132.03 12.54Q132.98 12.88 133.71 13.61Q134.44 14.33 134.87 15.44Q135.29 16.55 135.29 18.08L135.29 18.08L135.29 18.86L125.89 18.86L125.89 17.13L134.10 17.13L133.04 17.69Q133.04 16.63 132.70 15.81Q132.36 14.99 131.69 14.54Q131.02 14.09 130.05 14.09L130.05 14.09Q129.08 14.09 128.38 14.55Q127.69 15.01 127.32 15.78Q126.96 16.55 126.96 17.50L126.96 17.50L126.96 18.63Q126.96 19.80 127.36 20.64Q127.77 21.47 128.51 21.91Q129.25 22.34 130.25 22.34L130.25 22.34Q130.91 22.34 131.45 22.15Q131.99 21.95 132.37 21.57Q132.75 21.19 132.94 20.65L132.94 20.65L135.11 21.05Q134.84 22.00 134.17 22.72Q133.49 23.44 132.49 23.84Q131.48 24.24 130.23 24.24ZM136.61 12.36L143.02 12.36L143.02 14.23L136.61 14.23L136.61 12.36ZM138.38 21.08L138.38 9.50L140.69 9.50L140.69 20.87Q140.69 21.55 140.98 21.87Q141.26 22.19 141.95 22.19L141.95 22.19Q142.15 22.19 142.44 22.15Q142.74 22.11 142.95 22.08L142.95 22.08L143.28 23.94Q142.92 24.03 142.51 24.07Q142.10 24.12 141.69 24.12L141.69 24.12Q140.10 24.12 139.24 23.33Q138.38 22.54 138.38 21.08L138.38 21.08Z" fill="#F2F2F2"/>
    <path d="M5.14 52.95L5.14 52.95Q3.90 52.95 2.98 52.53Q2.06 52.11 1.54 51.36Q1.02 50.61 0.97 49.61L0.97 49.61L2.12 49.61Q2.18 50.35 2.57 50.86Q2.97 51.38 3.64 51.65Q4.31 51.92 5.14 51.92L5.14 51.92Q6.04 51.92 6.73 51.62Q7.42 51.32 7.81 50.79Q8.21 50.25 8.21 49.54L8.21 49.54Q8.21 48.96 7.91 48.55Q7.61 48.14 7.05 47.86Q6.49 47.57 5.71 47.34L5.71 47.34L4.31 46.94Q2.81 46.51 2.04 45.76Q1.26 45.01 1.26 43.86L1.26 43.86Q1.26 42.89 1.78 42.15Q2.30 41.41 3.19 40.99Q4.08 40.58 5.20 40.58L5.20 40.58Q6.35 40.58 7.21 41.00Q8.08 41.41 8.58 42.15Q9.09 42.89 9.13 43.84L9.13 43.84L8.02 43.84Q7.93 42.81 7.15 42.20Q6.37 41.60 5.17 41.60L5.17 41.60Q4.35 41.60 3.72 41.89Q3.09 42.17 2.73 42.67Q2.38 43.17 2.38 43.82L2.38 43.82Q2.38 44.41 2.71 44.82Q3.04 45.23 3.58 45.51Q4.13 45.78 4.76 45.97L4.76 45.97L6.04 46.33Q6.68 46.51 7.27 46.77Q7.86 47.03 8.32 47.41Q8.78 47.79 9.05 48.31Q9.32 48.83 9.32 49.55L9.32 49.55Q9.32 50.53 8.81 51.30Q8.31 52.07 7.37 52.51Q6.44 52.95 5.14 52.95ZM11.23 43.86L15.51 43.86L15.51 44.80L11.23 44.80L11.23 43.86ZM12.60 50.75L12.60 41.67L13.68 41.67L13.68 50.67Q13.68 51.31 13.96 51.61Q14.25 51.90 14.84 51.86L14.84 51.86Q14.97 51.85 15.15 51.83Q15.32 51.81 15.46 51.78L15.46 51.78L15.64 52.72Q15.46 52.77 15.25 52.79Q15.03 52.81 14.82 52.82L14.82 52.82Q13.76 52.88 13.18 52.32Q12.60 51.77 12.60 50.75L12.60 50.75ZM21.20 52.88L21.20 52.88Q20.29 52.88 19.59 52.50Q18.89 52.11 18.50 51.38Q18.10 50.64 18.10 49.58L18.10 49.58L18.10 43.86L19.18 43.86L19.18 49.50Q19.18 50.61 19.80 51.25Q20.42 51.89 21.46 51.89L21.46 51.89Q22.16 51.89 22.73 51.59Q23.29 51.29 23.62 50.72Q23.94 50.16 23.94 49.37L23.94 49.37L23.94 43.86L25.02 43.86L25.02 52.75L23.97 52.75L23.97 50.67L24.17 50.67Q23.79 51.84 23.00 52.36Q22.20 52.88 21.20 52.88ZM31.68 52.94L31.68 52.94Q30.58 52.94 29.75 52.36Q28.92 51.78 28.45 50.74Q27.98 49.70 27.98 48.32L27.98 48.32Q27.98 46.95 28.45 45.91Q28.92 44.88 29.75 44.30Q30.59 43.73 31.69 43.73L31.69 43.73Q32.47 43.73 33.02 44.00Q33.57 44.27 33.93 44.69Q34.28 45.11 34.47 45.56L34.47 45.56L34.54 45.56L34.54 40.75L35.62 40.75L35.62 52.75L34.57 52.75L34.57 51.08L34.48 51.08Q34.28 51.53 33.92 51.96Q33.56 52.38 33.01 52.66Q32.46 52.94 31.68 52.94ZM31.83 51.95L31.83 51.95Q32.69 51.95 33.30 51.49Q33.92 51.03 34.25 50.20Q34.57 49.38 34.57 48.31L34.57 48.31Q34.57 47.25 34.25 46.43Q33.92 45.62 33.31 45.16Q32.70 44.71 31.83 44.71L31.83 44.71Q30.96 44.71 30.34 45.17Q29.73 45.64 29.40 46.45Q29.08 47.26 29.08 48.31L29.08 48.31Q29.08 49.36 29.40 50.18Q29.73 51.01 30.35 51.48Q30.96 51.95 31.83 51.95ZM42.65 52.94L42.65 52.94Q41.40 52.94 40.49 52.35Q39.57 51.77 39.08 50.73Q38.58 49.70 38.58 48.35L38.58 48.35Q38.58 47.00 39.08 45.95Q39.57 44.91 40.46 44.32Q41.34 43.73 42.50 43.73L42.50 43.73Q43.27 43.73 43.96 44.00Q44.65 44.28 45.18 44.84Q45.72 45.40 46.02 46.24Q46.33 47.07 46.33 48.18L46.33 48.18L46.33 48.62L39.26 48.62L39.26 47.68L45.74 47.68L45.25 48.03Q45.25 47.06 44.92 46.31Q44.58 45.56 43.97 45.12Q43.35 44.69 42.50 44.69L42.50 44.69Q41.65 44.69 41.01 45.14Q40.38 45.58 40.02 46.32Q39.67 47.05 39.67 47.96L39.67 47.96L39.67 48.48Q39.67 49.53 40.03 50.31Q40.39 51.09 41.07 51.53Q41.74 51.96 42.65 51.96L42.65 51.96Q43.29 51.96 43.77 51.76Q44.26 51.56 44.59 51.21Q44.93 50.86 45.09 50.43L45.09 50.43L46.13 50.69Q45.93 51.30 45.45 51.82Q44.98 52.33 44.26 52.63Q43.55 52.94 42.65 52.94ZM50.33 47.24L50.33 47.24L50.33 52.75L49.25 52.75L49.25 43.86L50.29 43.86L50.30 45.93L50.10 45.93Q50.47 44.77 51.26 44.25Q52.05 43.73 53.08 43.73L53.08 43.73Q53.99 43.73 54.68 44.11Q55.38 44.49 55.78 45.22Q56.17 45.95 56.17 47.02L56.17 47.02L56.17 52.75L55.09 52.75L55.09 47.10Q55.09 45.99 54.47 45.35Q53.85 44.72 52.81 44.72L52.81 44.72Q52.11 44.72 51.55 45.02Q50.98 45.31 50.66 45.88Q50.33 46.44 50.33 47.24ZM58.42 43.86L62.71 43.86L62.71 44.80L58.42 44.80L58.42 43.86ZM59.79 50.75L59.79 41.67L60.87 41.67L60.87 50.67Q60.87 51.31 61.16 51.61Q61.44 51.90 62.04 51.86L62.04 51.86Q62.17 51.85 62.34 51.83Q62.51 51.81 62.66 51.78L62.66 51.78L62.84 52.72Q62.66 52.77 62.44 52.79Q62.22 52.81 62.02 52.82L62.02 52.82Q60.96 52.88 60.38 52.32Q59.79 51.77 59.79 50.75L59.79 50.75ZM69.30 47.17L85.80 47.17L85.80 48.17L69.30 48.17L69.30 47.17ZM100.68 52.75L93.46 52.75L93.46 40.75L100.60 40.75L100.60 41.76L94.58 41.76L94.58 46.18L100.19 46.18L100.19 47.20L94.58 47.20L94.58 51.73L100.68 51.73L100.68 52.75ZM104.89 56.12L103.81 56.12L103.81 43.86L104.86 43.86L104.86 45.56L104.96 45.56Q105.15 45.11 105.50 44.69Q105.86 44.27 106.41 44.00Q106.96 43.73 107.74 43.73L107.74 43.73Q108.85 43.73 109.68 44.30Q110.52 44.88 110.98 45.91Q111.45 46.95 111.45 48.32L111.45 48.32Q111.45 49.70 110.99 50.74Q110.52 51.78 109.69 52.36Q108.86 52.94 107.75 52.94L107.75 52.94Q106.98 52.94 106.43 52.66Q105.88 52.38 105.52 51.96Q105.17 51.53 104.97 51.08L104.97 51.08L104.89 51.08L104.89 56.12ZM107.61 51.95L107.61 51.95Q108.48 51.95 109.09 51.48Q109.70 51.01 110.03 50.18Q110.36 49.36 110.36 48.31L110.36 48.31Q110.36 47.26 110.03 46.45Q109.71 45.64 109.09 45.17Q108.48 44.71 107.61 44.71L107.61 44.71Q106.75 44.71 106.13 45.16Q105.51 45.62 105.19 46.43Q104.87 47.25 104.87 48.31L104.87 48.31Q104.87 49.38 105.19 50.20Q105.51 51.03 106.13 51.49Q106.75 51.95 107.61 51.95ZM115.49 52.75L114.41 52.75L114.41 43.86L115.49 43.86L115.49 52.75ZM114.95 42.15L114.95 42.15Q114.63 42.15 114.39 41.92Q114.16 41.70 114.16 41.38L114.16 41.38Q114.16 41.07 114.39 40.85Q114.63 40.62 114.95 40.62L114.95 40.62Q115.27 40.62 115.51 40.85Q115.74 41.07 115.74 41.38L115.74 41.38Q115.74 41.70 115.51 41.92Q115.27 42.15 114.95 42.15ZM117.74 43.86L122.03 43.86L122.03 44.80L117.74 44.80L117.74 43.86ZM119.11 50.75L119.11 41.67L120.19 41.67L120.19 50.67Q120.19 51.31 120.48 51.61Q120.76 51.90 121.36 51.86L121.36 51.86Q121.49 51.85 121.66 51.83Q121.83 51.81 121.98 51.78L121.98 51.78L122.16 52.72Q121.98 52.77 121.76 52.79Q121.54 52.81 121.33 52.82L121.33 52.82Q120.28 52.88 119.70 52.32Q119.11 51.77 119.11 50.75L119.11 50.75ZM128.21 52.94L128.21 52.94Q126.96 52.94 126.05 52.35Q125.13 51.77 124.64 50.73Q124.14 49.70 124.14 48.35L124.14 48.35Q124.14 47.00 124.64 45.95Q125.13 44.91 126.02 44.32Q126.90 43.73 128.06 43.73L128.06 43.73Q128.83 43.73 129.52 44.00Q130.21 44.28 130.74 44.84Q131.28 45.40 131.59 46.24Q131.89 47.07 131.89 48.18L131.89 48.18L131.89 48.62L124.83 48.62L124.83 47.68L131.30 47.68L130.81 48.03Q130.81 47.06 130.48 46.31Q130.14 45.56 129.53 45.12Q128.91 44.69 128.06 44.69L128.06 44.69Q127.21 44.69 126.57 45.14Q125.94 45.58 125.58 46.32Q125.23 47.05 125.23 47.96L125.23 47.96L125.23 48.48Q125.23 49.53 125.59 50.31Q125.95 51.09 126.63 51.53Q127.30 51.96 128.21 51.96L128.21 51.96Q128.85 51.96 129.33 51.76Q129.82 51.56 130.16 51.21Q130.49 50.86 130.65 50.43L130.65 50.43L131.69 50.69Q131.49 51.30 131.01 51.82Q130.54 52.33 129.83 52.63Q129.11 52.94 128.21 52.94ZM138.29 52.92L138.29 52.92Q137.13 52.92 136.24 52.34Q135.34 51.75 134.84 50.72Q134.34 49.68 134.34 48.33L134.34 48.33Q134.34 46.97 134.84 45.93Q135.34 44.89 136.24 44.31Q137.13 43.73 138.29 43.73L138.29 43.73Q138.99 43.73 139.56 43.93Q140.14 44.13 140.58 44.48Q141.03 44.82 141.33 45.26Q141.63 45.69 141.76 46.16L141.76 46.16L140.72 46.41Q140.64 46.12 140.44 45.82Q140.24 45.52 139.94 45.27Q139.63 45.02 139.22 44.86Q138.81 44.70 138.29 44.70L138.29 44.70Q137.39 44.70 136.75 45.19Q136.11 45.68 135.77 46.49Q135.43 47.31 135.43 48.33L135.43 48.33Q135.43 49.34 135.77 50.16Q136.11 50.98 136.75 51.46Q137.39 51.94 138.29 51.94L138.29 51.94Q138.82 51.94 139.23 51.79Q139.65 51.63 139.96 51.37Q140.27 51.11 140.46 50.80Q140.66 50.49 140.74 50.20L140.74 50.20L141.78 50.45Q141.66 50.91 141.36 51.36Q141.06 51.80 140.60 52.15Q140.15 52.51 139.57 52.71Q138.99 52.92 138.29 52.92ZM145.78 47.24L145.78 47.24L145.78 52.75L144.70 52.75L144.70 40.75L145.78 40.75L145.78 45.93L145.55 45.93Q145.93 44.77 146.71 44.25Q147.50 43.73 148.53 43.73L148.53 43.73Q149.44 43.73 150.13 44.11Q150.83 44.49 151.23 45.22Q151.62 45.95 151.62 47.02L151.62 47.02L151.62 52.75L150.54 52.75L150.54 47.10Q150.54 45.99 149.92 45.35Q149.30 44.72 148.26 44.72L148.26 44.72Q147.56 44.72 147.00 45.02Q146.43 45.31 146.11 45.88Q145.78 46.44 145.78 47.24Z" fill="#F2F2F2" fill-opacity="0.4" />
    <path d="M4.58 90.10L4.58 90.10Q3.65 90.10 2.95 89.85Q2.25 89.61 1.79 89.18Q1.33 88.75 1.10 88.20L1.10 88.20L2.26 87.65Q2.43 87.94 2.70 88.23Q2.98 88.52 3.43 88.72Q3.88 88.91 4.58 88.91L4.58 88.91Q5.61 88.91 6.25 88.41Q6.90 87.91 6.90 86.86L6.90 86.86L6.90 85.26L6.80 85.26Q6.62 85.55 6.33 85.89Q6.04 86.22 5.55 86.45Q5.07 86.67 4.31 86.67L4.31 86.67Q3.28 86.67 2.48 86.18Q1.67 85.69 1.20 84.76Q0.74 83.83 0.74 82.51L0.74 82.51Q0.74 81.21 1.20 80.25Q1.65 79.29 2.46 78.75Q3.28 78.22 4.33 78.22L4.33 78.22Q5.09 78.22 5.58 78.46Q6.06 78.71 6.36 79.05Q6.66 79.39 6.83 79.68L6.83 79.68L6.93 79.68L6.93 78.34L8.25 78.34L8.25 86.93Q8.25 88.04 7.76 88.74Q7.27 89.45 6.43 89.77Q5.60 90.10 4.58 90.10ZM4.53 85.47L4.53 85.47Q5.30 85.47 5.84 85.11Q6.38 84.75 6.65 84.08Q6.93 83.41 6.93 82.49L6.93 82.49Q6.93 81.59 6.66 80.90Q6.38 80.21 5.85 79.82Q5.31 79.43 4.53 79.43L4.53 79.43Q3.75 79.43 3.21 79.83Q2.67 80.23 2.39 80.92Q2.11 81.61 2.11 82.49L2.11 82.49Q2.11 83.39 2.39 84.06Q2.67 84.73 3.21 85.10Q3.76 85.47 4.53 85.47ZM12.22 86.75L10.86 86.75L10.86 78.34L12.22 78.34L12.22 86.75ZM11.54 76.91L11.54 76.91Q11.16 76.91 10.88 76.64Q10.60 76.38 10.60 76.00L10.60 76.00Q10.60 75.63 10.88 75.37Q11.16 75.10 11.54 75.10L11.54 75.10Q11.93 75.10 12.21 75.37Q12.48 75.63 12.48 76.00L12.48 76.00Q12.48 76.38 12.21 76.64Q11.93 76.91 11.54 76.91ZM13.82 78.34L18.22 78.34L18.22 79.50L13.82 79.50L13.82 78.34ZM15.13 84.71L15.13 76.28L16.49 76.28L16.49 84.60Q16.49 85.14 16.72 85.39Q16.94 85.64 17.47 85.64L17.47 85.64Q17.61 85.64 17.81 85.62Q18.01 85.59 18.18 85.57L18.18 85.57L18.40 86.71Q18.19 86.77 17.93 86.80Q17.66 86.83 17.41 86.83L17.41 86.83Q16.32 86.83 15.73 86.28Q15.13 85.72 15.13 84.71L15.13 84.71ZM21.55 81.74L21.55 81.74L21.55 86.75L20.19 86.75L20.19 75.40L21.55 75.40L21.55 80.37L21.27 80.37Q21.66 79.22 22.38 78.72Q23.09 78.22 24.06 78.22L24.06 78.22Q24.91 78.22 25.57 78.57Q26.23 78.93 26.59 79.64Q26.96 80.35 26.96 81.43L26.96 81.43L26.96 86.75L25.60 86.75L25.60 81.54Q25.60 80.55 25.09 80.00Q24.58 79.45 23.69 79.45L23.69 79.45Q23.08 79.45 22.60 79.70Q22.11 79.96 21.83 80.47Q21.55 80.98 21.55 81.74ZM32.48 86.86L32.48 86.86Q31.63 86.86 30.97 86.51Q30.32 86.16 29.95 85.44Q29.58 84.73 29.58 83.66L29.58 83.66L29.58 78.34L30.93 78.34L30.93 83.54Q30.93 84.54 31.45 85.09Q31.96 85.65 32.85 85.65L32.85 85.65Q33.45 85.65 33.94 85.38Q34.42 85.12 34.70 84.61Q34.98 84.10 34.98 83.35L34.98 83.35L34.98 78.34L36.35 78.34L36.35 86.75L35.04 86.75L35.04 84.71L35.26 84.71Q34.86 85.88 34.14 86.37Q33.42 86.86 32.48 86.86ZM42.88 86.93L42.88 86.93Q42.14 86.93 41.65 86.68Q41.16 86.43 40.86 86.09Q40.57 85.74 40.39 85.46L40.39 85.46L40.27 85.46L40.27 86.75L38.96 86.75L38.96 75.40L40.32 75.40L40.32 79.67L40.40 79.67Q40.57 79.38 40.86 79.05Q41.15 78.71 41.63 78.47Q42.11 78.22 42.88 78.22L42.88 78.22Q43.94 78.22 44.75 78.75Q45.55 79.29 46.01 80.26Q46.46 81.24 46.46 82.56L46.46 82.56Q46.46 83.89 46.01 84.87Q45.56 85.85 44.75 86.39Q43.95 86.93 42.88 86.93ZM42.68 85.71L42.68 85.71Q43.45 85.71 43.99 85.30Q44.53 84.89 44.81 84.18Q45.08 83.46 45.08 82.55L45.08 82.55Q45.08 81.65 44.81 80.94Q44.54 80.24 44.00 79.83Q43.46 79.43 42.68 79.43L42.68 79.43Q41.90 79.43 41.37 79.82Q40.83 80.21 40.56 80.92Q40.28 81.62 40.28 82.55L40.28 82.55Q40.28 83.49 40.56 84.20Q40.83 84.91 41.38 85.31Q41.92 85.71 42.68 85.71ZM49.64 86.86L49.64 86.86Q49.22 86.86 48.93 86.56Q48.63 86.26 48.63 85.84L48.63 85.84Q48.63 85.42 48.93 85.13Q49.22 84.83 49.64 84.83L49.64 84.83Q50.07 84.83 50.36 85.13Q50.65 85.42 50.65 85.84L50.65 85.84Q50.65 86.26 50.36 86.56Q50.07 86.86 49.64 86.86ZM56.67 86.93L56.67 86.93Q55.52 86.93 54.65 86.39Q53.79 85.84 53.31 84.86Q52.82 83.88 52.82 82.59L52.82 82.59Q52.82 81.28 53.31 80.29Q53.79 79.31 54.65 78.76Q55.52 78.22 56.67 78.22L56.67 78.22Q57.30 78.22 57.86 78.39Q58.41 78.55 58.86 78.87Q59.31 79.19 59.63 79.65Q59.95 80.10 60.11 80.67L60.11 80.67L58.79 80.96Q58.70 80.63 58.52 80.35Q58.33 80.07 58.06 79.86Q57.80 79.66 57.45 79.54Q57.10 79.43 56.67 79.43L56.67 79.43Q55.84 79.43 55.29 79.86Q54.74 80.29 54.47 81.01Q54.19 81.72 54.19 82.59L54.19 82.59Q54.19 83.44 54.47 84.16Q54.74 84.87 55.29 85.30Q55.83 85.72 56.67 85.72L56.67 85.72Q57.10 85.72 57.45 85.61Q57.80 85.49 58.08 85.28Q58.35 85.07 58.54 84.77Q58.72 84.48 58.81 84.14L58.81 84.14L60.13 84.43Q59.98 85.01 59.66 85.46Q59.34 85.92 58.88 86.25Q58.43 86.58 57.87 86.76Q57.30 86.93 56.67 86.93ZM65.73 86.93L65.73 86.93Q64.58 86.93 63.71 86.39Q62.85 85.84 62.36 84.86Q61.88 83.88 61.88 82.59L61.88 82.59Q61.88 81.28 62.36 80.29Q62.85 79.31 63.71 78.76Q64.58 78.22 65.73 78.22L65.73 78.22Q66.88 78.22 67.74 78.76Q68.61 79.31 69.10 80.29Q69.58 81.28 69.58 82.59L69.58 82.59Q69.58 83.88 69.10 84.86Q68.61 85.84 67.74 86.39Q66.88 86.93 65.73 86.93ZM65.73 85.72L65.73 85.72Q66.56 85.72 67.12 85.30Q67.67 84.87 67.94 84.16Q68.21 83.44 68.21 82.59L68.21 82.59Q68.21 81.73 67.94 81.01Q67.67 80.29 67.12 79.86Q66.56 79.43 65.73 79.43L65.73 79.43Q64.90 79.43 64.35 79.86Q63.80 80.29 63.52 81.01Q63.25 81.72 63.25 82.59L63.25 82.59Q63.25 83.44 63.52 84.16Q63.80 84.87 64.34 85.30Q64.89 85.72 65.73 85.72ZM73.14 86.75L71.78 86.75L71.78 78.34L73.10 78.34L73.11 80.18L72.99 80.18Q73.18 79.51 73.55 79.07Q73.93 78.63 74.44 78.41Q74.94 78.19 75.49 78.19L75.49 78.19Q76.42 78.19 77.01 78.75Q77.61 79.32 77.78 80.20L77.78 80.20L77.57 80.20Q77.73 79.59 78.13 79.14Q78.52 78.68 79.09 78.44Q79.66 78.19 80.34 78.19L80.34 78.19Q81.07 78.19 81.68 78.51Q82.29 78.83 82.66 79.48Q83.02 80.12 83.02 81.11L83.02 81.11L83.02 86.75L81.66 86.75L81.66 81.14Q81.66 80.21 81.14 79.82Q80.63 79.42 79.94 79.42L79.94 79.42Q79.36 79.42 78.95 79.66Q78.53 79.90 78.30 80.32Q78.07 80.75 78.07 81.29L78.07 81.29L78.07 86.75L76.73 86.75L76.73 81.01Q76.73 80.29 76.25 79.86Q75.77 79.42 75.05 79.42L75.05 79.42Q74.55 79.42 74.11 79.65Q73.67 79.89 73.40 80.35Q73.14 80.81 73.14 81.49L73.14 81.49L73.14 86.75Z" fill="#F2F2F2"/>
</svg>
