<svg xmlns="http://www.w3.org/2000/svg" width="327" height="97" viewBox="0 0 327 97" fill="none">
    <g transform="translate(85.01698437499999,72)">
        <path d="M5.03556 17.5363L4.04102 16.5417L14.3313 6.25141H8.32589V4.83203H16.7453V13.2514H15.3259V7.246L5.03556 17.5363Z" fill="#F2F2F2"/>
    </g>
    <path d="M8.25 24.22L8.25 24.22Q6.19 24.22 4.58 23.24Q2.97 22.26 2.05 20.45Q1.12 18.64 1.12 16.15L1.12 16.15Q1.12 13.65 2.05 11.84Q2.97 10.03 4.58 9.04Q6.19 8.06 8.25 8.06L8.25 8.06Q10.29 8.06 11.90 9.04Q13.51 10.03 14.43 11.84Q15.36 13.65 15.36 16.15L15.36 16.15Q15.36 18.64 14.43 20.45Q13.51 22.26 11.90 23.24Q10.29 24.22 8.25 24.22ZM8.25 22.04L8.25 22.04Q9.59 22.04 10.66 21.36Q11.73 20.69 12.35 19.37Q12.97 18.05 12.97 16.15L12.97 16.15Q12.97 14.23 12.35 12.92Q11.73 11.60 10.66 10.92Q9.59 10.25 8.25 10.25L8.25 10.25Q6.90 10.25 5.82 10.93Q4.75 11.61 4.12 12.93Q3.49 14.24 3.49 16.15L3.49 16.15Q3.49 18.05 4.12 19.36Q4.75 20.68 5.82 21.36Q6.90 22.04 8.25 22.04ZM22.40 24.25L22.40 24.25Q21.11 24.25 20.11 23.87Q19.11 23.49 18.47 22.75Q17.84 22.01 17.65 20.93L17.65 20.93L19.84 20.57Q20.05 21.49 20.70 21.94Q21.35 22.39 22.40 22.39L22.40 22.39Q23.50 22.39 24.16 21.93Q24.81 21.47 24.81 20.81L24.81 20.81Q24.81 20.25 24.39 19.88Q23.98 19.52 23.17 19.34L23.17 19.34L21.20 18.91Q19.58 18.54 18.78 17.73Q17.98 16.92 17.98 15.66L17.98 15.66Q17.98 14.61 18.55 13.83Q19.13 13.05 20.14 12.62Q21.15 12.19 22.47 12.19L22.47 12.19Q23.75 12.19 24.67 12.57Q25.59 12.96 26.16 13.65Q26.72 14.35 26.92 15.28L26.92 15.28L24.82 15.64Q24.65 14.97 24.09 14.49Q23.54 14.00 22.50 14.00L22.50 14.00Q21.54 14.00 20.91 14.43Q20.29 14.87 20.29 15.54L20.29 15.54Q20.29 16.12 20.72 16.48Q21.15 16.84 22.07 17.05L22.07 17.05L23.96 17.47Q25.60 17.84 26.39 18.62Q27.17 19.40 27.17 20.64L27.17 20.64Q27.17 21.70 26.56 22.52Q25.95 23.34 24.87 23.79Q23.80 24.25 22.40 24.25ZM34.01 24.25L34.01 24.25Q32.73 24.25 31.72 23.87Q30.72 23.49 30.09 22.75Q29.46 22.01 29.27 20.93L29.27 20.93L31.46 20.57Q31.67 21.49 32.32 21.94Q32.97 22.39 34.01 22.39L34.01 22.39Q35.12 22.39 35.77 21.93Q36.43 21.47 36.43 20.81L36.43 20.81Q36.43 20.25 36.01 19.88Q35.60 19.52 34.78 19.34L34.78 19.34L32.82 18.91Q31.20 18.54 30.40 17.73Q29.59 16.92 29.59 15.66L29.59 15.66Q29.59 14.61 30.17 13.83Q30.74 13.05 31.76 12.62Q32.77 12.19 34.09 12.19L34.09 12.19Q35.36 12.19 36.29 12.57Q37.21 12.96 37.77 13.65Q38.34 14.35 38.54 15.28L38.54 15.28L36.44 15.64Q36.27 14.97 35.71 14.49Q35.15 14.00 34.12 14.00L34.12 14.00Q33.16 14.00 32.53 14.43Q31.90 14.87 31.90 15.54L31.90 15.54Q31.90 16.12 32.34 16.48Q32.77 16.84 33.69 17.05L33.69 17.05L35.57 17.47Q37.22 17.84 38.01 18.62Q38.79 19.40 38.79 20.64L38.79 20.64Q38.79 21.70 38.18 22.52Q37.57 23.34 36.49 23.79Q35.42 24.25 34.01 24.25ZM44.73 24.24L44.73 24.24Q43.62 24.24 42.72 23.84Q41.82 23.43 41.30 22.64Q40.78 21.85 40.78 20.70L40.78 20.70Q40.78 19.71 41.16 19.07Q41.55 18.43 42.19 18.06Q42.84 17.69 43.64 17.50Q44.45 17.31 45.29 17.22L45.29 17.22Q46.34 17.09 46.98 17.01Q47.61 16.92 47.91 16.74Q48.21 16.56 48.21 16.15L48.21 16.15L48.21 16.09Q48.21 15.45 47.96 15.00Q47.71 14.55 47.20 14.31Q46.70 14.06 45.96 14.06L45.96 14.06Q45.21 14.06 44.66 14.30Q44.11 14.54 43.77 14.91Q43.43 15.29 43.29 15.71L43.29 15.71L41.11 15.28Q41.43 14.21 42.14 13.53Q42.86 12.85 43.84 12.52Q44.82 12.19 45.94 12.19L45.94 12.19Q46.72 12.19 47.52 12.38Q48.33 12.57 49.01 13.02Q49.69 13.47 50.10 14.25Q50.51 15.04 50.51 16.22L50.51 16.22L50.51 24L48.28 24L48.28 22.40L48.18 22.40Q47.95 22.85 47.51 23.27Q47.06 23.69 46.38 23.97Q45.69 24.24 44.73 24.24ZM45.24 22.40L45.24 22.40Q46.20 22.40 46.86 22.03Q47.53 21.66 47.88 21.06Q48.22 20.46 48.22 19.77L48.22 19.77L48.22 18.30Q48.11 18.42 47.77 18.52Q47.43 18.61 47.00 18.69Q46.57 18.77 46.15 18.83Q45.73 18.88 45.41 18.93L45.41 18.93Q44.78 19.01 44.23 19.21Q43.69 19.40 43.37 19.77Q43.05 20.13 43.05 20.73L43.05 20.73Q43.05 21.28 43.33 21.65Q43.61 22.02 44.10 22.21Q44.60 22.40 45.24 22.40ZM56.01 17.14L56.01 17.14L56.01 24L53.70 24L53.70 12.36L55.92 12.36L55.93 15.21L55.63 15.21Q56.15 13.65 57.13 12.92Q58.11 12.19 59.50 12.19L59.50 12.19Q60.70 12.19 61.60 12.69Q62.50 13.20 63.01 14.19Q63.51 15.17 63.51 16.63L63.51 16.63L63.51 24L61.21 24L61.21 16.91Q61.21 15.63 60.55 14.91Q59.89 14.20 58.75 14.20L58.75 14.20Q57.96 14.20 57.34 14.54Q56.72 14.88 56.37 15.53Q56.01 16.18 56.01 17.14ZM75.07 24L72.73 24L72.73 8.29L76.22 8.29L79.68 17.34Q79.82 17.74 80.01 18.34Q80.20 18.95 80.40 19.64Q80.60 20.34 80.78 21.00Q80.97 21.67 81.09 22.19L81.09 22.19L80.58 22.19Q80.71 21.69 80.89 21.03Q81.07 20.37 81.27 19.68Q81.47 18.98 81.66 18.36Q81.85 17.75 82.00 17.34L82.00 17.34L85.40 8.29L88.90 8.29L88.90 24L86.53 24L86.53 15.52Q86.53 15.02 86.54 14.36Q86.55 13.70 86.57 12.96Q86.59 12.22 86.60 11.47Q86.62 10.71 86.63 10.01L86.63 10.01L86.84 10.01Q86.61 10.80 86.36 11.59Q86.11 12.39 85.88 13.13Q85.64 13.88 85.43 14.49Q85.22 15.11 85.07 15.52L85.07 15.52L81.83 24L79.80 24L76.53 15.52Q76.37 15.12 76.16 14.51Q75.96 13.91 75.72 13.17Q75.48 12.43 75.22 11.62Q74.97 10.82 74.71 10.01L74.71 10.01L74.97 10.01Q74.98 10.67 74.99 11.41Q75.01 12.15 75.02 12.89Q75.04 13.64 75.06 14.32Q75.07 15.00 75.07 15.52L75.07 15.52L75.07 24ZM96.50 24.25L96.50 24.25Q95.21 24.25 94.21 23.87Q93.21 23.49 92.57 22.75Q91.94 22.01 91.75 20.93L91.75 20.93L93.94 20.57Q94.16 21.49 94.80 21.94Q95.45 22.39 96.50 22.39L96.50 22.39Q97.60 22.39 98.26 21.93Q98.91 21.47 98.91 20.81L98.91 20.81Q98.91 20.25 98.50 19.88Q98.08 19.52 97.27 19.34L97.27 19.34L95.31 18.91Q93.68 18.54 92.88 17.73Q92.08 16.92 92.08 15.66L92.08 15.66Q92.08 14.61 92.65 13.83Q93.23 13.05 94.24 12.62Q95.25 12.19 96.57 12.19L96.57 12.19Q97.85 12.19 98.77 12.57Q99.69 12.96 100.26 13.65Q100.82 14.35 101.02 15.28L101.02 15.28L98.92 15.64Q98.75 14.97 98.20 14.49Q97.64 14.00 96.60 14.00L96.60 14.00Q95.64 14.00 95.02 14.43Q94.39 14.87 94.39 15.54L94.39 15.54Q94.39 16.12 94.82 16.48Q95.25 16.84 96.17 17.05L96.17 17.05L98.06 17.47Q99.70 17.84 100.49 18.62Q101.27 19.40 101.27 20.64L101.27 20.64Q101.27 21.70 100.66 22.52Q100.05 23.34 98.98 23.79Q97.90 24.25 96.50 24.25ZM108.82 24.24L108.82 24.24Q107.18 24.24 105.95 23.49Q104.72 22.73 104.04 21.38Q103.36 20.02 103.36 18.23L103.36 18.23Q103.36 16.42 104.04 15.06Q104.72 13.70 105.95 12.94Q107.18 12.19 108.82 12.19L108.82 12.19Q110.48 12.19 111.71 12.94Q112.93 13.70 113.61 15.06Q114.29 16.42 114.29 18.23L114.29 18.23Q114.29 20.02 113.61 21.38Q112.93 22.73 111.71 23.49Q110.48 24.24 108.82 24.24ZM108.82 22.29L108.82 22.29Q109.87 22.29 110.57 21.75Q111.27 21.21 111.62 20.28Q111.96 19.36 111.96 18.23L111.96 18.23Q111.96 17.08 111.62 16.16Q111.27 15.24 110.57 14.69Q109.87 14.14 108.82 14.14L108.82 14.14Q107.78 14.14 107.09 14.69Q106.40 15.24 106.05 16.16Q105.70 17.08 105.70 18.23L105.70 18.23Q105.70 19.36 106.05 20.28Q106.40 21.21 107.09 21.75Q107.78 22.29 108.82 22.29ZM119.26 24L116.95 24L116.95 12.36L119.26 12.36L119.26 24ZM118.11 10.53L118.11 10.53Q117.51 10.53 117.08 10.13Q116.66 9.72 116.66 9.15L116.66 9.15Q116.66 8.57 117.08 8.17Q117.51 7.78 118.11 7.78L118.11 7.78Q118.71 7.78 119.13 8.17Q119.55 8.57 119.55 9.15L119.55 9.15Q119.55 9.72 119.13 10.13Q118.71 10.53 118.11 10.53ZM122.45 8.29L124.76 8.29L124.76 24L122.45 24L122.45 8.29ZM130.26 24L127.95 24L127.95 12.36L130.26 12.36L130.26 24ZM129.11 10.53L129.11 10.53Q128.51 10.53 128.08 10.13Q127.66 9.72 127.66 9.15L127.66 9.15Q127.66 8.57 128.08 8.17Q128.51 7.78 129.11 7.78L129.11 7.78Q129.71 7.78 130.13 8.17Q130.55 8.57 130.55 9.15L130.55 9.15Q130.55 9.72 130.13 10.13Q129.71 10.53 129.11 10.53Z" fill="#F2F2F2"/>
    <path d="M5.14 52.95L5.14 52.95Q3.90 52.95 2.98 52.53Q2.06 52.11 1.54 51.36Q1.02 50.61 0.97 49.61L0.97 49.61L2.12 49.61Q2.18 50.35 2.57 50.86Q2.97 51.38 3.64 51.65Q4.31 51.92 5.14 51.92L5.14 51.92Q6.04 51.92 6.73 51.62Q7.42 51.32 7.81 50.79Q8.21 50.25 8.21 49.54L8.21 49.54Q8.21 48.96 7.91 48.55Q7.61 48.14 7.05 47.86Q6.49 47.57 5.71 47.34L5.71 47.34L4.31 46.94Q2.81 46.51 2.04 45.76Q1.26 45.01 1.26 43.86L1.26 43.86Q1.26 42.89 1.78 42.15Q2.30 41.41 3.19 40.99Q4.08 40.58 5.20 40.58L5.20 40.58Q6.35 40.58 7.21 41.00Q8.08 41.41 8.58 42.15Q9.09 42.89 9.13 43.84L9.13 43.84L8.02 43.84Q7.93 42.81 7.15 42.20Q6.37 41.60 5.17 41.60L5.17 41.60Q4.35 41.60 3.72 41.89Q3.09 42.17 2.73 42.67Q2.38 43.17 2.38 43.82L2.38 43.82Q2.38 44.41 2.71 44.82Q3.04 45.23 3.58 45.51Q4.13 45.78 4.76 45.97L4.76 45.97L6.04 46.33Q6.68 46.51 7.27 46.77Q7.86 47.03 8.32 47.41Q8.78 47.79 9.05 48.31Q9.32 48.83 9.32 49.55L9.32 49.55Q9.32 50.53 8.81 51.30Q8.31 52.07 7.37 52.51Q6.44 52.95 5.14 52.95ZM11.23 43.86L15.51 43.86L15.51 44.80L11.23 44.80L11.23 43.86ZM12.60 50.75L12.60 41.67L13.68 41.67L13.68 50.67Q13.68 51.31 13.96 51.61Q14.25 51.90 14.84 51.86L14.84 51.86Q14.97 51.85 15.15 51.83Q15.32 51.81 15.46 51.78L15.46 51.78L15.64 52.72Q15.46 52.77 15.25 52.79Q15.03 52.81 14.82 52.82L14.82 52.82Q13.76 52.88 13.18 52.32Q12.60 51.77 12.60 50.75L12.60 50.75ZM21.20 52.88L21.20 52.88Q20.29 52.88 19.59 52.50Q18.89 52.11 18.50 51.38Q18.10 50.64 18.10 49.58L18.10 49.58L18.10 43.86L19.18 43.86L19.18 49.50Q19.18 50.61 19.80 51.25Q20.42 51.89 21.46 51.89L21.46 51.89Q22.16 51.89 22.73 51.59Q23.29 51.29 23.62 50.72Q23.94 50.16 23.94 49.37L23.94 49.37L23.94 43.86L25.02 43.86L25.02 52.75L23.97 52.75L23.97 50.67L24.17 50.67Q23.79 51.84 23.00 52.36Q22.20 52.88 21.20 52.88ZM31.68 52.94L31.68 52.94Q30.58 52.94 29.75 52.36Q28.92 51.78 28.45 50.74Q27.98 49.70 27.98 48.32L27.98 48.32Q27.98 46.95 28.45 45.91Q28.92 44.88 29.75 44.30Q30.59 43.73 31.69 43.73L31.69 43.73Q32.47 43.73 33.02 44.00Q33.57 44.27 33.93 44.69Q34.28 45.11 34.47 45.56L34.47 45.56L34.54 45.56L34.54 40.75L35.62 40.75L35.62 52.75L34.57 52.75L34.57 51.08L34.48 51.08Q34.28 51.53 33.92 51.96Q33.56 52.38 33.01 52.66Q32.46 52.94 31.68 52.94ZM31.83 51.95L31.83 51.95Q32.69 51.95 33.30 51.49Q33.92 51.03 34.25 50.20Q34.57 49.38 34.57 48.31L34.57 48.31Q34.57 47.25 34.25 46.43Q33.92 45.62 33.31 45.16Q32.70 44.71 31.83 44.71L31.83 44.71Q30.96 44.71 30.34 45.17Q29.73 45.64 29.40 46.45Q29.08 47.26 29.08 48.31L29.08 48.31Q29.08 49.36 29.40 50.18Q29.73 51.01 30.35 51.48Q30.96 51.95 31.83 51.95ZM42.65 52.94L42.65 52.94Q41.40 52.94 40.49 52.35Q39.57 51.77 39.08 50.73Q38.58 49.70 38.58 48.35L38.58 48.35Q38.58 47.00 39.08 45.95Q39.57 44.91 40.46 44.32Q41.34 43.73 42.50 43.73L42.50 43.73Q43.27 43.73 43.96 44.00Q44.65 44.28 45.18 44.84Q45.72 45.40 46.02 46.24Q46.33 47.07 46.33 48.18L46.33 48.18L46.33 48.62L39.26 48.62L39.26 47.68L45.74 47.68L45.25 48.03Q45.25 47.06 44.92 46.31Q44.58 45.56 43.97 45.12Q43.35 44.69 42.50 44.69L42.50 44.69Q41.65 44.69 41.01 45.14Q40.38 45.58 40.02 46.32Q39.67 47.05 39.67 47.96L39.67 47.96L39.67 48.48Q39.67 49.53 40.03 50.31Q40.39 51.09 41.07 51.53Q41.74 51.96 42.65 51.96L42.65 51.96Q43.29 51.96 43.77 51.76Q44.26 51.56 44.59 51.21Q44.93 50.86 45.09 50.43L45.09 50.43L46.13 50.69Q45.93 51.30 45.45 51.82Q44.98 52.33 44.26 52.63Q43.55 52.94 42.65 52.94ZM50.33 47.24L50.33 47.24L50.33 52.75L49.25 52.75L49.25 43.86L50.29 43.86L50.30 45.93L50.10 45.93Q50.47 44.77 51.26 44.25Q52.05 43.73 53.08 43.73L53.08 43.73Q53.99 43.73 54.68 44.11Q55.38 44.49 55.78 45.22Q56.17 45.95 56.17 47.02L56.17 47.02L56.17 52.75L55.09 52.75L55.09 47.10Q55.09 45.99 54.47 45.35Q53.85 44.72 52.81 44.72L52.81 44.72Q52.11 44.72 51.55 45.02Q50.98 45.31 50.66 45.88Q50.33 46.44 50.33 47.24ZM58.42 43.86L62.71 43.86L62.71 44.80L58.42 44.80L58.42 43.86ZM59.79 50.75L59.79 41.67L60.87 41.67L60.87 50.67Q60.87 51.31 61.16 51.61Q61.44 51.90 62.04 51.86L62.04 51.86Q62.17 51.85 62.34 51.83Q62.51 51.81 62.66 51.78L62.66 51.78L62.84 52.72Q62.66 52.77 62.44 52.79Q62.22 52.81 62.02 52.82L62.02 52.82Q60.96 52.88 60.38 52.32Q59.79 51.77 59.79 50.75L59.79 50.75ZM69.30 47.17L85.80 47.17L85.80 48.17L69.30 48.17L69.30 47.17ZM100.68 52.75L93.46 52.75L93.46 40.75L100.60 40.75L100.60 41.76L94.58 41.76L94.58 46.18L100.19 46.18L100.19 47.20L94.58 47.20L94.58 51.73L100.68 51.73L100.68 52.75ZM104.89 56.12L103.81 56.12L103.81 43.86L104.86 43.86L104.86 45.56L104.96 45.56Q105.15 45.11 105.50 44.69Q105.86 44.27 106.41 44.00Q106.96 43.73 107.74 43.73L107.74 43.73Q108.85 43.73 109.68 44.30Q110.52 44.88 110.98 45.91Q111.45 46.95 111.45 48.32L111.45 48.32Q111.45 49.70 110.99 50.74Q110.52 51.78 109.69 52.36Q108.86 52.94 107.75 52.94L107.75 52.94Q106.98 52.94 106.43 52.66Q105.88 52.38 105.52 51.96Q105.17 51.53 104.97 51.08L104.97 51.08L104.89 51.08L104.89 56.12ZM107.61 51.95L107.61 51.95Q108.48 51.95 109.09 51.48Q109.70 51.01 110.03 50.18Q110.36 49.36 110.36 48.31L110.36 48.31Q110.36 47.26 110.03 46.45Q109.71 45.64 109.09 45.17Q108.48 44.71 107.61 44.71L107.61 44.71Q106.75 44.71 106.13 45.16Q105.51 45.62 105.19 46.43Q104.87 47.25 104.87 48.31L104.87 48.31Q104.87 49.38 105.19 50.20Q105.51 51.03 106.13 51.49Q106.75 51.95 107.61 51.95ZM115.49 52.75L114.41 52.75L114.41 43.86L115.49 43.86L115.49 52.75ZM114.95 42.15L114.95 42.15Q114.63 42.15 114.39 41.92Q114.16 41.70 114.16 41.38L114.16 41.38Q114.16 41.07 114.39 40.85Q114.63 40.62 114.95 40.62L114.95 40.62Q115.27 40.62 115.51 40.85Q115.74 41.07 115.74 41.38L115.74 41.38Q115.74 41.70 115.51 41.92Q115.27 42.15 114.95 42.15ZM117.74 43.86L122.03 43.86L122.03 44.80L117.74 44.80L117.74 43.86ZM119.11 50.75L119.11 41.67L120.19 41.67L120.19 50.67Q120.19 51.31 120.48 51.61Q120.76 51.90 121.36 51.86L121.36 51.86Q121.49 51.85 121.66 51.83Q121.83 51.81 121.98 51.78L121.98 51.78L122.16 52.72Q121.98 52.77 121.76 52.79Q121.54 52.81 121.33 52.82L121.33 52.82Q120.28 52.88 119.70 52.32Q119.11 51.77 119.11 50.75L119.11 50.75ZM128.21 52.94L128.21 52.94Q126.96 52.94 126.05 52.35Q125.13 51.77 124.64 50.73Q124.14 49.70 124.14 48.35L124.14 48.35Q124.14 47.00 124.64 45.95Q125.13 44.91 126.02 44.32Q126.90 43.73 128.06 43.73L128.06 43.73Q128.83 43.73 129.52 44.00Q130.21 44.28 130.74 44.84Q131.28 45.40 131.59 46.24Q131.89 47.07 131.89 48.18L131.89 48.18L131.89 48.62L124.83 48.62L124.83 47.68L131.30 47.68L130.81 48.03Q130.81 47.06 130.48 46.31Q130.14 45.56 129.53 45.12Q128.91 44.69 128.06 44.69L128.06 44.69Q127.21 44.69 126.57 45.14Q125.94 45.58 125.58 46.32Q125.23 47.05 125.23 47.96L125.23 47.96L125.23 48.48Q125.23 49.53 125.59 50.31Q125.95 51.09 126.63 51.53Q127.30 51.96 128.21 51.96L128.21 51.96Q128.85 51.96 129.33 51.76Q129.82 51.56 130.16 51.21Q130.49 50.86 130.65 50.43L130.65 50.43L131.69 50.69Q131.49 51.30 131.01 51.82Q130.54 52.33 129.83 52.63Q129.11 52.94 128.21 52.94ZM138.29 52.92L138.29 52.92Q137.13 52.92 136.24 52.34Q135.34 51.75 134.84 50.72Q134.34 49.68 134.34 48.33L134.34 48.33Q134.34 46.97 134.84 45.93Q135.34 44.89 136.24 44.31Q137.13 43.73 138.29 43.73L138.29 43.73Q138.99 43.73 139.56 43.93Q140.14 44.13 140.58 44.48Q141.03 44.82 141.33 45.26Q141.63 45.69 141.76 46.16L141.76 46.16L140.72 46.41Q140.64 46.12 140.44 45.82Q140.24 45.52 139.94 45.27Q139.63 45.02 139.22 44.86Q138.81 44.70 138.29 44.70L138.29 44.70Q137.39 44.70 136.75 45.19Q136.11 45.68 135.77 46.49Q135.43 47.31 135.43 48.33L135.43 48.33Q135.43 49.34 135.77 50.16Q136.11 50.98 136.75 51.46Q137.39 51.94 138.29 51.94L138.29 51.94Q138.82 51.94 139.23 51.79Q139.65 51.63 139.96 51.37Q140.27 51.11 140.46 50.80Q140.66 50.49 140.74 50.20L140.74 50.20L141.78 50.45Q141.66 50.91 141.36 51.36Q141.06 51.80 140.60 52.15Q140.15 52.51 139.57 52.71Q138.99 52.92 138.29 52.92ZM145.78 47.24L145.78 47.24L145.78 52.75L144.70 52.75L144.70 40.75L145.78 40.75L145.78 45.93L145.55 45.93Q145.93 44.77 146.71 44.25Q147.50 43.73 148.53 43.73L148.53 43.73Q149.44 43.73 150.13 44.11Q150.83 44.49 151.23 45.22Q151.62 45.95 151.62 47.02L151.62 47.02L151.62 52.75L150.54 52.75L150.54 47.10Q150.54 45.99 149.92 45.35Q149.30 44.72 148.26 44.72L148.26 44.72Q147.56 44.72 147.00 45.02Q146.43 45.31 146.11 45.88Q145.78 46.44 145.78 47.24Z" fill="#F2F2F2" fill-opacity="0.4" />
    <path d="M4.58 90.10L4.58 90.10Q3.65 90.10 2.95 89.85Q2.25 89.61 1.79 89.18Q1.33 88.75 1.10 88.20L1.10 88.20L2.26 87.65Q2.43 87.94 2.70 88.23Q2.98 88.52 3.43 88.72Q3.88 88.91 4.58 88.91L4.58 88.91Q5.61 88.91 6.25 88.41Q6.90 87.91 6.90 86.86L6.90 86.86L6.90 85.26L6.80 85.26Q6.62 85.55 6.33 85.89Q6.04 86.22 5.55 86.45Q5.07 86.67 4.31 86.67L4.31 86.67Q3.28 86.67 2.48 86.18Q1.67 85.69 1.20 84.76Q0.74 83.83 0.74 82.51L0.74 82.51Q0.74 81.21 1.20 80.25Q1.65 79.29 2.46 78.75Q3.28 78.22 4.33 78.22L4.33 78.22Q5.09 78.22 5.58 78.46Q6.06 78.71 6.36 79.05Q6.66 79.39 6.83 79.68L6.83 79.68L6.93 79.68L6.93 78.34L8.25 78.34L8.25 86.93Q8.25 88.04 7.76 88.74Q7.27 89.45 6.43 89.77Q5.60 90.10 4.58 90.10ZM4.53 85.47L4.53 85.47Q5.30 85.47 5.84 85.11Q6.38 84.75 6.65 84.08Q6.93 83.41 6.93 82.49L6.93 82.49Q6.93 81.59 6.66 80.90Q6.38 80.21 5.85 79.82Q5.31 79.43 4.53 79.43L4.53 79.43Q3.75 79.43 3.21 79.83Q2.67 80.23 2.39 80.92Q2.11 81.61 2.11 82.49L2.11 82.49Q2.11 83.39 2.39 84.06Q2.67 84.73 3.21 85.10Q3.76 85.47 4.53 85.47ZM12.22 86.75L10.86 86.75L10.86 78.34L12.22 78.34L12.22 86.75ZM11.54 76.91L11.54 76.91Q11.16 76.91 10.88 76.64Q10.60 76.38 10.60 76.00L10.60 76.00Q10.60 75.63 10.88 75.37Q11.16 75.10 11.54 75.10L11.54 75.10Q11.93 75.10 12.21 75.37Q12.48 75.63 12.48 76.00L12.48 76.00Q12.48 76.38 12.21 76.64Q11.93 76.91 11.54 76.91ZM13.82 78.34L18.22 78.34L18.22 79.50L13.82 79.50L13.82 78.34ZM15.13 84.71L15.13 76.28L16.49 76.28L16.49 84.60Q16.49 85.14 16.72 85.39Q16.94 85.64 17.47 85.64L17.47 85.64Q17.61 85.64 17.81 85.62Q18.01 85.59 18.18 85.57L18.18 85.57L18.40 86.71Q18.19 86.77 17.93 86.80Q17.66 86.83 17.41 86.83L17.41 86.83Q16.32 86.83 15.73 86.28Q15.13 85.72 15.13 84.71L15.13 84.71ZM21.55 81.74L21.55 81.74L21.55 86.75L20.19 86.75L20.19 75.40L21.55 75.40L21.55 80.37L21.27 80.37Q21.66 79.22 22.38 78.72Q23.09 78.22 24.06 78.22L24.06 78.22Q24.91 78.22 25.57 78.57Q26.23 78.93 26.59 79.64Q26.96 80.35 26.96 81.43L26.96 81.43L26.96 86.75L25.60 86.75L25.60 81.54Q25.60 80.55 25.09 80.00Q24.58 79.45 23.69 79.45L23.69 79.45Q23.08 79.45 22.60 79.70Q22.11 79.96 21.83 80.47Q21.55 80.98 21.55 81.74ZM32.48 86.86L32.48 86.86Q31.63 86.86 30.97 86.51Q30.32 86.16 29.95 85.44Q29.58 84.73 29.58 83.66L29.58 83.66L29.58 78.34L30.93 78.34L30.93 83.54Q30.93 84.54 31.45 85.09Q31.96 85.65 32.85 85.65L32.85 85.65Q33.45 85.65 33.94 85.38Q34.42 85.12 34.70 84.61Q34.98 84.10 34.98 83.35L34.98 83.35L34.98 78.34L36.35 78.34L36.35 86.75L35.04 86.75L35.04 84.71L35.26 84.71Q34.86 85.88 34.14 86.37Q33.42 86.86 32.48 86.86ZM42.88 86.93L42.88 86.93Q42.14 86.93 41.65 86.68Q41.16 86.43 40.86 86.09Q40.57 85.74 40.39 85.46L40.39 85.46L40.27 85.46L40.27 86.75L38.96 86.75L38.96 75.40L40.32 75.40L40.32 79.67L40.40 79.67Q40.57 79.38 40.86 79.05Q41.15 78.71 41.63 78.47Q42.11 78.22 42.88 78.22L42.88 78.22Q43.94 78.22 44.75 78.75Q45.55 79.29 46.01 80.26Q46.46 81.24 46.46 82.56L46.46 82.56Q46.46 83.89 46.01 84.87Q45.56 85.85 44.75 86.39Q43.95 86.93 42.88 86.93ZM42.68 85.71L42.68 85.71Q43.45 85.71 43.99 85.30Q44.53 84.89 44.81 84.18Q45.08 83.46 45.08 82.55L45.08 82.55Q45.08 81.65 44.81 80.94Q44.54 80.24 44.00 79.83Q43.46 79.43 42.68 79.43L42.68 79.43Q41.90 79.43 41.37 79.82Q40.83 80.21 40.56 80.92Q40.28 81.62 40.28 82.55L40.28 82.55Q40.28 83.49 40.56 84.20Q40.83 84.91 41.38 85.31Q41.92 85.71 42.68 85.71ZM49.64 86.86L49.64 86.86Q49.22 86.86 48.93 86.56Q48.63 86.26 48.63 85.84L48.63 85.84Q48.63 85.42 48.93 85.13Q49.22 84.83 49.64 84.83L49.64 84.83Q50.07 84.83 50.36 85.13Q50.65 85.42 50.65 85.84L50.65 85.84Q50.65 86.26 50.36 86.56Q50.07 86.86 49.64 86.86ZM56.67 86.93L56.67 86.93Q55.52 86.93 54.65 86.39Q53.79 85.84 53.31 84.86Q52.82 83.88 52.82 82.59L52.82 82.59Q52.82 81.28 53.31 80.29Q53.79 79.31 54.65 78.76Q55.52 78.22 56.67 78.22L56.67 78.22Q57.30 78.22 57.86 78.39Q58.41 78.55 58.86 78.87Q59.31 79.19 59.63 79.65Q59.95 80.10 60.11 80.67L60.11 80.67L58.79 80.96Q58.70 80.63 58.52 80.35Q58.33 80.07 58.06 79.86Q57.80 79.66 57.45 79.54Q57.10 79.43 56.67 79.43L56.67 79.43Q55.84 79.43 55.29 79.86Q54.74 80.29 54.47 81.01Q54.19 81.72 54.19 82.59L54.19 82.59Q54.19 83.44 54.47 84.16Q54.74 84.87 55.29 85.30Q55.83 85.72 56.67 85.72L56.67 85.72Q57.10 85.72 57.45 85.61Q57.80 85.49 58.08 85.28Q58.35 85.07 58.54 84.77Q58.72 84.48 58.81 84.14L58.81 84.14L60.13 84.43Q59.98 85.01 59.66 85.46Q59.34 85.92 58.88 86.25Q58.43 86.58 57.87 86.76Q57.30 86.93 56.67 86.93ZM65.73 86.93L65.73 86.93Q64.58 86.93 63.71 86.39Q62.85 85.84 62.36 84.86Q61.88 83.88 61.88 82.59L61.88 82.59Q61.88 81.28 62.36 80.29Q62.85 79.31 63.71 78.76Q64.58 78.22 65.73 78.22L65.73 78.22Q66.88 78.22 67.74 78.76Q68.61 79.31 69.10 80.29Q69.58 81.28 69.58 82.59L69.58 82.59Q69.58 83.88 69.10 84.86Q68.61 85.84 67.74 86.39Q66.88 86.93 65.73 86.93ZM65.73 85.72L65.73 85.72Q66.56 85.72 67.12 85.30Q67.67 84.87 67.94 84.16Q68.21 83.44 68.21 82.59L68.21 82.59Q68.21 81.73 67.94 81.01Q67.67 80.29 67.12 79.86Q66.56 79.43 65.73 79.43L65.73 79.43Q64.90 79.43 64.35 79.86Q63.80 80.29 63.52 81.01Q63.25 81.72 63.25 82.59L63.25 82.59Q63.25 83.44 63.52 84.16Q63.80 84.87 64.34 85.30Q64.89 85.72 65.73 85.72ZM73.14 86.75L71.78 86.75L71.78 78.34L73.10 78.34L73.11 80.18L72.99 80.18Q73.18 79.51 73.55 79.07Q73.93 78.63 74.44 78.41Q74.94 78.19 75.49 78.19L75.49 78.19Q76.42 78.19 77.01 78.75Q77.61 79.32 77.78 80.20L77.78 80.20L77.57 80.20Q77.73 79.59 78.13 79.14Q78.52 78.68 79.09 78.44Q79.66 78.19 80.34 78.19L80.34 78.19Q81.07 78.19 81.68 78.51Q82.29 78.83 82.66 79.48Q83.02 80.12 83.02 81.11L83.02 81.11L83.02 86.75L81.66 86.75L81.66 81.14Q81.66 80.21 81.14 79.82Q80.63 79.42 79.94 79.42L79.94 79.42Q79.36 79.42 78.95 79.66Q78.53 79.90 78.30 80.32Q78.07 80.75 78.07 81.29L78.07 81.29L78.07 86.75L76.73 86.75L76.73 81.01Q76.73 80.29 76.25 79.86Q75.77 79.42 75.05 79.42L75.05 79.42Q74.55 79.42 74.11 79.65Q73.67 79.89 73.40 80.35Q73.14 80.81 73.14 81.49L73.14 81.49L73.14 86.75Z" fill="#F2F2F2"/>
</svg>
