<!--
By
 ███▄ ▄███▓ ▄▄▄       ██▓     ██▓     ▒█████   █     █░
▓██▒▀█▀ ██▒▒████▄    ▓██▒    ▓██▒    ▒██▒  ██▒▓█░ █ ░█░
▓██    ▓██░▒██  ▀█▄  ▒██░    ▒██░    ▒██░  ██▒▒█░ █ ░█ 
▒██    ▒██ ░██▄▄▄▄██ ▒██░    ▒██░    ▒██   ██░░█░ █ ░█ 
▒██▒   ░██▒ ▓█   ▓██▒░██████▒░██████▒░ ████▓▒░░░██▒██▓ 
░ ▒░   ░  ░ ▒▒   ▓▒█░░ ▒░▓  ░░ ▒░▓  ░░ ▒░▒░▒░ ░ ▓░▒ ▒  
░  ░      ░  ▒   ▒▒ ░░ ░ ▒  ░░ ░ ▒  ░  ░ ▒ ▒░   ▒ ░ ░  
░      ░     ░   ▒     ░ ░     ░ ░   ░ ░ ░ ▒    ░   ░  
       ░         ░  ░    ░  ░    ░  ░    ░ ░      ░    
Generated on 8/28/2025

The MIT License (MIT)

Copyright (c) Mallory SCOTTON

Permission is hereby granted, free of charge, to any person obtaining a copy
of this software and associated documentation files (the "Software"), to deal
in the Software without restriction, including without limitation the rights
to use, copy, modify, merge, publish, distribute, sublicense, and/or sell
copies of the Software, and to permit persons to whom the Software is
furnished to do so, subject to the following conditions:

The above copyright notice and this permission notice shall be included in
all copies or substantial portions of the Software.

THE SOFTWARE IS PROVIDED "AS IS", WITHOUT WARRANTY OF ANY KIND, EXPRESS OR
IMPLIED, INCLUDING BUT NOT LIMITED TO THE WARRANTIES OF MERCHANTABILITY,
FITNESS FOR A PARTICULAR PURPOSE AND NONINFRINGEMENT. IN NO EVENT SHALL THE
AUTHORS OR COPYRIGHT HOLDERS BE LIABLE FOR ANY CLAIM, DAMAGES OR OTHER
LIABILITY, WHETHER IN AN ACTION OF CONTRACT, TORT OR OTHERWISE, ARISING FROM,
OUT OF OR IN CONNECTION WITH THE SOFTWARE OR THE USE OR OTHER DEALINGS IN
THE SOFTWARE.

-->
<svg xmlns="http://www.w3.org/2000/svg" width="327" height="97" viewBox="0 0 327 97" fill="none">
  <path d="M4.07 0L1.67 0L1.67-15.71L7.38-15.71Q9.17-15.71 10.38-15.09Q11.60-14.47 12.22-13.36Q12.84-12.24 12.84-10.79L12.84-10.79Q12.84-9.32 12.20-8.23Q11.57-7.14 10.35-6.54Q9.12-5.94 7.33-5.94L7.33-5.94L3.05-5.94L3.05-7.98L7.16-7.98Q8.29-7.98 9.01-8.32Q9.72-8.65 10.07-9.28Q10.42-9.91 10.42-10.79L10.42-10.79Q10.42-11.68 10.07-12.32Q9.72-12.96 9.00-13.31Q8.28-13.66 7.14-13.66L7.14-13.66L4.07-13.66L4.07 0ZM13.35 0L10.63 0L6.84-7.10L9.49-7.10L13.35 0ZM18.98 0.24L18.98 0.24Q17.86 0.24 16.96-0.16Q16.07-0.57 15.55-1.36Q15.02-2.15 15.02-3.30L15.02-3.30Q15.02-4.29 15.41-4.93Q15.79-5.57 16.44-5.94Q17.08-6.31 17.89-6.50Q18.69-6.69 19.54-6.78L19.54-6.78Q20.58-6.91 21.22-6.99Q21.86-7.08 22.16-7.26Q22.46-7.44 22.46-7.85L22.46-7.85L22.46-7.91Q22.46-8.55 22.21-9.00Q21.95-9.45 21.45-9.69Q20.94-9.94 20.20-9.94L20.20-9.94Q19.45-9.94 18.91-9.70Q18.36-9.46 18.01-9.09Q17.67-8.71 17.53-8.29L17.53-8.29L15.35-8.72Q15.68-9.79 16.39-10.47Q17.10-11.15 18.08-11.48Q19.06-11.81 20.18-11.81L20.18-11.81Q20.96-11.81 21.77-11.62Q22.58-11.43 23.26-10.98Q23.94-10.53 24.35-9.75Q24.76-8.96 24.76-7.78L24.76-7.78L24.76 0L22.52 0L22.52-1.60L22.43-1.60Q22.20-1.15 21.75-0.73Q21.31-0.31 20.62-0.03Q19.94 0.24 18.98 0.24ZM19.49-1.60L19.49-1.60Q20.44-1.60 21.11-1.97Q21.77-2.34 22.12-2.94Q22.47-3.54 22.47-4.23L22.47-4.23L22.47-5.70Q22.35-5.58 22.02-5.48Q21.68-5.39 21.25-5.31Q20.81-5.23 20.39-5.17Q19.97-5.12 19.65-5.07L19.65-5.07Q19.02-4.99 18.48-4.79Q17.93-4.60 17.61-4.23Q17.29-3.87 17.29-3.27L17.29-3.27Q17.29-2.72 17.57-2.35Q17.85-1.98 18.35-1.79Q18.84-1.60 19.49-1.60ZM30.26 4.41L27.95 4.41L27.95-11.64L30.20-11.64L30.20-9.80L30.35-9.80Q30.60-10.22 31.00-10.68Q31.41-11.15 32.08-11.48Q32.75-11.81 33.76-11.81L33.76-11.81Q35.19-11.81 36.30-11.09Q37.40-10.37 38.03-9.02Q38.66-7.68 38.66-5.80L38.66-5.80Q38.66-3.93 38.04-2.58Q37.41-1.23 36.31-0.50Q35.21 0.23 33.76 0.23L33.76 0.23Q32.77 0.23 32.10-0.10Q31.44-0.43 31.02-0.90Q30.61-1.37 30.36-1.80L30.36-1.80L30.26-1.80L30.26 4.41ZM33.26-1.73L33.26-1.73Q34.25-1.73 34.93-2.26Q35.62-2.78 35.97-3.71Q36.32-4.63 36.32-5.81L36.32-5.81Q36.32-7.00 35.97-7.91Q35.62-8.82 34.94-9.33Q34.26-9.85 33.26-9.85L33.26-9.85Q32.27-9.85 31.59-9.34Q30.90-8.84 30.55-7.94Q30.20-7.03 30.20-5.81L30.20-5.81Q30.20-4.60 30.55-3.68Q30.91-2.76 31.60-2.25Q32.29-1.73 33.26-1.73ZM43.63-6.86L43.63-6.86L43.63 0L41.32 0L41.32-15.71L43.61-15.71L43.61-8.79L43.25-8.79Q43.76-10.35 44.74-11.08Q45.73-11.81 47.12-11.81L47.12-11.81Q48.31-11.81 49.21-11.31Q50.11-10.80 50.62-9.81Q51.14-8.83 51.14-7.37L51.14-7.37L51.14 0L48.83 0L48.83-7.09Q48.83-8.37 48.17-9.09Q47.51-9.80 46.36-9.80L46.36-9.80Q45.58-9.80 44.96-9.46Q44.33-9.12 43.98-8.47Q43.63-7.82 43.63-6.86ZM57.65 0.24L57.65 0.24Q56.53 0.24 55.63-0.16Q54.74-0.57 54.22-1.36Q53.69-2.15 53.69-3.30L53.69-3.30Q53.69-4.29 54.08-4.93Q54.46-5.57 55.11-5.94Q55.75-6.31 56.56-6.50Q57.36-6.69 58.21-6.78L58.21-6.78Q59.25-6.91 59.89-6.99Q60.53-7.08 60.83-7.26Q61.13-7.44 61.13-7.85L61.13-7.85L61.13-7.91Q61.13-8.55 60.88-9.00Q60.62-9.45 60.12-9.69Q59.61-9.94 58.87-9.94L58.87-9.94Q58.12-9.94 57.57-9.70Q57.03-9.46 56.68-9.09Q56.34-8.71 56.20-8.29L56.20-8.29L54.02-8.72Q54.35-9.79 55.06-10.47Q55.77-11.15 56.75-11.48Q57.73-11.81 58.85-11.81L58.85-11.81Q59.63-11.81 60.44-11.62Q61.24-11.43 61.93-10.98Q62.61-10.53 63.02-9.75Q63.43-8.96 63.43-7.78L63.43-7.78L63.43 0L61.19 0L61.19-1.60L61.10-1.60Q60.87-1.15 60.42-0.73Q59.98-0.31 59.29-0.03Q58.61 0.24 57.65 0.24ZM58.15-1.60L58.15-1.60Q59.11-1.60 59.78-1.97Q60.44-2.34 60.79-2.94Q61.14-3.54 61.14-4.23L61.14-4.23L61.14-5.70Q61.02-5.58 60.69-5.48Q60.35-5.39 59.92-5.31Q59.48-5.23 59.06-5.17Q58.64-5.12 58.32-5.07L58.32-5.07Q57.69-4.99 57.15-4.79Q56.60-4.60 56.28-4.23Q55.96-3.87 55.96-3.27L55.96-3.27Q55.96-2.72 56.24-2.35Q56.52-1.98 57.02-1.79Q57.51-1.60 58.15-1.60ZM71.64 0.24L71.64 0.24Q69.91 0.24 68.66-0.51Q67.42-1.26 66.75-2.61Q66.08-3.96 66.08-5.76L66.08-5.76Q66.08-7.54 66.74-8.91Q67.41-10.27 68.62-11.04Q69.84-11.81 71.45-11.81L71.45-11.81Q72.50-11.81 73.45-11.46Q74.39-11.12 75.12-10.39Q75.86-9.67 76.28-8.56Q76.70-7.45 76.70-5.92L76.70-5.92L76.70-5.14L67.30-5.14L67.30-6.87L75.51-6.87L74.45-6.31Q74.45-7.37 74.11-8.19Q73.77-9.01 73.10-9.46Q72.43-9.91 71.46-9.91L71.46-9.91Q70.49-9.91 69.80-9.45Q69.11-8.99 68.74-8.22Q68.37-7.45 68.37-6.50L68.37-6.50L68.37-5.37Q68.37-4.20 68.78-3.36Q69.18-2.53 69.92-2.09Q70.67-1.66 71.66-1.66L71.66-1.66Q72.32-1.66 72.86-1.85Q73.40-2.05 73.78-2.43Q74.16-2.81 74.35-3.35L74.35-3.35L76.52-2.95Q76.26-2.00 75.58-1.28Q74.91-0.56 73.90-0.16Q72.89 0.24 71.64 0.24ZM73.68-13.50L73.68-13.50Q73.12-13.50 72.71-13.90Q72.31-14.29 72.31-14.85L72.31-14.85Q72.31-15.41 72.71-15.80Q73.12-16.19 73.68-16.19L73.68-16.19Q74.24-16.19 74.64-15.80Q75.05-15.41 75.05-14.85L75.05-14.85Q75.05-14.29 74.64-13.90Q74.24-13.50 73.68-13.50ZM69.17-13.50L69.17-13.50Q68.60-13.50 68.20-13.90Q67.80-14.29 67.80-14.85L67.80-14.85Q67.80-15.41 68.20-15.80Q68.60-16.19 69.17-16.19L69.17-16.19Q69.73-16.19 70.13-15.80Q70.53-15.41 70.53-14.85L70.53-14.85Q70.53-14.29 70.13-13.90Q69.73-13.50 69.17-13.50ZM79.31-15.71L81.62-15.71L81.62 0L79.31 0L79.31-15.71ZM97.41 0.22L97.41 0.22Q95.35 0.22 93.74-0.76Q92.14-1.74 91.21-3.55Q90.28-5.36 90.28-7.85L90.28-7.85Q90.28-10.35 91.21-12.16Q92.14-13.97 93.74-14.96Q95.35-15.94 97.41-15.94L97.41-15.94Q99.46-15.94 101.06-14.96Q102.67-13.97 103.59-12.16Q104.52-10.35 104.52-7.85L104.52-7.85Q104.52-5.36 103.59-3.55Q102.67-1.74 101.06-0.76Q99.46 0.22 97.41 0.22ZM97.41-1.96L97.41-1.96Q98.75-1.96 99.82-2.64Q100.89-3.31 101.51-4.63Q102.13-5.95 102.13-7.85L102.13-7.85Q102.13-9.77 101.51-11.08Q100.89-12.40 99.82-13.08Q98.75-13.75 97.41-13.75L97.41-13.75Q96.06-13.75 94.98-13.07Q93.91-12.39 93.28-11.07Q92.65-9.76 92.65-7.85L92.65-7.85Q92.65-5.95 93.28-4.64Q93.91-3.32 94.98-2.64Q96.06-1.96 97.41-1.96ZM111.56 0.25L111.56 0.25Q110.27 0.25 109.27-0.13Q108.27-0.51 107.63-1.25Q107.00-1.99 106.81-3.07L106.81-3.07L109.01-3.43Q109.22-2.51 109.86-2.06Q110.51-1.61 111.56-1.61L111.56-1.61Q112.67-1.61 113.32-2.07Q113.97-2.53 113.97-3.19L113.97-3.19Q113.97-3.75 113.56-4.12Q113.14-4.48 112.33-4.66L112.33-4.66L110.37-5.09Q108.74-5.46 107.94-6.27Q107.14-7.08 107.14-8.34L107.14-8.34Q107.14-9.39 107.71-10.17Q108.29-10.95 109.30-11.38Q110.31-11.81 111.63-11.81L111.63-11.81Q112.91-11.81 113.83-11.43Q114.75-11.04 115.32-10.35Q115.88-9.65 116.08-8.72L116.08-8.72L113.98-8.36Q113.81-9.03 113.26-9.51Q112.70-10.00 111.66-10.00L111.66-10.00Q110.70-10.00 110.08-9.57Q109.45-9.13 109.45-8.46L109.45-8.46Q109.45-7.88 109.88-7.52Q110.31-7.16 111.23-6.95L111.23-6.95L113.12-6.53Q114.76-6.16 115.55-5.38Q116.34-4.60 116.34-3.36L116.34-3.36Q116.34-2.30 115.72-1.48Q115.11-0.66 114.04-0.21Q112.96 0.25 111.56 0.25ZM117.67-11.64L124.08-11.64L124.08-9.77L117.67-9.77L117.67-11.64ZM119.44-2.92L119.44-14.50L121.75-14.50L121.75-3.13Q121.75-2.45 122.04-2.13Q122.32-1.81 123.01-1.81L123.01-1.81Q123.21-1.81 123.50-1.85Q123.80-1.89 124.01-1.92L124.01-1.92L124.33-0.06Q123.98 0.03 123.57 0.07Q123.15 0.12 122.75 0.12L122.75 0.12Q121.16 0.12 120.30-0.67Q119.44-1.46 119.44-2.92L119.44-2.92ZM128.78 0L126.47 0L126.47-11.64L128.78-11.64L128.78 0ZM127.63-13.47L127.63-13.47Q127.03-13.47 126.61-13.87Q126.19-14.28 126.19-14.85L126.19-14.85Q126.19-15.43 126.61-15.83Q127.03-16.22 127.63-16.22L127.63-16.22Q128.23-16.22 128.65-15.83Q129.08-15.43 129.08-14.85L129.08-14.85Q129.08-14.28 128.65-13.87Q128.23-13.47 127.63-13.47ZM136.99 0.24L136.99 0.24Q135.26 0.24 134.02-0.51Q132.77-1.26 132.10-2.61Q131.43-3.96 131.43-5.76L131.43-5.76Q131.43-7.54 132.10-8.91Q132.76-10.27 133.97-11.04Q135.19-11.81 136.80-11.81L136.80-11.81Q137.86-11.81 138.80-11.46Q139.74-11.12 140.48-10.39Q141.21-9.67 141.63-8.56Q142.05-7.45 142.05-5.92L142.05-5.92L142.05-5.14L132.66-5.14L132.66-6.87L140.86-6.87L139.81-6.31Q139.81-7.37 139.46-8.19Q139.12-9.01 138.45-9.46Q137.78-9.91 136.81-9.91L136.81-9.91Q135.84-9.91 135.15-9.45Q134.46-8.99 134.09-8.22Q133.72-7.45 133.72-6.50L133.72-6.50L133.72-5.37Q133.72-4.20 134.13-3.36Q134.53-2.53 135.28-2.09Q136.02-1.66 137.01-1.66L137.01-1.66Q137.68-1.66 138.21-1.85Q138.75-2.05 139.13-2.43Q139.51-2.81 139.70-3.35L139.70-3.35L141.87-2.95Q141.61-2.00 140.94-1.28Q140.26-0.56 139.25-0.16Q138.25 0.24 136.99 0.24ZM146.97 0L144.66 0L144.66-11.64L146.89-11.64L146.89-9.78L146.99-9.78Q147.32-10.73 148.10-11.26Q148.87-11.80 149.92-11.80L149.92-11.80Q150.15-11.80 150.42-11.79Q150.69-11.77 150.87-11.75L150.87-11.75L150.87-9.57Q150.74-9.60 150.39-9.64Q150.03-9.68 149.65-9.68L149.65-9.68Q148.89-9.68 148.28-9.36Q147.67-9.03 147.32-8.43Q146.97-7.84 146.97-7.03L146.97-7.03L146.97 0Z" fill="#F2F2F2" opacity="1" id="msvg-tj4iuf12s4h" style="transform: translate(0px, 23.8px)"/>
  <path d="M5.14 0.20L5.14 0.20Q3.90 0.20 2.98-0.22Q2.06-0.64 1.54-1.39Q1.02-2.14 0.97-3.14L0.97-3.14L2.12-3.14Q2.18-2.40 2.57-1.89Q2.97-1.37 3.64-1.10Q4.31-0.83 5.14-0.83L5.14-0.83Q6.04-0.83 6.73-1.13Q7.42-1.43 7.81-1.96Q8.21-2.50 8.21-3.21L8.21-3.21Q8.21-3.79 7.91-4.20Q7.61-4.61 7.05-4.89Q6.49-5.18 5.71-5.41L5.71-5.41L4.31-5.81Q2.81-6.24 2.04-6.99Q1.26-7.74 1.26-8.89L1.26-8.89Q1.26-9.86 1.78-10.60Q2.30-11.34 3.19-11.76Q4.08-12.17 5.20-12.17L5.20-12.17Q6.35-12.17 7.21-11.75Q8.08-11.34 8.58-10.60Q9.09-9.86 9.13-8.91L9.13-8.91L8.02-8.91Q7.93-9.94 7.15-10.55Q6.37-11.15 5.17-11.15L5.17-11.15Q4.35-11.15 3.72-10.86Q3.09-10.58 2.73-10.08Q2.38-9.58 2.38-8.93L2.38-8.93Q2.38-8.34 2.71-7.93Q3.04-7.52 3.58-7.24Q4.13-6.97 4.76-6.78L4.76-6.78L6.04-6.42Q6.68-6.24 7.27-5.98Q7.86-5.72 8.32-5.34Q8.78-4.96 9.05-4.44Q9.32-3.92 9.32-3.20L9.32-3.20Q9.32-2.22 8.81-1.45Q8.31-0.68 7.37-0.24Q6.44 0.20 5.14 0.20ZM11.23-8.89L15.51-8.89L15.51-7.95L11.23-7.95L11.23-8.89ZM12.60-2.00L12.60-11.08L13.68-11.08L13.68-2.08Q13.68-1.44 13.96-1.14Q14.25-0.85 14.84-0.89L14.84-0.89Q14.97-0.90 15.15-0.92Q15.32-0.94 15.46-0.97L15.46-0.97L15.64-0.03Q15.46 0.02 15.25 0.04Q15.03 0.06 14.82 0.07L14.82 0.07Q13.76 0.13 13.18-0.43Q12.60-0.98 12.60-2.00L12.60-2.00ZM21.20 0.13L21.20 0.13Q20.29 0.13 19.59-0.25Q18.89-0.64 18.50-1.37Q18.10-2.11 18.10-3.17L18.10-3.17L18.10-8.89L19.18-8.89L19.18-3.25Q19.18-2.14 19.80-1.50Q20.42-0.86 21.46-0.86L21.46-0.86Q22.16-0.86 22.73-1.16Q23.29-1.46 23.62-2.03Q23.94-2.59 23.94-3.38L23.94-3.38L23.94-8.89L25.02-8.89L25.02 0L23.97 0L23.97-2.08L24.17-2.08Q23.79-0.91 23.00-0.39Q22.20 0.13 21.20 0.13ZM31.68 0.19L31.68 0.19Q30.58 0.19 29.75-0.39Q28.92-0.97 28.45-2.01Q27.98-3.05 27.98-4.43L27.98-4.43Q27.98-5.80 28.45-6.84Q28.92-7.87 29.75-8.45Q30.59-9.02 31.69-9.02L31.69-9.02Q32.47-9.02 33.02-8.75Q33.57-8.48 33.93-8.06Q34.28-7.64 34.47-7.19L34.47-7.19L34.54-7.19L34.54-12.00L35.62-12.00L35.62 0L34.57 0L34.57-1.67L34.48-1.67Q34.28-1.22 33.92-0.79Q33.56-0.37 33.01-0.09Q32.46 0.19 31.68 0.19ZM31.83-0.80L31.83-0.80Q32.69-0.80 33.30-1.26Q33.92-1.72 34.25-2.55Q34.57-3.37 34.57-4.44L34.57-4.44Q34.57-5.50 34.25-6.32Q33.92-7.13 33.31-7.59Q32.70-8.04 31.83-8.04L31.83-8.04Q30.96-8.04 30.34-7.58Q29.73-7.11 29.40-6.30Q29.08-5.49 29.08-4.44L29.08-4.44Q29.08-3.39 29.40-2.57Q29.73-1.74 30.35-1.27Q30.96-0.80 31.83-0.80ZM42.65 0.19L42.65 0.19Q41.40 0.19 40.49-0.40Q39.57-0.98 39.08-2.02Q38.58-3.05 38.58-4.40L38.58-4.40Q38.58-5.75 39.08-6.80Q39.57-7.84 40.46-8.43Q41.34-9.02 42.50-9.02L42.50-9.02Q43.27-9.02 43.96-8.75Q44.65-8.47 45.18-7.91Q45.72-7.35 46.02-6.51Q46.33-5.68 46.33-4.57L46.33-4.57L46.33-4.13L39.26-4.13L39.26-5.07L45.74-5.07L45.25-4.72Q45.25-5.69 44.92-6.44Q44.58-7.19 43.97-7.63Q43.35-8.06 42.50-8.06L42.50-8.06Q41.65-8.06 41.01-7.61Q40.38-7.17 40.02-6.43Q39.67-5.70 39.67-4.79L39.67-4.79L39.67-4.27Q39.67-3.22 40.03-2.44Q40.39-1.66 41.07-1.22Q41.74-0.79 42.65-0.79L42.65-0.79Q43.29-0.79 43.77-0.99Q44.26-1.19 44.59-1.54Q44.93-1.89 45.09-2.32L45.09-2.32L46.13-2.06Q45.93-1.45 45.45-0.93Q44.98-0.42 44.26-0.12Q43.55 0.19 42.65 0.19ZM50.33-5.51L50.33-5.51L50.33 0L49.25 0L49.25-8.89L50.29-8.89L50.30-6.82L50.10-6.82Q50.47-7.98 51.26-8.50Q52.05-9.02 53.08-9.02L53.08-9.02Q53.99-9.02 54.68-8.64Q55.38-8.26 55.78-7.53Q56.17-6.80 56.17-5.73L56.17-5.73L56.17 0L55.09 0L55.09-5.65Q55.09-6.76 54.47-7.40Q53.85-8.03 52.81-8.03L52.81-8.03Q52.11-8.03 51.55-7.73Q50.98-7.44 50.66-6.87Q50.33-6.31 50.33-5.51ZM58.42-8.89L62.71-8.89L62.71-7.95L58.42-7.95L58.42-8.89ZM59.79-2.00L59.79-11.08L60.87-11.08L60.87-2.08Q60.87-1.44 61.16-1.14Q61.44-0.85 62.04-0.89L62.04-0.89Q62.17-0.90 62.34-0.92Q62.51-0.94 62.66-0.97L62.66-0.97L62.84-0.03Q62.66 0.02 62.44 0.04Q62.22 0.06 62.02 0.07L62.02 0.07Q60.96 0.13 60.38-0.43Q59.79-0.98 59.79-2.00L59.79-2.00ZM69.30-5.58L85.80-5.58L85.80-4.58L69.30-4.58L69.30-5.58ZM100.68 0L93.46 0L93.46-12.00L100.60-12.00L100.60-10.99L94.58-10.99L94.58-6.57L100.19-6.57L100.19-5.55L94.58-5.55L94.58-1.02L100.68-1.02L100.68 0ZM104.89 3.37L103.81 3.37L103.81-8.89L104.86-8.89L104.86-7.19L104.96-7.19Q105.15-7.64 105.50-8.06Q105.86-8.48 106.41-8.75Q106.96-9.02 107.74-9.02L107.74-9.02Q108.85-9.02 109.68-8.45Q110.52-7.87 110.98-6.84Q111.45-5.80 111.45-4.43L111.45-4.43Q111.45-3.05 110.99-2.01Q110.52-0.97 109.69-0.39Q108.86 0.19 107.75 0.19L107.75 0.19Q106.98 0.19 106.43-0.09Q105.88-0.37 105.52-0.79Q105.17-1.22 104.97-1.67L104.97-1.67L104.89-1.67L104.89 3.37ZM107.61-0.80L107.61-0.80Q108.48-0.80 109.09-1.27Q109.70-1.74 110.03-2.57Q110.36-3.39 110.36-4.44L110.36-4.44Q110.36-5.49 110.03-6.30Q109.71-7.11 109.09-7.58Q108.48-8.04 107.61-8.04L107.61-8.04Q106.75-8.04 106.13-7.59Q105.51-7.13 105.19-6.32Q104.87-5.50 104.87-4.44L104.87-4.44Q104.87-3.37 105.19-2.55Q105.51-1.72 106.13-1.26Q106.75-0.80 107.61-0.80ZM115.49 0L114.41 0L114.41-8.89L115.49-8.89L115.49 0ZM114.95-10.60L114.95-10.60Q114.63-10.60 114.39-10.83Q114.16-11.05 114.16-11.37L114.16-11.37Q114.16-11.68 114.39-11.90Q114.63-12.13 114.95-12.13L114.95-12.13Q115.27-12.13 115.51-11.90Q115.74-11.68 115.74-11.37L115.74-11.37Q115.74-11.05 115.51-10.83Q115.27-10.60 114.95-10.60ZM117.74-8.89L122.03-8.89L122.03-7.95L117.74-7.95L117.74-8.89ZM119.11-2.00L119.11-11.08L120.19-11.08L120.19-2.08Q120.19-1.44 120.48-1.14Q120.76-0.85 121.36-0.89L121.36-0.89Q121.49-0.90 121.66-0.92Q121.83-0.94 121.98-0.97L121.98-0.97L122.16-0.03Q121.98 0.02 121.76 0.04Q121.54 0.06 121.33 0.07L121.33 0.07Q120.28 0.13 119.70-0.43Q119.11-0.98 119.11-2.00L119.11-2.00ZM128.21 0.19L128.21 0.19Q126.96 0.19 126.05-0.40Q125.13-0.98 124.64-2.02Q124.14-3.05 124.14-4.40L124.14-4.40Q124.14-5.75 124.64-6.80Q125.13-7.84 126.02-8.43Q126.90-9.02 128.06-9.02L128.06-9.02Q128.83-9.02 129.52-8.75Q130.21-8.47 130.74-7.91Q131.28-7.35 131.59-6.51Q131.89-5.68 131.89-4.57L131.89-4.57L131.89-4.13L124.83-4.13L124.83-5.07L131.30-5.07L130.81-4.72Q130.81-5.69 130.48-6.44Q130.14-7.19 129.53-7.63Q128.91-8.06 128.06-8.06L128.06-8.06Q127.21-8.06 126.57-7.61Q125.94-7.17 125.58-6.43Q125.23-5.70 125.23-4.79L125.23-4.79L125.23-4.27Q125.23-3.22 125.59-2.44Q125.95-1.66 126.63-1.22Q127.30-0.79 128.21-0.79L128.21-0.79Q128.85-0.79 129.33-0.99Q129.82-1.19 130.16-1.54Q130.49-1.89 130.65-2.32L130.65-2.32L131.69-2.06Q131.49-1.45 131.01-0.93Q130.54-0.42 129.83-0.12Q129.11 0.19 128.21 0.19ZM138.29 0.17L138.29 0.17Q137.13 0.17 136.24-0.41Q135.34-1.00 134.84-2.03Q134.34-3.07 134.34-4.42L134.34-4.42Q134.34-5.78 134.84-6.82Q135.34-7.86 136.24-8.44Q137.13-9.02 138.29-9.02L138.29-9.02Q138.99-9.02 139.56-8.82Q140.14-8.62 140.58-8.27Q141.03-7.93 141.33-7.49Q141.63-7.06 141.76-6.59L141.76-6.59L140.72-6.34Q140.64-6.63 140.44-6.93Q140.24-7.23 139.94-7.48Q139.63-7.73 139.22-7.89Q138.81-8.05 138.29-8.05L138.29-8.05Q137.39-8.05 136.75-7.56Q136.11-7.07 135.77-6.26Q135.43-5.44 135.43-4.42L135.43-4.42Q135.43-3.41 135.77-2.59Q136.11-1.77 136.75-1.29Q137.39-0.81 138.29-0.81L138.29-0.81Q138.82-0.81 139.23-0.96Q139.65-1.12 139.96-1.38Q140.27-1.64 140.46-1.95Q140.66-2.26 140.74-2.55L140.74-2.55L141.78-2.30Q141.66-1.84 141.36-1.39Q141.06-0.95 140.60-0.60Q140.15-0.24 139.57-0.04Q138.99 0.17 138.29 0.17ZM145.78-5.51L145.78-5.51L145.78 0L144.70 0L144.70-12.00L145.78-12.00L145.78-6.82L145.55-6.82Q145.93-7.98 146.71-8.50Q147.50-9.02 148.53-9.02L148.53-9.02Q149.44-9.02 150.13-8.64Q150.83-8.26 151.23-7.53Q151.62-6.80 151.62-5.73L151.62-5.73L151.62 0L150.54 0L150.54-5.65Q150.54-6.76 149.92-7.40Q149.30-8.03 148.26-8.03L148.26-8.03Q147.56-8.03 147.00-7.73Q146.43-7.44 146.11-6.87Q145.78-6.31 145.78-5.51Z" fill="#F2F2F2" opacity="0.4" id="msvg-cfplu73a1c" style="transform: translate(0px, 53.5px)"/>
  <path d="M4.58 3.35L4.58 3.35Q3.65 3.35 2.95 3.10Q2.25 2.86 1.79 2.43Q1.33 2.00 1.10 1.45L1.10 1.45L2.26 0.90Q2.43 1.19 2.70 1.48Q2.98 1.77 3.43 1.97Q3.88 2.16 4.58 2.16L4.58 2.16Q5.61 2.16 6.25 1.66Q6.90 1.16 6.90 0.11L6.90 0.11L6.90-1.49L6.80-1.49Q6.62-1.20 6.33-0.86Q6.04-0.53 5.55-0.30Q5.07-0.08 4.31-0.08L4.31-0.08Q3.28-0.08 2.48-0.57Q1.67-1.06 1.20-1.99Q0.74-2.92 0.74-4.24L0.74-4.24Q0.74-5.54 1.20-6.50Q1.65-7.46 2.46-8.00Q3.28-8.53 4.33-8.53L4.33-8.53Q5.09-8.53 5.58-8.29Q6.06-8.04 6.36-7.70Q6.66-7.36 6.83-7.07L6.83-7.07L6.93-7.07L6.93-8.41L8.25-8.41L8.25 0.18Q8.25 1.29 7.76 1.99Q7.27 2.70 6.43 3.02Q5.60 3.35 4.58 3.35ZM4.53-1.28L4.53-1.28Q5.30-1.28 5.84-1.64Q6.38-2.00 6.65-2.67Q6.93-3.34 6.93-4.26L6.93-4.26Q6.93-5.16 6.66-5.85Q6.38-6.54 5.85-6.93Q5.31-7.32 4.53-7.32L4.53-7.32Q3.75-7.32 3.21-6.92Q2.67-6.52 2.39-5.83Q2.11-5.14 2.11-4.26L2.11-4.26Q2.11-3.36 2.39-2.69Q2.67-2.02 3.21-1.65Q3.76-1.28 4.53-1.28ZM12.37 0L11.02 0L11.02-8.41L12.37-8.41L12.37 0ZM11.70-9.84L11.70-9.84Q11.31-9.84 11.04-10.11Q10.76-10.37 10.76-10.75L10.76-10.75Q10.76-11.12 11.04-11.38Q11.31-11.65 11.70-11.65L11.70-11.65Q12.08-11.65 12.36-11.38Q12.64-11.12 12.64-10.75L12.64-10.75Q12.64-10.37 12.36-10.11Q12.08-9.84 11.70-9.84ZM14.14-8.41L18.53-8.41L18.53-7.25L14.14-7.25L14.14-8.41ZM15.45-2.04L15.45-10.47L16.80-10.47L16.80-2.15Q16.80-1.61 17.03-1.36Q17.25-1.11 17.79-1.11L17.79-1.11Q17.92-1.11 18.12-1.13Q18.33-1.16 18.49-1.18L18.49-1.18L18.71-0.04Q18.50 0.02 18.24 0.05Q17.98 0.08 17.72 0.08L17.72 0.08Q16.64 0.08 16.04-0.47Q15.45-1.03 15.45-2.04L15.45-2.04ZM22.02-5.01L22.02-5.01L22.02 0L20.66 0L20.66-11.35L22.02-11.35L22.02-6.38L21.74-6.38Q22.13-7.53 22.85-8.03Q23.56-8.53 24.53-8.53L24.53-8.53Q25.38-8.53 26.04-8.18Q26.69-7.82 27.06-7.11Q27.43-6.40 27.43-5.32L27.43-5.32L27.43 0L26.07 0L26.07-5.21Q26.07-6.20 25.56-6.75Q25.05-7.30 24.16-7.30L24.16-7.30Q23.55-7.30 23.06-7.05Q22.58-6.79 22.30-6.28Q22.02-5.77 22.02-5.01ZM33.10 0.11L33.10 0.11Q32.25 0.11 31.59-0.24Q30.94-0.59 30.57-1.31Q30.20-2.02 30.20-3.09L30.20-3.09L30.20-8.41L31.56-8.41L31.56-3.21Q31.56-2.21 32.07-1.66Q32.58-1.10 33.48-1.10L33.48-1.10Q34.08-1.10 34.56-1.37Q35.04-1.63 35.33-2.14Q35.61-2.65 35.61-3.40L35.61-3.40L35.61-8.41L36.97-8.41L36.97 0L35.66 0L35.66-2.04L35.88-2.04Q35.49-0.87 34.76-0.38Q34.04 0.11 33.10 0.11ZM43.66 0.18L43.66 0.18Q42.92 0.18 42.43-0.07Q41.94-0.32 41.64-0.66Q41.35-1.01 41.17-1.29L41.17-1.29L41.05-1.29L41.05 0L39.74 0L39.74-11.35L41.10-11.35L41.10-7.08L41.18-7.08Q41.35-7.37 41.64-7.70Q41.93-8.04 42.41-8.28Q42.89-8.53 43.66-8.53L43.66-8.53Q44.72-8.53 45.53-8.00Q46.33-7.46 46.79-6.49Q47.24-5.51 47.24-4.19L47.24-4.19Q47.24-2.86 46.79-1.88Q46.34-0.90 45.53-0.36Q44.73 0.18 43.66 0.18ZM43.46-1.04L43.46-1.04Q44.23-1.04 44.77-1.45Q45.31-1.86 45.59-2.57Q45.86-3.29 45.86-4.20L45.86-4.20Q45.86-5.10 45.59-5.81Q45.32-6.51 44.78-6.92Q44.24-7.32 43.46-7.32L43.46-7.32Q42.68-7.32 42.15-6.93Q41.61-6.54 41.34-5.83Q41.06-5.13 41.06-4.20L41.06-4.20Q41.06-3.26 41.34-2.55Q41.61-1.84 42.16-1.44Q42.70-1.04 43.46-1.04ZM50.58 0.11L50.58 0.11Q50.16 0.11 49.86-0.19Q49.57-0.49 49.57-0.91L49.57-0.91Q49.57-1.33 49.86-1.62Q50.16-1.92 50.58-1.92L50.58-1.92Q51.00-1.92 51.30-1.62Q51.59-1.33 51.59-0.91L51.59-0.91Q51.59-0.49 51.30-0.19Q51.00 0.11 50.58 0.11ZM57.76 0.18L57.76 0.18Q56.61 0.18 55.75-0.36Q54.88-0.91 54.40-1.89Q53.92-2.87 53.92-4.16L53.92-4.16Q53.92-5.47 54.40-6.46Q54.88-7.44 55.75-7.99Q56.61-8.53 57.76-8.53L57.76-8.53Q58.39-8.53 58.95-8.36Q59.51-8.20 59.96-7.88Q60.40-7.56 60.72-7.10Q61.04-6.65 61.20-6.08L61.20-6.08L59.88-5.79Q59.80-6.12 59.61-6.40Q59.42-6.68 59.16-6.89Q58.89-7.09 58.54-7.21Q58.19-7.32 57.76-7.32L57.76-7.32Q56.93-7.32 56.38-6.89Q55.83-6.46 55.56-5.74Q55.29-5.03 55.29-4.16L55.29-4.16Q55.29-3.31 55.56-2.59Q55.83-1.88 56.38-1.45Q56.92-1.03 57.76-1.03L57.76-1.03Q58.19-1.03 58.54-1.14Q58.90-1.26 59.17-1.47Q59.45-1.68 59.63-1.98Q59.81-2.27 59.90-2.61L59.90-2.61L61.22-2.32Q61.07-1.74 60.75-1.29Q60.43-0.83 59.97-0.50Q59.52-0.17 58.96 0.01Q58.39 0.18 57.76 0.18ZM66.97 0.18L66.97 0.18Q65.82 0.18 64.96-0.36Q64.09-0.91 63.61-1.89Q63.13-2.87 63.13-4.16L63.13-4.16Q63.13-5.47 63.61-6.46Q64.09-7.44 64.96-7.99Q65.82-8.53 66.97-8.53L66.97-8.53Q68.12-8.53 68.99-7.99Q69.86-7.44 70.34-6.46Q70.83-5.47 70.83-4.16L70.83-4.16Q70.83-2.87 70.34-1.89Q69.86-0.91 68.99-0.36Q68.12 0.18 66.97 0.18ZM66.97-1.03L66.97-1.03Q67.81-1.03 68.36-1.45Q68.92-1.88 69.19-2.59Q69.46-3.31 69.46-4.16L69.46-4.16Q69.46-5.02 69.19-5.74Q68.92-6.46 68.36-6.89Q67.81-7.32 66.97-7.32L66.97-7.32Q66.14-7.32 65.60-6.89Q65.05-6.46 64.77-5.74Q64.50-5.03 64.50-4.16L64.50-4.16Q64.50-3.31 64.77-2.59Q65.05-1.88 65.59-1.45Q66.14-1.03 66.97-1.03ZM74.54 0L73.19 0L73.19-8.41L74.50-8.41L74.51-6.57L74.39-6.57Q74.58-7.24 74.96-7.68Q75.33-8.12 75.84-8.34Q76.35-8.56 76.90-8.56L76.90-8.56Q77.82-8.56 78.42-8.00Q79.01-7.43 79.18-6.55L79.18-6.55L78.97-6.55Q79.13-7.16 79.53-7.61Q79.93-8.07 80.49-8.31Q81.06-8.56 81.74-8.56L81.74-8.56Q82.48-8.56 83.09-8.24Q83.70-7.92 84.06-7.27Q84.42-6.63 84.42-5.64L84.42-5.64L84.42 0L83.07 0L83.07-5.61Q83.07-6.54 82.55-6.93Q82.03-7.33 81.34-7.33L81.34-7.33Q80.76-7.33 80.35-7.09Q79.93-6.85 79.71-6.43Q79.48-6.00 79.48-5.46L79.48-5.46L79.48 0L78.13 0L78.13-5.74Q78.13-6.46 77.65-6.89Q77.18-7.33 76.45-7.33L76.45-7.33Q75.95-7.33 75.51-7.10Q75.07-6.86 74.81-6.40Q74.54-5.94 74.54-5.26L74.54-5.26L74.54 0Z" fill="#F2F2F2" opacity="0.6" id="msvg-cth3pqb0sxd" style="transform: translate(0px, 87.05px)"/>
  <g id="msvg-w0eiocje94" style="transform: translate(86.420984375px, 72px)">
    <path d="M5.03556 17.5363L4.04102 16.5417L14.3313 6.25141H8.32589V4.83203H16.7453V13.2514H15.3259V7.246L5.03556 17.5363Z" fill="#F2F2F2" opacity="0.6" id="msvg-v634v5rpt2"/>
  </g>
</svg>
