<svg width="550" height="208" viewBox="0 0 550 208" fill="none" xmlns="http://www.w3.org/2000/svg">
<path d="M0.932351 28V1.30909H17.6663V4.77578H4.95945V12.9082H16.7931V16.3618H4.95945V24.5333H17.8227V28H0.932351ZM22.6328 35.5068V7.98182H26.4383V11.227H26.7641C26.99 10.8099 27.3158 10.3277 27.7416 9.78033C28.1673 9.23295 28.7581 8.75509 29.514 8.34673C30.2699 7.92969 31.2691 7.72116 32.5115 7.72116C34.1276 7.72116 35.5698 8.12952 36.8384 8.94624C38.1069 9.76295 39.1017 10.9402 39.8228 12.4781C40.5527 14.0159 40.9176 15.8666 40.9176 18.03C40.9176 20.1934 40.557 22.0484 39.8359 23.595C39.1147 25.1328 38.1243 26.3188 36.8644 27.1529C35.6046 27.9783 34.1667 28.391 32.5506 28.391C31.3342 28.391 30.3394 28.1868 29.5661 27.7784C28.8015 27.3701 28.202 26.8922 27.7676 26.3449C27.3332 25.7975 26.9987 25.3109 26.7641 24.8852H26.5295V35.5068H22.6328ZM26.4513 17.9909C26.4513 19.3984 26.6555 20.6322 27.0639 21.6922C27.4722 22.7522 28.063 23.5819 28.8363 24.1814C29.6096 24.7722 30.5566 25.0676 31.6774 25.0676C32.8417 25.0676 33.8148 24.7592 34.5967 24.1423C35.3787 23.5168 35.9695 22.6696 36.3692 21.601C36.7775 20.5323 36.9817 19.3289 36.9817 17.9909C36.9817 16.6703 36.7819 15.4843 36.3822 14.433C35.9912 13.3817 35.4004 12.5519 34.6098 11.9437C33.8278 11.3356 32.8504 11.0315 31.6774 11.0315C30.5479 11.0315 29.5922 11.3225 28.8102 11.9047C28.037 12.4868 27.4505 13.2991 27.0508 14.3418C26.6512 15.3844 26.4513 16.6008 26.4513 17.9909ZM45.1835 28V7.98182H49.0803V28H45.1835ZM47.1515 4.89307C46.4738 4.89307 45.8916 4.66717 45.4051 4.21537C44.9272 3.75489 44.6883 3.20751 44.6883 2.57326C44.6883 1.93031 44.9272 1.38294 45.4051 0.931142C45.8916 0.470654 46.4738 0.240411 47.1515 0.240411C47.8292 0.240411 48.4069 0.470654 48.8848 0.931142C49.3714 1.38294 49.6146 1.93031 49.6146 2.57326C49.6146 3.20751 49.3714 3.75489 48.8848 4.21537C48.4069 4.66717 47.8292 4.89307 47.1515 4.89307ZM63.5671 7.98182V11.1097H52.6327V7.98182H63.5671ZM55.5651 3.18579H59.4618V22.1223C59.4618 22.8782 59.5748 23.4473 59.8007 23.8295C60.0266 24.2031 60.3176 24.4595 60.6739 24.5985C61.0388 24.7288 61.4341 24.794 61.8598 24.794C62.1726 24.794 62.4463 24.7722 62.6809 24.7288C62.9155 24.6854 63.0979 24.6506 63.2283 24.6245L63.932 27.8436C63.7061 27.9305 63.3847 28.0174 62.9676 28.1043C62.5506 28.1998 62.0293 28.252 61.4037 28.2607C60.3785 28.278 59.4227 28.0956 58.5365 27.7133C57.6503 27.331 56.9335 26.7402 56.3861 25.9408C55.8387 25.1415 55.5651 24.138 55.5651 22.9303V3.18579ZM76.1903 28.404C74.218 28.404 72.5194 27.9826 71.0945 27.1398C69.6783 26.2884 68.5835 25.0937 67.8103 23.5559C67.0457 22.0093 66.6634 20.1978 66.6634 18.1212C66.6634 16.0708 67.0457 14.2636 67.8103 12.6996C68.5835 11.1357 69.6609 9.915 71.0424 9.03746C72.4325 8.15993 74.0573 7.72116 75.9166 7.72116C77.0461 7.72116 78.1408 7.90797 79.2008 8.28157C80.2608 8.65517 81.2122 9.24164 82.055 10.041C82.8977 10.8403 83.5624 11.8786 84.049 13.1558C84.5355 14.4243 84.7788 15.9665 84.7788 17.7824V19.1638H68.8659V16.2445H80.9602C80.9602 15.2193 80.7517 14.3114 80.3347 13.5207C79.9176 12.7214 79.3311 12.0915 78.5752 11.631C77.828 11.1705 76.9505 10.9402 75.9426 10.9402C74.8479 10.9402 73.8922 11.2096 73.0755 11.7483C72.2674 12.2783 71.6419 12.9733 71.1988 13.8335C70.7643 14.685 70.5471 15.6103 70.5471 16.6094V18.8902C70.5471 20.2282 70.7817 21.3664 71.2509 22.3047C71.7287 23.2431 72.3934 23.9599 73.2449 24.4551C74.0963 24.9417 75.0912 25.1849 76.2294 25.1849C76.9679 25.1849 77.6412 25.0807 78.2494 24.8722C78.8576 24.6549 79.3833 24.3335 79.8264 23.9077C80.2695 23.482 80.6083 22.9564 80.8429 22.3308L84.5312 22.9955C84.2358 24.0815 83.7058 25.0329 82.9412 25.8496C82.1853 26.6576 81.2339 27.2875 80.087 27.7393C78.9488 28.1825 77.6499 28.404 76.1903 28.404ZM97.4345 28.404C95.497 28.404 93.8288 27.9652 92.43 27.0877C91.0398 26.2015 89.9711 24.9808 89.2239 23.4255C88.4767 21.8703 88.1031 20.0892 88.1031 18.0821C88.1031 16.049 88.4854 14.2549 89.25 12.6996C90.0146 11.1357 91.092 9.915 92.4821 9.03746C93.8723 8.15993 95.51 7.72116 97.3954 7.72116C98.9159 7.72116 100.271 8.00354 101.462 8.56829C102.652 9.12435 103.612 9.90631 104.342 10.9142C105.08 11.922 105.519 13.0993 105.658 14.446H101.866C101.657 13.5077 101.179 12.6996 100.432 12.0219C99.6935 11.3442 98.703 11.0054 97.4606 11.0054C96.3745 11.0054 95.4231 11.2921 94.6064 11.8656C93.7984 12.4303 93.1685 13.2383 92.7167 14.2896C92.2649 15.3322 92.039 16.566 92.039 17.9909C92.039 19.4506 92.2605 20.7104 92.7037 21.7704C93.1468 22.8304 93.7723 23.6514 94.5804 24.2336C95.3971 24.8157 96.3571 25.1067 97.4606 25.1067C98.1991 25.1067 98.8681 24.9721 99.4676 24.7027C100.076 24.4247 100.584 24.0294 100.992 23.5168C101.409 23.0041 101.701 22.3873 101.866 21.6661H105.658C105.519 22.9607 105.098 24.1163 104.394 25.1328C103.69 26.1494 102.748 26.9487 101.566 27.5308C100.393 28.1129 99.0158 28.404 97.4345 28.404ZM113.622 16.1142V28H109.725V1.30909H113.57V11.24H113.818C114.287 10.1626 115.004 9.3068 115.968 8.67255C116.932 8.03829 118.192 7.72116 119.747 7.72116C121.12 7.72116 122.319 8.00354 123.344 8.56829C124.378 9.13304 125.178 9.97582 125.742 11.0966C126.316 12.2087 126.603 13.5989 126.603 15.2671V28H122.706V15.7363C122.706 14.2679 122.328 13.1297 121.572 12.3217C120.816 11.505 119.765 11.0966 118.418 11.0966C117.497 11.0966 116.672 11.2921 115.942 11.6831C115.221 12.0741 114.652 12.6475 114.235 13.4034C113.826 14.1506 113.622 15.0542 113.622 16.1142Z" fill="#F2F2F2"/>
</svg>


