<svg width="550" height="29" viewBox="0 0 550 29" fill="none" xmlns="http://www.w3.org/2000/svg">
    <path d="M16.4898 8.32067C16.3508 7.08691 15.7774 6.13118 14.7695 5.45348C13.7617 4.76709 12.4932 4.4239 10.964 4.4239C9.86925 4.4239 8.92221 4.59767 8.12287 4.9452C7.32353 5.28405 6.70231 5.75323 6.2592 6.35273C5.82478 6.94355 5.60756 7.6169 5.60756 8.3728C5.60756 9.00705 5.75527 9.55443 6.05068 10.0149C6.35477 10.4754 6.7501 10.862 7.23665 11.1748C7.73189 11.4789 8.26188 11.7352 8.82663 11.9437C9.39138 12.1436 9.93441 12.3087 10.4557 12.439L13.0623 13.1167C13.9137 13.3252 14.7869 13.6076 15.6818 13.9638C16.5767 14.32 17.4065 14.7892 18.1711 15.3713C18.9356 15.9535 19.5525 16.6746 20.0217 17.5348C20.4996 18.3949 20.7385 19.4245 20.7385 20.6235C20.7385 22.1353 20.3475 23.4777 19.5656 24.6506C18.7923 25.8235 17.6671 26.7489 16.1901 27.4266C14.7217 28.1043 12.945 28.4431 10.8597 28.4431C8.86139 28.4431 7.13239 28.126 5.67273 27.4917C4.21307 26.8575 3.07054 25.9582 2.24514 24.794C1.41973 23.621 0.963589 22.2309 0.876705 20.6235H4.91683C4.99503 21.5879 5.30781 22.3916 5.85519 23.0346C6.41125 23.6688 7.11935 24.1423 7.97951 24.4551C8.84835 24.7592 9.79974 24.9113 10.8337 24.9113C11.9719 24.9113 12.9841 24.7331 13.8703 24.3769C14.7652 24.012 15.469 23.5081 15.9816 22.8651C16.4942 22.2135 16.7505 21.4533 16.7505 20.5844C16.7505 19.7938 16.5246 19.1465 16.0728 18.6425C15.6297 18.1386 15.0258 17.7216 14.2613 17.3914C13.5054 17.0612 12.6496 16.7702 11.6938 16.5182L8.53992 15.6581C6.40256 15.0759 4.70831 14.2201 3.45717 13.0906C2.21473 11.9611 1.5935 10.4667 1.5935 8.60738C1.5935 7.06953 2.01055 5.72716 2.84464 4.58029C3.67873 3.43341 4.80823 2.54285 6.23313 1.90859C7.65804 1.26565 9.2654 0.944175 11.0552 0.944175C12.8624 0.944175 14.4567 1.2613 15.8382 1.89556C17.2284 2.52982 18.3231 3.40301 19.1224 4.51513C19.9218 5.61856 20.3388 6.88707 20.3736 8.32067H16.4898ZM25.4508 28V1.30909H35.2253C37.1194 1.30909 38.6877 1.62187 39.9301 2.24744C41.1726 2.86432 42.1022 3.70276 42.7191 4.76275C43.336 5.81405 43.6444 7.00002 43.6444 8.32067C43.6444 9.43279 43.4402 10.3711 43.0319 11.1357C42.6235 11.8916 42.0762 12.4998 41.3898 12.9603C40.7121 13.4121 39.9649 13.7423 39.1481 13.9508V14.2114C40.0344 14.2549 40.8989 14.5416 41.7416 15.0716C42.5931 15.5929 43.2969 16.3358 43.8529 17.3002C44.409 18.2646 44.687 19.4375 44.687 20.819C44.687 22.1831 44.3656 23.4082 43.7226 24.4942C43.0884 25.5716 42.1066 26.4274 40.7772 27.0616C39.4479 27.6872 37.7493 28 35.6815 28H25.4508ZM29.4779 24.5463H35.2905C37.2193 24.5463 38.6008 24.1727 39.4349 23.4255C40.269 22.6783 40.686 21.7443 40.686 20.6235C40.686 19.7807 40.4731 19.0075 40.0474 18.3037C39.6217 17.5999 39.0135 17.0395 38.2228 16.6225C37.4409 16.2054 36.5112 15.9969 35.4338 15.9969H29.4779V24.5463ZM29.4779 12.856H34.8734C35.777 12.856 36.5894 12.6823 37.3105 12.3347C38.0404 11.9872 38.6182 11.5006 39.0439 10.8751C39.4783 10.2408 39.6955 9.49361 39.6955 8.63345C39.6955 7.53002 39.3089 6.6047 38.5356 5.85749C37.7623 5.11029 36.5764 4.73668 34.9777 4.73668H29.4779V12.856ZM63.921 8.32067C63.782 7.08691 63.2085 6.13118 62.2007 5.45348C61.1928 4.76709 59.9243 4.4239 58.3951 4.4239C57.3004 4.4239 56.3534 4.59767 55.554 4.9452C54.7547 5.28405 54.1335 5.75323 53.6903 6.35273C53.2559 6.94355 53.0387 7.6169 53.0387 8.3728C53.0387 9.00705 53.1864 9.55443 53.4818 10.0149C53.7859 10.4754 54.1812 10.862 54.6678 11.1748C55.163 11.4789 55.693 11.7352 56.2578 11.9437C56.8225 12.1436 57.3656 12.3087 57.8869 12.439L60.4934 13.1167C61.3449 13.3252 62.2181 13.6076 63.113 13.9638C64.0079 14.32 64.8376 14.7892 65.6022 15.3713C66.3668 15.9535 66.9837 16.6746 67.4529 17.5348C67.9307 18.3949 68.1696 19.4245 68.1696 20.6235C68.1696 22.1353 67.7787 23.4777 66.9967 24.6506C66.2234 25.8235 65.0983 26.7489 63.6212 27.4266C62.1529 28.1043 60.3761 28.4431 58.2909 28.4431C56.2925 28.4431 54.5635 28.126 53.1039 27.4917C51.6442 26.8575 50.5017 25.9582 49.6763 24.794C48.8509 23.621 48.3947 22.2309 48.3079 20.6235H52.348C52.4262 21.5879 52.739 22.3916 53.2863 23.0346C53.8424 23.6688 54.5505 24.1423 55.4107 24.4551C56.2795 24.7592 57.2309 24.9113 58.2648 24.9113C59.403 24.9113 60.4152 24.7331 61.3014 24.3769C62.1963 24.012 62.9001 23.5081 63.4127 22.8651C63.9253 22.2135 64.1817 21.4533 64.1817 20.5844C64.1817 19.7938 63.9558 19.1465 63.504 18.6425C63.0608 18.1386 62.457 17.7216 61.6924 17.3914C60.9365 17.0612 60.0807 16.7702 59.125 16.5182L55.9711 15.6581C53.8337 15.0759 52.1395 14.2201 50.8883 13.0906C49.6459 11.9611 49.0247 10.4667 49.0247 8.60738C49.0247 7.06953 49.4417 5.72716 50.2758 4.58029C51.1099 3.43341 52.2394 2.54285 53.6643 1.90859C55.0892 1.26565 56.6966 0.944175 58.4864 0.944175C60.2936 0.944175 61.8879 1.2613 63.2694 1.89556C64.6595 2.52982 65.7543 3.40301 66.5536 4.51513C67.3529 5.61856 67.77 6.88707 67.8047 8.32067H63.921Z" fill="#F2F2F2"/>
</svg>

