<svg width="103" height="30" viewBox="0 0 103 30" fill="none" xmlns="http://www.w3.org/2000/svg">
    <path d="M0.376216 23V1.37116H13.9365V4.18037H3.63955V10.7704H13.2289V13.5691H3.63955V20.1908H14.0632V23H0.376216ZM17.961 29.0831V6.77837H21.0448V9.40805H21.3088C21.4919 9.0701 21.7559 8.67934 22.1009 8.23578C22.4459 7.79222 22.9247 7.40498 23.5372 7.07407C24.1497 6.73612 24.9594 6.56715 25.9662 6.56715C27.2758 6.56715 28.4445 6.89806 29.4725 7.55988C30.5004 8.2217 31.3066 9.17571 31.8909 10.4219C32.4823 11.6681 32.7781 13.1677 32.7781 14.9209C32.7781 16.674 32.4859 18.1772 31.9015 19.4304C31.3171 20.6766 30.5145 21.6376 29.4936 22.3135C28.4727 22.9824 27.3075 23.3168 25.9979 23.3168C25.0122 23.3168 24.2061 23.1514 23.5795 22.8205C22.9599 22.4896 22.4741 22.1023 22.122 21.6588C21.77 21.2152 21.4989 20.8209 21.3088 20.4759H21.1188V29.0831H17.961ZM21.0554 14.8892C21.0554 16.0298 21.2208 17.0295 21.5518 17.8885C21.8827 18.7475 22.3614 19.4198 22.988 19.9056C23.6147 20.3844 24.3821 20.6238 25.2903 20.6238C26.2338 20.6238 27.0223 20.3738 27.656 19.874C28.2896 19.367 28.7684 18.6806 29.0923 17.8146C29.4232 16.9486 29.5886 15.9734 29.5886 14.8892C29.5886 13.819 29.4267 12.858 29.1028 12.006C28.786 11.1541 28.3072 10.4817 27.6665 9.9889C27.0329 9.49605 26.2408 9.24963 25.2903 9.24963C24.375 9.24963 23.6006 9.48549 22.9669 9.95722C22.3403 10.4289 21.8651 11.0872 21.5412 11.9321C21.2173 12.777 21.0554 13.7627 21.0554 14.8892ZM36.2349 23V6.77837H39.3927V23H36.2349ZM37.8296 4.27542C37.2805 4.27542 36.8087 4.09236 36.4145 3.72625C36.0272 3.3531 35.8336 2.90954 35.8336 2.39557C35.8336 1.87456 36.0272 1.431 36.4145 1.06489C36.8087 0.691735 37.2805 0.505159 37.8296 0.505159C38.3788 0.505159 38.847 0.691735 39.2342 1.06489C39.6285 1.431 39.8257 1.87456 39.8257 2.39557C39.8257 2.90954 39.6285 3.3531 39.2342 3.72625C38.847 4.09236 38.3788 4.27542 37.8296 4.27542ZM51.132 6.77837V9.313H42.2713V6.77837H51.132ZM44.6476 2.89194H47.8053V18.237C47.8053 18.8495 47.8968 19.3107 48.0799 19.6205C48.2629 19.9232 48.4988 20.1309 48.7874 20.2436C49.0832 20.3492 49.4035 20.402 49.7485 20.402C50.002 20.402 50.2237 20.3844 50.4138 20.3492C50.6039 20.314 50.7518 20.2858 50.8574 20.2647L51.4277 22.8733C51.2446 22.9437 50.9841 23.0141 50.6462 23.0845C50.3082 23.1619 49.8858 23.2042 49.3789 23.2112C48.5481 23.2253 47.7736 23.0774 47.0554 22.7677C46.3373 22.4579 45.7565 21.9791 45.3129 21.3314C44.8693 20.6836 44.6476 19.8704 44.6476 18.8918V2.89194ZM61.3611 23.3274C59.7629 23.3274 58.3864 22.9859 57.2317 22.303C56.0841 21.613 55.197 20.6449 54.5704 19.3987C53.9508 18.1455 53.641 16.6775 53.641 14.9948C53.641 13.3332 53.9508 11.8687 54.5704 10.6014C55.197 9.33412 56.07 8.34491 57.1895 7.6338C58.316 6.9227 59.6326 6.56715 61.1393 6.56715C62.0546 6.56715 62.9417 6.71852 63.8007 7.02127C64.6596 7.32402 65.4306 7.79926 66.1135 8.447C66.7965 9.09474 67.3351 9.93609 67.7293 10.9711C68.1236 11.999 68.3208 13.2487 68.3208 14.7202V15.8397H55.4258V13.474H65.2264C65.2264 12.6432 65.0574 11.9075 64.7195 11.2668C64.3815 10.619 63.9063 10.1086 63.2937 9.73544C62.6882 9.36228 61.9771 9.17571 61.1604 9.17571C60.2733 9.17571 59.4988 9.39397 58.837 9.83048C58.1822 10.26 57.6753 10.8232 57.3162 11.5202C56.9642 12.2102 56.7882 12.96 56.7882 13.7697V15.6179C56.7882 16.7021 56.9783 17.6245 57.3585 18.3849C57.7457 19.1453 58.2843 19.7261 58.9743 20.1274C59.6643 20.5217 60.4704 20.7188 61.3928 20.7188C61.9912 20.7188 62.5369 20.6343 63.0297 20.4654C63.5226 20.2894 63.9485 20.0289 64.3076 19.6839C64.6667 19.3389 64.9412 18.9129 65.1313 18.406L68.1201 18.9446C67.8807 19.8247 67.4512 20.5956 66.8317 21.2574C66.2191 21.9122 65.4482 22.4227 64.5188 22.7888C63.5965 23.1479 62.5439 23.3274 61.3611 23.3274ZM78.5763 23.3274C77.0062 23.3274 75.6544 22.9718 74.5209 22.2607C73.3943 21.5426 72.5284 20.5534 71.9229 19.2931C71.3174 18.0328 71.0146 16.5895 71.0146 14.9631C71.0146 13.3156 71.3244 11.8617 71.944 10.6014C72.5636 9.33412 73.4366 8.34491 74.5631 7.6338C75.6896 6.9227 77.0168 6.56715 78.5446 6.56715C79.7767 6.56715 80.875 6.79597 81.8396 7.25361C82.8042 7.70421 83.5822 8.33787 84.1736 9.15458C84.772 9.9713 85.1276 10.9253 85.2402 12.0166H82.167C81.998 11.2562 81.6108 10.6014 81.0053 10.0523C80.4068 9.5031 79.6042 9.22851 78.5974 9.22851C77.7173 9.22851 76.9464 9.46085 76.2845 9.92553C75.6298 10.3832 75.1193 11.038 74.7532 11.8899C74.3871 12.7347 74.204 13.7345 74.204 14.8892C74.204 16.072 74.3836 17.0929 74.7426 17.9519C75.1017 18.8108 75.6086 19.4762 76.2634 19.9479C76.9252 20.4196 77.7032 20.6555 78.5974 20.6555C79.1958 20.6555 79.738 20.5463 80.2238 20.3281C80.7166 20.1028 81.1285 19.7824 81.4594 19.367C81.7974 18.9516 82.0332 18.4517 82.167 17.8674H85.2402C85.1276 18.9164 84.7861 19.8528 84.2158 20.6766C83.6455 21.5003 82.8816 22.1481 81.9241 22.6198C80.9736 23.0915 79.8577 23.3274 78.5763 23.3274ZM91.6938 13.3684V23H88.5361V1.37116H91.6515V9.41861H91.8522C92.2324 8.54557 92.8132 7.85206 93.5948 7.3381C94.3763 6.82413 95.3972 6.56715 96.6574 6.56715C97.7699 6.56715 98.7415 6.79597 99.5723 7.25361C100.41 7.71125 101.058 8.39419 101.515 9.30244C101.98 10.2036 102.212 11.3301 102.212 12.6819V23H99.0548V13.0621C99.0548 11.8723 98.7485 10.9499 98.136 10.2952C97.5234 9.63335 96.6715 9.30244 95.5802 9.30244C94.8339 9.30244 94.165 9.46085 93.5736 9.77768C92.9893 10.0945 92.5281 10.5592 92.1901 11.1717C91.8592 11.7772 91.6938 12.5094 91.6938 13.3684Z" fill="#F2F2F2"/>
</svg>
