<svg width="400" height="168" viewBox="0 0 400 168" fill="none" xmlns="http://www.w3.org/2000/svg">
<path d="M2.37622 31V9.37116H15.9365V12.1804H5.63955V18.7704H15.2289V21.5691H5.63955V28.1908H16.0632V31H2.37622ZM19.961 37.0831V14.7784H23.0448V17.408H23.3088C23.4919 17.0701 23.7559 16.6793 24.1009 16.2358C24.4459 15.7922 24.9247 15.405 25.5372 15.0741C26.1497 14.7361 26.9594 14.5671 27.9662 14.5671C29.2758 14.5671 30.4445 14.8981 31.4725 15.5599C32.5004 16.2217 33.3066 17.1757 33.8909 18.4219C34.4823 19.6681 34.7781 21.1677 34.7781 22.9209C34.7781 24.674 34.4859 26.1772 33.9015 27.4304C33.3171 28.6766 32.5145 29.6376 31.4936 30.3135C30.4727 30.9824 29.3075 31.3168 27.9979 31.3168C27.0122 31.3168 26.2061 31.1514 25.5795 30.8205C24.9599 30.4896 24.4741 30.1023 24.122 29.6588C23.77 29.2152 23.4989 28.8209 23.3088 28.4759H23.1188V37.0831H19.961ZM23.0554 22.8892C23.0554 24.0298 23.2208 25.0295 23.5518 25.8885C23.8827 26.7475 24.3614 27.4198 24.988 27.9056C25.6147 28.3844 26.3821 28.6238 27.2903 28.6238C28.2338 28.6238 29.0223 28.3738 29.656 27.874C30.2896 27.367 30.7684 26.6806 31.0923 25.8146C31.4232 24.9486 31.5886 23.9734 31.5886 22.8892C31.5886 21.819 31.4267 20.858 31.1028 20.006C30.786 19.1541 30.3072 18.4817 29.6665 17.9889C29.0329 17.4961 28.2408 17.2496 27.2903 17.2496C26.375 17.2496 25.6006 17.4855 24.9669 17.9572C24.3403 18.4289 23.8651 19.0872 23.5412 19.9321C23.2173 20.777 23.0554 21.7627 23.0554 22.8892ZM38.2349 31V14.7784H41.3927V31H38.2349ZM39.8296 12.2754C39.2805 12.2754 38.8087 12.0924 38.4145 11.7262C38.0272 11.3531 37.8336 10.9095 37.8336 10.3956C37.8336 9.87456 38.0272 9.431 38.4145 9.06489C38.8087 8.69174 39.2805 8.50516 39.8296 8.50516C40.3788 8.50516 40.847 8.69174 41.2342 9.06489C41.6285 9.431 41.8257 9.87456 41.8257 10.3956C41.8257 10.9095 41.6285 11.3531 41.2342 11.7262C40.847 12.0924 40.3788 12.2754 39.8296 12.2754ZM53.132 14.7784V17.313H44.2713V14.7784H53.132ZM46.6476 10.8919H49.8053V26.237C49.8053 26.8495 49.8968 27.3107 50.0799 27.6205C50.2629 27.9232 50.4988 28.1309 50.7874 28.2436C51.0832 28.3492 51.4035 28.402 51.7485 28.402C52.002 28.402 52.2237 28.3844 52.4138 28.3492C52.6039 28.314 52.7518 28.2858 52.8574 28.2647L53.4277 30.8733C53.2446 30.9437 52.9841 31.0141 52.6462 31.0845C52.3082 31.1619 51.8858 31.2042 51.3789 31.2112C50.5481 31.2253 49.7736 31.0774 49.0554 30.7677C48.3373 30.4579 47.7565 29.9791 47.3129 29.3314C46.8693 28.6836 46.6476 27.8704 46.6476 26.8918V10.8919ZM63.3611 31.3274C61.7629 31.3274 60.3864 30.9859 59.2317 30.303C58.0841 29.613 57.197 28.6449 56.5704 27.3987C55.9508 26.1455 55.641 24.6775 55.641 22.9948C55.641 21.3332 55.9508 19.8687 56.5704 18.6014C57.197 17.3341 58.07 16.3449 59.1895 15.6338C60.316 14.9227 61.6326 14.5671 63.1393 14.5671C64.0546 14.5671 64.9417 14.7185 65.8007 15.0213C66.6596 15.324 67.4306 15.7993 68.1135 16.447C68.7965 17.0947 69.3351 17.9361 69.7293 18.9711C70.1236 19.999 70.3208 21.2487 70.3208 22.7202V23.8397H57.4258V21.474H67.2264C67.2264 20.6432 67.0574 19.9075 66.7195 19.2668C66.3815 18.619 65.9063 18.1086 65.2937 17.7354C64.6882 17.3623 63.9771 17.1757 63.1604 17.1757C62.2733 17.1757 61.4988 17.394 60.837 17.8305C60.1822 18.26 59.6753 18.8232 59.3162 19.5202C58.9642 20.2102 58.7882 20.96 58.7882 21.7697V23.6179C58.7882 24.7021 58.9783 25.6245 59.3585 26.3849C59.7457 27.1453 60.2843 27.7261 60.9743 28.1274C61.6643 28.5217 62.4704 28.7188 63.3928 28.7188C63.9912 28.7188 64.5369 28.6343 65.0297 28.4654C65.5226 28.2894 65.9485 28.0289 66.3076 27.6839C66.6667 27.3389 66.9412 26.9129 67.1313 26.406L70.1201 26.9446C69.8807 27.8247 69.4512 28.5956 68.8317 29.2574C68.2191 29.9122 67.4482 30.4227 66.5188 30.7888C65.5965 31.1479 64.5439 31.3274 63.3611 31.3274ZM80.5763 31.3274C79.0062 31.3274 77.6544 30.9718 76.5209 30.2607C75.3943 29.5426 74.5284 28.5534 73.9229 27.2931C73.3174 26.0328 73.0146 24.5895 73.0146 22.9631C73.0146 21.3156 73.3244 19.8617 73.944 18.6014C74.5636 17.3341 75.4366 16.3449 76.5631 15.6338C77.6896 14.9227 79.0168 14.5671 80.5446 14.5671C81.7767 14.5671 82.875 14.796 83.8396 15.2536C84.8042 15.7042 85.5822 16.3379 86.1736 17.1546C86.772 17.9713 87.1276 18.9253 87.2402 20.0166H84.167C83.998 19.2562 83.6108 18.6014 83.0053 18.0523C82.4068 17.5031 81.6042 17.2285 80.5974 17.2285C79.7173 17.2285 78.9464 17.4609 78.2845 17.9255C77.6298 18.3832 77.1193 19.038 76.7532 19.8899C76.3871 20.7347 76.204 21.7345 76.204 22.8892C76.204 24.072 76.3836 25.0929 76.7426 25.9519C77.1017 26.8108 77.6086 27.4762 78.2634 27.9479C78.9252 28.4196 79.7032 28.6555 80.5974 28.6555C81.1958 28.6555 81.738 28.5463 82.2238 28.3281C82.7166 28.1028 83.1285 27.7824 83.4594 27.367C83.7974 26.9516 84.0332 26.4517 84.167 25.8674H87.2402C87.1276 26.9164 86.7861 27.8528 86.2158 28.6766C85.6455 29.5003 84.8816 30.1481 83.9241 30.6198C82.9736 31.0915 81.8577 31.3274 80.5763 31.3274ZM93.6938 21.3684V31H90.5361V9.37116H93.6515V17.4186H93.8522C94.2324 16.5456 94.8132 15.8521 95.5948 15.3381C96.3763 14.8241 97.3972 14.5671 98.6574 14.5671C99.7699 14.5671 100.741 14.796 101.572 15.2536C102.41 15.7113 103.058 16.3942 103.515 17.3024C103.98 18.2036 104.212 19.3301 104.212 20.6819V31H101.055V21.0621C101.055 19.8723 100.748 18.9499 100.136 18.2952C99.5234 17.6333 98.6715 17.3024 97.5802 17.3024C96.8339 17.3024 96.165 17.4609 95.5736 17.7777C94.9893 18.0945 94.5281 18.5592 94.1901 19.1717C93.8592 19.7772 93.6938 20.5094 93.6938 21.3684Z" fill="#F2F2F2"/>
</svg>
