<svg width="79" height="24" viewBox="0 0 79 24" fill="none" xmlns="http://www.w3.org/2000/svg">
    <path d="M0.376216 23V1.37116H13.7886V4.18037H3.63955V10.7704H12.8276V13.5691H3.63955V23H0.376216ZM17.4673 23V6.77837H20.625V23H17.4673ZM19.062 4.27542C18.5128 4.27542 18.0411 4.09236 17.6468 3.72625C17.2596 3.3531 17.066 2.90954 17.066 2.39557C17.066 1.87456 17.2596 1.431 17.6468 1.06489C18.0411 0.691735 18.5128 0.505159 19.062 0.505159C19.6112 0.505159 20.0794 0.691735 20.4666 1.06489C20.8609 1.431 21.058 1.87456 21.058 2.39557C21.058 2.90954 20.8609 3.3531 20.4666 3.72625C20.0794 4.09236 19.6112 4.27542 19.062 4.27542ZM38.6692 6.77837L32.7868 23H29.4073L23.5143 6.77837H26.9043L31.0125 19.2614H31.1815L35.2792 6.77837H38.6692ZM47.9954 23.3274C46.3971 23.3274 45.0207 22.9859 43.866 22.303C42.7184 21.613 41.8313 20.6449 41.2047 19.3987C40.5851 18.1455 40.2753 16.6775 40.2753 14.9948C40.2753 13.3332 40.5851 11.8687 41.2047 10.6014C41.8313 9.33412 42.7043 8.34491 43.8238 7.6338C44.9503 6.9227 46.2669 6.56715 47.7736 6.56715C48.6889 6.56715 49.576 6.71852 50.435 7.02127C51.2939 7.32402 52.0649 7.79926 52.7478 8.447C53.4307 9.09474 53.9694 9.93609 54.3636 10.9711C54.7579 11.999 54.955 13.2487 54.955 14.7202V15.8397H42.0601V13.474H51.8607C51.8607 12.6432 51.6917 11.9075 51.3538 11.2668C51.0158 10.619 50.5406 10.1086 49.928 9.73544C49.3225 9.36228 48.6114 9.17571 47.7947 9.17571C46.9076 9.17571 46.1331 9.39397 45.4713 9.83048C44.8165 10.26 44.3096 10.8232 43.9505 11.5202C43.5985 12.2102 43.4225 12.96 43.4225 13.7697V15.6179C43.4225 16.7021 43.6126 17.6245 43.9928 18.3849C44.38 19.1453 44.9186 19.7261 45.6086 20.1274C46.2986 20.5217 47.1047 20.7188 48.0271 20.7188C48.6255 20.7188 49.1712 20.6343 49.664 20.4654C50.1569 20.2894 50.5828 20.0289 50.9419 19.6839C51.301 19.3389 51.5755 18.9129 51.7656 18.406L54.7544 18.9446C54.515 19.8247 54.0855 20.5956 53.466 21.2574C52.8534 21.9122 52.0825 22.4227 51.1531 22.7888C50.2308 23.1479 49.1782 23.3274 47.9954 23.3274ZM58.3776 23V6.77837H61.4297V9.35524H61.5987C61.8944 8.4822 62.4154 7.79574 63.1617 7.29585C63.9151 6.78893 64.767 6.53547 65.7175 6.53547C65.9146 6.53547 66.147 6.54251 66.4145 6.55659C66.6891 6.57067 66.9038 6.58827 67.0587 6.60939V9.62983C66.932 9.59462 66.7067 9.5559 66.3828 9.51366C66.0589 9.46437 65.7351 9.43973 65.4112 9.43973C64.6649 9.43973 63.9996 9.59814 63.4152 9.91497C62.8379 10.2248 62.3802 10.6578 62.0423 11.214C61.7043 11.7631 61.5353 12.3898 61.5353 13.0938V23H58.3776ZM69.7103 23V6.77837H72.7624V9.35524H72.9314C73.2271 8.4822 73.7481 7.79574 74.4944 7.29585C75.2478 6.78893 76.0997 6.53547 77.0502 6.53547C77.2473 6.53547 77.4797 6.54251 77.7472 6.55659C78.0218 6.57067 78.2365 6.58827 78.3914 6.60939V9.62983C78.2647 9.59462 78.0394 9.5559 77.7155 9.51366C77.3917 9.46437 77.0678 9.43973 76.7439 9.43973C75.9976 9.43973 75.3323 9.59814 74.7479 9.91497C74.1706 10.2248 73.7129 10.6578 73.375 11.214C73.037 11.7631 72.8681 12.3898 72.8681 13.0938V23H69.7103Z" fill="#F2F2F2"/>
</svg>
