<svg width="400" height="147" viewBox="0 0 400 147" fill="none" xmlns="http://www.w3.org/2000/svg">
    <path d="M2.37622 31V9.37116H15.7886V12.1804H5.63955V18.7704H14.8276V21.5691H5.63955V31H2.37622ZM19.4673 31V14.7784H22.625V31H19.4673ZM21.062 12.2754C20.5128 12.2754 20.0411 12.0924 19.6468 11.7262C19.2596 11.3531 19.066 10.9095 19.066 10.3956C19.066 9.87456 19.2596 9.431 19.6468 9.06489C20.0411 8.69174 20.5128 8.50516 21.062 8.50516C21.6112 8.50516 22.0794 8.69174 22.4666 9.06489C22.8609 9.431 23.058 9.87456 23.058 10.3956C23.058 10.9095 22.8609 11.3531 22.4666 11.7262C22.0794 12.0924 21.6112 12.2754 21.062 12.2754ZM40.6692 14.7784L34.7868 31H31.4073L25.5143 14.7784H28.9043L33.0125 27.2614H33.1815L37.2792 14.7784H40.6692ZM49.9954 31.3274C48.3971 31.3274 47.0207 30.9859 45.866 30.303C44.7184 29.613 43.8313 28.6449 43.2047 27.3987C42.5851 26.1455 42.2753 24.6775 42.2753 22.9948C42.2753 21.3332 42.5851 19.8687 43.2047 18.6014C43.8313 17.3341 44.7043 16.3449 45.8238 15.6338C46.9503 14.9227 48.2669 14.5671 49.7736 14.5671C50.6889 14.5671 51.576 14.7185 52.435 15.0213C53.2939 15.324 54.0649 15.7993 54.7478 16.447C55.4307 17.0947 55.9694 17.9361 56.3636 18.9711C56.7579 19.999 56.955 21.2487 56.955 22.7202V23.8397H44.0601V21.474H53.8607C53.8607 20.6432 53.6917 19.9075 53.3538 19.2668C53.0158 18.619 52.5406 18.1086 51.928 17.7354C51.3225 17.3623 50.6114 17.1757 49.7947 17.1757C48.9076 17.1757 48.1331 17.394 47.4713 17.8305C46.8165 18.26 46.3096 18.8232 45.9505 19.5202C45.5985 20.2102 45.4225 20.96 45.4225 21.7697V23.6179C45.4225 24.7021 45.6126 25.6245 45.9928 26.3849C46.38 27.1453 46.9186 27.7261 47.6086 28.1274C48.2986 28.5217 49.1047 28.7188 50.0271 28.7188C50.6255 28.7188 51.1712 28.6343 51.664 28.4654C52.1569 28.2894 52.5828 28.0289 52.9419 27.6839C53.301 27.3389 53.5755 26.9129 53.7656 26.406L56.7544 26.9446C56.515 27.8247 56.0855 28.5956 55.466 29.2574C54.8534 29.9122 54.0825 30.4227 53.1531 30.7888C52.2308 31.1479 51.1782 31.3274 49.9954 31.3274ZM60.3776 31V14.7784H63.4297V17.3552H63.5987C63.8944 16.4822 64.4154 15.7957 65.1617 15.2959C65.9151 14.7889 66.767 14.5355 67.7175 14.5355C67.9146 14.5355 68.147 14.5425 68.4145 14.5566C68.6891 14.5707 68.9038 14.5883 69.0587 14.6094V17.6298C68.932 17.5946 68.7067 17.5559 68.3828 17.5137C68.0589 17.4644 67.7351 17.4397 67.4112 17.4397C66.6649 17.4397 65.9996 17.5981 65.4152 17.915C64.8379 18.2248 64.3802 18.6578 64.0423 19.214C63.7043 19.7631 63.5353 20.3898 63.5353 21.0938V31H60.3776ZM71.7103 31V14.7784H74.7624V17.3552H74.9314C75.2271 16.4822 75.7481 15.7957 76.4944 15.2959C77.2478 14.7889 78.0997 14.5355 79.0502 14.5355C79.2473 14.5355 79.4797 14.5425 79.7472 14.5566C80.0218 14.5707 80.2365 14.5883 80.3914 14.6094V17.6298C80.2647 17.5946 80.0394 17.5559 79.7155 17.5137C79.3917 17.4644 79.0678 17.4397 78.7439 17.4397C77.9976 17.4397 77.3323 17.5981 76.7479 17.915C76.1706 18.2248 75.7129 18.6578 75.375 19.214C75.037 19.7631 74.8681 20.3898 74.8681 21.0938V31H71.7103Z" fill="#F2F2F2"/>
</svg>
