<svg width="550" height="181" viewBox="0 0 550 181" fill="none" xmlns="http://www.w3.org/2000/svg">
    <path d="M0.932351 28V1.30909H17.4838V4.77578H4.95945V12.9082H16.2979V16.3618H4.95945V28H0.932351ZM22.0235 28V7.98182H25.9202V28H22.0235ZM23.9914 4.89307C23.3137 4.89307 22.7316 4.66717 22.245 4.21537C21.7672 3.75489 21.5282 3.20751 21.5282 2.57326C21.5282 1.93031 21.7672 1.38294 22.245 0.931142C22.7316 0.470654 23.3137 0.240411 23.9914 0.240411C24.6691 0.240411 25.2469 0.470654 25.7248 0.931142C26.2113 1.38294 26.4546 1.93031 26.4546 2.57326C26.4546 3.20751 26.2113 3.75489 25.7248 4.21537C25.2469 4.66717 24.6691 4.89307 23.9914 4.89307ZM48.1876 7.98182L40.9284 28H36.7579L29.4857 7.98182H33.6692L38.7389 23.3864H38.9474L44.0041 7.98182H48.1876ZM59.6964 28.404C57.7241 28.404 56.0255 27.9826 54.6006 27.1398C53.1844 26.2884 52.0897 25.0937 51.3164 23.5559C50.5518 22.0093 50.1695 20.1978 50.1695 18.1212C50.1695 16.0708 50.5518 14.2636 51.3164 12.6996C52.0897 11.1357 53.167 9.915 54.5485 9.03746C55.9387 8.15993 57.5634 7.72116 59.4227 7.72116C60.5522 7.72116 61.647 7.90797 62.707 8.28157C63.767 8.65517 64.7183 9.24164 65.5611 10.041C66.4039 10.8403 67.0686 11.8786 67.5551 13.1558C68.0417 14.4243 68.2849 15.9665 68.2849 17.7824V19.1638H52.3721V16.2445H64.4664C64.4664 15.2193 64.2578 14.3114 63.8408 13.5207C63.4238 12.7214 62.8373 12.0915 62.0814 11.631C61.3342 11.1705 60.4567 10.9402 59.4488 10.9402C58.354 10.9402 57.3983 11.2096 56.5816 11.7483C55.7736 12.2783 55.148 12.9733 54.7049 13.8335C54.2705 14.685 54.0533 15.6103 54.0533 16.6094V18.8902C54.0533 20.2282 54.2879 21.3664 54.757 22.3047C55.2349 23.2431 55.8996 23.9599 56.751 24.4551C57.6025 24.9417 58.5973 25.1849 59.7355 25.1849C60.474 25.1849 61.1474 25.0807 61.7556 24.8722C62.3638 24.6549 62.8894 24.3335 63.3325 23.9077C63.7756 23.482 64.1145 22.9564 64.3491 22.3308L68.0373 22.9955C67.7419 24.0815 67.2119 25.0329 66.4473 25.8496C65.6914 26.6576 64.7401 27.2875 63.5932 27.7393C62.455 28.1825 61.1561 28.404 59.6964 28.404ZM72.5085 28V7.98182H76.275V11.1618H76.4835C76.8484 10.0844 77.4914 9.2373 78.4123 8.62042C79.342 7.99485 80.3933 7.68207 81.5662 7.68207C81.8095 7.68207 82.0962 7.69075 82.4264 7.70813C82.7652 7.72551 83.0302 7.74723 83.2214 7.77329V11.5006C83.065 11.4572 82.787 11.4094 82.3873 11.3573C81.9876 11.2965 81.588 11.266 81.1883 11.266C80.2673 11.266 79.4463 11.4615 78.7251 11.8525C78.0127 12.2348 77.4479 12.7692 77.0309 13.4555C76.6138 14.1332 76.4053 14.9065 76.4053 15.7754V28H72.5085ZM86.4936 28V7.98182H90.26V11.1618H90.4686C90.8335 10.0844 91.4764 9.2373 92.3974 8.62042C93.3271 7.99485 94.3784 7.68207 95.5513 7.68207C95.7946 7.68207 96.0813 7.69075 96.4115 7.70813C96.7503 7.72551 97.0153 7.74723 97.2064 7.77329V11.5006C97.0501 11.4572 96.772 11.4094 96.3724 11.3573C95.9727 11.2965 95.573 11.266 95.1733 11.266C94.2524 11.266 93.4313 11.4615 92.7102 11.8525C91.9977 12.2348 91.433 12.7692 91.0159 13.4555C90.5989 14.1332 90.3904 14.9065 90.3904 15.7754V28H86.4936Z" fill="#F2F2F2"/>
</svg>

