<svg width="400" height="256" viewBox="0 0 400 256" fill="none" xmlns="http://www.w3.org/2000/svg">
    <path d="M2.37622 31V9.37116H10.0857C11.7684 9.37116 13.1625 9.67742 14.2679 10.29C15.3732 10.9025 16.2005 11.7403 16.7497 12.8035C17.2989 13.8596 17.5734 15.0494 17.5734 16.3731C17.5734 17.7038 17.2953 18.9007 16.7391 19.9638C16.1899 21.0199 15.3592 21.8577 14.2467 22.4773C13.1414 23.0898 11.7508 23.3961 10.0752 23.3961H4.77355V20.6291H9.77945C10.8426 20.6291 11.7051 20.4461 12.3669 20.08C13.0287 19.7068 13.5145 19.1999 13.8243 18.5592C14.1341 17.9185 14.289 17.1898 14.289 16.3731C14.289 15.5564 14.1341 14.8312 13.8243 14.1975C13.5145 13.5639 13.0252 13.0675 12.3563 12.7084C11.6945 12.3493 10.8215 12.1698 9.7372 12.1698H5.63955V31H2.37622ZM24.2224 9.37116V31H21.0646V9.37116H24.2224ZM33.1102 31.3591C32.0823 31.3591 31.1529 31.169 30.3221 30.7888C29.4913 30.4015 28.833 29.8418 28.3472 29.1096C27.8685 28.3774 27.6291 27.4797 27.6291 26.4165C27.6291 25.5013 27.8051 24.7479 28.1571 24.1565C28.5092 23.5651 28.9844 23.0969 29.5829 22.7519C30.1813 22.4069 30.8502 22.1464 31.5895 21.9704C32.3287 21.7944 33.0821 21.6606 33.8495 21.5691C34.8211 21.4564 35.6097 21.3649 36.2152 21.2945C36.8206 21.217 37.2607 21.0938 37.5353 20.9248C37.8099 20.7559 37.9471 20.4813 37.9471 20.1011V20.0272C37.9471 19.1048 37.6866 18.3902 37.1656 17.8833C36.6517 17.3764 35.8842 17.1229 34.8633 17.1229C33.8002 17.1229 32.9624 17.3588 32.3498 17.8305C31.7443 18.2952 31.3254 18.8127 31.0931 19.3829L28.1255 18.707C28.4775 17.7214 28.9915 16.9258 29.6674 16.3203C30.3503 15.7077 31.1353 15.2642 32.0225 14.9896C32.9096 14.708 33.8425 14.5671 34.8211 14.5671C35.4688 14.5671 36.1553 14.6446 36.8805 14.7995C37.6127 14.9473 38.2957 15.2219 38.9293 15.6232C39.57 16.0246 40.0945 16.5984 40.5029 17.3447C40.9113 18.0839 41.1154 19.045 41.1154 20.2278V31H38.0316V28.7822H37.9049C37.7007 29.1906 37.3945 29.5919 36.9861 29.9861C36.5777 30.3804 36.0532 30.7078 35.4125 30.9683C34.7718 31.2288 34.0044 31.3591 33.1102 31.3591ZM33.7967 28.8244C34.6697 28.8244 35.416 28.6519 36.0356 28.307C36.6622 27.962 37.1375 27.5114 37.4613 26.9552C37.7923 26.3919 37.9577 25.7899 37.9577 25.1492V23.0582C37.8451 23.1708 37.6268 23.2764 37.3029 23.375C36.9861 23.4665 36.6235 23.5475 36.2152 23.6179C35.8068 23.6813 35.409 23.7411 35.0218 23.7974C34.6345 23.8467 34.3107 23.889 34.0502 23.9242C33.4376 24.0016 32.8779 24.1319 32.371 24.3149C31.8711 24.498 31.4698 24.762 31.167 25.107C30.8713 25.4449 30.7235 25.8955 30.7235 26.4588C30.7235 27.2403 31.0121 27.8317 31.5895 28.233C32.1668 28.6273 32.9025 28.8244 33.7967 28.8244ZM48.398 21.3684V31H45.2403V14.7784H48.2713V17.4186H48.472C48.8451 16.5596 49.4295 15.8697 50.2251 15.3487C51.0277 14.8277 52.038 14.5671 53.2561 14.5671C54.3615 14.5671 55.3295 14.7995 56.1603 15.2642C56.9911 15.7218 57.6353 16.4048 58.093 17.313C58.5506 18.2212 58.7795 19.3442 58.7795 20.6819V31H55.6217V21.0621C55.6217 19.8864 55.3155 18.9675 54.7029 18.3057C54.0904 17.6369 53.249 17.3024 52.1789 17.3024C51.4466 17.3024 50.7954 17.4609 50.2251 17.7777C49.6618 18.0945 49.2147 18.5592 48.8838 19.1717C48.56 19.7772 48.398 20.5094 48.398 21.3684ZM62.9334 31V14.7784H66.0911V31H62.9334ZM64.5281 12.2754C63.9789 12.2754 63.5072 12.0924 63.1129 11.7262C62.7257 11.3531 62.532 10.9095 62.532 10.3956C62.532 9.87456 62.7257 9.431 63.1129 9.06489C63.5072 8.69174 63.9789 8.50516 64.5281 8.50516C65.0772 8.50516 65.5454 8.69174 65.9327 9.06489C66.327 9.431 66.5241 9.87456 66.5241 10.3956C66.5241 10.9095 66.327 11.3531 65.9327 11.7262C65.5454 12.0924 65.0772 12.2754 64.5281 12.2754ZM77.9783 14.7784V17.313H68.8113V14.7784H77.9783ZM71.3249 31V12.8985C71.3249 11.8847 71.5466 11.0433 71.9902 10.3744C72.4338 9.69855 73.0216 9.19514 73.7539 8.86423C74.4861 8.52628 75.2817 8.3573 76.1407 8.3573C76.7743 8.3573 77.3164 8.41011 77.767 8.51572C78.2176 8.61429 78.5521 8.70582 78.7703 8.7903L78.0311 11.3461C77.8832 11.3038 77.6931 11.2545 77.4608 11.1982C77.2284 11.1348 76.9468 11.1032 76.6159 11.1032C75.8485 11.1032 75.2993 11.2933 74.9684 11.6734C74.6445 12.0536 74.4826 12.6028 74.4826 13.321V31H71.3249ZM81.1553 31V14.7784H84.313V31H81.1553ZM82.75 12.2754C82.2008 12.2754 81.7291 12.0924 81.3348 11.7262C80.9476 11.3531 80.754 10.9095 80.754 10.3956C80.754 9.87456 80.9476 9.431 81.3348 9.06489C81.7291 8.69174 82.2008 8.50516 82.75 8.50516C83.2992 8.50516 83.7674 8.69174 84.1546 9.06489C84.5489 9.431 84.746 9.87456 84.746 10.3956C84.746 10.9095 84.5489 11.3531 84.1546 11.7262C83.7674 12.0924 83.2992 12.2754 82.75 12.2754ZM99.4318 37.0831V28.4759H99.2417C99.0516 28.8209 98.7771 29.2152 98.418 29.6588C98.066 30.1023 97.5801 30.4896 96.9606 30.8205C96.341 31.1514 95.5384 31.3168 94.5527 31.3168C93.2431 31.3168 92.0744 30.9824 91.0464 30.3135C90.0255 29.6376 89.2229 28.6766 88.6385 27.4304C88.0612 26.1772 87.7725 24.674 87.7725 22.9209C87.7725 21.1677 88.0647 19.6681 88.6491 18.4219C89.2405 17.1757 90.0502 16.2217 91.0781 15.5599C92.1061 14.8981 93.2713 14.5671 94.5738 14.5671C95.5806 14.5671 96.3903 14.7361 97.0028 15.0741C97.6224 15.405 98.1012 15.7922 98.4391 16.2358C98.7841 16.6793 99.0516 17.0701 99.2417 17.408H99.5058V14.7784H102.59V37.0831H99.4318ZM95.2497 28.6238C96.1579 28.6238 96.9254 28.3844 97.552 27.9056C98.1856 27.4198 98.6644 26.7475 98.9883 25.8885C99.3192 25.0295 99.4846 24.0298 99.4846 22.8892C99.4846 21.7627 99.3227 20.777 98.9988 19.9321C98.675 19.0872 98.1997 18.4289 97.5731 17.9572C96.9465 17.4855 96.172 17.2496 95.2497 17.2496C94.2992 17.2496 93.5071 17.4961 92.8735 17.9889C92.2398 18.4817 91.7611 19.1541 91.4372 20.006C91.1204 20.858 90.9619 21.819 90.9619 22.8892C90.9619 23.9734 91.1239 24.9486 91.4478 25.8146C91.7716 26.6806 92.2504 27.367 92.884 27.874C93.5247 28.3738 94.3133 28.6238 95.2497 28.6238ZM117.03 24.2727V14.7784H120.198V31H117.093V28.1908H116.924C116.551 29.0568 115.953 29.7784 115.129 30.3558C114.312 30.9261 113.295 31.2112 112.077 31.2112C111.035 31.2112 110.112 30.9824 109.31 30.5248C108.514 30.0601 107.888 29.3736 107.43 28.4654C106.979 27.5571 106.754 26.4341 106.754 25.0964V14.7784H109.912V24.7162C109.912 25.8216 110.218 26.7017 110.831 27.3565C111.443 28.0112 112.239 28.3386 113.217 28.3386C113.809 28.3386 114.397 28.1908 114.981 27.8951C115.572 27.5994 116.062 27.1523 116.449 26.5538C116.843 25.9554 117.037 25.195 117.03 24.2727ZM131.351 31.3274C129.753 31.3274 128.377 30.9859 127.222 30.303C126.074 29.613 125.187 28.6449 124.561 27.3987C123.941 26.1455 123.631 24.6775 123.631 22.9948C123.631 21.3332 123.941 19.8687 124.561 18.6014C125.187 17.3341 126.06 16.3449 127.18 15.6338C128.306 14.9227 129.623 14.5671 131.13 14.5671C132.045 14.5671 132.932 14.7185 133.791 15.0213C134.65 15.324 135.421 15.7993 136.104 16.447C136.787 17.0947 137.325 17.9361 137.72 18.9711C138.114 19.999 138.311 21.2487 138.311 22.7202V23.8397H125.416V21.474H135.217C135.217 20.6432 135.048 19.9075 134.71 19.2668C134.372 18.619 133.897 18.1086 133.284 17.7354C132.678 17.3623 131.967 17.1757 131.151 17.1757C130.264 17.1757 129.489 17.394 128.827 17.8305C128.172 18.26 127.666 18.8232 127.306 19.5202C126.954 20.2102 126.778 20.96 126.778 21.7697V23.6179C126.778 24.7021 126.969 25.6245 127.349 26.3849C127.736 27.1453 128.275 27.7261 128.965 28.1274C129.655 28.5217 130.461 28.7188 131.383 28.7188C131.981 28.7188 132.527 28.6343 133.02 28.4654C133.513 28.2894 133.939 28.0289 134.298 27.6839C134.657 27.3389 134.931 26.9129 135.122 26.406L138.11 26.9446C137.871 27.8247 137.441 28.5956 136.822 29.2574C136.209 29.9122 135.438 30.4227 134.509 30.7888C133.587 31.1479 132.534 31.3274 131.351 31.3274Z" fill="#F2F2F2"/>
</svg>
