<svg width="169" height="299" viewBox="0 0 169 299" fill="none" xmlns="http://www.w3.org/2000/svg">
    <path d="M0.932351 28V1.30909H10.4462C12.5227 1.30909 14.2431 1.68704 15.6071 2.44293C16.9712 3.19883 17.9921 4.23275 18.6698 5.54471C19.3475 6.84798 19.6864 8.31632 19.6864 9.94975C19.6864 11.5919 19.3432 13.0689 18.6568 14.3809C17.9791 15.6841 16.9538 16.7181 15.5811 17.4826C14.217 18.2385 12.501 18.6165 10.4332 18.6165H3.89077V15.2019H10.0683C11.3802 15.2019 12.4445 14.976 13.2613 14.5242C14.078 14.0637 14.6775 13.4382 15.0598 12.6475C15.4421 11.8569 15.6332 10.9576 15.6332 9.94975C15.6332 8.94189 15.4421 8.04698 15.0598 7.26502C14.6775 6.48306 14.0736 5.87052 13.2482 5.42741C12.4315 4.9843 11.3541 4.76275 10.0161 4.76275H4.95945V28H0.932351ZM27.8914 1.30909V28H23.9947V1.30909H27.8914ZM38.8594 28.4431C37.5909 28.4431 36.444 28.2085 35.4188 27.7393C34.3936 27.2615 33.5812 26.5708 32.9817 25.6672C32.3909 24.7636 32.0955 23.6558 32.0955 22.3438C32.0955 21.2143 32.3127 20.2847 32.7471 19.5548C33.1815 18.825 33.768 18.2472 34.5065 17.8215C35.245 17.3958 36.0704 17.0743 36.9827 16.8571C37.895 16.6399 38.8247 16.4748 39.7717 16.3618C40.9707 16.2228 41.9438 16.1099 42.691 16.023C43.4382 15.9274 43.9813 15.7754 44.3201 15.5668C44.659 15.3583 44.8284 15.0195 44.8284 14.5503V14.4591C44.8284 13.3209 44.5069 12.439 43.864 11.8134C43.2297 11.1879 42.2827 10.8751 41.0229 10.8751C39.7109 10.8751 38.677 11.1661 37.9211 11.7483C37.1739 12.3217 36.6569 12.9603 36.3702 13.6641L32.708 12.83C33.1424 11.6136 33.7767 10.6318 34.6108 9.88459C35.4536 9.12869 36.4223 8.58132 37.5171 8.24247C38.6118 7.89493 39.763 7.72116 40.9707 7.72116C41.7701 7.72116 42.6172 7.81674 43.5121 8.00788C44.4157 8.19034 45.2585 8.52919 46.0404 9.02443C46.8311 9.51967 47.4784 10.2278 47.9823 11.1488C48.4862 12.061 48.7382 13.247 48.7382 14.7067V28H44.9327V25.2631H44.7763C44.5243 25.7671 44.1463 26.2623 43.6424 26.7489C43.1385 27.2354 42.4912 27.6394 41.7005 27.9609C40.9099 28.2824 39.9629 28.4431 38.8594 28.4431ZM39.7066 25.3153C40.7839 25.3153 41.7049 25.1024 42.4695 24.6767C43.2427 24.2509 43.8292 23.6949 44.2289 23.0085C44.6372 22.3134 44.8414 21.5705 44.8414 20.7799V18.1994C44.7024 18.3384 44.4331 18.4688 44.0334 18.5904C43.6424 18.7034 43.195 18.8033 42.691 18.8902C42.1871 18.9684 41.6962 19.0422 41.2183 19.1117C40.7405 19.1725 40.3408 19.2247 40.0193 19.2681C39.2634 19.3637 38.5727 19.5244 37.9471 19.7503C37.3303 19.9762 36.835 20.302 36.4614 20.7278C36.0965 21.1448 35.914 21.7009 35.914 22.396C35.914 23.3604 36.2703 24.0902 36.9827 24.5854C37.6952 25.072 38.6031 25.3153 39.7066 25.3153ZM57.7252 16.1142V28H53.8285V7.98182H57.5688V11.24H57.8164C58.2769 10.18 58.9981 9.32853 59.9799 8.68558C60.9704 8.04264 62.2171 7.72116 63.7202 7.72116C65.0843 7.72116 66.279 8.00788 67.3042 8.58132C68.3295 9.14607 69.1245 9.98885 69.6892 11.1097C70.254 12.2305 70.5363 13.6163 70.5363 15.2671V28H66.6396V15.7363C66.6396 14.2853 66.2616 13.1514 65.5057 12.3347C64.7498 11.5093 63.7116 11.0966 62.3909 11.0966C61.4873 11.0966 60.6836 11.2921 59.9799 11.6831C59.2848 12.0741 58.7331 12.6475 58.3247 13.4034C57.9251 14.1506 57.7252 15.0542 57.7252 16.1142ZM75.6624 28V7.98182H79.5592V28H75.6624ZM77.6304 4.89307C76.9527 4.89307 76.3705 4.66717 75.884 4.21537C75.4061 3.75489 75.1672 3.20751 75.1672 2.57326C75.1672 1.93031 75.4061 1.38294 75.884 0.931142C76.3705 0.470654 76.9527 0.240411 77.6304 0.240411C78.3081 0.240411 78.8859 0.470654 79.3637 0.931142C79.8503 1.38294 80.0935 1.93031 80.0935 2.57326C80.0935 3.20751 79.8503 3.75489 79.3637 4.21537C78.8859 4.66717 78.3081 4.89307 77.6304 4.89307ZM94.2285 7.98182V11.1097H82.9161V7.98182H94.2285ZM86.0179 28V5.662C86.0179 4.41086 86.2916 3.3726 86.839 2.54719C87.3863 1.7131 88.1118 1.09188 89.0154 0.683522C89.919 0.266475 90.9008 0.0579522 91.9608 0.0579522C92.7428 0.0579522 93.4118 0.123116 93.9678 0.253444C94.5239 0.375081 94.9366 0.488031 95.2059 0.592293L94.2936 3.7462C94.1112 3.69407 93.8766 3.63325 93.5899 3.56374C93.3032 3.48555 92.9556 3.44645 92.5473 3.44645C91.6002 3.44645 90.9225 3.68104 90.5142 4.15021C90.1145 4.61939 89.9147 5.29709 89.9147 6.18331V28H86.0179ZM98.1491 28V7.98182H102.046V28H98.1491ZM100.117 4.89307C99.4393 4.89307 98.8572 4.66717 98.3706 4.21537C97.8928 3.75489 97.6538 3.20751 97.6538 2.57326C97.6538 1.93031 97.8928 1.38294 98.3706 0.931142C98.8572 0.470654 99.4393 0.240411 100.117 0.240411C100.795 0.240411 101.372 0.470654 101.85 0.931142C102.337 1.38294 102.58 1.93031 102.58 2.57326C102.58 3.20751 102.337 3.75489 101.85 4.21537C101.372 4.66717 100.795 4.89307 100.117 4.89307ZM120.703 35.5068V24.8852H120.469C120.234 25.3109 119.895 25.7975 119.452 26.3449C119.018 26.8922 118.418 27.3701 117.653 27.7784C116.889 28.1868 115.898 28.391 114.682 28.391C113.066 28.391 111.624 27.9783 110.355 27.1529C109.095 26.3188 108.105 25.1328 107.384 23.595C106.671 22.0484 106.315 20.1934 106.315 18.03C106.315 15.8666 106.676 14.0159 107.397 12.4781C108.127 10.9402 109.126 9.76295 110.394 8.94624C111.663 8.12952 113.101 7.72116 114.708 7.72116C115.951 7.72116 116.95 7.92969 117.706 8.34673C118.47 8.75509 119.061 9.23295 119.478 9.78033C119.904 10.3277 120.234 10.8099 120.469 11.227H120.794V7.98182H124.6V35.5068H120.703ZM115.542 25.0676C116.663 25.0676 117.61 24.7722 118.383 24.1814C119.165 23.5819 119.756 22.7522 120.156 21.6922C120.564 20.6322 120.768 19.3984 120.768 17.9909C120.768 16.6008 120.568 15.3844 120.169 14.3418C119.769 13.2991 119.183 12.4868 118.409 11.9047C117.636 11.3225 116.68 11.0315 115.542 11.0315C114.369 11.0315 113.392 11.3356 112.61 11.9437C111.828 12.5519 111.237 13.3817 110.837 14.433C110.446 15.4843 110.251 16.6703 110.251 17.9909C110.251 19.3289 110.451 20.5323 110.85 21.601C111.25 22.6696 111.841 23.5168 112.623 24.1423C113.413 24.7592 114.387 25.0676 115.542 25.0676ZM142.42 19.6982V7.98182H146.33V28H142.498V24.5333H142.289C141.829 25.602 141.09 26.4926 140.074 27.205C139.066 27.9088 137.811 28.2607 136.307 28.2607C135.022 28.2607 133.883 27.9783 132.893 27.4135C131.911 26.8401 131.138 25.993 130.573 24.8722C130.017 23.7513 129.739 22.3655 129.739 20.7147V7.98182H133.636V20.2456C133.636 21.6096 134.014 22.6957 134.77 23.5037C135.526 24.3118 136.507 24.7158 137.715 24.7158C138.445 24.7158 139.17 24.5333 139.891 24.1684C140.621 23.8035 141.225 23.2518 141.703 22.5132C142.19 21.7747 142.428 20.8364 142.42 19.6982ZM160.093 28.404C158.121 28.404 156.422 27.9826 154.997 27.1398C153.581 26.2884 152.486 25.0937 151.713 23.5559C150.949 22.0093 150.566 20.1978 150.566 18.1212C150.566 16.0708 150.949 14.2636 151.713 12.6996C152.486 11.1357 153.564 9.915 154.945 9.03746C156.335 8.15993 157.96 7.72116 159.819 7.72116C160.949 7.72116 162.044 7.90797 163.104 8.28157C164.164 8.65517 165.115 9.24164 165.958 10.041C166.801 10.8403 167.465 11.8786 167.952 13.1558C168.438 14.4243 168.682 15.9665 168.682 17.7824V19.1638H152.769V16.2445H164.863C164.863 15.2193 164.655 14.3114 164.237 13.5207C163.82 12.7214 163.234 12.0915 162.478 11.631C161.731 11.1705 160.853 10.9402 159.845 10.9402C158.751 10.9402 157.795 11.2096 156.978 11.7483C156.17 12.2783 155.545 12.9733 155.102 13.8335C154.667 14.685 154.45 15.6103 154.45 16.6094V18.8902C154.45 20.2282 154.685 21.3664 155.154 22.3047C155.632 23.2431 156.296 23.9599 157.148 24.4551C157.999 24.9417 158.994 25.1849 160.132 25.1849C160.871 25.1849 161.544 25.0807 162.152 24.8722C162.76 24.6549 163.286 24.3335 163.729 23.9077C164.172 23.482 164.511 22.9564 164.746 22.3308L168.434 22.9955C168.139 24.0815 167.609 25.0329 166.844 25.8496C166.088 26.6576 165.137 27.2875 163.99 27.7393C162.852 28.1825 161.553 28.404 160.093 28.404Z" fill="#F2F2F2"/>
</svg>

