<svg width="137" height="30" viewBox="0 0 137 30" fill="none" xmlns="http://www.w3.org/2000/svg">
    <path d="M0.376216 23V1.37116H8.08572C9.76843 1.37116 11.1625 1.67742 12.2679 2.28996C13.3732 2.9025 14.2005 3.74033 14.7497 4.80347C15.2989 5.85956 15.5734 7.04943 15.5734 8.37307C15.5734 9.70375 15.2953 10.9007 14.7391 11.9638C14.1899 13.0199 13.3592 13.8577 12.2467 14.4773C11.1414 15.0898 9.75083 15.3961 8.07515 15.3961H2.77355V12.6291H7.77945C8.84258 12.6291 9.70506 12.4461 10.3669 12.08C11.0287 11.7068 11.5145 11.1999 11.8243 10.5592C12.1341 9.91849 12.289 9.18979 12.289 8.37307C12.289 7.55636 12.1341 6.83117 11.8243 6.19751C11.5145 5.56386 11.0252 5.06749 10.3563 4.70842C9.6945 4.34935 8.82146 4.16981 7.7372 4.16981H3.63955V23H0.376216ZM22.2224 1.37116V23H19.0646V1.37116H22.2224ZM31.1102 23.3591C30.0823 23.3591 29.1529 23.169 28.3221 22.7888C27.4913 22.4015 26.833 21.8418 26.3472 21.1096C25.8685 20.3774 25.6291 19.4797 25.6291 18.4165C25.6291 17.5013 25.8051 16.7479 26.1571 16.1565C26.5092 15.5651 26.9844 15.0969 27.5829 14.7519C28.1813 14.4069 28.8502 14.1464 29.5895 13.9704C30.3287 13.7944 31.0821 13.6606 31.8495 13.5691C32.8211 13.4564 33.6097 13.3649 34.2152 13.2945C34.8206 13.217 35.2607 13.0938 35.5353 12.9248C35.8099 12.7559 35.9471 12.4813 35.9471 12.1011V12.0272C35.9471 11.1048 35.6866 10.3902 35.1656 9.88329C34.6517 9.37636 33.8842 9.1229 32.8633 9.1229C31.8002 9.1229 30.9624 9.35876 30.3498 9.83048C29.7443 10.2952 29.3254 10.8127 29.0931 11.3829L26.1255 10.707C26.4775 9.72136 26.9915 8.92576 27.6674 8.32027C28.3503 7.70773 29.1353 7.26417 30.0225 6.98959C30.9096 6.70796 31.8425 6.56715 32.8211 6.56715C33.4688 6.56715 34.1553 6.6446 34.8805 6.79949C35.6127 6.94734 36.2957 7.22193 36.9293 7.62324C37.57 8.02456 38.0945 8.59837 38.5029 9.34468C38.9113 10.0839 39.1154 11.045 39.1154 12.2278V23H36.0316V20.7822H35.9049C35.7007 21.1906 35.3945 21.5919 34.9861 21.9861C34.5777 22.3804 34.0532 22.7078 33.4125 22.9683C32.7718 23.2288 32.0044 23.3591 31.1102 23.3591ZM31.7967 20.8244C32.6697 20.8244 33.416 20.6519 34.0356 20.307C34.6622 19.962 35.1375 19.5114 35.4613 18.9552C35.7923 18.3919 35.9577 17.7899 35.9577 17.1492V15.0582C35.8451 15.1708 35.6268 15.2764 35.3029 15.375C34.9861 15.4665 34.6235 15.5475 34.2152 15.6179C33.8068 15.6813 33.409 15.7411 33.0218 15.7974C32.6345 15.8467 32.3107 15.889 32.0502 15.9242C31.4376 16.0016 30.8779 16.1319 30.371 16.3149C29.8711 16.498 29.4698 16.762 29.167 17.107C28.8713 17.4449 28.7235 17.8955 28.7235 18.4588C28.7235 19.2403 29.0121 19.8317 29.5895 20.233C30.1668 20.6273 30.9025 20.8244 31.7967 20.8244ZM46.398 13.3684V23H43.2403V6.77837H46.2713V9.41861H46.472C46.8451 8.55965 47.4295 7.86967 48.2251 7.34866C49.0277 6.82765 50.038 6.56715 51.2561 6.56715C52.3615 6.56715 53.3295 6.79949 54.1603 7.26417C54.9911 7.72181 55.6353 8.40476 56.093 9.313C56.5506 10.2212 56.7795 11.3442 56.7795 12.6819V23H53.6217V13.0621C53.6217 11.8864 53.3155 10.9675 52.7029 10.3057C52.0904 9.63687 51.249 9.30244 50.1789 9.30244C49.4466 9.30244 48.7954 9.46085 48.2251 9.77768C47.6618 10.0945 47.2147 10.5592 46.8838 11.1717C46.56 11.7772 46.398 12.5094 46.398 13.3684ZM60.9334 23V6.77837H64.0911V23H60.9334ZM62.5281 4.27542C61.9789 4.27542 61.5072 4.09236 61.1129 3.72625C60.7257 3.3531 60.532 2.90954 60.532 2.39557C60.532 1.87456 60.7257 1.431 61.1129 1.06489C61.5072 0.691735 61.9789 0.505159 62.5281 0.505159C63.0772 0.505159 63.5454 0.691735 63.9327 1.06489C64.327 1.431 64.5241 1.87456 64.5241 2.39557C64.5241 2.90954 64.327 3.3531 63.9327 3.72625C63.5454 4.09236 63.0772 4.27542 62.5281 4.27542ZM75.9783 6.77837V9.313H66.8113V6.77837H75.9783ZM69.3249 23V4.89852C69.3249 3.88466 69.5466 3.04331 69.9902 2.37445C70.4338 1.69855 71.0216 1.19514 71.7539 0.864231C72.4861 0.52628 73.2817 0.357304 74.1407 0.357304C74.7743 0.357304 75.3164 0.410109 75.767 0.51572C76.2176 0.614288 76.5521 0.705816 76.7703 0.790304L76.0311 3.34606C75.8832 3.30381 75.6931 3.25453 75.4608 3.1982C75.2284 3.13484 74.9468 3.10315 74.6159 3.10315C73.8485 3.10315 73.2993 3.29325 72.9684 3.67345C72.6445 4.05364 72.4826 4.60281 72.4826 5.32096V23H69.3249ZM79.1553 23V6.77837H82.313V23H79.1553ZM80.75 4.27542C80.2008 4.27542 79.7291 4.09236 79.3348 3.72625C78.9476 3.3531 78.754 2.90954 78.754 2.39557C78.754 1.87456 78.9476 1.431 79.3348 1.06489C79.7291 0.691735 80.2008 0.505159 80.75 0.505159C81.2992 0.505159 81.7674 0.691735 82.1546 1.06489C82.5489 1.431 82.746 1.87456 82.746 2.39557C82.746 2.90954 82.5489 3.3531 82.1546 3.72625C81.7674 4.09236 81.2992 4.27542 80.75 4.27542ZM97.4318 29.0831V20.4759H97.2417C97.0516 20.8209 96.7771 21.2152 96.418 21.6588C96.066 22.1023 95.5801 22.4896 94.9606 22.8205C94.341 23.1514 93.5384 23.3168 92.5527 23.3168C91.2431 23.3168 90.0744 22.9824 89.0464 22.3135C88.0255 21.6376 87.2229 20.6766 86.6385 19.4304C86.0612 18.1772 85.7725 16.674 85.7725 14.9209C85.7725 13.1677 86.0647 11.6681 86.6491 10.4219C87.2405 9.17571 88.0502 8.2217 89.0781 7.55988C90.1061 6.89806 91.2713 6.56715 92.5738 6.56715C93.5806 6.56715 94.3903 6.73612 95.0028 7.07407C95.6224 7.40498 96.1012 7.79222 96.4391 8.23578C96.7841 8.67934 97.0516 9.0701 97.2417 9.40805H97.5058V6.77837H100.59V29.0831H97.4318ZM93.2497 20.6238C94.1579 20.6238 94.9254 20.3844 95.552 19.9056C96.1856 19.4198 96.6644 18.7475 96.9883 17.8885C97.3192 17.0295 97.4846 16.0298 97.4846 14.8892C97.4846 13.7627 97.3227 12.777 96.9988 11.9321C96.675 11.0872 96.1997 10.4289 95.5731 9.95722C94.9465 9.48549 94.172 9.24963 93.2497 9.24963C92.2992 9.24963 91.5071 9.49605 90.8735 9.9889C90.2398 10.4817 89.7611 11.1541 89.4372 12.006C89.1204 12.858 88.9619 13.819 88.9619 14.8892C88.9619 15.9734 89.1239 16.9486 89.4478 17.8146C89.7716 18.6806 90.2504 19.367 90.884 19.874C91.5247 20.3738 92.3133 20.6238 93.2497 20.6238ZM115.03 16.2727V6.77837H118.198V23H115.093V20.1908H114.924C114.551 21.0568 113.953 21.7784 113.129 22.3558C112.312 22.9261 111.295 23.2112 110.077 23.2112C109.035 23.2112 108.112 22.9824 107.31 22.5248C106.514 22.0601 105.888 21.3736 105.43 20.4654C104.979 19.5571 104.754 18.4341 104.754 17.0964V6.77837H107.912V16.7162C107.912 17.8216 108.218 18.7017 108.831 19.3565C109.443 20.0112 110.239 20.3386 111.217 20.3386C111.809 20.3386 112.397 20.1908 112.981 19.8951C113.572 19.5994 114.062 19.1523 114.449 18.5538C114.843 17.9554 115.037 17.195 115.03 16.2727ZM129.351 23.3274C127.753 23.3274 126.377 22.9859 125.222 22.303C124.074 21.613 123.187 20.6449 122.561 19.3987C121.941 18.1455 121.631 16.6775 121.631 14.9948C121.631 13.3332 121.941 11.8687 122.561 10.6014C123.187 9.33412 124.06 8.34491 125.18 7.6338C126.306 6.9227 127.623 6.56715 129.13 6.56715C130.045 6.56715 130.932 6.71852 131.791 7.02127C132.65 7.32402 133.421 7.79926 134.104 8.447C134.787 9.09474 135.325 9.93609 135.72 10.9711C136.114 11.999 136.311 13.2487 136.311 14.7202V15.8397H123.416V13.474H133.217C133.217 12.6432 133.048 11.9075 132.71 11.2668C132.372 10.619 131.897 10.1086 131.284 9.73544C130.678 9.36228 129.967 9.17571 129.151 9.17571C128.264 9.17571 127.489 9.39397 126.827 9.83048C126.172 10.26 125.666 10.8232 125.306 11.5202C124.954 12.2102 124.778 12.96 124.778 13.7697V15.6179C124.778 16.7021 124.969 17.6245 125.349 18.3849C125.736 19.1453 126.275 19.7261 126.965 20.1274C127.655 20.5217 128.461 20.7188 129.383 20.7188C129.981 20.7188 130.527 20.6343 131.02 20.4654C131.513 20.2894 131.939 20.0289 132.298 19.6839C132.657 19.3389 132.931 18.9129 133.122 18.406L136.11 18.9446C135.871 19.8247 135.441 20.5956 134.822 21.2574C134.209 21.9122 133.438 22.4227 132.509 22.7888C131.587 23.1479 130.534 23.3274 129.351 23.3274Z" fill="#F2F2F2"/>
</svg>
