<svg width="56" height="23" viewBox="0 0 56 23" fill="none" xmlns="http://www.w3.org/2000/svg">
    <path d="M13.1728 6.05295C13.0602 5.05318 12.5955 4.27871 11.7788 3.72954C10.962 3.17333 9.93411 2.89523 8.69496 2.89523C7.80784 2.89523 7.04041 3.03604 6.39267 3.31766C5.74493 3.59225 5.24153 3.97244 4.88245 4.45825C4.53042 4.93701 4.35441 5.48266 4.35441 6.0952C4.35441 6.60916 4.4741 7.05272 4.71348 7.42588C4.9599 7.79903 5.28025 8.11234 5.67453 8.3658C6.07584 8.61222 6.50532 8.81992 6.96296 8.9889C7.4206 9.15083 7.86064 9.28461 8.28308 9.39022L10.3953 9.93939C11.0853 10.1084 11.7928 10.3372 12.518 10.6258C13.2432 10.9145 13.9156 11.2947 14.5352 11.7664C15.1547 12.2382 15.6546 12.8225 16.0348 13.5196C16.4221 14.2166 16.6157 15.0509 16.6157 16.0225C16.6157 17.2476 16.2988 18.3353 15.6652 19.2858C15.0386 20.2363 14.1268 20.9861 12.9299 21.5353C11.74 22.0845 10.3002 22.3591 8.61047 22.3591C6.99113 22.3591 5.59004 22.1021 4.40721 21.5881C3.22438 21.0742 2.29854 20.3454 1.62968 19.402C0.960818 18.4515 0.591184 17.325 0.520778 16.0225H3.79468C3.85804 16.804 4.1115 17.4553 4.55506 17.9763C5.00567 18.4902 5.57948 18.874 6.2765 19.1274C6.98056 19.3738 7.75151 19.4971 8.58935 19.4971C9.51167 19.4971 10.3319 19.3527 11.0501 19.0641C11.7752 18.7683 12.3455 18.36 12.7609 17.839C13.1763 17.3109 13.384 16.6949 13.384 15.9908C13.384 15.3501 13.201 14.8256 12.8349 14.4172C12.4758 14.0089 11.9865 13.6709 11.3669 13.4034C10.7543 13.1358 10.0608 12.9 9.28637 12.6958L6.73062 11.9988C4.99862 11.527 3.6257 10.8335 2.61185 9.91826C1.60504 9.00298 1.10163 7.79199 1.10163 6.28529C1.10163 5.0391 1.43958 3.95132 2.11548 3.02196C2.79138 2.09259 3.70667 1.37093 4.86133 0.856962C6.016 0.335954 7.31852 0.0754499 8.76889 0.0754499C10.2333 0.0754499 11.5253 0.332433 12.6448 0.8464C13.7713 1.36037 14.6584 2.06795 15.3061 2.96915C15.9539 3.86331 16.2918 4.89125 16.32 6.05295H13.1728ZM20.4343 22V0.371157H28.355C29.8899 0.371157 31.1607 0.62462 32.1675 1.13155C33.1743 1.63143 33.9277 2.31085 34.4275 3.16981C34.9274 4.02173 35.1774 4.98278 35.1774 6.05295C35.1774 6.95415 35.0119 7.71454 34.681 8.33412C34.3501 8.94665 33.9065 9.4395 33.3503 9.81265C32.8012 10.1788 32.1957 10.4463 31.5338 10.6153V10.8265C32.252 10.8617 32.9525 11.0941 33.6355 11.5235C34.3255 11.946 34.8958 12.5479 35.3464 13.3295C35.797 14.111 36.0223 15.0615 36.0223 16.1809C36.0223 17.2863 35.7618 18.279 35.2407 19.1591C34.7268 20.0321 33.9312 20.7256 32.854 21.2396C31.7767 21.7465 30.4003 22 28.7246 22H20.4343ZM23.6976 19.2013H28.4078C29.9708 19.2013 31.0903 18.8986 31.7662 18.2931C32.4421 17.6876 32.78 16.9307 32.78 16.0225C32.78 15.3396 32.6075 14.7129 32.2626 14.1426C31.9176 13.5724 31.4247 13.1182 30.784 12.7803C30.1504 12.4423 29.397 12.2734 28.524 12.2734H23.6976V19.2013ZM23.6976 9.72817H28.0699C28.8021 9.72817 29.4604 9.58735 30.0448 9.30573C30.6362 9.0241 31.1044 8.62983 31.4494 8.1229C31.8014 7.60893 31.9774 7.00344 31.9774 6.30642C31.9774 5.41225 31.6641 4.66243 31.0375 4.05693C30.4109 3.45144 29.4498 3.14869 28.1543 3.14869H23.6976V9.72817ZM51.6084 6.05295C51.4957 5.05318 51.0311 4.27871 50.2144 3.72954C49.3976 3.17333 48.3697 2.89523 47.1306 2.89523C46.2434 2.89523 45.476 3.03604 44.8283 3.31766C44.1805 3.59225 43.6771 3.97244 43.318 4.45825C42.966 4.93701 42.79 5.48266 42.79 6.0952C42.79 6.60916 42.9097 7.05272 43.1491 7.42588C43.3955 7.79903 43.7158 8.11234 44.1101 8.3658C44.5114 8.61222 44.9409 8.81992 45.3986 8.9889C45.8562 9.15083 46.2962 9.28461 46.7187 9.39022L48.8309 9.93939C49.5208 10.1084 50.2284 10.3372 50.9536 10.6258C51.6788 10.9145 52.3512 11.2947 52.9708 11.7664C53.5903 12.2382 54.0902 12.8225 54.4704 13.5196C54.8577 14.2166 55.0513 15.0509 55.0513 16.0225C55.0513 17.2476 54.7344 18.3353 54.1008 19.2858C53.4742 20.2363 52.5624 20.9861 51.3655 21.5353C50.1756 22.0845 48.7358 22.3591 47.0461 22.3591C45.4267 22.3591 44.0256 22.1021 42.8428 21.5881C41.66 21.0742 40.7341 20.3454 40.0653 19.402C39.3964 18.4515 39.0268 17.325 38.9564 16.0225H42.2303C42.2936 16.804 42.5471 17.4553 42.9907 17.9763C43.4413 18.4902 44.0151 18.874 44.7121 19.1274C45.4162 19.3738 46.1871 19.4971 47.0249 19.4971C47.9473 19.4971 48.7675 19.3527 49.4856 19.0641C50.2108 18.7683 50.7811 18.36 51.1965 17.839C51.6119 17.3109 51.8196 16.6949 51.8196 15.9908C51.8196 15.3501 51.6366 14.8256 51.2704 14.4172C50.9114 14.0089 50.4221 13.6709 49.8025 13.4034C49.1899 13.1358 48.4964 12.9 47.722 12.6958L45.1662 11.9988C43.4342 11.527 42.0613 10.8335 41.0474 9.91826C40.0406 9.00298 39.5372 7.79199 39.5372 6.28529C39.5372 5.0391 39.8752 3.95132 40.5511 3.02196C41.227 2.09259 42.1423 1.37093 43.2969 0.856962C44.4516 0.335954 45.7541 0.0754499 47.2045 0.0754499C48.6689 0.0754499 49.9609 0.332433 51.0804 0.8464C52.2069 1.36037 53.094 2.06795 53.7417 2.96915C54.3895 3.86331 54.7274 4.89125 54.7556 6.05295H51.6084Z" fill="#F2F2F2"/>
</svg>
