<svg width="400" height="194" viewBox="0 0 400 194" fill="none" xmlns="http://www.w3.org/2000/svg">
    <path d="M14.1728 15.053C14.0602 14.0532 13.5955 13.2787 12.7788 12.7295C11.962 12.1733 10.9341 11.8952 9.69496 11.8952C8.80784 11.8952 8.04041 12.036 7.39267 12.3177C6.74493 12.5922 6.24153 12.9724 5.88245 13.4582C5.53042 13.937 5.35441 14.4827 5.35441 15.0952C5.35441 15.6092 5.4741 16.0527 5.71348 16.4259C5.9599 16.799 6.28025 17.1123 6.67453 17.3658C7.07584 17.6122 7.50532 17.8199 7.96296 17.9889C8.4206 18.1508 8.86064 18.2846 9.28308 18.3902L11.3953 18.9394C12.0853 19.1084 12.7928 19.3372 13.518 19.6258C14.2432 19.9145 14.9156 20.2947 15.5352 20.7664C16.1547 21.2382 16.6546 21.8225 17.0348 22.5196C17.4221 23.2166 17.6157 24.0509 17.6157 25.0225C17.6157 26.2476 17.2988 27.3353 16.6652 28.2858C16.0386 29.2363 15.1268 29.9861 13.9299 30.5353C12.74 31.0845 11.3002 31.3591 9.61047 31.3591C7.99113 31.3591 6.59004 31.1021 5.40721 30.5881C4.22438 30.0742 3.29854 29.3454 2.62968 28.402C1.96082 27.4515 1.59118 26.325 1.52078 25.0225H4.79468C4.85804 25.804 5.1115 26.4553 5.55506 26.9763C6.00567 27.4902 6.57948 27.874 7.2765 28.1274C7.98056 28.3738 8.75151 28.4971 9.58935 28.4971C10.5117 28.4971 11.3319 28.3527 12.0501 28.0641C12.7752 27.7683 13.3455 27.36 13.7609 26.839C14.1763 26.3109 14.384 25.6949 14.384 24.9908C14.384 24.3501 14.201 23.8256 13.8349 23.4172C13.4758 23.0089 12.9865 22.6709 12.3669 22.4034C11.7543 22.1358 11.0608 21.9 10.2864 21.6958L7.73062 20.9988C5.99862 20.527 4.6257 19.8335 3.61185 18.9183C2.60504 18.003 2.10163 16.792 2.10163 15.2853C2.10163 14.0391 2.43958 12.9513 3.11548 12.022C3.79138 11.0926 4.70667 10.3709 5.86133 9.85696C7.016 9.33595 8.31852 9.07545 9.76889 9.07545C11.2333 9.07545 12.5253 9.33243 13.6448 9.8464C14.7713 10.3604 15.6584 11.068 16.3061 11.9692C16.9539 12.8633 17.2918 13.8912 17.32 15.053H14.1728ZM21.4343 31V9.37116H29.355C30.8899 9.37116 32.1607 9.62462 33.1675 10.1315C34.1743 10.6314 34.9277 11.3109 35.4275 12.1698C35.9274 13.0217 36.1774 13.9828 36.1774 15.053C36.1774 15.9542 36.0119 16.7145 35.681 17.3341C35.3501 17.9467 34.9065 18.4395 34.3503 18.8127C33.8012 19.1788 33.1957 19.4463 32.5338 19.6153V19.8265C33.252 19.8617 33.9525 20.0941 34.6355 20.5235C35.3255 20.946 35.8958 21.5479 36.3464 22.3295C36.797 23.111 37.0223 24.0615 37.0223 25.1809C37.0223 26.2863 36.7618 27.279 36.2407 28.1591C35.7268 29.0321 34.9312 29.7256 33.854 30.2396C32.7767 30.7465 31.4003 31 29.7246 31H21.4343ZM24.6976 28.2013H29.4078C30.9708 28.2013 32.0903 27.8986 32.7662 27.2931C33.4421 26.6876 33.78 25.9307 33.78 25.0225C33.78 24.3396 33.6075 23.7129 33.2626 23.1426C32.9176 22.5724 32.4247 22.1182 31.784 21.7803C31.1504 21.4423 30.397 21.2734 29.524 21.2734H24.6976V28.2013ZM24.6976 18.7282H29.0699C29.8021 18.7282 30.4604 18.5874 31.0448 18.3057C31.6362 18.0241 32.1044 17.6298 32.4494 17.1229C32.8014 16.6089 32.9774 16.0034 32.9774 15.3064C32.9774 14.4123 32.6641 13.6624 32.0375 13.0569C31.4109 12.4514 30.4498 12.1487 29.1543 12.1487H24.6976V18.7282ZM52.6084 15.053C52.4957 14.0532 52.0311 13.2787 51.2144 12.7295C50.3976 12.1733 49.3697 11.8952 48.1306 11.8952C47.2434 11.8952 46.476 12.036 45.8283 12.3177C45.1805 12.5922 44.6771 12.9724 44.318 13.4582C43.966 13.937 43.79 14.4827 43.79 15.0952C43.79 15.6092 43.9097 16.0527 44.1491 16.4259C44.3955 16.799 44.7158 17.1123 45.1101 17.3658C45.5114 17.6122 45.9409 17.8199 46.3986 17.9889C46.8562 18.1508 47.2962 18.2846 47.7187 18.3902L49.8309 18.9394C50.5208 19.1084 51.2284 19.3372 51.9536 19.6258C52.6788 19.9145 53.3512 20.2947 53.9708 20.7664C54.5903 21.2382 55.0902 21.8225 55.4704 22.5196C55.8577 23.2166 56.0513 24.0509 56.0513 25.0225C56.0513 26.2476 55.7344 27.3353 55.1008 28.2858C54.4742 29.2363 53.5624 29.9861 52.3655 30.5353C51.1756 31.0845 49.7358 31.3591 48.0461 31.3591C46.4267 31.3591 45.0256 31.1021 43.8428 30.5881C42.66 30.0742 41.7341 29.3454 41.0653 28.402C40.3964 27.4515 40.0268 26.325 39.9564 25.0225H43.2303C43.2936 25.804 43.5471 26.4553 43.9907 26.9763C44.4413 27.4902 45.0151 27.874 45.7121 28.1274C46.4162 28.3738 47.1871 28.4971 48.0249 28.4971C48.9473 28.4971 49.7675 28.3527 50.4856 28.0641C51.2108 27.7683 51.7811 27.36 52.1965 26.839C52.6119 26.3109 52.8196 25.6949 52.8196 24.9908C52.8196 24.3501 52.6366 23.8256 52.2704 23.4172C51.9114 23.0089 51.4221 22.6709 50.8025 22.4034C50.1899 22.1358 49.4964 21.9 48.722 21.6958L46.1662 20.9988C44.4342 20.527 43.0613 19.8335 42.0474 18.9183C41.0406 18.003 40.5372 16.792 40.5372 15.2853C40.5372 14.0391 40.8752 12.9513 41.5511 12.022C42.227 11.0926 43.1423 10.3709 44.2969 9.85696C45.4516 9.33595 46.7541 9.07545 48.2045 9.07545C49.6689 9.07545 50.9609 9.33243 52.0804 9.8464C53.2069 10.3604 54.094 11.068 54.7417 11.9692C55.3895 12.8633 55.7274 13.8912 55.7556 15.053H52.6084Z" fill="#F2F2F2"/>
</svg>
