<svg width="418" height="166" viewBox="0 0 418 166" fill="none" xmlns="http://www.w3.org/2000/svg">
    <path d="M16.4898 8.32067C16.3508 7.08691 15.7774 6.13118 14.7695 5.45348C13.7617 4.76709 12.4932 4.4239 10.964 4.4239C9.86925 4.4239 8.92221 4.59767 8.12287 4.9452C7.32353 5.28405 6.70231 5.75323 6.2592 6.35273C5.82478 6.94355 5.60756 7.6169 5.60756 8.3728C5.60756 9.00705 5.75527 9.55443 6.05068 10.0149C6.35477 10.4754 6.7501 10.862 7.23665 11.1748C7.73189 11.4789 8.26188 11.7352 8.82663 11.9437C9.39138 12.1436 9.93441 12.3087 10.4557 12.439L13.0623 13.1167C13.9137 13.3252 14.7869 13.6076 15.6818 13.9638C16.5767 14.32 17.4065 14.7892 18.1711 15.3713C18.9356 15.9535 19.5525 16.6746 20.0217 17.5348C20.4996 18.3949 20.7385 19.4245 20.7385 20.6235C20.7385 22.1353 20.3475 23.4777 19.5656 24.6506C18.7923 25.8235 17.6671 26.7489 16.1901 27.4266C14.7217 28.1043 12.945 28.4431 10.8597 28.4431C8.86139 28.4431 7.13239 28.126 5.67273 27.4917C4.21307 26.8575 3.07054 25.9582 2.24514 24.794C1.41973 23.621 0.963589 22.2309 0.876705 20.6235H4.91683C4.99503 21.5879 5.30781 22.3916 5.85519 23.0346C6.41125 23.6688 7.11935 24.1423 7.97951 24.4551C8.84835 24.7592 9.79974 24.9113 10.8337 24.9113C11.9719 24.9113 12.9841 24.7331 13.8703 24.3769C14.7652 24.012 15.469 23.5081 15.9816 22.8651C16.4942 22.2135 16.7505 21.4533 16.7505 20.5844C16.7505 19.7938 16.5246 19.1465 16.0728 18.6425C15.6297 18.1386 15.0258 17.7216 14.2613 17.3914C13.5054 17.0612 12.6496 16.7702 11.6938 16.5182L8.53992 15.6581C6.40256 15.0759 4.70831 14.2201 3.45717 13.0906C2.21473 11.9611 1.5935 10.4667 1.5935 8.60738C1.5935 7.06953 2.01055 5.72716 2.84464 4.58029C3.67873 3.43341 4.80823 2.54285 6.23313 1.90859C7.65804 1.26565 9.2654 0.944175 11.0552 0.944175C12.8624 0.944175 14.4567 1.2613 15.8382 1.89556C17.2284 2.52982 18.3231 3.40301 19.1224 4.51513C19.9218 5.61856 20.3388 6.88707 20.3736 8.32067H16.4898ZM33.5702 28.404C31.6935 28.404 30.0557 27.9739 28.6568 27.1138C27.258 26.2536 26.1719 25.0503 25.3987 23.5037C24.6254 21.9572 24.2388 20.15 24.2388 18.0821C24.2388 16.0056 24.6254 14.1897 25.3987 12.6345C26.1719 11.0792 27.258 9.87155 28.6568 9.0114C30.0557 8.15124 31.6935 7.72116 33.5702 7.72116C35.4469 7.72116 37.0846 8.15124 38.4835 9.0114C39.8823 9.87155 40.9684 11.0792 41.7416 12.6345C42.5149 14.1897 42.9016 16.0056 42.9016 18.0821C42.9016 20.15 42.5149 21.9572 41.7416 23.5037C40.9684 25.0503 39.8823 26.2536 38.4835 27.1138C37.0846 27.9739 35.4469 28.404 33.5702 28.404ZM33.5832 25.1328C34.7996 25.1328 35.8074 24.8113 36.6068 24.1684C37.4061 23.5254 37.9969 22.6696 38.3792 21.601C38.7702 20.5323 38.9657 19.355 38.9657 18.0691C38.9657 16.7919 38.7702 15.619 38.3792 14.5503C37.9969 13.4729 37.4061 12.6084 36.6068 11.9568C35.8074 11.3051 34.7996 10.9793 33.5832 10.9793C32.3581 10.9793 31.3416 11.3051 30.5336 11.9568C29.7342 12.6084 29.1391 13.4729 28.7481 14.5503C28.3658 15.619 28.1746 16.7919 28.1746 18.0691C28.1746 19.355 28.3658 20.5323 28.7481 21.601C29.1391 22.6696 29.7342 23.5254 30.5336 24.1684C31.3416 24.8113 32.3581 25.1328 33.5832 25.1328ZM47.1512 35.5068V7.98182H50.9567V11.227H51.2826C51.5085 10.8099 51.8343 10.3277 52.26 9.78033C52.6858 9.23295 53.2766 8.75509 54.0325 8.34673C54.7884 7.92969 55.7875 7.72116 57.03 7.72116C58.646 7.72116 60.0883 8.12952 61.3568 8.94624C62.6253 9.76295 63.6202 10.9402 64.3413 12.4781C65.0711 14.0159 65.436 15.8666 65.436 18.03C65.436 20.1934 65.0755 22.0484 64.3543 23.595C63.6332 25.1328 62.6427 26.3188 61.3829 27.1529C60.1231 27.9783 58.6851 28.391 57.0691 28.391C55.8527 28.391 54.8579 28.1868 54.0846 27.7784C53.32 27.3701 52.7205 26.8922 52.2861 26.3449C51.8517 25.7975 51.5172 25.3109 51.2826 24.8852H51.048V35.5068H47.1512ZM50.9698 17.9909C50.9698 19.3984 51.174 20.6322 51.5823 21.6922C51.9907 22.7522 52.5815 23.5819 53.3548 24.1814C54.128 24.7722 55.0751 25.0676 56.1959 25.0676C57.3601 25.0676 58.3332 24.7592 59.1152 24.1423C59.8972 23.5168 60.488 22.6696 60.8876 21.601C61.296 20.5323 61.5002 19.3289 61.5002 17.9909C61.5002 16.6703 61.3003 15.4843 60.9007 14.433C60.5097 13.3817 59.9189 12.5519 59.1282 11.9437C58.3463 11.3356 57.3688 11.0315 56.1959 11.0315C55.0664 11.0315 54.1107 11.3225 53.3287 11.9047C52.5554 12.4868 51.969 13.2991 51.5693 14.3418C51.1696 15.3844 50.9698 16.6008 50.9698 17.9909ZM69.702 28V7.98182H73.4684V11.1618H73.677C74.0419 10.0844 74.6848 9.2373 75.6058 8.62042C76.5355 7.99485 77.5868 7.68207 78.7597 7.68207C79.003 7.68207 79.2897 7.69075 79.6199 7.70813C79.9587 7.72551 80.2237 7.74723 80.4148 7.77329V11.5006C80.2585 11.4572 79.9804 11.4094 79.5808 11.3573C79.1811 11.2965 78.7814 11.266 78.3817 11.266C77.4608 11.266 76.6397 11.4615 75.9186 11.8525C75.2061 12.2348 74.6414 12.7692 74.2243 13.4555C73.8073 14.1332 73.5988 14.9065 73.5988 15.7754V28H69.702ZM89.3335 28.4431C88.0649 28.4431 86.9181 28.2085 85.8928 27.7393C84.8676 27.2615 84.0552 26.5708 83.4557 25.6672C82.8649 24.7636 82.5695 23.6558 82.5695 22.3438C82.5695 21.2143 82.7867 20.2847 83.2211 19.5548C83.6556 18.825 84.242 18.2472 84.9805 17.8215C85.7191 17.3958 86.5445 17.0743 87.4567 16.8571C88.369 16.6399 89.2987 16.4748 90.2457 16.3618C91.4447 16.2228 92.4179 16.1099 93.1651 16.023C93.9123 15.9274 94.4553 15.7754 94.7941 15.5668C95.133 15.3583 95.3024 15.0195 95.3024 14.5503V14.4591C95.3024 13.3209 94.9809 12.439 94.338 11.8134C93.7037 11.1879 92.7567 10.8751 91.4969 10.8751C90.1849 10.8751 89.151 11.1661 88.3951 11.7483C87.6479 12.3217 87.1309 12.9603 86.8442 13.6641L83.182 12.83C83.6165 11.6136 84.2507 10.6318 85.0848 9.88459C85.9276 9.12869 86.8963 8.58132 87.9911 8.24247C89.0858 7.89493 90.2371 7.72116 91.4447 7.72116C92.2441 7.72116 93.0912 7.81674 93.9861 8.00788C94.8897 8.19034 95.7325 8.52919 96.5145 9.02443C97.3051 9.51967 97.9524 10.2278 98.4563 11.1488C98.9603 12.061 99.2122 13.247 99.2122 14.7067V28H95.4067V25.2631H95.2503C94.9983 25.7671 94.6204 26.2623 94.1164 26.7489C93.6125 27.2354 92.9652 27.6394 92.1746 27.9609C91.3839 28.2824 90.4369 28.4431 89.3335 28.4431ZM90.1806 25.3153C91.2579 25.3153 92.1789 25.1024 92.9435 24.6767C93.7168 24.2509 94.3032 23.6949 94.7029 23.0085C95.1113 22.3134 95.3154 21.5705 95.3154 20.7799V18.1994C95.1764 18.3384 94.9071 18.4688 94.5074 18.5904C94.1164 18.7034 93.669 18.8033 93.1651 18.8902C92.6611 18.9684 92.1702 19.0422 91.6924 19.1117C91.2145 19.1725 90.8148 19.2247 90.4934 19.2681C89.7375 19.3637 89.0467 19.5244 88.4212 19.7503C87.8043 19.9762 87.309 20.302 86.9354 20.7278C86.5705 21.1448 86.3881 21.7009 86.3881 22.396C86.3881 23.3604 86.7443 24.0902 87.4567 24.5854C88.1692 25.072 89.0771 25.3153 90.1806 25.3153ZM114.228 28V1.30909H124.002C125.896 1.30909 127.465 1.62187 128.707 2.24744C129.95 2.86432 130.879 3.70276 131.496 4.76275C132.113 5.81405 132.421 7.00002 132.421 8.32067C132.421 9.43279 132.217 10.3711 131.809 11.1357C131.401 11.8916 130.853 12.4998 130.167 12.9603C129.489 13.4121 128.742 13.7423 127.925 13.9508V14.2114C128.811 14.2549 129.676 14.5416 130.519 15.0716C131.37 15.5929 132.074 16.3358 132.63 17.3002C133.186 18.2646 133.464 19.4375 133.464 20.819C133.464 22.1831 133.143 23.4082 132.5 24.4942C131.865 25.5716 130.884 26.4274 129.554 27.0616C128.225 27.6872 126.526 28 124.459 28H114.228ZM118.255 24.5463H124.068C125.996 24.5463 127.378 24.1727 128.212 23.4255C129.046 22.6783 129.463 21.7443 129.463 20.6235C129.463 19.7807 129.25 19.0075 128.824 18.3037C128.399 17.5999 127.791 17.0395 127 16.6225C126.218 16.2054 125.288 15.9969 124.211 15.9969H118.255V24.5463ZM118.255 12.856H123.65C124.554 12.856 125.366 12.6823 126.088 12.3347C126.817 11.9872 127.395 11.5006 127.821 10.8751C128.255 10.2408 128.473 9.49361 128.473 8.63345C128.473 7.53002 128.086 6.6047 127.313 5.85749C126.539 5.11029 125.353 4.73668 123.755 4.73668H118.255V12.856ZM143.653 28.4431C142.385 28.4431 141.238 28.2085 140.213 27.7393C139.188 27.2615 138.375 26.5708 137.776 25.6672C137.185 24.7636 136.889 23.6558 136.889 22.3438C136.889 21.2143 137.107 20.2847 137.541 19.5548C137.975 18.825 138.562 18.2472 139.3 17.8215C140.039 17.3958 140.864 17.0743 141.777 16.8571C142.689 16.6399 143.619 16.4748 144.566 16.3618C145.765 16.2228 146.738 16.1099 147.485 16.023C148.232 15.9274 148.775 15.7754 149.114 15.5668C149.453 15.3583 149.622 15.0195 149.622 14.5503V14.4591C149.622 13.3209 149.301 12.439 148.658 11.8134C148.024 11.1879 147.077 10.8751 145.817 10.8751C144.505 10.8751 143.471 11.1661 142.715 11.7483C141.968 12.3217 141.451 12.9603 141.164 13.6641L137.502 12.83C137.936 11.6136 138.571 10.6318 139.405 9.88459C140.248 9.12869 141.216 8.58132 142.311 8.24247C143.406 7.89493 144.557 7.72116 145.765 7.72116C146.564 7.72116 147.411 7.81674 148.306 8.00788C149.21 8.19034 150.052 8.52919 150.834 9.02443C151.625 9.51967 152.272 10.2278 152.776 11.1488C153.28 12.061 153.532 13.247 153.532 14.7067V28H149.727V25.2631H149.57C149.318 25.7671 148.94 26.2623 148.436 26.7489C147.932 27.2354 147.285 27.6394 146.494 27.9609C145.704 28.2824 144.757 28.4431 143.653 28.4431ZM144.501 25.3153C145.578 25.3153 146.499 25.1024 147.263 24.6767C148.037 24.2509 148.623 23.6949 149.023 23.0085C149.431 22.3134 149.635 21.5705 149.635 20.7799V18.1994C149.496 18.3384 149.227 18.4688 148.827 18.5904C148.436 18.7034 147.989 18.8033 147.485 18.8902C146.981 18.9684 146.49 19.0422 146.012 19.1117C145.534 19.1725 145.135 19.2247 144.813 19.2681C144.057 19.3637 143.367 19.5244 142.741 19.7503C142.124 19.9762 141.629 20.302 141.255 20.7278C140.89 21.1448 140.708 21.7009 140.708 22.396C140.708 23.3604 141.064 24.0902 141.777 24.5854C142.489 25.072 143.397 25.3153 144.501 25.3153ZM162.519 16.1142V28H158.622V7.98182H162.363V11.24H162.61C163.071 10.18 163.792 9.32853 164.774 8.68558C165.764 8.04264 167.011 7.72116 168.514 7.72116C169.878 7.72116 171.073 8.00788 172.098 8.58132C173.123 9.14607 173.918 9.98885 174.483 11.1097C175.048 12.2305 175.33 13.6163 175.33 15.2671V28H171.434V15.7363C171.434 14.2853 171.056 13.1514 170.3 12.3347C169.544 11.5093 168.506 11.0966 167.185 11.0966C166.281 11.0966 165.478 11.2921 164.774 11.6831C164.079 12.0741 163.527 12.6475 163.119 13.4034C162.719 14.1506 162.519 15.0542 162.519 16.1142ZM184.04 21.21L184.014 16.4531H184.692L192.668 7.98182H197.334L188.237 17.626H187.624L184.04 21.21ZM180.456 28V1.30909H184.353V28H180.456ZM193.098 28L185.93 18.4861L188.615 15.7623L197.881 28H193.098ZM200.785 28V7.98182H204.682V28H200.785ZM202.753 4.89307C202.075 4.89307 201.493 4.66717 201.007 4.21537C200.529 3.75489 200.29 3.20751 200.29 2.57326C200.29 1.93031 200.529 1.38294 201.007 0.931142C201.493 0.470654 202.075 0.240411 202.753 0.240411C203.431 0.240411 204.009 0.470654 204.486 0.931142C204.973 1.38294 205.216 1.93031 205.216 2.57326C205.216 3.20751 204.973 3.75489 204.486 4.21537C204.009 4.66717 203.431 4.89307 202.753 4.89307ZM213.721 16.1142V28H209.824V7.98182H213.565V11.24H213.812C214.273 10.18 214.994 9.32853 215.976 8.68558C216.966 8.04264 218.213 7.72116 219.716 7.72116C221.08 7.72116 222.275 8.00788 223.3 8.58132C224.325 9.14607 225.12 9.98885 225.685 11.1097C226.25 12.2305 226.532 13.6163 226.532 15.2671V28H222.635V15.7363C222.635 14.2853 222.257 13.1514 221.502 12.3347C220.746 11.5093 219.707 11.0966 218.387 11.0966C217.483 11.0966 216.679 11.2921 215.976 11.6831C215.281 12.0741 214.729 12.6475 214.321 13.4034C213.921 14.1506 213.721 15.0542 213.721 16.1142ZM240.051 35.9239C238.461 35.9239 237.093 35.7153 235.946 35.2983C234.808 34.8813 233.878 34.3295 233.157 33.6431C232.436 32.9568 231.897 32.2052 231.541 31.3885L234.89 30.007C235.125 30.3893 235.438 30.7933 235.829 31.2191C236.228 31.6535 236.767 32.0228 237.445 32.3268C238.131 32.6309 239.013 32.783 240.09 32.783C241.567 32.783 242.788 32.4224 243.753 31.7013C244.717 30.9888 245.199 29.8506 245.199 28.2867V24.3509H244.952C244.717 24.7766 244.378 25.2501 243.935 25.7714C243.501 26.2927 242.901 26.7445 242.137 27.1268C241.372 27.5091 240.377 27.7002 239.152 27.7002C237.571 27.7002 236.146 27.331 234.877 26.5925C233.617 25.8453 232.618 24.7462 231.88 23.2952C231.15 21.8355 230.785 20.0414 230.785 17.9127C230.785 15.784 231.146 13.9595 231.867 12.439C232.597 10.9185 233.596 9.75426 234.864 8.94624C236.133 8.12952 237.571 7.72116 239.178 7.72116C240.421 7.72116 241.424 7.92969 242.189 8.34673C242.953 8.75509 243.548 9.23295 243.974 9.78033C244.409 10.3277 244.743 10.8099 244.978 11.227H245.264V7.98182H249.083V28.4431C249.083 30.1634 248.683 31.5753 247.884 32.6787C247.085 33.7822 246.003 34.5989 244.639 35.1289C243.283 35.6589 241.754 35.9239 240.051 35.9239ZM240.012 24.4681C241.133 24.4681 242.08 24.2075 242.853 23.6862C243.635 23.1562 244.226 22.4003 244.626 21.4185C245.034 20.428 245.238 19.242 245.238 17.8606C245.238 16.5139 245.038 15.3279 244.639 14.3027C244.239 13.2774 243.653 12.4781 242.879 11.9047C242.106 11.3225 241.15 11.0315 240.012 11.0315C238.839 11.0315 237.862 11.3356 237.08 11.9437C236.298 12.5433 235.707 13.36 235.307 14.3939C234.916 15.4278 234.721 16.5834 234.721 17.8606C234.721 19.1725 234.921 20.3238 235.32 21.3142C235.72 22.3047 236.311 23.078 237.093 23.6341C237.884 24.1901 238.857 24.4681 240.012 24.4681ZM278.692 8.32067C278.553 7.08691 277.979 6.13118 276.972 5.45348C275.964 4.76709 274.695 4.4239 273.166 4.4239C272.071 4.4239 271.124 4.59767 270.325 4.9452C269.526 5.28405 268.904 5.75323 268.461 6.35273C268.027 6.94355 267.81 7.6169 267.81 8.3728C267.81 9.00705 267.957 9.55443 268.253 10.0149C268.557 10.4754 268.952 10.862 269.439 11.1748C269.934 11.4789 270.464 11.7352 271.029 11.9437C271.593 12.1436 272.136 12.3087 272.658 12.439L275.264 13.1167C276.116 13.3252 276.989 13.6076 277.884 13.9638C278.779 14.32 279.609 14.7892 280.373 15.3713C281.138 15.9535 281.755 16.6746 282.224 17.5348C282.702 18.3949 282.941 19.4245 282.941 20.6235C282.941 22.1353 282.55 23.4777 281.768 24.6506C280.994 25.8235 279.869 26.7489 278.392 27.4266C276.924 28.1043 275.147 28.4431 273.062 28.4431C271.063 28.4431 269.334 28.126 267.875 27.4917C266.415 26.8575 265.273 25.9582 264.447 24.794C263.622 23.621 263.166 22.2309 263.079 20.6235H267.119C267.197 21.5879 267.51 22.3916 268.057 23.0346C268.613 23.6688 269.321 24.1423 270.182 24.4551C271.05 24.7592 272.002 24.9113 273.036 24.9113C274.174 24.9113 275.186 24.7331 276.072 24.3769C276.967 24.012 277.671 23.5081 278.184 22.8651C278.696 22.2135 278.953 21.4533 278.953 20.5844C278.953 19.7938 278.727 19.1465 278.275 18.6425C277.832 18.1386 277.228 17.7216 276.463 17.3914C275.707 17.0612 274.852 16.7702 273.896 16.5182L270.742 15.6581C268.605 15.0759 266.91 14.2201 265.659 13.0906C264.417 11.9611 263.796 10.4667 263.796 8.60738C263.796 7.06953 264.213 5.72716 265.047 4.58029C265.881 3.43341 267.01 2.54285 268.435 1.90859C269.86 1.26565 271.467 0.944175 273.257 0.944175C275.064 0.944175 276.659 1.2613 278.04 1.89556C279.43 2.52982 280.525 3.40301 281.325 4.51513C282.124 5.61856 282.541 6.88707 282.576 8.32067H278.692ZM295.772 28.404C293.896 28.404 292.258 27.9739 290.859 27.1138C289.46 26.2536 288.374 25.0503 287.601 23.5037C286.827 21.9572 286.441 20.15 286.441 18.0821C286.441 16.0056 286.827 14.1897 287.601 12.6345C288.374 11.0792 289.46 9.87155 290.859 9.0114C292.258 8.15124 293.896 7.72116 295.772 7.72116C297.649 7.72116 299.287 8.15124 300.686 9.0114C302.084 9.87155 303.17 11.0792 303.944 12.6345C304.717 14.1897 305.104 16.0056 305.104 18.0821C305.104 20.15 304.717 21.9572 303.944 23.5037C303.17 25.0503 302.084 26.2536 300.686 27.1138C299.287 27.9739 297.649 28.404 295.772 28.404ZM295.785 25.1328C297.002 25.1328 298.01 24.8113 298.809 24.1684C299.608 23.5254 300.199 22.6696 300.581 21.601C300.972 20.5323 301.168 19.355 301.168 18.0691C301.168 16.7919 300.972 15.619 300.581 14.5503C300.199 13.4729 299.608 12.6084 298.809 11.9568C298.01 11.3051 297.002 10.9793 295.785 10.9793C294.56 10.9793 293.544 11.3051 292.736 11.9568C291.936 12.6084 291.341 13.4729 290.95 14.5503C290.568 15.619 290.377 16.7919 290.377 18.0691C290.377 19.355 290.568 20.5323 290.95 21.601C291.341 22.6696 291.936 23.5254 292.736 24.1684C293.544 24.8113 294.56 25.1328 295.785 25.1328ZM318.88 7.98182V11.1097H307.568V7.98182H318.88ZM310.67 28V5.662C310.67 4.41086 310.943 3.3726 311.491 2.54719C312.038 1.7131 312.763 1.09188 313.667 0.683522C314.571 0.266475 315.552 0.0579522 316.612 0.0579522C317.394 0.0579522 318.063 0.123116 318.62 0.253444C319.176 0.375081 319.588 0.488031 319.858 0.592293L318.945 3.7462C318.763 3.69407 318.528 3.63325 318.242 3.56374C317.955 3.48555 317.607 3.44645 317.199 3.44645C316.252 3.44645 315.574 3.68104 315.166 4.15021C314.766 4.61939 314.566 5.29709 314.566 6.18331V28H310.67ZM332.145 7.98182V11.1097H321.211V7.98182H332.145ZM324.143 3.18579H328.04V22.1223C328.04 22.8782 328.153 23.4473 328.379 23.8295C328.605 24.2031 328.896 24.4595 329.252 24.5985C329.617 24.7288 330.012 24.794 330.438 24.794C330.751 24.794 331.024 24.7722 331.259 24.7288C331.494 24.6854 331.676 24.6506 331.806 24.6245L332.51 27.8436C332.284 27.9305 331.963 28.0174 331.546 28.1043C331.129 28.1998 330.607 28.252 329.982 28.2607C328.956 28.278 328.001 28.0956 327.115 27.7133C326.228 27.331 325.512 26.7402 324.964 25.9408C324.417 25.1415 324.143 24.138 324.143 22.9303V3.18579ZM340.696 28L334.805 7.98182H338.832L342.755 22.6827H342.95L346.886 7.98182H350.913L354.823 22.6175H355.018L358.915 7.98182H362.942L357.065 28H353.09L349.023 13.5468H348.724L344.658 28H340.696ZM372.366 28.4431C371.097 28.4431 369.951 28.2085 368.925 27.7393C367.9 27.2615 367.088 26.5708 366.488 25.6672C365.897 24.7636 365.602 23.6558 365.602 22.3438C365.602 21.2143 365.819 20.2847 366.254 19.5548C366.688 18.825 367.275 18.2472 368.013 17.8215C368.752 17.3958 369.577 17.0743 370.489 16.8571C371.402 16.6399 372.331 16.4748 373.278 16.3618C374.477 16.2228 375.45 16.1099 376.198 16.023C376.945 15.9274 377.488 15.7754 377.827 15.5668C378.166 15.3583 378.335 15.0195 378.335 14.5503V14.4591C378.335 13.3209 378.013 12.439 377.371 11.8134C376.736 11.1879 375.789 10.8751 374.529 10.8751C373.217 10.8751 372.184 11.1661 371.428 11.7483C370.68 12.3217 370.163 12.9603 369.877 13.6641L366.215 12.83C366.649 11.6136 367.283 10.6318 368.117 9.88459C368.96 9.12869 369.929 8.58132 371.024 8.24247C372.118 7.89493 373.27 7.72116 374.477 7.72116C375.277 7.72116 376.124 7.81674 377.019 8.00788C377.922 8.19034 378.765 8.52919 379.547 9.02443C380.338 9.51967 380.985 10.2278 381.489 11.1488C381.993 12.061 382.245 13.247 382.245 14.7067V28H378.439V25.2631H378.283C378.031 25.7671 377.653 26.2623 377.149 26.7489C376.645 27.2354 375.998 27.6394 375.207 27.9609C374.416 28.2824 373.469 28.4431 372.366 28.4431ZM373.213 25.3153C374.29 25.3153 375.211 25.1024 375.976 24.6767C376.749 24.2509 377.336 23.6949 377.735 23.0085C378.144 22.3134 378.348 21.5705 378.348 20.7799V18.1994C378.209 18.3384 377.94 18.4688 377.54 18.5904C377.149 18.7034 376.702 18.8033 376.198 18.8902C375.694 18.9684 375.203 19.0422 374.725 19.1117C374.247 19.1725 373.847 19.2247 373.526 19.2681C372.77 19.3637 372.079 19.5244 371.454 19.7503C370.837 19.9762 370.342 20.302 369.968 20.7278C369.603 21.1448 369.421 21.7009 369.421 22.396C369.421 23.3604 369.777 24.0902 370.489 24.5854C371.202 25.072 372.11 25.3153 373.213 25.3153ZM387.335 28V7.98182H391.101V11.1618H391.31C391.675 10.0844 392.318 9.2373 393.239 8.62042C394.168 7.99485 395.22 7.68207 396.393 7.68207C396.636 7.68207 396.923 7.69075 397.253 7.70813C397.592 7.72551 397.857 7.74723 398.048 7.77329V11.5006C397.891 11.4572 397.613 11.4094 397.214 11.3573C396.814 11.2965 396.414 11.266 396.015 11.266C395.094 11.266 394.273 11.4615 393.552 11.8525C392.839 12.2348 392.274 12.7692 391.857 13.4555C391.44 14.1332 391.232 14.9065 391.232 15.7754V28H387.335ZM409.231 28.404C407.259 28.404 405.56 27.9826 404.135 27.1398C402.719 26.2884 401.624 25.0937 400.851 23.5559C400.086 22.0093 399.704 20.1978 399.704 18.1212C399.704 16.0708 400.086 14.2636 400.851 12.6996C401.624 11.1357 402.702 9.915 404.083 9.03746C405.473 8.15993 407.098 7.72116 408.957 7.72116C410.087 7.72116 411.181 7.90797 412.241 8.28157C413.301 8.65517 414.253 9.24164 415.096 10.041C415.938 10.8403 416.603 11.8786 417.09 13.1558C417.576 14.4243 417.819 15.9665 417.819 17.7824V19.1638H401.907V16.2445H414.001C414.001 15.2193 413.792 14.3114 413.375 13.5207C412.958 12.7214 412.372 12.0915 411.616 11.631C410.869 11.1705 409.991 10.9402 408.983 10.9402C407.889 10.9402 406.933 11.2096 406.116 11.7483C405.308 12.2783 404.682 12.9733 404.239 13.8335C403.805 14.685 403.588 15.6103 403.588 16.6094V18.8902C403.588 20.2282 403.822 21.3664 404.292 22.3047C404.769 23.2431 405.434 23.9599 406.286 24.4551C407.137 24.9417 408.132 25.1849 409.27 25.1849C410.009 25.1849 410.682 25.0807 411.29 24.8722C411.898 24.6549 412.424 24.3335 412.867 23.9077C413.31 23.482 413.649 22.9564 413.884 22.3308L417.572 22.9955C417.276 24.0815 416.746 25.0329 415.982 25.8496C415.226 26.6576 414.275 27.2875 413.128 27.7393C411.989 28.1825 410.691 28.404 409.231 28.404Z" fill="#F2F2F2"/>
</svg>

