<svg width="400" height="147" viewBox="0 0 400 147" fill="none" xmlns="http://www.w3.org/2000/svg">
    <path d="M14.1728 15.053C14.0602 14.0532 13.5955 13.2787 12.7788 12.7295C11.962 12.1733 10.9341 11.8952 9.69496 11.8952C8.80784 11.8952 8.04041 12.036 7.39267 12.3177C6.74493 12.5922 6.24153 12.9724 5.88245 13.4582C5.53042 13.937 5.35441 14.4827 5.35441 15.0952C5.35441 15.6092 5.4741 16.0527 5.71348 16.4259C5.9599 16.799 6.28025 17.1123 6.67453 17.3658C7.07584 17.6122 7.50532 17.8199 7.96296 17.9889C8.4206 18.1508 8.86064 18.2846 9.28308 18.3902L11.3953 18.9394C12.0853 19.1084 12.7928 19.3372 13.518 19.6258C14.2432 19.9145 14.9156 20.2947 15.5352 20.7664C16.1547 21.2382 16.6546 21.8225 17.0348 22.5196C17.4221 23.2166 17.6157 24.0509 17.6157 25.0225C17.6157 26.2476 17.2988 27.3353 16.6652 28.2858C16.0386 29.2363 15.1268 29.9861 13.9299 30.5353C12.74 31.0845 11.3002 31.3591 9.61047 31.3591C7.99113 31.3591 6.59004 31.1021 5.40721 30.5881C4.22438 30.0742 3.29854 29.3454 2.62968 28.402C1.96082 27.4515 1.59118 26.325 1.52078 25.0225H4.79468C4.85804 25.804 5.1115 26.4553 5.55506 26.9763C6.00567 27.4902 6.57948 27.874 7.2765 28.1274C7.98056 28.3738 8.75151 28.4971 9.58935 28.4971C10.5117 28.4971 11.3319 28.3527 12.0501 28.0641C12.7752 27.7683 13.3455 27.36 13.7609 26.839C14.1763 26.3109 14.384 25.6949 14.384 24.9908C14.384 24.3501 14.201 23.8256 13.8349 23.4172C13.4758 23.0089 12.9865 22.6709 12.3669 22.4034C11.7543 22.1358 11.0608 21.9 10.2864 21.6958L7.73062 20.9988C5.99862 20.527 4.6257 19.8335 3.61185 18.9183C2.60504 18.003 2.10163 16.792 2.10163 15.2853C2.10163 14.0391 2.43958 12.9513 3.11548 12.022C3.79138 11.0926 4.70667 10.3709 5.86133 9.85696C7.016 9.33595 8.31852 9.07545 9.76889 9.07545C11.2333 9.07545 12.5253 9.33243 13.6448 9.8464C14.7713 10.3604 15.6584 11.068 16.3061 11.9692C16.9539 12.8633 17.2918 13.8912 17.32 15.053H14.1728ZM28.0138 31.3274C26.493 31.3274 25.1658 30.9789 24.0323 30.2819C22.8987 29.5848 22.0187 28.6097 21.392 27.3565C20.7654 26.1032 20.4521 24.6388 20.4521 22.9631C20.4521 21.2804 20.7654 19.8089 21.392 18.5486C22.0187 17.2884 22.8987 16.3097 24.0323 15.6127C25.1658 14.9157 26.493 14.5671 28.0138 14.5671C29.5345 14.5671 30.8617 14.9157 31.9952 15.6127C33.1288 16.3097 34.0089 17.2884 34.6355 18.5486C35.2621 19.8089 35.5754 21.2804 35.5754 22.9631C35.5754 24.6388 35.2621 26.1032 34.6355 27.3565C34.0089 28.6097 33.1288 29.5848 31.9952 30.2819C30.8617 30.9789 29.5345 31.3274 28.0138 31.3274ZM28.0243 28.6766C29.01 28.6766 29.8267 28.4161 30.4745 27.8951C31.1222 27.3741 31.601 26.6806 31.9108 25.8146C32.2276 24.9486 32.386 23.9946 32.386 22.9525C32.386 21.9176 32.2276 20.9671 31.9108 20.1011C31.601 19.2281 31.1222 18.5275 30.4745 17.9995C29.8267 17.4714 29.01 17.2074 28.0243 17.2074C27.0316 17.2074 26.2078 17.4714 25.5531 17.9995C24.9053 18.5275 24.423 19.2281 24.1062 20.1011C23.7964 20.9671 23.6415 21.9176 23.6415 22.9525C23.6415 23.9946 23.7964 24.9486 24.1062 25.8146C24.423 26.6806 24.9053 27.3741 25.5531 27.8951C26.2078 28.4161 27.0316 28.6766 28.0243 28.6766ZM39.0191 37.0831V14.7784H42.1029V17.408H42.3669C42.55 17.0701 42.814 16.6793 43.159 16.2358C43.504 15.7922 43.9827 15.405 44.5953 15.0741C45.2078 14.7361 46.0175 14.5671 47.0243 14.5671C48.3339 14.5671 49.5026 14.8981 50.5305 15.5599C51.5585 16.2217 52.3646 17.1757 52.949 18.4219C53.5404 19.6681 53.8361 21.1677 53.8361 22.9209C53.8361 24.674 53.5439 26.1772 52.9596 27.4304C52.3752 28.6766 51.5725 29.6376 50.5517 30.3135C49.5308 30.9824 48.3655 31.3168 47.056 31.3168C46.0703 31.3168 45.2641 31.1514 44.6375 30.8205C44.0179 30.4896 43.5321 30.1023 43.1801 29.6588C42.8281 29.2152 42.557 28.8209 42.3669 28.4759H42.1768V37.0831H39.0191ZM42.1134 22.8892C42.1134 24.0298 42.2789 25.0295 42.6098 25.8885C42.9407 26.7475 43.4195 27.4198 44.0461 27.9056C44.6727 28.3844 45.4402 28.6238 46.3484 28.6238C47.2918 28.6238 48.0804 28.3738 48.714 27.874C49.3477 27.367 49.8265 26.6806 50.1503 25.8146C50.4812 24.9486 50.6467 23.9734 50.6467 22.8892C50.6467 21.819 50.4848 20.858 50.1609 20.006C49.8441 19.1541 49.3653 18.4817 48.7246 17.9889C48.091 17.4961 47.2989 17.2496 46.3484 17.2496C45.4331 17.2496 44.6586 17.4855 44.025 17.9572C43.3984 18.4289 42.9231 19.0872 42.5993 19.9321C42.2754 20.777 42.1134 21.7627 42.1134 22.8892ZM57.293 31V14.7784H60.3451V17.3552H60.5141C60.8098 16.4822 61.3308 15.7957 62.0771 15.2959C62.8305 14.7889 63.6824 14.5355 64.6329 14.5355C64.83 14.5355 65.0623 14.5425 65.3299 14.5566C65.6045 14.5707 65.8192 14.5883 65.9741 14.6094V17.6298C65.8474 17.5946 65.6221 17.5559 65.2982 17.5137C64.9743 17.4644 64.6505 17.4397 64.3266 17.4397C63.5803 17.4397 62.9149 17.5981 62.3306 17.915C61.7532 18.2248 61.2956 18.6578 60.9577 19.214C60.6197 19.7631 60.4507 20.3898 60.4507 21.0938V31H57.293ZM73.2013 31.3591C72.1733 31.3591 71.244 31.169 70.4132 30.7888C69.5824 30.4015 68.9241 29.8418 68.4383 29.1096C67.9595 28.3774 67.7201 27.4797 67.7201 26.4165C67.7201 25.5013 67.8961 24.7479 68.2482 24.1565C68.6002 23.5651 69.0754 23.0969 69.6739 22.7519C70.2723 22.4069 70.9412 22.1464 71.6805 21.9704C72.4197 21.7944 73.1731 21.6606 73.9405 21.5691C74.9121 21.4564 75.7007 21.3649 76.3062 21.2945C76.9117 21.217 77.3517 21.0938 77.6263 20.9248C77.9009 20.7559 78.0382 20.4813 78.0382 20.1011V20.0272C78.0382 19.1048 77.7777 18.3902 77.2567 17.8833C76.7427 17.3764 75.9753 17.1229 74.9544 17.1229C73.8912 17.1229 73.0534 17.3588 72.4409 17.8305C71.8354 18.2952 71.4164 18.8127 71.1841 19.3829L68.2165 18.707C68.5685 17.7214 69.0825 16.9258 69.7584 16.3203C70.4413 15.7077 71.2264 15.2642 72.1135 14.9896C73.0006 14.708 73.9335 14.5671 74.9121 14.5671C75.5599 14.5671 76.2463 14.6446 76.9715 14.7995C77.7037 14.9473 78.3867 15.2219 79.0203 15.6232C79.661 16.0246 80.1856 16.5984 80.5939 17.3447C81.0023 18.0839 81.2065 19.045 81.2065 20.2278V31H78.1227V28.7822H77.9959C77.7917 29.1906 77.4855 29.5919 77.0771 29.9861C76.6688 30.3804 76.1442 30.7078 75.5035 30.9683C74.8628 31.2288 74.0954 31.3591 73.2013 31.3591ZM73.8877 28.8244C74.7608 28.8244 75.5071 28.6519 76.1266 28.307C76.7533 27.962 77.2285 27.5114 77.5524 26.9552C77.8833 26.3919 78.0487 25.7899 78.0487 25.1492V23.0582C77.9361 23.1708 77.7178 23.2764 77.394 23.375C77.0771 23.4665 76.7145 23.5475 76.3062 23.6179C75.8978 23.6813 75.5 23.7411 75.1128 23.7974C74.7255 23.8467 74.4017 23.889 74.1412 23.9242C73.5286 24.0016 72.9689 24.1319 72.462 24.3149C71.9621 24.498 71.5608 24.762 71.258 25.107C70.9623 25.4449 70.8145 25.8955 70.8145 26.4588C70.8145 27.2403 71.1031 27.8317 71.6805 28.233C72.2578 28.6273 72.9936 28.8244 73.8877 28.8244ZM93.3743 31V9.37116H101.295C102.83 9.37116 104.101 9.62462 105.108 10.1315C106.114 10.6314 106.868 11.3109 107.368 12.1698C107.867 13.0217 108.117 13.9828 108.117 15.053C108.117 15.9542 107.952 16.7145 107.621 17.3341C107.29 17.9467 106.847 18.4395 106.29 18.8127C105.741 19.1788 105.136 19.4463 104.474 19.6153V19.8265C105.192 19.8617 105.893 20.0941 106.576 20.5235C107.265 20.946 107.836 21.5479 108.286 22.3295C108.737 23.111 108.962 24.0615 108.962 25.1809C108.962 26.2863 108.702 27.279 108.181 28.1591C107.667 29.0321 106.871 29.7256 105.794 30.2396C104.717 30.7465 103.34 31 101.665 31H93.3743ZM96.6376 28.2013H101.348C102.911 28.2013 104.03 27.8986 104.706 27.2931C105.382 26.6876 105.72 25.9307 105.72 25.0225C105.72 24.3396 105.548 23.7129 105.203 23.1426C104.858 22.5724 104.365 22.1182 103.724 21.7803C103.09 21.4423 102.337 21.2734 101.464 21.2734H96.6376V28.2013ZM96.6376 18.7282H101.01C101.742 18.7282 102.4 18.5874 102.985 18.3057C103.576 18.0241 104.044 17.6298 104.389 17.1229C104.741 16.6089 104.917 16.0034 104.917 15.3064C104.917 14.4123 104.604 13.6624 103.978 13.0569C103.351 12.4514 102.39 12.1487 101.094 12.1487H96.6376V18.7282ZM117.219 31.3591C116.191 31.3591 115.262 31.169 114.431 30.7888C113.6 30.4015 112.942 29.8418 112.456 29.1096C111.977 28.3774 111.738 27.4797 111.738 26.4165C111.738 25.5013 111.914 24.7479 112.266 24.1565C112.618 23.5651 113.093 23.0969 113.692 22.7519C114.29 22.4069 114.959 22.1464 115.698 21.9704C116.438 21.7944 117.191 21.6606 117.958 21.5691C118.93 21.4564 119.719 21.3649 120.324 21.2945C120.93 21.217 121.37 21.0938 121.644 20.9248C121.919 20.7559 122.056 20.4813 122.056 20.1011V20.0272C122.056 19.1048 121.796 18.3902 121.275 17.8833C120.761 17.3764 119.993 17.1229 118.972 17.1229C117.909 17.1229 117.071 17.3588 116.459 17.8305C115.853 18.2952 115.434 18.8127 115.202 19.3829L112.234 18.707C112.586 17.7214 113.1 16.9258 113.776 16.3203C114.459 15.7077 115.244 15.2642 116.131 14.9896C117.018 14.708 117.951 14.5671 118.93 14.5671C119.578 14.5671 120.264 14.6446 120.989 14.7995C121.722 14.9473 122.405 15.2219 123.038 15.6232C123.679 16.0246 124.203 16.5984 124.612 17.3447C125.02 18.0839 125.224 19.045 125.224 20.2278V31H122.141V28.7822H122.014C121.81 29.1906 121.503 29.5919 121.095 29.9861C120.687 30.3804 120.162 30.7078 119.521 30.9683C118.881 31.2288 118.113 31.3591 117.219 31.3591ZM117.906 28.8244C118.779 28.8244 119.525 28.6519 120.145 28.307C120.771 27.962 121.246 27.5114 121.57 26.9552C121.901 26.3919 122.067 25.7899 122.067 25.1492V23.0582C121.954 23.1708 121.736 23.2764 121.412 23.375C121.095 23.4665 120.732 23.5475 120.324 23.6179C119.916 23.6813 119.518 23.7411 119.131 23.7974C118.743 23.8467 118.42 23.889 118.159 23.9242C117.547 24.0016 116.987 24.1319 116.48 24.3149C115.98 24.498 115.579 24.762 115.276 25.107C114.98 25.4449 114.832 25.8955 114.832 26.4588C114.832 27.2403 115.121 27.8317 115.698 28.233C116.276 28.6273 117.011 28.8244 117.906 28.8244ZM132.507 21.3684V31H129.349V14.7784H132.38V17.4186H132.581C132.954 16.5596 133.538 15.8697 134.334 15.3487C135.137 14.8277 136.147 14.5671 137.365 14.5671C138.47 14.5671 139.438 14.7995 140.269 15.2642C141.1 15.7218 141.744 16.4048 142.202 17.313C142.66 18.2212 142.888 19.3442 142.888 20.6819V31H139.731V21.0621C139.731 19.8864 139.424 18.9675 138.812 18.3057C138.199 17.6369 137.358 17.3024 136.288 17.3024C135.556 17.3024 134.904 17.4609 134.334 17.7777C133.771 18.0945 133.324 18.5592 132.993 19.1717C132.669 19.7772 132.507 20.5094 132.507 21.3684ZM149.947 25.4977L149.925 21.643H150.475L156.938 14.7784H160.719L153.347 22.5935H152.851L149.947 25.4977ZM147.042 31V9.37116H150.2V31H147.042ZM157.286 31L151.478 23.2905L153.653 21.0833L161.162 31H157.286ZM163.516 31V14.7784H166.673V31H163.516ZM165.11 12.2754C164.561 12.2754 164.089 12.0924 163.695 11.7262C163.308 11.3531 163.114 10.9095 163.114 10.3956C163.114 9.87456 163.308 9.431 163.695 9.06489C164.089 8.69174 164.561 8.50516 165.11 8.50516C165.659 8.50516 166.128 8.69174 166.515 9.06489C166.909 9.431 167.106 9.87456 167.106 10.3956C167.106 10.9095 166.909 11.3531 166.515 11.7262C166.128 12.0924 165.659 12.2754 165.11 12.2754ZM173.998 21.3684V31H170.84V14.7784H173.871V17.4186H174.072C174.445 16.5596 175.03 15.8697 175.825 15.3487C176.628 14.8277 177.638 14.5671 178.856 14.5671C179.962 14.5671 180.93 14.7995 181.76 15.2642C182.591 15.7218 183.235 16.4048 183.693 17.313C184.151 18.2212 184.38 19.3442 184.38 20.6819V31H181.222V21.0621C181.222 19.8864 180.916 18.9675 180.303 18.3057C179.69 17.6369 178.849 17.3024 177.779 17.3024C177.047 17.3024 176.395 17.4609 175.825 17.7777C175.262 18.0945 174.815 18.5592 174.484 19.1717C174.16 19.7772 173.998 20.5094 173.998 21.3684ZM195.335 37.4211C194.046 37.4211 192.937 37.2521 192.008 36.9141C191.086 36.5762 190.332 36.1291 189.748 35.5729C189.164 35.0167 188.727 34.4077 188.438 33.7458L191.153 32.6264C191.343 32.9362 191.596 33.2636 191.913 33.6086C192.237 33.9606 192.673 34.2598 193.222 34.5062C193.779 34.7527 194.493 34.8759 195.366 34.8759C196.563 34.8759 197.552 34.5837 198.334 33.9993C199.116 33.422 199.506 32.4997 199.506 31.2323V28.0429H199.306C199.116 28.3879 198.841 28.7716 198.482 29.1941C198.13 29.6165 197.644 29.9826 197.024 30.2924C196.405 30.6022 195.599 30.7571 194.606 30.7571C193.325 30.7571 192.17 30.4579 191.142 29.8594C190.121 29.2539 189.311 28.3633 188.713 27.1875C188.122 26.0047 187.826 24.5508 187.826 22.8258C187.826 21.1009 188.118 19.6223 188.702 18.3902C189.294 17.1581 190.103 16.2147 191.131 15.5599C192.159 14.8981 193.325 14.5671 194.627 14.5671C195.634 14.5671 196.447 14.7361 197.067 15.0741C197.686 15.405 198.169 15.7922 198.514 16.2358C198.866 16.6793 199.137 17.0701 199.327 17.408H199.559V14.7784H202.653V31.3591C202.653 32.7531 202.33 33.8972 201.682 34.7914C201.034 35.6855 200.158 36.3474 199.052 36.7768C197.954 37.2063 196.715 37.4211 195.335 37.4211ZM195.303 28.138C196.211 28.138 196.979 27.9268 197.605 27.5043C198.239 27.0748 198.718 26.4623 199.042 25.6667C199.372 24.8641 199.538 23.903 199.538 22.7836C199.538 21.6923 199.376 20.7312 199.052 19.9004C198.728 19.0696 198.253 18.4219 197.626 17.9572C197 17.4855 196.225 17.2496 195.303 17.2496C194.353 17.2496 193.56 17.4961 192.927 17.9889C192.293 18.4747 191.814 19.1365 191.49 19.9744C191.174 20.8122 191.015 21.7486 191.015 22.7836C191.015 23.8467 191.177 24.7796 191.501 25.5822C191.825 26.3849 192.304 27.0115 192.937 27.4621C193.578 27.9127 194.367 28.138 195.303 28.138ZM226.647 15.053C226.534 14.0532 226.07 13.2787 225.253 12.7295C224.436 12.1733 223.408 11.8952 222.169 11.8952C221.282 11.8952 220.515 12.036 219.867 12.3177C219.219 12.5922 218.716 12.9724 218.357 13.4582C218.005 13.937 217.829 14.4827 217.829 15.0952C217.829 15.6092 217.948 16.0527 218.188 16.4259C218.434 16.799 218.754 17.1123 219.149 17.3658C219.55 17.6122 219.979 17.8199 220.437 17.9889C220.895 18.1508 221.335 18.2846 221.757 18.3902L223.869 18.9394C224.559 19.1084 225.267 19.3372 225.992 19.6258C226.717 19.9145 227.39 20.2947 228.009 20.7664C228.629 21.2382 229.129 21.8225 229.509 22.5196C229.896 23.2166 230.09 24.0509 230.09 25.0225C230.09 26.2476 229.773 27.3353 229.139 28.2858C228.513 29.2363 227.601 29.9861 226.404 30.5353C225.214 31.0845 223.774 31.3591 222.085 31.3591C220.465 31.3591 219.064 31.1021 217.881 30.5881C216.698 30.0742 215.773 29.3454 215.104 28.402C214.435 27.4515 214.065 26.325 213.995 25.0225H217.269C217.332 25.804 217.586 26.4553 218.029 26.9763C218.48 27.4902 219.054 27.874 219.751 28.1274C220.455 28.3738 221.226 28.4971 222.063 28.4971C222.986 28.4971 223.806 28.3527 224.524 28.0641C225.249 27.7683 225.82 27.36 226.235 26.839C226.65 26.3109 226.858 25.6949 226.858 24.9908C226.858 24.3501 226.675 23.8256 226.309 23.4172C225.95 23.0089 225.461 22.6709 224.841 22.4034C224.228 22.1358 223.535 21.9 222.76 21.6958L220.205 20.9988C218.473 20.527 217.1 19.8335 216.086 18.9183C215.079 18.003 214.576 16.792 214.576 15.2853C214.576 14.0391 214.914 12.9513 215.59 12.022C216.265 11.0926 217.181 10.3709 218.335 9.85696C219.49 9.33595 220.793 9.07545 222.243 9.07545C223.707 9.07545 224.999 9.33243 226.119 9.8464C227.245 10.3604 228.132 11.068 228.78 11.9692C229.428 12.8633 229.766 13.8912 229.794 15.053H226.647ZM240.488 31.3274C238.967 31.3274 237.64 30.9789 236.506 30.2819C235.373 29.5848 234.493 28.6097 233.866 27.3565C233.24 26.1032 232.926 24.6388 232.926 22.9631C232.926 21.2804 233.24 19.8089 233.866 18.5486C234.493 17.2884 235.373 16.3097 236.506 15.6127C237.64 14.9157 238.967 14.5671 240.488 14.5671C242.009 14.5671 243.336 14.9157 244.469 15.6127C245.603 16.3097 246.483 17.2884 247.11 18.5486C247.736 19.8089 248.05 21.2804 248.05 22.9631C248.05 24.6388 247.736 26.1032 247.11 27.3565C246.483 28.6097 245.603 29.5848 244.469 30.2819C243.336 30.9789 242.009 31.3274 240.488 31.3274ZM240.498 28.6766C241.484 28.6766 242.301 28.4161 242.949 27.8951C243.596 27.3741 244.075 26.6806 244.385 25.8146C244.702 24.9486 244.86 23.9946 244.86 22.9525C244.86 21.9176 244.702 20.9671 244.385 20.1011C244.075 19.2281 243.596 18.5275 242.949 17.9995C242.301 17.4714 241.484 17.2074 240.498 17.2074C239.506 17.2074 238.682 17.4714 238.027 17.9995C237.379 18.5275 236.897 19.2281 236.58 20.1011C236.271 20.9671 236.116 21.9176 236.116 22.9525C236.116 23.9946 236.271 24.9486 236.58 25.8146C236.897 26.6806 237.379 27.3741 238.027 27.8951C238.682 28.4161 239.506 28.6766 240.498 28.6766ZM259.213 14.7784V17.313H250.046V14.7784H259.213ZM252.56 31V12.8985C252.56 11.8847 252.782 11.0433 253.225 10.3744C253.669 9.69855 254.257 9.19514 254.989 8.86423C255.721 8.52628 256.517 8.3573 257.376 8.3573C258.009 8.3573 258.551 8.41011 259.002 8.51572C259.453 8.61429 259.787 8.70582 260.005 8.7903L259.266 11.3461C259.118 11.3038 258.928 11.2545 258.696 11.1982C258.463 11.1348 258.182 11.1032 257.851 11.1032C257.083 11.1032 256.534 11.2933 256.203 11.6734C255.88 12.0536 255.718 12.6028 255.718 13.321V31H252.56ZM269.962 14.7784V17.313H261.102V14.7784H269.962ZM263.478 10.8919H266.636V26.237C266.636 26.8495 266.727 27.3107 266.91 27.6205C267.093 27.9232 267.329 28.1309 267.618 28.2436C267.914 28.3492 268.234 28.402 268.579 28.402C268.832 28.402 269.054 28.3844 269.244 28.3492C269.434 28.314 269.582 28.2858 269.688 28.2647L270.258 30.8733C270.075 30.9437 269.815 31.0141 269.477 31.0845C269.139 31.1619 268.716 31.2042 268.209 31.2112C267.379 31.2253 266.604 31.0774 265.886 30.7677C265.168 30.4579 264.587 29.9791 264.143 29.3314C263.7 28.6836 263.478 27.8704 263.478 26.8918V10.8919ZM276.891 31L272.118 14.7784H275.381L278.56 26.6911H278.718L281.908 14.7784H285.171L288.339 26.6383H288.498L291.656 14.7784H294.919L290.156 31H286.935L283.64 19.2879H283.397L280.102 31H276.891ZM302.555 31.3591C301.527 31.3591 300.598 31.169 299.767 30.7888C298.936 30.4015 298.278 29.8418 297.792 29.1096C297.313 28.3774 297.074 27.4797 297.074 26.4165C297.074 25.5013 297.25 24.7479 297.602 24.1565C297.954 23.5651 298.429 23.0969 299.028 22.7519C299.626 22.4069 300.295 22.1464 301.034 21.9704C301.774 21.7944 302.527 21.6606 303.294 21.5691C304.266 21.4564 305.055 21.3649 305.66 21.2945C306.266 21.217 306.706 21.0938 306.98 20.9248C307.255 20.7559 307.392 20.4813 307.392 20.1011V20.0272C307.392 19.1048 307.132 18.3902 306.611 17.8833C306.097 17.3764 305.329 17.1229 304.308 17.1229C303.245 17.1229 302.407 17.3588 301.795 17.8305C301.189 18.2952 300.77 18.8127 300.538 19.3829L297.57 18.707C297.922 17.7214 298.436 16.9258 299.112 16.3203C299.795 15.7077 300.58 15.2642 301.467 14.9896C302.355 14.708 303.287 14.5671 304.266 14.5671C304.914 14.5671 305.6 14.6446 306.325 14.7995C307.058 14.9473 307.741 15.2219 308.374 15.6232C309.015 16.0246 309.54 16.5984 309.948 17.3447C310.356 18.0839 310.56 19.045 310.56 20.2278V31H307.477V28.7822H307.35C307.146 29.1906 306.839 29.5919 306.431 29.9861C306.023 30.3804 305.498 30.7078 304.858 30.9683C304.217 31.2288 303.449 31.3591 302.555 31.3591ZM303.242 28.8244C304.115 28.8244 304.861 28.6519 305.481 28.307C306.107 27.962 306.582 27.5114 306.906 26.9552C307.237 26.3919 307.403 25.7899 307.403 25.1492V23.0582C307.29 23.1708 307.072 23.2764 306.748 23.375C306.431 23.4665 306.069 23.5475 305.66 23.6179C305.252 23.6813 304.854 23.7411 304.467 23.7974C304.08 23.8467 303.756 23.889 303.495 23.9242C302.883 24.0016 302.323 24.1319 301.816 24.3149C301.316 24.498 300.915 24.762 300.612 25.107C300.316 25.4449 300.168 25.8955 300.168 26.4588C300.168 27.2403 300.457 27.8317 301.034 28.233C301.612 28.6273 302.348 28.8244 303.242 28.8244ZM314.685 31V14.7784H317.737V17.3552H317.906C318.202 16.4822 318.723 15.7957 319.469 15.2959C320.223 14.7889 321.075 14.5355 322.025 14.5355C322.222 14.5355 322.455 14.5425 322.722 14.5566C322.997 14.5707 323.211 14.5883 323.366 14.6094V17.6298C323.24 17.5946 323.014 17.5559 322.69 17.5137C322.367 17.4644 322.043 17.4397 321.719 17.4397C320.973 17.4397 320.307 17.5981 319.723 17.915C319.146 18.2248 318.688 18.6578 318.35 19.214C318.012 19.7631 317.843 20.3898 317.843 21.0938V31H314.685ZM332.429 31.3274C330.83 31.3274 329.454 30.9859 328.299 30.303C327.152 29.613 326.264 28.6449 325.638 27.3987C325.018 26.1455 324.708 24.6775 324.708 22.9948C324.708 21.3332 325.018 19.8687 325.638 18.6014C326.264 17.3341 327.137 16.3449 328.257 15.6338C329.383 14.9227 330.7 14.5671 332.207 14.5671C333.122 14.5671 334.009 14.7185 334.868 15.0213C335.727 15.324 336.498 15.7993 337.181 16.447C337.864 17.0947 338.403 17.9361 338.797 18.9711C339.191 19.999 339.388 21.2487 339.388 22.7202V23.8397H326.493V21.474H336.294C336.294 20.6432 336.125 19.9075 335.787 19.2668C335.449 18.619 334.974 18.1086 334.361 17.7354C333.756 17.3623 333.045 17.1757 332.228 17.1757C331.341 17.1757 330.566 17.394 329.904 17.8305C329.25 18.26 328.743 18.8232 328.384 19.5202C328.032 20.2102 327.856 20.96 327.856 21.7697V23.6179C327.856 24.7021 328.046 25.6245 328.426 26.3849C328.813 27.1453 329.352 27.7261 330.042 28.1274C330.732 28.5217 331.538 28.7188 332.46 28.7188C333.059 28.7188 333.604 28.6343 334.097 28.4654C334.59 28.2894 335.016 28.0289 335.375 27.6839C335.734 27.3389 336.009 26.9129 336.199 26.406L339.188 26.9446C338.948 27.8247 338.519 28.5956 337.899 29.2574C337.287 29.9122 336.516 30.4227 335.586 30.7888C334.664 31.1479 333.611 31.3274 332.429 31.3274Z" fill="#F2F2F2"/>
</svg>
