<svg width="339" height="30" viewBox="0 0 339 30" fill="none" xmlns="http://www.w3.org/2000/svg">
    <path d="M13.1728 7.05295C13.0602 6.05318 12.5955 5.27871 11.7788 4.72954C10.962 4.17333 9.93411 3.89523 8.69496 3.89523C7.80784 3.89523 7.04041 4.03604 6.39267 4.31766C5.74493 4.59225 5.24153 4.97244 4.88245 5.45825C4.53042 5.93701 4.35441 6.48266 4.35441 7.0952C4.35441 7.60916 4.4741 8.05272 4.71348 8.42588C4.9599 8.79903 5.28025 9.11234 5.67453 9.3658C6.07584 9.61222 6.50532 9.81992 6.96296 9.9889C7.4206 10.1508 7.86064 10.2846 8.28308 10.3902L10.3953 10.9394C11.0853 11.1084 11.7928 11.3372 12.518 11.6258C13.2432 11.9145 13.9156 12.2947 14.5352 12.7664C15.1547 13.2382 15.6546 13.8225 16.0348 14.5196C16.4221 15.2166 16.6157 16.0509 16.6157 17.0225C16.6157 18.2476 16.2988 19.3353 15.6652 20.2858C15.0386 21.2363 14.1268 21.9861 12.9299 22.5353C11.74 23.0845 10.3002 23.3591 8.61047 23.3591C6.99113 23.3591 5.59004 23.1021 4.40721 22.5881C3.22438 22.0742 2.29854 21.3454 1.62968 20.402C0.960818 19.4515 0.591184 18.325 0.520778 17.0225H3.79468C3.85804 17.804 4.1115 18.4553 4.55506 18.9763C5.00567 19.4902 5.57948 19.874 6.2765 20.1274C6.98056 20.3738 7.75151 20.4971 8.58935 20.4971C9.51167 20.4971 10.3319 20.3527 11.0501 20.0641C11.7752 19.7683 12.3455 19.36 12.7609 18.839C13.1763 18.3109 13.384 17.6949 13.384 16.9908C13.384 16.3501 13.201 15.8256 12.8349 15.4172C12.4758 15.0089 11.9865 14.6709 11.3669 14.4034C10.7543 14.1358 10.0608 13.9 9.28637 13.6958L6.73062 12.9988C4.99862 12.527 3.6257 11.8335 2.61185 10.9183C1.60504 10.003 1.10163 8.79199 1.10163 7.28529C1.10163 6.0391 1.43958 4.95132 2.11548 4.02196C2.79138 3.09259 3.70667 2.37093 4.86133 1.85696C6.016 1.33595 7.31852 1.07545 8.76889 1.07545C10.2333 1.07545 11.5253 1.33243 12.6448 1.8464C13.7713 2.36037 14.6584 3.06795 15.3061 3.96915C15.9539 4.86331 16.2918 5.89125 16.32 7.05295H13.1728ZM27.0138 23.3274C25.493 23.3274 24.1658 22.9789 23.0323 22.2819C21.8987 21.5848 21.0187 20.6097 20.392 19.3565C19.7654 18.1032 19.4521 16.6388 19.4521 14.9631C19.4521 13.2804 19.7654 11.8089 20.392 10.5486C21.0187 9.28836 21.8987 8.30971 23.0323 7.61268C24.1658 6.91566 25.493 6.56715 27.0138 6.56715C28.5345 6.56715 29.8617 6.91566 30.9952 7.61268C32.1288 8.30971 33.0089 9.28836 33.6355 10.5486C34.2621 11.8089 34.5754 13.2804 34.5754 14.9631C34.5754 16.6388 34.2621 18.1032 33.6355 19.3565C33.0089 20.6097 32.1288 21.5848 30.9952 22.2819C29.8617 22.9789 28.5345 23.3274 27.0138 23.3274ZM27.0243 20.6766C28.01 20.6766 28.8267 20.4161 29.4745 19.8951C30.1222 19.3741 30.601 18.6806 30.9108 17.8146C31.2276 16.9486 31.386 15.9946 31.386 14.9525C31.386 13.9176 31.2276 12.9671 30.9108 12.1011C30.601 11.2281 30.1222 10.5275 29.4745 9.99946C28.8267 9.47141 28.01 9.20739 27.0243 9.20739C26.0316 9.20739 25.2078 9.47141 24.5531 9.99946C23.9053 10.5275 23.423 11.2281 23.1062 12.1011C22.7964 12.9671 22.6415 13.9176 22.6415 14.9525C22.6415 15.9946 22.7964 16.9486 23.1062 17.8146C23.423 18.6806 23.9053 19.3741 24.5531 19.8951C25.2078 20.4161 26.0316 20.6766 27.0243 20.6766ZM38.0191 29.0831V6.77837H41.1029V9.40805H41.3669C41.55 9.0701 41.814 8.67934 42.159 8.23578C42.504 7.79222 42.9827 7.40498 43.5953 7.07407C44.2078 6.73612 45.0175 6.56715 46.0243 6.56715C47.3339 6.56715 48.5026 6.89806 49.5305 7.55988C50.5585 8.2217 51.3646 9.17571 51.949 10.4219C52.5404 11.6681 52.8361 13.1677 52.8361 14.9209C52.8361 16.674 52.5439 18.1772 51.9596 19.4304C51.3752 20.6766 50.5725 21.6376 49.5517 22.3135C48.5308 22.9824 47.3655 23.3168 46.056 23.3168C45.0703 23.3168 44.2641 23.1514 43.6375 22.8205C43.0179 22.4896 42.5321 22.1023 42.1801 21.6588C41.8281 21.2152 41.557 20.8209 41.3669 20.4759H41.1768V29.0831H38.0191ZM41.1134 14.8892C41.1134 16.0298 41.2789 17.0295 41.6098 17.8885C41.9407 18.7475 42.4195 19.4198 43.0461 19.9056C43.6727 20.3844 44.4402 20.6238 45.3484 20.6238C46.2918 20.6238 47.0804 20.3738 47.714 19.874C48.3477 19.367 48.8265 18.6806 49.1503 17.8146C49.4812 16.9486 49.6467 15.9734 49.6467 14.8892C49.6467 13.819 49.4848 12.858 49.1609 12.006C48.8441 11.1541 48.3653 10.4817 47.7246 9.9889C47.091 9.49605 46.2989 9.24963 45.3484 9.24963C44.4331 9.24963 43.6586 9.48549 43.025 9.95722C42.3984 10.4289 41.9231 11.0872 41.5993 11.9321C41.2754 12.777 41.1134 13.7627 41.1134 14.8892ZM56.293 23V6.77837H59.3451V9.35524H59.5141C59.8098 8.4822 60.3308 7.79574 61.0771 7.29585C61.8305 6.78893 62.6824 6.53547 63.6329 6.53547C63.83 6.53547 64.0623 6.54251 64.3299 6.55659C64.6045 6.57067 64.8192 6.58827 64.9741 6.60939V9.62983C64.8474 9.59462 64.6221 9.5559 64.2982 9.51366C63.9743 9.46437 63.6505 9.43973 63.3266 9.43973C62.5803 9.43973 61.9149 9.59814 61.3306 9.91497C60.7532 10.2248 60.2956 10.6578 59.9577 11.214C59.6197 11.7631 59.4507 12.3898 59.4507 13.0938V23H56.293ZM72.2013 23.3591C71.1733 23.3591 70.244 23.169 69.4132 22.7888C68.5824 22.4015 67.9241 21.8418 67.4383 21.1096C66.9595 20.3774 66.7201 19.4797 66.7201 18.4165C66.7201 17.5013 66.8961 16.7479 67.2482 16.1565C67.6002 15.5651 68.0754 15.0969 68.6739 14.7519C69.2723 14.4069 69.9412 14.1464 70.6805 13.9704C71.4197 13.7944 72.1731 13.6606 72.9405 13.5691C73.9121 13.4564 74.7007 13.3649 75.3062 13.2945C75.9117 13.217 76.3517 13.0938 76.6263 12.9248C76.9009 12.7559 77.0382 12.4813 77.0382 12.1011V12.0272C77.0382 11.1048 76.7777 10.3902 76.2567 9.88329C75.7427 9.37636 74.9753 9.1229 73.9544 9.1229C72.8912 9.1229 72.0534 9.35876 71.4409 9.83048C70.8354 10.2952 70.4164 10.8127 70.1841 11.3829L67.2165 10.707C67.5685 9.72136 68.0825 8.92576 68.7584 8.32027C69.4413 7.70773 70.2264 7.26417 71.1135 6.98959C72.0006 6.70796 72.9335 6.56715 73.9121 6.56715C74.5599 6.56715 75.2463 6.6446 75.9715 6.79949C76.7037 6.94734 77.3867 7.22193 78.0203 7.62324C78.661 8.02456 79.1856 8.59837 79.5939 9.34468C80.0023 10.0839 80.2065 11.045 80.2065 12.2278V23H77.1227V20.7822H76.9959C76.7917 21.1906 76.4855 21.5919 76.0771 21.9861C75.6688 22.3804 75.1442 22.7078 74.5035 22.9683C73.8628 23.2288 73.0954 23.3591 72.2013 23.3591ZM72.8877 20.8244C73.7608 20.8244 74.5071 20.6519 75.1266 20.307C75.7533 19.962 76.2285 19.5114 76.5524 18.9552C76.8833 18.3919 77.0487 17.7899 77.0487 17.1492V15.0582C76.9361 15.1708 76.7178 15.2764 76.394 15.375C76.0771 15.4665 75.7145 15.5475 75.3062 15.6179C74.8978 15.6813 74.5 15.7411 74.1128 15.7974C73.7255 15.8467 73.4017 15.889 73.1412 15.9242C72.5286 16.0016 71.9689 16.1319 71.462 16.3149C70.9621 16.498 70.5608 16.762 70.258 17.107C69.9623 17.4449 69.8145 17.8955 69.8145 18.4588C69.8145 19.2403 70.1031 19.8317 70.6805 20.233C71.2578 20.6273 71.9936 20.8244 72.8877 20.8244ZM92.3743 23V1.37116H100.295C101.83 1.37116 103.101 1.62462 104.108 2.13155C105.114 2.63143 105.868 3.31085 106.368 4.16981C106.867 5.02173 107.117 5.98278 107.117 7.05295C107.117 7.95415 106.952 8.71454 106.621 9.33412C106.29 9.94665 105.847 10.4395 105.29 10.8127C104.741 11.1788 104.136 11.4463 103.474 11.6153V11.8265C104.192 11.8617 104.893 12.0941 105.576 12.5235C106.265 12.946 106.836 13.5479 107.286 14.3295C107.737 15.111 107.962 16.0615 107.962 17.1809C107.962 18.2863 107.702 19.279 107.181 20.1591C106.667 21.0321 105.871 21.7256 104.794 22.2396C103.717 22.7465 102.34 23 100.665 23H92.3743ZM95.6376 20.2013H100.348C101.911 20.2013 103.03 19.8986 103.706 19.2931C104.382 18.6876 104.72 17.9307 104.72 17.0225C104.72 16.3396 104.548 15.7129 104.203 15.1426C103.858 14.5724 103.365 14.1182 102.724 13.7803C102.09 13.4423 101.337 13.2734 100.464 13.2734H95.6376V20.2013ZM95.6376 10.7282H100.01C100.742 10.7282 101.4 10.5874 101.985 10.3057C102.576 10.0241 103.044 9.62983 103.389 9.1229C103.741 8.60893 103.917 8.00344 103.917 7.30642C103.917 6.41225 103.604 5.66243 102.978 5.05693C102.351 4.45144 101.39 4.14869 100.094 4.14869H95.6376V10.7282ZM116.219 23.3591C115.191 23.3591 114.262 23.169 113.431 22.7888C112.6 22.4015 111.942 21.8418 111.456 21.1096C110.977 20.3774 110.738 19.4797 110.738 18.4165C110.738 17.5013 110.914 16.7479 111.266 16.1565C111.618 15.5651 112.093 15.0969 112.692 14.7519C113.29 14.4069 113.959 14.1464 114.698 13.9704C115.438 13.7944 116.191 13.6606 116.958 13.5691C117.93 13.4564 118.719 13.3649 119.324 13.2945C119.93 13.217 120.37 13.0938 120.644 12.9248C120.919 12.7559 121.056 12.4813 121.056 12.1011V12.0272C121.056 11.1048 120.796 10.3902 120.275 9.88329C119.761 9.37636 118.993 9.1229 117.972 9.1229C116.909 9.1229 116.071 9.35876 115.459 9.83048C114.853 10.2952 114.434 10.8127 114.202 11.3829L111.234 10.707C111.586 9.72136 112.1 8.92576 112.776 8.32027C113.459 7.70773 114.244 7.26417 115.131 6.98959C116.018 6.70796 116.951 6.56715 117.93 6.56715C118.578 6.56715 119.264 6.6446 119.989 6.79949C120.722 6.94734 121.405 7.22193 122.038 7.62324C122.679 8.02456 123.203 8.59837 123.612 9.34468C124.02 10.0839 124.224 11.045 124.224 12.2278V23H121.141V20.7822H121.014C120.81 21.1906 120.503 21.5919 120.095 21.9861C119.687 22.3804 119.162 22.7078 118.521 22.9683C117.881 23.2288 117.113 23.3591 116.219 23.3591ZM116.906 20.8244C117.779 20.8244 118.525 20.6519 119.145 20.307C119.771 19.962 120.246 19.5114 120.57 18.9552C120.901 18.3919 121.067 17.7899 121.067 17.1492V15.0582C120.954 15.1708 120.736 15.2764 120.412 15.375C120.095 15.4665 119.732 15.5475 119.324 15.6179C118.916 15.6813 118.518 15.7411 118.131 15.7974C117.743 15.8467 117.42 15.889 117.159 15.9242C116.547 16.0016 115.987 16.1319 115.48 16.3149C114.98 16.498 114.579 16.762 114.276 17.107C113.98 17.4449 113.832 17.8955 113.832 18.4588C113.832 19.2403 114.121 19.8317 114.698 20.233C115.276 20.6273 116.011 20.8244 116.906 20.8244ZM131.507 13.3684V23H128.349V6.77837H131.38V9.41861H131.581C131.954 8.55965 132.538 7.86967 133.334 7.34866C134.137 6.82765 135.147 6.56715 136.365 6.56715C137.47 6.56715 138.438 6.79949 139.269 7.26417C140.1 7.72181 140.744 8.40476 141.202 9.313C141.66 10.2212 141.888 11.3442 141.888 12.6819V23H138.731V13.0621C138.731 11.8864 138.424 10.9675 137.812 10.3057C137.199 9.63687 136.358 9.30244 135.288 9.30244C134.556 9.30244 133.904 9.46085 133.334 9.77768C132.771 10.0945 132.324 10.5592 131.993 11.1717C131.669 11.7772 131.507 12.5094 131.507 13.3684ZM148.947 17.4977L148.925 13.643H149.475L155.938 6.77837H159.719L152.347 14.5935H151.851L148.947 17.4977ZM146.042 23V1.37116H149.2V23H146.042ZM156.286 23L150.478 15.2905L152.653 13.0833L160.162 23H156.286ZM162.516 23V6.77837H165.673V23H162.516ZM164.11 4.27542C163.561 4.27542 163.089 4.09236 162.695 3.72625C162.308 3.3531 162.114 2.90954 162.114 2.39557C162.114 1.87456 162.308 1.431 162.695 1.06489C163.089 0.691735 163.561 0.505159 164.11 0.505159C164.659 0.505159 165.128 0.691735 165.515 1.06489C165.909 1.431 166.106 1.87456 166.106 2.39557C166.106 2.90954 165.909 3.3531 165.515 3.72625C165.128 4.09236 164.659 4.27542 164.11 4.27542ZM172.998 13.3684V23H169.84V6.77837H172.871V9.41861H173.072C173.445 8.55965 174.03 7.86967 174.825 7.34866C175.628 6.82765 176.638 6.56715 177.856 6.56715C178.962 6.56715 179.93 6.79949 180.76 7.26417C181.591 7.72181 182.235 8.40476 182.693 9.313C183.151 10.2212 183.38 11.3442 183.38 12.6819V23H180.222V13.0621C180.222 11.8864 179.916 10.9675 179.303 10.3057C178.69 9.63687 177.849 9.30244 176.779 9.30244C176.047 9.30244 175.395 9.46085 174.825 9.77768C174.262 10.0945 173.815 10.5592 173.484 11.1717C173.16 11.7772 172.998 12.5094 172.998 13.3684ZM194.335 29.4211C193.046 29.4211 191.937 29.2521 191.008 28.9141C190.086 28.5762 189.332 28.1291 188.748 27.5729C188.164 27.0167 187.727 26.4077 187.438 25.7458L190.153 24.6264C190.343 24.9362 190.596 25.2636 190.913 25.6086C191.237 25.9606 191.673 26.2598 192.222 26.5062C192.779 26.7527 193.493 26.8759 194.366 26.8759C195.563 26.8759 196.552 26.5837 197.334 25.9993C198.116 25.422 198.506 24.4997 198.506 23.2323V20.0429H198.306C198.116 20.3879 197.841 20.7716 197.482 21.1941C197.13 21.6165 196.644 21.9826 196.024 22.2924C195.405 22.6022 194.599 22.7571 193.606 22.7571C192.325 22.7571 191.17 22.4579 190.142 21.8594C189.121 21.2539 188.311 20.3633 187.713 19.1875C187.122 18.0047 186.826 16.5508 186.826 14.8258C186.826 13.1009 187.118 11.6223 187.702 10.3902C188.294 9.1581 189.103 8.21466 190.131 7.55988C191.159 6.89806 192.325 6.56715 193.627 6.56715C194.634 6.56715 195.447 6.73612 196.067 7.07407C196.686 7.40498 197.169 7.79222 197.514 8.23578C197.866 8.67934 198.137 9.0701 198.327 9.40805H198.559V6.77837H201.653V23.3591C201.653 24.7531 201.33 25.8972 200.682 26.7914C200.034 27.6855 199.158 28.3474 198.052 28.7768C196.954 29.2063 195.715 29.4211 194.335 29.4211ZM194.303 20.138C195.211 20.138 195.979 19.9268 196.605 19.5043C197.239 19.0748 197.718 18.4623 198.042 17.6667C198.372 16.8641 198.538 15.903 198.538 14.7836C198.538 13.6923 198.376 12.7312 198.052 11.9004C197.728 11.0696 197.253 10.4219 196.626 9.95722C196 9.48549 195.225 9.24963 194.303 9.24963C193.353 9.24963 192.56 9.49605 191.927 9.9889C191.293 10.4747 190.814 11.1365 190.49 11.9744C190.174 12.8122 190.015 13.7486 190.015 14.7836C190.015 15.8467 190.177 16.7796 190.501 17.5822C190.825 18.3849 191.304 19.0115 191.937 19.4621C192.578 19.9127 193.367 20.138 194.303 20.138ZM225.647 7.05295C225.534 6.05318 225.07 5.27871 224.253 4.72954C223.436 4.17333 222.408 3.89523 221.169 3.89523C220.282 3.89523 219.515 4.03604 218.867 4.31766C218.219 4.59225 217.716 4.97244 217.357 5.45825C217.005 5.93701 216.829 6.48266 216.829 7.0952C216.829 7.60916 216.948 8.05272 217.188 8.42588C217.434 8.79903 217.754 9.11234 218.149 9.3658C218.55 9.61222 218.979 9.81992 219.437 9.9889C219.895 10.1508 220.335 10.2846 220.757 10.3902L222.869 10.9394C223.559 11.1084 224.267 11.3372 224.992 11.6258C225.717 11.9145 226.39 12.2947 227.009 12.7664C227.629 13.2382 228.129 13.8225 228.509 14.5196C228.896 15.2166 229.09 16.0509 229.09 17.0225C229.09 18.2476 228.773 19.3353 228.139 20.2858C227.513 21.2363 226.601 21.9861 225.404 22.5353C224.214 23.0845 222.774 23.3591 221.085 23.3591C219.465 23.3591 218.064 23.1021 216.881 22.5881C215.698 22.0742 214.773 21.3454 214.104 20.402C213.435 19.4515 213.065 18.325 212.995 17.0225H216.269C216.332 17.804 216.586 18.4553 217.029 18.9763C217.48 19.4902 218.054 19.874 218.751 20.1274C219.455 20.3738 220.226 20.4971 221.063 20.4971C221.986 20.4971 222.806 20.3527 223.524 20.0641C224.249 19.7683 224.82 19.36 225.235 18.839C225.65 18.3109 225.858 17.6949 225.858 16.9908C225.858 16.3501 225.675 15.8256 225.309 15.4172C224.95 15.0089 224.461 14.6709 223.841 14.4034C223.228 14.1358 222.535 13.9 221.76 13.6958L219.205 12.9988C217.473 12.527 216.1 11.8335 215.086 10.9183C214.079 10.003 213.576 8.79199 213.576 7.28529C213.576 6.0391 213.914 4.95132 214.59 4.02196C215.265 3.09259 216.181 2.37093 217.335 1.85696C218.49 1.33595 219.793 1.07545 221.243 1.07545C222.707 1.07545 223.999 1.33243 225.119 1.8464C226.245 2.36037 227.132 3.06795 227.78 3.96915C228.428 4.86331 228.766 5.89125 228.794 7.05295H225.647ZM239.488 23.3274C237.967 23.3274 236.64 22.9789 235.506 22.2819C234.373 21.5848 233.493 20.6097 232.866 19.3565C232.24 18.1032 231.926 16.6388 231.926 14.9631C231.926 13.2804 232.24 11.8089 232.866 10.5486C233.493 9.28836 234.373 8.30971 235.506 7.61268C236.64 6.91566 237.967 6.56715 239.488 6.56715C241.009 6.56715 242.336 6.91566 243.469 7.61268C244.603 8.30971 245.483 9.28836 246.11 10.5486C246.736 11.8089 247.05 13.2804 247.05 14.9631C247.05 16.6388 246.736 18.1032 246.11 19.3565C245.483 20.6097 244.603 21.5848 243.469 22.2819C242.336 22.9789 241.009 23.3274 239.488 23.3274ZM239.498 20.6766C240.484 20.6766 241.301 20.4161 241.949 19.8951C242.596 19.3741 243.075 18.6806 243.385 17.8146C243.702 16.9486 243.86 15.9946 243.86 14.9525C243.86 13.9176 243.702 12.9671 243.385 12.1011C243.075 11.2281 242.596 10.5275 241.949 9.99946C241.301 9.47141 240.484 9.20739 239.498 9.20739C238.506 9.20739 237.682 9.47141 237.027 9.99946C236.379 10.5275 235.897 11.2281 235.58 12.1011C235.271 12.9671 235.116 13.9176 235.116 14.9525C235.116 15.9946 235.271 16.9486 235.58 17.8146C235.897 18.6806 236.379 19.3741 237.027 19.8951C237.682 20.4161 238.506 20.6766 239.498 20.6766ZM258.213 6.77837V9.313H249.046V6.77837H258.213ZM251.56 23V4.89852C251.56 3.88466 251.782 3.04331 252.225 2.37445C252.669 1.69855 253.257 1.19514 253.989 0.864231C254.721 0.52628 255.517 0.357304 256.376 0.357304C257.009 0.357304 257.551 0.410109 258.002 0.51572C258.453 0.614288 258.787 0.705816 259.005 0.790304L258.266 3.34606C258.118 3.30381 257.928 3.25453 257.696 3.1982C257.463 3.13484 257.182 3.10315 256.851 3.10315C256.083 3.10315 255.534 3.29325 255.203 3.67345C254.88 4.05364 254.718 4.60281 254.718 5.32096V23H251.56ZM268.962 6.77837V9.313H260.102V6.77837H268.962ZM262.478 2.89194H265.636V18.237C265.636 18.8495 265.727 19.3107 265.91 19.6205C266.093 19.9232 266.329 20.1309 266.618 20.2436C266.914 20.3492 267.234 20.402 267.579 20.402C267.832 20.402 268.054 20.3844 268.244 20.3492C268.434 20.314 268.582 20.2858 268.688 20.2647L269.258 22.8733C269.075 22.9437 268.815 23.0141 268.477 23.0845C268.139 23.1619 267.716 23.2042 267.209 23.2112C266.379 23.2253 265.604 23.0774 264.886 22.7677C264.168 22.4579 263.587 21.9791 263.143 21.3314C262.7 20.6836 262.478 19.8704 262.478 18.8918V2.89194ZM275.891 23L271.118 6.77837H274.381L277.56 18.6911H277.718L280.908 6.77837H284.171L287.339 18.6383H287.498L290.656 6.77837H293.919L289.156 23H285.935L282.64 11.2879H282.397L279.102 23H275.891ZM301.555 23.3591C300.527 23.3591 299.598 23.169 298.767 22.7888C297.936 22.4015 297.278 21.8418 296.792 21.1096C296.313 20.3774 296.074 19.4797 296.074 18.4165C296.074 17.5013 296.25 16.7479 296.602 16.1565C296.954 15.5651 297.429 15.0969 298.028 14.7519C298.626 14.4069 299.295 14.1464 300.034 13.9704C300.774 13.7944 301.527 13.6606 302.294 13.5691C303.266 13.4564 304.055 13.3649 304.66 13.2945C305.266 13.217 305.706 13.0938 305.98 12.9248C306.255 12.7559 306.392 12.4813 306.392 12.1011V12.0272C306.392 11.1048 306.132 10.3902 305.611 9.88329C305.097 9.37636 304.329 9.1229 303.308 9.1229C302.245 9.1229 301.407 9.35876 300.795 9.83048C300.189 10.2952 299.77 10.8127 299.538 11.3829L296.57 10.707C296.922 9.72136 297.436 8.92576 298.112 8.32027C298.795 7.70773 299.58 7.26417 300.467 6.98959C301.355 6.70796 302.287 6.56715 303.266 6.56715C303.914 6.56715 304.6 6.6446 305.325 6.79949C306.058 6.94734 306.741 7.22193 307.374 7.62324C308.015 8.02456 308.54 8.59837 308.948 9.34468C309.356 10.0839 309.56 11.045 309.56 12.2278V23H306.477V20.7822H306.35C306.146 21.1906 305.839 21.5919 305.431 21.9861C305.023 22.3804 304.498 22.7078 303.858 22.9683C303.217 23.2288 302.449 23.3591 301.555 23.3591ZM302.242 20.8244C303.115 20.8244 303.861 20.6519 304.481 20.307C305.107 19.962 305.582 19.5114 305.906 18.9552C306.237 18.3919 306.403 17.7899 306.403 17.1492V15.0582C306.29 15.1708 306.072 15.2764 305.748 15.375C305.431 15.4665 305.069 15.5475 304.66 15.6179C304.252 15.6813 303.854 15.7411 303.467 15.7974C303.08 15.8467 302.756 15.889 302.495 15.9242C301.883 16.0016 301.323 16.1319 300.816 16.3149C300.316 16.498 299.915 16.762 299.612 17.107C299.316 17.4449 299.168 17.8955 299.168 18.4588C299.168 19.2403 299.457 19.8317 300.034 20.233C300.612 20.6273 301.348 20.8244 302.242 20.8244ZM313.685 23V6.77837H316.737V9.35524H316.906C317.202 8.4822 317.723 7.79574 318.469 7.29585C319.223 6.78893 320.075 6.53547 321.025 6.53547C321.222 6.53547 321.455 6.54251 321.722 6.55659C321.997 6.57067 322.211 6.58827 322.366 6.60939V9.62983C322.24 9.59462 322.014 9.5559 321.69 9.51366C321.367 9.46437 321.043 9.43973 320.719 9.43973C319.973 9.43973 319.307 9.59814 318.723 9.91497C318.146 10.2248 317.688 10.6578 317.35 11.214C317.012 11.7631 316.843 12.3898 316.843 13.0938V23H313.685ZM331.429 23.3274C329.83 23.3274 328.454 22.9859 327.299 22.303C326.152 21.613 325.264 20.6449 324.638 19.3987C324.018 18.1455 323.708 16.6775 323.708 14.9948C323.708 13.3332 324.018 11.8687 324.638 10.6014C325.264 9.33412 326.137 8.34491 327.257 7.6338C328.383 6.9227 329.7 6.56715 331.207 6.56715C332.122 6.56715 333.009 6.71852 333.868 7.02127C334.727 7.32402 335.498 7.79926 336.181 8.447C336.864 9.09474 337.403 9.93609 337.797 10.9711C338.191 11.999 338.388 13.2487 338.388 14.7202V15.8397H325.493V13.474H335.294C335.294 12.6432 335.125 11.9075 334.787 11.2668C334.449 10.619 333.974 10.1086 333.361 9.73544C332.756 9.36228 332.045 9.17571 331.228 9.17571C330.341 9.17571 329.566 9.39397 328.904 9.83048C328.25 10.26 327.743 10.8232 327.384 11.5202C327.032 12.2102 326.856 12.96 326.856 13.7697V15.6179C326.856 16.7021 327.046 17.6245 327.426 18.3849C327.813 19.1453 328.352 19.7261 329.042 20.1274C329.732 20.5217 330.538 20.7188 331.46 20.7188C332.059 20.7188 332.604 20.6343 333.097 20.4654C333.59 20.2894 334.016 20.0289 334.375 19.6839C334.734 19.3389 335.009 18.9129 335.199 18.406L338.188 18.9446C337.948 19.8247 337.519 20.5956 336.899 21.2574C336.287 21.9122 335.516 22.4227 334.586 22.7888C333.664 23.1479 332.611 23.3274 331.429 23.3274Z" fill="#F2F2F2"/>
</svg>
