<!--
By
 ███▄ ▄███▓ ▄▄▄       ██▓     ██▓     ▒█████   █     █░
▓██▒▀█▀ ██▒▒████▄    ▓██▒    ▓██▒    ▒██▒  ██▒▓█░ █ ░█░
▓██    ▓██░▒██  ▀█▄  ▒██░    ▒██░    ▒██░  ██▒▒█░ █ ░█ 
▒██    ▒██ ░██▄▄▄▄██ ▒██░    ▒██░    ▒██   ██░░█░ █ ░█ 
▒██▒   ░██▒ ▓█   ▓██▒░██████▒░██████▒░ ████▓▒░░░██▒██▓ 
░ ▒░   ░  ░ ▒▒   ▓▒█░░ ▒░▓  ░░ ▒░▓  ░░ ▒░▒░▒░ ░ ▓░▒ ▒  
░  ░      ░  ▒   ▒▒ ░░ ░ ▒  ░░ ░ ▒  ░  ░ ▒ ▒░   ▒ ░ ░  
░      ░     ░   ▒     ░ ░     ░ ░   ░ ░ ░ ▒    ░   ░  
       ░         ░  ░    ░  ░    ░  ░    ░ ░      ░    
Generated on 27/08/2025
-->
<svg xmlns="http://www.w3.org/2000/svg" width="205.63050000000004" height="96" viewBox="0 0 205.63050000000004 96" fill="none">
  <path d="M13.33 0L1.98 0L1.98-18.63L4.83-18.63L4.83-2.45L13.33-2.45L13.33 0ZM19.87 0L17.14 0L17.14-13.80L19.87-13.80L19.87 0ZM18.51-15.96L18.51-15.96Q17.80-15.96 17.30-16.44Q16.80-16.93 16.80-17.60L16.80-17.60Q16.80-18.29 17.30-18.76Q17.80-19.23 18.51-19.23L18.51-19.23Q19.22-19.23 19.72-18.76Q20.22-18.29 20.22-17.60L20.22-17.60Q20.22-16.93 19.72-16.44Q19.22-15.96 18.51-15.96ZM27.16-8.13L27.16-8.13L27.16 0L24.42 0L24.42-13.80L27.05-13.80L27.06-10.41L26.71-10.41Q27.32-12.26 28.49-13.13Q29.65-14 31.30-14L31.30-14Q32.71-14 33.78-13.40Q34.85-12.80 35.45-11.63Q36.05-10.46 36.05-8.74L36.05-8.74L36.05 0L33.32 0L33.32-8.40Q33.32-9.93 32.54-10.77Q31.76-11.61 30.40-11.61L30.40-11.61Q29.47-11.61 28.74-11.21Q28.00-10.81 27.58-10.04Q27.16-9.26 27.16-8.13ZM45.62-7.13L43.13-4.65L43.13-7.96L43.55-7.96L49.08-13.80L52.38-13.80L46.07-7.13L45.62-7.13ZM43.35 0L40.61 0L40.61-18.63L43.35-18.63L43.35 0ZM52.76 0L49.40 0L44.43-6.53L46.31-8.44L52.76 0ZM61.68 0.29L61.68 0.29Q59.63 0.29 58.16-0.60Q56.68-1.49 55.89-3.09Q55.10-4.69 55.10-6.83L55.10-6.83Q55.10-8.94 55.88-10.56Q56.67-12.18 58.11-13.09Q59.55-14 61.46-14L61.46-14Q62.71-14 63.83-13.59Q64.95-13.18 65.81-12.32Q66.68-11.46 67.18-10.14Q67.68-8.83 67.68-7.01L67.68-7.01L67.68-6.09L56.55-6.09L56.55-8.14L66.27-8.14L65.02-7.48Q65.02-8.74 64.61-9.71Q64.21-10.68 63.41-11.21Q62.62-11.75 61.47-11.75L61.47-11.75Q60.32-11.75 59.50-11.20Q58.68-10.65 58.25-9.74Q57.81-8.83 57.81-7.70L57.81-7.70L57.81-6.36Q57.81-4.98 58.29-3.99Q58.77-3 59.65-2.48Q60.53-1.96 61.71-1.96L61.71-1.96Q62.50-1.96 63.13-2.19Q63.77-2.43 64.22-2.88Q64.67-3.33 64.90-3.98L64.90-3.98L67.47-3.50Q67.16-2.38 66.36-1.52Q65.56-0.66 64.36-0.19Q63.17 0.29 61.68 0.29ZM76.72 0.28L76.72 0.28Q75.02 0.28 73.71-0.59Q72.40-1.46 71.65-3.06Q70.91-4.66 70.91-6.88L70.91-6.88Q70.91-9.10 71.66-10.69Q72.41-12.29 73.73-13.14Q75.05-14 76.72-14L76.72-14Q77.92-14 78.71-13.61Q79.51-13.21 79.99-12.66Q80.47-12.11 80.75-11.61L80.75-11.61L80.88-11.61L80.88-18.63L83.61-18.63L83.61 0L80.95 0L80.95-2.15L80.76-2.15Q80.48-1.63 79.98-1.07Q79.48-0.51 78.70-0.12Q77.91 0.28 76.72 0.28ZM77.31-2.05L77.31-2.05Q78.47-2.05 79.28-2.66Q80.10-3.28 80.52-4.36Q80.95-5.45 80.95-6.89L80.95-6.89Q80.95-8.34 80.53-9.41Q80.11-10.48 79.30-11.08Q78.48-11.68 77.31-11.68L77.31-11.68Q76.13-11.68 75.33-11.06Q74.52-10.45 74.10-9.38Q73.68-8.30 73.68-6.89L73.68-6.89Q73.68-5.49 74.10-4.39Q74.52-3.30 75.34-2.68Q76.16-2.05 77.31-2.05ZM88.37-18.63L91.22-18.63L91.22 0L88.37 0L88.37-18.63ZM98.72-8.13L98.72-8.13L98.72 0L95.98 0L95.98-13.80L98.61-13.80L98.62-10.41L98.27-10.41Q98.88-12.26 100.04-13.13Q101.21-14 102.86-14L102.86-14Q104.27-14 105.34-13.40Q106.41-12.80 107.01-11.63Q107.61-10.46 107.61-8.74L107.61-8.74L107.61 0L104.88 0L104.88-8.40Q104.88-9.93 104.10-10.77Q103.32-11.61 101.96-11.61L101.96-11.61Q101.03-11.61 100.29-11.21Q99.56-10.81 99.14-10.04Q98.72-9.26 98.72-8.13Z" fill="#F2F2F2" opacity="1" id="msvg-u8pz29io1z9" style="transform: translate(32px, 58.800000000000004px)"/>
  <g id="msvg-y9tii18yzk" style="transform: translate(145.63050000000004px, 30px); animation: anim-j59kcdkktdc 2000ms linear 0ms infinite normal">
    <path d="M8.08672 30L6.51172 28.425L25.1867 9.75H14.1617V7.5H29.0117V22.35H26.7617V11.325L8.08672 30Z" fill="#F2F2F2" id="msvg-e6opxoecwl9"/>
  </g>
  <style>
  
    @keyframes anim-j59kcdkktdc {
      0% {
        translate: 0 -2px;
      }
      50% {
        translate: 0 2px;
      }
      100% {
        translate: 0 -2px;
      }
    }
  </style>
</svg>
