<!--
By
 ███▄ ▄███▓ ▄▄▄       ██▓     ██▓     ▒█████   █     █░
▓██▒▀█▀ ██▒▒████▄    ▓██▒    ▓██▒    ▒██▒  ██▒▓█░ █ ░█░
▓██    ▓██░▒██  ▀█▄  ▒██░    ▒██░    ▒██░  ██▒▒█░ █ ░█ 
▒██    ▒██ ░██▄▄▄▄██ ▒██░    ▒██░    ▒██   ██░░█░ █ ░█ 
▒██▒   ░██▒ ▓█   ▓██▒░██████▒░██████▒░ ████▓▒░░░██▒██▓ 
░ ▒░   ░  ░ ▒▒   ▓▒█░░ ▒░▓  ░░ ▒░▓  ░░ ▒░▒░▒░ ░ ▓░▒ ▒  
░  ░      ░  ▒   ▒▒ ░░ ░ ▒  ░░ ░ ▒  ░  ░ ▒ ▒░   ▒ ░ ░  
░      ░     ░   ▒     ░ ░     ░ ░   ░ ░ ░ ▒    ░   ░  
       ░         ░  ░    ░  ░    ░  ░    ░ ░      ░    
Generated on 27/08/2025
-->
<svg xmlns="http://www.w3.org/2000/svg" width="199.395" height="96" viewBox="0 0 199.395 96" fill="none">
  <path d="M4.83 0L1.98 0L1.98-18.63L8.75-18.63Q10.86-18.63 12.31-17.89Q13.75-17.15 14.48-15.83Q15.21-14.51 15.21-12.79L15.21-12.79Q15.21-11.05 14.46-9.76Q13.71-8.46 12.26-7.75Q10.81-7.04 8.69-7.04L8.69-7.04L3.61-7.04L3.61-9.46L8.49-9.46Q9.83-9.46 10.68-9.86Q11.53-10.25 11.94-11Q12.35-11.75 12.35-12.79L12.35-12.79Q12.35-13.84 11.94-14.60Q11.53-15.36 10.67-15.78Q9.81-16.19 8.46-16.19L8.46-16.19L4.83-16.19L4.83 0ZM15.83 0L12.60 0L8.11-8.41L11.25-8.41L15.83 0ZM25.27 0.29L25.27 0.29Q23.22 0.29 21.75-0.60Q20.27-1.49 19.48-3.09Q18.69-4.69 18.69-6.83L18.69-6.83Q18.69-8.94 19.47-10.56Q20.26-12.18 21.70-13.09Q23.14-14 25.05-14L25.05-14Q26.30-14 27.42-13.59Q28.54-13.18 29.41-12.32Q30.27-11.46 30.77-10.14Q31.27-8.83 31.27-7.01L31.27-7.01L31.27-6.09L20.14-6.09L20.14-8.14L29.86-8.14L28.61-7.48Q28.61-8.74 28.21-9.71Q27.80-10.68 27.01-11.21Q26.21-11.75 25.06-11.75L25.06-11.75Q23.91-11.75 23.09-11.20Q22.27-10.65 21.84-9.74Q21.40-8.83 21.40-7.70L21.40-7.70L21.40-6.36Q21.40-4.98 21.88-3.99Q22.36-3 23.24-2.48Q24.12-1.96 25.30-1.96L25.30-1.96Q26.09-1.96 26.72-2.19Q27.36-2.43 27.81-2.88Q28.26-3.33 28.49-3.98L28.49-3.98L31.06-3.50Q30.75-2.38 29.95-1.52Q29.15-0.66 27.96-0.19Q26.76 0.29 25.27 0.29ZM40.14 0.30L40.14 0.30Q38.61 0.30 37.42-0.15Q36.24-0.60 35.49-1.48Q34.74-2.36 34.51-3.64L34.51-3.64L37.11-4.06Q37.36-2.98 38.13-2.44Q38.90-1.91 40.14-1.91L40.14-1.91Q41.45-1.91 42.22-2.46Q43.00-3 43.00-3.78L43.00-3.78Q43.00-4.45 42.50-4.88Q42.01-5.31 41.05-5.53L41.05-5.53L38.72-6.04Q36.80-6.48 35.85-7.43Q34.90-8.39 34.90-9.89L34.90-9.89Q34.90-11.13 35.58-12.05Q36.26-12.98 37.46-13.49Q38.66-14 40.22-14L40.22-14Q41.74-14 42.83-13.54Q43.92-13.09 44.59-12.26Q45.26-11.44 45.50-10.34L45.50-10.34L43.01-9.91Q42.81-10.70 42.15-11.28Q41.49-11.85 40.26-11.85L40.26-11.85Q39.12-11.85 38.38-11.34Q37.64-10.83 37.64-10.03L37.64-10.03Q37.64-9.34 38.15-8.91Q38.66-8.49 39.75-8.24L39.75-8.24L41.99-7.74Q43.94-7.30 44.87-6.38Q45.80-5.45 45.80-3.99L45.80-3.99Q45.80-2.73 45.07-1.76Q44.35-0.79 43.07-0.24Q41.80 0.30 40.14 0.30ZM54.45 0.19L54.45 0.19Q53.03 0.19 51.96-0.41Q50.88-1 50.28-2.18Q49.67-3.35 49.67-5.08L49.67-5.08L49.67-13.80L52.41-13.80L52.41-5.41Q52.41-3.89 53.19-3.04Q53.97-2.19 55.35-2.19L55.35-2.19Q56.27-2.19 57.00-2.59Q57.72-2.99 58.15-3.77Q58.57-4.55 58.57-5.68L58.57-5.68L58.57-13.80L61.31-13.80L61.31 0L58.68 0L58.67-3.39L59.02-3.39Q58.40-1.53 57.23-0.67Q56.06 0.19 54.45 0.19ZM68.60 0L65.86 0L65.86-13.80L68.47-13.80L68.52-10.66L68.31-10.66Q68.62-11.81 69.25-12.56Q69.87-13.30 70.71-13.68Q71.55-14.05 72.46-14.05L72.46-14.05Q73.97-14.05 74.95-13.12Q75.92-12.19 76.23-10.59L76.23-10.59L75.87-10.59Q76.15-11.68 76.81-12.45Q77.47-13.23 78.41-13.64Q79.36-14.05 80.46-14.05L80.46-14.05Q81.68-14.05 82.69-13.51Q83.70-12.98 84.28-11.91Q84.87-10.85 84.87-9.26L84.87-9.26L84.87 0L82.15 0L82.15-8.99Q82.15-10.40 81.36-11.03Q80.58-11.65 79.51-11.65L79.51-11.65Q78.65-11.65 78.01-11.29Q77.38-10.93 77.05-10.28Q76.71-9.64 76.71-8.80L76.71-8.80L76.71 0L74.02 0L74.02-9.18Q74.02-10.30 73.30-10.98Q72.58-11.65 71.46-11.65L71.46-11.65Q70.70-11.65 70.04-11.29Q69.38-10.94 68.99-10.24Q68.60-9.55 68.60-8.53L68.60-8.53L68.60 0ZM95.37 0.29L95.37 0.29Q93.32 0.29 91.84-0.60Q90.37-1.49 89.58-3.09Q88.78-4.69 88.78-6.83L88.78-6.83Q88.78-8.94 89.57-10.56Q90.36-12.18 91.80-13.09Q93.23-14 95.14-14L95.14-14Q96.39-14 97.51-13.59Q98.63-13.18 99.50-12.32Q100.37-11.46 100.87-10.14Q101.37-8.83 101.37-7.01L101.37-7.01L101.37-6.09L90.23-6.09L90.23-8.14L99.96-8.14L98.71-7.48Q98.71-8.74 98.30-9.71Q97.89-10.68 97.10-11.21Q96.31-11.75 95.16-11.75L95.16-11.75Q94.01-11.75 93.19-11.20Q92.37-10.65 91.93-9.74Q91.50-8.83 91.50-7.70L91.50-7.70L91.50-6.36Q91.50-4.98 91.98-3.99Q92.46-3 93.34-2.48Q94.22-1.96 95.39-1.96L95.39-1.96Q96.18-1.96 96.82-2.19Q97.46-2.43 97.91-2.88Q98.36-3.33 98.58-3.98L98.58-3.98L101.16-3.50Q100.84-2.38 100.05-1.52Q99.25-0.66 98.05-0.19Q96.86 0.29 95.37 0.29Z" fill="#F2F2F2" opacity="1" id="msvg-84y4dk4g7ih" style="transform: translate(32px, 58.800000000000004px)"/>
  <g id="msvg-5jwyqn3jfzl" style="transform: translate(139.395px, 30px); animation: anim-10vo87zktrf 2000ms linear 0ms infinite normal">
    <path d="M8.08672 30L6.51172 28.425L25.1867 9.75H14.1617V7.5H29.0117V22.35H26.7617V11.325L8.08672 30Z" fill="#F2F2F2" id="msvg-q5g0v8niyw"/>
  </g>
  <style>
  
    @keyframes anim-10vo87zktrf {
      0% {
        translate: 0 -2px;
      }
      50% {
        translate: 0 2px;
      }
      100% {
        translate: 0 -2px;
      }
    }
  </style>
</svg>
