<!--
By
 ███▄ ▄███▓ ▄▄▄       ██▓     ██▓     ▒█████   █     █░
▓██▒▀█▀ ██▒▒████▄    ▓██▒    ▓██▒    ▒██▒  ██▒▓█░ █ ░█░
▓██    ▓██░▒██  ▀█▄  ▒██░    ▒██░    ▒██░  ██▒▒█░ █ ░█ 
▒██    ▒██ ░██▄▄▄▄██ ▒██░    ▒██░    ▒██   ██░░█░ █ ░█ 
▒██▒   ░██▒ ▓█   ▓██▒░██████▒░██████▒░ ████▓▒░░░██▒██▓ 
░ ▒░   ░  ░ ▒▒   ▓▒█░░ ▒░▓  ░░ ▒░▓  ░░ ▒░▒░▒░ ░ ▓░▒ ▒  
░  ░      ░  ▒   ▒▒ ░░ ░ ▒  ░░ ░ ▒  ░  ░ ▒ ▒░   ▒ ░ ░  
░      ░     ░   ▒     ░ ░     ░ ░   ░ ░ ░ ▒    ░   ░  
       ░         ░  ░    ░  ░    ░  ░    ░ ░      ░    
Generated on 8/28/2025

The MIT License (MIT)

Copyright (c) Mallory SCOTTON

Permission is hereby granted, free of charge, to any person obtaining a copy
of this software and associated documentation files (the "Software"), to deal
in the Software without restriction, including without limitation the rights
to use, copy, modify, merge, publish, distribute, sublicense, and/or sell
copies of the Software, and to permit persons to whom the Software is
furnished to do so, subject to the following conditions:

The above copyright notice and this permission notice shall be included in
all copies or substantial portions of the Software.

THE SOFTWARE IS PROVIDED "AS IS", WITHOUT WARRANTY OF ANY KIND, EXPRESS OR
IMPLIED, INCLUDING BUT NOT LIMITED TO THE WARRANTIES OF MERCHANTABILITY,
FITNESS FOR A PARTICULAR PURPOSE AND NONINFRINGEMENT. IN NO EVENT SHALL THE
AUTHORS OR COPYRIGHT HOLDERS BE LIABLE FOR ANY CLAIM, DAMAGES OR OTHER
LIABILITY, WHETHER IN AN ACTION OF CONTRACT, TORT OR OTHERWISE, ARISING FROM,
OUT OF OR IN CONNECTION WITH THE SOFTWARE OR THE USE OR OTHER DEALINGS IN
THE SOFTWARE.

-->
<svg xmlns="http://www.w3.org/2000/svg" width="400" height="138.64" viewBox="0 0 400 138.64" fill="none">
  <path d="M9.61 0.35L9.61 0.35Q7.16 0.35 5.35-0.44Q3.54-1.23 2.53-2.72Q1.52-4.20 1.44-6.23L1.44-6.23L4.73-6.23Q4.82-5.01 5.47-4.18Q6.13-3.35 7.20-2.93Q8.28-2.51 9.60-2.51L9.60-2.51Q10.99-2.51 12.07-2.95Q13.16-3.38 13.77-4.17Q14.39-4.95 14.39-6.00L14.39-6.00Q14.39-6.93 13.88-7.53Q13.36-8.13 12.44-8.55Q11.52-8.96 10.28-9.28L10.28-9.28L7.77-9.93Q4.98-10.67 3.49-12.07Q2.00-13.46 2.00-15.70L2.00-15.70Q2.00-17.57 3.00-18.98Q3.99-20.39 5.73-21.17Q7.46-21.94 9.67-21.94L9.67-21.94Q11.92-21.94 13.62-21.15Q15.32-20.36 16.28-18.97Q17.24-17.59 17.30-15.77L17.30-15.77L14.09-15.77Q13.94-17.34 12.72-18.21Q11.50-19.08 9.61-19.08L9.61-19.08Q8.31-19.08 7.33-18.67Q6.36-18.25 5.82-17.53Q5.29-16.80 5.29-15.87L5.29-15.87Q5.29-14.90 5.87-14.27Q6.45-13.65 7.36-13.27Q8.26-12.90 9.24-12.63L9.24-12.63L11.38-12.08Q12.55-11.79 13.66-11.33Q14.78-10.86 15.68-10.15Q16.58-9.44 17.11-8.42Q17.64-7.41 17.64-6.01L17.64-6.01Q17.64-4.15 16.69-2.72Q15.74-1.28 13.94-0.46Q12.14 0.35 9.61 0.35ZM27.67 0.33L27.67 0.33Q25.41 0.33 23.72-0.70Q22.02-1.74 21.09-3.61Q20.15-5.47 20.15-7.94L20.15-7.94Q20.15-10.44 21.09-12.31Q22.02-14.19 23.72-15.23Q25.41-16.26 27.67-16.26L27.67-16.26Q29.95-16.26 31.64-15.23Q33.34-14.19 34.27-12.31Q35.21-10.44 35.21-7.94L35.21-7.94Q35.21-5.47 34.27-3.61Q33.34-1.74 31.64-0.70Q29.95 0.33 27.67 0.33ZM27.67-2.35L27.67-2.35Q29.11-2.35 30.08-3.10Q31.04-3.85 31.52-5.12Q32.00-6.39 32.00-7.94L32.00-7.94Q32.00-9.53 31.52-10.80Q31.04-12.07 30.08-12.82Q29.11-13.58 27.67-13.58L27.67-13.58Q26.23-13.58 25.28-12.82Q24.33-12.07 23.85-10.80Q23.37-9.53 23.37-7.94L23.37-7.94Q23.37-6.39 23.85-5.12Q24.33-3.85 25.28-3.10Q26.23-2.35 27.67-2.35ZM41.51 6.07L38.33 6.07L38.33-16.03L41.42-16.03L41.42-13.49L41.64-13.49Q41.97-14.07 42.53-14.71Q43.09-15.35 44.01-15.81Q44.93-16.26 46.33-16.26L46.33-16.26Q48.30-16.26 49.82-15.27Q51.34-14.27 52.21-12.42Q53.08-10.57 53.08-7.99L53.08-7.99Q53.08-5.42 52.22-3.56Q51.35-1.70 49.83-0.69Q48.32 0.32 46.33 0.32L46.33 0.32Q44.96 0.32 44.05-0.14Q43.13-0.60 42.56-1.24Q41.98-1.89 41.65-2.48L41.65-2.48L41.51-2.48L41.51 6.07ZM45.64-2.38L45.64-2.38Q46.99-2.38 47.94-3.11Q48.88-3.83 49.37-5.10Q49.86-6.37 49.86-8.00L49.86-8.00Q49.86-9.64 49.37-10.89Q48.88-12.14 47.95-12.85Q47.01-13.56 45.64-13.56L45.64-13.56Q44.28-13.56 43.34-12.87Q42.39-12.17 41.91-10.93Q41.42-9.69 41.42-8.00L41.42-8.00Q41.42-6.33 41.91-5.07Q42.41-3.80 43.36-3.09Q44.31-2.38 45.64-2.38ZM59.38 0L56.20 0L56.20-16.03L59.26-16.03L59.26-13.46L59.41-13.46Q59.86-14.77 60.92-15.51Q61.99-16.25 63.43-16.25L63.43-16.25Q63.75-16.25 64.12-16.23Q64.49-16.21 64.73-16.18L64.73-16.18L64.73-13.17Q64.56-13.21 64.07-13.27Q63.59-13.33 63.06-13.33L63.06-13.33Q62.02-13.33 61.18-12.88Q60.33-12.43 59.86-11.61Q59.38-10.79 59.38-9.69L59.38-9.69L59.38 0ZM71.71 0.33L71.71 0.33Q70.17 0.33 68.94-0.23Q67.71-0.78 66.99-1.87Q66.27-2.96 66.27-4.55L66.27-4.55Q66.27-5.91 66.80-6.79Q67.33-7.67 68.21-8.18Q69.10-8.68 70.21-8.95Q71.32-9.21 72.48-9.34L72.48-9.34Q73.92-9.51 74.80-9.63Q75.68-9.74 76.09-9.99Q76.51-10.24 76.51-10.80L76.51-10.80L76.51-10.89Q76.51-11.78 76.16-12.39Q75.81-13.01 75.11-13.35Q74.41-13.68 73.40-13.68L73.40-13.68Q72.37-13.68 71.61-13.35Q70.86-13.03 70.39-12.51Q69.91-11.99 69.72-11.41L69.72-11.41L66.72-12.01Q67.17-13.48 68.15-14.41Q69.13-15.35 70.48-15.81Q71.83-16.26 73.37-16.26L73.37-16.26Q74.44-16.26 75.55-16.00Q76.67-15.74 77.60-15.12Q78.54-14.49 79.11-13.42Q79.67-12.34 79.67-10.72L79.67-10.72L79.67 0L76.59 0L76.59-2.21L76.46-2.21Q76.14-1.58 75.53-1.00Q74.92-0.42 73.98-0.04Q73.04 0.33 71.71 0.33ZM72.41-2.21L72.41-2.21Q73.73-2.21 74.65-2.72Q75.56-3.22 76.04-4.05Q76.52-4.88 76.52-5.82L76.52-5.82L76.52-7.84Q76.36-7.68 75.90-7.55Q75.43-7.42 74.84-7.31Q74.24-7.20 73.66-7.12Q73.08-7.04 72.64-6.98L72.64-6.98Q71.77-6.87 71.02-6.60Q70.28-6.33 69.83-5.83Q69.39-5.33 69.39-4.50L69.39-4.50Q69.39-3.75 69.78-3.24Q70.16-2.73 70.84-2.47Q71.53-2.21 72.41-2.21ZM99.61 0L91.28 0L91.28-21.64L99.28-21.64Q101.57-21.64 103.10-20.89Q104.62-20.14 105.39-18.86Q106.16-17.59 106.16-15.96L106.16-15.96Q106.16-14.62 105.68-13.70Q105.19-12.78 104.36-12.21Q103.53-11.63 102.50-11.36L102.50-11.36L102.50-11.18Q103.62-11.09 104.65-10.46Q105.68-9.83 106.34-8.68Q107.00-7.52 107.00-5.88L107.00-5.88Q107.00-4.20 106.21-2.86Q105.41-1.52 103.77-0.76Q102.14 0 99.61 0L99.61 0ZM94.57-9.70L94.57-2.82L99.29-2.82Q101.60-2.82 102.66-3.71Q103.71-4.60 103.71-6.01L103.71-6.01Q103.71-7.06 103.19-7.89Q102.68-8.73 101.72-9.21Q100.76-9.70 99.42-9.70L99.42-9.70L94.57-9.70ZM94.57-18.83L94.57-12.29L99.03-12.29Q100.15-12.29 101.03-12.70Q101.91-13.11 102.41-13.88Q102.91-14.64 102.91-15.67L102.91-15.67Q102.91-17.05 101.96-17.94Q101.01-18.83 99.10-18.83L99.10-18.83L94.57-18.83ZM114.80 0.33L114.80 0.33Q113.26 0.33 112.02-0.23Q110.79-0.78 110.07-1.87Q109.35-2.96 109.35-4.55L109.35-4.55Q109.35-5.91 109.88-6.79Q110.41-7.67 111.30-8.18Q112.18-8.68 113.29-8.95Q114.40-9.21 115.57-9.34L115.57-9.34Q117.00-9.51 117.88-9.63Q118.76-9.74 119.18-9.99Q119.59-10.24 119.59-10.80L119.59-10.80L119.59-10.89Q119.59-11.78 119.24-12.39Q118.89-13.01 118.19-13.35Q117.50-13.68 116.48-13.68L116.48-13.68Q115.45-13.68 114.70-13.35Q113.94-13.03 113.47-12.51Q113.00-11.99 112.81-11.41L112.81-11.41L109.80-12.01Q110.25-13.48 111.23-14.41Q112.21-15.35 113.56-15.81Q114.91-16.26 116.45-16.26L116.45-16.26Q117.53-16.26 118.64-16.00Q119.75-15.74 120.69-15.12Q121.62-14.49 122.19-13.42Q122.75-12.34 122.75-10.72L122.75-10.72L122.75 0L119.68 0L119.68-2.21L119.55-2.21Q119.23-1.58 118.62-1.00Q118.01-0.42 117.06-0.04Q116.12 0.33 114.80 0.33ZM115.49-2.21L115.49-2.21Q116.82-2.21 117.73-2.72Q118.65-3.22 119.12-4.05Q119.60-4.88 119.60-5.82L119.60-5.82L119.60-7.84Q119.44-7.68 118.98-7.55Q118.51-7.42 117.92-7.31Q117.32-7.20 116.74-7.12Q116.16-7.04 115.73-6.98L115.73-6.98Q114.85-6.87 114.11-6.60Q113.36-6.33 112.92-5.83Q112.47-5.33 112.47-4.50L112.47-4.50Q112.47-3.75 112.86-3.24Q113.24-2.73 113.93-2.47Q114.61-2.21 115.49-2.21ZM129.79-9.44L129.79-9.44L129.79 0L126.61 0L126.61-16.03L129.66-16.03L129.68-12.10L129.27-12.10Q129.98-14.25 131.33-15.25Q132.68-16.26 134.60-16.26L134.60-16.26Q136.24-16.26 137.48-15.57Q138.72-14.87 139.42-13.51Q140.12-12.15 140.12-10.15L140.12-10.15L140.12 0L136.95 0L136.95-9.76Q136.95-11.53 136.04-12.51Q135.14-13.49 133.55-13.49L133.55-13.49Q132.48-13.49 131.62-13.03Q130.76-12.56 130.28-11.66Q129.79-10.76 129.79-9.44ZM149.81-8.28L146.92-5.40L146.92-9.25L147.40-9.25L153.83-16.03L157.67-16.03L150.33-8.28L149.81-8.28ZM147.17 0L143.99 0L143.99-21.64L147.17-21.64L147.17 0ZM158.10 0L154.20 0L148.43-7.58L150.61-9.80L158.10 0ZM163.31 0L160.13 0L160.13-16.03L163.31-16.03L163.31 0ZM161.73-18.54L161.73-18.54Q160.90-18.54 160.32-19.10Q159.74-19.66 159.74-20.45L159.74-20.45Q159.74-21.24 160.32-21.79Q160.90-22.33 161.73-22.33L161.73-22.33Q162.56-22.33 163.14-21.79Q163.72-21.24 163.72-20.45L163.72-20.45Q163.72-19.66 163.14-19.10Q162.56-18.54 161.73-18.54ZM170.35-9.44L170.35-9.44L170.35 0L167.17 0L167.17-16.03L170.22-16.03L170.23-12.10L169.83-12.10Q170.54-14.25 171.89-15.25Q173.24-16.26 175.15-16.26L175.15-16.26Q176.80-16.26 178.04-15.57Q179.28-14.87 179.98-13.51Q180.67-12.15 180.67-10.15L180.67-10.15L180.67 0L177.51 0L177.51-9.76Q177.51-11.53 176.60-12.51Q175.69-13.49 174.11-13.49L174.11-13.49Q173.03-13.49 172.18-13.03Q171.32-12.56 170.83-11.66Q170.35-10.76 170.35-9.44ZM191.33 6.39L191.33 6.39Q189.44 6.39 188.05 5.90Q186.66 5.40 185.77 4.54Q184.88 3.67 184.49 2.58L184.49 2.58L187.23 1.60Q187.51 2.12 188.00 2.64Q188.49 3.15 189.29 3.49Q190.09 3.83 191.31 3.83L191.31 3.83Q193.17 3.83 194.30 2.93Q195.44 2.02 195.44 0.16L195.44 0.16L195.44-2.83L195.22-2.83Q194.87-2.22 194.31-1.60Q193.75-0.99 192.84-0.57Q191.92-0.15 190.54-0.15L190.54-0.15Q188.63-0.15 187.09-1.07Q185.56-2.00 184.68-3.77Q183.80-5.53 183.80-8.07L183.80-8.07Q183.80-10.60 184.68-12.44Q185.56-14.27 187.09-15.27Q188.63-16.26 190.57-16.26L190.57-16.26Q191.97-16.26 192.89-15.81Q193.81-15.36 194.39-14.71Q194.97-14.06 195.31-13.46L195.31-13.46L195.48-13.46L195.48-16.03L198.57-16.03L198.57 0.15Q198.57 2.31 197.61 3.69Q196.66 5.07 195.01 5.73Q193.37 6.39 191.33 6.39ZM191.27-2.80L191.27-2.80Q192.62-2.80 193.56-3.44Q194.51-4.08 195.00-5.27Q195.49-6.46 195.49-8.12L195.49-8.12Q195.49-9.74 195.00-10.96Q194.51-12.18 193.56-12.87Q192.62-13.56 191.27-13.56L191.27-13.56Q189.90-13.56 188.95-12.86Q188.00-12.15 187.51-10.93Q187.03-9.70 187.03-8.12L187.03-8.12Q187.03-6.49 187.52-5.30Q188.02-4.11 188.96-3.46Q189.90-2.80 191.27-2.80ZM217.51 0.35L217.51 0.35Q215.06 0.35 213.25-0.44Q211.44-1.23 210.43-2.72Q209.42-4.20 209.34-6.23L209.34-6.23L212.63-6.23Q212.72-5.01 213.37-4.18Q214.03-3.35 215.10-2.93Q216.18-2.51 217.50-2.51L217.50-2.51Q218.89-2.51 219.97-2.95Q221.06-3.38 221.67-4.17Q222.29-4.95 222.29-6.00L222.29-6.00Q222.29-6.93 221.77-7.53Q221.26-8.13 220.34-8.55Q219.41-8.96 218.18-9.28L218.18-9.28L215.67-9.93Q212.88-10.67 211.39-12.07Q209.90-13.46 209.90-15.70L209.90-15.70Q209.90-17.57 210.90-18.98Q211.89-20.39 213.63-21.17Q215.36-21.94 217.57-21.94L217.57-21.94Q219.82-21.94 221.52-21.15Q223.22-20.36 224.18-18.97Q225.14-17.59 225.19-15.77L225.19-15.77L221.98-15.77Q221.84-17.34 220.62-18.21Q219.40-19.08 217.51-19.08L217.51-19.08Q216.20-19.08 215.23-18.67Q214.26-18.25 213.72-17.53Q213.18-16.80 213.18-15.87L213.18-15.87Q213.18-14.90 213.77-14.27Q214.35-13.65 215.25-13.27Q216.16-12.90 217.13-12.63L217.13-12.63L219.28-12.08Q220.45-11.79 221.56-11.33Q222.68-10.86 223.58-10.15Q224.48-9.44 225.01-8.42Q225.54-7.41 225.54-6.01L225.54-6.01Q225.54-4.15 224.59-2.72Q223.64-1.28 221.84-0.46Q220.04 0.35 217.51 0.35ZM235.57 0.33L235.57 0.33Q233.31 0.33 231.61-0.70Q229.92-1.74 228.99-3.61Q228.05-5.47 228.05-7.94L228.05-7.94Q228.05-10.44 228.99-12.31Q229.92-14.19 231.61-15.23Q233.31-16.26 235.57-16.26L235.57-16.26Q237.85-16.26 239.54-15.23Q241.23-14.19 242.17-12.31Q243.11-10.44 243.11-7.94L243.11-7.94Q243.11-5.47 242.17-3.61Q241.23-1.74 239.54-0.70Q237.85 0.33 235.57 0.33ZM235.57-2.35L235.57-2.35Q237.01-2.35 237.97-3.10Q238.94-3.85 239.42-5.12Q239.90-6.39 239.90-7.94L239.90-7.94Q239.90-9.53 239.42-10.80Q238.94-12.07 237.97-12.82Q237.01-13.58 235.57-13.58L235.57-13.58Q234.13-13.58 233.18-12.82Q232.23-12.07 231.75-10.80Q231.27-9.53 231.27-7.94L231.27-7.94Q231.27-6.39 231.75-5.12Q232.23-3.85 233.18-3.10Q234.13-2.35 235.57-2.35ZM244.45-16.03L254.14-16.03L254.14-13.45L244.45-13.45L244.45-16.03ZM250.62 0L247.46 0L247.46-18.04Q247.46-19.49 248.10-20.46Q248.74-21.43 249.81-21.93Q250.89-22.42 252.19-22.42L252.19-22.42Q253.06-22.42 253.72-22.30Q254.39-22.19 254.68-22.09L254.68-22.09L254.09-19.52Q253.89-19.57 253.52-19.63Q253.15-19.69 252.69-19.69L252.69-19.69Q251.60-19.69 251.11-19.16Q250.62-18.63 250.62-17.59L250.62-17.59L250.62 0ZM255.16-16.03L263.99-16.03L263.99-13.45L255.16-13.45L255.16-16.03ZM257.60-4.02L257.60-19.97L260.78-19.97L260.78-4.31Q260.78-3.37 261.18-2.93Q261.57-2.50 262.51-2.50L262.51-2.50Q262.79-2.50 263.19-2.55Q263.60-2.60 263.89-2.64L263.89-2.64L264.34-0.09Q263.85 0.04 263.28 0.10Q262.72 0.16 262.16 0.16L262.16 0.16Q259.97 0.16 258.79-0.92Q257.60-2.00 257.60-4.02L257.60-4.02ZM273.47 0L270.28 0L265.42-16.03L268.76-16.03L270.54-9.41Q270.94-7.89 271.38-6.07Q271.81-4.25 272.24-2.09L272.24-2.09L271.79-2.09Q272.19-4.20 272.64-6.01Q273.09-7.83 273.50-9.41L273.50-9.41L275.30-16.03L278.42-16.03L280.19-9.41Q280.60-7.86 281.04-6.04Q281.47-4.23 281.89-2.09L281.89-2.09L281.43-2.09Q281.85-4.21 282.28-6.03Q282.72-7.84 283.13-9.41L283.13-9.41L284.91-16.03L288.27-16.03L283.40 0L280.21 0L278.22-6.91Q277.91-7.96 277.63-9.08Q277.35-10.21 277.07-11.38Q276.80-12.56 276.52-13.69L276.52-13.69L277.17-13.69Q276.90-12.56 276.61-11.38Q276.33-10.21 276.05-9.08Q275.76-7.94 275.46-6.91L275.46-6.91L273.47 0ZM295.38 0.33L295.38 0.33Q293.84 0.33 292.60-0.23Q291.37-0.78 290.65-1.87Q289.93-2.96 289.93-4.55L289.93-4.55Q289.93-5.91 290.46-6.79Q290.99-7.67 291.88-8.18Q292.76-8.68 293.87-8.95Q294.99-9.21 296.15-9.34L296.15-9.34Q297.58-9.51 298.46-9.63Q299.34-9.74 299.76-9.99Q300.17-10.24 300.17-10.80L300.17-10.80L300.17-10.89Q300.17-11.78 299.82-12.39Q299.47-13.01 298.78-13.35Q298.08-13.68 297.06-13.68L297.06-13.68Q296.03-13.68 295.28-13.35Q294.52-13.03 294.05-12.51Q293.58-11.99 293.39-11.41L293.39-11.41L290.38-12.01Q290.83-13.48 291.81-14.41Q292.79-15.35 294.14-15.81Q295.49-16.26 297.03-16.26L297.03-16.26Q298.11-16.26 299.22-16.00Q300.33-15.74 301.27-15.12Q302.20-14.49 302.77-13.42Q303.33-12.34 303.33-10.72L303.33-10.72L303.33 0L300.26 0L300.26-2.21L300.13-2.21Q299.81-1.58 299.20-1.00Q298.59-0.42 297.64-0.04Q296.70 0.33 295.38 0.33ZM296.07-2.21L296.07-2.21Q297.40-2.21 298.31-2.72Q299.23-3.22 299.70-4.05Q300.18-4.88 300.18-5.82L300.18-5.82L300.18-7.84Q300.02-7.68 299.56-7.55Q299.09-7.42 298.50-7.31Q297.90-7.20 297.32-7.12Q296.74-7.04 296.31-6.98L296.31-6.98Q295.44-6.87 294.69-6.60Q293.94-6.33 293.50-5.83Q293.05-5.33 293.05-4.50L293.05-4.50Q293.05-3.75 293.44-3.24Q293.82-2.73 294.51-2.47Q295.19-2.21 296.07-2.21ZM310.37 0L307.19 0L307.19-16.03L310.26-16.03L310.26-13.46L310.40-13.46Q310.85-14.77 311.92-15.51Q312.99-16.25 314.42-16.25L314.42-16.25Q314.74-16.25 315.11-16.23Q315.48-16.21 315.73-16.18L315.73-16.18L315.73-13.17Q315.56-13.21 315.07-13.27Q314.58-13.33 314.06-13.33L314.06-13.33Q313.02-13.33 312.17-12.88Q311.33-12.43 310.85-11.61Q310.37-10.79 310.37-9.69L310.37-9.69L310.37 0ZM325.05 0.33L325.05 0.33Q322.67 0.33 320.95-0.70Q319.24-1.73 318.32-3.59Q317.40-5.45 317.40-7.93L317.40-7.93Q317.40-10.38 318.31-12.26Q319.22-14.14 320.89-15.20Q322.56-16.26 324.79-16.26L324.79-16.26Q326.24-16.26 327.54-15.78Q328.84-15.31 329.85-14.31Q330.86-13.32 331.44-11.78Q332.02-10.25 332.02-8.15L332.02-8.15L332.02-7.07L319.08-7.07L319.08-9.45L330.38-9.45L328.93-8.68Q328.93-10.15 328.45-11.28Q327.98-12.40 327.06-13.03Q326.14-13.65 324.80-13.65L324.80-13.65Q323.47-13.65 322.51-13.01Q321.56-12.37 321.05-11.31Q320.55-10.25 320.55-8.95L320.55-8.95L320.55-7.39Q320.55-5.78 321.11-4.63Q321.66-3.49 322.69-2.88Q323.71-2.28 325.08-2.28L325.08-2.28Q325.99-2.28 326.73-2.55Q327.47-2.82 328.00-3.34Q328.52-3.86 328.78-4.62L328.78-4.62L331.77-4.07Q331.41-2.76 330.48-1.76Q329.55-0.77 328.16-0.22Q326.78 0.33 325.05 0.33Z" fill="#F2F2F2" opacity="1" id="msvg-1f30xss1dkb" style="transform: translate(0px, 33.12px)"/>
</svg>
