<svg width="104" height="49" viewBox="0 0 104 49" fill="none" xmlns="http://www.w3.org/2000/svg">
    <style>
    #linkedin-animated {
        animation: slideup-animation 2s infinite;
    }

    @keyframes slideup-animation {
        0% {
            transform: translateY(-2px);
        }
        50% {
            transform: translateY(2px);
        }
        100% {
            transform: translateY(-2px);
        }
    }
    </style>
    <path d="M17.3665 29.5V20.1909H18.771V28.2909H22.9892V29.5H17.3665ZM24.6824 29.5V22.5182H26.0415V29.5H24.6824ZM25.3687 21.4409C25.1324 21.4409 24.9294 21.3621 24.7597 21.2045C24.593 21.0439 24.5097 20.853 24.5097 20.6318C24.5097 20.4076 24.593 20.2167 24.7597 20.0591C24.9294 19.8985 25.1324 19.8182 25.3687 19.8182C25.6051 19.8182 25.8066 19.8985 25.9733 20.0591C26.143 20.2167 26.2278 20.4076 26.2278 20.6318C26.2278 20.853 26.143 21.0439 25.9733 21.2045C25.8066 21.3621 25.6051 21.4409 25.3687 21.4409ZM29.429 25.3545V29.5H28.0699V22.5182H29.3744V23.6545H29.4608C29.6214 23.2848 29.8729 22.9879 30.2153 22.7636C30.5608 22.5394 30.9956 22.4273 31.5199 22.4273C31.9956 22.4273 32.4123 22.5273 32.7699 22.7273C33.1275 22.9242 33.4047 23.2182 33.6017 23.6091C33.7987 24 33.8972 24.4833 33.8972 25.0591V29.5H32.5381V25.2227C32.5381 24.7167 32.4063 24.3212 32.1426 24.0364C31.879 23.7485 31.5169 23.6045 31.0563 23.6045C30.7411 23.6045 30.4608 23.6727 30.2153 23.8091C29.9729 23.9455 29.7805 24.1455 29.6381 24.4091C29.4987 24.6697 29.429 24.9848 29.429 25.3545ZM37.1699 27.1318L37.1608 25.4727H37.3972L40.179 22.5182H41.8063L38.6335 25.8818H38.4199L37.1699 27.1318ZM35.9199 29.5V20.1909H37.279V29.5H35.9199ZM40.329 29.5L37.829 26.1818L38.7653 25.2318L41.9972 29.5H40.329ZM45.9665 29.6409C45.2786 29.6409 44.6862 29.4939 44.1892 29.2C43.6953 28.903 43.3134 28.4864 43.0438 27.95C42.7771 27.4106 42.6438 26.7788 42.6438 26.0545C42.6438 25.3394 42.7771 24.7091 43.0438 24.1636C43.3134 23.6182 43.6892 23.1924 44.171 22.8864C44.6559 22.5803 45.2225 22.4273 45.871 22.4273C46.265 22.4273 46.6468 22.4924 47.0165 22.6227C47.3862 22.753 47.718 22.9576 48.0119 23.2364C48.3059 23.5152 48.5377 23.8773 48.7074 24.3227C48.8771 24.7652 48.9619 25.303 48.9619 25.9364V26.4182H43.4119V25.4H47.6301C47.6301 25.0424 47.5574 24.7258 47.4119 24.45C47.2665 24.1712 47.0619 23.9515 46.7983 23.7909C46.5377 23.6303 46.2316 23.55 45.8801 23.55C45.4983 23.55 45.165 23.6439 44.8801 23.8318C44.5983 24.0167 44.3801 24.2591 44.2256 24.5591C44.0741 24.8561 43.9983 25.1788 43.9983 25.5273V26.3227C43.9983 26.7894 44.0801 27.1864 44.2438 27.5136C44.4104 27.8409 44.6422 28.0909 44.9392 28.2636C45.2362 28.4333 45.5831 28.5182 45.9801 28.5182C46.2377 28.5182 46.4725 28.4818 46.6847 28.4091C46.8968 28.3333 47.0801 28.2212 47.2347 28.0727C47.3892 27.9242 47.5074 27.7409 47.5892 27.5227L48.8756 27.7545C48.7725 28.1333 48.5877 28.4652 48.321 28.75C48.0574 29.0318 47.7256 29.2515 47.3256 29.4091C46.9286 29.5636 46.4756 29.6409 45.9665 29.6409ZM53.2835 29.6364C52.7199 29.6364 52.2169 29.4924 51.7744 29.2045C51.335 28.9136 50.9896 28.5 50.7381 27.9636C50.4896 27.4242 50.3653 26.7773 50.3653 26.0227C50.3653 25.2682 50.4911 24.6227 50.7426 24.0864C50.9972 23.55 51.3456 23.1394 51.7881 22.8545C52.2305 22.5697 52.732 22.4273 53.2926 22.4273C53.7259 22.4273 54.0744 22.5 54.3381 22.6455C54.6047 22.7879 54.8108 22.9545 54.9563 23.1455C55.1047 23.3364 55.2199 23.5045 55.3017 23.65H55.3835V20.1909H56.7426V29.5H55.4153V28.4136H55.3017C55.2199 28.5621 55.1017 28.7318 54.9472 28.9227C54.7956 29.1136 54.5866 29.2803 54.3199 29.4227C54.0532 29.5652 53.7078 29.6364 53.2835 29.6364ZM53.5835 28.4773C53.9744 28.4773 54.3047 28.3742 54.5744 28.1682C54.8472 27.9591 55.0532 27.6697 55.1926 27.3C55.335 26.9303 55.4063 26.5 55.4063 26.0091C55.4063 25.5242 55.3366 25.1 55.1972 24.7364C55.0578 24.3727 54.8532 24.0894 54.5835 23.8864C54.3138 23.6833 53.9805 23.5818 53.5835 23.5818C53.1744 23.5818 52.8335 23.6879 52.5608 23.9C52.2881 24.1121 52.082 24.4015 51.9426 24.7682C51.8063 25.1348 51.7381 25.5485 51.7381 26.0091C51.7381 26.4758 51.8078 26.8955 51.9472 27.2682C52.0866 27.6409 52.2926 27.9364 52.5653 28.1545C52.8411 28.3697 53.1805 28.4773 53.5835 28.4773ZM60.396 20.1909V29.5H58.9915V20.1909H60.396ZM63.8915 25.3545V29.5H62.5324V22.5182H63.8369V23.6545H63.9233C64.0839 23.2848 64.3354 22.9879 64.6778 22.7636C65.0233 22.5394 65.4581 22.4273 65.9824 22.4273C66.4581 22.4273 66.8748 22.5273 67.2324 22.7273C67.59 22.9242 67.8672 23.2182 68.0642 23.6091C68.2612 24 68.3597 24.4833 68.3597 25.0591V29.5H67.0006V25.2227C67.0006 24.7167 66.8688 24.3212 66.6051 24.0364C66.3415 23.7485 65.9794 23.6045 65.5188 23.6045C65.2036 23.6045 64.9233 23.6727 64.6778 23.8091C64.4354 23.9455 64.243 24.1455 64.1006 24.4091C63.9612 24.6697 63.8915 24.9848 63.8915 25.3545Z" fill="#F2F2F2"/>
    <path id="linkedin-animated" d="M77.1312 30.5L76.3438 29.7125L85.6812 20.375H80.1687V19.25H87.5938V26.675H86.4688V21.1625L77.1312 30.5Z" fill="#F2F2F2"/>
</svg>
