<svg width="102" height="49" viewBox="0 0 102 49" fill="none" xmlns="http://www.w3.org/2000/svg">
    <style>
    #resume-animated {
        animation: slideup-animation 2s infinite;
    }

    @keyframes slideup-animation {
        0% {
            transform: translateY(-2px);
        }
        50% {
            transform: translateY(2px);
        }
        100% {
            transform: translateY(-2px);
        }
    }
    </style>
    <path d="M17.4768 29.5V20.1909H20.795C21.5162 20.1909 22.1147 20.3152 22.5905 20.5636C23.0693 20.8121 23.4268 21.1561 23.6632 21.5955C23.8996 22.0318 24.0177 22.5364 24.0177 23.1091C24.0177 23.6788 23.898 24.1803 23.6586 24.6136C23.4223 25.0439 23.0647 25.3788 22.5859 25.6182C22.1102 25.8576 21.5117 25.9773 20.7905 25.9773H18.2768V24.7682H20.6632C21.1177 24.7682 21.4874 24.703 21.7723 24.5727C22.0602 24.4424 22.2708 24.253 22.4041 24.0045C22.5374 23.7561 22.6041 23.4576 22.6041 23.1091C22.6041 22.7576 22.5359 22.453 22.3996 22.1955C22.2662 21.9379 22.0556 21.7409 21.7677 21.6045C21.4829 21.4652 21.1086 21.3955 20.645 21.3955H18.8814V29.5H17.4768ZM22.0723 25.3L24.3723 29.5H22.7723L20.5177 25.3H22.0723ZM28.7393 29.6409C28.0515 29.6409 27.459 29.4939 26.9621 29.2C26.4681 28.903 26.0863 28.4864 25.8166 27.95C25.5499 27.4106 25.4166 26.7788 25.4166 26.0545C25.4166 25.3394 25.5499 24.7091 25.8166 24.1636C26.0863 23.6182 26.4621 23.1924 26.9439 22.8864C27.4287 22.5803 27.9954 22.4273 28.6439 22.4273C29.0378 22.4273 29.4196 22.4924 29.7893 22.6227C30.159 22.753 30.4908 22.9576 30.7848 23.2364C31.0787 23.5152 31.3105 23.8773 31.4802 24.3227C31.6499 24.7652 31.7348 25.303 31.7348 25.9364V26.4182H26.1848V25.4H30.403C30.403 25.0424 30.3302 24.7258 30.1848 24.45C30.0393 24.1712 29.8348 23.9515 29.5711 23.7909C29.3105 23.6303 29.0045 23.55 28.653 23.55C28.2711 23.55 27.9378 23.6439 27.653 23.8318C27.3711 24.0167 27.153 24.2591 26.9984 24.5591C26.8469 24.8561 26.7711 25.1788 26.7711 25.5273V26.3227C26.7711 26.7894 26.853 27.1864 27.0166 27.5136C27.1833 27.8409 27.4151 28.0909 27.7121 28.2636C28.009 28.4333 28.356 28.5182 28.753 28.5182C29.0105 28.5182 29.2454 28.4818 29.4575 28.4091C29.6696 28.3333 29.853 28.2212 30.0075 28.0727C30.1621 27.9242 30.2802 27.7409 30.3621 27.5227L31.6484 27.7545C31.5454 28.1333 31.3605 28.4652 31.0939 28.75C30.8302 29.0318 30.4984 29.2515 30.0984 29.4091C29.7015 29.5636 29.2484 29.6409 28.7393 29.6409ZM38.6746 24.2227L37.4427 24.4409C37.3912 24.2833 37.3094 24.1333 37.1973 23.9909C37.0882 23.8485 36.9397 23.7318 36.7518 23.6409C36.564 23.55 36.3291 23.5045 36.0473 23.5045C35.6624 23.5045 35.3412 23.5909 35.0836 23.7636C34.8261 23.9333 34.6973 24.153 34.6973 24.4227C34.6973 24.6561 34.7836 24.8439 34.9564 24.9864C35.1291 25.1288 35.4079 25.2455 35.7927 25.3364L36.9018 25.5909C37.5443 25.7394 38.023 25.9682 38.3382 26.2773C38.6533 26.5864 38.8109 26.9879 38.8109 27.4818C38.8109 27.9 38.6897 28.2727 38.4473 28.6C38.2079 28.9242 37.873 29.1788 37.4427 29.3636C37.0155 29.5485 36.52 29.6409 35.9564 29.6409C35.1746 29.6409 34.5367 29.4742 34.0427 29.1409C33.5488 28.8045 33.2458 28.3273 33.1336 27.7091L34.4473 27.5091C34.5291 27.8515 34.6973 28.1106 34.9518 28.2864C35.2064 28.4591 35.5382 28.5455 35.9473 28.5455C36.3927 28.5455 36.7488 28.453 37.0155 28.2682C37.2821 28.0803 37.4155 27.8515 37.4155 27.5818C37.4155 27.3636 37.3336 27.1803 37.17 27.0318C37.0094 26.8833 36.7624 26.7712 36.4291 26.6955L35.2473 26.4364C34.5958 26.2879 34.114 26.0515 33.8018 25.7273C33.4927 25.403 33.3382 24.9924 33.3382 24.4955C33.3382 24.0833 33.4533 23.7227 33.6836 23.4136C33.914 23.1045 34.2321 22.8636 34.6382 22.6909C35.0443 22.5152 35.5094 22.4273 36.0336 22.4273C36.7882 22.4273 37.3821 22.5909 37.8155 22.9182C38.2488 23.2424 38.5352 23.6773 38.6746 24.2227ZM44.928 26.6045V22.5182H46.2916V29.5H44.9552V28.2909H44.8825C44.7219 28.6636 44.4643 28.9742 44.1098 29.2227C43.7583 29.4682 43.3204 29.5909 42.7961 29.5909C42.3477 29.5909 41.9507 29.4924 41.6052 29.2955C41.2628 29.0955 40.9931 28.8 40.7961 28.4091C40.6022 28.0182 40.5052 27.5348 40.5052 26.9591V22.5182H41.8643V26.7955C41.8643 27.2712 41.9961 27.65 42.2598 27.9318C42.5234 28.2136 42.8658 28.3545 43.2871 28.3545C43.5416 28.3545 43.7946 28.2909 44.0461 28.1636C44.3007 28.0364 44.5113 27.8439 44.678 27.5864C44.8477 27.3288 44.931 27.0015 44.928 26.6045ZM48.3177 29.5V22.5182H49.6223V23.6545H49.7086C49.8541 23.2697 50.092 22.9697 50.4223 22.7545C50.7526 22.5364 51.148 22.4273 51.6086 22.4273C52.0753 22.4273 52.4662 22.5364 52.7814 22.7545C53.0996 22.9727 53.3344 23.2727 53.4859 23.6545H53.5586C53.7253 23.2818 53.9905 22.9848 54.3541 22.7636C54.7177 22.5394 55.1511 22.4273 55.6541 22.4273C56.2874 22.4273 56.8041 22.6258 57.2041 23.0227C57.6071 23.4197 57.8086 24.0182 57.8086 24.8182V29.5H56.4496V24.9455C56.4496 24.4727 56.3208 24.1303 56.0632 23.9182C55.8056 23.7061 55.498 23.6 55.1405 23.6C54.698 23.6 54.3541 23.7364 54.1086 24.0091C53.8632 24.2788 53.7405 24.6258 53.7405 25.05V29.5H52.3859V24.8591C52.3859 24.4803 52.2677 24.1758 52.0314 23.9455C51.795 23.7152 51.4874 23.6 51.1086 23.6C50.8511 23.6 50.6132 23.6682 50.395 23.8045C50.1799 23.9379 50.0056 24.1242 49.8723 24.3636C49.742 24.603 49.6768 24.8803 49.6768 25.1955V29.5H48.3177ZM62.8393 29.6409C62.1515 29.6409 61.559 29.4939 61.0621 29.2C60.5681 28.903 60.1863 28.4864 59.9166 27.95C59.6499 27.4106 59.5166 26.7788 59.5166 26.0545C59.5166 25.3394 59.6499 24.7091 59.9166 24.1636C60.1863 23.6182 60.5621 23.1924 61.0439 22.8864C61.5287 22.5803 62.0954 22.4273 62.7439 22.4273C63.1378 22.4273 63.5196 22.4924 63.8893 22.6227C64.259 22.753 64.5908 22.9576 64.8848 23.2364C65.1787 23.5152 65.4105 23.8773 65.5802 24.3227C65.7499 24.7652 65.8348 25.303 65.8348 25.9364V26.4182H60.2848V25.4H64.503C64.503 25.0424 64.4302 24.7258 64.2848 24.45C64.1393 24.1712 63.9348 23.9515 63.6711 23.7909C63.4105 23.6303 63.1045 23.55 62.753 23.55C62.3711 23.55 62.0378 23.6439 61.753 23.8318C61.4711 24.0167 61.253 24.2591 61.0984 24.5591C60.9469 24.8561 60.8711 25.1788 60.8711 25.5273V26.3227C60.8711 26.7894 60.953 27.1864 61.1166 27.5136C61.2833 27.8409 61.5151 28.0909 61.8121 28.2636C62.109 28.4333 62.456 28.5182 62.853 28.5182C63.1105 28.5182 63.3454 28.4818 63.5575 28.4091C63.7696 28.3333 63.953 28.2212 64.1075 28.0727C64.2621 27.9242 64.3802 27.7409 64.4621 27.5227L65.7484 27.7545C65.6454 28.1333 65.4605 28.4652 65.1939 28.75C64.9302 29.0318 64.5984 29.2515 64.1984 29.4091C63.8015 29.5636 63.3484 29.6409 62.8393 29.6409Z" fill="#F2F2F2"/>
    <path id="resume-animated" d="M74.2416 30.5L73.4541 29.7125L82.7916 20.375H77.2791V19.25H84.7041V26.675H83.5791V21.1625L74.2416 30.5Z" fill="#F2F2F2"/>
</svg>
